<svg width="3053" height="2181" viewBox="0 0 3053 2181" fill="none" xmlns="http://www.w3.org/2000/svg">
<path d="M1034.11 1712.99V1800.99" stroke="#132AF4" stroke-width="15"/>
<path d="M1034.11 1172.99V880.495" stroke="#132AF4" stroke-width="15"/>
<path d="M1034.12 812.995V767.995L943.934 752.995L1124.3 722.995L943.934 692.995L1124.3 662.995L943.934 632.995L1124.3 602.995L943.934 572.995L1124.3 542.995L943.934 512.995L1124.3 482.995L1034.12 467.995V422.995" stroke="#132AF4" stroke-width="15"/>
<path d="M1034.5 353.995C1053.87 353.995 1069.57 369.665 1069.57 388.995C1069.57 408.325 1053.87 423.995 1034.5 423.995C1015.13 423.995 999.426 408.325 999.426 388.995C999.426 369.665 1015.13 353.995 1034.5 353.995Z" fill="#132AF4"/>
<ellipse cx="1034.11" cy="846.995" rx="35" ry="35.0706" transform="rotate(-90 1034.11 846.995)" fill="#132AF4"/>
<path d="M1034.1 124.495V253.495" stroke="#132AF4" stroke-width="15"/>
<path d="M864.004 107H1967" stroke="#132AF4" stroke-width="35"/>
<path d="M931.91 2014.99H1135.32" stroke="#132AF4" stroke-width="35"/>
<path d="M966.98 2093.99H1098.24" stroke="#132AF4" stroke-width="35"/>
<path d="M990.027 2162.99H1076.2" stroke="#132AF4" stroke-width="35"/>
<path d="M1032.8 1997.99V1868.99" stroke="#132AF4" stroke-width="15"/>
<path d="M1033.11 1799.99C1052.48 1799.99 1068.18 1815.66 1068.18 1834.99C1068.18 1854.32 1052.48 1869.99 1033.11 1869.99C1013.74 1869.99 998.039 1854.32 998.039 1834.99C998.039 1815.66 1013.74 1799.99 1033.11 1799.99Z" fill="#132AF4"/>
<path d="M1034.11 253.495V371.995" stroke="#132AF4" stroke-width="15"/>
<path d="M806.152 1262.99V1622.99" stroke="#132AF4" stroke-width="35"/>
<path d="M720.488 1306.99V1578.99" stroke="#132AF4" stroke-width="35"/>
<path d="M1017.5 1532.8L897.157 1493.1C897.014 1493.05 896.942 1493.03 896.899 1493.07C896.856 1493.1 896.87 1493.18 896.897 1493.33L904.253 1532.99L896.897 1572.66C896.87 1572.81 896.856 1572.88 896.899 1572.92C896.942 1572.96 897.014 1572.94 897.157 1572.89L1017.5 1533.18C1017.74 1533.11 1017.86 1533.07 1017.86 1532.99C1017.86 1532.92 1017.74 1532.88 1017.5 1532.8Z" fill="#132AF4"/>
<path d="M904.253 1532.99L896.897 1572.66C896.87 1572.81 896.856 1572.88 896.899 1572.92C896.942 1572.96 897.014 1572.94 897.157 1572.89L1017.5 1533.18C1017.74 1533.11 1017.86 1533.07 1017.86 1532.99C1017.86 1532.92 1017.74 1532.88 1017.5 1532.8L897.157 1493.1C897.014 1493.05 896.942 1493.03 896.899 1493.07C896.856 1493.1 896.87 1493.18 896.897 1493.33L904.253 1532.99ZM904.253 1532.99H823.188" stroke="#132AF4" stroke-width="15"/>
<path d="M1018.09 1532.99H1034.12V1712.99" stroke="#132AF4" stroke-width="15"/>
<path d="M823.699 1352.99H1034.12V1172.99" stroke="#132AF4" stroke-width="15"/>
<path d="M737.991 1442.99H564.141" stroke="#132AF4" stroke-width="15"/>
<path d="M530.071 1415.49C545.312 1415.49 557.641 1427.82 557.641 1442.99C557.641 1458.17 545.312 1470.49 530.071 1470.49C514.83 1470.49 502.5 1458.17 502.5 1442.99C502.5 1427.82 514.83 1415.49 530.071 1415.49Z" stroke="#132AF4" stroke-width="15"/>
<path d="M1016.08 1090H564.172" stroke="#132AF4" stroke-width="15"/>
<path d="M530.102 1117.5C545.343 1117.5 557.672 1105.17 557.672 1090C557.672 1074.83 545.343 1062.5 530.102 1062.5C514.861 1062.5 502.531 1074.83 502.531 1090C502.531 1105.17 514.861 1117.5 530.102 1117.5Z" stroke="#132AF4" stroke-width="15"/>
<path d="M1034.11 1054.99C1053.48 1054.99 1069.18 1070.66 1069.18 1089.99C1069.18 1109.32 1053.48 1124.99 1034.11 1124.99C1014.74 1124.99 999.039 1109.32 999.039 1089.99C999.039 1070.66 1014.74 1054.99 1034.11 1054.99Z" fill="#132AF4"/>
<path d="M2032 1712.99V1800.99" stroke="#132AF4" stroke-width="15"/>
<path d="M2032 1172.99V880.495" stroke="#132AF4" stroke-width="15"/>
<path d="M2032 812.995V767.995L1942 752.995L2122 722.995L1942 692.995L2122 662.995L1942 632.995L2122 602.995L1942 572.995L2122 542.995L1942 512.995L2122 482.995L2032 467.995V422.995" stroke="#132AF4" stroke-width="15"/>
<path d="M2032.38 353.995C2051.7 353.995 2067.38 369.665 2067.38 388.995C2067.38 408.325 2051.7 423.995 2032.38 423.995C2013.05 423.995 1997.38 408.325 1997.38 388.995C1997.38 369.665 2013.05 353.995 2032.38 353.995Z" fill="#132AF4"/>
<circle cx="2032" cy="846.995" r="35" transform="rotate(-90 2032 846.995)" fill="#132AF4"/>
<path d="M2032 124.495V253.495" stroke="#132AF4" stroke-width="15"/>
<path d="M1862 106.995H2203" stroke="#132AF4" stroke-width="35"/>
<path d="M1930 2014.99H2133" stroke="#132AF4" stroke-width="35"/>
<path d="M1965 2093.99H2096" stroke="#132AF4" stroke-width="35"/>
<path d="M1988 2162.99H2074" stroke="#132AF4" stroke-width="35"/>
<path d="M2030.69 1997.99V1868.99" stroke="#132AF4" stroke-width="15"/>
<path d="M2031 1799.99C2050.33 1799.99 2066 1815.66 2066 1834.99C2066 1854.32 2050.33 1869.99 2031 1869.99C2011.67 1869.99 1996 1854.32 1996 1834.99C1996 1815.66 2011.67 1799.99 2031 1799.99Z" fill="#132AF4"/>
<path d="M2032 253.495V371.995" stroke="#132AF4" stroke-width="15"/>
<path d="M2240.84 1262.99V1622.99" stroke="#132AF4" stroke-width="35"/>
<path d="M2319.32 1306.99V1578.99" stroke="#132AF4" stroke-width="35"/>
<path d="M2047.21 1532.81L2157.44 1493.11C2157.58 1493.06 2157.66 1493.03 2157.7 1493.07C2157.74 1493.11 2157.73 1493.18 2157.71 1493.33L2150.97 1532.99L2157.71 1572.66C2157.73 1572.81 2157.74 1572.88 2157.7 1572.92C2157.66 1572.96 2157.58 1572.93 2157.44 1572.88L2157.44 1572.88L2047.21 1533.18C2046.99 1533.1 2046.88 1533.06 2046.88 1532.99C2046.88 1532.92 2046.99 1532.88 2047.21 1532.81Z" fill="#132AF4"/>
<path d="M2150.97 1532.99L2157.71 1572.66C2157.73 1572.81 2157.74 1572.88 2157.7 1572.92C2157.66 1572.96 2157.58 1572.93 2157.44 1572.88L2047.21 1533.18C2046.99 1533.1 2046.88 1533.06 2046.88 1532.99C2046.88 1532.92 2046.99 1532.88 2047.21 1532.81L2157.44 1493.11C2157.58 1493.06 2157.66 1493.03 2157.7 1493.07C2157.74 1493.11 2157.73 1493.18 2157.71 1493.33L2150.97 1532.99ZM2150.97 1532.99H2225.23" stroke="#132AF4" stroke-width="15"/>
<path d="M2046.69 1532.99H2032V1712.99" stroke="#132AF4" stroke-width="15"/>
<path d="M2224.77 1352.99H2032V1172.99" stroke="#132AF4" stroke-width="15"/>
<path d="M2330 1442.99H2489.27" stroke="#132AF4" stroke-width="15"/>
<circle cx="35" cy="35" r="27.5" transform="matrix(0 -1 -1 0 2552.61 1477.99)" stroke="#132AF4" stroke-width="15"/>
<path d="M2032.5 1089.99H2483.5" stroke="#132AF4" stroke-width="15"/>
<circle cx="2517.5" cy="1089.99" r="27.5" transform="rotate(90 2517.5 1089.99)" stroke="#132AF4" stroke-width="15"/>
<path d="M2032 1054.99C2051.33 1054.99 2067 1070.66 2067 1089.99C2067 1109.32 2051.33 1124.99 2032 1124.99C2012.67 1124.99 1997 1109.32 1997 1089.99C1997 1070.66 2012.67 1054.99 2032 1054.99Z" fill="#132AF4"/>
<path d="M8 998.316C8 994.831 9.02957 992.059 11.0887 990H13.7022C20.3548 990.475 28.6706 990.713 38.6494 990.713C57.3401 990.713 68.3485 990.475 71.6748 990H74.0507C75.0011 990.951 75.4763 991.663 75.4763 992.138C75.4763 992.614 75.3179 994.039 75.0011 996.415C74.2091 998.791 73.4964 1000.3 72.8628 1000.93H67.8733C64.3886 1001.25 62.0127 1001.4 60.7456 1001.4C56.1521 1002.2 53.6178 1003.38 53.1426 1004.97C53.1426 1005.29 55.4393 1025.16 60.0328 1064.6C64.6262 1104.04 67.0022 1123.92 67.1606 1124.24L84.5048 1096.44C96.0677 1077.91 107.63 1059.22 119.193 1040.37C130.756 1021.52 136.696 1011.78 137.013 1011.15C137.646 1010.04 137.963 1008.85 137.963 1007.58C137.963 1003.78 134.478 1001.56 127.509 1000.93C124.658 1000.93 123.232 1000.06 123.232 998.316C123.232 998.157 123.391 997.128 123.708 995.227C124.183 993.01 124.658 991.584 125.133 990.951C125.608 990.317 126.638 990 128.222 990C128.539 990 129.489 990 131.073 990C132.657 990 135.35 990.079 139.151 990.238C142.953 990.396 148.021 990.475 154.357 990.475C165.286 990.475 172.176 990.317 175.028 990H176.691C177.8 991.109 178.354 991.98 178.354 992.614C178.354 995.306 177.641 997.841 176.216 1000.22C175.74 1000.69 174.394 1000.93 172.176 1000.93C170.117 1001.09 168.217 1001.25 166.474 1001.4C164.732 1001.56 163.069 1001.96 161.485 1002.59C159.901 1003.23 158.634 1003.78 157.683 1004.26C156.733 1004.73 155.783 1005.36 154.832 1006.16C153.882 1006.95 153.09 1007.5 152.456 1007.82C151.823 1008.14 151.189 1008.85 150.556 1009.96C149.922 1011.07 149.368 1011.62 148.892 1011.62L103.037 1085.27C74.5259 1131.37 59.7952 1154.97 58.8448 1156.08C58.3696 1156.39 57.8153 1156.79 57.1817 1157.27L52.905 1157.5H51.2419C48.3907 1157.5 46.9652 1156.95 46.9652 1155.84C46.49 1154.89 43.4013 1129.55 37.6991 1079.81C31.6801 1029.44 28.5914 1004.02 28.433 1003.54C27.641 1001.8 22.7307 1000.93 13.7022 1000.93H9.66315C8.55438 1000.14 8 999.266 8 998.316Z" fill="#132AF4" stroke="#132AF4" stroke-width="15"/>
<path d="M175.752 1189.76C167.353 1189.76 160.578 1187.02 155.426 1181.53C150.275 1176.04 147.699 1169.44 147.699 1161.71C147.699 1154.43 149.379 1147.54 152.739 1141.05C156.098 1134.55 160.69 1128.9 166.513 1124.08C175.024 1117.25 183.702 1113.83 192.549 1113.83C196.133 1113.83 198.373 1113.89 199.268 1114C200.724 1114.34 202.18 1114.73 203.636 1115.18C205.092 1115.63 207.051 1116.52 209.515 1117.87C211.979 1119.21 213.995 1120.89 215.562 1122.91C217.13 1124.92 218.586 1127.66 219.93 1131.14C221.274 1134.61 221.945 1138.53 221.945 1142.89C221.945 1154.88 217.13 1165.68 207.499 1175.31C197.869 1184.95 187.286 1189.76 175.752 1189.76ZM162.313 1167.76C162.313 1173.35 163.769 1177.39 166.681 1179.85C169.592 1182.31 172.896 1183.55 176.591 1183.55C181.519 1183.55 186.166 1181.75 190.534 1178.17C194.901 1174.59 198.373 1169.88 200.948 1164.06C201.956 1161.71 203.244 1157.56 204.812 1151.63C206.38 1145.69 207.163 1140.54 207.163 1136.18C207.163 1131.25 206.156 1127.5 204.14 1124.92C201.452 1121.56 197.869 1119.88 193.389 1119.88C186.334 1119.88 180.119 1123.13 174.744 1129.62C170.6 1134.55 167.521 1141.1 165.505 1149.28C163.489 1157.45 162.425 1163.61 162.313 1167.76Z" fill="#132AF4" stroke="#132AF4" stroke-width="15"/>
<path d="M226.953 1139.7C226.953 1138.81 227.457 1137.07 228.465 1134.5C229.473 1131.92 230.873 1129.01 232.664 1125.76C234.456 1122.51 236.92 1119.71 240.055 1117.36C243.191 1115.01 246.495 1113.78 249.966 1113.67C255.117 1113.67 258.981 1115.07 261.557 1117.87C264.132 1120.67 265.42 1123.97 265.42 1127.78C265.42 1129.79 263.516 1136.06 259.709 1146.59C255.901 1157.12 253.998 1165.01 253.998 1170.28C253.998 1175.09 254.781 1178.45 256.349 1180.35C257.917 1182.26 260.269 1183.27 263.404 1183.38C266.54 1183.49 269.508 1182.54 272.307 1180.52C275.107 1178.51 277.179 1176.6 278.522 1174.81L280.37 1171.96C280.594 1171.51 282.722 1163 286.753 1146.42C290.113 1132.98 292.129 1125.15 292.8 1122.91C293.472 1120.67 294.256 1119.04 295.152 1118.03C297.056 1116.35 299.072 1115.51 301.199 1115.51C303.103 1115.51 304.503 1116.07 305.399 1117.19C306.295 1118.31 306.743 1119.38 306.743 1120.39L293.976 1173.8C293.864 1174.36 293.808 1175.26 293.808 1176.49C293.808 1179.29 294.2 1181.14 294.984 1182.03C295.768 1182.93 296.944 1183.43 298.512 1183.55C300.975 1183.21 302.935 1181.47 304.391 1178.34C305.847 1175.2 307.527 1170.28 309.43 1163.56C309.654 1162.66 310.774 1162.21 312.79 1162.21C314.918 1162.21 315.981 1162.72 315.981 1163.72C315.869 1164.28 315.757 1165.07 315.645 1166.08C315.534 1167.08 315.03 1168.88 314.134 1171.45C313.238 1174.03 312.286 1176.43 311.278 1178.67C310.27 1180.91 308.87 1183.04 307.079 1185.06C305.287 1187.07 303.271 1188.47 301.031 1189.26C300.136 1189.48 298.792 1189.59 297 1189.59C289.609 1189.59 284.514 1186.46 281.714 1180.19C281.49 1180.3 280.874 1180.86 279.866 1181.87C278.858 1182.87 277.85 1183.71 276.843 1184.39C275.835 1185.06 274.603 1185.9 273.147 1186.91C271.691 1187.91 270.067 1188.58 268.276 1188.92C266.484 1189.26 264.58 1189.54 262.564 1189.76C257.637 1189.76 253.27 1188.75 249.462 1186.74C243.639 1183.27 240.727 1177.33 240.727 1168.93C240.727 1162.55 242.687 1154.21 246.607 1143.9C250.526 1133.6 252.486 1127.05 252.486 1124.25C252.486 1124.14 252.486 1124.03 252.486 1123.91C252.486 1122.91 252.486 1122.23 252.486 1121.9C252.486 1121.56 252.262 1121.17 251.814 1120.72C251.366 1120.27 250.75 1120.05 249.966 1120.05H249.294C246.719 1120.05 244.367 1121.11 242.239 1123.24C240.111 1125.37 238.432 1127.66 237.2 1130.13C235.968 1132.59 235.016 1134.94 234.344 1137.18C233.672 1139.42 233.224 1140.66 233 1140.88C232.776 1141.1 231.88 1141.22 230.313 1141.22H227.961C227.289 1140.54 226.953 1140.04 226.953 1139.7Z" fill="#132AF4" stroke="#132AF4" stroke-width="15"/>
<path d="M323.926 1123.24C323.142 1122.46 322.75 1121.9 322.75 1121.56C322.75 1121.11 322.918 1120.22 323.254 1118.87C323.59 1117.53 323.87 1116.75 324.094 1116.52C324.318 1115.96 324.822 1115.68 325.606 1115.68C326.39 1115.68 329.245 1115.63 334.173 1115.51H343.075L346.267 1102.08C346.603 1100.84 346.995 1099.22 347.443 1097.2C347.891 1095.19 348.283 1093.73 348.619 1092.84C348.955 1091.94 349.291 1090.82 349.626 1089.48C349.962 1088.13 350.41 1087.18 350.97 1086.62C351.53 1086.06 352.09 1085.39 352.65 1084.61C353.21 1083.82 353.994 1083.32 355.002 1083.09C356.01 1082.87 357.018 1082.76 358.025 1082.76C360.041 1082.87 361.441 1083.49 362.225 1084.61C363.009 1085.73 363.401 1086.79 363.401 1087.8C363.401 1088.58 362.897 1091.21 361.889 1095.69C360.881 1100.17 359.761 1104.6 358.529 1108.96L356.85 1115.18C356.85 1115.4 359.649 1115.51 365.248 1115.51H373.815C374.599 1116.3 374.991 1116.91 374.991 1117.36C374.991 1119.83 374.263 1121.79 372.807 1123.24H354.834L348.787 1147.6C344.419 1165.52 342.235 1175.15 342.235 1176.49C342.235 1181.19 343.747 1183.55 346.771 1183.55C350.69 1183.55 354.498 1181.64 358.193 1177.83C361.889 1174.03 364.856 1169.32 367.096 1163.72C367.32 1163.05 367.6 1162.66 367.936 1162.55C368.272 1162.44 369.112 1162.32 370.456 1162.21H371.128C372.807 1162.21 373.647 1162.66 373.647 1163.56C373.647 1163.89 373.479 1164.56 373.143 1165.57C372.583 1167.36 371.576 1169.49 370.12 1171.96C368.664 1174.42 366.76 1177.05 364.409 1179.85C362.057 1182.65 359.201 1185 355.842 1186.91C352.482 1188.81 349.067 1189.76 345.595 1189.76C342.235 1189.76 339.044 1188.92 336.02 1187.24C332.997 1185.56 330.813 1182.65 329.469 1178.51C329.245 1177.61 329.133 1176.1 329.133 1173.97V1170.95L335.012 1147.43C338.932 1131.64 340.948 1123.69 341.06 1123.58C341.06 1123.35 338.204 1123.24 332.493 1123.24H323.926Z" fill="#132AF4" stroke="#132AF4" stroke-width="15"/>
<path d="M415.978 1090.82L413.794 1091.66C412.226 1092.22 409.987 1092.78 407.075 1093.34C404.163 1093.9 400.916 1094.3 397.332 1094.52H394.141V1086.79H397.332C402.596 1086.57 407.467 1085.73 411.946 1084.27C416.426 1082.82 419.561 1081.47 421.353 1080.24C423.145 1079.01 424.713 1077.78 426.056 1076.55C426.28 1076.21 426.952 1076.04 428.072 1076.04C429.08 1076.04 430.032 1076.38 430.928 1077.05V1127.27L431.096 1177.67C431.88 1178.45 432.552 1178.96 433.112 1179.18C433.671 1179.4 435.015 1179.63 437.143 1179.85C439.271 1180.08 442.742 1180.19 447.558 1180.19H451.925V1187.92H450.077C447.726 1187.58 438.823 1187.41 423.369 1187.41C408.139 1187.41 399.348 1187.58 396.996 1187.92H394.981V1180.19H399.348C401.812 1180.19 403.939 1180.19 405.731 1180.19C407.523 1180.19 408.923 1180.13 409.931 1180.02C410.938 1179.91 411.834 1179.74 412.618 1179.52C413.402 1179.29 413.85 1179.18 413.962 1179.18C414.074 1179.18 414.41 1178.9 414.97 1178.34C415.53 1177.78 415.866 1177.56 415.978 1177.67V1090.82Z" fill="#132AF4" stroke="#132AF4" stroke-width="15"/>
<path d="M2597 998.316C2597 994.831 2598.03 992.059 2600.09 990H2602.7C2609.35 990.475 2617.67 990.713 2627.65 990.713C2646.34 990.713 2657.35 990.475 2660.67 990H2663.05C2664 990.951 2664.48 991.663 2664.48 992.138C2664.48 992.614 2664.32 994.039 2664 996.415C2663.21 998.791 2662.5 1000.3 2661.86 1000.93H2656.87C2653.39 1001.25 2651.01 1001.4 2649.75 1001.4C2645.15 1002.2 2642.62 1003.38 2642.14 1004.97C2642.14 1005.29 2644.44 1025.16 2649.03 1064.6C2653.63 1104.04 2656 1123.92 2656.16 1124.24L2673.5 1096.44C2685.07 1077.91 2696.63 1059.22 2708.19 1040.37C2719.76 1021.52 2725.7 1011.78 2726.01 1011.15C2726.65 1010.04 2726.96 1008.85 2726.96 1007.58C2726.96 1003.78 2723.48 1001.56 2716.51 1000.93C2713.66 1000.93 2712.23 1000.06 2712.23 998.316C2712.23 998.157 2712.39 997.128 2712.71 995.227C2713.18 993.01 2713.66 991.584 2714.13 990.951C2714.61 990.317 2715.64 990 2717.22 990C2717.54 990 2718.49 990 2720.07 990C2721.66 990 2724.35 990.079 2728.15 990.238C2731.95 990.396 2737.02 990.475 2743.36 990.475C2754.29 990.475 2761.18 990.317 2764.03 990H2765.69C2766.8 991.109 2767.35 991.98 2767.35 992.614C2767.35 995.306 2766.64 997.841 2765.22 1000.22C2764.74 1000.69 2763.39 1000.93 2761.18 1000.93C2759.12 1001.09 2757.22 1001.25 2755.47 1001.4C2753.73 1001.56 2752.07 1001.96 2750.48 1002.59C2748.9 1003.23 2747.63 1003.78 2746.68 1004.26C2745.73 1004.73 2744.78 1005.36 2743.83 1006.16C2742.88 1006.95 2742.09 1007.5 2741.46 1007.82C2740.82 1008.14 2740.19 1008.85 2739.56 1009.96C2738.92 1011.07 2738.37 1011.62 2737.89 1011.62L2692.04 1085.27C2663.53 1131.37 2648.8 1154.97 2647.84 1156.08C2647.37 1156.39 2646.82 1156.79 2646.18 1157.27L2641.91 1157.5H2640.24C2637.39 1157.5 2635.97 1156.95 2635.97 1155.84C2635.49 1154.89 2632.4 1129.55 2626.7 1079.81C2620.68 1029.44 2617.59 1004.02 2617.43 1003.54C2616.64 1001.8 2611.73 1000.93 2602.7 1000.93H2598.66C2597.55 1000.14 2597 999.266 2597 998.316Z" fill="#132AF4" stroke="#132AF4" stroke-width="15"/>
<path d="M2764.75 1189.76C2756.35 1189.76 2749.57 1187.02 2744.42 1181.53C2739.27 1176.04 2736.7 1169.44 2736.7 1161.71C2736.7 1154.43 2738.38 1147.54 2741.73 1141.05C2745.09 1134.55 2749.69 1128.9 2755.51 1124.08C2764.02 1117.25 2772.7 1113.83 2781.55 1113.83C2785.13 1113.83 2787.37 1113.89 2788.26 1114C2789.72 1114.34 2791.18 1114.73 2792.63 1115.18C2794.09 1115.63 2796.05 1116.52 2798.51 1117.87C2800.97 1119.21 2802.99 1120.89 2804.56 1122.91C2806.13 1124.92 2807.58 1127.66 2808.93 1131.14C2810.27 1134.61 2810.94 1138.53 2810.94 1142.89C2810.94 1154.88 2806.13 1165.68 2796.5 1175.31C2786.86 1184.95 2776.28 1189.76 2764.75 1189.76ZM2751.31 1167.76C2751.31 1173.35 2752.77 1177.39 2755.68 1179.85C2758.59 1182.31 2761.89 1183.55 2765.59 1183.55C2770.51 1183.55 2775.16 1181.75 2779.53 1178.17C2783.9 1174.59 2787.37 1169.88 2789.94 1164.06C2790.95 1161.71 2792.24 1157.56 2793.81 1151.63C2795.38 1145.69 2796.16 1140.54 2796.16 1136.18C2796.16 1131.25 2795.15 1127.5 2793.14 1124.92C2790.45 1121.56 2786.86 1119.88 2782.39 1119.88C2775.33 1119.88 2769.12 1123.13 2763.74 1129.62C2759.6 1134.55 2756.52 1141.1 2754.5 1149.28C2752.49 1157.45 2751.42 1163.61 2751.31 1167.76Z" fill="#132AF4" stroke="#132AF4" stroke-width="15"/>
<path d="M2815.95 1139.7C2815.95 1138.81 2816.45 1137.07 2817.46 1134.5C2818.47 1131.92 2819.87 1129.01 2821.66 1125.76C2823.45 1122.51 2825.92 1119.71 2829.05 1117.36C2832.19 1115.01 2835.49 1113.78 2838.96 1113.67C2844.11 1113.67 2847.98 1115.07 2850.55 1117.87C2853.13 1120.67 2854.42 1123.97 2854.42 1127.78C2854.42 1129.79 2852.51 1136.06 2848.7 1146.59C2844.9 1157.12 2842.99 1165.01 2842.99 1170.28C2842.99 1175.09 2843.78 1178.45 2845.35 1180.35C2846.91 1182.26 2849.26 1183.27 2852.4 1183.38C2855.54 1183.49 2858.5 1182.54 2861.3 1180.52C2864.1 1178.51 2866.17 1176.6 2867.52 1174.81L2869.37 1171.96C2869.59 1171.51 2871.72 1163 2875.75 1146.42C2879.11 1132.98 2881.12 1125.15 2881.8 1122.91C2882.47 1120.67 2883.25 1119.04 2884.15 1118.03C2886.05 1116.35 2888.07 1115.51 2890.2 1115.51C2892.1 1115.51 2893.5 1116.07 2894.39 1117.19C2895.29 1118.31 2895.74 1119.38 2895.74 1120.39L2882.97 1173.8C2882.86 1174.36 2882.8 1175.26 2882.8 1176.49C2882.8 1179.29 2883.2 1181.14 2883.98 1182.03C2884.76 1182.93 2885.94 1183.43 2887.51 1183.55C2889.97 1183.21 2891.93 1181.47 2893.39 1178.34C2894.84 1175.2 2896.52 1170.28 2898.43 1163.56C2898.65 1162.66 2899.77 1162.21 2901.79 1162.21C2903.91 1162.21 2904.98 1162.72 2904.98 1163.72C2904.87 1164.28 2904.75 1165.07 2904.64 1166.08C2904.53 1167.08 2904.03 1168.88 2903.13 1171.45C2902.23 1174.03 2901.28 1176.43 2900.27 1178.67C2899.27 1180.91 2897.87 1183.04 2896.07 1185.06C2894.28 1187.07 2892.27 1188.47 2890.03 1189.26C2889.13 1189.48 2887.79 1189.59 2886 1189.59C2878.61 1189.59 2873.51 1186.46 2870.71 1180.19C2870.49 1180.3 2869.87 1180.86 2868.86 1181.87C2867.85 1182.87 2866.85 1183.71 2865.84 1184.39C2864.83 1185.06 2863.6 1185.9 2862.14 1186.91C2860.69 1187.91 2859.06 1188.58 2857.27 1188.92C2855.48 1189.26 2853.58 1189.54 2851.56 1189.76C2846.63 1189.76 2842.27 1188.75 2838.46 1186.74C2832.64 1183.27 2829.72 1177.33 2829.72 1168.93C2829.72 1162.55 2831.68 1154.21 2835.6 1143.9C2839.52 1133.6 2841.48 1127.05 2841.48 1124.25C2841.48 1124.14 2841.48 1124.03 2841.48 1123.91C2841.48 1122.91 2841.48 1122.23 2841.48 1121.9C2841.48 1121.56 2841.26 1121.17 2840.81 1120.72C2840.36 1120.27 2839.75 1120.05 2838.96 1120.05H2838.29C2835.71 1120.05 2833.36 1121.11 2831.24 1123.24C2829.11 1125.37 2827.43 1127.66 2826.2 1130.13C2824.96 1132.59 2824.01 1134.94 2823.34 1137.18C2822.67 1139.42 2822.22 1140.66 2822 1140.88C2821.77 1141.1 2820.88 1141.22 2819.31 1141.22H2816.96C2816.29 1140.54 2815.95 1140.04 2815.95 1139.7Z" fill="#132AF4" stroke="#132AF4" stroke-width="15"/>
<path d="M2912.92 1123.24C2912.14 1122.46 2911.75 1121.9 2911.75 1121.56C2911.75 1121.11 2911.91 1120.22 2912.25 1118.87C2912.59 1117.53 2912.87 1116.75 2913.09 1116.52C2913.31 1115.96 2913.82 1115.68 2914.6 1115.68C2915.39 1115.68 2918.24 1115.63 2923.17 1115.51H2932.07L2935.26 1102.08C2935.6 1100.84 2935.99 1099.22 2936.44 1097.2C2936.89 1095.19 2937.28 1093.73 2937.61 1092.84C2937.95 1091.94 2938.29 1090.82 2938.62 1089.48C2938.96 1088.13 2939.41 1087.18 2939.97 1086.62C2940.53 1086.06 2941.09 1085.39 2941.65 1084.61C2942.21 1083.82 2942.99 1083.32 2944 1083.09C2945.01 1082.87 2946.01 1082.76 2947.02 1082.76C2949.04 1082.87 2950.44 1083.49 2951.22 1084.61C2952 1085.73 2952.4 1086.79 2952.4 1087.8C2952.4 1088.58 2951.89 1091.21 2950.88 1095.69C2949.88 1100.17 2948.76 1104.6 2947.53 1108.96L2945.85 1115.18C2945.85 1115.4 2948.65 1115.51 2954.24 1115.51H2962.81C2963.6 1116.3 2963.99 1116.91 2963.99 1117.36C2963.99 1119.83 2963.26 1121.79 2961.8 1123.24H2943.83L2937.78 1147.6C2933.42 1165.52 2931.23 1175.15 2931.23 1176.49C2931.23 1181.19 2932.74 1183.55 2935.77 1183.55C2939.69 1183.55 2943.49 1181.64 2947.19 1177.83C2950.88 1174.03 2953.85 1169.32 2956.09 1163.72C2956.32 1163.05 2956.6 1162.66 2956.93 1162.55C2957.27 1162.44 2958.11 1162.32 2959.45 1162.21H2960.12C2961.8 1162.21 2962.64 1162.66 2962.64 1163.56C2962.64 1163.89 2962.48 1164.56 2962.14 1165.57C2961.58 1167.36 2960.57 1169.49 2959.12 1171.96C2957.66 1174.42 2955.76 1177.05 2953.4 1179.85C2951.05 1182.65 2948.2 1185 2944.84 1186.91C2941.48 1188.81 2938.06 1189.76 2934.59 1189.76C2931.23 1189.76 2928.04 1188.92 2925.02 1187.24C2921.99 1185.56 2919.81 1182.65 2918.47 1178.51C2918.24 1177.61 2918.13 1176.1 2918.13 1173.97V1170.95L2924.01 1147.43C2927.93 1131.64 2929.94 1123.69 2930.06 1123.58C2930.06 1123.35 2927.2 1123.24 2921.49 1123.24H2912.92Z" fill="#132AF4" stroke="#132AF4" stroke-width="15"/>
<path d="M2987.51 1115.85C2984.48 1115.85 2982.08 1114.84 2980.29 1112.83C2978.49 1110.81 2977.6 1108.35 2977.6 1105.44C2977.6 1097.49 2980.57 1090.6 2986.5 1084.78C2992.44 1078.95 2999.83 1076.04 3008.67 1076.04C3018.86 1076.04 3027.38 1079.18 3034.21 1085.45C3041.04 1091.72 3044.51 1099.84 3044.62 1109.81C3044.62 1114.62 3043.5 1119.21 3041.26 1123.58C3039.02 1127.95 3036.33 1131.75 3033.2 1135C3030.06 1138.25 3025.58 1142.39 3019.76 1147.43C3015.73 1150.9 3010.13 1156.06 3002.96 1162.89L2993.05 1172.29L3005.82 1172.46C3023.4 1172.46 3032.75 1172.18 3033.87 1171.62C3034.65 1171.4 3036 1166.41 3037.9 1156.67V1156.17H3044.62V1156.67C3044.51 1157.01 3043.78 1162.1 3042.44 1171.96C3041.09 1181.81 3040.25 1186.96 3039.92 1187.41V1187.92H2977.6V1184.72V1182.71C2977.6 1181.92 2977.93 1181.08 2978.61 1180.19C2979.28 1179.29 2980.96 1177.33 2983.64 1174.31C2986.89 1170.73 2989.69 1167.59 2992.04 1164.9C2993.05 1163.78 2994.96 1161.71 2997.76 1158.69C3000.55 1155.66 3002.46 1153.59 3003.47 1152.47C3004.47 1151.35 3006.1 1149.5 3008.34 1146.93C3010.58 1144.35 3012.15 1142.45 3013.04 1141.22C3013.94 1139.99 3015.22 1138.31 3016.9 1136.18C3018.58 1134.05 3019.76 1132.26 3020.43 1130.8C3021.1 1129.35 3021.94 1127.72 3022.95 1125.93C3023.96 1124.14 3024.69 1122.35 3025.14 1120.56C3025.58 1118.76 3025.98 1117.08 3026.31 1115.52C3026.65 1113.95 3026.82 1112.1 3026.82 1109.97C3026.82 1102.92 3024.91 1096.81 3021.1 1091.66C3017.3 1086.51 3011.87 1083.94 3004.81 1083.94C3001.11 1083.94 2997.87 1084.89 2995.07 1086.79C2992.27 1088.7 2990.31 1090.54 2989.19 1092.34C2988.07 1094.13 2987.51 1095.19 2987.51 1095.53C2987.51 1095.64 2987.79 1095.7 2988.35 1095.7C2990.36 1095.7 2992.44 1096.48 2994.56 1098.05C2996.69 1099.61 2997.76 1102.19 2997.76 1105.77C2997.76 1108.57 2996.86 1110.93 2995.07 1112.83C2993.28 1114.73 2990.76 1115.74 2987.51 1115.85Z" fill="#132AF4" stroke="#132AF4" stroke-width="15"/>
<path d="M8 1351.32C8 1347.83 9.02957 1345.06 11.0887 1343H13.7022C20.3548 1343.48 28.6706 1343.71 38.6494 1343.71C57.3401 1343.71 68.3485 1343.48 71.6748 1343H74.0507C75.0011 1343.95 75.4763 1344.66 75.4763 1345.14C75.4763 1345.61 75.3179 1347.04 75.0011 1349.42C74.2091 1351.79 73.4964 1353.3 72.8628 1353.93H67.8733C64.3886 1354.25 62.0127 1354.4 60.7456 1354.4C56.1521 1355.2 53.6178 1356.38 53.1426 1357.97C53.1426 1358.29 55.4393 1378.16 60.0328 1417.6C64.6262 1457.04 67.0022 1476.92 67.1606 1477.24L84.5048 1449.44C96.0677 1430.91 107.63 1412.22 119.193 1393.37C130.756 1374.52 136.696 1364.78 137.013 1364.15C137.646 1363.04 137.963 1361.85 137.963 1360.58C137.963 1356.78 134.478 1354.56 127.509 1353.93C124.658 1353.93 123.232 1353.06 123.232 1351.32C123.232 1351.16 123.391 1350.13 123.708 1348.23C124.183 1346.01 124.658 1344.58 125.133 1343.95C125.608 1343.32 126.638 1343 128.222 1343C128.539 1343 129.489 1343 131.073 1343C132.657 1343 135.35 1343.08 139.151 1343.24C142.953 1343.4 148.021 1343.48 154.357 1343.48C165.286 1343.48 172.176 1343.32 175.028 1343H176.691C177.8 1344.11 178.354 1344.98 178.354 1345.61C178.354 1348.31 177.641 1350.84 176.216 1353.22C175.74 1353.69 174.394 1353.93 172.176 1353.93C170.117 1354.09 168.217 1354.25 166.474 1354.4C164.732 1354.56 163.069 1354.96 161.485 1355.59C159.901 1356.23 158.634 1356.78 157.683 1357.26C156.733 1357.73 155.783 1358.36 154.832 1359.16C153.882 1359.95 153.09 1360.5 152.456 1360.82C151.823 1361.14 151.189 1361.85 150.556 1362.96C149.922 1364.07 149.368 1364.62 148.892 1364.62L103.037 1438.27C74.5259 1484.37 59.7952 1507.97 58.8448 1509.08C58.3696 1509.39 57.8153 1509.79 57.1817 1510.27L52.905 1510.5H51.2419C48.3907 1510.5 46.9652 1509.95 46.9652 1508.84C46.49 1507.89 43.4013 1482.55 37.6991 1432.81C31.6801 1382.44 28.5914 1357.02 28.433 1356.54C27.641 1354.8 22.7307 1353.93 13.7022 1353.93H9.66315C8.55438 1353.14 8 1352.27 8 1351.32Z" fill="#132AF4" stroke="#132AF4" stroke-width="15"/>
<path d="M172.892 1440.13C172.892 1437.44 173.956 1435.09 176.084 1433.07C178.211 1431.06 180.675 1429.99 183.475 1429.88C185.49 1429.88 187.17 1430.55 188.514 1431.9C189.858 1433.24 190.586 1434.92 190.698 1436.93C190.698 1439.51 189.578 1441.86 187.338 1443.99C185.099 1446.12 182.635 1447.24 179.947 1447.35C178.267 1447.35 176.7 1446.79 175.244 1445.67C173.788 1444.55 173.004 1442.7 172.892 1440.13ZM145.512 1492.7C145.512 1491.81 146.016 1490.07 147.024 1487.5C148.031 1484.92 149.375 1482.06 151.055 1478.93C152.735 1475.79 155.198 1472.94 158.446 1470.36C161.694 1467.79 165.053 1466.55 168.525 1466.67C172.892 1466.67 176.532 1467.95 179.443 1470.53C182.355 1473.11 183.867 1476.58 183.979 1480.94C183.979 1482.85 183.195 1485.98 181.627 1490.35C180.059 1494.72 177.819 1500.6 174.908 1507.99C171.996 1515.38 169.645 1521.71 167.853 1526.97C167.293 1529.43 167.013 1531.23 167.013 1532.35C167.013 1535.15 167.965 1536.55 169.869 1536.55C170.876 1536.55 171.94 1536.38 173.06 1536.04C174.18 1535.71 175.468 1534.92 176.924 1533.69C178.379 1532.46 179.891 1530.5 181.459 1527.81C183.027 1525.12 184.427 1521.82 185.658 1517.9C185.994 1516.56 186.274 1515.77 186.498 1515.55C186.722 1515.32 187.674 1515.21 189.354 1515.21C191.594 1515.21 192.714 1515.77 192.714 1516.89C192.714 1517.79 192.21 1519.52 191.202 1522.1C190.194 1524.68 188.794 1527.53 187.002 1530.67C185.211 1533.8 182.691 1536.6 179.443 1539.07C176.196 1541.53 172.724 1542.76 169.029 1542.76C165.445 1542.76 162.142 1541.58 159.118 1539.23C156.094 1536.88 154.527 1533.3 154.415 1528.48C154.415 1526.58 154.695 1524.79 155.254 1523.11C155.814 1521.43 158.222 1515.04 162.477 1503.96C166.733 1492.65 169.197 1485.87 169.869 1483.63C170.54 1481.39 170.932 1479.21 171.044 1477.08C171.044 1474.39 170.092 1473.05 168.189 1473.05H167.853C164.493 1473.05 161.414 1474.9 158.614 1478.59C155.814 1482.29 153.687 1486.99 152.231 1492.7C152.119 1492.82 152.007 1492.98 151.895 1493.21C151.783 1493.43 151.727 1493.6 151.727 1493.71C151.727 1493.82 151.615 1493.94 151.391 1494.05C151.167 1494.16 150.999 1494.22 150.887 1494.22C150.775 1494.22 150.551 1494.22 150.215 1494.22C149.879 1494.22 149.431 1494.22 148.871 1494.22H146.52C145.848 1493.54 145.512 1493.04 145.512 1492.7Z" fill="#132AF4" stroke="#132AF4" stroke-width="15"/>
<path d="M203.5 1492.7C203.612 1492.03 203.78 1491.14 204.004 1490.02C204.228 1488.9 204.9 1486.77 206.02 1483.63C207.14 1480.5 208.259 1477.87 209.379 1475.74C210.499 1473.61 212.347 1471.54 214.923 1469.52C217.498 1467.51 220.074 1466.55 222.649 1466.67C226.681 1466.67 230.041 1467.67 232.728 1469.69C235.416 1471.71 237.096 1473.61 237.768 1475.4C238.439 1477.19 238.775 1478.37 238.775 1478.93C238.775 1479.15 238.831 1479.27 238.943 1479.27L240.791 1477.42C247.622 1470.25 255.405 1466.67 264.14 1466.67C270.187 1466.67 275.059 1468.18 278.754 1471.2C282.45 1474.23 284.353 1478.65 284.465 1484.47C284.577 1490.3 282.45 1499.09 278.082 1510.84C273.715 1522.6 271.587 1529.71 271.699 1532.18C271.699 1535.09 272.651 1536.55 274.555 1536.55C275.227 1536.55 275.731 1536.49 276.066 1536.38C279.314 1535.82 282.226 1533.69 284.801 1529.99C287.377 1526.3 289.337 1521.82 290.681 1516.56C290.905 1515.66 292.024 1515.21 294.04 1515.21C296.28 1515.21 297.4 1515.66 297.4 1516.56C297.4 1516.67 297.176 1517.51 296.728 1519.08C295.832 1522.32 294.6 1525.52 293.032 1528.65C291.464 1531.79 288.889 1534.92 285.305 1538.06C281.722 1541.19 277.858 1542.7 273.715 1542.59C268.451 1542.59 264.644 1541.08 262.292 1538.06C259.941 1535.03 258.765 1531.9 258.765 1528.65C258.765 1526.52 260.78 1519.8 264.812 1508.49C268.843 1497.18 270.915 1488.67 271.027 1482.96C271.027 1476.35 268.563 1473.05 263.636 1473.05H262.796C253.165 1473.05 245.047 1478.71 238.439 1490.02L237.264 1492.03L231.72 1514.54C228.025 1529.21 225.897 1537.11 225.337 1538.23C223.881 1541.25 221.474 1542.76 218.114 1542.76C216.658 1542.76 215.482 1542.42 214.587 1541.75C213.691 1541.08 213.075 1540.41 212.739 1539.74C212.403 1539.07 212.291 1538.51 212.403 1538.06C212.403 1536.6 214.531 1527.47 218.786 1510.68C223.041 1493.88 225.281 1484.75 225.505 1483.3C225.617 1482.74 225.673 1481.45 225.673 1479.43C225.673 1475.07 224.329 1472.88 221.642 1472.88C217.386 1472.88 213.859 1478.48 211.059 1489.68C210.387 1491.92 210.051 1493.1 210.051 1493.21C209.827 1493.88 208.763 1494.22 206.86 1494.22H204.508C203.836 1493.54 203.5 1493.04 203.5 1492.7Z" fill="#132AF4" stroke="#132AF4" stroke-width="15"/>
<path d="M336.517 1443.82L334.333 1444.66C332.765 1445.22 330.526 1445.78 327.614 1446.34C324.702 1446.9 321.455 1447.3 317.871 1447.52H314.68V1439.79H317.871C323.135 1439.57 328.006 1438.73 332.485 1437.27C336.965 1435.82 340.1 1434.47 341.892 1433.24C343.684 1432.01 345.252 1430.78 346.596 1429.55C346.819 1429.21 347.491 1429.04 348.611 1429.04C349.619 1429.04 350.571 1429.38 351.467 1430.05V1480.27L351.635 1530.67C352.419 1531.45 353.091 1531.96 353.651 1532.18C354.211 1532.4 355.554 1532.63 357.682 1532.85C359.81 1533.08 363.281 1533.19 368.097 1533.19H372.464V1540.92H370.616C368.265 1540.58 359.362 1540.41 343.908 1540.41C328.678 1540.41 319.887 1540.58 317.535 1540.92H315.52V1533.19H319.887C322.351 1533.19 324.478 1533.19 326.27 1533.19C328.062 1533.19 329.462 1533.13 330.47 1533.02C331.477 1532.91 332.373 1532.74 333.157 1532.52C333.941 1532.29 334.389 1532.18 334.501 1532.18C334.613 1532.18 334.949 1531.9 335.509 1531.34C336.069 1530.78 336.405 1530.56 336.517 1530.67V1443.82Z" fill="#132AF4" stroke="#132AF4" stroke-width="15"/>
<path d="M2597 1351.32C2597 1347.83 2598.03 1345.06 2600.09 1343H2602.7C2609.35 1343.48 2617.67 1343.71 2627.65 1343.71C2646.34 1343.71 2657.35 1343.48 2660.67 1343H2663.05C2664 1343.95 2664.48 1344.66 2664.48 1345.14C2664.48 1345.61 2664.32 1347.04 2664 1349.42C2663.21 1351.79 2662.5 1353.3 2661.86 1353.93H2656.87C2653.39 1354.25 2651.01 1354.4 2649.75 1354.4C2645.15 1355.2 2642.62 1356.38 2642.14 1357.97C2642.14 1358.29 2644.44 1378.16 2649.03 1417.6C2653.63 1457.04 2656 1476.92 2656.16 1477.24L2673.5 1449.44C2685.07 1430.91 2696.63 1412.22 2708.19 1393.37C2719.76 1374.52 2725.7 1364.78 2726.01 1364.15C2726.65 1363.04 2726.96 1361.85 2726.96 1360.58C2726.96 1356.78 2723.48 1354.56 2716.51 1353.93C2713.66 1353.93 2712.23 1353.06 2712.23 1351.32C2712.23 1351.16 2712.39 1350.13 2712.71 1348.23C2713.18 1346.01 2713.66 1344.58 2714.13 1343.95C2714.61 1343.32 2715.64 1343 2717.22 1343C2717.54 1343 2718.49 1343 2720.07 1343C2721.66 1343 2724.35 1343.08 2728.15 1343.24C2731.95 1343.4 2737.02 1343.48 2743.36 1343.48C2754.29 1343.48 2761.18 1343.32 2764.03 1343H2765.69C2766.8 1344.11 2767.35 1344.98 2767.35 1345.61C2767.35 1348.31 2766.64 1350.84 2765.22 1353.22C2764.74 1353.69 2763.39 1353.93 2761.18 1353.93C2759.12 1354.09 2757.22 1354.25 2755.47 1354.4C2753.73 1354.56 2752.07 1354.96 2750.48 1355.59C2748.9 1356.23 2747.63 1356.78 2746.68 1357.26C2745.73 1357.73 2744.78 1358.36 2743.83 1359.16C2742.88 1359.95 2742.09 1360.5 2741.46 1360.82C2740.82 1361.14 2740.19 1361.85 2739.56 1362.96C2738.92 1364.07 2738.37 1364.62 2737.89 1364.62L2692.04 1438.27C2663.53 1484.37 2648.8 1507.97 2647.84 1509.08C2647.37 1509.39 2646.82 1509.79 2646.18 1510.27L2641.91 1510.5H2640.24C2637.39 1510.5 2635.97 1509.95 2635.97 1508.84C2635.49 1507.89 2632.4 1482.55 2626.7 1432.81C2620.68 1382.44 2617.59 1357.02 2617.43 1356.54C2616.64 1354.8 2611.73 1353.93 2602.7 1353.93H2598.66C2597.55 1353.14 2597 1352.27 2597 1351.32Z" fill="#132AF4" stroke="#132AF4" stroke-width="15"/>
<path d="M2761.89 1440.13C2761.89 1437.44 2762.96 1435.09 2765.08 1433.07C2767.21 1431.06 2769.68 1429.99 2772.47 1429.88C2774.49 1429.88 2776.17 1430.55 2777.51 1431.9C2778.86 1433.24 2779.59 1434.92 2779.7 1436.93C2779.7 1439.51 2778.58 1441.86 2776.34 1443.99C2774.1 1446.12 2771.63 1447.24 2768.95 1447.35C2767.27 1447.35 2765.7 1446.79 2764.24 1445.67C2762.79 1444.55 2762 1442.7 2761.89 1440.13ZM2734.51 1492.7C2734.51 1491.81 2735.02 1490.07 2736.02 1487.5C2737.03 1484.92 2738.38 1482.06 2740.05 1478.93C2741.73 1475.79 2744.2 1472.94 2747.45 1470.36C2750.69 1467.79 2754.05 1466.55 2757.52 1466.67C2761.89 1466.67 2765.53 1467.95 2768.44 1470.53C2771.35 1473.11 2772.87 1476.58 2772.98 1480.94C2772.98 1482.85 2772.19 1485.98 2770.63 1490.35C2769.06 1494.72 2766.82 1500.6 2763.91 1507.99C2761 1515.38 2758.64 1521.71 2756.85 1526.97C2756.29 1529.43 2756.01 1531.23 2756.01 1532.35C2756.01 1535.15 2756.96 1536.55 2758.87 1536.55C2759.88 1536.55 2760.94 1536.38 2762.06 1536.04C2763.18 1535.71 2764.47 1534.92 2765.92 1533.69C2767.38 1532.46 2768.89 1530.5 2770.46 1527.81C2772.03 1525.12 2773.43 1521.82 2774.66 1517.9C2774.99 1516.56 2775.27 1515.77 2775.5 1515.55C2775.72 1515.32 2776.67 1515.21 2778.35 1515.21C2780.59 1515.21 2781.71 1515.77 2781.71 1516.89C2781.71 1517.79 2781.21 1519.52 2780.2 1522.1C2779.19 1524.68 2777.79 1527.53 2776 1530.67C2774.21 1533.8 2771.69 1536.6 2768.44 1539.07C2765.2 1541.53 2761.72 1542.76 2758.03 1542.76C2754.45 1542.76 2751.14 1541.58 2748.12 1539.23C2745.09 1536.88 2743.53 1533.3 2743.41 1528.48C2743.41 1526.58 2743.69 1524.79 2744.25 1523.11C2744.81 1521.43 2747.22 1515.04 2751.48 1503.96C2755.73 1492.65 2758.2 1485.87 2758.87 1483.63C2759.54 1481.39 2759.93 1479.21 2760.04 1477.08C2760.04 1474.39 2759.09 1473.05 2757.19 1473.05H2756.85C2753.49 1473.05 2750.41 1474.9 2747.61 1478.59C2744.81 1482.29 2742.69 1486.99 2741.23 1492.7C2741.12 1492.82 2741.01 1492.98 2740.89 1493.21C2740.78 1493.43 2740.73 1493.6 2740.73 1493.71C2740.73 1493.82 2740.61 1493.94 2740.39 1494.05C2740.17 1494.16 2740 1494.22 2739.89 1494.22C2739.78 1494.22 2739.55 1494.22 2739.22 1494.22C2738.88 1494.22 2738.43 1494.22 2737.87 1494.22H2735.52C2734.85 1493.54 2734.51 1493.04 2734.51 1492.7Z" fill="#132AF4" stroke="#132AF4" stroke-width="15"/>
<path d="M2792.5 1492.7C2792.61 1492.03 2792.78 1491.14 2793 1490.02C2793.23 1488.9 2793.9 1486.77 2795.02 1483.63C2796.14 1480.5 2797.26 1477.87 2798.38 1475.74C2799.5 1473.61 2801.35 1471.54 2803.92 1469.52C2806.5 1467.51 2809.07 1466.55 2811.65 1466.67C2815.68 1466.67 2819.04 1467.67 2821.73 1469.69C2824.42 1471.71 2826.1 1473.61 2826.77 1475.4C2827.44 1477.19 2827.78 1478.37 2827.78 1478.93C2827.78 1479.15 2827.83 1479.27 2827.94 1479.27L2829.79 1477.42C2836.62 1470.25 2844.41 1466.67 2853.14 1466.67C2859.19 1466.67 2864.06 1468.18 2867.75 1471.2C2871.45 1474.23 2873.35 1478.65 2873.47 1484.47C2873.58 1490.3 2871.45 1499.09 2867.08 1510.84C2862.71 1522.6 2860.59 1529.71 2860.7 1532.18C2860.7 1535.09 2861.65 1536.55 2863.55 1536.55C2864.23 1536.55 2864.73 1536.49 2865.07 1536.38C2868.31 1535.82 2871.23 1533.69 2873.8 1529.99C2876.38 1526.3 2878.34 1521.82 2879.68 1516.56C2879.9 1515.66 2881.02 1515.21 2883.04 1515.21C2885.28 1515.21 2886.4 1515.66 2886.4 1516.56C2886.4 1516.67 2886.18 1517.51 2885.73 1519.08C2884.83 1522.32 2883.6 1525.52 2882.03 1528.65C2880.46 1531.79 2877.89 1534.92 2874.31 1538.06C2870.72 1541.19 2866.86 1542.7 2862.71 1542.59C2857.45 1542.59 2853.64 1541.08 2851.29 1538.06C2848.94 1535.03 2847.76 1531.9 2847.76 1528.65C2847.76 1526.52 2849.78 1519.8 2853.81 1508.49C2857.84 1497.18 2859.92 1488.67 2860.03 1482.96C2860.03 1476.35 2857.56 1473.05 2852.64 1473.05H2851.8C2842.17 1473.05 2834.05 1478.71 2827.44 1490.02L2826.26 1492.03L2820.72 1514.54C2817.02 1529.21 2814.9 1537.11 2814.34 1538.23C2812.88 1541.25 2810.47 1542.76 2807.11 1542.76C2805.66 1542.76 2804.48 1542.42 2803.59 1541.75C2802.69 1541.08 2802.07 1540.41 2801.74 1539.74C2801.4 1539.07 2801.29 1538.51 2801.4 1538.06C2801.4 1536.6 2803.53 1527.47 2807.79 1510.68C2812.04 1493.88 2814.28 1484.75 2814.51 1483.3C2814.62 1482.74 2814.67 1481.45 2814.67 1479.43C2814.67 1475.07 2813.33 1472.88 2810.64 1472.88C2806.39 1472.88 2802.86 1478.48 2800.06 1489.68C2799.39 1491.92 2799.05 1493.1 2799.05 1493.21C2798.83 1493.88 2797.76 1494.22 2795.86 1494.22H2793.51C2792.84 1493.54 2792.5 1493.04 2792.5 1492.7Z" fill="#132AF4" stroke="#132AF4" stroke-width="15"/>
<path d="M2908.05 1468.85C2905.03 1468.85 2902.62 1467.84 2900.83 1465.83C2899.04 1463.81 2898.14 1461.35 2898.14 1458.44C2898.14 1450.49 2901.11 1443.6 2907.04 1437.78C2912.98 1431.95 2920.37 1429.04 2929.22 1429.04C2939.41 1429.04 2947.92 1432.18 2954.75 1438.45C2961.58 1444.72 2965.05 1452.84 2965.16 1462.81C2965.16 1467.62 2964.04 1472.21 2961.8 1476.58C2959.56 1480.95 2956.88 1484.75 2953.74 1488C2950.61 1491.25 2946.13 1495.39 2940.3 1500.43C2936.27 1503.9 2930.67 1509.06 2923.51 1515.89L2913.59 1525.29L2926.36 1525.46C2943.94 1525.46 2953.29 1525.18 2954.41 1524.62C2955.2 1524.4 2956.54 1519.41 2958.44 1509.67V1509.17H2965.16V1509.67C2965.05 1510.01 2964.32 1515.1 2962.98 1524.96C2961.64 1534.81 2960.8 1539.96 2960.46 1540.41V1540.92H2898.14V1537.72V1535.71C2898.14 1534.92 2898.48 1534.08 2899.15 1533.19C2899.82 1532.29 2901.5 1530.33 2904.19 1527.31C2907.44 1523.73 2910.24 1520.59 2912.59 1517.9C2913.59 1516.78 2915.5 1514.71 2918.3 1511.69C2921.1 1508.66 2923 1506.59 2924.01 1505.47C2925.02 1504.35 2926.64 1502.5 2928.88 1499.93C2931.12 1497.35 2932.69 1495.45 2933.58 1494.22C2934.48 1492.99 2935.77 1491.31 2937.45 1489.18C2939.13 1487.05 2940.3 1485.26 2940.98 1483.8C2941.65 1482.35 2942.49 1480.72 2943.49 1478.93C2944.5 1477.14 2945.23 1475.35 2945.68 1473.56C2946.13 1471.76 2946.52 1470.08 2946.85 1468.52C2947.19 1466.95 2947.36 1465.1 2947.36 1462.97C2947.36 1455.92 2945.45 1449.81 2941.65 1444.66C2937.84 1439.51 2932.41 1436.94 2925.35 1436.94C2921.66 1436.94 2918.41 1437.89 2915.61 1439.79C2912.81 1441.7 2910.85 1443.54 2909.73 1445.34C2908.61 1447.13 2908.05 1448.19 2908.05 1448.53C2908.05 1448.64 2908.33 1448.7 2908.89 1448.7C2910.91 1448.7 2912.98 1449.48 2915.11 1451.05C2917.23 1452.61 2918.3 1455.19 2918.3 1458.77C2918.3 1461.57 2917.4 1463.93 2915.61 1465.83C2913.82 1467.73 2911.3 1468.74 2908.05 1468.85Z" fill="#132AF4" stroke="#132AF4" stroke-width="15"/>
<path d="M1137.35 1356.07C1137.35 1355.12 1132.83 1354.48 1123.81 1354.17C1120 1354.17 1117.55 1354.09 1116.44 1353.93C1115.33 1353.77 1114.78 1352.98 1114.78 1351.55C1114.78 1351.4 1114.94 1350.52 1115.25 1348.94C1115.41 1348.46 1115.57 1347.91 1115.73 1347.28C1115.89 1346.64 1115.97 1346.25 1115.97 1346.09C1115.97 1345.93 1116.12 1345.53 1116.44 1344.9C1116.76 1344.27 1116.92 1344.03 1116.92 1344.19C1116.92 1344.35 1117.23 1344.19 1117.87 1343.71C1118.5 1343.24 1118.9 1343.08 1119.05 1343.24C1119.21 1343.4 1119.85 1343.4 1120.95 1343.24C1122.06 1343.08 1123.01 1343 1123.81 1343C1124.76 1343 1127.13 1343 1130.93 1343C1134.74 1343 1138.3 1343.08 1141.63 1343.24C1154.14 1343.24 1161.35 1343.24 1163.25 1343.24C1165.15 1343.24 1166.41 1343.63 1167.05 1344.43C1167.21 1345.06 1170.14 1367.39 1175.84 1411.43L1184.39 1477.72L1189.86 1468.92C1193.66 1463.22 1198.73 1455.3 1205.06 1445.17C1211.4 1435.03 1218.37 1423.94 1225.97 1411.9C1253.69 1367.71 1267.71 1345.46 1268.02 1345.14C1268.18 1344.98 1268.42 1344.74 1268.74 1344.43C1269.05 1344.11 1269.37 1343.87 1269.69 1343.71L1271.11 1343.24H1293.92C1296.61 1343.24 1299.78 1343.24 1303.43 1343.24C1307.07 1343.24 1309.37 1343.16 1310.32 1343C1315.7 1343 1318.39 1343.87 1318.39 1345.61C1318.39 1346.41 1318.16 1347.75 1317.68 1349.65C1317.21 1351.55 1316.97 1352.58 1316.97 1352.74C1316.33 1353.69 1313.4 1354.17 1308.18 1354.17C1301.84 1354.33 1297.8 1354.56 1296.06 1354.88C1294.32 1355.2 1292.89 1356.07 1291.78 1357.49C1291.31 1358.29 1285.61 1380.7 1274.68 1424.73C1263.75 1468.77 1258.2 1491.02 1258.05 1491.5C1258.05 1492.13 1258.12 1492.53 1258.28 1492.68C1258.44 1492.84 1259 1493.16 1259.95 1493.63C1260.9 1494.11 1262.24 1494.27 1263.99 1494.11C1265.73 1493.95 1268.34 1494.11 1271.83 1494.58H1279.19C1280.14 1496.01 1280.62 1496.88 1280.62 1497.2C1280.62 1499.73 1280.06 1502.11 1278.95 1504.33C1278.16 1505.12 1276.89 1505.51 1275.15 1505.51C1274.36 1505.51 1271.11 1505.43 1265.41 1505.28C1259.71 1505.12 1252.42 1505.04 1243.55 1505.04C1233.89 1505.04 1226.6 1505.04 1221.69 1505.04C1216.78 1505.04 1214.01 1505.12 1213.38 1505.28C1210.69 1505.28 1209.34 1504.48 1209.34 1502.9C1209.34 1502.58 1209.5 1501.47 1209.81 1499.57C1210.45 1497.04 1211.08 1495.61 1211.72 1495.3C1212.35 1494.98 1214.17 1494.74 1217.18 1494.58C1221.46 1494.58 1226.21 1494.35 1231.44 1493.87C1233.65 1493.4 1235.16 1492.45 1235.95 1491.02C1236.27 1490.39 1239.28 1478.82 1244.98 1456.33C1250.68 1433.84 1256.3 1411.43 1261.85 1389.09C1267.39 1366.76 1270.16 1355.59 1270.16 1355.59L1224.07 1429.01C1193.02 1478.43 1177.11 1503.53 1176.31 1504.33C1176 1504.48 1175.68 1504.64 1175.36 1504.8C1174.57 1505.28 1173.3 1505.51 1171.56 1505.51C1169.19 1505.51 1167.76 1504.96 1167.29 1503.85C1166.97 1503.22 1163.72 1478.67 1157.54 1430.2L1148.28 1357.26L1132.12 1421.41C1121.51 1463.54 1116.2 1485.32 1116.2 1486.74C1117.15 1491.97 1122.86 1494.58 1133.31 1494.58H1135.69C1136.64 1495.38 1137.19 1496.09 1137.35 1496.72C1137.51 1497.36 1137.27 1498.78 1136.64 1501C1136 1503.53 1135.37 1504.96 1134.74 1505.28C1134.1 1505.43 1133.23 1505.51 1132.12 1505.51C1131.8 1505.51 1130.85 1505.51 1129.27 1505.51C1127.69 1505.51 1124.99 1505.43 1121.19 1505.28C1117.39 1505.12 1112.32 1505.04 1105.99 1505.04C1101.23 1505.04 1096.32 1505.12 1091.26 1505.28C1086.19 1505.43 1083.26 1505.51 1082.46 1505.51C1080.09 1505.51 1078.58 1505.36 1077.95 1505.04C1077.32 1504.72 1077 1504.01 1077 1502.9C1077 1502.58 1077.24 1501.47 1077.71 1499.57C1078.19 1497.67 1078.58 1496.49 1078.9 1496.01C1079.22 1495.06 1080.96 1494.58 1084.13 1494.58C1095.22 1494.58 1102.26 1491.42 1105.27 1485.08C1105.91 1484.13 1111.37 1462.91 1121.67 1421.41C1131.96 1379.91 1137.19 1358.13 1137.35 1356.07Z" fill="#132AF4" stroke="#132AF4" stroke-width="15"/>
<path d="M1342.75 1444.06L1340.56 1444.9C1339 1445.46 1336.76 1446.02 1333.84 1446.58C1330.93 1447.14 1327.69 1447.54 1324.1 1447.76H1320.91V1440.03H1324.1C1329.37 1439.81 1334.24 1438.97 1338.72 1437.51C1343.2 1436.06 1346.33 1434.71 1348.12 1433.48C1349.91 1432.25 1351.48 1431.02 1352.83 1429.79C1353.05 1429.45 1353.72 1429.28 1354.84 1429.28C1355.85 1429.28 1356.8 1429.62 1357.7 1430.29V1480.52L1357.87 1530.91C1358.65 1531.69 1359.32 1532.2 1359.88 1532.42C1360.44 1532.65 1361.78 1532.87 1363.91 1533.09C1366.04 1533.32 1369.51 1533.43 1374.33 1533.43H1378.69V1541.16H1376.85C1374.5 1540.82 1365.59 1540.65 1350.14 1540.65C1334.91 1540.65 1326.12 1540.82 1323.77 1541.16H1321.75V1533.43H1326.12C1328.58 1533.43 1330.71 1533.43 1332.5 1533.43C1334.29 1533.43 1335.69 1533.37 1336.7 1533.26C1337.71 1533.15 1338.6 1532.98 1339.39 1532.76C1340.17 1532.53 1340.62 1532.42 1340.73 1532.42C1340.84 1532.42 1341.18 1532.14 1341.74 1531.58C1342.3 1531.02 1342.64 1530.8 1342.75 1530.91V1444.06Z" fill="#132AF4" stroke="#132AF4" stroke-width="15"/>
<path d="M1744.35 1356.07C1744.35 1355.12 1739.83 1354.48 1730.81 1354.17C1727 1354.17 1724.55 1354.09 1723.44 1353.93C1722.33 1353.77 1721.78 1352.98 1721.78 1351.55C1721.78 1351.4 1721.94 1350.52 1722.25 1348.94C1722.41 1348.46 1722.57 1347.91 1722.73 1347.28C1722.89 1346.64 1722.97 1346.25 1722.97 1346.09C1722.97 1345.93 1723.12 1345.53 1723.44 1344.9C1723.76 1344.27 1723.92 1344.03 1723.92 1344.19C1723.92 1344.35 1724.23 1344.19 1724.87 1343.71C1725.5 1343.24 1725.9 1343.08 1726.05 1343.24C1726.21 1343.4 1726.85 1343.4 1727.95 1343.24C1729.06 1343.08 1730.01 1343 1730.81 1343C1731.76 1343 1734.13 1343 1737.93 1343C1741.74 1343 1745.3 1343.08 1748.63 1343.24C1761.14 1343.24 1768.35 1343.24 1770.25 1343.24C1772.15 1343.24 1773.41 1343.63 1774.05 1344.43C1774.21 1345.06 1777.14 1367.39 1782.84 1411.43L1791.39 1477.72L1796.86 1468.92C1800.66 1463.22 1805.73 1455.3 1812.06 1445.17C1818.4 1435.03 1825.37 1423.94 1832.97 1411.9C1860.69 1367.71 1874.71 1345.46 1875.02 1345.14C1875.18 1344.98 1875.42 1344.74 1875.74 1344.43C1876.05 1344.11 1876.37 1343.87 1876.69 1343.71L1878.11 1343.24H1900.92C1903.61 1343.24 1906.78 1343.24 1910.43 1343.24C1914.07 1343.24 1916.37 1343.16 1917.32 1343C1922.7 1343 1925.39 1343.87 1925.39 1345.61C1925.39 1346.41 1925.16 1347.75 1924.68 1349.65C1924.21 1351.55 1923.97 1352.58 1923.97 1352.74C1923.33 1353.69 1920.4 1354.17 1915.18 1354.17C1908.84 1354.33 1904.8 1354.56 1903.06 1354.88C1901.32 1355.2 1899.89 1356.07 1898.78 1357.49C1898.31 1358.29 1892.61 1380.7 1881.68 1424.73C1870.75 1468.77 1865.2 1491.02 1865.05 1491.5C1865.05 1492.13 1865.12 1492.53 1865.28 1492.68C1865.44 1492.84 1866 1493.16 1866.95 1493.63C1867.9 1494.11 1869.24 1494.27 1870.99 1494.11C1872.73 1493.95 1875.34 1494.11 1878.83 1494.58H1886.19C1887.14 1496.01 1887.62 1496.88 1887.62 1497.2C1887.62 1499.73 1887.06 1502.11 1885.95 1504.33C1885.16 1505.12 1883.89 1505.51 1882.15 1505.51C1881.36 1505.51 1878.11 1505.43 1872.41 1505.28C1866.71 1505.12 1859.42 1505.04 1850.55 1505.04C1840.89 1505.04 1833.6 1505.04 1828.69 1505.04C1823.78 1505.04 1821.01 1505.12 1820.38 1505.28C1817.69 1505.28 1816.34 1504.48 1816.34 1502.9C1816.34 1502.58 1816.5 1501.47 1816.81 1499.57C1817.45 1497.04 1818.08 1495.61 1818.72 1495.3C1819.35 1494.98 1821.17 1494.74 1824.18 1494.58C1828.46 1494.58 1833.21 1494.35 1838.44 1493.87C1840.65 1493.4 1842.16 1492.45 1842.95 1491.02C1843.27 1490.39 1846.28 1478.82 1851.98 1456.33C1857.68 1433.84 1863.3 1411.43 1868.85 1389.09C1874.39 1366.76 1877.16 1355.59 1877.16 1355.59L1831.07 1429.01C1800.02 1478.43 1784.11 1503.53 1783.31 1504.33C1783 1504.48 1782.68 1504.64 1782.36 1504.8C1781.57 1505.28 1780.3 1505.51 1778.56 1505.51C1776.19 1505.51 1774.76 1504.96 1774.29 1503.85C1773.97 1503.22 1770.72 1478.67 1764.54 1430.2L1755.28 1357.26L1739.12 1421.41C1728.51 1463.54 1723.2 1485.32 1723.2 1486.74C1724.15 1491.97 1729.86 1494.58 1740.31 1494.58H1742.69C1743.64 1495.38 1744.19 1496.09 1744.35 1496.72C1744.51 1497.36 1744.27 1498.78 1743.64 1501C1743 1503.53 1742.37 1504.96 1741.74 1505.28C1741.1 1505.43 1740.23 1505.51 1739.12 1505.51C1738.8 1505.51 1737.85 1505.51 1736.27 1505.51C1734.69 1505.51 1731.99 1505.43 1728.19 1505.28C1724.39 1505.12 1719.32 1505.04 1712.99 1505.04C1708.23 1505.04 1703.32 1505.12 1698.26 1505.28C1693.19 1505.43 1690.26 1505.51 1689.46 1505.51C1687.09 1505.51 1685.58 1505.36 1684.95 1505.04C1684.32 1504.72 1684 1504.01 1684 1502.9C1684 1502.58 1684.24 1501.47 1684.71 1499.57C1685.19 1497.67 1685.58 1496.49 1685.9 1496.01C1686.22 1495.06 1687.96 1494.58 1691.13 1494.58C1702.22 1494.58 1709.26 1491.42 1712.27 1485.08C1712.91 1484.13 1718.37 1462.91 1728.67 1421.41C1738.96 1379.91 1744.19 1358.13 1744.35 1356.07Z" fill="#132AF4" stroke="#132AF4" stroke-width="15"/>
<path d="M1932.28 1469.09C1929.25 1469.09 1926.85 1468.09 1925.05 1466.07C1923.26 1464.05 1922.37 1461.59 1922.37 1458.68C1922.37 1450.73 1925.33 1443.84 1931.27 1438.02C1937.21 1432.19 1944.6 1429.28 1953.44 1429.28C1963.63 1429.28 1972.14 1432.42 1978.98 1438.69C1985.81 1444.96 1989.28 1453.08 1989.39 1463.05C1989.39 1467.86 1988.27 1472.45 1986.03 1476.82C1983.79 1481.19 1981.1 1485 1977.97 1488.24C1974.83 1491.49 1970.35 1495.63 1964.53 1500.67C1960.5 1504.15 1954.9 1509.3 1947.73 1516.13L1937.82 1525.53L1950.59 1525.7C1968.17 1525.7 1977.52 1525.42 1978.64 1524.86C1979.42 1524.64 1980.77 1519.66 1982.67 1509.91V1509.41H1989.39V1509.91C1989.28 1510.25 1988.55 1515.34 1987.21 1525.2C1985.86 1535.05 1985.02 1540.2 1984.69 1540.65V1541.16H1922.37V1537.96V1535.95C1922.37 1535.17 1922.7 1534.33 1923.38 1533.43C1924.05 1532.53 1925.73 1530.57 1928.41 1527.55C1931.66 1523.97 1934.46 1520.83 1936.81 1518.14C1937.82 1517.02 1939.72 1514.95 1942.52 1511.93C1945.32 1508.9 1947.23 1506.83 1948.24 1505.71C1949.24 1504.59 1950.87 1502.75 1953.11 1500.17C1955.35 1497.59 1956.91 1495.69 1957.81 1494.46C1958.71 1493.23 1959.99 1491.55 1961.67 1489.42C1963.35 1487.29 1964.53 1485.5 1965.2 1484.04C1965.87 1482.59 1966.71 1480.96 1967.72 1479.17C1968.73 1477.38 1969.46 1475.59 1969.9 1473.8C1970.35 1472.01 1970.74 1470.33 1971.08 1468.76C1971.42 1467.19 1971.58 1465.34 1971.58 1463.21C1971.58 1456.16 1969.68 1450.06 1965.87 1444.9C1962.07 1439.75 1956.63 1437.18 1949.58 1437.18C1945.88 1437.18 1942.64 1438.13 1939.84 1440.03C1937.04 1441.94 1935.08 1443.79 1933.96 1445.58C1932.84 1447.37 1932.28 1448.43 1932.28 1448.77C1932.28 1448.88 1932.56 1448.94 1933.12 1448.94C1935.13 1448.94 1937.21 1449.72 1939.33 1451.29C1941.46 1452.86 1942.52 1455.43 1942.52 1459.02C1942.52 1461.81 1941.63 1464.17 1939.84 1466.07C1938.05 1467.97 1935.53 1468.98 1932.28 1469.09Z" fill="#132AF4" stroke="#132AF4" stroke-width="15"/>
<path d="M2279 16.3158C2279 12.8311 2280.03 10.0591 2282.09 7.99997H2284.7C2291.35 8.47516 2299.67 8.71276 2309.65 8.71276C2328.34 8.71276 2339.35 8.47516 2342.68 7.99997H2345.05C2346 8.95035 2346.48 9.66314 2346.48 10.1383C2346.48 10.6135 2346.32 12.0391 2346 14.4151C2345.21 16.791 2344.5 18.2958 2343.86 18.9294H2338.87C2335.39 19.2462 2333.01 19.4046 2331.75 19.4046C2327.15 20.1965 2324.62 21.3845 2324.14 22.9685C2324.14 23.2853 2326.44 43.1641 2331.03 82.605C2335.63 122.046 2338 141.925 2338.16 142.241L2355.51 114.443C2367.07 95.9104 2378.63 77.2195 2390.19 58.3702C2401.76 39.521 2407.7 29.7796 2408.01 29.146C2408.65 28.0372 2408.96 26.8492 2408.96 25.582C2408.96 21.7805 2405.48 19.563 2398.51 18.9294C2395.66 18.9294 2394.23 18.0582 2394.23 16.3158C2394.23 16.1574 2394.39 15.1278 2394.71 13.2271C2395.18 11.0095 2395.66 9.58394 2396.13 8.95035C2396.61 8.31677 2397.64 7.99997 2399.22 7.99997C2399.54 7.99997 2400.49 7.99997 2402.07 7.99997C2403.66 7.99997 2406.35 8.07917 2410.15 8.23757C2413.95 8.39596 2419.02 8.47516 2425.36 8.47516C2436.29 8.47516 2443.18 8.31677 2446.03 7.99997H2447.69C2448.8 9.10875 2449.36 9.97994 2449.36 10.6135C2449.36 13.3063 2448.64 15.8406 2447.22 18.2166C2446.74 18.6918 2445.4 18.9294 2443.18 18.9294C2441.12 19.0878 2439.22 19.2462 2437.48 19.4046C2435.73 19.563 2434.07 19.959 2432.49 20.5925C2430.9 21.2261 2429.64 21.7805 2428.69 22.2557C2427.73 22.7309 2426.78 23.3645 2425.83 24.1565C2424.88 24.9485 2424.09 25.5028 2423.46 25.8196C2422.82 26.1364 2422.19 26.8492 2421.56 27.958C2420.92 29.0668 2420.37 29.6212 2419.89 29.6212L2374.04 103.276C2345.53 149.369 2330.8 172.971 2329.85 174.079C2329.37 174.396 2328.82 174.792 2328.18 175.267L2323.91 175.505H2322.24C2319.39 175.505 2317.97 174.95 2317.97 173.842C2317.49 172.891 2314.4 147.548 2308.7 97.8111C2302.68 47.4408 2299.59 22.0181 2299.43 21.5429C2298.64 19.8006 2293.73 18.9294 2284.7 18.9294H2280.66C2279.55 18.1374 2279 17.2662 2279 16.3158Z" fill="#132AF4" stroke="#132AF4" stroke-width="15"/>
<path d="M2461.21 100.426C2461.21 99.6425 2458.02 99.1386 2451.64 98.9146C2449.06 98.9146 2447.38 98.8586 2446.6 98.7467C2445.82 98.6347 2445.42 98.1307 2445.42 97.2348C2445.42 96.3389 2445.65 95.2191 2446.1 93.8752C2446.54 92.5314 2446.94 91.6915 2447.27 91.3555C2447.5 91.2435 2458.64 91.1875 2480.7 91.1875C2499.4 91.2995 2509.87 91.3555 2512.11 91.3555C2514.35 91.3555 2516.59 91.6915 2518.83 92.3634C2526.89 94.2672 2533.73 98.6907 2539.32 105.634C2544.92 112.577 2547.78 121.872 2547.89 133.519C2547.89 150.988 2541.9 166.667 2529.92 180.553C2517.94 194.439 2503.82 202.726 2487.59 205.414L2485.23 205.75L2452.65 205.918H2434H2425.1C2422.41 205.918 2420.67 205.806 2419.89 205.582C2419.11 205.358 2418.66 204.854 2418.55 204.07C2418.55 203.846 2418.71 203.062 2419.05 201.718C2419.5 199.927 2419.95 198.919 2420.39 198.695C2420.84 198.471 2422.13 198.303 2424.26 198.191C2427.28 198.191 2430.64 198.023 2434.34 197.687C2435.9 197.351 2436.97 196.679 2437.53 195.671C2437.86 195.223 2441.9 179.657 2449.62 148.973C2457.35 118.288 2461.21 102.106 2461.21 100.426ZM2531.09 127.135C2531.09 122.88 2530.48 119.072 2529.25 115.713C2528.01 112.353 2526.56 109.721 2524.88 107.818C2523.2 105.914 2521.13 104.29 2518.66 102.946C2516.2 101.602 2514.02 100.706 2512.11 100.258C2510.21 99.8105 2508.25 99.4186 2506.23 99.0826C2506.01 99.0826 2505.22 99.0826 2503.88 99.0826C2502.54 99.0826 2500.91 99.0826 2499.01 99.0826C2497.11 99.0826 2495.26 99.0266 2493.47 98.9146H2486.24C2481.32 98.9146 2478.52 99.4746 2477.84 100.594C2477.62 101.042 2473.53 117.168 2465.58 148.973C2457.63 180.777 2453.65 196.847 2453.65 197.183C2453.65 197.631 2454.27 197.855 2455.5 197.855C2456.73 197.855 2461.05 197.911 2468.44 198.023C2469 198.023 2470.06 198.023 2471.63 198.023C2473.2 198.023 2474.54 198.079 2475.66 198.191C2489.77 198.191 2501.42 193.599 2510.6 184.417C2514.63 180.385 2517.94 175.682 2520.51 170.306C2523.09 164.931 2525.49 157.82 2527.73 148.973C2529.97 140.126 2531.09 132.847 2531.09 127.135Z" fill="#132AF4" stroke="#132AF4" stroke-width="15"/>
<path d="M2600.3 100.426C2600.3 99.6425 2597.11 99.1386 2590.72 98.9146C2588.15 98.9146 2586.47 98.8586 2585.69 98.7467C2584.9 98.6347 2584.51 98.1307 2584.51 97.2348C2584.51 96.3389 2584.73 95.2191 2585.18 93.8752C2585.63 92.5314 2586.02 91.6915 2586.36 91.3555C2586.58 91.2435 2597.72 91.1875 2619.79 91.1875C2638.49 91.2995 2648.96 91.3555 2651.2 91.3555C2653.44 91.3555 2655.68 91.6915 2657.92 92.3634C2665.98 94.2672 2672.81 98.6907 2678.41 105.634C2684.01 112.577 2686.87 121.872 2686.98 133.519C2686.98 150.988 2680.99 166.667 2669 180.553C2657.02 194.439 2642.91 202.726 2626.67 205.414L2624.32 205.75L2591.73 205.918H2573.09H2564.18C2561.5 205.918 2559.76 205.806 2558.98 205.582C2558.19 205.358 2557.74 204.854 2557.63 204.07C2557.63 203.846 2557.8 203.062 2558.14 201.718C2558.58 199.927 2559.03 198.919 2559.48 198.695C2559.93 198.471 2561.22 198.303 2563.34 198.191C2566.37 198.191 2569.73 198.023 2573.42 197.687C2574.99 197.351 2576.05 196.679 2576.61 195.671C2576.95 195.223 2580.98 179.657 2588.71 148.973C2596.44 118.288 2600.3 102.106 2600.3 100.426ZM2670.18 127.135C2670.18 122.88 2669.56 119.072 2668.33 115.713C2667.1 112.353 2665.64 109.721 2663.96 107.818C2662.28 105.914 2660.21 104.29 2657.75 102.946C2655.29 101.602 2653.1 100.706 2651.2 100.258C2649.29 99.8105 2647.33 99.4186 2645.32 99.0826C2645.09 99.0826 2644.31 99.0826 2642.97 99.0826C2641.62 99.0826 2640 99.0826 2638.1 99.0826C2636.19 99.0826 2634.34 99.0266 2632.55 98.9146H2625.33C2620.4 98.9146 2617.6 99.4746 2616.93 100.594C2616.71 101.042 2612.62 117.168 2604.67 148.973C2596.72 180.777 2592.74 196.847 2592.74 197.183C2592.74 197.631 2593.36 197.855 2594.59 197.855C2595.82 197.855 2600.13 197.911 2607.52 198.023C2608.08 198.023 2609.15 198.023 2610.71 198.023C2612.28 198.023 2613.63 198.079 2614.75 198.191C2628.86 198.191 2640.5 193.599 2649.69 184.417C2653.72 180.385 2657.02 175.682 2659.6 170.306C2662.17 164.931 2664.58 157.82 2666.82 148.973C2669.06 140.126 2670.18 132.847 2670.18 127.135Z" fill="#132AF4" stroke="#132AF4" stroke-width="15"/>
<path d="M2188.81 529.927C2184.53 529.927 2182 529.848 2181.2 529.69C2180.41 529.531 2180.02 528.66 2180.02 527.076C2180.02 522.799 2180.89 520.186 2182.63 519.235C2182.95 519.077 2196.73 518.998 2223.97 518.998C2251.21 519.156 2265.95 519.394 2268.16 519.711C2277.03 520.978 2284.48 523.195 2290.5 526.363C2296.52 529.531 2300.79 533.174 2303.33 537.293C2305.86 541.411 2307.52 544.817 2308.32 547.509C2309.11 550.202 2309.58 552.895 2309.74 555.588C2309.74 562.715 2307.45 569.368 2302.85 575.546C2298.26 581.723 2292.95 586.475 2286.93 589.801C2280.91 593.128 2275.61 595.82 2271.01 597.88C2266.42 599.939 2263.41 600.968 2261.99 600.968L2263.65 602.156C2274.26 608.175 2279.57 616.887 2279.57 628.292C2279.57 630.034 2279.17 634.865 2278.38 642.785C2277.59 650.705 2277.19 657.199 2277.19 662.268V664.406C2277.19 667.257 2277.27 669.475 2277.43 671.059C2277.59 672.643 2278.46 674.069 2280.04 675.336C2281.63 676.603 2283.69 677.316 2286.22 677.474C2290.66 677.474 2294.3 675.732 2297.15 672.247C2300 668.762 2302.06 665.04 2303.33 661.08C2304.12 658.862 2304.75 657.516 2305.23 657.041C2305.7 656.566 2306.89 656.328 2308.79 656.328C2311.96 656.328 2313.54 657.278 2313.54 659.179C2313.54 662.03 2311.64 666.545 2307.84 672.722C2301.82 681.751 2294.69 686.265 2286.46 686.265H2284.32C2274.66 686.265 2266.66 684.285 2260.32 680.325C2253.99 676.365 2250.5 670.188 2249.87 661.793C2249.87 657.516 2251.06 650.863 2253.43 641.835C2255.81 632.806 2257 627.025 2257 624.49C2257 616.412 2253.59 610.551 2246.78 606.908C2244.4 605.799 2242.42 605.166 2240.84 605.007C2239.26 604.849 2233.63 604.691 2223.97 604.532H2207.58L2199.97 635.42C2194.75 656.328 2192.13 666.941 2192.13 667.257C2192.13 667.891 2192.21 668.287 2192.37 668.445C2192.53 668.604 2193.08 668.921 2194.03 669.396C2194.98 669.871 2196.33 670.029 2198.07 669.871C2199.81 669.713 2202.43 669.871 2205.91 670.346H2213.28C2214.23 671.613 2214.7 672.326 2214.7 672.485C2214.7 672.643 2214.47 674.069 2213.99 676.761C2213.36 678.82 2212.57 680.325 2211.62 681.276H2208.05C2202.35 680.959 2191.97 680.8 2176.93 680.8C2171.54 680.8 2166.55 680.8 2161.96 680.8C2157.36 680.8 2153.72 680.8 2151.03 680.8C2148.34 680.8 2146.67 680.88 2146.04 681.038C2143.35 681.038 2142 680.325 2142 678.9C2142 678.583 2142.24 677.474 2142.71 675.573C2143.5 672.564 2144.3 670.901 2145.09 670.584C2145.72 670.425 2146.91 670.346 2148.65 670.346H2150.08C2154.35 670.346 2159.11 670.109 2164.33 669.633C2166.55 669.158 2168.06 668.208 2168.85 666.782C2169.32 666.149 2175.03 644.132 2185.96 600.731C2196.88 557.33 2202.35 534.442 2202.35 532.066C2202.35 530.957 2197.83 530.244 2188.81 529.927ZM2283.84 549.648C2283.84 544.579 2282.18 540.302 2278.86 536.817C2275.53 533.333 2268.72 531.115 2258.42 530.165C2258.11 530.165 2256.28 530.165 2252.96 530.165C2249.63 530.165 2246.62 530.086 2243.93 529.927H2238.7C2231.26 529.927 2226.98 530.719 2225.87 532.303C2225.71 532.778 2223.02 543.312 2217.79 563.903C2212.57 584.495 2209.95 595.028 2209.95 595.504C2209.95 595.662 2215.42 595.741 2226.35 595.741C2238.7 595.583 2246.94 595.028 2251.06 594.078C2261.19 592.494 2269.11 587.821 2274.82 580.06C2277.35 576.417 2279.49 571.665 2281.23 565.804C2282.97 559.943 2283.84 554.558 2283.84 549.648Z" fill="#132AF4" stroke="#132AF4" stroke-width="15"/>
<path d="M2370.54 611.425C2370.54 610.641 2367.35 610.137 2360.97 609.913C2358.39 609.913 2356.71 609.857 2355.93 609.745C2355.14 609.633 2354.75 609.129 2354.75 608.233C2354.75 607.337 2354.98 606.217 2355.42 604.873C2355.87 603.529 2356.26 602.69 2356.6 602.354C2356.82 602.242 2367.97 602.186 2390.03 602.186C2408.73 602.298 2419.2 602.354 2421.44 602.354C2423.68 602.354 2425.92 602.69 2428.16 603.361C2436.22 605.265 2443.05 609.689 2448.65 616.632C2454.25 623.575 2457.11 632.87 2457.22 644.517C2457.22 661.987 2451.23 677.665 2439.25 691.551C2427.26 705.437 2413.15 713.724 2396.91 716.412L2394.56 716.748L2361.97 716.916H2343.33H2334.43C2331.74 716.916 2330 716.804 2329.22 716.58C2328.43 716.356 2327.99 715.852 2327.88 715.068C2327.88 714.844 2328.04 714.06 2328.38 712.717C2328.83 710.925 2329.27 709.917 2329.72 709.693C2330.17 709.469 2331.46 709.301 2333.59 709.189C2336.61 709.189 2339.97 709.021 2343.67 708.685C2345.23 708.349 2346.3 707.677 2346.86 706.669C2347.19 706.221 2351.22 690.655 2358.95 659.971C2366.68 629.286 2370.54 613.104 2370.54 611.425ZM2440.42 638.133C2440.42 633.878 2439.81 630.07 2438.57 626.711C2437.34 623.351 2435.89 620.719 2434.21 618.816C2432.53 616.912 2430.45 615.288 2427.99 613.944C2425.53 612.6 2423.34 611.704 2421.44 611.257C2419.54 610.809 2417.58 610.417 2415.56 610.081C2415.34 610.081 2414.55 610.081 2413.21 610.081C2411.87 610.081 2410.24 610.081 2408.34 610.081C2406.43 610.081 2404.59 610.025 2402.79 609.913H2395.57C2390.64 609.913 2387.84 610.473 2387.17 611.592C2386.95 612.04 2382.86 628.167 2374.91 659.971C2366.96 691.775 2362.98 707.845 2362.98 708.181C2362.98 708.629 2363.6 708.853 2364.83 708.853C2366.06 708.853 2370.37 708.909 2377.77 709.021C2378.33 709.021 2379.39 709.021 2380.96 709.021C2382.52 709.021 2383.87 709.077 2384.99 709.189C2399.1 709.189 2410.75 704.597 2419.93 695.415C2423.96 691.383 2427.26 686.68 2429.84 681.304C2432.41 675.929 2434.82 668.818 2437.06 659.971C2439.3 651.124 2440.42 643.845 2440.42 638.133Z" fill="#132AF4" stroke="#132AF4" stroke-width="15"/>
<path d="M654.901 529.927C650.615 529.927 648.076 529.848 647.282 529.69C646.489 529.531 646.092 528.66 646.092 527.076C646.092 522.799 646.965 520.186 648.711 519.235C649.028 519.077 662.837 518.998 690.136 518.998C717.435 519.156 732.196 519.394 734.418 519.711C743.306 520.978 750.766 523.195 756.797 526.363C762.828 529.531 767.114 533.174 769.653 537.293C772.192 541.411 773.859 544.817 774.653 547.509C775.446 550.202 775.922 552.895 776.081 555.588C776.081 562.715 773.78 569.368 769.177 575.546C764.574 581.723 759.257 586.475 753.226 589.801C747.195 593.128 741.878 595.82 737.275 597.88C732.672 599.939 729.656 600.968 728.228 600.968L729.894 602.156C740.528 608.175 745.845 616.887 745.845 628.292C745.845 630.034 745.449 634.865 744.655 642.785C743.862 650.705 743.465 657.199 743.465 662.268V664.406C743.465 667.257 743.544 669.475 743.703 671.059C743.862 672.643 744.734 674.069 746.322 675.336C747.909 676.603 749.972 677.316 752.512 677.474C756.956 677.474 760.606 675.732 763.463 672.247C766.32 668.762 768.383 665.04 769.653 661.08C770.447 658.862 771.081 657.516 771.558 657.041C772.034 656.566 773.224 656.328 775.129 656.328C778.303 656.328 779.89 657.278 779.89 659.179C779.89 662.03 777.986 666.545 774.176 672.722C768.145 681.751 761.003 686.265 752.75 686.265H750.607C740.925 686.265 732.91 684.285 726.561 680.325C720.213 676.365 716.721 670.188 716.086 661.793C716.086 657.516 717.276 650.863 719.657 641.835C722.038 632.806 723.228 627.025 723.228 624.49C723.228 616.412 719.816 610.551 712.991 606.908C710.61 605.799 708.626 605.166 707.039 605.007C705.452 604.849 699.818 604.691 690.136 604.532H673.709L666.09 635.42C660.853 656.328 658.234 666.941 658.234 667.257C658.234 667.891 658.313 668.287 658.472 668.445C658.631 668.604 659.186 668.921 660.138 669.396C661.091 669.871 662.44 670.029 664.186 669.871C665.932 669.713 668.55 669.871 672.042 670.346H679.423C680.375 671.613 680.851 672.326 680.851 672.485C680.851 672.643 680.613 674.069 680.137 676.761C679.502 678.82 678.708 680.325 677.756 681.276H674.185C668.471 680.959 658.075 680.8 642.997 680.8C637.601 680.8 632.601 680.8 627.998 680.8C623.396 680.8 619.745 680.8 617.047 680.8C614.349 680.8 612.682 680.88 612.047 681.038C609.349 681.038 608 680.325 608 678.9C608 678.583 608.238 677.474 608.714 675.573C609.508 672.564 610.301 670.901 611.095 670.584C611.73 670.425 612.92 670.346 614.666 670.346H616.095C620.38 670.346 625.141 670.109 630.379 669.633C632.601 669.158 634.109 668.208 634.902 666.782C635.379 666.149 641.092 644.132 652.044 600.731C662.995 557.33 668.471 534.442 668.471 532.066C668.471 530.957 663.948 530.244 654.901 529.927ZM750.131 549.648C750.131 544.579 748.464 540.302 745.131 536.817C741.798 533.333 734.973 531.115 724.657 530.165C724.339 530.165 722.514 530.165 719.181 530.165C715.848 530.165 712.832 530.086 710.134 529.927H704.897C697.437 529.927 693.152 530.719 692.04 532.303C691.882 532.778 689.184 543.312 683.946 563.903C678.708 584.495 676.089 595.028 676.089 595.504C676.089 595.662 681.565 595.741 692.517 595.741C704.897 595.583 713.15 595.028 717.276 594.078C727.434 592.494 735.37 587.821 741.084 580.06C743.623 576.417 745.766 571.665 747.512 565.804C749.258 559.943 750.131 554.558 750.131 549.648Z" fill="#132AF4" stroke="#132AF4" stroke-width="15"/>
<path d="M837.003 611.425C837.003 610.641 833.805 610.137 827.409 609.913C824.828 609.913 823.145 609.857 822.359 609.745C821.574 609.633 821.181 609.129 821.181 608.233C821.181 607.337 821.405 606.217 821.854 604.873C822.303 603.529 822.696 602.69 823.033 602.354C823.257 602.242 834.422 602.186 856.528 602.186C875.268 602.298 885.759 602.354 888.004 602.354C890.248 602.354 892.492 602.69 894.736 603.361C902.816 605.265 909.661 609.689 915.271 616.632C920.882 623.575 923.743 632.87 923.856 644.517C923.856 661.987 917.852 677.665 905.846 691.551C893.839 705.437 879.7 713.724 863.429 716.412L861.073 716.748L828.419 716.916H809.735H800.814C798.121 716.916 796.382 716.804 795.597 716.58C794.811 716.356 794.362 715.852 794.25 715.068C794.25 714.844 794.418 714.06 794.755 712.717C795.204 710.925 795.653 709.917 796.102 709.693C796.55 709.469 797.841 709.301 799.973 709.189C803.003 709.189 806.369 709.021 810.072 708.685C811.643 708.349 812.709 707.677 813.27 706.669C813.607 706.221 817.646 690.655 825.389 659.971C833.132 629.286 837.003 613.104 837.003 611.425ZM907.024 638.133C907.024 633.878 906.407 630.07 905.172 626.711C903.938 623.351 902.479 620.719 900.796 618.816C899.113 616.912 897.037 615.288 894.568 613.944C892.099 612.6 889.911 611.704 888.004 611.257C886.096 610.809 884.132 610.417 882.113 610.081C881.888 610.081 881.103 610.081 879.756 610.081C878.41 610.081 876.782 610.081 874.875 610.081C872.967 610.081 871.116 610.025 869.32 609.913H862.083C857.145 609.913 854.34 610.473 853.667 611.592C853.442 612.04 849.346 628.167 841.379 659.971C833.412 691.775 829.429 707.845 829.429 708.181C829.429 708.629 830.046 708.853 831.28 708.853C832.515 708.853 836.835 708.909 844.241 709.021C844.802 709.021 845.868 709.021 847.439 709.021C849.01 709.021 850.356 709.077 851.478 709.189C865.617 709.189 877.287 704.597 886.489 695.415C890.529 691.383 893.839 686.68 896.42 681.304C899.001 675.929 901.413 668.818 903.657 659.971C905.902 651.124 907.024 643.845 907.024 638.133Z" fill="#132AF4" stroke="#132AF4" stroke-width="15"/>
<path d="M1081.69 1190H1081.1C1078.37 1190 1077 1188.92 1077 1186.78C1077 1186 1077.29 1184.43 1077.88 1182.09C1078.66 1179.36 1079.34 1177.8 1079.93 1177.41C1080.51 1177.02 1082.37 1176.72 1085.49 1176.53C1102.28 1175.94 1115.46 1170.87 1125.02 1161.3C1126.98 1159.35 1138.3 1147.05 1158.99 1124.41C1179.68 1101.76 1189.93 1090.24 1189.74 1089.85C1168.46 1035.58 1157.33 1007.96 1156.36 1006.98C1154.6 1004.83 1148.45 1003.66 1137.91 1003.47H1129.71C1128.54 1002.3 1127.95 1001.52 1127.95 1001.13C1127.95 1000.73 1128.15 998.88 1128.54 995.562C1129.32 993.024 1130.29 991.169 1131.47 989.998H1135.57C1142.2 990.388 1154.01 990.584 1171 990.584C1177.44 990.584 1183.39 990.584 1188.86 990.584C1194.33 990.584 1198.72 990.486 1202.04 990.291C1205.36 990.096 1207.31 990.096 1207.89 990.291C1211.21 990.291 1212.87 991.365 1212.87 993.512C1212.87 993.707 1212.68 994.976 1212.29 997.319C1211.5 1000.25 1210.82 1002 1210.24 1002.59C1209.65 1003.18 1208.09 1003.47 1205.55 1003.47C1199.5 1004.05 1194.23 1005.71 1189.74 1008.45L1212.29 1065.25L1227.81 1047.98C1248.3 1025.92 1258.55 1013.72 1258.55 1011.37C1258.55 1007.86 1256.21 1005.42 1251.52 1004.05C1250.55 1004.05 1249.28 1003.86 1247.72 1003.47C1244.79 1003.47 1243.33 1002.39 1243.33 1000.25C1243.33 999.857 1243.52 998.295 1243.91 995.562C1244.69 993.024 1245.67 991.169 1246.84 989.998H1250.35C1250.55 989.998 1252.99 989.998 1257.67 989.998C1262.36 989.998 1267.63 990.193 1273.49 990.584C1279.34 990.974 1283.34 991.072 1285.49 990.877C1303.06 990.877 1312.72 990.584 1314.48 989.998H1316.82C1318.19 991.365 1318.87 992.438 1318.87 993.219C1318.48 998.1 1317.31 1001.52 1315.36 1003.47H1310.67C1304.04 1003.66 1298.08 1004.54 1292.81 1006.1C1287.54 1007.67 1283.54 1009.32 1280.81 1011.08C1278.07 1012.84 1275.73 1014.6 1273.78 1016.35L1270.56 1018.99C1270.56 1018.79 1261.29 1028.94 1242.74 1049.44L1217.26 1077.55C1217.26 1077.75 1220.29 1085.56 1226.34 1100.98C1232.39 1116.4 1238.74 1132.21 1245.37 1148.42C1252.01 1164.62 1255.62 1173.01 1256.21 1173.6C1258.16 1175.36 1264.12 1176.33 1274.07 1176.53C1280.9 1176.53 1284.32 1177.41 1284.32 1179.16C1284.32 1179.55 1284.13 1180.92 1283.73 1183.26C1282.95 1186.39 1282.27 1188.24 1281.69 1188.83C1281.1 1189.41 1279.73 1189.71 1277.59 1189.71C1277 1189.71 1273.78 1189.71 1267.92 1189.71C1262.07 1189.71 1253.38 1189.61 1241.86 1189.41C1229.95 1189.41 1220.88 1189.41 1214.63 1189.41C1208.38 1189.41 1204.96 1189.51 1204.38 1189.71C1201.06 1189.71 1199.4 1188.83 1199.4 1187.07C1199.4 1186.87 1199.6 1185.41 1199.99 1182.68C1200.38 1180.73 1200.77 1179.36 1201.16 1178.58C1201.55 1177.8 1202.04 1177.31 1202.62 1177.11C1203.21 1176.92 1204.09 1176.72 1205.26 1176.53C1206.43 1176.33 1207.99 1176.24 1209.94 1176.24C1211.9 1176.24 1214.43 1175.55 1217.56 1174.19C1220.88 1172.62 1222.53 1171.65 1222.53 1171.26C1222.34 1171.26 1217.75 1159.84 1208.77 1137L1195.01 1102.44C1158.31 1142.27 1139.47 1163.25 1138.49 1165.4C1137.71 1166.96 1137.32 1168.13 1137.32 1168.91C1137.32 1172.62 1140.15 1175.06 1145.81 1176.24C1146.01 1176.24 1146.59 1176.24 1147.57 1176.24C1148.55 1176.24 1149.13 1176.33 1149.33 1176.53C1149.91 1176.53 1150.3 1176.53 1150.5 1176.53C1150.69 1176.53 1150.99 1176.63 1151.38 1176.82C1151.77 1177.02 1152.06 1177.31 1152.26 1177.7C1152.45 1178.09 1152.55 1178.77 1152.55 1179.75C1152.55 1181.51 1152.35 1183.07 1151.96 1184.43C1151.38 1186.97 1150.79 1188.44 1150.21 1188.83C1149.62 1189.22 1148.16 1189.51 1145.81 1189.71C1145.23 1189.71 1143.47 1189.71 1140.54 1189.71C1137.61 1189.71 1133.52 1189.61 1128.24 1189.41C1122.97 1189.22 1117.21 1189.22 1110.97 1189.41C1095.74 1189.41 1085.98 1189.61 1081.69 1190Z" fill="#132AF4" stroke="#132AF4" stroke-width="15"/>
<path d="M1784.54 1003.47C1782.2 1003.47 1780.54 1003.47 1779.56 1003.47C1778.59 1003.47 1777.61 1003.37 1776.64 1003.18C1775.66 1002.98 1774.98 1002.69 1774.59 1002.3C1774.2 1001.91 1774 1001.32 1774 1000.54C1774 999.761 1774.29 998.101 1774.88 995.564C1775.46 993.026 1776.34 991.269 1777.51 990.293C1777.9 990.097 1779.27 990 1781.61 990C1790.98 990.586 1801.62 990.878 1813.53 990.878C1837.54 990.878 1851.31 990.586 1854.82 990H1857.75C1858.92 991.171 1859.51 992.05 1859.51 992.635C1859.51 993.221 1859.31 994.978 1858.92 997.906C1858.14 1000.44 1857.16 1002.3 1855.99 1003.47H1852.48C1841.55 1003.47 1836.08 1004.74 1836.08 1007.28C1836.08 1008.25 1840.96 1022.6 1850.72 1050.32C1860.48 1078.04 1865.46 1092.1 1865.65 1092.49L1866.53 1091.61C1867.31 1090.83 1868.49 1089.56 1870.05 1087.8C1871.61 1086.05 1873.66 1083.7 1876.2 1080.78C1878.73 1077.85 1881.86 1074.24 1885.57 1069.94C1889.28 1065.65 1893.47 1060.67 1898.16 1055.01C1916.12 1034.12 1926.56 1021.82 1929.49 1018.11C1932.42 1014.4 1933.98 1011.38 1934.18 1009.03C1934.18 1005.91 1931.05 1004.06 1924.81 1003.47C1921.49 1003.47 1919.83 1002.49 1919.83 1000.54C1919.83 1000.15 1920.02 998.785 1920.41 996.442C1921 993.514 1921.49 991.757 1921.88 991.171C1922.27 990.586 1923.63 990.195 1925.98 990C1926.37 990 1929.2 990.097 1934.47 990.293C1939.74 990.488 1947.45 990.683 1957.6 990.878C1962.87 990.878 1968.34 990.781 1974 990.586C1979.66 990.39 1982.88 990.293 1983.66 990.293C1986.98 990.293 1988.64 991.171 1988.64 992.928C1988.64 993.709 1988.35 995.271 1987.76 997.613C1987.18 999.956 1986.69 1001.32 1986.3 1001.71C1985.91 1002.88 1983.86 1003.47 1980.15 1003.47C1966.09 1004.45 1954.67 1009.33 1945.89 1018.11C1944.13 1019.87 1930.47 1035.78 1904.89 1065.84L1867.12 1110.06L1859.51 1140.51C1854.23 1161.4 1851.6 1172.33 1851.6 1173.31C1851.6 1175.46 1858.24 1176.53 1871.51 1176.53C1874.63 1176.53 1876.68 1176.63 1877.66 1176.82C1878.64 1177.02 1879.22 1177.99 1879.42 1179.75C1879.42 1180.14 1879.22 1181.31 1878.83 1183.26C1878.05 1186.58 1877.47 1188.44 1877.07 1188.83C1876.68 1189.22 1875.12 1189.51 1872.39 1189.71C1871.41 1189.71 1867.31 1189.71 1860.09 1189.71C1852.87 1189.71 1843.89 1189.61 1833.15 1189.41C1821.05 1189.41 1811.87 1189.41 1805.63 1189.41C1799.38 1189.41 1795.86 1189.51 1795.08 1189.71C1791.57 1189.71 1789.81 1188.93 1789.81 1187.36C1789.81 1186.39 1790.11 1184.92 1790.69 1182.97C1790.89 1182.39 1791.08 1181.8 1791.28 1181.22C1791.47 1180.63 1791.57 1180.14 1791.57 1179.75C1791.57 1179.36 1791.67 1178.97 1791.86 1178.58C1792.06 1178.19 1792.25 1177.9 1792.45 1177.7C1792.64 1177.51 1792.94 1177.31 1793.33 1177.12C1793.72 1176.92 1794.2 1176.82 1794.79 1176.82C1795.38 1176.82 1795.96 1176.82 1796.55 1176.82C1797.13 1176.82 1798.01 1176.73 1799.18 1176.53C1800.35 1176.33 1801.62 1176.33 1802.99 1176.53C1810.6 1176.33 1815.58 1175.94 1817.92 1175.36C1820.27 1174.77 1822.02 1173.5 1823.19 1171.55C1823.78 1170.58 1826.61 1160.03 1831.69 1139.93L1839.01 1109.77L1802.99 1007.57C1802.79 1007.37 1802.6 1007.18 1802.4 1006.98C1802.21 1006.79 1802.01 1006.59 1801.82 1006.4C1801.62 1006.2 1801.33 1006.01 1800.94 1005.81C1800.55 1005.62 1800.16 1005.42 1799.77 1005.23C1799.38 1005.03 1798.89 1004.84 1798.3 1004.64C1797.72 1004.45 1796.94 1004.35 1795.96 1004.35C1794.99 1004.35 1794.11 1004.25 1793.33 1004.06C1792.55 1003.86 1791.28 1003.76 1789.52 1003.76C1787.76 1003.76 1786.1 1003.67 1784.54 1003.47Z" fill="#132AF4" stroke="#132AF4" stroke-width="15"/>
</svg>
