<svg width="11752" height="4619" viewBox="0 0 11752 4619" fill="none" xmlns="http://www.w3.org/2000/svg">
<path d="M2106 2326V2101" stroke="#132AF4" stroke-opacity="0.48" stroke-width="15"/>
<path d="M2106 2638L2106 2448" stroke="#132AF4" stroke-opacity="0.48" stroke-width="15"/>
<path d="M1976 2341H2235" stroke="#132AF4" stroke-opacity="0.48" stroke-width="30"/>
<path d="M1976 2433H2235" stroke="#132AF4" stroke-opacity="0.48" stroke-width="30"/>
<path d="M2812 2326V2101" stroke="#132AF4" stroke-opacity="0.48" stroke-width="15"/>
<path d="M2812 2638L2812 2448" stroke="#132AF4" stroke-opacity="0.48" stroke-width="15"/>
<path d="M2682 2341H2941" stroke="#132AF4" stroke-opacity="0.48" stroke-width="30"/>
<path d="M2682 2433H2941" stroke="#132AF4" stroke-opacity="0.48" stroke-width="30"/>
<path d="M3518 2326V2101" stroke="#132AF4" stroke-opacity="0.48" stroke-width="15"/>
<path d="M3518 2638L3518 2448" stroke="#132AF4" stroke-opacity="0.48" stroke-width="15"/>
<path d="M3388 2341H3647" stroke="#132AF4" stroke-opacity="0.48" stroke-width="30"/>
<path d="M3388 2433H3647" stroke="#132AF4" stroke-opacity="0.48" stroke-width="30"/>
<path d="M8421 1644L8421 1107" stroke="#132AF4" stroke-opacity="0.48" stroke-width="15"/>
<path d="M8421 2266L8421 1766" stroke="#132AF4" stroke-opacity="0.48" stroke-width="15"/>
<path d="M8291 1659H8550" stroke="#132AF4" stroke-opacity="0.48" stroke-width="30"/>
<path d="M8291 1751H8550" stroke="#132AF4" stroke-opacity="0.48" stroke-width="30"/>
<path d="M9127 1644V1107" stroke="#132AF4" stroke-opacity="0.48" stroke-width="15"/>
<path d="M9127 2280.5L9127 1766" stroke="#132AF4" stroke-opacity="0.48" stroke-width="15"/>
<path d="M8997 1659H9256" stroke="#132AF4" stroke-opacity="0.48" stroke-width="30"/>
<path d="M8997 1751H9256" stroke="#132AF4" stroke-opacity="0.48" stroke-width="30"/>
<path d="M9833 1644V1098" stroke="#132AF4" stroke-opacity="0.48" stroke-width="15"/>
<path d="M9833 2281.5L9833 1766" stroke="#132AF4" stroke-opacity="0.48" stroke-width="15"/>
<path d="M9703 1659H9962" stroke="#132AF4" stroke-opacity="0.48" stroke-width="30"/>
<path d="M9703 1751H9962" stroke="#132AF4" stroke-opacity="0.48" stroke-width="30"/>
<path d="M8421 2886L8421 2349" stroke="#132AF4" stroke-opacity="0.48" stroke-width="15"/>
<path d="M8421 3508L8421 3008" stroke="#132AF4" stroke-opacity="0.48" stroke-width="15"/>
<path d="M8291 2901H8550" stroke="#132AF4" stroke-opacity="0.48" stroke-width="30"/>
<path d="M8291 2993H8550" stroke="#132AF4" stroke-opacity="0.48" stroke-width="30"/>
<path d="M9127 2886V2349" stroke="#132AF4" stroke-opacity="0.48" stroke-width="15"/>
<path d="M9127 3522.5L9127 3008" stroke="#132AF4" stroke-opacity="0.48" stroke-width="15"/>
<path d="M8997 2901H9256" stroke="#132AF4" stroke-opacity="0.48" stroke-width="30"/>
<path d="M8997 2993H9256" stroke="#132AF4" stroke-opacity="0.48" stroke-width="30"/>
<path d="M9833 2886V2340" stroke="#132AF4" stroke-opacity="0.48" stroke-width="15"/>
<path d="M9833 3523.5L9833 3008" stroke="#132AF4" stroke-opacity="0.48" stroke-width="15"/>
<path d="M9703 2901H9962" stroke="#132AF4" stroke-opacity="0.48" stroke-width="30"/>
<path d="M9703 2993H9962" stroke="#132AF4" stroke-opacity="0.48" stroke-width="30"/>
<circle cx="1397" cy="1667" r="42.5" transform="rotate(90 1397 1667)" stroke="#132AF4" stroke-width="15"/>
<circle cx="1397" cy="816" r="42.5" transform="rotate(90 1397 816)" fill="#132AF4" stroke="#132AF4" stroke-width="15"/>
<path d="M1396.94 1716L1397 2060L1568.95 2060" stroke="#132AF4" stroke-width="15"/>
<path d="M1397 1167H1106.37C1106.21 1167 1106.13 1167 1106.1 1167.05C1106.07 1167.1 1106.11 1167.17 1106.2 1167.31L1396.83 1609.75C1396.91 1609.86 1396.95 1609.92 1397 1609.92C1397.05 1609.92 1397.09 1609.86 1397.17 1609.75L1687.8 1167.31C1687.89 1167.17 1687.93 1167.1 1687.9 1167.05C1687.87 1167 1687.79 1167 1687.63 1167H1397ZM1397 1167V767" stroke="#132AF4" stroke-width="15"/>
<path d="M4265 2111H4420L4470 1346H4737L4787 2111H5053L5103 1346H5369L5431 2111H5547" stroke="#132AF4" stroke-width="30"/>
<path d="M1569.08 2017.62L4206 2017.62L4190.5 2103.62H4075.21H1569C1569 2103.62 1569.05 2017.62 1569.08 2017.62Z" fill="url(#paint0_linear_254_75)"/>
<ellipse cx="4198.43" cy="2060.61" rx="30.8766" ry="44.5046" transform="rotate(21 4198.43 2060.61)" fill="#07005C"/>
<path d="M504 3301.99V3389.99" stroke="#132AF4" stroke-width="15"/>
<path d="M504 2761.99V2469.49" stroke="#132AF4" stroke-width="15"/>
<path d="M504 2401.99V2356.99L414 2341.99L594 2311.99L414 2281.99L594 2251.99L414 2221.99L594 2191.99L414 2161.99L594 2131.99L414 2101.99L594 2071.99L504 2056.99V2011.99" stroke="#132AF4" stroke-width="15"/>
<path d="M504.375 1942.99C523.705 1942.99 539.375 1958.66 539.375 1977.99C539.375 1997.32 523.705 2012.99 504.375 2012.99C485.045 2012.99 469.375 1997.32 469.375 1977.99C469.375 1958.66 485.045 1942.99 504.375 1942.99Z" fill="#132AF4"/>
<circle cx="504" cy="2435.99" r="35" transform="rotate(-90 504 2435.99)" fill="#132AF4"/>
<path d="M402 3603.99H605" stroke="#132AF4" stroke-width="35"/>
<path d="M437 3682.99H568" stroke="#132AF4" stroke-width="35"/>
<path d="M460 3751.99H546" stroke="#132AF4" stroke-width="35"/>
<path d="M502.691 3586.99V3457.99" stroke="#132AF4" stroke-width="15"/>
<path d="M503 3388.99C522.33 3388.99 538 3404.66 538 3423.99C538 3443.32 522.33 3458.99 503 3458.99C483.67 3458.99 468 3443.32 468 3423.99C468 3404.66 483.67 3388.99 503 3388.99Z" fill="#132AF4"/>
<path d="M504 1616.5L504 1960.99" stroke="#132AF4" stroke-width="15"/>
<path d="M276.5 2851.99V3211.99" stroke="#132AF4" stroke-width="35"/>
<path d="M191 2895.99V3167.99" stroke="#132AF4" stroke-width="35"/>
<path d="M487.426 3121.8L367.321 3082.1C367.178 3082.05 367.106 3082.03 367.063 3082.07C367.02 3082.1 367.034 3082.18 367.062 3082.33L374.402 3121.99L367.062 3161.66C367.034 3161.81 367.02 3161.88 367.063 3161.92C367.106 3161.96 367.178 3161.94 367.321 3161.89L487.426 3122.18C487.663 3122.11 487.781 3122.07 487.781 3121.99C487.781 3121.92 487.663 3121.88 487.426 3121.8Z" fill="#132AF4"/>
<path d="M374.402 3121.99L367.062 3161.66C367.034 3161.81 367.02 3161.88 367.063 3161.92C367.106 3161.96 367.178 3161.94 367.321 3161.89L487.426 3122.18C487.663 3122.11 487.781 3122.07 487.781 3121.99C487.781 3121.92 487.663 3121.88 487.426 3121.8L367.321 3082.1C367.178 3082.05 367.106 3082.03 367.063 3082.07C367.02 3082.1 367.034 3082.18 367.062 3082.33L374.402 3121.99ZM374.402 3121.99H293.5" stroke="#132AF4" stroke-width="15"/>
<path d="M488 3121.99H504V3301.99" stroke="#132AF4" stroke-width="15"/>
<path d="M294 2941.99H504V2761.99" stroke="#132AF4" stroke-width="15"/>
<path d="M173.5 3031.99H0" stroke="#132AF4" stroke-width="15"/>
<path d="M504.501 2678.99L1569 2679" stroke="#132AF4" stroke-width="15"/>
<path d="M504 2643.99C523.33 2643.99 539 2659.66 539 2678.99C539 2698.32 523.33 2713.99 504 2713.99C484.67 2713.99 469 2698.32 469 2678.99C469 2659.66 484.67 2643.99 504 2643.99Z" fill="#132AF4"/>
<path d="M704.349 2946.06C704.349 2945.11 699.835 2944.48 690.806 2944.16C687.005 2944.16 684.55 2944.08 683.441 2943.93C682.332 2943.77 681.778 2942.97 681.778 2941.55C681.778 2941.39 681.936 2940.52 682.253 2938.94C682.411 2938.46 682.57 2937.91 682.728 2937.27C682.886 2936.64 682.966 2936.24 682.966 2936.08C682.966 2935.93 683.124 2935.53 683.441 2934.9C683.758 2934.26 683.916 2934.03 683.916 2934.18C683.916 2934.34 684.233 2934.18 684.866 2933.71C685.5 2933.23 685.896 2933.08 686.054 2933.23C686.213 2933.39 686.846 2933.39 687.955 2933.23C689.064 2933.08 690.014 2933 690.806 2933C691.757 2933 694.133 2933 697.934 2933C701.736 2933 705.3 2933.08 708.626 2933.23C721.139 2933.23 728.346 2933.23 730.247 2933.23C732.148 2933.23 733.415 2933.63 734.049 2934.42C734.207 2935.05 737.137 2957.39 742.84 3001.42L751.393 3067.71L756.858 3058.92C760.659 3053.22 765.728 3045.3 772.064 3035.16C778.4 3025.02 785.369 3013.94 792.972 3001.9C820.692 2957.71 834.71 2935.45 835.027 2935.13C835.185 2934.98 835.423 2934.74 835.74 2934.42C836.056 2934.1 836.373 2933.87 836.69 2933.71L838.116 2933.23H860.925C863.618 2933.23 866.786 2933.23 870.429 2933.23C874.072 2933.23 876.369 2933.15 877.319 2933C882.704 2933 885.397 2933.87 885.397 2935.61C885.397 2936.4 885.16 2937.75 884.684 2939.65C884.209 2941.55 883.972 2942.58 883.972 2942.74C883.338 2943.69 880.408 2944.16 875.181 2944.16C868.845 2944.32 864.806 2944.56 863.063 2944.88C861.321 2945.19 859.895 2946.06 858.786 2947.49C858.311 2948.28 852.609 2970.69 841.68 3014.73C830.75 3058.76 825.206 3081.02 825.048 3081.49C825.048 3082.13 825.127 3082.52 825.285 3082.68C825.444 3082.84 825.998 3083.16 826.949 3083.63C827.899 3084.11 829.245 3084.27 830.988 3084.11C832.73 3083.95 835.344 3084.11 838.828 3084.58H846.194C847.144 3086.01 847.619 3086.88 847.619 3087.2C847.619 3089.73 847.065 3092.11 845.956 3094.32C845.164 3095.12 843.897 3095.51 842.155 3095.51C841.363 3095.51 838.116 3095.43 832.413 3095.27C826.711 3095.12 819.425 3095.04 810.555 3095.04C800.892 3095.04 793.606 3095.04 788.696 3095.04C783.785 3095.04 781.013 3095.12 780.38 3095.27C777.687 3095.27 776.341 3094.48 776.341 3092.9C776.341 3092.58 776.499 3091.47 776.816 3089.57C777.45 3087.04 778.083 3085.61 778.717 3085.29C779.35 3084.98 781.172 3084.74 784.181 3084.58C788.458 3084.58 793.21 3084.34 798.437 3083.87C800.655 3083.39 802.16 3082.44 802.951 3081.02C803.268 3080.38 806.278 3068.82 811.98 3046.33C817.682 3023.84 823.306 3001.42 828.849 2979.09C834.393 2956.76 837.165 2945.59 837.165 2945.59L791.072 3019.01C760.026 3068.43 744.107 3093.53 743.315 3094.32C742.998 3094.48 742.681 3094.64 742.365 3094.8C741.573 3095.27 740.305 3095.51 738.563 3095.51C736.187 3095.51 734.762 3094.96 734.286 3093.85C733.97 3093.21 730.722 3068.66 724.545 3020.19L715.279 2947.25L699.122 3011.4C688.51 3053.54 683.203 3075.32 683.203 3076.74C684.154 3081.97 689.856 3084.58 700.31 3084.58H702.686C703.637 3085.37 704.191 3086.09 704.349 3086.72C704.508 3087.35 704.27 3088.78 703.637 3091C703.003 3093.53 702.369 3094.96 701.736 3095.27C701.102 3095.43 700.231 3095.51 699.122 3095.51C698.805 3095.51 697.855 3095.51 696.271 3095.51C694.687 3095.51 691.994 3095.43 688.193 3095.27C684.391 3095.12 679.323 3095.04 672.987 3095.04C668.235 3095.04 663.324 3095.12 658.256 3095.27C653.187 3095.43 650.257 3095.51 649.465 3095.51C647.089 3095.51 645.584 3095.35 644.95 3095.04C644.317 3094.72 644 3094.01 644 3092.9C644 3092.58 644.238 3091.47 644.713 3089.57C645.188 3087.67 645.584 3086.48 645.901 3086.01C646.218 3085.06 647.96 3084.58 651.128 3084.58C662.216 3084.58 669.264 3081.41 672.274 3075.08C672.907 3074.13 678.372 3052.9 688.668 3011.4C698.964 2969.9 704.191 2948.12 704.349 2946.06Z" fill="#132AF4" stroke="#132AF4" stroke-width="15"/>
<path d="M909.767 3034.06L907.583 3034.9C906.016 3035.46 903.776 3036.02 900.864 3036.58C897.953 3037.14 894.705 3037.53 891.121 3037.75H887.93V3030.03H891.121C896.385 3029.8 901.256 3028.96 905.736 3027.51C910.215 3026.05 913.351 3024.71 915.142 3023.48C916.934 3022.24 918.502 3021.01 919.846 3019.78C920.07 3019.44 920.742 3019.28 921.862 3019.28C922.87 3019.28 923.821 3019.61 924.717 3020.28V3070.51L924.885 3120.9C925.669 3121.69 926.341 3122.19 926.901 3122.42C927.461 3122.64 928.805 3122.86 930.933 3123.09C933.06 3123.31 936.532 3123.42 941.347 3123.42H945.715V3131.15H943.867C941.515 3130.81 932.612 3130.65 917.158 3130.65C901.928 3130.65 893.137 3130.81 890.785 3131.15H888.77V3123.42H893.137C895.601 3123.42 897.729 3123.42 899.52 3123.42C901.312 3123.42 902.712 3123.37 903.72 3123.26C904.728 3123.14 905.624 3122.98 906.407 3122.75C907.191 3122.53 907.639 3122.42 907.751 3122.42C907.863 3122.42 908.199 3122.14 908.759 3121.58C909.319 3121.02 909.655 3120.79 909.767 3120.9V3034.06Z" fill="#132AF4" stroke="#132AF4" stroke-width="15"/>
<path d="M122 2410.33C122 2406.84 123.031 2404.06 125.092 2402H127.709C134.37 2402.48 142.695 2402.71 152.686 2402.71C171.399 2402.71 182.421 2402.48 185.751 2402H188.13C189.081 2402.95 189.557 2403.67 189.557 2404.14C189.557 2404.62 189.398 2406.04 189.081 2408.42C188.288 2410.8 187.575 2412.31 186.94 2412.94H181.945C178.456 2413.26 176.077 2413.42 174.809 2413.42C170.21 2414.21 167.672 2415.4 167.197 2416.99C167.197 2417.3 169.496 2437.21 174.095 2476.69C178.694 2516.18 181.073 2536.08 181.231 2536.4L198.596 2508.57C210.173 2490.01 221.749 2471.3 233.326 2452.43C244.903 2433.56 250.85 2423.81 251.167 2423.17C251.801 2422.06 252.118 2420.87 252.118 2419.6C252.118 2415.8 248.63 2413.58 241.652 2412.94C238.797 2412.94 237.37 2412.07 237.37 2410.33C237.37 2410.17 237.529 2409.14 237.846 2407.23C238.322 2405.01 238.797 2403.59 239.273 2402.95C239.749 2402.32 240.78 2402 242.365 2402C242.683 2402 243.634 2402 245.22 2402C246.806 2402 249.502 2402.08 253.308 2402.24C257.114 2402.4 262.188 2402.48 268.532 2402.48C279.474 2402.48 286.373 2402.32 289.227 2402H290.892C292.002 2403.11 292.557 2403.98 292.557 2404.62C292.557 2407.31 291.844 2409.85 290.416 2412.23C289.941 2412.7 288.593 2412.94 286.373 2412.94C284.311 2413.1 282.408 2413.26 280.664 2413.42C278.919 2413.58 277.254 2413.97 275.668 2414.61C274.082 2415.24 272.814 2415.8 271.862 2416.27C270.911 2416.75 269.959 2417.38 269.008 2418.18C268.056 2418.97 267.263 2419.52 266.629 2419.84C265.994 2420.16 265.36 2420.87 264.726 2421.98C264.091 2423.09 263.536 2423.65 263.061 2423.65L217.151 2497.39C188.605 2543.54 173.857 2567.17 172.906 2568.28C172.43 2568.59 171.875 2568.99 171.24 2569.47L166.959 2569.7H165.293C162.439 2569.7 161.012 2569.15 161.012 2568.04C160.536 2567.09 157.444 2541.71 151.735 2491.92C145.708 2441.49 142.616 2416.03 142.457 2415.56C141.664 2413.81 136.748 2412.94 127.709 2412.94H123.665C122.555 2412.15 122 2411.28 122 2410.33Z" fill="#132AF4" stroke="#132AF4" stroke-width="15"/>
<path d="M263.232 2600.15H262.896C261.326 2600.15 260.541 2599.53 260.541 2598.3C260.541 2597.85 260.709 2596.95 261.046 2595.61C261.494 2594.04 261.886 2593.14 262.223 2592.92C262.559 2592.69 263.624 2592.53 265.418 2592.41C275.06 2592.08 282.628 2589.16 288.122 2583.67C289.243 2582.55 295.746 2575.48 307.631 2562.48C319.516 2549.47 325.402 2542.86 325.29 2542.63C313.069 2511.46 306.678 2495.6 306.117 2495.04C305.108 2493.8 301.577 2493.13 295.522 2493.02H290.813C290.14 2492.35 289.804 2491.9 289.804 2491.67C289.804 2491.45 289.916 2490.39 290.14 2488.48C290.589 2487.02 291.15 2485.96 291.822 2485.28H294.177C297.989 2485.51 304.772 2485.62 314.526 2485.62C318.226 2485.62 321.646 2485.62 324.785 2485.62C327.925 2485.62 330.447 2485.56 332.353 2485.45C334.259 2485.34 335.38 2485.34 335.717 2485.45C337.623 2485.45 338.576 2486.07 338.576 2487.3C338.576 2487.41 338.464 2488.14 338.24 2489.49C337.791 2491.17 337.399 2492.18 337.062 2492.52C336.726 2492.85 335.829 2493.02 334.371 2493.02C330.896 2493.36 327.869 2494.31 325.29 2495.88L338.24 2528.51L347.153 2518.58C358.925 2505.91 364.812 2498.91 364.812 2497.56C364.812 2495.54 363.466 2494.14 360.775 2493.36C360.215 2493.36 359.486 2493.24 358.589 2493.02C356.907 2493.02 356.066 2492.4 356.066 2491.17C356.066 2490.95 356.179 2490.05 356.403 2488.48C356.851 2487.02 357.412 2485.96 358.085 2485.28H360.103C360.215 2485.28 361.616 2485.28 364.307 2485.28C366.998 2485.28 370.025 2485.4 373.389 2485.62C376.752 2485.84 379.051 2485.9 380.284 2485.79C390.375 2485.79 395.925 2485.62 396.934 2485.28H398.279C399.064 2486.07 399.457 2486.69 399.457 2487.13C399.232 2489.94 398.56 2491.9 397.438 2493.02H394.748C390.935 2493.13 387.516 2493.64 384.489 2494.53C381.461 2495.43 379.163 2496.38 377.593 2497.39C376.024 2498.4 374.678 2499.41 373.557 2500.42L371.707 2501.93C371.707 2501.82 366.381 2507.65 355.73 2519.42L341.099 2535.57C341.099 2535.68 342.836 2540.17 346.312 2549.02C349.788 2557.88 353.432 2566.96 357.244 2576.27C361.056 2585.57 363.13 2590.4 363.466 2590.73C364.587 2591.74 368.007 2592.3 373.725 2592.41C377.649 2592.41 379.611 2592.92 379.611 2593.93C379.611 2594.15 379.499 2594.94 379.275 2596.28C378.827 2598.08 378.434 2599.14 378.098 2599.48C377.761 2599.81 376.977 2599.98 375.743 2599.98C375.407 2599.98 373.557 2599.98 370.193 2599.98C366.83 2599.98 361.841 2599.93 355.226 2599.81C348.386 2599.81 343.173 2599.81 339.585 2599.81C335.997 2599.81 334.035 2599.87 333.699 2599.98C331.793 2599.98 330.84 2599.48 330.84 2598.47C330.84 2598.36 330.952 2597.52 331.176 2595.95C331.4 2594.82 331.624 2594.04 331.849 2593.59C332.073 2593.14 332.353 2592.86 332.69 2592.75C333.026 2592.64 333.531 2592.53 334.203 2592.41C334.876 2592.3 335.773 2592.25 336.894 2592.25C338.015 2592.25 339.473 2591.85 341.267 2591.07C343.173 2590.17 344.126 2589.61 344.126 2589.39C344.014 2589.39 341.379 2582.83 336.221 2569.71L328.317 2549.86C307.239 2572.74 296.419 2584.79 295.859 2586.02C295.41 2586.92 295.186 2587.59 295.186 2588.04C295.186 2590.17 296.812 2591.57 300.063 2592.25C300.175 2592.25 300.511 2592.25 301.072 2592.25C301.633 2592.25 301.969 2592.3 302.081 2592.41C302.417 2592.41 302.642 2592.41 302.754 2592.41C302.866 2592.41 303.034 2592.47 303.258 2592.58C303.483 2592.69 303.651 2592.86 303.763 2593.09C303.875 2593.31 303.931 2593.7 303.931 2594.26C303.931 2595.27 303.819 2596.17 303.595 2596.95C303.258 2598.41 302.922 2599.25 302.586 2599.48C302.249 2599.7 301.408 2599.87 300.063 2599.98C299.727 2599.98 298.718 2599.98 297.036 2599.98C295.354 2599.98 292.999 2599.93 289.972 2599.81C286.945 2599.7 283.638 2599.7 280.05 2599.81C271.304 2599.81 265.698 2599.93 263.232 2600.15Z" fill="#132AF4" stroke="#132AF4" stroke-width="15"/>
<path d="M1569.08 2638L4206 2638L4190.5 2724H4075.21H1569C1569 2724 1569.05 2638 1569.08 2638Z" fill="url(#paint1_linear_254_75)"/>
<ellipse cx="4198.43" cy="2681" rx="30.8766" ry="44.5046" transform="rotate(21 4198.43 2681)" fill="#07005C"/>
<path d="M4296.43 2724H4296.5C4296.5 2724 4296.47 2724.01 4296.43 2724H4264.5C4264.5 2724 4263.5 2702.5 4325 2613.5C4386.5 2524.5 4407.5 2512.5 4407.5 2512.5V2300.5L4508.5 2439.5C4508.5 2439.5 4554.5 2422 4592 2422C4629.23 2422 4656.21 2439.41 4691.25 2462.02L4692 2462.5C4722.78 2482.36 4761.5 2525.5 4761.5 2525.5V2540L4774.5 2537C4774.5 2537 4811 2577.5 4920.75 2718.25C5030.5 2859 5059 2890 5059 2890L5060.5 2797.5L5122.5 2944L5141 2965.5L5160 2978.5L5177.5 2988C5177.5 2988 5178.5 2990 5197 2995C5215.5 3000 5216 3002.5 5240 2996.5C5264 2990.5 5265.5 2991.5 5287.5 2981C5309.5 2970.5 5311.5 2970 5328 2960C5363.13 2938.71 5406.5 2890 5406.5 2890L5416 2919L5478.5 2800L5514.5 2724H5547.5L5492 2835L5437.5 2929.5L5406.5 2989V2932.5L5371.5 2965L5333 2992.5L5319 2999.5L5304.5 3006.5L5290.5 3012L5276 3016.5L5261.5 3021L5250.5 3024L5237.5 3025.5L5217.5 3026.5L5197 3024C5197 3024 5190 3023 5177.5 3019C5166 3015.32 5155 3009.5 5155 3009.5L5139 3000.5L5115.5 2983.5L5079 2895L5103.5 2975C5103.5 2975 5032 2921.5 4887.5 2727C4845.14 2669.99 4774.5 2584.5 4774.5 2584.5L4721.5 2655.5V2527.5C4721.5 2527.5 4706.5 2506 4644.5 2467.5C4641.61 2465.71 4624.64 2453.72 4592 2452C4535 2449 4486 2486.5 4486 2486.5L4461 2466V2505C4461 2505 4390.5 2558 4340.5 2642C4293.91 2720.27 4295.94 2723.87 4296.43 2724Z" fill="#132AF4"/>
<path d="M6708 1685.49V1773.49" stroke="#132AF4" stroke-width="15"/>
<path d="M6708 1145.49V852.995" stroke="#132AF4" stroke-width="15"/>
<path d="M6708 785.495V740.495L6618 725.495L6798 695.495L6618 665.495L6798 635.495L6618 605.495L6798 575.495L6618 545.495L6798 515.495L6618 485.495L6798 455.495L6708 440.495V395.495" stroke="#132AF4" stroke-width="15"/>
<path d="M6708.38 326.495C6727.7 326.495 6743.38 342.165 6743.38 361.495C6743.38 380.825 6727.7 396.495 6708.38 396.495C6689.05 396.495 6673.38 380.825 6673.38 361.495C6673.38 342.165 6689.05 326.495 6708.38 326.495Z" fill="#132AF4"/>
<circle cx="6708" cy="819.495" r="35" transform="rotate(-90 6708 819.495)" fill="#132AF4"/>
<path d="M6606 1987.49H6809" stroke="#132AF4" stroke-width="35"/>
<path d="M6641 2066.49H6772" stroke="#132AF4" stroke-width="35"/>
<path d="M6664 2135.49H6750" stroke="#132AF4" stroke-width="35"/>
<path d="M6706.69 1970.49V1841.49" stroke="#132AF4" stroke-width="15"/>
<path d="M6707 1772.49C6726.33 1772.49 6742 1788.16 6742 1807.49C6742 1826.82 6726.33 1842.49 6707 1842.49C6687.67 1842.49 6672 1826.82 6672 1807.49C6672 1788.16 6687.67 1772.49 6707 1772.49Z" fill="#132AF4"/>
<path d="M6708 2.80131e-06L6708 344.495" stroke="#132AF4" stroke-width="15"/>
<path d="M6480.5 1235.49V1595.49" stroke="#132AF4" stroke-width="35"/>
<path d="M6395 1279.49V1551.49" stroke="#132AF4" stroke-width="35"/>
<path d="M6691.43 1505.3L6571.32 1465.6C6571.18 1465.55 6571.11 1465.53 6571.06 1465.57C6571.02 1465.6 6571.03 1465.68 6571.06 1465.83L6578.4 1505.49L6571.06 1545.16C6571.03 1545.31 6571.02 1545.38 6571.06 1545.42C6571.11 1545.46 6571.18 1545.44 6571.32 1545.39L6691.43 1505.68C6691.66 1505.61 6691.78 1505.57 6691.78 1505.49C6691.78 1505.42 6691.66 1505.38 6691.43 1505.3Z" fill="#132AF4"/>
<path d="M6578.4 1505.49L6571.06 1545.16C6571.03 1545.31 6571.02 1545.38 6571.06 1545.42C6571.11 1545.46 6571.18 1545.44 6571.32 1545.39L6691.43 1505.68C6691.66 1505.61 6691.78 1505.57 6691.78 1505.49C6691.78 1505.42 6691.66 1505.38 6691.43 1505.3L6571.32 1465.6C6571.18 1465.55 6571.11 1465.53 6571.06 1465.57C6571.02 1465.6 6571.03 1465.68 6571.06 1465.83L6578.4 1505.49ZM6578.4 1505.49H6497.5" stroke="#132AF4" stroke-width="15"/>
<path d="M6692 1505.49H6708V1685.49" stroke="#132AF4" stroke-width="15"/>
<path d="M6498 1325.49H6708V1145.49" stroke="#132AF4" stroke-width="15"/>
<path d="M6377.5 1415.49H6204" stroke="#132AF4" stroke-width="15"/>
<path d="M6708.5 1062.49L7773 1062.5" stroke="#132AF4" stroke-width="15"/>
<path d="M6708 1027.49C6727.33 1027.49 6743 1043.16 6743 1062.49C6743 1081.82 6727.33 1097.49 6708 1097.49C6688.67 1097.49 6673 1081.82 6673 1062.49C6673 1043.16 6688.67 1027.49 6708 1027.49Z" fill="#132AF4"/>
<path d="M6908.35 1329.56C6908.35 1328.61 6903.83 1327.98 6894.81 1327.66C6891 1327.66 6888.55 1327.58 6887.44 1327.43C6886.33 1327.27 6885.78 1326.47 6885.78 1325.05C6885.78 1324.89 6885.94 1324.02 6886.25 1322.44C6886.41 1321.96 6886.57 1321.41 6886.73 1320.77C6886.89 1320.14 6886.97 1319.74 6886.97 1319.58C6886.97 1319.43 6887.12 1319.03 6887.44 1318.4C6887.76 1317.76 6887.92 1317.53 6887.92 1317.68C6887.92 1317.84 6888.23 1317.68 6888.87 1317.21C6889.5 1316.73 6889.9 1316.58 6890.05 1316.73C6890.21 1316.89 6890.85 1316.89 6891.96 1316.73C6893.06 1316.58 6894.01 1316.5 6894.81 1316.5C6895.76 1316.5 6898.13 1316.5 6901.93 1316.5C6905.74 1316.5 6909.3 1316.58 6912.63 1316.73C6925.14 1316.73 6932.35 1316.73 6934.25 1316.73C6936.15 1316.73 6937.42 1317.13 6938.05 1317.92C6938.21 1318.55 6941.14 1340.89 6946.84 1384.92L6955.39 1451.21L6960.86 1442.42C6964.66 1436.72 6969.73 1428.8 6976.06 1418.66C6982.4 1408.52 6989.37 1397.44 6996.97 1385.4C7024.69 1341.21 7038.71 1318.95 7039.03 1318.63C7039.19 1318.48 7039.42 1318.24 7039.74 1317.92C7040.06 1317.6 7040.37 1317.37 7040.69 1317.21L7042.12 1316.73H7064.92C7067.62 1316.73 7070.79 1316.73 7074.43 1316.73C7078.07 1316.73 7080.37 1316.65 7081.32 1316.5C7086.7 1316.5 7089.4 1317.37 7089.4 1319.11C7089.4 1319.9 7089.16 1321.25 7088.68 1323.15C7088.21 1325.05 7087.97 1326.08 7087.97 1326.24C7087.34 1327.19 7084.41 1327.66 7079.18 1327.66C7072.84 1327.82 7068.81 1328.06 7067.06 1328.38C7065.32 1328.69 7063.9 1329.56 7062.79 1330.99C7062.31 1331.78 7056.61 1354.19 7045.68 1398.23C7034.75 1442.26 7029.21 1464.52 7029.05 1464.99C7029.05 1465.63 7029.13 1466.02 7029.29 1466.18C7029.44 1466.34 7030 1466.66 7030.95 1467.13C7031.9 1467.61 7033.25 1467.77 7034.99 1467.61C7036.73 1467.45 7039.34 1467.61 7042.83 1468.08H7050.19C7051.14 1469.51 7051.62 1470.38 7051.62 1470.7C7051.62 1473.23 7051.07 1475.61 7049.96 1477.82C7049.16 1478.62 7047.9 1479.01 7046.15 1479.01C7045.36 1479.01 7042.12 1478.93 7036.41 1478.77C7030.71 1478.62 7023.42 1478.54 7014.55 1478.54C7004.89 1478.54 6997.61 1478.54 6992.7 1478.54C6987.79 1478.54 6985.01 1478.62 6984.38 1478.77C6981.69 1478.77 6980.34 1477.98 6980.34 1476.4C6980.34 1476.08 6980.5 1474.97 6980.82 1473.07C6981.45 1470.54 6982.08 1469.11 6982.72 1468.79C6983.35 1468.48 6985.17 1468.24 6988.18 1468.08C6992.46 1468.08 6997.21 1467.84 7002.44 1467.37C7004.65 1466.89 7006.16 1465.94 7006.95 1464.52C7007.27 1463.88 7010.28 1452.32 7015.98 1429.83C7021.68 1407.34 7027.31 1384.92 7032.85 1362.59C7038.39 1340.26 7041.17 1329.09 7041.17 1329.09L6995.07 1402.51C6964.03 1451.93 6948.11 1477.03 6947.31 1477.82C6947 1477.98 6946.68 1478.14 6946.36 1478.3C6945.57 1478.77 6944.31 1479.01 6942.56 1479.01C6940.19 1479.01 6938.76 1478.46 6938.29 1477.35C6937.97 1476.71 6934.72 1452.16 6928.54 1403.69L6919.28 1330.75L6903.12 1394.9C6892.51 1437.04 6887.2 1458.82 6887.2 1460.24C6888.15 1465.47 6893.86 1468.08 6904.31 1468.08H6906.69C6907.64 1468.87 6908.19 1469.59 6908.35 1470.22C6908.51 1470.85 6908.27 1472.28 6907.64 1474.5C6907 1477.03 6906.37 1478.46 6905.74 1478.77C6905.1 1478.93 6904.23 1479.01 6903.12 1479.01C6902.81 1479.01 6901.86 1479.01 6900.27 1479.01C6898.69 1479.01 6895.99 1478.93 6892.19 1478.77C6888.39 1478.62 6883.32 1478.54 6876.99 1478.54C6872.23 1478.54 6867.32 1478.62 6862.26 1478.77C6857.19 1478.93 6854.26 1479.01 6853.46 1479.01C6851.09 1479.01 6849.58 1478.85 6848.95 1478.54C6848.32 1478.22 6848 1477.51 6848 1476.4C6848 1476.08 6848.24 1474.97 6848.71 1473.07C6849.19 1471.17 6849.58 1469.98 6849.9 1469.51C6850.22 1468.56 6851.96 1468.08 6855.13 1468.08C6866.22 1468.08 6873.26 1464.91 6876.27 1458.58C6876.91 1457.63 6882.37 1436.4 6892.67 1394.9C6902.96 1353.4 6908.19 1331.62 6908.35 1329.56Z" fill="#132AF4" stroke="#132AF4" stroke-width="15"/>
<path d="M7113.77 1417.56L7111.58 1418.4C7110.02 1418.96 7107.78 1419.52 7104.86 1420.08C7101.95 1420.64 7098.7 1421.03 7095.12 1421.25H7091.93V1413.53H7095.12C7100.38 1413.3 7105.26 1412.46 7109.74 1411.01C7114.22 1409.55 7117.35 1408.21 7119.14 1406.98C7120.93 1405.74 7122.5 1404.51 7123.85 1403.28C7124.07 1402.94 7124.74 1402.78 7125.86 1402.78C7126.87 1402.78 7127.82 1403.11 7128.72 1403.78V1454.01L7128.89 1504.4C7129.67 1505.19 7130.34 1505.69 7130.9 1505.92C7131.46 1506.14 7132.8 1506.36 7134.93 1506.59C7137.06 1506.81 7140.53 1506.92 7145.35 1506.92H7149.71V1514.65H7147.87C7145.52 1514.31 7136.61 1514.15 7121.16 1514.15C7105.93 1514.15 7097.14 1514.31 7094.79 1514.65H7092.77V1506.92H7097.14C7099.6 1506.92 7101.73 1506.92 7103.52 1506.92C7105.31 1506.92 7106.71 1506.87 7107.72 1506.76C7108.73 1506.64 7109.62 1506.48 7110.41 1506.25C7111.19 1506.03 7111.64 1505.92 7111.75 1505.92C7111.86 1505.92 7112.2 1505.64 7112.76 1505.08C7113.32 1504.52 7113.66 1504.29 7113.77 1504.4V1417.56Z" fill="#132AF4" stroke="#132AF4" stroke-width="15"/>
<path d="M6326 793.826C6326 790.337 6327.03 787.562 6329.09 785.5H6331.71C6338.37 785.976 6346.7 786.214 6356.69 786.214C6375.4 786.214 6386.42 785.976 6389.75 785.5H6392.13C6393.08 786.452 6393.56 787.165 6393.56 787.641C6393.56 788.117 6393.4 789.544 6393.08 791.923C6392.29 794.301 6391.57 795.808 6390.94 796.442H6385.94C6382.46 796.76 6380.08 796.918 6378.81 796.918C6374.21 797.711 6371.67 798.9 6371.2 800.486C6371.2 800.803 6373.5 820.706 6378.09 860.193C6382.69 899.681 6385.07 919.583 6385.23 919.9L6402.6 892.069C6414.17 873.514 6425.75 854.801 6437.33 835.93C6448.9 817.058 6454.85 807.305 6455.17 806.671C6455.8 805.561 6456.12 804.372 6456.12 803.103C6456.12 799.297 6452.63 797.077 6445.65 796.442C6442.8 796.442 6441.37 795.57 6441.37 793.826C6441.37 793.667 6441.53 792.636 6441.85 790.733C6442.32 788.513 6442.8 787.086 6443.27 786.452C6443.75 785.817 6444.78 785.5 6446.37 785.5C6446.68 785.5 6447.63 785.5 6449.22 785.5C6450.81 785.5 6453.5 785.579 6457.31 785.738C6461.11 785.897 6466.19 785.976 6472.53 785.976C6483.47 785.976 6490.37 785.817 6493.23 785.5H6494.89C6496 786.61 6496.56 787.482 6496.56 788.117C6496.56 790.813 6495.84 793.35 6494.42 795.729C6493.94 796.204 6492.59 796.442 6490.37 796.442C6488.31 796.601 6486.41 796.76 6484.66 796.918C6482.92 797.077 6481.25 797.473 6479.67 798.108C6478.08 798.742 6476.81 799.297 6475.86 799.773C6474.91 800.248 6473.96 800.883 6473.01 801.676C6472.06 802.469 6471.26 803.024 6470.63 803.341C6469.99 803.658 6469.36 804.372 6468.73 805.482C6468.09 806.592 6467.54 807.147 6467.06 807.147L6421.15 880.888C6392.61 927.036 6377.86 950.666 6376.91 951.776C6376.43 952.093 6375.87 952.489 6375.24 952.965L6370.96 953.203H6369.29C6366.44 953.203 6365.01 952.648 6365.01 951.538C6364.54 950.586 6361.44 925.213 6355.73 875.417C6349.71 824.988 6346.62 799.535 6346.46 799.059C6345.66 797.315 6340.75 796.442 6331.71 796.442H6327.67C6326.56 795.649 6326 794.777 6326 793.826Z" fill="#132AF4" stroke="#132AF4" stroke-width="15"/>
<path d="M6467.23 983.65H6466.9C6465.33 983.65 6464.54 983.033 6464.54 981.8C6464.54 981.351 6464.71 980.455 6465.05 979.109C6465.5 977.539 6465.89 976.642 6466.22 976.418C6466.56 976.194 6467.63 976.026 6469.42 975.914C6479.06 975.577 6486.63 972.662 6492.12 967.168C6493.25 966.047 6499.75 958.984 6511.63 945.978C6523.52 932.972 6529.4 926.357 6529.29 926.133C6517.07 894.964 6510.68 879.099 6510.12 878.538C6509.11 877.305 6505.58 876.632 6499.52 876.52H6494.82C6494.14 875.847 6493.81 875.399 6493.81 875.175C6493.81 874.95 6493.92 873.885 6494.14 871.979C6494.59 870.522 6495.15 869.457 6495.82 868.784H6498.18C6501.99 869.008 6508.77 869.12 6518.53 869.12C6522.23 869.12 6525.65 869.12 6528.79 869.12C6531.93 869.12 6534.45 869.064 6536.36 868.952C6538.26 868.84 6539.38 868.84 6539.72 868.952C6541.62 868.952 6542.58 869.569 6542.58 870.802C6542.58 870.914 6542.47 871.643 6542.24 872.988C6541.79 874.67 6541.4 875.679 6541.06 876.016C6540.73 876.352 6539.83 876.52 6538.37 876.52C6534.9 876.856 6531.87 877.81 6529.29 879.379L6542.24 912.006L6551.15 902.083C6562.93 889.414 6568.81 882.406 6568.81 881.061C6568.81 879.043 6567.47 877.641 6564.78 876.856C6564.22 876.856 6563.49 876.744 6562.59 876.52C6560.91 876.52 6560.07 875.903 6560.07 874.67C6560.07 874.446 6560.18 873.549 6560.4 871.979C6560.85 870.522 6561.41 869.457 6562.09 868.784H6564.1C6564.22 868.784 6565.62 868.784 6568.31 868.784C6571 868.784 6574.03 868.896 6577.39 869.12C6580.75 869.345 6583.05 869.401 6584.29 869.288C6594.38 869.288 6599.93 869.12 6600.94 868.784H6602.28C6603.07 869.569 6603.46 870.185 6603.46 870.634C6603.23 873.437 6602.56 875.399 6601.44 876.52H6598.75C6594.94 876.632 6591.52 877.137 6588.49 878.034C6585.46 878.931 6583.16 879.884 6581.6 880.893C6580.03 881.902 6578.68 882.911 6577.56 883.92L6575.71 885.434C6575.71 885.321 6570.38 891.152 6559.73 902.924L6545.1 919.069C6545.1 919.181 6546.84 923.666 6550.31 932.524C6553.79 941.381 6557.43 950.463 6561.25 959.769C6565.06 969.074 6567.13 973.896 6567.47 974.232C6568.59 975.241 6572.01 975.802 6577.73 975.914C6581.65 975.914 6583.61 976.418 6583.61 977.427C6583.61 977.652 6583.5 978.436 6583.28 979.782C6582.83 981.576 6582.44 982.641 6582.1 982.977C6581.76 983.314 6580.98 983.482 6579.75 983.482C6579.41 983.482 6577.56 983.482 6574.2 983.482C6570.83 983.482 6565.84 983.426 6559.23 983.314C6552.39 983.314 6547.17 983.314 6543.59 983.314C6540 983.314 6538.04 983.37 6537.7 983.482C6535.79 983.482 6534.84 982.977 6534.84 981.968C6534.84 981.856 6534.95 981.015 6535.18 979.445C6535.4 978.324 6535.63 977.539 6535.85 977.091C6536.07 976.642 6536.36 976.362 6536.69 976.25C6537.03 976.138 6537.53 976.026 6538.21 975.914C6538.88 975.802 6539.77 975.746 6540.9 975.746C6542.02 975.746 6543.47 975.353 6545.27 974.568C6547.17 973.671 6548.13 973.111 6548.13 972.886C6548.02 972.886 6545.38 966.328 6540.22 953.21L6532.32 933.365C6511.24 956.237 6500.42 968.29 6499.86 969.523C6499.41 970.42 6499.19 971.093 6499.19 971.541C6499.19 973.671 6500.81 975.073 6504.06 975.746C6504.18 975.746 6504.51 975.746 6505.07 975.746C6505.63 975.746 6505.97 975.802 6506.08 975.914C6506.42 975.914 6506.64 975.914 6506.76 975.914C6506.87 975.914 6507.04 975.97 6507.26 976.082C6507.48 976.194 6507.65 976.362 6507.76 976.586C6507.88 976.811 6507.93 977.203 6507.93 977.764C6507.93 978.773 6507.82 979.67 6507.6 980.455C6507.26 981.912 6506.92 982.753 6506.59 982.977C6506.25 983.201 6505.41 983.37 6504.06 983.482C6503.73 983.482 6502.72 983.482 6501.04 983.482C6499.36 983.482 6497 983.426 6493.97 983.314C6490.95 983.201 6487.64 983.201 6484.05 983.314C6475.31 983.314 6469.7 983.426 6467.23 983.65Z" fill="#132AF4" stroke="#132AF4" stroke-width="15"/>
<path d="M10500.4 1107.5H10500.5C10500.5 1107.5 10500.5 1107.51 10500.4 1107.5H10468.5C10468.5 1107.5 10467.5 1086 10529 997C10590.5 908 10611.5 896 10611.5 896V684L10712.5 823C10712.5 823 10758.5 805.5 10796 805.5C10833.2 805.5 10860.2 822.908 10895.2 845.516L10896 846C10926.8 865.861 10965.5 909 10965.5 909V923.5L10978.5 920.5C10978.5 920.5 11015 961 11124.7 1101.75C11234.5 1242.5 11263 1273.5 11263 1273.5L11264.5 1181L11326.5 1327.5L11345 1349L11364 1362L11381.5 1371.5C11381.5 1371.5 11382.5 1373.5 11401 1378.5C11419.5 1383.5 11420 1386 11444 1380C11468 1374 11469.5 1375 11491.5 1364.5C11513.5 1354 11515.5 1353.5 11532 1343.5C11567.1 1322.21 11610.5 1273.5 11610.5 1273.5L11620 1302.5L11682.5 1183.5L11718.5 1107.5H11751.5L11696 1218.5L11641.5 1313L11610.5 1372.5V1316L11575.5 1348.5L11537 1376L11523 1383L11508.5 1390L11494.5 1395.5L11480 1400L11465.5 1404.5L11454.5 1407.5L11441.5 1409L11421.5 1410L11401 1407.5C11401 1407.5 11394 1406.5 11381.5 1402.5C11370 1398.82 11359 1393 11359 1393L11343 1384L11319.5 1367L11283 1278.5L11307.5 1358.5C11307.5 1358.5 11236 1305 11091.5 1110.5C11049.1 1053.49 10978.5 968 10978.5 968L10925.5 1039V911C10925.5 911 10910.5 889.5 10848.5 851C10845.6 849.206 10828.6 837.218 10796 835.5C10739 832.5 10690 870 10690 870L10665 849.5V888.5C10665 888.5 10594.5 941.5 10544.5 1025.5C10497.9 1103.77 10499.9 1107.37 10500.4 1107.5Z" fill="#132AF4"/>
<path d="M7773.08 1021.62L10410 1021.62L10394.5 1107.62H10279.2H7773C7773 1107.62 7773.05 1021.62 7773.08 1021.62Z" fill="url(#paint2_linear_254_75)"/>
<ellipse cx="10402.4" cy="1064.61" rx="30.8766" ry="44.5046" transform="rotate(21 10402.4 1064.61)" fill="#07005C"/>
<path d="M6708 4151.49V4239.49" stroke="#132AF4" stroke-width="15"/>
<path d="M6708 3611.49V3318.99" stroke="#132AF4" stroke-width="15"/>
<path d="M6708 3251.49V3206.49L6618 3191.49L6798 3161.49L6618 3131.49L6798 3101.49L6618 3071.49L6798 3041.49L6618 3011.49L6798 2981.49L6618 2951.49L6798 2921.49L6708 2906.49V2861.49" stroke="#132AF4" stroke-width="15"/>
<path d="M6708.38 2792.49C6727.7 2792.49 6743.38 2808.16 6743.38 2827.49C6743.38 2846.82 6727.7 2862.49 6708.38 2862.49C6689.05 2862.49 6673.38 2846.82 6673.38 2827.49C6673.38 2808.16 6689.05 2792.49 6708.38 2792.49Z" fill="#132AF4"/>
<circle cx="6708" cy="3285.49" r="35" transform="rotate(-90 6708 3285.49)" fill="#132AF4"/>
<path d="M6606 4453.49H6809" stroke="#132AF4" stroke-width="35"/>
<path d="M6641 4532.49H6772" stroke="#132AF4" stroke-width="35"/>
<path d="M6664 4601.49H6750" stroke="#132AF4" stroke-width="35"/>
<path d="M6706.69 4436.49V4307.49" stroke="#132AF4" stroke-width="15"/>
<path d="M6707 4238.49C6726.33 4238.49 6742 4254.16 6742 4273.49C6742 4292.82 6726.33 4308.49 6707 4308.49C6687.67 4308.49 6672 4292.82 6672 4273.49C6672 4254.16 6687.67 4238.49 6707 4238.49Z" fill="#132AF4"/>
<path d="M6708 2466L6708 2810.49" stroke="#132AF4" stroke-width="15"/>
<path d="M6480.5 3701.49V4061.49" stroke="#132AF4" stroke-width="35"/>
<path d="M6395 3745.49V4017.49" stroke="#132AF4" stroke-width="35"/>
<path d="M6691.43 3971.3L6571.32 3931.6C6571.18 3931.55 6571.11 3931.53 6571.06 3931.57C6571.02 3931.6 6571.03 3931.68 6571.06 3931.83L6578.4 3971.49L6571.06 4011.16C6571.03 4011.31 6571.02 4011.38 6571.06 4011.42C6571.11 4011.46 6571.18 4011.44 6571.32 4011.39L6691.43 3971.68C6691.66 3971.61 6691.78 3971.57 6691.78 3971.49C6691.78 3971.42 6691.66 3971.38 6691.43 3971.3Z" fill="#132AF4"/>
<path d="M6578.4 3971.49L6571.06 4011.16C6571.03 4011.31 6571.02 4011.38 6571.06 4011.42C6571.11 4011.46 6571.18 4011.44 6571.32 4011.39L6691.43 3971.68C6691.66 3971.61 6691.78 3971.57 6691.78 3971.49C6691.78 3971.42 6691.66 3971.38 6691.43 3971.3L6571.32 3931.6C6571.18 3931.55 6571.11 3931.53 6571.06 3931.57C6571.02 3931.6 6571.03 3931.68 6571.06 3931.83L6578.4 3971.49ZM6578.4 3971.49H6497.5" stroke="#132AF4" stroke-width="15"/>
<path d="M6692 3971.49H6708V4151.49" stroke="#132AF4" stroke-width="15"/>
<path d="M6498 3791.49H6708V3611.49" stroke="#132AF4" stroke-width="15"/>
<path d="M6377.5 3881.49H6204" stroke="#132AF4" stroke-width="15"/>
<path d="M6708.5 3528.49L7773 3528.5" stroke="#132AF4" stroke-width="15"/>
<path d="M6708 3493.49C6727.33 3493.49 6743 3509.16 6743 3528.49C6743 3547.82 6727.33 3563.49 6708 3563.49C6688.67 3563.49 6673 3547.82 6673 3528.49C6673 3509.16 6688.67 3493.49 6708 3493.49Z" fill="#132AF4"/>
<path d="M6908.35 3795.56C6908.35 3794.61 6903.83 3793.98 6894.81 3793.66C6891 3793.66 6888.55 3793.58 6887.44 3793.43C6886.33 3793.27 6885.78 3792.47 6885.78 3791.05C6885.78 3790.89 6885.94 3790.02 6886.25 3788.44C6886.41 3787.96 6886.57 3787.41 6886.73 3786.77C6886.89 3786.14 6886.97 3785.74 6886.97 3785.58C6886.97 3785.43 6887.12 3785.03 6887.44 3784.4C6887.76 3783.76 6887.92 3783.53 6887.92 3783.68C6887.92 3783.84 6888.23 3783.68 6888.87 3783.21C6889.5 3782.73 6889.9 3782.58 6890.05 3782.73C6890.21 3782.89 6890.85 3782.89 6891.96 3782.73C6893.06 3782.58 6894.01 3782.5 6894.81 3782.5C6895.76 3782.5 6898.13 3782.5 6901.93 3782.5C6905.74 3782.5 6909.3 3782.58 6912.63 3782.73C6925.14 3782.73 6932.35 3782.73 6934.25 3782.73C6936.15 3782.73 6937.42 3783.13 6938.05 3783.92C6938.21 3784.55 6941.14 3806.89 6946.84 3850.92L6955.39 3917.21L6960.86 3908.42C6964.66 3902.72 6969.73 3894.8 6976.06 3884.66C6982.4 3874.52 6989.37 3863.44 6996.97 3851.4C7024.69 3807.21 7038.71 3784.95 7039.03 3784.63C7039.19 3784.48 7039.42 3784.24 7039.74 3783.92C7040.06 3783.6 7040.37 3783.37 7040.69 3783.21L7042.12 3782.73H7064.92C7067.62 3782.73 7070.79 3782.73 7074.43 3782.73C7078.07 3782.73 7080.37 3782.65 7081.32 3782.5C7086.7 3782.5 7089.4 3783.37 7089.4 3785.11C7089.4 3785.9 7089.16 3787.25 7088.68 3789.15C7088.21 3791.05 7087.97 3792.08 7087.97 3792.24C7087.34 3793.19 7084.41 3793.66 7079.18 3793.66C7072.84 3793.82 7068.81 3794.06 7067.06 3794.38C7065.32 3794.69 7063.9 3795.56 7062.79 3796.99C7062.31 3797.78 7056.61 3820.19 7045.68 3864.23C7034.75 3908.26 7029.21 3930.52 7029.05 3930.99C7029.05 3931.63 7029.13 3932.02 7029.29 3932.18C7029.44 3932.34 7030 3932.66 7030.95 3933.13C7031.9 3933.61 7033.25 3933.77 7034.99 3933.61C7036.73 3933.45 7039.34 3933.61 7042.83 3934.08H7050.19C7051.14 3935.51 7051.62 3936.38 7051.62 3936.7C7051.62 3939.23 7051.07 3941.61 7049.96 3943.82C7049.16 3944.62 7047.9 3945.01 7046.15 3945.01C7045.36 3945.01 7042.12 3944.93 7036.41 3944.77C7030.71 3944.62 7023.42 3944.54 7014.55 3944.54C7004.89 3944.54 6997.61 3944.54 6992.7 3944.54C6987.79 3944.54 6985.01 3944.62 6984.38 3944.77C6981.69 3944.77 6980.34 3943.98 6980.34 3942.4C6980.34 3942.08 6980.5 3940.97 6980.82 3939.07C6981.45 3936.54 6982.08 3935.11 6982.72 3934.79C6983.35 3934.48 6985.17 3934.24 6988.18 3934.08C6992.46 3934.08 6997.21 3933.84 7002.44 3933.37C7004.65 3932.89 7006.16 3931.94 7006.95 3930.52C7007.27 3929.88 7010.28 3918.32 7015.98 3895.83C7021.68 3873.34 7027.31 3850.92 7032.85 3828.59C7038.39 3806.26 7041.17 3795.09 7041.17 3795.09L6995.07 3868.51C6964.03 3917.93 6948.11 3943.03 6947.31 3943.82C6947 3943.98 6946.68 3944.14 6946.36 3944.3C6945.57 3944.77 6944.31 3945.01 6942.56 3945.01C6940.19 3945.01 6938.76 3944.46 6938.29 3943.35C6937.97 3942.71 6934.72 3918.16 6928.54 3869.69L6919.28 3796.75L6903.12 3860.9C6892.51 3903.04 6887.2 3924.82 6887.2 3926.24C6888.15 3931.47 6893.86 3934.08 6904.31 3934.08H6906.69C6907.64 3934.87 6908.19 3935.59 6908.35 3936.22C6908.51 3936.85 6908.27 3938.28 6907.64 3940.5C6907 3943.03 6906.37 3944.46 6905.74 3944.77C6905.1 3944.93 6904.23 3945.01 6903.12 3945.01C6902.81 3945.01 6901.86 3945.01 6900.27 3945.01C6898.69 3945.01 6895.99 3944.93 6892.19 3944.77C6888.39 3944.62 6883.32 3944.54 6876.99 3944.54C6872.23 3944.54 6867.32 3944.62 6862.26 3944.77C6857.19 3944.93 6854.26 3945.01 6853.46 3945.01C6851.09 3945.01 6849.58 3944.85 6848.95 3944.54C6848.32 3944.22 6848 3943.51 6848 3942.4C6848 3942.08 6848.24 3940.97 6848.71 3939.07C6849.19 3937.17 6849.58 3935.98 6849.9 3935.51C6850.22 3934.56 6851.96 3934.08 6855.13 3934.08C6866.22 3934.08 6873.26 3930.91 6876.27 3924.58C6876.91 3923.63 6882.37 3902.4 6892.67 3860.9C6902.96 3819.4 6908.19 3797.62 6908.35 3795.56Z" fill="#132AF4" stroke="#132AF4" stroke-width="15"/>
<path d="M7113.77 3883.56L7111.58 3884.4C7110.02 3884.96 7107.78 3885.52 7104.86 3886.08C7101.95 3886.64 7098.7 3887.03 7095.12 3887.25H7091.93V3879.53H7095.12C7100.38 3879.3 7105.26 3878.46 7109.74 3877.01C7114.22 3875.55 7117.35 3874.21 7119.14 3872.98C7120.93 3871.74 7122.5 3870.51 7123.85 3869.28C7124.07 3868.94 7124.74 3868.78 7125.86 3868.78C7126.87 3868.78 7127.82 3869.11 7128.72 3869.78V3920.01L7128.89 3970.4C7129.67 3971.19 7130.34 3971.69 7130.9 3971.92C7131.46 3972.14 7132.8 3972.36 7134.93 3972.59C7137.06 3972.81 7140.53 3972.92 7145.35 3972.92H7149.71V3980.65H7147.87C7145.52 3980.31 7136.61 3980.15 7121.16 3980.15C7105.93 3980.15 7097.14 3980.31 7094.79 3980.65H7092.77V3972.92H7097.14C7099.6 3972.92 7101.73 3972.92 7103.52 3972.92C7105.31 3972.92 7106.71 3972.87 7107.72 3972.76C7108.73 3972.64 7109.62 3972.48 7110.41 3972.25C7111.19 3972.03 7111.64 3971.92 7111.75 3971.92C7111.86 3971.92 7112.2 3971.64 7112.76 3971.08C7113.32 3970.52 7113.66 3970.29 7113.77 3970.4V3883.56Z" fill="#132AF4" stroke="#132AF4" stroke-width="15"/>
<path d="M6326 3259.83C6326 3256.34 6327.03 3253.56 6329.09 3251.5H6331.71C6338.37 3251.98 6346.7 3252.21 6356.69 3252.21C6375.4 3252.21 6386.42 3251.98 6389.75 3251.5H6392.13C6393.08 3252.45 6393.56 3253.16 6393.56 3253.64C6393.56 3254.12 6393.4 3255.54 6393.08 3257.92C6392.29 3260.3 6391.57 3261.81 6390.94 3262.44H6385.94C6382.46 3262.76 6380.08 3262.92 6378.81 3262.92C6374.21 3263.71 6371.67 3264.9 6371.2 3266.49C6371.2 3266.8 6373.5 3286.71 6378.09 3326.19C6382.69 3365.68 6385.07 3385.58 6385.23 3385.9L6402.6 3358.07C6414.17 3339.51 6425.75 3320.8 6437.33 3301.93C6448.9 3283.06 6454.85 3273.31 6455.17 3272.67C6455.8 3271.56 6456.12 3270.37 6456.12 3269.1C6456.12 3265.3 6452.63 3263.08 6445.65 3262.44C6442.8 3262.44 6441.37 3261.57 6441.37 3259.83C6441.37 3259.67 6441.53 3258.64 6441.85 3256.73C6442.32 3254.51 6442.8 3253.09 6443.27 3252.45C6443.75 3251.82 6444.78 3251.5 6446.37 3251.5C6446.68 3251.5 6447.63 3251.5 6449.22 3251.5C6450.81 3251.5 6453.5 3251.58 6457.31 3251.74C6461.11 3251.9 6466.19 3251.98 6472.53 3251.98C6483.47 3251.98 6490.37 3251.82 6493.23 3251.5H6494.89C6496 3252.61 6496.56 3253.48 6496.56 3254.12C6496.56 3256.81 6495.84 3259.35 6494.42 3261.73C6493.94 3262.2 6492.59 3262.44 6490.37 3262.44C6488.31 3262.6 6486.41 3262.76 6484.66 3262.92C6482.92 3263.08 6481.25 3263.47 6479.67 3264.11C6478.08 3264.74 6476.81 3265.3 6475.86 3265.77C6474.91 3266.25 6473.96 3266.88 6473.01 3267.68C6472.06 3268.47 6471.26 3269.02 6470.63 3269.34C6469.99 3269.66 6469.36 3270.37 6468.73 3271.48C6468.09 3272.59 6467.54 3273.15 6467.06 3273.15L6421.15 3346.89C6392.61 3393.04 6377.86 3416.67 6376.91 3417.78C6376.43 3418.09 6375.87 3418.49 6375.24 3418.96L6370.96 3419.2H6369.29C6366.44 3419.2 6365.01 3418.65 6365.01 3417.54C6364.54 3416.59 6361.44 3391.21 6355.73 3341.42C6349.71 3290.99 6346.62 3265.53 6346.46 3265.06C6345.66 3263.31 6340.75 3262.44 6331.71 3262.44H6327.67C6326.56 3261.65 6326 3260.78 6326 3259.83Z" fill="#132AF4" stroke="#132AF4" stroke-width="15"/>
<path d="M6467.23 3449.65H6466.9C6465.33 3449.65 6464.54 3449.03 6464.54 3447.8C6464.54 3447.35 6464.71 3446.45 6465.05 3445.11C6465.5 3443.54 6465.89 3442.64 6466.22 3442.42C6466.56 3442.19 6467.63 3442.03 6469.42 3441.91C6479.06 3441.58 6486.63 3438.66 6492.12 3433.17C6493.25 3432.05 6499.75 3424.98 6511.63 3411.98C6523.52 3398.97 6529.4 3392.36 6529.29 3392.13C6517.07 3360.96 6510.68 3345.1 6510.12 3344.54C6509.11 3343.3 6505.58 3342.63 6499.52 3342.52H6494.82C6494.14 3341.85 6493.81 3341.4 6493.81 3341.17C6493.81 3340.95 6493.92 3339.89 6494.14 3337.98C6494.59 3336.52 6495.15 3335.46 6495.82 3334.78H6498.18C6501.99 3335.01 6508.77 3335.12 6518.53 3335.12C6522.23 3335.12 6525.65 3335.12 6528.79 3335.12C6531.93 3335.12 6534.45 3335.06 6536.36 3334.95C6538.26 3334.84 6539.38 3334.84 6539.72 3334.95C6541.62 3334.95 6542.58 3335.57 6542.58 3336.8C6542.58 3336.91 6542.47 3337.64 6542.24 3338.99C6541.79 3340.67 6541.4 3341.68 6541.06 3342.02C6540.73 3342.35 6539.83 3342.52 6538.37 3342.52C6534.9 3342.86 6531.87 3343.81 6529.29 3345.38L6542.24 3378.01L6551.15 3368.08C6562.93 3355.41 6568.81 3348.41 6568.81 3347.06C6568.81 3345.04 6567.47 3343.64 6564.78 3342.86C6564.22 3342.86 6563.49 3342.74 6562.59 3342.52C6560.91 3342.52 6560.07 3341.9 6560.07 3340.67C6560.07 3340.45 6560.18 3339.55 6560.4 3337.98C6560.85 3336.52 6561.41 3335.46 6562.09 3334.78H6564.1C6564.22 3334.78 6565.62 3334.78 6568.31 3334.78C6571 3334.78 6574.03 3334.9 6577.39 3335.12C6580.75 3335.34 6583.05 3335.4 6584.29 3335.29C6594.38 3335.29 6599.93 3335.12 6600.94 3334.78H6602.28C6603.07 3335.57 6603.46 3336.19 6603.46 3336.63C6603.23 3339.44 6602.56 3341.4 6601.44 3342.52H6598.75C6594.94 3342.63 6591.52 3343.14 6588.49 3344.03C6585.46 3344.93 6583.16 3345.88 6581.6 3346.89C6580.03 3347.9 6578.68 3348.91 6577.56 3349.92L6575.71 3351.43C6575.71 3351.32 6570.38 3357.15 6559.73 3368.92L6545.1 3385.07C6545.1 3385.18 6546.84 3389.67 6550.31 3398.52C6553.79 3407.38 6557.43 3416.46 6561.25 3425.77C6565.06 3435.07 6567.13 3439.9 6567.47 3440.23C6568.59 3441.24 6572.01 3441.8 6577.73 3441.91C6581.65 3441.91 6583.61 3442.42 6583.61 3443.43C6583.61 3443.65 6583.5 3444.44 6583.28 3445.78C6582.83 3447.58 6582.44 3448.64 6582.1 3448.98C6581.76 3449.31 6580.98 3449.48 6579.75 3449.48C6579.41 3449.48 6577.56 3449.48 6574.2 3449.48C6570.83 3449.48 6565.84 3449.43 6559.23 3449.31C6552.39 3449.31 6547.17 3449.31 6543.59 3449.31C6540 3449.31 6538.04 3449.37 6537.7 3449.48C6535.79 3449.48 6534.84 3448.98 6534.84 3447.97C6534.84 3447.86 6534.95 3447.02 6535.18 3445.45C6535.4 3444.32 6535.63 3443.54 6535.85 3443.09C6536.07 3442.64 6536.36 3442.36 6536.69 3442.25C6537.03 3442.14 6537.53 3442.03 6538.21 3441.91C6538.88 3441.8 6539.77 3441.75 6540.9 3441.75C6542.02 3441.75 6543.47 3441.35 6545.27 3440.57C6547.17 3439.67 6548.13 3439.11 6548.13 3438.89C6548.02 3438.89 6545.38 3432.33 6540.22 3419.21L6532.32 3399.36C6511.24 3422.24 6500.42 3434.29 6499.86 3435.52C6499.41 3436.42 6499.19 3437.09 6499.19 3437.54C6499.19 3439.67 6500.81 3441.07 6504.06 3441.75C6504.18 3441.75 6504.51 3441.75 6505.07 3441.75C6505.63 3441.75 6505.97 3441.8 6506.08 3441.91C6506.42 3441.91 6506.64 3441.91 6506.76 3441.91C6506.87 3441.91 6507.04 3441.97 6507.26 3442.08C6507.48 3442.19 6507.65 3442.36 6507.76 3442.59C6507.88 3442.81 6507.93 3443.2 6507.93 3443.76C6507.93 3444.77 6507.82 3445.67 6507.6 3446.45C6507.26 3447.91 6506.92 3448.75 6506.59 3448.98C6506.25 3449.2 6505.41 3449.37 6504.06 3449.48C6503.73 3449.48 6502.72 3449.48 6501.04 3449.48C6499.36 3449.48 6497 3449.43 6493.97 3449.31C6490.95 3449.2 6487.64 3449.2 6484.05 3449.31C6475.31 3449.31 6469.7 3449.43 6467.23 3449.65Z" fill="#132AF4" stroke="#132AF4" stroke-width="15"/>
<path d="M7773.08 3484.62L10410 3484.62L10394.5 3570.62H10279.2H7773C7773 3570.62 7773.05 3484.62 7773.08 3484.62Z" fill="url(#paint3_linear_254_75)"/>
<ellipse cx="10402.4" cy="3527.61" rx="30.8766" ry="44.5046" transform="rotate(21 10402.4 3527.61)" fill="#07005C"/>
<path d="M10499.9 3463.5H10500C10500 3463.5 10500 3463.49 10499.9 3463.5H10468C10468 3463.5 10467 3485 10528.5 3574C10590 3663 10611 3675 10611 3675V3887L10712 3748C10712 3748 10758 3765.5 10795.5 3765.5C10832.7 3765.5 10859.7 3748.09 10894.7 3725.48L10895.5 3725C10926.3 3705.14 10965 3662 10965 3662V3647.5L10978 3650.5C10978 3650.5 11014.5 3610 11124.2 3469.25C11234 3328.5 11262.5 3297.5 11262.5 3297.5L11264 3390L11326 3243.5L11344.5 3222L11363.5 3209L11381 3199.5C11381 3199.5 11382 3197.5 11400.5 3192.5C11419 3187.5 11419.5 3185 11443.5 3191C11467.5 3197 11469 3196 11491 3206.5C11513 3217 11515 3217.5 11531.5 3227.5C11566.6 3248.79 11610 3297.5 11610 3297.5L11619.5 3268.5L11682 3387.5L11718 3463.5H11751L11695.5 3352.5L11641 3258L11610 3198.5V3255L11575 3222.5L11536.5 3195L11522.5 3188L11508 3181L11494 3175.5L11479.5 3171L11465 3166.5L11454 3163.5L11441 3162L11421 3161L11400.5 3163.5C11400.5 3163.5 11393.5 3164.5 11381 3168.5C11369.5 3172.18 11358.5 3178 11358.5 3178L11342.5 3187L11319 3204L11282.5 3292.5L11307 3212.5C11307 3212.5 11235.5 3266 11091 3460.5C11048.6 3517.51 10978 3603 10978 3603L10925 3532V3660C10925 3660 10910 3681.5 10848 3720C10845.1 3721.79 10828.1 3733.78 10795.5 3735.5C10738.5 3738.5 10689.5 3701 10689.5 3701L10664.5 3721.5V3682.5C10664.5 3682.5 10594 3629.5 10544 3545.5C10497.4 3467.23 10499.4 3463.63 10499.9 3463.5Z" fill="#132AF4"/>
<circle cx="6660" cy="2309" r="42.5" stroke="#132AF4" stroke-width="15"/>
<circle cx="5809" cy="2309" r="42.5" fill="#132AF4" stroke="#132AF4" stroke-width="15"/>
<path d="M6160 2309V2599.63C6160 2599.79 6160 2599.87 6160.05 2599.9C6160.1 2599.93 6160.17 2599.89 6160.31 2599.8L6602.75 2309.17C6602.86 2309.09 6602.92 2309.05 6602.92 2309C6602.92 2308.95 6602.86 2308.91 6602.75 2308.83L6160.31 2018.2C6160.17 2018.11 6160.1 2018.07 6160.05 2018.1C6160 2018.13 6160 2018.21 6160 2018.37V2309ZM6160 2309H5760" stroke="#132AF4" stroke-width="15"/>
<path d="M6709 2309L7773.5 2309.01" stroke="#132AF4" stroke-width="15"/>
<path d="M10469 2357H10624L10674 1592H10941L10991 2357H11257L11307 1592H11573L11635 2357H11751" stroke="#132AF4" stroke-width="30"/>
<path d="M7773.08 2265.62L10410 2265.62L10394.5 2351.62H10279.2H7773C7773 2351.62 7773.05 2265.62 7773.08 2265.62Z" fill="url(#paint4_linear_254_75)"/>
<ellipse cx="10402.4" cy="2308.61" rx="30.8766" ry="44.5046" transform="rotate(21 10402.4 2308.61)" fill="#07005C"/>
<defs>
<linearGradient id="paint0_linear_254_75" x1="3610.68" y1="2103.62" x2="3610.76" y2="2017.62" gradientUnits="userSpaceOnUse">
<stop stop-color="#0BB7EE"/>
<stop offset="1" stop-color="#1B00C4"/>
</linearGradient>
<linearGradient id="paint1_linear_254_75" x1="3610.68" y1="2724" x2="3610.76" y2="2638" gradientUnits="userSpaceOnUse">
<stop stop-color="#0BB7EE"/>
<stop offset="1" stop-color="#1B00C4"/>
</linearGradient>
<linearGradient id="paint2_linear_254_75" x1="9814.68" y1="1107.62" x2="9814.76" y2="1021.62" gradientUnits="userSpaceOnUse">
<stop stop-color="#0BB7EE"/>
<stop offset="1" stop-color="#1B00C4"/>
</linearGradient>
<linearGradient id="paint3_linear_254_75" x1="9814.68" y1="3570.62" x2="9814.76" y2="3484.62" gradientUnits="userSpaceOnUse">
<stop stop-color="#0BB7EE"/>
<stop offset="1" stop-color="#1B00C4"/>
</linearGradient>
<linearGradient id="paint4_linear_254_75" x1="9814.68" y1="2351.62" x2="9814.76" y2="2265.62" gradientUnits="userSpaceOnUse">
<stop stop-color="#0BB7EE"/>
<stop offset="1" stop-color="#1B00C4"/>
</linearGradient>
</defs>
</svg>
