<svg width="566" height="276" viewBox="0 0 566 276" fill="none" xmlns="http://www.w3.org/2000/svg">
<path d="M563.301 233.807L535.33 226.091C535.183 226.051 535.11 226.03 535.069 226.07C535.028 226.111 535.046 226.184 535.083 226.332L537 234L535.083 241.668C535.046 241.816 535.028 241.889 535.069 241.93C535.11 241.97 535.183 241.949 535.33 241.909L563.301 234.193C563.583 234.115 563.724 234.076 563.724 234C563.724 233.924 563.583 233.885 563.301 233.807Z" fill="#132AF4"/>
<path d="M537 234L535.083 241.668C535.046 241.816 535.028 241.889 535.069 241.93C535.11 241.97 535.183 241.949 535.33 241.909L563.301 234.193C563.583 234.115 563.724 234.076 563.724 234C563.724 233.924 563.583 233.885 563.301 233.807L535.33 226.091C535.183 226.051 535.11 226.03 535.069 226.07C535.028 226.111 535.046 226.184 535.083 226.332L537 234ZM537 234H24.2245" stroke="#132AF4" stroke-width="3"/>
<path d="M43.8072 2.6989L36.0911 30.6697C36.0506 30.8167 36.0303 30.8902 36.0704 30.9313C36.1105 30.9724 36.1845 30.9539 36.3324 30.9169L44 28.9999L51.6676 30.9169C51.8155 30.9539 51.8895 30.9724 51.9296 30.9313C51.9697 30.8902 51.9494 30.8167 51.9089 30.6697L44.1928 2.6989C44.115 2.41699 44.0761 2.27605 44 2.27605C43.9239 2.27605 43.885 2.41699 43.8072 2.6989Z" fill="#132AF4"/>
<path d="M44 28.9999L51.6676 30.9169C51.8155 30.9539 51.8895 30.9724 51.9296 30.9313C51.9697 30.8902 51.9494 30.8167 51.9089 30.6697L44.1928 2.69889C44.115 2.41699 44.0761 2.27604 44 2.27604C43.9239 2.27604 43.885 2.41699 43.8072 2.69889L36.0911 30.6697C36.0506 30.8167 36.0303 30.8902 36.0704 30.9313C36.1105 30.9724 36.1845 30.9539 36.3324 30.9169L44 28.9999ZM44 28.9999L44 255.5" stroke="#132AF4" stroke-width="3"/>
<path d="M473 151.032C473 150.6 473.128 150.256 473.383 150.001H473.707C474.532 150.059 475.563 150.089 476.8 150.089C479.117 150.089 480.482 150.059 480.895 150.001H481.189C481.307 150.118 481.366 150.207 481.366 150.266C481.366 150.325 481.346 150.501 481.307 150.796C481.209 151.091 481.121 151.277 481.042 151.356H480.423C479.991 151.395 479.697 151.415 479.54 151.415C478.97 151.513 478.656 151.66 478.597 151.856C478.597 151.896 478.882 154.36 479.451 159.25C480.021 164.14 480.315 166.605 480.335 166.644L482.486 163.198C483.919 160.9 485.353 158.583 486.786 156.246C488.22 153.909 488.956 152.701 488.996 152.622C489.074 152.485 489.114 152.338 489.114 152.18C489.114 151.709 488.682 151.434 487.817 151.356C487.464 151.356 487.287 151.248 487.287 151.032C487.287 151.012 487.307 150.884 487.346 150.649C487.405 150.374 487.464 150.197 487.523 150.118C487.582 150.04 487.709 150.001 487.906 150.001C487.945 150.001 488.063 150.001 488.259 150.001C488.456 150.001 488.79 150.01 489.261 150.03C489.732 150.05 490.361 150.059 491.146 150.059C492.501 150.059 493.356 150.04 493.709 150.001H493.915C494.053 150.138 494.121 150.246 494.121 150.325C494.121 150.658 494.033 150.973 493.856 151.267C493.797 151.326 493.631 151.356 493.356 151.356C493.1 151.375 492.865 151.395 492.649 151.415C492.433 151.434 492.226 151.483 492.03 151.562C491.834 151.64 491.676 151.709 491.559 151.768C491.441 151.827 491.323 151.906 491.205 152.004C491.087 152.102 490.989 152.171 490.911 152.21C490.832 152.249 490.753 152.338 490.675 152.475C490.596 152.613 490.528 152.681 490.469 152.681L484.783 161.813C481.248 167.528 479.422 170.454 479.304 170.592C479.245 170.631 479.176 170.68 479.098 170.739L478.568 170.769H478.361C478.008 170.769 477.831 170.7 477.831 170.562C477.772 170.445 477.389 167.302 476.682 161.136C475.936 154.891 475.553 151.739 475.533 151.68C475.435 151.464 474.826 151.356 473.707 151.356H473.206C473.069 151.257 473 151.149 473 151.032Z" fill="#132AF4" stroke="#132AF4" stroke-width="2"/>
<path d="M490.656 169.29C490.656 167.694 491.121 166.16 492.051 164.688C492.981 163.216 494.155 162.05 495.571 161.189C496.987 160.328 498.403 159.891 499.82 159.877C501.069 159.877 502.062 160.231 502.798 160.939C502.923 161.078 503.027 161.196 503.11 161.293C503.194 161.39 503.249 161.46 503.277 161.501L503.298 161.564C503.339 161.564 503.527 161.383 503.86 161.022C503.957 160.939 504.061 160.842 504.172 160.731C504.283 160.62 504.395 160.508 504.506 160.397C504.617 160.286 504.686 160.21 504.714 160.168L505.026 159.856H505.151C505.346 159.856 505.443 159.905 505.443 160.002C505.443 160.057 505.221 161.008 504.776 162.855C504.277 164.785 504.027 165.757 504.027 165.771C503.999 165.84 503.964 165.882 503.922 165.896C503.881 165.91 503.756 165.923 503.548 165.937H503.214C503.131 165.854 503.089 165.792 503.089 165.75C503.089 165.736 503.096 165.687 503.11 165.604C503.124 165.521 503.138 165.382 503.152 165.188C503.166 164.993 503.173 164.771 503.173 164.521C503.173 163.535 502.951 162.674 502.506 161.939C502.062 161.203 501.305 160.828 500.236 160.814C499.986 160.814 499.715 160.835 499.424 160.876C499.132 160.918 498.764 161.008 498.32 161.147C497.876 161.286 497.452 161.48 497.05 161.73C496.647 161.98 496.21 162.313 495.738 162.73C495.265 163.147 494.863 163.639 494.53 164.209C494.196 164.778 493.87 165.486 493.551 166.333C493.231 167.18 493.016 168.11 492.905 169.124C492.877 169.374 492.863 169.645 492.863 169.936C492.863 170.603 492.961 171.193 493.155 171.706C493.349 172.22 493.599 172.616 493.905 172.894C494.21 173.171 494.557 173.407 494.946 173.602C495.335 173.796 495.696 173.914 496.029 173.956C496.362 173.997 496.675 174.025 496.966 174.039C497.716 174.039 498.403 173.879 499.028 173.56C499.653 173.241 500.083 172.831 500.319 172.331C500.361 172.22 500.465 171.838 500.632 171.186C500.798 170.533 500.882 170.165 500.882 170.082C500.882 169.971 500.792 169.901 500.611 169.874C500.431 169.846 500.014 169.825 499.361 169.811H498.591C498.508 169.728 498.466 169.672 498.466 169.645C498.466 169.617 498.48 169.485 498.508 169.249C498.563 169.068 498.632 168.936 498.716 168.853H499.07C499.625 168.881 500.597 168.895 501.986 168.895C502.541 168.895 502.992 168.895 503.339 168.895C503.686 168.895 503.936 168.888 504.089 168.874C504.242 168.86 504.325 168.86 504.339 168.874C504.533 168.874 504.631 168.936 504.631 169.061C504.631 169.089 504.617 169.186 504.589 169.353C504.52 169.617 504.45 169.763 504.381 169.79C504.339 169.804 504.235 169.811 504.068 169.811C503.791 169.811 503.506 169.832 503.214 169.874C503.117 169.915 503.048 169.978 503.006 170.061C502.964 170.144 502.867 170.498 502.715 171.123C502.59 171.581 502.485 171.97 502.402 172.29C502.055 173.706 501.861 174.435 501.819 174.476C501.791 174.504 501.756 174.518 501.715 174.518C501.576 174.518 501.382 174.379 501.132 174.102C500.882 173.824 500.722 173.609 500.653 173.456C500.653 173.442 500.639 173.442 500.611 173.456C500.583 173.47 500.542 173.504 500.486 173.56C499.459 174.518 498.07 174.997 496.321 174.997C494.641 174.997 493.28 174.463 492.239 173.393C491.197 172.324 490.67 170.957 490.656 169.29Z" fill="#132AF4" stroke="#132AF4" stroke-width="2"/>
<path d="M512.399 174.039C513.218 174.039 513.968 173.678 514.648 172.956C515.329 172.234 515.676 171.394 515.69 170.436C515.69 169.561 515.329 168.957 514.607 168.624C513.135 168.249 512.191 167.992 511.774 167.853C511.358 167.715 511.066 167.576 510.9 167.437C510.066 166.854 509.65 166.014 509.65 164.917C509.65 164.07 509.872 163.299 510.316 162.605C510.761 161.911 511.212 161.39 511.67 161.043C512.073 160.696 512.559 160.418 513.128 160.21C513.697 160.002 514.142 159.891 514.461 159.877H514.69H514.836C516.169 159.877 517.134 160.321 517.731 161.21C517.745 161.21 517.835 161.119 518.002 160.939C518.168 160.758 518.349 160.557 518.543 160.335C518.737 160.113 518.876 159.96 518.96 159.877C518.973 159.877 519.001 159.877 519.043 159.877C519.085 159.877 519.119 159.87 519.147 159.856C519.327 159.856 519.418 159.905 519.418 160.002C519.418 160.099 519.223 160.939 518.835 162.522C518.446 164.105 518.224 164.924 518.168 164.979C518.113 165.035 518.002 165.056 517.835 165.042C517.557 165.042 517.418 164.979 517.418 164.854C517.418 164.771 517.425 164.702 517.439 164.646C517.439 164.604 517.446 164.473 517.46 164.25C517.474 164.028 517.488 163.848 517.502 163.709C517.502 163.237 517.439 162.827 517.314 162.48C517.189 162.133 517.064 161.876 516.939 161.71C516.814 161.543 516.641 161.369 516.419 161.189C515.919 160.897 515.35 160.751 514.711 160.751C513.919 160.751 513.184 161.071 512.503 161.71C511.823 162.348 511.476 163.084 511.462 163.917C511.462 164.334 511.566 164.695 511.774 165C511.983 165.306 512.267 165.521 512.628 165.646C512.684 165.674 513.17 165.805 514.086 166.042C515.002 166.278 515.468 166.403 515.481 166.416C515.954 166.569 516.412 166.902 516.856 167.416C517.3 167.93 517.522 168.624 517.522 169.499C517.522 169.86 517.467 170.249 517.356 170.665C517.286 170.971 517.161 171.311 516.981 171.686C516.8 172.06 516.551 172.47 516.231 172.914C515.912 173.359 515.454 173.775 514.857 174.164C514.26 174.553 513.607 174.817 512.899 174.955C512.732 174.983 512.496 174.997 512.191 174.997C510.816 174.997 509.747 174.615 508.983 173.852L508.775 173.622L508.192 174.268C507.873 174.643 507.678 174.858 507.609 174.914C507.539 174.969 507.449 174.997 507.338 174.997C507.158 174.997 507.067 174.942 507.067 174.83C507.067 174.789 507.47 173.157 508.275 169.936C508.303 169.853 508.442 169.811 508.692 169.811H508.963C509.046 169.894 509.088 169.971 509.088 170.04C509.088 170.068 509.081 170.131 509.067 170.228C509.053 170.325 509.025 170.471 508.983 170.665C508.942 170.859 508.928 171.089 508.942 171.352C508.97 171.894 509.095 172.352 509.317 172.727C509.539 173.102 509.837 173.38 510.212 173.56C510.587 173.741 510.948 173.865 511.295 173.935C511.642 174.004 512.01 174.039 512.399 174.039Z" fill="#132AF4" stroke="#132AF4" stroke-width="2"/>
<path d="M523.854 162.501L523.583 162.605C523.389 162.675 523.111 162.744 522.75 162.814C522.389 162.883 521.986 162.932 521.542 162.959H521.146V162.001H521.542C522.195 161.973 522.799 161.869 523.354 161.689C523.909 161.508 524.298 161.342 524.52 161.189C524.742 161.036 524.937 160.884 525.103 160.731C525.131 160.689 525.215 160.668 525.353 160.668C525.478 160.668 525.596 160.71 525.707 160.793V167.021L525.728 173.269C525.825 173.366 525.909 173.428 525.978 173.456C526.048 173.484 526.214 173.512 526.478 173.539C526.742 173.567 527.172 173.581 527.769 173.581H528.311V174.539H528.082C527.79 174.497 526.686 174.477 524.77 174.477C522.882 174.477 521.792 174.497 521.5 174.539H521.25V173.581H521.792C522.097 173.581 522.361 173.581 522.583 173.581C522.806 173.581 522.979 173.574 523.104 173.56C523.229 173.546 523.34 173.525 523.437 173.498C523.535 173.47 523.59 173.456 523.604 173.456C523.618 173.456 523.659 173.421 523.729 173.352C523.798 173.283 523.84 173.255 523.854 173.269V162.501Z" fill="#132AF4" stroke="#132AF4" stroke-width="2"/>
<path d="M473 48.0316C473 47.5996 473.128 47.2559 473.383 47.0006H473.707C474.532 47.0595 475.563 47.0889 476.8 47.0889C479.117 47.0889 480.482 47.0595 480.895 47.0006H481.189C481.307 47.1184 481.366 47.2068 481.366 47.2657C481.366 47.3246 481.346 47.5014 481.307 47.7959C481.209 48.0905 481.121 48.2771 481.042 48.3556H480.423C479.991 48.3949 479.697 48.4146 479.54 48.4146C478.97 48.5128 478.656 48.66 478.597 48.8564C478.597 48.8957 478.882 51.3604 479.451 56.2504C480.021 61.1405 480.315 63.6051 480.335 63.6444L482.486 60.1978C483.919 57.9001 485.353 55.5827 486.786 53.2457C488.22 50.9087 488.956 49.7009 488.996 49.6223C489.074 49.4849 489.114 49.3376 489.114 49.1805C489.114 48.7091 488.682 48.4342 487.817 48.3556C487.464 48.3556 487.287 48.2476 487.287 48.0316C487.287 48.012 487.307 47.8843 487.346 47.6486C487.405 47.3737 487.464 47.197 487.523 47.1184C487.582 47.0398 487.709 47.0006 487.906 47.0006C487.945 47.0006 488.063 47.0006 488.259 47.0006C488.456 47.0006 488.79 47.0104 489.261 47.03C489.732 47.0497 490.361 47.0595 491.146 47.0595C492.501 47.0595 493.356 47.0398 493.709 47.0006H493.915C494.053 47.138 494.121 47.2461 494.121 47.3246C494.121 47.6585 494.033 47.9727 493.856 48.2673C493.797 48.3262 493.631 48.3556 493.356 48.3556C493.1 48.3753 492.865 48.3949 492.649 48.4146C492.433 48.4342 492.226 48.4833 492.03 48.5619C491.834 48.6404 491.676 48.7091 491.559 48.7681C491.441 48.827 491.323 48.9055 491.205 49.0037C491.087 49.1019 490.989 49.1707 490.911 49.2099C490.832 49.2492 490.753 49.3376 490.675 49.4751C490.596 49.6125 490.528 49.6813 490.469 49.6813L484.783 58.8133C481.248 64.5282 479.422 67.4543 479.304 67.5918C479.245 67.6311 479.176 67.6802 479.098 67.7391L478.568 67.7686H478.361C478.008 67.7686 477.831 67.6998 477.831 67.5623C477.772 67.4445 477.389 64.3023 476.682 58.1357C475.936 51.8906 475.553 48.7386 475.533 48.6797C475.435 48.4637 474.826 48.3556 473.707 48.3556H473.206C473.069 48.2575 473 48.1494 473 48.0316Z" fill="#132AF4" stroke="#132AF4" stroke-width="2"/>
<path d="M490.656 66.2905C490.656 64.6938 491.121 63.1595 492.051 61.6878C492.981 60.216 494.155 59.0497 495.571 58.1888C496.987 57.328 498.403 56.8906 499.82 56.8767C501.069 56.8767 502.062 57.2308 502.798 57.9389C502.923 58.0778 503.027 58.1958 503.11 58.293C503.194 58.3902 503.249 58.4596 503.277 58.5012L503.298 58.5637C503.339 58.5637 503.527 58.3832 503.86 58.0222C503.957 57.9389 504.061 57.8417 504.172 57.7306C504.283 57.6196 504.395 57.5085 504.506 57.3974C504.617 57.2863 504.686 57.21 504.714 57.1683L505.026 56.8559H505.151C505.346 56.8559 505.443 56.9045 505.443 57.0017C505.443 57.0572 505.221 58.0083 504.776 59.855C504.277 61.7849 504.027 62.7569 504.027 62.7708C503.999 62.8402 503.964 62.8818 503.922 62.8957C503.881 62.9096 503.756 62.9235 503.548 62.9374H503.214C503.131 62.8541 503.089 62.7916 503.089 62.7499C503.089 62.736 503.096 62.6874 503.11 62.6041C503.124 62.5208 503.138 62.382 503.152 62.1876C503.166 61.9932 503.173 61.7711 503.173 61.5211C503.173 60.5353 502.951 59.6745 502.506 58.9386C502.062 58.2027 501.305 57.8278 500.236 57.814C499.986 57.814 499.715 57.8348 499.424 57.8764C499.132 57.9181 498.764 58.0083 498.32 58.1472C497.876 58.286 497.452 58.4804 497.05 58.7303C496.647 58.9803 496.21 59.3135 495.738 59.73C495.265 60.1466 494.863 60.6395 494.53 61.2087C494.196 61.778 493.87 62.4861 493.551 63.3331C493.231 64.18 493.016 65.1103 492.905 66.1239C492.877 66.3738 492.863 66.6446 492.863 66.9361C492.863 67.6026 492.961 68.1927 493.155 68.7064C493.349 69.2202 493.599 69.6159 493.905 69.8936C494.21 70.1712 494.557 70.4073 494.946 70.6017C495.335 70.7961 495.696 70.9141 496.029 70.9557C496.362 70.9974 496.675 71.0251 496.966 71.039C497.716 71.039 498.403 70.8794 499.028 70.56C499.653 70.2407 500.083 69.8311 500.319 69.3312C500.361 69.2202 500.465 68.8383 500.632 68.1857C500.798 67.5332 500.882 67.1652 500.882 67.0819C500.882 66.9708 500.792 66.9014 500.611 66.8737C500.431 66.8459 500.014 66.8251 499.361 66.8112H498.591C498.508 66.7279 498.466 66.6723 498.466 66.6446C498.466 66.6168 498.48 66.4849 498.508 66.2488C498.563 66.0683 498.632 65.9364 498.716 65.8531H499.07C499.625 65.8809 500.597 65.8948 501.986 65.8948C502.541 65.8948 502.992 65.8948 503.339 65.8948C503.686 65.8948 503.936 65.8878 504.089 65.874C504.242 65.8601 504.325 65.8601 504.339 65.874C504.533 65.874 504.631 65.9364 504.631 66.0614C504.631 66.0892 504.617 66.1864 504.589 66.353C504.52 66.6168 504.45 66.7626 504.381 66.7903C504.339 66.8042 504.235 66.8112 504.068 66.8112C503.791 66.8112 503.506 66.832 503.214 66.8737C503.117 66.9153 503.048 66.9778 503.006 67.0611C502.964 67.1444 502.867 67.4985 502.715 68.1233C502.59 68.5815 502.485 68.9702 502.402 69.2896C502.055 70.7058 501.861 71.4347 501.819 71.4764C501.791 71.5042 501.756 71.5181 501.715 71.5181C501.576 71.5181 501.382 71.3792 501.132 71.1015C500.882 70.8238 500.722 70.6086 500.653 70.4559C500.653 70.442 500.639 70.442 500.611 70.4559C500.583 70.4698 500.542 70.5045 500.486 70.56C499.459 71.5181 498.07 71.9971 496.321 71.9971C494.641 71.9971 493.28 71.4625 492.239 70.3934C491.197 69.3243 490.67 67.9567 490.656 66.2905Z" fill="#132AF4" stroke="#132AF4" stroke-width="2"/>
<path d="M512.399 71.039C513.218 71.039 513.968 70.678 514.648 69.956C515.329 69.234 515.676 68.394 515.69 67.436C515.69 66.5612 515.329 65.9573 514.607 65.624C513.135 65.2492 512.191 64.9923 511.774 64.8534C511.358 64.7146 511.066 64.5758 510.9 64.4369C510.066 63.8538 509.65 63.0137 509.65 61.9169C509.65 61.0699 509.872 60.2993 510.316 59.6051C510.761 58.9108 511.212 58.3902 511.67 58.043C512.073 57.6959 512.559 57.4182 513.128 57.21C513.697 57.0017 514.142 56.8906 514.461 56.8767H514.69H514.836C516.169 56.8767 517.134 57.321 517.731 58.2097C517.745 58.2097 517.835 58.1194 518.002 57.9389C518.168 57.7584 518.349 57.5571 518.543 57.3349C518.737 57.1128 518.876 56.96 518.96 56.8767C518.973 56.8767 519.001 56.8767 519.043 56.8767C519.085 56.8767 519.119 56.8698 519.147 56.8559C519.327 56.8559 519.418 56.9045 519.418 57.0017C519.418 57.0989 519.223 57.9389 518.835 59.5218C518.446 61.1046 518.224 61.9238 518.168 61.9793C518.113 62.0349 518.002 62.0557 517.835 62.0418C517.557 62.0418 517.418 61.9793 517.418 61.8544C517.418 61.7711 517.425 61.7016 517.439 61.6461C517.439 61.6044 517.446 61.4725 517.46 61.2504C517.474 61.0282 517.488 60.8477 517.502 60.7089C517.502 60.2368 517.439 59.8272 517.314 59.4801C517.189 59.133 517.064 58.8761 516.939 58.7095C516.814 58.5429 516.641 58.3693 516.419 58.1888C515.919 57.8973 515.35 57.7515 514.711 57.7515C513.919 57.7515 513.184 58.0708 512.503 58.7095C511.823 59.3482 511.476 60.0841 511.462 60.9172C511.462 61.3337 511.566 61.6947 511.774 62.0002C511.983 62.3056 512.267 62.5208 512.628 62.6458C512.684 62.6736 513.17 62.8055 514.086 63.0415C515.002 63.2775 515.468 63.4025 515.481 63.4164C515.954 63.5691 516.412 63.9023 516.856 64.4161C517.3 64.9298 517.522 65.624 517.522 66.4988C517.522 66.8598 517.467 67.2485 517.356 67.6651C517.286 67.9705 517.161 68.3107 516.981 68.6856C516.8 69.0605 516.551 69.4701 516.231 69.9144C515.912 70.3587 515.454 70.7752 514.857 71.164C514.26 71.5528 513.607 71.8166 512.899 71.9554C512.732 71.9832 512.496 71.9971 512.191 71.9971C510.816 71.9971 509.747 71.6152 508.983 70.8516L508.775 70.6225L508.192 71.2681C507.873 71.643 507.678 71.8582 507.609 71.9138C507.539 71.9693 507.449 71.9971 507.338 71.9971C507.158 71.9971 507.067 71.9415 507.067 71.8305C507.067 71.7888 507.47 70.1574 508.275 66.9361C508.303 66.8528 508.442 66.8112 508.692 66.8112H508.963C509.046 66.8945 509.088 66.9708 509.088 67.0403C509.088 67.068 509.081 67.1305 509.067 67.2277C509.053 67.3249 509.025 67.4707 508.983 67.6651C508.942 67.8595 508.928 68.0886 508.942 68.3524C508.97 68.8939 509.095 69.3521 509.317 69.7269C509.539 70.1018 509.837 70.3795 510.212 70.56C510.587 70.7405 510.948 70.8655 511.295 70.9349C511.642 71.0043 512.01 71.039 512.399 71.039Z" fill="#132AF4" stroke="#132AF4" stroke-width="2"/>
<path d="M521.688 62.6043C521.313 62.6043 521.014 62.4794 520.792 62.2294C520.57 61.9795 520.459 61.6741 520.459 61.3131C520.459 60.3272 520.827 59.4733 521.563 58.7513C522.299 58.0293 523.215 57.6683 524.312 57.6683C525.576 57.6683 526.631 58.0571 527.478 58.8347C528.325 59.6122 528.755 60.6188 528.769 61.8546C528.769 62.4516 528.63 63.0209 528.353 63.5624C528.075 64.1039 527.742 64.5759 527.353 64.9786C526.964 65.3812 526.409 65.895 525.687 66.5198C525.187 66.9502 524.493 67.5889 523.604 68.4359L522.375 69.6022L523.958 69.623C526.138 69.623 527.297 69.5883 527.436 69.5189C527.533 69.4911 527.7 68.8732 527.936 67.6653V67.6028H528.769V67.6653C528.755 67.7069 528.665 68.3387 528.498 69.5605C528.332 70.7824 528.228 71.421 528.186 71.4766V71.5391H520.459V71.1434V70.8934C520.459 70.7962 520.501 70.6921 520.584 70.581C520.667 70.4699 520.876 70.227 521.209 69.8521C521.612 69.4078 521.959 69.019 522.25 68.6858C522.375 68.5469 522.611 68.2901 522.958 67.9152C523.305 67.5403 523.541 67.2834 523.666 67.1446C523.791 67.0057 523.993 66.7766 524.27 66.4573C524.548 66.138 524.743 65.9019 524.854 65.7492C524.965 65.5965 525.124 65.3882 525.333 65.1244C525.541 64.8606 525.687 64.6384 525.77 64.4579C525.853 64.2774 525.957 64.0761 526.082 63.8539C526.207 63.6318 526.298 63.4096 526.353 63.1875C526.409 62.9653 526.457 62.7571 526.499 62.5627C526.541 62.3683 526.561 62.1392 526.561 61.8754C526.561 61.0007 526.325 60.2439 525.853 59.6052C525.381 58.9666 524.708 58.6472 523.833 58.6472C523.375 58.6472 522.972 58.7652 522.625 59.0013C522.278 59.2373 522.035 59.4664 521.896 59.6886C521.757 59.9107 521.688 60.0426 521.688 60.0843C521.688 60.0982 521.723 60.1051 521.792 60.1051C522.042 60.1051 522.299 60.2023 522.563 60.3967C522.826 60.5911 522.958 60.9104 522.958 61.3547C522.958 61.7018 522.847 61.9934 522.625 62.2294C522.403 62.4655 522.091 62.5904 521.688 62.6043Z" fill="#132AF4" stroke="#132AF4" stroke-width="2"/>
<path d="M1.50079 22.0907C1.16693 22.0907 1 22.0023 1 21.8255C1 21.7863 1.02946 21.6488 1.08837 21.4131C1.18657 21.04 1.28476 20.8338 1.38296 20.7945C1.44187 20.7749 1.58916 20.765 1.82483 20.765H2.00158C3.1799 20.765 3.92617 20.6963 4.24039 20.5588C4.26003 20.5588 4.27967 20.549 4.29931 20.5294C4.3975 20.4901 4.50552 20.2643 4.62335 19.8518C4.74118 19.4394 5.22233 17.5148 6.0668 14.078C6.30246 13.1943 6.47921 12.4971 6.59704 11.9865C7.97176 6.48767 8.65911 3.7186 8.65911 3.67933C8.61984 3.60077 8.6002 3.55167 8.6002 3.53204C8.40381 3.4142 7.70663 3.35529 6.50867 3.35529H5.91951C5.74276 3.23745 5.70348 2.99197 5.80168 2.61883C5.88023 2.32425 5.93915 2.1475 5.97842 2.08859C6.0177 2.02967 6.15517 2.00021 6.39084 2.00021H6.50867C7.92266 2.03949 9.35629 2.05913 10.8096 2.05913C13.2055 2.05913 14.4624 2.03949 14.5802 2.00021H14.8748C15.0123 2.13768 15.081 2.2457 15.081 2.32425C15.081 2.40281 15.0515 2.56974 14.9926 2.82504C14.9337 3.08034 14.865 3.23745 14.7864 3.29637C14.7275 3.33565 14.5016 3.35529 14.1089 3.35529C13.5001 3.35529 12.8716 3.38474 12.2235 3.44366C11.9486 3.50258 11.762 3.61059 11.6638 3.7677C11.5264 4.04264 11.0256 5.91814 10.1615 9.3942C9.94545 10.3172 9.72943 11.2108 9.5134 12.0749C8.13869 17.4952 7.45133 20.2643 7.45133 20.3821C7.45133 20.5196 7.54952 20.6079 7.74591 20.6472C7.9423 20.6865 8.45291 20.7258 9.27773 20.765H10.2204C10.3382 20.9222 10.3971 21.0105 10.3971 21.0302C10.3971 21.0498 10.3677 21.2266 10.3088 21.5604C10.2302 21.8157 10.132 22.0023 10.0142 22.1201H9.54286C8.81622 22.0808 7.47097 22.0612 5.50709 22.0612C4.8001 22.0612 4.15202 22.0612 3.56286 22.0612C2.97369 22.0612 2.50236 22.0612 2.14887 22.0612C1.79537 22.0612 1.57934 22.071 1.50079 22.0907Z" fill="#132AF4" stroke="#132AF4" stroke-width="2"/>
<path d="M20.1451 13.4598C20.1451 13.3626 19.7494 13.3001 18.958 13.2723C18.6387 13.2723 18.4304 13.2654 18.3332 13.2515C18.236 13.2376 18.1874 13.1751 18.1874 13.0641C18.1874 12.953 18.2152 12.8141 18.2707 12.6475C18.3263 12.4809 18.3748 12.3768 18.4165 12.3351C18.4443 12.3212 19.8258 12.3143 22.5611 12.3143C24.8798 12.3282 26.178 12.3351 26.4557 12.3351C26.7334 12.3351 27.0111 12.3768 27.2888 12.4601C28.2885 12.6961 29.1354 13.2446 29.8296 14.1054C30.5239 14.9662 30.8779 16.1187 30.8918 17.5627C30.8918 19.7287 30.149 21.6725 28.6633 23.3942C27.1777 25.1159 25.4282 26.1434 23.415 26.4766L23.1234 26.5182L19.083 26.5391H16.7712H15.6674C15.3341 26.5391 15.1189 26.5252 15.0217 26.4974C14.9245 26.4696 14.869 26.4072 14.8551 26.31C14.8551 26.2822 14.8759 26.185 14.9176 26.0184C14.9731 25.7962 15.0287 25.6713 15.0842 25.6435C15.1397 25.6157 15.2994 25.5949 15.5632 25.581C15.9381 25.581 16.3546 25.5602 16.8128 25.5185C17.0072 25.4769 17.1391 25.3936 17.2085 25.2686C17.2502 25.2131 17.75 23.2831 18.7081 19.4787C19.6661 15.6744 20.1451 13.668 20.1451 13.4598ZM28.8091 16.7712C28.8091 16.2436 28.7328 15.7716 28.58 15.355C28.4273 14.9385 28.2468 14.6122 28.0385 14.3762C27.8303 14.1401 27.5734 13.9388 27.2679 13.7722C26.9625 13.6056 26.6917 13.4945 26.4557 13.4389C26.2196 13.3834 25.9767 13.3348 25.7267 13.2932C25.699 13.2932 25.6018 13.2932 25.4352 13.2932C25.2686 13.2932 25.0672 13.2932 24.8312 13.2932C24.5951 13.2932 24.3661 13.2862 24.1439 13.2723H23.2483C22.6374 13.2723 22.2903 13.3418 22.207 13.4806C22.1792 13.5361 21.6724 15.5355 20.6866 19.4787C19.7008 23.422 19.2079 25.4144 19.2079 25.4561C19.2079 25.5116 19.2843 25.5394 19.437 25.5394C19.5898 25.5394 20.1243 25.5463 21.0407 25.5602C21.1101 25.5602 21.242 25.5602 21.4364 25.5602C21.6308 25.5602 21.7974 25.5671 21.9362 25.581C23.6857 25.581 25.1297 25.0118 26.2682 23.8732C26.7681 23.3734 27.1777 22.7902 27.497 22.1238C27.8164 21.4573 28.1149 20.5756 28.3926 19.4787C28.6703 18.3819 28.8091 17.4794 28.8091 16.7712Z" fill="#132AF4" stroke="#132AF4" stroke-width="2"/>
<path d="M517 251.031C517 250.599 517.128 250.255 517.383 250H517.707C518.532 250.059 519.563 250.088 520.801 250.088C523.118 250.088 524.483 250.059 524.896 250H525.19C525.308 250.118 525.367 250.206 525.367 250.265C525.367 250.324 525.348 250.501 525.308 250.795C525.21 251.09 525.122 251.277 525.043 251.355H524.424C523.992 251.394 523.698 251.414 523.541 251.414C522.971 251.512 522.657 251.66 522.598 251.856C522.598 251.895 522.883 254.36 523.452 259.251C524.022 264.142 524.316 266.607 524.336 266.646L526.487 263.199C527.921 260.901 529.354 258.583 530.788 256.246C532.222 253.908 532.959 252.701 532.998 252.622C533.076 252.484 533.116 252.337 533.116 252.18C533.116 251.709 532.684 251.434 531.819 251.355C531.466 251.355 531.289 251.247 531.289 251.031C531.289 251.011 531.309 250.884 531.348 250.648C531.407 250.373 531.466 250.196 531.525 250.118C531.584 250.039 531.711 250 531.908 250C531.947 250 532.065 250 532.261 250C532.458 250 532.792 250.01 533.263 250.029C533.734 250.049 534.363 250.059 535.149 250.059C536.504 250.059 537.358 250.039 537.712 250H537.918C538.055 250.137 538.124 250.245 538.124 250.324C538.124 250.658 538.036 250.972 537.859 251.267C537.8 251.326 537.633 251.355 537.358 251.355C537.103 251.375 536.867 251.394 536.651 251.414C536.435 251.434 536.229 251.483 536.032 251.561C535.836 251.64 535.679 251.709 535.561 251.768C535.443 251.827 535.325 251.905 535.207 252.003C535.09 252.101 534.991 252.17 534.913 252.21C534.834 252.249 534.756 252.337 534.677 252.475C534.599 252.612 534.53 252.681 534.471 252.681L528.785 261.814C525.249 267.53 523.423 270.456 523.305 270.594C523.246 270.633 523.177 270.682 523.099 270.741L522.568 270.771H522.362C522.009 270.771 521.832 270.702 521.832 270.564C521.773 270.446 521.39 267.304 520.683 261.136C519.936 254.891 519.553 251.738 519.534 251.679C519.436 251.463 518.827 251.355 517.707 251.355H517.206C517.069 251.257 517 251.149 517 251.031Z" fill="#132AF4" stroke="#132AF4" stroke-width="2"/>
<path d="M539.595 261.461C539.595 261.364 539.199 261.301 538.408 261.274C538.088 261.274 537.88 261.267 537.783 261.253C537.686 261.239 537.637 261.176 537.637 261.065C537.637 260.954 537.665 260.815 537.72 260.649C537.776 260.482 537.824 260.378 537.866 260.336C537.894 260.322 539.276 260.315 542.011 260.315C544.33 260.329 545.629 260.336 545.906 260.336C546.184 260.336 546.462 260.378 546.739 260.461C547.739 260.697 548.586 261.246 549.281 262.107C549.975 262.968 550.329 264.12 550.343 265.564C550.343 267.731 549.6 269.675 548.114 271.397C546.628 273.119 544.879 274.146 542.865 274.48L542.574 274.521L538.533 274.542H536.221H535.117C534.783 274.542 534.568 274.528 534.471 274.5C534.374 274.473 534.318 274.41 534.304 274.313C534.304 274.285 534.325 274.188 534.367 274.021C534.422 273.799 534.478 273.674 534.533 273.646C534.589 273.619 534.749 273.598 535.012 273.584C535.387 273.584 535.804 273.563 536.262 273.521C536.457 273.48 536.589 273.396 536.658 273.271C536.7 273.216 537.2 271.286 538.158 267.481C539.116 263.676 539.595 261.669 539.595 261.461ZM548.26 264.773C548.26 264.245 548.184 263.773 548.031 263.357C547.878 262.94 547.698 262.614 547.489 262.378C547.281 262.141 547.024 261.94 546.719 261.773C546.413 261.607 546.142 261.496 545.906 261.44C545.67 261.385 545.427 261.336 545.177 261.294C545.149 261.294 545.052 261.294 544.886 261.294C544.719 261.294 544.518 261.294 544.282 261.294C544.045 261.294 543.816 261.287 543.594 261.274H542.699C542.088 261.274 541.74 261.343 541.657 261.482C541.629 261.537 541.122 263.537 540.136 267.481C539.151 271.425 538.658 273.417 538.658 273.459C538.658 273.514 538.734 273.542 538.887 273.542C539.039 273.542 539.574 273.549 540.491 273.563C540.56 273.563 540.692 273.563 540.886 273.563C541.081 273.563 541.247 273.57 541.386 273.584C543.136 273.584 544.58 273.014 545.719 271.876C546.219 271.376 546.628 270.793 546.948 270.126C547.267 269.46 547.566 268.578 547.843 267.481C548.121 266.384 548.26 265.481 548.26 264.773Z" fill="#132AF4" stroke="#132AF4" stroke-width="2"/>
<path d="M557.279 274.042C558.098 274.042 558.848 273.681 559.529 272.959C560.209 272.237 560.556 271.396 560.57 270.438C560.57 269.563 560.209 268.959 559.487 268.626C558.015 268.251 557.071 267.994 556.654 267.855C556.238 267.717 555.946 267.578 555.779 267.439C554.946 266.856 554.53 266.016 554.53 264.918C554.53 264.071 554.752 263.301 555.196 262.606C555.641 261.912 556.092 261.391 556.55 261.044C556.953 260.697 557.439 260.419 558.008 260.211C558.578 260.003 559.022 259.892 559.341 259.878H559.57H559.716C561.049 259.878 562.014 260.322 562.612 261.211C562.625 261.211 562.716 261.121 562.882 260.94C563.049 260.76 563.229 260.558 563.424 260.336C563.618 260.114 563.757 259.961 563.84 259.878C563.854 259.878 563.882 259.878 563.924 259.878C563.965 259.878 564 259.871 564.028 259.857C564.208 259.857 564.299 259.906 564.299 260.003C564.299 260.1 564.104 260.94 563.715 262.523C563.327 264.106 563.104 264.925 563.049 264.981C562.993 265.037 562.882 265.057 562.716 265.043C562.438 265.043 562.299 264.981 562.299 264.856C562.299 264.773 562.306 264.703 562.32 264.648C562.32 264.606 562.327 264.474 562.341 264.252C562.355 264.03 562.368 263.849 562.382 263.71C562.382 263.238 562.32 262.829 562.195 262.481C562.07 262.134 561.945 261.877 561.82 261.711C561.695 261.544 561.521 261.371 561.299 261.19C560.799 260.898 560.23 260.753 559.591 260.753C558.8 260.753 558.064 261.072 557.383 261.711C556.703 262.35 556.356 263.085 556.342 263.919C556.342 264.335 556.446 264.696 556.654 265.002C556.863 265.307 557.147 265.523 557.508 265.648C557.564 265.675 558.05 265.807 558.966 266.043C559.883 266.279 560.348 266.404 560.362 266.418C560.834 266.571 561.292 266.904 561.737 267.418C562.181 267.932 562.403 268.626 562.403 269.501C562.403 269.862 562.348 270.251 562.237 270.667C562.167 270.973 562.042 271.313 561.862 271.688C561.681 272.063 561.431 272.473 561.112 272.917C560.792 273.361 560.334 273.778 559.737 274.167C559.14 274.556 558.487 274.819 557.779 274.958C557.612 274.986 557.376 275 557.071 275C555.696 275 554.627 274.618 553.863 273.854L553.655 273.625L553.072 274.271C552.752 274.646 552.558 274.861 552.488 274.917C552.419 274.972 552.329 275 552.218 275C552.037 275 551.947 274.944 551.947 274.833C551.947 274.792 552.349 273.16 553.155 269.938C553.183 269.855 553.322 269.813 553.571 269.813H553.842C553.926 269.897 553.967 269.973 553.967 270.043C553.967 270.07 553.96 270.133 553.946 270.23C553.933 270.327 553.905 270.473 553.863 270.667C553.821 270.862 553.808 271.091 553.821 271.355C553.849 271.896 553.974 272.355 554.196 272.73C554.419 273.105 554.717 273.382 555.092 273.563C555.467 273.743 555.828 273.868 556.175 273.938C556.522 274.007 556.89 274.042 557.279 274.042Z" fill="#132AF4" stroke="#132AF4" stroke-width="2"/>
<path d="M44.0002 234.001C44.0002 234.001 60.5003 193.996 119 177.999C177.5 162.002 457 162.001 457 162.001" stroke="#132AF4" stroke-width="3"/>
<path d="M44 234C44 234 103.5 109.5 156.5 92C209.5 74.5 458 53.5 458 53.5" stroke="#132AF4" stroke-width="3"/>
<path d="M126 177H456" stroke="#132AF4" stroke-width="3" stroke-dasharray="6 6"/>
<path d="M157 92H456" stroke="#132AF4" stroke-width="3" stroke-dasharray="6 6"/>
</svg>
