<svg width="1559" height="353" viewBox="0 0 1559 353" fill="none" xmlns="http://www.w3.org/2000/svg">
<path d="M1552.3 252.807L1524.33 245.091C1524.18 245.051 1524.11 245.03 1524.07 245.07C1524.03 245.111 1524.05 245.184 1524.08 245.332L1526 253L1524.08 260.668C1524.05 260.816 1524.03 260.889 1524.07 260.93C1524.11 260.97 1524.18 260.949 1524.33 260.909L1552.3 253.193C1552.58 253.115 1552.72 253.076 1552.72 253C1552.72 252.924 1552.58 252.885 1552.3 252.807Z" fill="#132AF4"/>
<path d="M1526 253L1524.08 260.668C1524.05 260.816 1524.03 260.889 1524.07 260.93C1524.11 260.97 1524.18 260.949 1524.33 260.909L1552.3 253.193C1552.58 253.115 1552.72 253.076 1552.72 253C1552.72 252.924 1552.58 252.885 1552.3 252.807L1524.33 245.091C1524.18 245.051 1524.11 245.03 1524.07 245.07C1524.03 245.111 1524.05 245.184 1524.08 245.332L1526 253ZM1526 253H1123" stroke="#132AF4" stroke-width="4"/>
<path d="M1146.81 2.69888L1139.09 30.6697C1139.05 30.8167 1139.03 30.8902 1139.07 30.9313C1139.11 30.9724 1139.18 30.9539 1139.33 30.9169L1147 28.9999L1154.67 30.9169C1154.82 30.9539 1154.89 30.9724 1154.93 30.9313C1154.97 30.8902 1154.95 30.8167 1154.91 30.6697L1147.19 2.69888C1147.12 2.41699 1147.08 2.27603 1147 2.27603C1146.92 2.27603 1146.88 2.41699 1146.81 2.69888Z" fill="#132AF4"/>
<path d="M1147 28.9999L1154.67 30.9169C1154.82 30.9539 1154.89 30.9724 1154.93 30.9313C1154.97 30.8902 1154.95 30.8167 1154.91 30.6697L1147.19 2.69889C1147.12 2.41699 1147.08 2.27604 1147 2.27604C1146.92 2.27604 1146.88 2.41699 1146.81 2.69889L1139.09 30.6697C1139.05 30.8167 1139.03 30.8902 1139.07 30.9313C1139.11 30.9724 1139.18 30.9539 1139.33 30.9169L1147 28.9999ZM1147 28.9999V276" stroke="#132AF4" stroke-width="4"/>
<path d="M1096.63 17.4173C1096.24 17.7522 1095.68 18.1128 1094.93 18.4992C1094.18 18.8856 1093.4 19.0788 1092.57 19.0788C1090.95 19.0788 1089.65 18.4992 1088.67 17.34C1087.69 16.1808 1087.19 14.6996 1087.16 12.8964C1087.16 10.1917 1088.16 7.70582 1090.14 5.43895C1092.12 3.17208 1094.33 2.02576 1096.75 2C1097.96 2 1099.08 2.61824 1100.11 3.85471L1100.22 3.70015C1100.28 3.62288 1100.34 3.5456 1100.42 3.46832C1100.49 3.39104 1100.61 3.288 1100.77 3.15919C1100.92 3.0304 1101.09 2.94024 1101.27 2.88872C1101.45 2.8372 1101.65 2.79856 1101.89 2.7728C1102.25 2.7728 1102.54 2.88872 1102.77 3.12056C1103.01 3.3524 1103.13 3.59711 1103.16 3.85471C1103.16 4.24111 1102.43 7.35806 1100.96 13.2056C1099.49 19.0531 1098.72 22.0412 1098.64 22.17C1098.18 23.5611 1097.18 24.7074 1095.66 25.609C1094.14 26.5106 1092.41 26.9742 1090.45 27C1086.82 27 1085 26.1242 1085 24.3725C1085 23.7027 1085.23 23.1103 1085.7 22.5951C1086.16 22.0799 1086.75 21.8223 1087.47 21.8223C1087.86 21.8223 1088.22 21.9382 1088.55 22.17C1088.89 22.4019 1089.07 22.8011 1089.1 23.3679C1089.1 23.6255 1089.07 23.8702 1089.02 24.102C1088.97 24.3338 1088.88 24.5142 1088.75 24.643C1088.62 24.7718 1088.52 24.9006 1088.44 25.0294C1088.36 25.1582 1088.27 25.2612 1088.17 25.3385L1088.09 25.4158H1088.13C1088.39 25.493 1089.16 25.5317 1090.45 25.5317C1091.43 25.5317 1092.2 25.3771 1092.77 25.068C1093.36 24.7846 1093.91 24.3596 1094.43 23.7929C1094.94 23.2262 1095.3 22.6208 1095.51 21.9768C1095.66 21.4874 1095.87 20.6888 1096.13 19.5811C1096.46 18.3447 1096.63 17.6234 1096.63 17.4173ZM1099.45 6.40495L1099.3 5.97991C1099.22 5.69655 1099.16 5.50335 1099.1 5.40031C1099.05 5.29727 1098.97 5.11695 1098.87 4.85935C1098.77 4.60175 1098.64 4.42143 1098.49 4.31839C1098.33 4.21535 1098.16 4.07367 1097.98 3.89335C1097.8 3.71303 1097.57 3.59711 1097.29 3.5456C1097 3.49408 1096.72 3.45543 1096.44 3.42967C1095.3 3.42967 1094.21 4.11231 1093.15 5.47759C1092.38 6.48223 1091.74 8.01494 1091.22 10.0757C1090.71 12.1365 1090.45 13.6306 1090.45 14.558C1090.45 16.593 1091.25 17.6105 1092.84 17.6105C1094.29 17.6105 1095.7 16.7089 1097.09 14.9057L1097.4 14.5193L1099.45 6.40495Z" fill="#132AF4" stroke="#132AF4" stroke-width="2"/>
<path d="M1104.89 17.0349C1104.91 16.9256 1104.94 16.7799 1104.98 16.5978C1105.01 16.4157 1105.12 16.0696 1105.3 15.5597C1105.49 15.0498 1105.67 14.6218 1105.85 14.2757C1106.03 13.9297 1106.32 13.5928 1106.72 13.265C1107.12 12.9371 1107.53 12.7823 1107.93 12.8005C1108.33 12.8188 1108.72 12.8825 1109.1 12.9918C1109.48 13.1011 1109.76 13.265 1109.92 13.4835C1110.08 13.7021 1110.23 13.9024 1110.36 14.0845C1110.48 14.2666 1110.56 14.4397 1110.58 14.6036L1110.63 14.7948C1110.63 14.8312 1110.64 14.8494 1110.66 14.8494L1110.96 14.5489C1112.05 13.3833 1113.34 12.8005 1114.81 12.8005C1115.12 12.8005 1115.4 12.8188 1115.66 12.8552C1115.91 12.8916 1116.15 12.9554 1116.37 13.0464C1116.59 13.1375 1116.76 13.2285 1116.89 13.3196C1117.01 13.4107 1117.15 13.5199 1117.3 13.6474C1117.44 13.7749 1117.53 13.8933 1117.57 14.0026C1117.61 14.1118 1117.68 14.2302 1117.79 14.3577C1117.9 14.4852 1117.93 14.5945 1117.9 14.6855C1117.86 14.7766 1117.89 14.8585 1117.98 14.9314C1118.07 15.0042 1118.09 15.068 1118.03 15.1226L1118.25 14.8494C1119.4 13.4835 1120.76 12.8005 1122.32 12.8005C1123.31 12.8005 1124.1 13.0464 1124.7 13.5381C1125.3 14.0299 1125.61 14.7493 1125.63 15.6963C1125.63 16.6251 1125.28 18.0639 1124.59 20.0126C1123.9 21.9613 1123.55 23.1269 1123.55 23.5094C1123.57 23.7643 1123.62 23.9373 1123.69 24.0284C1123.76 24.1195 1123.9 24.165 1124.1 24.165C1124.61 24.165 1125.08 23.8918 1125.52 23.3454C1125.96 22.7991 1126.31 22.0524 1126.58 21.1053C1126.64 20.905 1126.69 20.7866 1126.75 20.7502C1126.8 20.7138 1126.95 20.6956 1127.19 20.6956C1127.55 20.6956 1127.73 20.7684 1127.73 20.9141C1127.73 20.9323 1127.7 21.0689 1127.62 21.3239C1127.48 21.852 1127.28 22.3711 1127.02 22.881C1126.77 23.391 1126.35 23.9009 1125.77 24.4109C1125.18 24.9208 1124.55 25.1667 1123.88 25.1485C1123.02 25.1485 1122.4 24.9026 1122.02 24.4109C1121.64 23.9191 1121.45 23.4092 1121.45 22.881C1121.45 22.535 1121.78 21.4423 1122.43 19.6028C1123.09 17.7634 1123.42 16.3793 1123.44 15.4504C1123.44 14.3759 1123.04 13.8386 1122.24 13.8386H1122.1C1120.54 13.8386 1119.22 14.7584 1118.14 16.5978L1117.95 16.9256L1117.05 20.5863C1116.45 22.9721 1116.1 24.2561 1116.01 24.4382C1115.78 24.9299 1115.38 25.1758 1114.84 25.1758C1114.6 25.1758 1114.41 25.112 1114.26 24.9846C1114.12 24.8571 1114.02 24.7478 1113.96 24.6567C1113.91 24.5657 1113.88 24.4746 1113.88 24.3835C1113.88 24.1832 1114.19 22.881 1114.81 20.477L1115.79 16.4885C1115.85 16.2153 1115.88 15.8693 1115.88 15.4504C1115.88 14.3759 1115.48 13.8386 1114.67 13.8386H1114.54C1112.97 13.8386 1111.65 14.7584 1110.58 16.5978L1110.38 16.9256L1109.48 20.5863C1108.88 22.9721 1108.54 24.2561 1108.45 24.4382C1108.21 24.9299 1107.82 25.1758 1107.27 25.1758C1107.03 25.1758 1106.84 25.1211 1106.7 25.0119C1106.55 24.9026 1106.45 24.7933 1106.4 24.6841C1106.34 24.5748 1106.32 24.4837 1106.34 24.4109C1106.34 24.1741 1106.69 22.6807 1107.38 19.9306C1108.09 17.126 1108.45 15.6599 1108.45 15.5324C1108.5 15.2592 1108.53 15.0133 1108.53 14.7948C1108.53 14.1392 1108.3 13.8113 1107.84 13.8113C1107.44 13.8113 1107.11 14.0663 1106.83 14.5762C1106.56 15.0862 1106.35 15.6417 1106.21 16.2427C1106.06 16.8437 1105.95 17.1715 1105.88 17.2261C1105.84 17.2626 1105.7 17.2808 1105.44 17.2808H1105.06C1104.95 17.1715 1104.89 17.0895 1104.89 17.0349Z" fill="#132AF4" stroke="#132AF4" stroke-width="2"/>
<path d="M1182 110C1182 110 1208.5 153.5 1264.5 185.5C1320.5 217.5 1452.5 236 1452.5 236" stroke="#132AF4" stroke-width="4"/>
<path d="M1395 273.237C1395 272.719 1395.15 272.306 1395.46 272H1395.85C1396.84 272.071 1398.08 272.106 1399.56 272.106C1402.34 272.106 1403.98 272.071 1404.47 272H1404.83C1404.97 272.141 1405.04 272.248 1405.04 272.318C1405.04 272.389 1405.02 272.601 1404.97 272.955C1404.85 273.308 1404.75 273.532 1404.65 273.626H1403.91C1403.39 273.673 1403.04 273.697 1402.85 273.697C1402.17 273.815 1401.79 273.992 1401.72 274.227C1401.72 274.275 1402.06 277.232 1402.74 283.101C1403.43 288.97 1403.78 291.928 1403.8 291.975L1406.38 287.839C1408.1 285.081 1409.83 282.3 1411.55 279.495C1413.27 276.69 1414.15 275.241 1414.2 275.147C1414.29 274.982 1414.34 274.805 1414.34 274.616C1414.34 274.051 1413.82 273.721 1412.78 273.626C1412.36 273.626 1412.15 273.497 1412.15 273.237C1412.15 273.214 1412.17 273.061 1412.22 272.778C1412.29 272.448 1412.36 272.236 1412.43 272.141C1412.5 272.047 1412.65 272 1412.89 272C1412.94 272 1413.08 272 1413.31 272C1413.55 272 1413.95 272.012 1414.52 272.035C1415.08 272.059 1415.84 272.071 1416.78 272.071C1418.4 272.071 1419.43 272.047 1419.85 272H1420.1C1420.27 272.165 1420.35 272.295 1420.35 272.389C1420.35 272.79 1420.24 273.167 1420.03 273.52C1419.96 273.591 1419.76 273.626 1419.43 273.626C1419.12 273.65 1418.84 273.673 1418.58 273.697C1418.32 273.721 1418.07 273.78 1417.84 273.874C1417.6 273.968 1417.41 274.051 1417.27 274.121C1417.13 274.192 1416.99 274.286 1416.85 274.404C1416.71 274.522 1416.59 274.604 1416.5 274.652C1416.4 274.699 1416.31 274.805 1416.21 274.97C1416.12 275.135 1416.04 275.217 1415.97 275.217L1409.14 286.177C1404.9 293.036 1402.71 296.548 1402.57 296.713C1402.5 296.76 1402.41 296.819 1402.32 296.889L1401.68 296.925H1401.43C1401.01 296.925 1400.8 296.842 1400.8 296.677C1400.73 296.536 1400.27 292.765 1399.42 285.364C1398.52 277.869 1398.06 274.086 1398.04 274.015C1397.92 273.756 1397.19 273.626 1395.85 273.626H1395.25C1395.08 273.508 1395 273.379 1395 273.237Z" fill="#132AF4" stroke="#132AF4" stroke-width="2"/>
<path d="M1416.19 295.151C1416.19 293.235 1416.75 291.394 1417.86 289.627C1418.98 287.861 1420.39 286.461 1422.09 285.428C1423.79 284.395 1425.49 283.87 1427.19 283.853C1428.69 283.853 1429.88 284.278 1430.76 285.128C1430.91 285.295 1431.04 285.436 1431.14 285.553C1431.24 285.67 1431.3 285.753 1431.34 285.803L1431.36 285.878C1431.41 285.878 1431.64 285.661 1432.04 285.228C1432.15 285.128 1432.28 285.011 1432.41 284.878C1432.55 284.745 1432.68 284.611 1432.81 284.478C1432.95 284.345 1433.03 284.253 1433.06 284.203L1433.44 283.828H1433.59C1433.82 283.828 1433.94 283.887 1433.94 284.003C1433.94 284.07 1433.67 285.211 1433.14 287.428C1432.54 289.744 1432.24 290.91 1432.24 290.927C1432.2 291.01 1432.16 291.06 1432.11 291.077C1432.06 291.094 1431.91 291.11 1431.66 291.127H1431.26C1431.16 291.027 1431.11 290.952 1431.11 290.902C1431.11 290.885 1431.12 290.827 1431.14 290.727C1431.15 290.627 1431.17 290.46 1431.19 290.227C1431.2 289.994 1431.21 289.727 1431.21 289.427C1431.21 288.244 1430.95 287.211 1430.41 286.328C1429.88 285.445 1428.97 284.995 1427.69 284.978C1427.39 284.978 1427.06 285.003 1426.71 285.053C1426.36 285.103 1425.92 285.211 1425.39 285.378C1424.85 285.545 1424.35 285.778 1423.86 286.078C1423.38 286.378 1422.86 286.778 1422.29 287.278C1421.72 287.778 1421.24 288.369 1420.84 289.052C1420.44 289.736 1420.05 290.585 1419.66 291.602C1419.28 292.618 1419.02 293.735 1418.89 294.951C1418.86 295.251 1418.84 295.576 1418.84 295.926C1418.84 296.726 1418.96 297.434 1419.19 298.051C1419.42 298.667 1419.72 299.142 1420.09 299.475C1420.46 299.809 1420.87 300.092 1421.34 300.325C1421.81 300.559 1422.24 300.7 1422.64 300.75C1423.04 300.8 1423.41 300.834 1423.76 300.85C1424.66 300.85 1425.49 300.659 1426.24 300.275C1426.99 299.892 1427.5 299.4 1427.79 298.801C1427.84 298.667 1427.96 298.209 1428.16 297.426C1428.36 296.643 1428.46 296.201 1428.46 296.101C1428.46 295.968 1428.35 295.884 1428.14 295.851C1427.92 295.818 1427.42 295.793 1426.64 295.776H1425.71C1425.61 295.676 1425.56 295.609 1425.56 295.576C1425.56 295.543 1425.58 295.385 1425.61 295.101C1425.68 294.885 1425.76 294.726 1425.86 294.626H1426.29C1426.95 294.66 1428.12 294.676 1429.79 294.676C1430.45 294.676 1431 294.676 1431.41 294.676C1431.83 294.676 1432.13 294.668 1432.31 294.651C1432.5 294.635 1432.6 294.635 1432.61 294.651C1432.85 294.651 1432.96 294.726 1432.96 294.876C1432.96 294.91 1432.95 295.026 1432.91 295.226C1432.83 295.543 1432.75 295.718 1432.66 295.751C1432.61 295.768 1432.49 295.776 1432.29 295.776C1431.95 295.776 1431.61 295.801 1431.26 295.851C1431.15 295.901 1431.06 295.976 1431.01 296.076C1430.96 296.176 1430.85 296.601 1430.66 297.351C1430.51 297.901 1430.39 298.367 1430.29 298.751C1429.87 300.45 1429.64 301.325 1429.59 301.375C1429.55 301.408 1429.51 301.425 1429.46 301.425C1429.3 301.425 1429.06 301.258 1428.76 300.925C1428.46 300.592 1428.27 300.334 1428.19 300.15C1428.19 300.134 1428.17 300.134 1428.14 300.15C1428.1 300.167 1428.05 300.209 1427.99 300.275C1426.75 301.425 1425.09 302 1422.99 302C1420.97 302 1419.34 301.358 1418.09 300.075C1416.84 298.792 1416.21 297.151 1416.19 295.151Z" fill="#132AF4" stroke="#132AF4" stroke-width="2"/>
<path d="M1442.29 300.85C1443.27 300.85 1444.17 300.417 1444.98 299.55C1445.8 298.684 1446.22 297.676 1446.23 296.526C1446.23 295.476 1445.8 294.751 1444.93 294.351C1443.17 293.901 1442.04 293.593 1441.54 293.427C1441.04 293.26 1440.69 293.093 1440.49 292.927C1439.49 292.227 1438.99 291.219 1438.99 289.902C1438.99 288.886 1439.25 287.961 1439.79 287.128C1440.32 286.295 1440.86 285.67 1441.41 285.253C1441.89 284.836 1442.48 284.503 1443.16 284.253C1443.84 284.003 1444.38 283.87 1444.76 283.853H1445.03H1445.21C1446.81 283.853 1447.97 284.387 1448.68 285.453C1448.7 285.453 1448.81 285.345 1449.01 285.128C1449.21 284.911 1449.43 284.67 1449.66 284.403C1449.89 284.137 1450.06 283.953 1450.16 283.853C1450.18 283.853 1450.21 283.853 1450.26 283.853C1450.31 283.853 1450.35 283.845 1450.38 283.828C1450.6 283.828 1450.71 283.887 1450.71 284.003C1450.71 284.12 1450.48 285.128 1450.01 287.028C1449.54 288.927 1449.28 289.911 1449.21 289.977C1449.14 290.044 1449.01 290.069 1448.81 290.052C1448.48 290.052 1448.31 289.977 1448.31 289.827C1448.31 289.727 1448.32 289.644 1448.33 289.577C1448.33 289.527 1448.34 289.369 1448.36 289.102C1448.38 288.836 1448.39 288.619 1448.41 288.452C1448.41 287.886 1448.33 287.394 1448.18 286.978C1448.03 286.561 1447.88 286.253 1447.73 286.053C1447.58 285.853 1447.38 285.645 1447.11 285.428C1446.51 285.078 1445.83 284.903 1445.06 284.903C1444.11 284.903 1443.23 285.286 1442.41 286.053C1441.59 286.819 1441.18 287.703 1441.16 288.702C1441.16 289.202 1441.29 289.636 1441.54 290.002C1441.79 290.369 1442.13 290.627 1442.56 290.777C1442.63 290.81 1443.21 290.969 1444.31 291.252C1445.41 291.535 1445.97 291.685 1445.98 291.702C1446.55 291.885 1447.1 292.285 1447.63 292.902C1448.17 293.518 1448.43 294.351 1448.43 295.401C1448.43 295.834 1448.37 296.301 1448.23 296.801C1448.15 297.168 1448 297.576 1447.78 298.026C1447.57 298.476 1447.27 298.967 1446.88 299.5C1446.5 300.034 1445.95 300.534 1445.23 301C1444.52 301.467 1443.73 301.783 1442.89 301.95C1442.69 301.983 1442.4 302 1442.04 302C1440.39 302 1439.1 301.542 1438.19 300.625L1437.94 300.35L1437.24 301.125C1436.85 301.575 1436.62 301.833 1436.54 301.9C1436.45 301.967 1436.34 302 1436.21 302C1435.99 302 1435.89 301.933 1435.89 301.8C1435.89 301.75 1436.37 299.792 1437.34 295.926C1437.37 295.826 1437.54 295.776 1437.84 295.776H1438.16C1438.26 295.876 1438.31 295.968 1438.31 296.051C1438.31 296.084 1438.3 296.159 1438.29 296.276C1438.27 296.393 1438.24 296.568 1438.19 296.801C1438.14 297.034 1438.12 297.309 1438.14 297.626C1438.17 298.276 1438.32 298.826 1438.59 299.275C1438.85 299.725 1439.21 300.059 1439.66 300.275C1440.11 300.492 1440.54 300.642 1440.96 300.725C1441.38 300.809 1441.82 300.85 1442.29 300.85Z" fill="#132AF4" stroke="#132AF4" stroke-width="2"/>
<path d="M1463.31 287.768C1463.31 287.768 1463.31 287.615 1463.31 287.309C1463.31 287.002 1463.47 286.766 1463.8 286.601H1484.34C1484.7 286.79 1484.87 287.026 1484.87 287.309C1484.87 287.591 1484.7 287.827 1484.34 288.016H1463.8C1463.47 287.851 1463.31 287.615 1463.31 287.309V287.768Z" fill="#132AF4" stroke="#132AF4" stroke-width="2"/>
<path d="M1497.54 273.238C1497.54 272.72 1497.69 272.307 1498 272.001H1498.39C1499.38 272.072 1500.61 272.107 1502.1 272.107C1504.88 272.107 1506.52 272.072 1507.01 272.001H1507.37C1507.51 272.142 1507.58 272.249 1507.58 272.319C1507.58 272.39 1507.55 272.602 1507.51 272.956C1507.39 273.309 1507.28 273.533 1507.19 273.627H1506.45C1505.93 273.674 1505.58 273.698 1505.39 273.698C1504.7 273.816 1504.33 273.993 1504.26 274.228C1504.26 274.275 1504.6 277.233 1505.28 283.102C1505.96 288.971 1506.32 291.929 1506.34 291.976L1508.92 287.84C1510.64 285.082 1512.36 282.301 1514.08 279.496C1515.8 276.691 1516.69 275.242 1516.74 275.148C1516.83 274.983 1516.88 274.806 1516.88 274.617C1516.88 274.052 1516.36 273.722 1515.32 273.627C1514.9 273.627 1514.68 273.498 1514.68 273.238C1514.68 273.215 1514.71 273.062 1514.76 272.779C1514.83 272.449 1514.9 272.237 1514.97 272.142C1515.04 272.048 1515.19 272.001 1515.43 272.001C1515.47 272.001 1515.62 272.001 1515.85 272.001C1516.09 272.001 1516.49 272.013 1517.05 272.036C1517.62 272.06 1518.37 272.072 1519.32 272.072C1520.94 272.072 1521.97 272.048 1522.39 272.001H1522.64C1522.8 272.166 1522.89 272.296 1522.89 272.39C1522.89 272.791 1522.78 273.168 1522.57 273.521C1522.5 273.592 1522.3 273.627 1521.97 273.627C1521.66 273.651 1521.38 273.674 1521.12 273.698C1520.86 273.722 1520.61 273.781 1520.38 273.875C1520.14 273.969 1519.95 274.052 1519.81 274.122C1519.67 274.193 1519.53 274.287 1519.39 274.405C1519.25 274.523 1519.13 274.605 1519.03 274.653C1518.94 274.7 1518.84 274.806 1518.75 274.971C1518.66 275.136 1518.57 275.218 1518.5 275.218L1511.68 286.178C1507.44 293.037 1505.25 296.549 1505.1 296.714C1505.03 296.761 1504.95 296.82 1504.86 296.89L1504.22 296.926H1503.97C1503.55 296.926 1503.34 296.843 1503.34 296.678C1503.27 296.537 1502.81 292.766 1501.96 285.365C1501.06 277.87 1500.6 274.087 1500.58 274.016C1500.46 273.757 1499.73 273.627 1498.39 273.627H1497.79C1497.62 273.509 1497.54 273.38 1497.54 273.238Z" fill="#132AF4" stroke="#132AF4" stroke-width="2"/>
<path d="M1518.48 290.527C1518.16 290.527 1518 290.461 1518 290.327C1518 290.244 1518.14 289.777 1518.4 288.927C1518.67 288.078 1518.95 287.236 1519.25 286.403L1519.68 285.178C1519.76 284.878 1519.87 284.662 1520 284.528H1531.7H1533.95C1534.48 284.528 1534.8 284.537 1534.9 284.553C1535 284.57 1535.06 284.645 1535.07 284.778C1535.07 284.878 1534.93 285.828 1534.65 287.628C1534.37 289.427 1534.21 290.336 1534.17 290.352C1534.17 290.469 1534.02 290.527 1533.7 290.527C1533.55 290.527 1533.45 290.527 1533.4 290.527C1533.35 290.527 1533.3 290.486 1533.25 290.402L1533.2 290.327C1533.2 290.227 1533.25 289.852 1533.35 289.202C1533.45 288.553 1533.5 288.044 1533.5 287.678C1533.5 287.094 1533.39 286.653 1533.17 286.353C1532.96 286.053 1532.5 285.845 1531.8 285.728C1531.72 285.711 1531.23 285.695 1530.35 285.678C1529.58 285.678 1529.1 285.686 1528.9 285.703C1528.7 285.72 1528.55 285.786 1528.45 285.903C1528.43 285.92 1527.84 288.244 1526.68 292.877C1525.51 297.509 1524.93 299.867 1524.93 299.95C1524.93 300.15 1525.66 300.267 1527.13 300.3C1527.66 300.3 1528 300.309 1528.15 300.325C1528.3 300.342 1528.38 300.417 1528.38 300.55C1528.38 300.634 1528.35 300.75 1528.3 300.9C1528.23 301.2 1528.16 301.375 1528.08 301.425L1528.03 301.45C1527.98 301.45 1527.92 301.45 1527.85 301.45C1527.77 301.45 1527.33 301.442 1526.55 301.425C1525.77 301.409 1524.64 301.4 1523.18 301.4C1521.03 301.4 1519.66 301.417 1519.08 301.45H1518.7C1518.6 301.35 1518.55 301.275 1518.55 301.225C1518.55 301.175 1518.57 301.025 1518.6 300.775C1518.67 300.559 1518.75 300.4 1518.85 300.3H1519.55H1519.83C1521.16 300.3 1521.95 300.225 1522.2 300.075C1522.22 300.059 1522.24 300.05 1522.25 300.05C1522.34 300 1522.42 299.834 1522.5 299.551C1522.59 299.267 1522.92 297.959 1523.5 295.626C1523.78 294.493 1524.02 293.568 1524.2 292.852C1525.37 288.269 1525.95 285.928 1525.95 285.828C1525.95 285.745 1525.71 285.703 1525.23 285.703H1524.45C1523.34 285.703 1522.6 285.753 1522.25 285.853C1521.5 286.02 1520.92 286.361 1520.5 286.878C1520.09 287.394 1519.64 288.361 1519.15 289.777C1519.04 290.144 1518.95 290.361 1518.9 290.427C1518.85 290.494 1518.74 290.527 1518.55 290.527H1518.48Z" fill="#132AF4" stroke="#132AF4" stroke-width="2"/>
<path d="M1540.77 285.528C1540.21 285.528 1539.91 285.495 1539.87 285.428C1539.86 285.395 1539.85 285.328 1539.85 285.228C1539.85 284.828 1539.94 284.553 1540.12 284.403C1540.16 284.387 1540.3 284.378 1540.55 284.378C1541.23 284.412 1542.37 284.428 1543.95 284.428C1544.51 284.428 1545.04 284.428 1545.52 284.428C1546.01 284.428 1546.38 284.42 1546.65 284.403C1546.91 284.387 1547.08 284.387 1547.15 284.403C1547.41 284.403 1547.55 284.487 1547.55 284.653C1547.55 284.687 1547.53 284.803 1547.5 285.003C1547.41 285.286 1547.33 285.453 1547.25 285.503H1547.2C1547.16 285.503 1547.12 285.503 1547.07 285.503C1547.02 285.503 1546.96 285.503 1546.9 285.503C1546.83 285.503 1546.76 285.511 1546.67 285.528C1546.59 285.545 1546.51 285.545 1546.45 285.528C1545.8 285.545 1545.38 285.57 1545.2 285.603C1545.01 285.636 1544.86 285.728 1544.75 285.878C1544.7 285.945 1544.43 286.969 1543.95 288.952C1543.83 289.386 1543.71 289.869 1543.57 290.402C1543.44 290.935 1543.34 291.327 1543.27 291.577L1543.17 291.952C1543.17 291.985 1544.38 292.002 1546.8 292.002H1550.42L1550.45 291.927C1550.45 291.877 1550.71 290.852 1551.22 288.852C1551.69 286.936 1551.92 285.911 1551.92 285.778C1551.92 285.645 1551.45 285.561 1550.5 285.528C1550.11 285.528 1549.86 285.511 1549.75 285.478C1549.63 285.445 1549.57 285.37 1549.57 285.253C1549.57 285.22 1549.59 285.12 1549.62 284.953C1549.69 284.67 1549.74 284.512 1549.77 284.478C1549.81 284.445 1549.94 284.42 1550.17 284.403C1550.26 284.403 1550.61 284.412 1551.22 284.428C1551.84 284.445 1552.62 284.453 1553.57 284.453C1554.6 284.453 1555.4 284.445 1555.95 284.428C1556.5 284.412 1556.8 284.403 1556.85 284.403C1557.13 284.403 1557.27 284.487 1557.27 284.653C1557.27 285.103 1557.17 285.386 1556.97 285.503H1556.92C1556.89 285.503 1556.85 285.503 1556.8 285.503C1556.75 285.503 1556.69 285.503 1556.62 285.503C1556.55 285.503 1556.48 285.511 1556.4 285.528C1556.31 285.545 1556.24 285.545 1556.17 285.528C1555.52 285.545 1555.1 285.57 1554.92 285.603C1554.74 285.636 1554.59 285.728 1554.47 285.878C1554.42 285.961 1553.82 288.319 1552.67 292.952C1551.52 297.584 1550.94 299.934 1550.92 300C1550.92 300.117 1550.96 300.175 1551.02 300.175C1551.16 300.225 1551.61 300.267 1552.37 300.3H1553.15C1553.25 300.434 1553.3 300.509 1553.3 300.525C1553.3 300.542 1553.27 300.692 1553.22 300.975C1553.15 301.192 1553.07 301.35 1552.97 301.45H1552.6C1551.98 301.417 1550.86 301.4 1549.25 301.4C1548.68 301.4 1548.16 301.4 1547.67 301.4C1547.19 301.4 1546.81 301.4 1546.52 301.4C1546.24 301.4 1546.06 301.409 1546 301.425C1545.71 301.425 1545.57 301.35 1545.57 301.2C1545.57 301.117 1545.6 301 1545.65 300.85C1545.73 300.534 1545.81 300.359 1545.9 300.325C1545.96 300.309 1546.09 300.3 1546.27 300.3H1546.42C1546.87 300.3 1547.37 300.275 1547.92 300.225C1548.02 300.209 1548.09 300.2 1548.12 300.2C1548.16 300.2 1548.21 300.159 1548.27 300.075C1548.34 299.992 1548.39 299.917 1548.42 299.85C1548.46 299.784 1548.51 299.634 1548.57 299.401C1548.64 299.167 1548.7 298.934 1548.75 298.701C1548.8 298.467 1548.89 298.109 1549.02 297.626C1549.14 297.159 1549.23 296.784 1549.3 296.501C1549.85 294.301 1550.12 293.193 1550.12 293.177C1550.12 293.16 1548.91 293.152 1546.5 293.152H1542.87L1542.05 296.526C1541.48 298.759 1541.2 299.917 1541.2 300C1541.2 300.117 1541.27 300.192 1541.4 300.225C1541.53 300.259 1541.95 300.284 1542.65 300.3H1543.42C1543.52 300.434 1543.57 300.509 1543.57 300.525C1543.57 300.542 1543.55 300.692 1543.5 300.975C1543.43 301.192 1543.35 301.35 1543.25 301.45H1542.87C1542.26 301.417 1541.14 301.4 1539.52 301.4C1538.96 301.4 1538.43 301.4 1537.95 301.4C1537.47 301.4 1537.08 301.4 1536.8 301.4C1536.52 301.4 1536.34 301.409 1536.27 301.425C1535.99 301.425 1535.85 301.35 1535.85 301.2C1535.85 301.167 1535.87 301.05 1535.92 300.85C1536.01 300.534 1536.09 300.359 1536.17 300.325C1536.24 300.309 1536.37 300.3 1536.55 300.3H1536.7C1537.15 300.3 1537.65 300.275 1538.2 300.225C1538.43 300.175 1538.59 300.075 1538.67 299.925C1538.72 299.859 1539.32 297.543 1540.47 292.977C1541.62 288.411 1542.2 286.003 1542.2 285.753C1542.2 285.636 1541.72 285.561 1540.77 285.528Z" fill="#132AF4" stroke="#132AF4" stroke-width="2"/>
<path d="M1010.3 252.807L982.33 245.091C982.183 245.051 982.11 245.03 982.069 245.07C982.028 245.111 982.046 245.184 982.083 245.332L984 253L982.083 260.668C982.046 260.816 982.028 260.889 982.069 260.93C982.11 260.97 982.183 260.949 982.33 260.909L1010.3 253.193C1010.58 253.115 1010.72 253.076 1010.72 253C1010.72 252.924 1010.58 252.885 1010.3 252.807Z" fill="#132AF4"/>
<path d="M984 253L982.083 260.668C982.046 260.816 982.028 260.889 982.069 260.93C982.11 260.97 982.183 260.949 982.33 260.909L1010.3 253.193C1010.58 253.115 1010.72 253.076 1010.72 253C1010.72 252.924 1010.58 252.885 1010.3 252.807L982.33 245.091C982.183 245.051 982.11 245.03 982.069 245.07C982.028 245.111 982.046 245.184 982.083 245.332L984 253ZM984 253H581" stroke="#132AF4" stroke-width="4"/>
<path d="M604.807 2.69888L597.091 30.6697C597.051 30.8167 597.03 30.8902 597.07 30.9313C597.111 30.9724 597.184 30.9539 597.332 30.9169L605 28.9999L612.668 30.9169C612.816 30.9539 612.889 30.9724 612.93 30.9313C612.97 30.8902 612.949 30.8167 612.909 30.6697L605.193 2.69888C605.115 2.41699 605.076 2.27603 605 2.27603C604.924 2.27603 604.885 2.41699 604.807 2.69888Z" fill="#132AF4"/>
<path d="M605 28.9999L612.668 30.9169C612.816 30.9539 612.889 30.9724 612.93 30.9313C612.97 30.8902 612.949 30.8167 612.909 30.6697L605.193 2.69889C605.115 2.41699 605.076 2.27604 605 2.27604C604.924 2.27604 604.885 2.41699 604.807 2.69889L597.091 30.6697C597.051 30.8167 597.03 30.8902 597.07 30.9313C597.111 30.9724 597.184 30.9539 597.332 30.9169L605 28.9999ZM605 28.9999V276" stroke="#132AF4" stroke-width="4"/>
<path d="M554.631 17.4173C554.244 17.7522 553.677 18.1128 552.93 18.4992C552.183 18.8856 551.398 19.0788 550.573 19.0788C548.951 19.0788 547.65 18.4992 546.671 17.34C545.692 16.1808 545.19 14.6996 545.164 12.8964C545.164 10.1917 546.156 7.70582 548.139 5.43895C550.123 3.17208 552.325 2.02576 554.747 2C555.957 2 557.078 2.61824 558.108 3.85471L558.224 3.70015C558.276 3.62288 558.34 3.5456 558.417 3.46832C558.495 3.39104 558.611 3.288 558.765 3.15919C558.92 3.0304 559.087 2.94024 559.267 2.88872C559.448 2.8372 559.654 2.79856 559.886 2.7728C560.246 2.7728 560.543 2.88872 560.774 3.12056C561.006 3.3524 561.135 3.59711 561.161 3.85471C561.161 4.24111 560.427 7.35806 558.958 13.2056C557.49 19.0531 556.717 22.0412 556.64 22.17C556.176 23.5611 555.184 24.7074 553.665 25.609C552.145 26.5106 550.406 26.9742 548.448 27C544.816 27 543 26.1242 543 24.3725C543 23.7027 543.232 23.1103 543.696 22.5951C544.159 22.0799 544.752 21.8223 545.473 21.8223C545.859 21.8223 546.22 21.9382 546.555 22.17C546.89 22.4019 547.07 22.8011 547.096 23.3679C547.096 23.6255 547.07 23.8702 547.019 24.102C546.967 24.3338 546.877 24.5142 546.748 24.643C546.619 24.7718 546.516 24.9006 546.439 25.0294C546.362 25.1582 546.272 25.2612 546.168 25.3385L546.091 25.4158H546.13C546.387 25.493 547.16 25.5317 548.448 25.5317C549.427 25.5317 550.2 25.3771 550.767 25.068C551.359 24.7846 551.913 24.3596 552.428 23.7929C552.943 23.2262 553.304 22.6208 553.51 21.9768C553.665 21.4874 553.871 20.6888 554.128 19.5811C554.463 18.3447 554.631 17.6234 554.631 17.4173ZM557.451 6.40495L557.297 5.97991C557.219 5.69655 557.155 5.50335 557.104 5.40031C557.052 5.29727 556.975 5.11695 556.872 4.85935C556.769 4.60175 556.64 4.42143 556.485 4.31839C556.331 4.21535 556.163 4.07367 555.983 3.89335C555.803 3.71303 555.571 3.59711 555.287 3.5456C555.004 3.49408 554.721 3.45543 554.437 3.42967C553.304 3.42967 552.209 4.11231 551.153 5.47759C550.38 6.48223 549.736 8.01494 549.221 10.0757C548.706 12.1365 548.448 13.6306 548.448 14.558C548.448 16.593 549.247 17.6105 550.844 17.6105C552.286 17.6105 553.703 16.7089 555.094 14.9057L555.403 14.5193L557.451 6.40495Z" fill="#132AF4" stroke="#132AF4" stroke-width="2"/>
<path d="M562.894 17.0349C562.912 16.9256 562.939 16.7799 562.976 16.5978C563.012 16.4157 563.121 16.0696 563.304 15.5597C563.486 15.0498 563.668 14.6218 563.85 14.2757C564.032 13.9297 564.323 13.5928 564.724 13.265C565.125 12.9371 565.525 12.7823 565.926 12.8005C566.327 12.8188 566.718 12.8825 567.101 12.9918C567.483 13.1011 567.756 13.265 567.92 13.4835C568.084 13.7021 568.23 13.9024 568.357 14.0845C568.485 14.2666 568.558 14.4397 568.576 14.6036L568.631 14.7948C568.631 14.8312 568.64 14.8494 568.658 14.8494L568.958 14.5489C570.051 13.3833 571.335 12.8005 572.81 12.8005C573.12 12.8005 573.402 12.8188 573.657 12.8552C573.912 12.8916 574.149 12.9554 574.367 13.0464C574.586 13.1375 574.759 13.2285 574.887 13.3196C575.014 13.4107 575.151 13.5199 575.296 13.6474C575.442 13.7749 575.533 13.8933 575.569 14.0026C575.606 14.1118 575.679 14.2302 575.788 14.3577C575.897 14.4852 575.934 14.5945 575.897 14.6855C575.861 14.7766 575.888 14.8585 575.979 14.9314C576.07 15.0042 576.089 15.068 576.034 15.1226L576.252 14.8494C577.4 13.4835 578.757 12.8005 580.323 12.8005C581.306 12.8005 582.099 13.0464 582.7 13.5381C583.301 14.0299 583.61 14.7493 583.628 15.6963C583.628 16.6251 583.282 18.0639 582.59 20.0126C581.898 21.9613 581.552 23.1269 581.552 23.5094C581.57 23.7643 581.616 23.9373 581.689 24.0284C581.762 24.1195 581.898 24.165 582.099 24.165C582.609 24.165 583.082 23.8918 583.519 23.3454C583.956 22.7991 584.311 22.0524 584.585 21.1053C584.639 20.905 584.694 20.7866 584.748 20.7502C584.803 20.7138 584.949 20.6956 585.186 20.6956C585.55 20.6956 585.732 20.7684 585.732 20.9141C585.732 20.9323 585.695 21.0689 585.623 21.3239C585.477 21.852 585.277 22.3711 585.022 22.881C584.767 23.391 584.348 23.9009 583.765 24.4109C583.182 24.9208 582.554 25.1667 581.88 25.1485C581.024 25.1485 580.405 24.9026 580.022 24.4109C579.64 23.9191 579.449 23.4092 579.449 22.881C579.449 22.535 579.777 21.4423 580.432 19.6028C581.088 17.7634 581.425 16.3793 581.443 15.4504C581.443 14.3759 581.042 13.8386 580.241 13.8386H580.104C578.538 13.8386 577.218 14.7584 576.143 16.5978L575.952 16.9256L575.05 20.5863C574.449 22.9721 574.103 24.2561 574.012 24.4382C573.776 24.9299 573.384 25.1758 572.838 25.1758C572.601 25.1758 572.41 25.112 572.264 24.9846C572.118 24.8571 572.018 24.7478 571.963 24.6567C571.909 24.5657 571.881 24.4746 571.881 24.3835C571.881 24.1832 572.191 22.881 572.81 20.477L573.794 16.4885C573.848 16.2153 573.876 15.8693 573.876 15.4504C573.876 14.3759 573.475 13.8386 572.674 13.8386H572.537C570.971 13.8386 569.65 14.7584 568.576 16.5978L568.385 16.9256L567.483 20.5863C566.882 22.9721 566.536 24.2561 566.445 24.4382C566.208 24.9299 565.817 25.1758 565.27 25.1758C565.034 25.1758 564.842 25.1211 564.697 25.0119C564.551 24.9026 564.451 24.7933 564.396 24.6841C564.342 24.5748 564.323 24.4837 564.342 24.4109C564.342 24.1741 564.688 22.6807 565.38 19.9306C566.09 17.126 566.445 15.6599 566.445 15.5324C566.5 15.2592 566.527 15.0133 566.527 14.7948C566.527 14.1392 566.299 13.8113 565.844 13.8113C565.443 13.8113 565.107 14.0663 564.833 14.5762C564.56 15.0862 564.351 15.6417 564.205 16.2427C564.059 16.8437 563.95 17.1715 563.877 17.2261C563.841 17.2626 563.695 17.2808 563.44 17.2808H563.058C562.948 17.1715 562.894 17.0895 562.894 17.0349Z" fill="#132AF4" stroke="#132AF4" stroke-width="2"/>
<path d="M605 253.001C605 253.001 617 192.5 738.5 142.5C860 92.4995 945 94.0009 945 94.0009" stroke="#132AF4" stroke-width="4"/>
<path d="M965.612 295.563C965.204 295.563 965 295.455 965 295.238C965 295.19 965.036 295.022 965.108 294.734C965.228 294.278 965.348 294.026 965.468 293.978C965.54 293.954 965.72 293.942 966.008 293.942H966.224C967.665 293.942 968.577 293.858 968.962 293.69C968.986 293.69 969.01 293.678 969.034 293.654C969.154 293.606 969.286 293.33 969.43 292.826C969.574 292.321 970.162 289.968 971.194 285.767C971.483 284.686 971.699 283.834 971.843 283.21C973.523 276.487 974.364 273.102 974.364 273.054C974.316 272.958 974.292 272.898 974.292 272.874C974.052 272.729 973.199 272.657 971.735 272.657H971.014C970.798 272.513 970.75 272.213 970.87 271.757C970.966 271.397 971.038 271.181 971.086 271.109C971.134 271.037 971.303 271.001 971.591 271.001H971.735C973.463 271.049 975.216 271.073 976.993 271.073C979.922 271.073 981.459 271.049 981.603 271.001H981.963C982.131 271.169 982.215 271.301 982.215 271.397C982.215 271.493 982.179 271.697 982.107 272.009C982.035 272.321 981.951 272.513 981.855 272.585C981.783 272.633 981.507 272.657 981.026 272.657C980.282 272.657 979.514 272.693 978.721 272.765C978.385 272.838 978.157 272.97 978.037 273.162C977.869 273.498 977.257 275.791 976.2 280.04C975.936 281.169 975.672 282.261 975.408 283.318C973.727 289.944 972.887 293.33 972.887 293.474C972.887 293.642 973.007 293.75 973.247 293.798C973.487 293.846 974.112 293.894 975.12 293.942H976.273C976.417 294.134 976.489 294.242 976.489 294.266C976.489 294.29 976.453 294.506 976.381 294.914C976.285 295.226 976.164 295.455 976.02 295.599H975.444C974.556 295.551 972.911 295.527 970.51 295.527C969.646 295.527 968.854 295.527 968.133 295.527C967.413 295.527 966.837 295.527 966.405 295.527C965.972 295.527 965.708 295.539 965.612 295.563Z" fill="#132AF4" stroke="#132AF4" stroke-width="2"/>
<path d="M988.406 285.01C988.406 284.891 987.922 284.815 986.955 284.781C986.564 284.781 986.31 284.772 986.191 284.755C986.072 284.738 986.013 284.662 986.013 284.526C986.013 284.39 986.046 284.22 986.114 284.017C986.182 283.813 986.242 283.686 986.293 283.635C986.327 283.618 988.016 283.609 991.36 283.609C994.194 283.626 995.782 283.635 996.121 283.635C996.461 283.635 996.8 283.686 997.14 283.788C998.362 284.076 999.397 284.747 1000.25 285.799C1001.09 286.852 1001.53 288.26 1001.54 290.026C1001.54 292.674 1000.64 295.05 998.82 297.155C997.004 299.26 994.865 300.516 992.404 300.924L992.047 300.975L987.107 301H984.281H982.932C982.524 301 982.261 300.983 982.142 300.949C982.023 300.915 981.956 300.839 981.939 300.72C981.939 300.686 981.964 300.567 982.015 300.363C982.083 300.092 982.151 299.939 982.219 299.905C982.287 299.871 982.482 299.846 982.804 299.829C983.263 299.829 983.772 299.803 984.332 299.752C984.57 299.701 984.731 299.6 984.816 299.447C984.867 299.379 985.478 297.019 986.649 292.368C987.82 287.717 988.406 285.264 988.406 285.01ZM998.998 289.058C998.998 288.413 998.905 287.836 998.718 287.327C998.531 286.818 998.311 286.419 998.056 286.13C997.802 285.842 997.488 285.595 997.114 285.392C996.741 285.188 996.41 285.052 996.121 284.984C995.832 284.916 995.535 284.857 995.23 284.806C995.196 284.806 995.077 284.806 994.873 284.806C994.67 284.806 994.424 284.806 994.135 284.806C993.846 284.806 993.566 284.798 993.295 284.781H992.2C991.453 284.781 991.029 284.865 990.927 285.035C990.893 285.103 990.273 287.547 989.068 292.368C987.863 297.189 987.26 299.625 987.26 299.676C987.26 299.744 987.354 299.778 987.54 299.778C987.727 299.778 988.381 299.786 989.501 299.803C989.586 299.803 989.747 299.803 989.985 299.803C990.222 299.803 990.426 299.812 990.596 299.829C992.735 299.829 994.5 299.133 995.892 297.741C996.503 297.13 997.004 296.417 997.394 295.602C997.785 294.787 998.15 293.709 998.489 292.368C998.829 291.027 998.998 289.924 998.998 289.058Z" fill="#132AF4" stroke="#132AF4" stroke-width="2"/>
<path d="M468.301 252.807L440.33 245.091C440.183 245.051 440.11 245.03 440.069 245.07C440.028 245.111 440.046 245.184 440.083 245.332L442 253L440.083 260.668C440.046 260.816 440.028 260.889 440.069 260.93C440.11 260.97 440.183 260.949 440.33 260.909L468.301 253.193C468.583 253.115 468.724 253.076 468.724 253C468.724 252.924 468.583 252.885 468.301 252.807Z" fill="#132AF4"/>
<path d="M442 253L440.083 260.668C440.046 260.816 440.028 260.889 440.069 260.93C440.11 260.97 440.183 260.949 440.33 260.909L468.301 253.193C468.583 253.115 468.724 253.076 468.724 253C468.724 252.924 468.583 252.885 468.301 252.807L440.33 245.091C440.183 245.051 440.11 245.03 440.069 245.07C440.028 245.111 440.046 245.184 440.083 245.332L442 253ZM442 253H39" stroke="#132AF4" stroke-width="4"/>
<path d="M62.8072 2.69888L55.0911 30.6697C55.0506 30.8167 55.0303 30.8902 55.0704 30.9313C55.1105 30.9724 55.1845 30.9539 55.3324 30.9169L63 28.9999L70.6676 30.9169C70.8155 30.9539 70.8895 30.9724 70.9296 30.9313C70.9697 30.8902 70.9494 30.8167 70.9089 30.6697L63.1928 2.69888C63.115 2.41699 63.0761 2.27603 63 2.27603C62.9239 2.27603 62.885 2.41699 62.8072 2.69888Z" fill="#132AF4"/>
<path d="M63 28.9999L70.6676 30.9169C70.8155 30.9539 70.8895 30.9724 70.9296 30.9313C70.9697 30.8902 70.9494 30.8167 70.9089 30.6697L63.1928 2.69889C63.115 2.41699 63.0761 2.27604 63 2.27604C62.9239 2.27604 62.885 2.41699 62.8072 2.69889L55.0911 30.6697C55.0506 30.8167 55.0303 30.8902 55.0704 30.9313C55.1105 30.9724 55.1845 30.9539 55.3324 30.9169L63 28.9999ZM63 28.9999L63 276" stroke="#132AF4" stroke-width="4"/>
<path d="M12.6306 17.4173C12.2442 17.7522 11.6775 18.1128 10.9304 18.4992C10.1834 18.8856 9.39773 19.0788 8.57342 19.0788C6.95054 19.0788 5.64967 18.4992 4.67079 17.34C3.69191 16.1808 3.18959 14.6996 3.16383 12.8964C3.16383 10.1917 4.15559 7.70582 6.1391 5.43895C8.12262 3.17208 10.3251 2.02576 12.7465 2C13.9572 2 15.0778 2.61824 16.1082 3.85471L16.2241 3.70015C16.2756 3.62288 16.34 3.5456 16.4173 3.46832C16.4946 3.39104 16.6105 3.288 16.7651 3.15919C16.9196 3.0304 17.0871 2.94024 17.2674 2.88872C17.4477 2.8372 17.6538 2.79856 17.8856 2.7728C18.2463 2.7728 18.5425 2.88872 18.7743 3.12056C19.0062 3.3524 19.135 3.59711 19.1607 3.85471C19.1607 4.24111 18.4266 7.35806 16.9583 13.2056C15.49 19.0531 14.7172 22.0412 14.6399 22.17C14.1762 23.5611 13.1844 24.7074 11.6646 25.609C10.1448 26.5106 8.40598 26.9742 6.44822 27C2.81607 27 1 26.1242 1 24.3725C1 23.7027 1.23184 23.1103 1.69552 22.5951C2.1592 22.0799 2.75167 21.8223 3.47295 21.8223C3.85935 21.8223 4.21999 21.9382 4.55487 22.17C4.88975 22.4019 5.07007 22.8011 5.09583 23.3679C5.09583 23.6255 5.07007 23.8702 5.01855 24.102C4.96703 24.3338 4.87687 24.5142 4.74807 24.643C4.61927 24.7718 4.51623 24.9006 4.43895 25.0294C4.36167 25.1582 4.27151 25.2612 4.16847 25.3385L4.09119 25.4158H4.12983C4.38743 25.493 5.16023 25.5317 6.44822 25.5317C7.4271 25.5317 8.1999 25.3771 8.76662 25.068C9.35909 24.7846 9.91293 24.3596 10.4281 23.7929C10.9433 23.2262 11.304 22.6208 11.51 21.9768C11.6646 21.4874 11.8707 20.6888 12.1283 19.5811C12.4632 18.3447 12.6306 17.6234 12.6306 17.4173ZM15.4513 6.40495L15.2968 5.97991C15.2195 5.69655 15.1551 5.50335 15.1036 5.40031C15.052 5.29727 14.9748 5.11695 14.8717 4.85935C14.7687 4.60175 14.6399 4.42143 14.4853 4.31839C14.3308 4.21535 14.1633 4.07367 13.983 3.89335C13.8027 3.71303 13.5708 3.59711 13.2875 3.5456C13.0041 3.49408 12.7208 3.45543 12.4374 3.42967C11.304 3.42967 10.2092 4.11231 9.15302 5.47759C8.38022 6.48223 7.73622 8.01494 7.22102 10.0757C6.70582 12.1365 6.44822 13.6306 6.44822 14.558C6.44822 16.593 7.24678 17.6105 8.8439 17.6105C10.2865 17.6105 11.7032 16.7089 13.0943 14.9057L13.4034 14.5193L15.4513 6.40495Z" fill="#132AF4" stroke="#132AF4" stroke-width="2"/>
<path d="M20.8938 17.0349C20.912 16.9256 20.9393 16.7799 20.9757 16.5978C21.0121 16.4157 21.1214 16.0696 21.3035 15.5597C21.4857 15.0498 21.6678 14.6218 21.8499 14.2757C22.032 13.9297 22.3234 13.5928 22.7241 13.265C23.1248 12.9371 23.5254 12.7823 23.9261 12.8005C24.3268 12.8188 24.7183 12.8825 25.1008 12.9918C25.4832 13.1011 25.7564 13.265 25.9203 13.4835C26.0842 13.7021 26.2299 13.9024 26.3574 14.0845C26.4849 14.2666 26.5578 14.4397 26.576 14.6036L26.6306 14.7948C26.6306 14.8312 26.6397 14.8494 26.6579 14.8494L26.9584 14.5489C28.0512 13.3833 29.3351 12.8005 30.8103 12.8005C31.1199 12.8005 31.4022 12.8188 31.6572 12.8552C31.9122 12.8916 32.1489 12.9554 32.3675 13.0464C32.586 13.1375 32.759 13.2285 32.8865 13.3196C33.014 13.4107 33.1506 13.5199 33.2963 13.6474C33.442 13.7749 33.5331 13.8933 33.5695 14.0026C33.6059 14.1118 33.6788 14.2302 33.788 14.3577C33.8973 14.4852 33.9337 14.5945 33.8973 14.6855C33.8609 14.7766 33.8882 14.8585 33.9793 14.9314C34.0703 15.0042 34.0885 15.068 34.0339 15.1226L34.2524 14.8494C35.3998 13.4835 36.7566 12.8005 38.3229 12.8005C39.3064 12.8005 40.0986 13.0464 40.6996 13.5381C41.3006 14.0299 41.6102 14.7493 41.6284 15.6963C41.6284 16.6251 41.2824 18.0639 40.5903 20.0126C39.8983 21.9613 39.5522 23.1269 39.5522 23.5094C39.5704 23.7643 39.616 23.9373 39.6888 24.0284C39.7617 24.1195 39.8983 24.165 40.0986 24.165C40.6085 24.165 41.082 23.8918 41.5191 23.3454C41.9562 22.7991 42.3114 22.0524 42.5846 21.1053C42.6392 20.905 42.6938 20.7866 42.7485 20.7502C42.8031 20.7138 42.9488 20.6956 43.1856 20.6956C43.5498 20.6956 43.7319 20.7684 43.7319 20.9141C43.7319 20.9323 43.6955 21.0689 43.6227 21.3239C43.477 21.852 43.2766 22.3711 43.0217 22.881C42.7667 23.391 42.3478 23.9009 41.765 24.4109C41.1822 24.9208 40.5539 25.1667 39.88 25.1485C39.0241 25.1485 38.4048 24.9026 38.0224 24.4109C37.6399 23.9191 37.4487 23.4092 37.4487 22.881C37.4487 22.535 37.7765 21.4423 38.4322 19.6028C39.0878 17.7634 39.4247 16.3793 39.4429 15.4504C39.4429 14.3759 39.0423 13.8386 38.2409 13.8386H38.1043C36.5381 13.8386 35.2177 14.7584 34.1432 16.5978L33.9519 16.9256L33.0504 20.5863C32.4494 22.9721 32.1034 24.2561 32.0123 24.4382C31.7756 24.9299 31.384 25.1758 30.8376 25.1758C30.6009 25.1758 30.4097 25.112 30.264 24.9846C30.1183 24.8571 30.0181 24.7478 29.9635 24.6567C29.9088 24.5657 29.8815 24.4746 29.8815 24.3835C29.8815 24.1832 30.1911 22.881 30.8103 20.477L31.7938 16.4885C31.8484 16.2153 31.8757 15.8693 31.8757 15.4504C31.8757 14.3759 31.4751 13.8386 30.6737 13.8386H30.5371C28.9709 13.8386 27.6505 14.7584 26.576 16.5978L26.3848 16.9256L25.4832 20.5863C24.8822 22.9721 24.5362 24.2561 24.4451 24.4382C24.2084 24.9299 23.8168 25.1758 23.2705 25.1758C23.0337 25.1758 22.8425 25.1211 22.6968 25.0119C22.5511 24.9026 22.4509 24.7933 22.3963 24.6841C22.3416 24.5748 22.3234 24.4837 22.3416 24.4109C22.3416 24.1741 22.6877 22.6807 23.3797 19.9306C24.09 17.126 24.4451 15.6599 24.4451 15.5324C24.4998 15.2592 24.5271 15.0133 24.5271 14.7948C24.5271 14.1392 24.2994 13.8113 23.8441 13.8113C23.4435 13.8113 23.1065 14.0663 22.8334 14.5762C22.5602 15.0862 22.3507 15.6417 22.205 16.2427C22.0593 16.8437 21.9501 17.1715 21.8772 17.2261C21.8408 17.2626 21.6951 17.2808 21.4401 17.2808H21.0577C20.9484 17.1715 20.8938 17.0895 20.8938 17.0349Z" fill="#132AF4" stroke="#132AF4" stroke-width="2"/>
<path d="M110 217L335.5 48.5" stroke="#132AF4" stroke-width="4"/>
<path d="M316 272.237C316 271.719 316.153 271.306 316.46 271H316.849C317.838 271.071 319.076 271.106 320.561 271.106C323.342 271.106 324.98 271.071 325.475 271H325.828C325.97 271.141 326.041 271.248 326.041 271.318C326.041 271.389 326.017 271.601 325.97 271.955C325.852 272.308 325.746 272.532 325.652 272.626H324.909C324.391 272.673 324.037 272.697 323.849 272.697C323.165 272.815 322.788 272.992 322.717 273.227C322.717 273.275 323.059 276.232 323.743 282.101C324.426 287.97 324.78 290.928 324.803 290.975L327.384 286.839C329.105 284.081 330.825 281.3 332.546 278.495C334.266 275.69 335.15 274.241 335.197 274.147C335.292 273.982 335.339 273.805 335.339 273.616C335.339 273.051 334.82 272.721 333.783 272.626C333.359 272.626 333.147 272.497 333.147 272.237C333.147 272.214 333.17 272.061 333.218 271.778C333.288 271.448 333.359 271.236 333.43 271.141C333.5 271.047 333.654 271 333.889 271C333.936 271 334.078 271 334.314 271C334.549 271 334.95 271.012 335.516 271.035C336.081 271.059 336.835 271.071 337.778 271.071C339.405 271.071 340.43 271.047 340.854 271H341.102C341.267 271.165 341.349 271.295 341.349 271.389C341.349 271.79 341.243 272.167 341.031 272.52C340.96 272.591 340.76 272.626 340.43 272.626C340.123 272.65 339.841 272.673 339.581 272.697C339.322 272.721 339.075 272.78 338.839 272.874C338.603 272.968 338.415 273.051 338.273 273.121C338.132 273.192 337.99 273.286 337.849 273.404C337.708 273.522 337.59 273.604 337.495 273.652C337.401 273.699 337.307 273.805 337.213 273.97C337.118 274.135 337.036 274.217 336.965 274.217L330.142 285.177C325.899 292.036 323.707 295.548 323.566 295.713C323.495 295.76 323.413 295.819 323.318 295.889L322.682 295.925H322.434C322.01 295.925 321.798 295.842 321.798 295.677C321.727 295.536 321.268 291.765 320.419 284.364C319.524 276.869 319.064 273.086 319.04 273.015C318.923 272.756 318.192 272.626 316.849 272.626H316.247C316.082 272.508 316 272.379 316 272.237Z" fill="#132AF4" stroke="#132AF4" stroke-width="2"/>
<path d="M337.19 294.151C337.19 292.235 337.748 290.394 338.865 288.627C339.981 286.861 341.389 285.461 343.089 284.428C344.788 283.395 346.488 282.87 348.188 282.853C349.688 282.853 350.879 283.278 351.762 284.128C351.912 284.295 352.037 284.436 352.137 284.553C352.237 284.67 352.304 284.753 352.337 284.803L352.362 284.878C352.412 284.878 352.637 284.661 353.037 284.228C353.154 284.128 353.279 284.011 353.412 283.878C353.545 283.745 353.679 283.611 353.812 283.478C353.945 283.345 354.028 283.253 354.062 283.203L354.437 282.828H354.587C354.82 282.828 354.937 282.887 354.937 283.003C354.937 283.07 354.67 284.211 354.137 286.428C353.537 288.744 353.237 289.91 353.237 289.927C353.204 290.01 353.162 290.06 353.112 290.077C353.062 290.094 352.912 290.11 352.662 290.127H352.262C352.162 290.027 352.112 289.952 352.112 289.902C352.112 289.885 352.12 289.827 352.137 289.727C352.154 289.627 352.17 289.46 352.187 289.227C352.204 288.994 352.212 288.727 352.212 288.427C352.212 287.244 351.946 286.211 351.412 285.328C350.879 284.445 349.971 283.995 348.688 283.978C348.388 283.978 348.063 284.003 347.713 284.053C347.363 284.103 346.921 284.211 346.388 284.378C345.855 284.545 345.347 284.778 344.863 285.078C344.38 285.378 343.855 285.778 343.289 286.278C342.722 286.778 342.239 287.369 341.839 288.052C341.439 288.736 341.047 289.585 340.664 290.602C340.281 291.618 340.023 292.735 339.889 293.951C339.856 294.251 339.839 294.576 339.839 294.926C339.839 295.726 339.956 296.434 340.189 297.051C340.423 297.667 340.723 298.142 341.089 298.475C341.456 298.809 341.872 299.092 342.339 299.325C342.805 299.559 343.239 299.7 343.639 299.75C344.039 299.8 344.414 299.834 344.763 299.85C345.663 299.85 346.488 299.659 347.238 299.275C347.988 298.892 348.504 298.4 348.788 297.801C348.838 297.667 348.963 297.209 349.163 296.426C349.363 295.643 349.463 295.201 349.463 295.101C349.463 294.968 349.354 294.884 349.138 294.851C348.921 294.818 348.421 294.793 347.638 294.776H346.713C346.613 294.676 346.563 294.609 346.563 294.576C346.563 294.543 346.58 294.385 346.613 294.101C346.68 293.885 346.763 293.726 346.863 293.626H347.288C347.955 293.66 349.121 293.676 350.787 293.676C351.454 293.676 351.995 293.676 352.412 293.676C352.829 293.676 353.129 293.668 353.312 293.651C353.495 293.635 353.595 293.635 353.612 293.651C353.845 293.651 353.962 293.726 353.962 293.876C353.962 293.91 353.945 294.026 353.912 294.226C353.828 294.543 353.745 294.718 353.662 294.751C353.612 294.768 353.487 294.776 353.287 294.776C352.954 294.776 352.612 294.801 352.262 294.851C352.145 294.901 352.062 294.976 352.012 295.076C351.962 295.176 351.846 295.601 351.662 296.351C351.512 296.901 351.387 297.367 351.287 297.751C350.871 299.45 350.637 300.325 350.587 300.375C350.554 300.408 350.512 300.425 350.462 300.425C350.296 300.425 350.063 300.258 349.763 299.925C349.463 299.592 349.271 299.334 349.188 299.15C349.188 299.134 349.171 299.134 349.138 299.15C349.104 299.167 349.054 299.209 348.988 299.275C347.755 300.425 346.088 301 343.989 301C341.972 301 340.339 300.358 339.09 299.075C337.84 297.792 337.207 296.151 337.19 294.151Z" fill="#132AF4" stroke="#132AF4" stroke-width="2"/>
<path d="M363.285 299.85C364.268 299.85 365.168 299.417 365.985 298.55C366.801 297.684 367.218 296.676 367.234 295.526C367.234 294.476 366.801 293.751 365.935 293.351C364.168 292.901 363.035 292.593 362.535 292.427C362.035 292.26 361.685 292.093 361.485 291.927C360.486 291.227 359.986 290.219 359.986 288.902C359.986 287.886 360.252 286.961 360.786 286.128C361.319 285.295 361.86 284.67 362.41 284.253C362.894 283.836 363.477 283.503 364.16 283.253C364.843 283.003 365.376 282.87 365.76 282.853H366.035H366.21C367.809 282.853 368.967 283.387 369.684 284.453C369.701 284.453 369.809 284.345 370.009 284.128C370.209 283.911 370.426 283.67 370.659 283.403C370.892 283.137 371.059 282.953 371.159 282.853C371.175 282.853 371.209 282.853 371.259 282.853C371.309 282.853 371.35 282.845 371.384 282.828C371.6 282.828 371.709 282.887 371.709 283.003C371.709 283.12 371.475 284.128 371.009 286.028C370.542 287.927 370.276 288.911 370.209 288.977C370.142 289.044 370.009 289.069 369.809 289.052C369.476 289.052 369.309 288.977 369.309 288.827C369.309 288.727 369.317 288.644 369.334 288.577C369.334 288.527 369.342 288.369 369.359 288.102C369.376 287.836 369.392 287.619 369.409 287.452C369.409 286.886 369.334 286.394 369.184 285.978C369.034 285.561 368.884 285.253 368.734 285.053C368.584 284.853 368.376 284.645 368.109 284.428C367.509 284.078 366.826 283.903 366.06 283.903C365.11 283.903 364.227 284.286 363.41 285.053C362.594 285.819 362.177 286.703 362.16 287.702C362.16 288.202 362.285 288.636 362.535 289.002C362.785 289.369 363.127 289.627 363.56 289.777C363.627 289.81 364.21 289.969 365.31 290.252C366.41 290.535 366.968 290.685 366.984 290.702C367.551 290.885 368.101 291.285 368.634 291.902C369.167 292.518 369.434 293.351 369.434 294.401C369.434 294.834 369.367 295.301 369.234 295.801C369.151 296.168 369.001 296.576 368.784 297.026C368.568 297.476 368.268 297.967 367.884 298.5C367.501 299.034 366.951 299.534 366.235 300C365.518 300.467 364.735 300.783 363.885 300.95C363.685 300.983 363.402 301 363.035 301C361.386 301 360.102 300.542 359.186 299.625L358.936 299.35L358.236 300.125C357.853 300.575 357.62 300.833 357.536 300.9C357.453 300.967 357.345 301 357.211 301C356.995 301 356.886 300.933 356.886 300.8C356.886 300.75 357.37 298.792 358.336 294.926C358.369 294.826 358.536 294.776 358.836 294.776H359.161C359.261 294.876 359.311 294.968 359.311 295.051C359.311 295.084 359.303 295.159 359.286 295.276C359.269 295.393 359.236 295.568 359.186 295.801C359.136 296.034 359.119 296.309 359.136 296.626C359.169 297.276 359.319 297.826 359.586 298.275C359.852 298.725 360.211 299.059 360.661 299.275C361.111 299.492 361.544 299.642 361.96 299.725C362.377 299.809 362.819 299.85 363.285 299.85Z" fill="#132AF4" stroke="#132AF4" stroke-width="2"/>
<path d="M384.308 286.768C384.308 286.768 384.308 286.615 384.308 286.309C384.308 286.002 384.473 285.766 384.803 285.601H405.343C405.697 285.79 405.874 286.026 405.874 286.309C405.874 286.591 405.697 286.827 405.343 287.016H384.803C384.473 286.851 384.308 286.615 384.308 286.309V286.768Z" fill="#132AF4" stroke="#132AF4" stroke-width="2"/>
<path d="M418.538 272.238C418.538 271.72 418.691 271.307 418.998 271.001H419.386C420.376 271.072 421.614 271.107 423.099 271.107C425.88 271.107 427.518 271.072 428.013 271.001H428.366C428.508 271.142 428.579 271.249 428.579 271.319C428.579 271.39 428.555 271.602 428.508 271.956C428.39 272.309 428.284 272.533 428.19 272.627H427.447C426.929 272.674 426.575 272.698 426.387 272.698C425.703 272.816 425.326 272.993 425.255 273.228C425.255 273.275 425.597 276.233 426.281 282.102C426.964 287.971 427.318 290.929 427.341 290.976L429.922 286.84C431.643 284.082 433.363 281.301 435.084 278.496C436.804 275.691 437.688 274.242 437.735 274.148C437.83 273.983 437.877 273.806 437.877 273.617C437.877 273.052 437.358 272.722 436.321 272.627C435.897 272.627 435.685 272.498 435.685 272.238C435.685 272.215 435.708 272.062 435.755 271.779C435.826 271.449 435.897 271.237 435.968 271.142C436.038 271.048 436.192 271.001 436.427 271.001C436.474 271.001 436.616 271.001 436.851 271.001C437.087 271.001 437.488 271.013 438.054 271.036C438.619 271.06 439.373 271.072 440.316 271.072C441.942 271.072 442.968 271.048 443.392 271.001H443.639C443.804 271.166 443.887 271.296 443.887 271.39C443.887 271.791 443.781 272.168 443.569 272.521C443.498 272.592 443.298 272.627 442.968 272.627C442.661 272.651 442.379 272.674 442.119 272.698C441.86 272.722 441.613 272.781 441.377 272.875C441.141 272.969 440.953 273.052 440.811 273.122C440.67 273.193 440.528 273.287 440.387 273.405C440.245 273.523 440.128 273.605 440.033 273.653C439.939 273.7 439.845 273.806 439.751 273.971C439.656 274.136 439.574 274.218 439.503 274.218L432.68 285.178C428.437 292.037 426.245 295.549 426.104 295.714C426.033 295.761 425.951 295.82 425.856 295.89L425.22 295.926H424.972C424.548 295.926 424.336 295.843 424.336 295.678C424.265 295.537 423.806 291.766 422.957 284.365C422.062 276.87 421.602 273.087 421.578 273.016C421.461 272.757 420.73 272.627 419.386 272.627H418.785C418.62 272.509 418.538 272.38 418.538 272.238Z" fill="#132AF4" stroke="#132AF4" stroke-width="2"/>
<path d="M439.478 289.527C439.161 289.527 439.003 289.461 439.003 289.327C439.003 289.244 439.136 288.777 439.403 287.927C439.669 287.078 439.953 286.236 440.252 285.403L440.677 284.178C440.761 283.878 440.869 283.662 441.002 283.528H452.7H454.95C455.483 283.528 455.8 283.537 455.9 283.553C456 283.57 456.058 283.645 456.075 283.778C456.075 283.878 455.933 284.828 455.65 286.628C455.366 288.427 455.208 289.336 455.175 289.352C455.175 289.469 455.016 289.527 454.7 289.527C454.55 289.527 454.45 289.527 454.4 289.527C454.35 289.527 454.3 289.486 454.25 289.402L454.2 289.327C454.2 289.227 454.25 288.852 454.35 288.202C454.45 287.553 454.5 287.044 454.5 286.678C454.5 286.094 454.392 285.653 454.175 285.353C453.958 285.053 453.5 284.845 452.8 284.728C452.717 284.711 452.234 284.695 451.35 284.678C450.584 284.678 450.101 284.686 449.901 284.703C449.701 284.72 449.551 284.786 449.451 284.903C449.434 284.92 448.843 287.244 447.676 291.877C446.51 296.509 445.926 298.867 445.926 298.95C445.926 299.15 446.66 299.267 448.126 299.3C448.659 299.3 449.001 299.309 449.151 299.325C449.301 299.342 449.376 299.417 449.376 299.55C449.376 299.634 449.351 299.75 449.301 299.9C449.234 300.2 449.159 300.375 449.076 300.425L449.026 300.45C448.976 300.45 448.918 300.45 448.851 300.45C448.768 300.45 448.334 300.442 447.551 300.425C446.768 300.409 445.643 300.4 444.177 300.4C442.027 300.4 440.661 300.417 440.077 300.45H439.703C439.603 300.35 439.553 300.275 439.553 300.225C439.553 300.175 439.569 300.025 439.603 299.775C439.669 299.559 439.753 299.4 439.853 299.3H440.552H440.827C442.16 299.3 442.952 299.225 443.202 299.075C443.219 299.059 443.235 299.05 443.252 299.05C443.335 299 443.419 298.834 443.502 298.551C443.585 298.267 443.918 296.959 444.502 294.626C444.785 293.493 445.018 292.568 445.202 291.852C446.368 287.269 446.951 284.928 446.951 284.828C446.951 284.745 446.71 284.703 446.226 284.703H445.452C444.335 284.703 443.602 284.753 443.252 284.853C442.502 285.02 441.919 285.361 441.502 285.878C441.086 286.394 440.636 287.361 440.152 288.777C440.036 289.144 439.953 289.361 439.903 289.427C439.853 289.494 439.736 289.527 439.553 289.527H439.478Z" fill="#132AF4" stroke="#132AF4" stroke-width="2"/>
<path d="M461.774 284.528C461.207 284.528 460.907 284.495 460.874 284.428C460.857 284.395 460.849 284.328 460.849 284.228C460.849 283.828 460.941 283.553 461.124 283.403C461.157 283.387 461.299 283.378 461.549 283.378C462.232 283.412 463.365 283.428 464.948 283.428C465.515 283.428 466.04 283.428 466.523 283.428C467.006 283.428 467.381 283.42 467.648 283.403C467.914 283.387 468.081 283.387 468.148 283.403C468.414 283.403 468.548 283.487 468.548 283.653C468.548 283.687 468.531 283.803 468.498 284.003C468.414 284.286 468.331 284.453 468.248 284.503H468.198C468.164 284.503 468.123 284.503 468.073 284.503C468.023 284.503 467.964 284.503 467.898 284.503C467.831 284.503 467.756 284.511 467.673 284.528C467.589 284.545 467.514 284.545 467.448 284.528C466.798 284.545 466.381 284.57 466.198 284.603C466.015 284.636 465.865 284.728 465.748 284.878C465.698 284.945 465.432 285.969 464.948 287.952C464.832 288.386 464.707 288.869 464.573 289.402C464.44 289.935 464.34 290.327 464.273 290.577L464.173 290.952C464.173 290.985 465.382 291.002 467.798 291.002H471.422L471.447 290.927C471.447 290.877 471.705 289.852 472.222 287.852C472.689 285.936 472.922 284.911 472.922 284.778C472.922 284.645 472.447 284.561 471.497 284.528C471.114 284.528 470.864 284.511 470.747 284.478C470.631 284.445 470.572 284.37 470.572 284.253C470.572 284.22 470.589 284.12 470.622 283.953C470.689 283.67 470.739 283.512 470.772 283.478C470.806 283.445 470.939 283.42 471.172 283.403C471.255 283.403 471.605 283.412 472.222 283.428C472.838 283.445 473.622 283.453 474.572 283.453C475.605 283.453 476.396 283.445 476.946 283.428C477.496 283.412 477.796 283.403 477.846 283.403C478.129 283.403 478.271 283.487 478.271 283.653C478.271 284.103 478.171 284.386 477.971 284.503H477.921C477.888 284.503 477.846 284.503 477.796 284.503C477.746 284.503 477.688 284.503 477.621 284.503C477.554 284.503 477.479 284.511 477.396 284.528C477.313 284.545 477.238 284.545 477.171 284.528C476.521 284.545 476.105 284.57 475.921 284.603C475.738 284.636 475.588 284.728 475.471 284.878C475.421 284.961 474.821 287.319 473.672 291.952C472.522 296.584 471.939 298.934 471.922 299C471.922 299.117 471.955 299.175 472.022 299.175C472.155 299.225 472.605 299.267 473.372 299.3H474.147C474.247 299.434 474.297 299.509 474.297 299.525C474.297 299.542 474.272 299.692 474.222 299.975C474.155 300.192 474.072 300.35 473.972 300.45H473.597C472.98 300.417 471.864 300.4 470.247 300.4C469.681 300.4 469.156 300.4 468.673 300.4C468.189 300.4 467.806 300.4 467.523 300.4C467.24 300.4 467.065 300.409 466.998 300.425C466.715 300.425 466.573 300.35 466.573 300.2C466.573 300.117 466.598 300 466.648 299.85C466.731 299.534 466.815 299.359 466.898 299.325C466.965 299.309 467.09 299.3 467.273 299.3H467.423C467.873 299.3 468.373 299.275 468.923 299.225C469.023 299.209 469.089 299.2 469.123 299.2C469.156 299.2 469.206 299.159 469.272 299.075C469.339 298.992 469.389 298.917 469.422 298.85C469.456 298.784 469.506 298.634 469.572 298.401C469.639 298.167 469.697 297.934 469.747 297.701C469.797 297.467 469.889 297.109 470.022 296.626C470.139 296.159 470.231 295.784 470.297 295.501C470.847 293.301 471.122 292.193 471.122 292.177C471.122 292.16 469.914 292.152 467.498 292.152H463.873L463.049 295.526C462.482 297.759 462.199 298.917 462.199 299C462.199 299.117 462.265 299.192 462.399 299.225C462.532 299.259 462.949 299.284 463.648 299.3H464.423C464.523 299.434 464.573 299.509 464.573 299.525C464.573 299.542 464.548 299.692 464.498 299.975C464.432 300.192 464.348 300.35 464.248 300.45H463.873C463.257 300.417 462.14 300.4 460.524 300.4C459.958 300.4 459.433 300.4 458.949 300.4C458.466 300.4 458.083 300.4 457.8 300.4C457.516 300.4 457.341 300.409 457.275 300.425C456.991 300.425 456.85 300.35 456.85 300.2C456.85 300.167 456.875 300.05 456.925 299.85C457.008 299.534 457.091 299.359 457.175 299.325C457.241 299.309 457.366 299.3 457.55 299.3H457.7C458.149 299.3 458.649 299.275 459.199 299.225C459.433 299.175 459.591 299.075 459.674 298.925C459.724 298.859 460.324 296.543 461.474 291.977C462.624 287.411 463.199 285.003 463.199 284.753C463.199 284.636 462.724 284.561 461.774 284.528Z" fill="#132AF4" stroke="#132AF4" stroke-width="2"/>
<path d="M156.55 324.01C156.83 324.01 157.33 324.02 158.05 324.04C158.77 324.06 159.44 324.08 160.06 324.1C161.08 324.1 161.93 324.09 162.61 324.07C163.29 324.05 163.68 324.04 163.78 324.04C164.14 324.04 164.32 324.12 164.32 324.28C164.32 324.36 164.29 324.51 164.23 324.73C164.13 325.09 164.04 325.29 163.96 325.33C163.88 325.37 163.66 325.39 163.3 325.39C162.8 325.41 162.4 325.46 162.1 325.54C161.8 325.62 161.59 325.7 161.47 325.78C161.35 325.86 161.32 325.95 161.38 326.05C161.38 326.29 161.54 328.67 161.86 333.19C162.18 337.71 162.34 340.1 162.34 340.36L162.4 340.27C162.44 340.21 162.5 340.11 162.58 339.97C162.66 339.83 162.78 339.64 162.94 339.4C163.1 339.16 163.27 338.86 163.45 338.5C163.63 338.14 163.87 337.73 164.17 337.27C164.47 336.81 164.77 336.27 165.07 335.65C165.37 335.03 165.76 334.36 166.24 333.64C168.32 329.96 169.5 327.86 169.78 327.34C170.06 326.82 170.21 326.5 170.23 326.38C170.23 326.08 170.04 325.84 169.66 325.66C169.28 325.48 168.86 325.39 168.4 325.39C168.12 325.39 167.98 325.29 167.98 325.09C167.98 325.03 168 324.9 168.04 324.7C168.12 324.38 168.18 324.19 168.22 324.13C168.26 324.07 168.4 324.04 168.64 324.04C168.7 324.04 168.87 324.04 169.15 324.04C169.43 324.04 169.82 324.04 170.32 324.04C170.82 324.04 171.36 324.05 171.94 324.07C173.26 324.07 174.11 324.05 174.49 324.01C174.77 324.01 174.91 324.12 174.91 324.34C174.91 324.46 174.88 324.63 174.82 324.85C174.76 325.07 174.69 325.22 174.61 325.3C174.53 325.38 174.43 325.41 174.31 325.39C173.87 325.39 173.47 325.45 173.11 325.57C172.75 325.69 172.45 325.83 172.21 325.99C171.97 326.15 171.78 326.32 171.64 326.5C171.5 326.68 171.38 326.84 171.28 326.98L171.16 327.16L166.09 336.04C162.73 341.96 161.04 344.93 161.02 344.95C160.9 345.09 160.66 345.16 160.3 345.16C160 345.16 159.81 345.11 159.73 345.01C159.67 344.95 159.48 342.49 159.16 337.63C158.84 332.77 158.67 330.26 158.65 330.1L158.29 330.64C157.85 331.38 156.57 333.61 154.45 337.33C151.57 342.37 150.11 344.91 150.07 344.95C150.03 344.99 149.98 345.03 149.92 345.07C149.82 345.13 149.64 345.16 149.38 345.16C149 345.16 148.79 345.09 148.75 344.95C148.75 344.89 148.53 341.7 148.09 335.38C147.65 329.06 147.42 325.88 147.4 325.84C147.36 325.66 147.26 325.55 147.1 325.51C146.94 325.47 146.55 325.43 145.93 325.39H145.21C145.07 325.25 145 325.14 145 325.06C145.02 324.6 145.15 324.25 145.39 324.01H145.75C146.59 324.07 147.59 324.1 148.75 324.1C151.25 324.1 152.62 324.07 152.86 324.01H153.16C153.28 324.13 153.34 324.22 153.34 324.28C153.34 324.34 153.32 324.52 153.28 324.82C153.18 325.12 153.09 325.31 153.01 325.39H152.38C151.16 325.45 150.51 325.62 150.43 325.9C151.03 335.1 151.37 339.94 151.45 340.42L158.5 328L158.44 326.89C158.38 326.05 158.28 325.6 158.14 325.54C158.02 325.46 157.6 325.41 156.88 325.39C156.5 325.39 156.25 325.37 156.13 325.33C156.01 325.29 155.95 325.2 155.95 325.06C155.95 325.02 155.97 324.9 156.01 324.7C156.03 324.62 156.05 324.53 156.07 324.43C156.09 324.33 156.1 324.26 156.1 324.22C156.1 324.18 156.13 324.14 156.19 324.1C156.25 324.06 156.29 324.04 156.31 324.04C156.33 324.04 156.41 324.03 156.55 324.01Z" fill="#132AF4" stroke="#132AF4" stroke-width="2"/>
<path d="M187.6 322C187.78 322 187.93 322.06 188.05 322.18C188.17 322.3 188.23 322.44 188.23 322.6C188.23 322.7 186.5 327.52 183.04 337.06C179.58 346.6 177.79 351.48 177.67 351.7C177.53 351.9 177.36 352 177.16 352C177.02 352 176.89 351.95 176.77 351.85C176.65 351.75 176.59 351.61 176.59 351.43C176.59 351.23 178.33 346.35 181.81 336.79C185.29 327.23 187.06 322.4 187.12 322.3C187.2 322.1 187.36 322 187.6 322Z" fill="#132AF4" stroke="#132AF4" stroke-width="2"/>
<path d="M196.75 325.39C196.07 325.39 195.71 325.35 195.67 325.27C195.65 325.23 195.64 325.15 195.64 325.03C195.64 324.55 195.75 324.22 195.97 324.04C196.01 324.02 196.16 324.01 196.42 324.01C197.5 324.07 198.77 324.1 200.23 324.1C203.05 324.1 204.67 324.07 205.09 324.01H205.45C205.57 324.13 205.63 324.22 205.63 324.28C205.63 324.34 205.61 324.52 205.57 324.82C205.47 325.12 205.38 325.31 205.3 325.39H204.16C202.78 325.41 201.97 325.5 201.73 325.66C201.59 325.74 201.45 326.02 201.31 326.5C201.17 326.98 200.5 329.62 199.3 334.42C198.98 335.72 198.64 337.1 198.28 338.56C197.92 340.02 197.65 341.12 197.47 341.86L197.2 342.94C197.2 343.02 197.29 343.06 197.47 343.06C197.65 343.06 198.24 343.08 199.24 343.12H199.75C200.39 343.12 200.9 343.11 201.28 343.09C201.66 343.07 202.15 343 202.75 342.88C203.35 342.76 203.85 342.58 204.25 342.34C204.65 342.1 205.09 341.76 205.57 341.32C206.05 340.88 206.47 340.33 206.83 339.67C207.15 339.07 207.45 338.4 207.73 337.66C208.01 336.92 208.18 336.5 208.24 336.4C208.34 336.34 208.51 336.31 208.75 336.31H209.14C209.26 336.49 209.32 336.6 209.32 336.64C209.32 336.68 209.12 337.27 208.72 338.41C208.32 339.55 207.88 340.75 207.4 342.01C206.92 343.27 206.66 344.01 206.62 344.23C206.58 344.33 206.54 344.39 206.5 344.41C206.46 344.43 206.3 344.46 206.02 344.5C205.74 344.54 205.31 344.55 204.73 344.53C204.51 344.53 203.75 344.53 202.45 344.53C201.15 344.53 199.91 344.52 198.73 344.5H193.39C191.71 344.5 190.87 344.4 190.87 344.2C190.87 344.06 190.89 343.92 190.93 343.78C191.03 343.4 191.13 343.19 191.23 343.15C191.31 343.13 191.46 343.12 191.68 343.12H191.86C192.4 343.12 193 343.09 193.66 343.03C193.94 342.97 194.13 342.85 194.23 342.67C194.29 342.59 195.01 339.81 196.39 334.33C197.77 328.85 198.46 325.96 198.46 325.66C198.46 325.52 197.89 325.43 196.75 325.39Z" fill="#132AF4" stroke="#132AF4" stroke-width="2"/>
<path d="M700.55 324.01C700.83 324.01 701.33 324.02 702.05 324.04C702.77 324.06 703.44 324.08 704.06 324.1C705.08 324.1 705.93 324.09 706.61 324.07C707.29 324.05 707.68 324.04 707.78 324.04C708.14 324.04 708.32 324.12 708.32 324.28C708.32 324.36 708.29 324.51 708.23 324.73C708.13 325.09 708.04 325.29 707.96 325.33C707.88 325.37 707.66 325.39 707.3 325.39C706.8 325.41 706.4 325.46 706.1 325.54C705.8 325.62 705.59 325.7 705.47 325.78C705.35 325.86 705.32 325.95 705.38 326.05C705.38 326.29 705.54 328.67 705.86 333.19C706.18 337.71 706.34 340.1 706.34 340.36L706.4 340.27C706.44 340.21 706.5 340.11 706.58 339.97C706.66 339.83 706.78 339.64 706.94 339.4C707.1 339.16 707.27 338.86 707.45 338.5C707.63 338.14 707.87 337.73 708.17 337.27C708.47 336.81 708.77 336.27 709.07 335.65C709.37 335.03 709.76 334.36 710.24 333.64C712.32 329.96 713.5 327.86 713.78 327.34C714.06 326.82 714.21 326.5 714.23 326.38C714.23 326.08 714.04 325.84 713.66 325.66C713.28 325.48 712.86 325.39 712.4 325.39C712.12 325.39 711.98 325.29 711.98 325.09C711.98 325.03 712 324.9 712.04 324.7C712.12 324.38 712.18 324.19 712.22 324.13C712.26 324.07 712.4 324.04 712.64 324.04C712.7 324.04 712.87 324.04 713.15 324.04C713.43 324.04 713.82 324.04 714.32 324.04C714.82 324.04 715.36 324.05 715.94 324.07C717.26 324.07 718.11 324.05 718.49 324.01C718.77 324.01 718.91 324.12 718.91 324.34C718.91 324.46 718.88 324.63 718.82 324.85C718.76 325.07 718.69 325.22 718.61 325.3C718.53 325.38 718.43 325.41 718.31 325.39C717.87 325.39 717.47 325.45 717.11 325.57C716.75 325.69 716.45 325.83 716.21 325.99C715.97 326.15 715.78 326.32 715.64 326.5C715.5 326.68 715.38 326.84 715.28 326.98L715.16 327.16L710.09 336.04C706.73 341.96 705.04 344.93 705.02 344.95C704.9 345.09 704.66 345.16 704.3 345.16C704 345.16 703.81 345.11 703.73 345.01C703.67 344.95 703.48 342.49 703.16 337.63C702.84 332.77 702.67 330.26 702.65 330.1L702.29 330.64C701.85 331.38 700.57 333.61 698.45 337.33C695.57 342.37 694.11 344.91 694.07 344.95C694.03 344.99 693.98 345.03 693.92 345.07C693.82 345.13 693.64 345.16 693.38 345.16C693 345.16 692.79 345.09 692.75 344.95C692.75 344.89 692.53 341.7 692.09 335.38C691.65 329.06 691.42 325.88 691.4 325.84C691.36 325.66 691.26 325.55 691.1 325.51C690.94 325.47 690.55 325.43 689.93 325.39H689.21C689.07 325.25 689 325.14 689 325.06C689.02 324.6 689.15 324.25 689.39 324.01H689.75C690.59 324.07 691.59 324.1 692.75 324.1C695.25 324.1 696.62 324.07 696.86 324.01H697.16C697.28 324.13 697.34 324.22 697.34 324.28C697.34 324.34 697.32 324.52 697.28 324.82C697.18 325.12 697.09 325.31 697.01 325.39H696.38C695.16 325.45 694.51 325.62 694.43 325.9C695.03 335.1 695.37 339.94 695.45 340.42L702.5 328L702.44 326.89C702.38 326.05 702.28 325.6 702.14 325.54C702.02 325.46 701.6 325.41 700.88 325.39C700.5 325.39 700.25 325.37 700.13 325.33C700.01 325.29 699.95 325.2 699.95 325.06C699.95 325.02 699.97 324.9 700.01 324.7C700.03 324.62 700.05 324.53 700.07 324.43C700.09 324.33 700.1 324.26 700.1 324.22C700.1 324.18 700.13 324.14 700.19 324.1C700.25 324.06 700.29 324.04 700.31 324.04C700.33 324.04 700.41 324.03 700.55 324.01Z" fill="#132AF4" stroke="#132AF4" stroke-width="2"/>
<path d="M731.6 322C731.78 322 731.93 322.06 732.05 322.18C732.17 322.3 732.23 322.44 732.23 322.6C732.23 322.7 730.5 327.52 727.04 337.06C723.58 346.6 721.79 351.48 721.67 351.7C721.53 351.9 721.36 352 721.16 352C721.02 352 720.89 351.95 720.77 351.85C720.65 351.75 720.59 351.61 720.59 351.43C720.59 351.23 722.33 346.35 725.81 336.79C729.29 327.23 731.06 322.4 731.12 322.3C731.2 322.1 731.36 322 731.6 322Z" fill="#132AF4" stroke="#132AF4" stroke-width="2"/>
<path d="M740.75 325.39C740.07 325.39 739.71 325.35 739.67 325.27C739.65 325.23 739.64 325.15 739.64 325.03C739.64 324.55 739.75 324.22 739.97 324.04C740.01 324.02 740.16 324.01 740.42 324.01C741.5 324.07 742.77 324.1 744.23 324.1C747.05 324.1 748.67 324.07 749.09 324.01H749.45C749.57 324.13 749.63 324.22 749.63 324.28C749.63 324.34 749.61 324.52 749.57 324.82C749.47 325.12 749.38 325.31 749.3 325.39H748.16C746.78 325.41 745.97 325.5 745.73 325.66C745.59 325.74 745.45 326.02 745.31 326.5C745.17 326.98 744.5 329.62 743.3 334.42C742.98 335.72 742.64 337.1 742.28 338.56C741.92 340.02 741.65 341.12 741.47 341.86L741.2 342.94C741.2 343.02 741.29 343.06 741.47 343.06C741.65 343.06 742.24 343.08 743.24 343.12H743.75C744.39 343.12 744.9 343.11 745.28 343.09C745.66 343.07 746.15 343 746.75 342.88C747.35 342.76 747.85 342.58 748.25 342.34C748.65 342.1 749.09 341.76 749.57 341.32C750.05 340.88 750.47 340.33 750.83 339.67C751.15 339.07 751.45 338.4 751.73 337.66C752.01 336.92 752.18 336.5 752.24 336.4C752.34 336.34 752.51 336.31 752.75 336.31H753.14C753.26 336.49 753.32 336.6 753.32 336.64C753.32 336.68 753.12 337.27 752.72 338.41C752.32 339.55 751.88 340.75 751.4 342.01C750.92 343.27 750.66 344.01 750.62 344.23C750.58 344.33 750.54 344.39 750.5 344.41C750.46 344.43 750.3 344.46 750.02 344.5C749.74 344.54 749.31 344.55 748.73 344.53C748.51 344.53 747.75 344.53 746.45 344.53C745.15 344.53 743.91 344.52 742.73 344.5H737.39C735.71 344.5 734.87 344.4 734.87 344.2C734.87 344.06 734.89 343.92 734.93 343.78C735.03 343.4 735.13 343.19 735.23 343.15C735.31 343.13 735.46 343.12 735.68 343.12H735.86C736.4 343.12 737 343.09 737.66 343.03C737.94 342.97 738.13 342.85 738.23 342.67C738.29 342.59 739.01 339.81 740.39 334.33C741.77 328.85 742.46 325.96 742.46 325.66C742.46 325.52 741.89 325.43 740.75 325.39Z" fill="#132AF4" stroke="#132AF4" stroke-width="2"/>
<path d="M1243.61 346.563C1243.2 346.563 1243 346.455 1243 346.238C1243 346.19 1243.04 346.022 1243.11 345.734C1243.23 345.278 1243.35 345.026 1243.47 344.978C1243.54 344.954 1243.72 344.942 1244.01 344.942H1244.22C1245.67 344.942 1246.58 344.858 1246.96 344.69C1246.99 344.69 1247.01 344.678 1247.03 344.654C1247.15 344.606 1247.29 344.33 1247.43 343.826C1247.57 343.321 1248.16 340.968 1249.19 336.767C1249.48 335.686 1249.7 334.834 1249.84 334.21C1251.52 327.487 1252.36 324.102 1252.36 324.054C1252.32 323.958 1252.29 323.898 1252.29 323.874C1252.05 323.729 1251.2 323.657 1249.73 323.657H1249.01C1248.8 323.513 1248.75 323.213 1248.87 322.757C1248.97 322.397 1249.04 322.181 1249.09 322.109C1249.13 322.037 1249.3 322.001 1249.59 322.001H1249.73C1251.46 322.049 1253.22 322.073 1254.99 322.073C1257.92 322.073 1259.46 322.049 1259.6 322.001H1259.96C1260.13 322.169 1260.21 322.301 1260.21 322.397C1260.21 322.493 1260.18 322.697 1260.11 323.009C1260.03 323.321 1259.95 323.513 1259.85 323.585C1259.78 323.633 1259.51 323.657 1259.03 323.657C1258.28 323.657 1257.51 323.693 1256.72 323.765C1256.39 323.838 1256.16 323.97 1256.04 324.162C1255.87 324.498 1255.26 326.791 1254.2 331.04C1253.94 332.169 1253.67 333.261 1253.41 334.318C1251.73 340.944 1250.89 344.33 1250.89 344.474C1250.89 344.642 1251.01 344.75 1251.25 344.798C1251.49 344.846 1252.11 344.894 1253.12 344.942H1254.27C1254.42 345.134 1254.49 345.242 1254.49 345.266C1254.49 345.29 1254.45 345.506 1254.38 345.914C1254.28 346.226 1254.16 346.455 1254.02 346.599H1253.44C1252.56 346.551 1250.91 346.527 1248.51 346.527C1247.65 346.527 1246.85 346.527 1246.13 346.527C1245.41 346.527 1244.84 346.527 1244.4 346.527C1243.97 346.527 1243.71 346.539 1243.61 346.563Z" fill="#132AF4" stroke="#132AF4" stroke-width="2"/>
<path d="M1266.41 336.01C1266.41 335.891 1265.92 335.815 1264.95 335.781C1264.56 335.781 1264.31 335.772 1264.19 335.755C1264.07 335.738 1264.01 335.662 1264.01 335.526C1264.01 335.39 1264.05 335.22 1264.11 335.017C1264.18 334.813 1264.24 334.686 1264.29 334.635C1264.33 334.618 1266.02 334.609 1269.36 334.609C1272.19 334.626 1273.78 334.635 1274.12 334.635C1274.46 334.635 1274.8 334.686 1275.14 334.788C1276.36 335.076 1277.4 335.747 1278.25 336.799C1279.09 337.852 1279.53 339.26 1279.54 341.026C1279.54 343.674 1278.64 346.05 1276.82 348.155C1275 350.26 1272.86 351.516 1270.4 351.924L1270.05 351.975L1265.11 352H1262.28H1260.93C1260.52 352 1260.26 351.983 1260.14 351.949C1260.02 351.915 1259.96 351.839 1259.94 351.72C1259.94 351.686 1259.96 351.567 1260.01 351.363C1260.08 351.092 1260.15 350.939 1260.22 350.905C1260.29 350.871 1260.48 350.846 1260.8 350.829C1261.26 350.829 1261.77 350.803 1262.33 350.752C1262.57 350.701 1262.73 350.6 1262.82 350.447C1262.87 350.379 1263.48 348.019 1264.65 343.368C1265.82 338.717 1266.41 336.264 1266.41 336.01ZM1277 340.058C1277 339.413 1276.9 338.836 1276.72 338.327C1276.53 337.818 1276.31 337.419 1276.06 337.13C1275.8 336.842 1275.49 336.595 1275.11 336.392C1274.74 336.188 1274.41 336.052 1274.12 335.984C1273.83 335.916 1273.54 335.857 1273.23 335.806C1273.2 335.806 1273.08 335.806 1272.87 335.806C1272.67 335.806 1272.42 335.806 1272.13 335.806C1271.85 335.806 1271.57 335.798 1271.29 335.781H1270.2C1269.45 335.781 1269.03 335.865 1268.93 336.035C1268.89 336.103 1268.27 338.547 1267.07 343.368C1265.86 348.189 1265.26 350.625 1265.26 350.676C1265.26 350.744 1265.35 350.778 1265.54 350.778C1265.73 350.778 1266.38 350.786 1267.5 350.803C1267.59 350.803 1267.75 350.803 1267.98 350.803C1268.22 350.803 1268.43 350.812 1268.6 350.829C1270.73 350.829 1272.5 350.133 1273.89 348.741C1274.5 348.13 1275 347.417 1275.39 346.602C1275.78 345.787 1276.15 344.709 1276.49 343.368C1276.83 342.027 1277 340.924 1277 340.058Z" fill="#132AF4" stroke="#132AF4" stroke-width="2"/>
</svg>
