<?xml version="1.0" encoding="utf-8" standalone="no"?>
<!DOCTYPE svg PUBLIC "-//W3C//DTD SVG 1.1//EN"
  "http://www.w3.org/Graphics/SVG/1.1/DTD/svg11.dtd">
<svg xmlns:xlink="http://www.w3.org/1999/xlink" width="460.8pt" height="345.6pt" viewBox="0 0 460.8 345.6" xmlns="http://www.w3.org/2000/svg" version="1.1">
 <metadata>
  <rdf:RDF xmlns:dc="http://purl.org/dc/elements/1.1/" xmlns:cc="http://creativecommons.org/ns#" xmlns:rdf="http://www.w3.org/1999/02/22-rdf-syntax-ns#">
   <cc:Work>
    <dc:type rdf:resource="http://purl.org/dc/dcmitype/StillImage"/>
    <dc:date>2024-06-27T17:57:07.727970</dc:date>
    <dc:format>image/svg+xml</dc:format>
    <dc:creator>
     <cc:Agent>
      <dc:title>Matplotlib v3.7.2, https://matplotlib.org/</dc:title>
     </cc:Agent>
    </dc:creator>
   </cc:Work>
  </rdf:RDF>
 </metadata>
 <defs>
  <style type="text/css">*{stroke-linejoin: round; stroke-linecap: butt}</style>
 </defs>
 <g id="figure_1">
  <g id="patch_1">
   <path d="M 0 345.6 
L 460.8 345.6 
L 460.8 0 
L 0 0 
L 0 345.6 
z
" style="fill: none"/>
  </g>
  <g id="axes_1">
   <g id="patch_2">
    <path d="M 16.678365 328.89976 
L 457.79976 328.89976 
L 457.79976 18.118365 
L 16.678365 18.118365 
L 16.678365 328.89976 
z
" style="fill: none"/>
   </g>
   <g id="PathCollection_1">
    <defs>
     <path id="m6bc79703db" d="M 0 3 
C 0.795609 3 1.55874 2.683901 2.12132 2.12132 
C 2.683901 1.55874 3 0.795609 3 0 
C 3 -0.795609 2.683901 -1.55874 2.12132 -2.12132 
C 1.55874 -2.683901 0.795609 -3 0 -3 
C -0.795609 -3 -1.55874 -2.683901 -2.12132 -2.12132 
C -2.683901 -1.55874 -3 -0.795609 -3 0 
C -3 0.795609 -2.683901 1.55874 -2.12132 2.12132 
C -1.55874 2.683901 -0.795609 3 0 3 
z
" style="stroke: #ff0000"/>
    </defs>
    <g clip-path="url(#p4f7822ea44)">
     <use xlink:href="#m6bc79703db" x="370.912213" y="145.838741" style="fill: #ff0000; stroke: #ff0000"/>
    </g>
   </g>
   <g id="matplotlib.axis_1">
    <g id="xtick_1">
     <g id="line2d_1">
      <path d="M 36.729338 328.89976 
L 36.729338 18.118365 
" clip-path="url(#p4f7822ea44)" style="fill: none; stroke: #b0b0b0; stroke-width: 0.8; stroke-linecap: square"/>
     </g>
    </g>
    <g id="xtick_2">
     <g id="line2d_2">
      <path d="M 70.147625 328.89976 
L 70.147625 18.118365 
" clip-path="url(#p4f7822ea44)" style="fill: none; stroke: #b0b0b0; stroke-width: 0.8; stroke-linecap: square"/>
     </g>
    </g>
    <g id="xtick_3">
     <g id="line2d_3">
      <path d="M 103.565913 328.89976 
L 103.565913 18.118365 
" clip-path="url(#p4f7822ea44)" style="fill: none; stroke: #b0b0b0; stroke-width: 0.8; stroke-linecap: square"/>
     </g>
    </g>
    <g id="xtick_4">
     <g id="line2d_4">
      <path d="M 136.9842 328.89976 
L 136.9842 18.118365 
" clip-path="url(#p4f7822ea44)" style="fill: none; stroke: #b0b0b0; stroke-width: 0.8; stroke-linecap: square"/>
     </g>
    </g>
    <g id="xtick_5">
     <g id="line2d_5">
      <path d="M 170.402488 328.89976 
L 170.402488 18.118365 
" clip-path="url(#p4f7822ea44)" style="fill: none; stroke: #b0b0b0; stroke-width: 0.8; stroke-linecap: square"/>
     </g>
    </g>
    <g id="xtick_6">
     <g id="line2d_6">
      <path d="M 203.820775 328.89976 
L 203.820775 18.118365 
" clip-path="url(#p4f7822ea44)" style="fill: none; stroke: #b0b0b0; stroke-width: 0.8; stroke-linecap: square"/>
     </g>
    </g>
    <g id="xtick_7">
     <g id="line2d_7">
      <path d="M 237.239063 328.89976 
L 237.239063 18.118365 
" clip-path="url(#p4f7822ea44)" style="fill: none; stroke: #b0b0b0; stroke-width: 0.8; stroke-linecap: square"/>
     </g>
    </g>
    <g id="xtick_8">
     <g id="line2d_8">
      <path d="M 270.65735 328.89976 
L 270.65735 18.118365 
" clip-path="url(#p4f7822ea44)" style="fill: none; stroke: #b0b0b0; stroke-width: 0.8; stroke-linecap: square"/>
     </g>
    </g>
    <g id="xtick_9">
     <g id="line2d_9">
      <path d="M 304.075637 328.89976 
L 304.075637 18.118365 
" clip-path="url(#p4f7822ea44)" style="fill: none; stroke: #b0b0b0; stroke-width: 0.8; stroke-linecap: square"/>
     </g>
    </g>
    <g id="xtick_10">
     <g id="line2d_10">
      <path d="M 337.493925 328.89976 
L 337.493925 18.118365 
" clip-path="url(#p4f7822ea44)" style="fill: none; stroke: #b0b0b0; stroke-width: 0.8; stroke-linecap: square"/>
     </g>
    </g>
    <g id="xtick_11">
     <g id="line2d_11">
      <path d="M 370.912213 328.89976 
L 370.912213 18.118365 
" clip-path="url(#p4f7822ea44)" style="fill: none; stroke: #b0b0b0; stroke-width: 0.8; stroke-linecap: square"/>
     </g>
    </g>
    <g id="xtick_12">
     <g id="line2d_12">
      <path d="M 404.3305 328.89976 
L 404.3305 18.118365 
" clip-path="url(#p4f7822ea44)" style="fill: none; stroke: #b0b0b0; stroke-width: 0.8; stroke-linecap: square"/>
     </g>
    </g>
    <g id="xtick_13">
     <g id="line2d_13">
      <path d="M 437.748788 328.89976 
L 437.748788 18.118365 
" clip-path="url(#p4f7822ea44)" style="fill: none; stroke: #b0b0b0; stroke-width: 0.8; stroke-linecap: square"/>
     </g>
    </g>
    <g id="text_1">
     <!-- $V_{GS}$  Լարումը։ -->
     <g style="fill: #0000ff" transform="translate(201.489063 340.49976) scale(0.1 -0.1)">
      <defs>
       <path id="DejaVuSans-Oblique-56" d="M 1319 0 
L 500 4666 
L 1119 4666 
L 1797 653 
L 4063 4666 
L 4750 4666 
L 2053 0 
L 1319 0 
z
" transform="scale(0.015625)"/>
       <path id="DejaVuSans-Oblique-47" d="M 3494 697 
L 3738 1919 
L 2700 1919 
L 2797 2438 
L 4453 2438 
L 4050 384 
Q 3634 156 3143 32 
Q 2653 -91 2156 -91 
Q 1278 -91 783 396 
Q 288 884 288 1753 
Q 288 2475 589 3126 
Q 891 3778 1422 4213 
Q 1756 4484 2153 4617 
Q 2550 4750 3034 4750 
Q 3472 4750 3873 4639 
Q 4275 4528 4641 4306 
L 4513 3634 
Q 4231 3928 3853 4083 
Q 3475 4238 3047 4238 
Q 2550 4238 2172 4048 
Q 1794 3859 1497 3463 
Q 1244 3125 1098 2667 
Q 953 2209 953 1734 
Q 953 1081 1287 751 
Q 1622 422 2284 422 
Q 2616 422 2925 492 
Q 3234 563 3494 697 
z
" transform="scale(0.015625)"/>
       <path id="DejaVuSans-Oblique-53" d="M 3859 4513 
L 3738 3897 
Q 3422 4066 3111 4152 
Q 2800 4238 2509 4238 
Q 1944 4238 1609 3991 
Q 1275 3744 1275 3334 
Q 1275 3109 1398 2989 
Q 1522 2869 2034 2731 
L 2413 2638 
Q 3053 2472 3303 2217 
Q 3553 1963 3553 1503 
Q 3553 797 2998 353 
Q 2444 -91 1538 -91 
Q 1166 -91 791 -17 
Q 416 56 38 206 
L 166 856 
Q 513 641 861 531 
Q 1209 422 1556 422 
Q 2147 422 2503 684 
Q 2859 947 2859 1369 
Q 2859 1650 2717 1795 
Q 2575 1941 2106 2059 
L 1728 2156 
Q 1081 2325 845 2545 
Q 609 2766 609 3163 
Q 609 3859 1145 4304 
Q 1681 4750 2541 4750 
Q 2875 4750 3203 4690 
Q 3531 4631 3859 4513 
z
" transform="scale(0.015625)"/>
       <path id="DejaVuSans-20" transform="scale(0.015625)"/>
       <path id="DejaVuSans-53c" d="M 1222 4666 
L 1222 547 
L 3413 547 
L 3413 0 
L 588 0 
L 588 4666 
L 1222 4666 
z
" transform="scale(0.015625)"/>
       <path id="DejaVuSans-561" d="M 2906 669 
Q 2691 275 2392 93 
Q 2094 -88 1684 -88 
Q 1413 -88 1200 10 
Q 988 109 842 296 
Q 697 484 620 759 
Q 544 1034 544 1388 
L 544 3500 
L 1122 3500 
L 1122 1344 
Q 1122 1091 1165 914 
Q 1209 738 1300 625 
Q 1391 513 1525 463 
Q 1659 413 1844 413 
Q 2066 413 2244 489 
Q 2422 566 2548 709 
Q 2675 853 2742 1058 
Q 2809 1263 2809 1519 
L 2809 3500 
L 3388 3500 
L 3388 1406 
Q 3388 897 3564 655 
Q 3741 413 4116 413 
Q 4334 413 4512 491 
Q 4691 569 4816 714 
Q 4941 859 5008 1062 
Q 5075 1266 5075 1519 
L 5075 3500 
L 5653 3500 
L 5653 0 
L 5075 0 
L 5075 544 
Q 4878 216 4603 64 
Q 4328 -88 3950 -88 
Q 3563 -88 3300 103 
Q 3038 294 2906 669 
z
" transform="scale(0.015625)"/>
       <path id="DejaVuSans-580" d="M 3513 2113 
L 3513 0 
L 2938 0 
L 2938 2094 
Q 2938 3084 2163 3084 
Q 1928 3084 1742 3006 
Q 1556 2928 1426 2784 
Q 1297 2641 1228 2436 
Q 1159 2231 1159 1978 
L 1159 -1331 
L 581 -1331 
L 581 3500 
L 1159 3500 
L 1159 2956 
Q 1366 3278 1644 3431 
Q 1922 3584 2291 3584 
Q 2900 3584 3206 3215 
Q 3513 2847 3513 2113 
z
" transform="scale(0.015625)"/>
       <path id="DejaVuSans-578" d="M 3513 2113 
L 3513 0 
L 2938 0 
L 2938 2094 
Q 2938 2591 2744 2837 
Q 2550 3084 2163 3084 
Q 1697 3084 1428 2787 
Q 1159 2491 1159 1978 
L 1159 0 
L 581 0 
L 581 3500 
L 1159 3500 
L 1159 2956 
Q 1366 3272 1645 3428 
Q 1925 3584 2291 3584 
Q 2894 3584 3203 3211 
Q 3513 2838 3513 2113 
z
" transform="scale(0.015625)"/>
       <path id="DejaVuSans-582" d="M 1156 500 
L 2875 500 
L 2875 0 
L 581 0 
L 581 3500 
L 1156 3500 
L 1156 500 
z
" transform="scale(0.015625)"/>
       <path id="DejaVuSans-574" d="M 544 1381 
L 544 3500 
L 1119 3500 
L 1119 1403 
Q 1119 409 1894 409 
Q 2128 409 2314 487 
Q 2500 566 2629 709 
Q 2759 853 2829 1058 
Q 2900 1263 2900 1516 
L 2900 4863 
L 4141 4863 
L 4141 4363 
L 3475 4363 
L 3475 0 
L 2900 0 
L 2900 538 
Q 2691 216 2416 62 
Q 2141 -91 1772 -91 
Q 1163 -91 853 281 
Q 544 653 544 1381 
z
" transform="scale(0.015625)"/>
       <path id="DejaVuSans-568" d="M 2938 0 
L 2938 2094 
Q 2938 3084 2163 3084 
Q 1697 3084 1428 2787 
Q 1159 2491 1159 1978 
L 1159 -831 
L 3513 -831 
L 3513 -1331 
L 581 -1331 
L 581 3500 
L 1159 3500 
L 1159 2956 
Q 1366 3275 1644 3429 
Q 1922 3584 2291 3584 
Q 2897 3584 3205 3212 
Q 3513 2841 3513 2113 
L 3513 0 
L 2938 0 
z
" transform="scale(0.015625)"/>
       <path id="DejaVuSans-589" d="M 750 794 
L 1409 794 
L 1409 0 
L 750 0 
L 750 794 
z
M 750 2656 
L 1409 2656 
L 1409 1863 
L 750 1863 
L 750 2656 
z
" transform="scale(0.015625)"/>
      </defs>
      <use xlink:href="#DejaVuSans-Oblique-56" transform="translate(0 0.015625)"/>
      <use xlink:href="#DejaVuSans-Oblique-47" transform="translate(68.408203 -16.390625) scale(0.7)"/>
      <use xlink:href="#DejaVuSans-Oblique-53" transform="translate(122.651367 -16.390625) scale(0.7)"/>
      <use xlink:href="#DejaVuSans-20" transform="translate(169.819336 0.015625)"/>
      <use xlink:href="#DejaVuSans-20" transform="translate(201.606445 0.015625)"/>
      <use xlink:href="#DejaVuSans-53c" transform="translate(233.393555 0.015625)"/>
      <use xlink:href="#DejaVuSans-561" transform="translate(286.713867 0.015625)"/>
      <use xlink:href="#DejaVuSans-580" transform="translate(384.125977 0.015625)"/>
      <use xlink:href="#DejaVuSans-578" transform="translate(447.504883 0.015625)"/>
      <use xlink:href="#DejaVuSans-582" transform="translate(510.883789 0.015625)"/>
      <use xlink:href="#DejaVuSans-574" transform="translate(554.34082 0.015625)"/>
      <use xlink:href="#DejaVuSans-568" transform="translate(617.719727 0.015625)"/>
      <use xlink:href="#DejaVuSans-589" transform="translate(681.098633 0.015625)"/>
     </g>
    </g>
   </g>
   <g id="matplotlib.axis_2">
    <g id="ytick_1">
     <g id="line2d_14">
      <path d="M 16.678365 314.773333 
L 457.79976 314.773333 
" clip-path="url(#p4f7822ea44)" style="fill: none; stroke: #b0b0b0; stroke-width: 0.8; stroke-linecap: square"/>
     </g>
    </g>
    <g id="ytick_2">
     <g id="line2d_15">
      <path d="M 16.678365 288.294557 
L 457.79976 288.294557 
" clip-path="url(#p4f7822ea44)" style="fill: none; stroke: #b0b0b0; stroke-width: 0.8; stroke-linecap: square"/>
     </g>
    </g>
    <g id="ytick_3">
     <g id="line2d_16">
      <path d="M 16.678365 261.815781 
L 457.79976 261.815781 
" clip-path="url(#p4f7822ea44)" style="fill: none; stroke: #b0b0b0; stroke-width: 0.8; stroke-linecap: square"/>
     </g>
    </g>
    <g id="ytick_4">
     <g id="line2d_17">
      <path d="M 16.678365 235.337005 
L 457.79976 235.337005 
" clip-path="url(#p4f7822ea44)" style="fill: none; stroke: #b0b0b0; stroke-width: 0.8; stroke-linecap: square"/>
     </g>
    </g>
    <g id="ytick_5">
     <g id="line2d_18">
      <path d="M 16.678365 208.858229 
L 457.79976 208.858229 
" clip-path="url(#p4f7822ea44)" style="fill: none; stroke: #b0b0b0; stroke-width: 0.8; stroke-linecap: square"/>
     </g>
    </g>
    <g id="ytick_6">
     <g id="line2d_19">
      <path d="M 16.678365 182.379452 
L 457.79976 182.379452 
" clip-path="url(#p4f7822ea44)" style="fill: none; stroke: #b0b0b0; stroke-width: 0.8; stroke-linecap: square"/>
     </g>
    </g>
    <g id="ytick_7">
     <g id="line2d_20">
      <path d="M 16.678365 155.900676 
L 457.79976 155.900676 
" clip-path="url(#p4f7822ea44)" style="fill: none; stroke: #b0b0b0; stroke-width: 0.8; stroke-linecap: square"/>
     </g>
    </g>
    <g id="ytick_8">
     <g id="line2d_21">
      <path d="M 16.678365 129.4219 
L 457.79976 129.4219 
" clip-path="url(#p4f7822ea44)" style="fill: none; stroke: #b0b0b0; stroke-width: 0.8; stroke-linecap: square"/>
     </g>
    </g>
    <g id="ytick_9">
     <g id="line2d_22">
      <path d="M 16.678365 102.943124 
L 457.79976 102.943124 
" clip-path="url(#p4f7822ea44)" style="fill: none; stroke: #b0b0b0; stroke-width: 0.8; stroke-linecap: square"/>
     </g>
    </g>
    <g id="ytick_10">
     <g id="line2d_23">
      <path d="M 16.678365 76.464348 
L 457.79976 76.464348 
" clip-path="url(#p4f7822ea44)" style="fill: none; stroke: #b0b0b0; stroke-width: 0.8; stroke-linecap: square"/>
     </g>
    </g>
    <g id="ytick_11">
     <g id="line2d_24">
      <path d="M 16.678365 49.985572 
L 457.79976 49.985572 
" clip-path="url(#p4f7822ea44)" style="fill: none; stroke: #b0b0b0; stroke-width: 0.8; stroke-linecap: square"/>
     </g>
    </g>
    <g id="ytick_12">
     <g id="line2d_25">
      <path d="M 16.678365 23.506796 
L 457.79976 23.506796 
" clip-path="url(#p4f7822ea44)" style="fill: none; stroke: #b0b0b0; stroke-width: 0.8; stroke-linecap: square"/>
     </g>
    </g>
    <g id="text_2">
     <!-- Ըմբիչով անցնող հոսանքը։ -->
     <g style="fill: #0000ff" transform="translate(10.598678 244.505937) rotate(-90) scale(0.1 -0.1)">
      <defs>
       <path id="DejaVuSans-538" d="M 556 0 
L 556 2913 
Q 556 3828 1009 4292 
Q 1463 4756 2338 4756 
Q 3216 4756 3672 4295 
Q 4128 3834 4128 2913 
L 4128 2734 
L 3494 2734 
L 3494 2834 
Q 3494 3213 3426 3480 
Q 3359 3747 3218 3917 
Q 3078 4088 2861 4166 
Q 2644 4244 2344 4244 
Q 2038 4244 1820 4166 
Q 1603 4088 1462 3917 
Q 1322 3747 1256 3480 
Q 1191 3213 1191 2834 
L 1191 547 
L 4159 547 
L 4159 0 
L 556 0 
z
" transform="scale(0.015625)"/>
       <path id="DejaVuSans-562" d="M 2938 1406 
L 2938 2094 
Q 2938 3084 2163 3084 
Q 1697 3084 1428 2787 
Q 1159 2491 1159 1978 
L 1159 500 
L 3513 500 
L 3513 0 
L 1159 0 
L 1159 -1331 
L 581 -1331 
L 581 3500 
L 1159 3500 
L 1159 2956 
Q 1366 3275 1644 3429 
Q 1922 3584 2291 3584 
Q 2897 3584 3205 3212 
Q 3513 2841 3513 2113 
L 3513 1406 
L 2938 1406 
z
" transform="scale(0.015625)"/>
       <path id="DejaVuSans-56b" d="M 3513 2113 
L 3513 0 
L 2938 0 
L 2938 2094 
Q 2938 3084 2163 3084 
Q 1697 3084 1428 2787 
Q 1159 2491 1159 1978 
L 1159 -1331 
L 581 -1331 
L 581 4863 
L 1159 4863 
L 1159 2956 
Q 1366 3275 1644 3429 
Q 1922 3584 2291 3584 
Q 2897 3584 3205 3212 
Q 3513 2841 3513 2113 
z
" transform="scale(0.015625)"/>
       <path id="DejaVuSans-579" d="M 788 -831 
L 2369 -831 
L 2369 -1331 
L 638 -1331 
Q 525 -1331 415 -1297 
Q 306 -1263 220 -1191 
Q 134 -1119 82 -1009 
Q 31 -900 31 -753 
Q 31 -572 86 -361 
Q 141 -150 234 72 
Q 328 294 458 519 
Q 588 744 738 958 
Q 888 1172 1053 1367 
Q 1219 1563 1384 1722 
Q 1238 1728 1066 1778 
Q 894 1828 745 1934 
Q 597 2041 498 2208 
Q 400 2375 400 2613 
Q 400 2706 417 2804 
Q 434 2903 484 3012 
Q 534 3122 626 3242 
Q 719 3363 869 3500 
L 1591 3500 
Q 1406 3384 1286 3271 
Q 1166 3159 1097 3054 
Q 1028 2950 1001 2853 
Q 975 2756 975 2675 
Q 975 2525 1034 2419 
Q 1094 2313 1192 2250 
Q 1291 2188 1419 2166 
Q 1547 2144 1688 2159 
Q 1766 2169 1869 2201 
Q 1972 2234 2081 2291 
L 2078 1719 
Q 1759 1441 1495 1123 
Q 1231 806 1042 493 
Q 853 181 750 -106 
Q 647 -394 647 -609 
Q 647 -647 653 -687 
Q 659 -728 676 -759 
Q 694 -791 720 -811 
Q 747 -831 788 -831 
z
" transform="scale(0.015625)"/>
       <path id="DejaVuSans-57e" d="M 544 1381 
L 544 3500 
L 1119 3500 
L 1119 1403 
Q 1119 409 1894 409 
Q 2128 409 2314 487 
Q 2500 566 2629 709 
Q 2759 853 2829 1058 
Q 2900 1263 2900 1516 
L 2900 4863 
L 3475 4863 
L 3475 -831 
L 4141 -831 
L 4141 -1331 
L 2900 -1331 
L 2900 538 
Q 2691 216 2416 62 
Q 2141 -91 1772 -91 
Q 1163 -91 853 281 
Q 544 653 544 1381 
z
" transform="scale(0.015625)"/>
       <path id="DejaVuSans-576" d="M -122 4863 
L 1119 4863 
L 1119 1403 
Q 1119 409 1894 409 
Q 2128 409 2314 487 
Q 2500 566 2629 709 
Q 2759 853 2829 1058 
Q 2900 1263 2900 1516 
L 2900 3500 
L 3475 3500 
L 3475 0 
L 2900 0 
L 2900 538 
Q 2691 216 2416 62 
Q 2141 -91 1772 -91 
Q 1163 -91 853 281 
Q 544 653 544 1381 
L 544 4363 
L -122 4363 
L -122 4863 
z
" transform="scale(0.015625)"/>
       <path id="DejaVuSans-581" d="M 2898 1791 
Q 2898 2416 2640 2759 
Q 2383 3103 1917 3103 
Q 1455 3103 1197 2759 
Q 939 2416 939 1791 
Q 939 1169 1197 825 
Q 1455 481 1917 481 
Q 2383 481 2640 825 
Q 2898 1169 2898 1791 
z
M 3473 434 
Q 3473 -459 3076 -895 
Q 2680 -1331 1861 -1331 
Q 1558 -1331 1289 -1286 
Q 1020 -1241 767 -1147 
L 767 -588 
Q 1020 -725 1267 -790 
Q 1514 -856 1770 -856 
Q 2336 -856 2617 -561 
Q 2898 -266 2898 331 
L 2898 616 
Q 2720 306 2442 153 
Q 2164 0 1776 0 
Q 1133 0 739 490 
Q 345 981 345 1791 
Q 345 2603 739 3093 
Q 1133 3584 1776 3584 
Q 2164 3584 2442 3431 
Q 2720 3278 2898 2969 
L 2898 3500 
L 3473 3500 
L 3473 434 
z
" transform="scale(0.015625)"/>
       <path id="DejaVuSans-572" d="M 4178 -831 
L 4178 -1331 
L 2938 -1331 
L 2938 2094 
Q 2938 3084 2163 3084 
Q 1697 3084 1428 2787 
Q 1159 2491 1159 1978 
L 1159 0 
L 581 0 
L 581 3500 
L 1159 3500 
L 1159 2956 
Q 1366 3275 1644 3429 
Q 1922 3584 2291 3584 
Q 2897 3584 3205 3212 
Q 3513 2841 3513 2113 
L 3513 -831 
L 4178 -831 
z
" transform="scale(0.015625)"/>
       <path id="DejaVuSans-570" d="M 3513 2113 
L 3513 0 
L 2938 0 
L 2938 2094 
Q 2938 2591 2744 2837 
Q 2550 3084 2163 3084 
Q 1697 3084 1428 2787 
Q 1159 2491 1159 1978 
L 1159 0 
L 581 0 
L 581 4863 
L 1159 4863 
L 1159 2956 
Q 1366 3272 1645 3428 
Q 1925 3584 2291 3584 
Q 2894 3584 3203 3211 
Q 3513 2838 3513 2113 
z
" transform="scale(0.015625)"/>
       <path id="DejaVuSans-57d" d="M 544 1381 
L 544 3500 
L 1119 3500 
L 1119 1403 
Q 1119 906 1312 657 
Q 1506 409 1894 409 
Q 2359 409 2629 706 
Q 2900 1003 2900 1516 
L 2900 3500 
L 3475 3500 
L 3475 0 
L 2900 0 
L 2900 538 
Q 2691 219 2414 64 
Q 2138 -91 1772 -91 
Q 1169 -91 856 284 
Q 544 659 544 1381 
z
M 1991 3584 
L 1991 3584 
z
" transform="scale(0.015625)"/>
       <path id="DejaVuSans-584" d="M 1159 525 
L 1159 -550 
L 3625 -550 
L 3625 -1034 
L 1159 -1034 
L 1159 -1331 
L 581 -1331 
L 581 -1034 
L 128 -1034 
L 128 -550 
L 581 -550 
L 581 3500 
L 1159 3500 
L 1159 2969 
Q 1341 3281 1616 3432 
Q 1891 3584 2278 3584 
Q 2597 3584 2859 3450 
Q 3122 3316 3312 3073 
Q 3503 2831 3608 2493 
Q 3713 2156 3713 1747 
Q 3713 1338 3608 1000 
Q 3503 663 3312 420 
Q 3122 178 2859 43 
Q 2597 -91 2278 -91 
Q 1891 -91 1616 61 
Q 1341 213 1159 525 
z
M 3116 1747 
Q 3116 2059 3048 2311 
Q 2981 2563 2854 2738 
Q 2728 2913 2547 3008 
Q 2366 3103 2137 3103 
Q 1909 3103 1728 3009 
Q 1547 2916 1420 2741 
Q 1294 2566 1226 2314 
Q 1159 2063 1159 1747 
Q 1159 1431 1226 1179 
Q 1294 928 1420 753 
Q 1547 578 1728 484 
Q 1909 391 2137 391 
Q 2366 391 2548 484 
Q 2731 578 2856 754 
Q 2981 931 3048 1181 
Q 3116 1431 3116 1747 
z
" transform="scale(0.015625)"/>
      </defs>
      <use xlink:href="#DejaVuSans-538"/>
      <use xlink:href="#DejaVuSans-574" x="73.193359"/>
      <use xlink:href="#DejaVuSans-562" x="136.572266"/>
      <use xlink:href="#DejaVuSans-56b" x="199.951172"/>
      <use xlink:href="#DejaVuSans-579" x="263.330078"/>
      <use xlink:href="#DejaVuSans-578" x="303.759766"/>
      <use xlink:href="#DejaVuSans-57e" x="367.138672"/>
      <use xlink:href="#DejaVuSans-20" x="430.517578"/>
      <use xlink:href="#DejaVuSans-561" x="462.304688"/>
      <use xlink:href="#DejaVuSans-576" x="559.716797"/>
      <use xlink:href="#DejaVuSans-581" x="623.095703"/>
      <use xlink:href="#DejaVuSans-576" x="686.425781"/>
      <use xlink:href="#DejaVuSans-578" x="749.804688"/>
      <use xlink:href="#DejaVuSans-572" x="813.183594"/>
      <use xlink:href="#DejaVuSans-20" x="876.611328"/>
      <use xlink:href="#DejaVuSans-570" x="908.398438"/>
      <use xlink:href="#DejaVuSans-578" x="971.777344"/>
      <use xlink:href="#DejaVuSans-57d" x="1035.15625"/>
      <use xlink:href="#DejaVuSans-561" x="1098.535156"/>
      <use xlink:href="#DejaVuSans-576" x="1195.947266"/>
      <use xlink:href="#DejaVuSans-584" x="1259.326172"/>
      <use xlink:href="#DejaVuSans-568" x="1322.949219"/>
      <use xlink:href="#DejaVuSans-589" x="1386.328125"/>
     </g>
    </g>
   </g>
   <g id="line2d_26">
    <path d="M 36.729338 314.1908 
L 143.667858 314.1908 
L 143.667858 314.1908 
L 146.638372 314.162033 
L 149.608886 314.075732 
L 152.579401 313.931896 
L 155.549915 313.730527 
L 158.52043 313.471623 
L 161.490944 313.155186 
L 164.461459 312.781214 
L 167.431973 312.349708 
L 170.402488 311.860668 
L 173.373002 311.314093 
L 176.343516 310.709985 
L 179.314031 310.048342 
L 182.284545 309.329166 
L 185.25506 308.552455 
L 188.225574 307.71821 
L 191.196089 306.826431 
L 194.166603 305.877118 
L 197.137118 304.870271 
L 200.107632 303.805889 
L 203.078146 302.683974 
L 206.048661 301.504524 
L 209.019175 300.26754 
L 211.98969 298.973022 
L 214.960204 297.62097 
L 217.930719 296.211384 
L 220.901233 294.744264 
L 223.871747 293.219609 
L 226.842262 291.637421 
L 229.812776 289.997698 
L 232.783291 288.300441 
L 235.753805 286.54565 
L 238.72432 284.733325 
L 241.694834 282.863466 
L 244.665349 280.936072 
L 247.635863 278.951145 
L 250.606378 276.908683 
L 253.576892 274.808687 
L 256.547406 272.651157 
L 259.517921 270.436093 
L 262.488435 268.163495 
L 265.45895 265.833363 
L 268.429464 263.445697 
L 271.399979 261.000496 
L 274.370493 258.497761 
L 277.341008 255.937492 
L 280.311522 253.31969 
L 283.282036 250.644352 
L 286.252551 247.911481 
L 289.223065 245.121076 
L 292.19358 242.273136 
L 295.164094 239.367663 
L 298.134609 236.404655 
L 301.105123 233.384113 
L 304.075637 230.306037 
L 307.046152 227.170427 
L 310.016666 223.977283 
L 312.987181 220.726604 
L 315.957695 217.418392 
L 318.92821 214.052645 
L 321.898724 210.629364 
L 324.869239 207.14855 
L 327.839753 203.610201 
L 330.810268 200.014317 
L 333.780782 196.3609 
L 336.751296 192.649949 
L 339.721811 188.881463 
L 342.692325 185.055443 
L 345.66284 181.17189 
L 348.633354 177.230802 
L 351.603869 173.232179 
L 354.574383 169.176023 
L 357.544898 165.062333 
L 360.515412 160.891108 
L 363.485926 156.66235 
L 366.456441 152.376057 
L 369.426955 148.03223 
L 372.39747 143.630869 
L 375.367984 139.171974 
L 378.338499 134.655545 
L 381.309013 130.081581 
L 384.279527 125.450084 
L 387.250042 120.761052 
L 390.220556 116.014486 
L 393.191071 111.210387 
L 396.161585 106.348752 
L 399.1321 101.429584 
L 402.102614 96.452882 
L 405.073129 91.418646 
L 408.043643 86.326875 
L 411.014158 81.17757 
L 413.984672 75.970731 
L 416.955186 70.706358 
L 419.925701 65.384451 
L 422.896215 60.00501 
L 425.86673 54.568035 
L 428.837244 49.073525 
L 431.807759 43.521482 
L 434.778273 37.911904 
L 437.748788 32.244792 
" clip-path="url(#p4f7822ea44)" style="fill: none; stroke: #ff0000; stroke-width: 1.5; stroke-linecap: square"/>
   </g>
   <g id="line2d_27">
    <path d="M 36.729338 145.838741 
L 39.429805 138.232805 
L 42.130273 130.585245 
L 44.830741 123.03096 
L 47.531208 115.710392 
L 50.231676 108.766065 
L 52.932144 102.338701 
L 55.632611 96.563102 
L 58.333079 91.563964 
L 61.033547 87.451838 
L 63.734014 84.31942 
L 66.434482 82.238359 
L 69.13495 81.256741 
L 71.835417 81.397382 
L 74.535885 82.657008 
L 77.236353 85.006372 
L 79.93682 88.391305 
L 82.637288 92.734631 
L 85.337756 97.938868 
L 88.038223 103.889564 
L 90.738691 110.459109 
L 93.439159 117.510829 
L 96.139626 124.90317 
L 98.840094 132.49378 
L 101.540562 140.143294 
L 104.241029 147.718686 
L 106.941497 155.096044 
L 109.641965 162.162694 
L 112.342432 168.818627 
L 115.0429 174.977229 
L 117.743368 180.565362 
L 120.443835 185.52288 
L 123.144303 189.801683 
L 125.844771 193.364464 
L 128.545239 196.183289 
L 131.245706 198.238159 
L 133.946174 199.515709 
L 136.646642 200.008158 
L 139.347109 199.712617 
L 142.047577 198.630813 
L 144.748045 196.769254 
L 147.448512 194.139822 
L 150.14898 190.760745 
L 152.849448 186.657841 
L 155.549915 181.865938 
L 158.250383 176.430309 
L 160.950851 170.407987 
L 163.651318 163.868797 
L 166.351786 156.895966 
L 169.052254 149.586198 
L 171.752721 142.049106 
L 174.453189 134.405964 
L 177.153657 126.787757 
L 179.854124 119.332558 
L 182.554592 112.182313 
L 185.25506 105.479149 
L 187.955527 99.361352 
L 190.655995 93.959189 
L 193.356463 89.390772 
L 196.05693 85.758161 
L 198.757398 83.143888 
L 201.457866 81.608087 
L 204.158333 81.186369 
L 206.858801 81.888549 
L 209.559269 83.698293 
L 212.259736 86.573705 
L 214.960204 90.448822 
L 217.660672 95.235934 
L 220.36114 100.828623 
L 223.061607 107.105359 
L 225.762075 113.933478 
L 228.462543 121.173346 
L 231.16301 128.682513 
L 233.863478 136.319672 
L 236.563946 143.948242 
L 239.264413 151.439445 
L 241.964881 158.674767 
L 244.665349 165.547731 
L 247.365816 171.964978 
L 250.066284 177.846659 
L 252.766752 183.126223 
L 255.467219 187.749689 
L 258.167687 191.674525 
L 260.868155 194.868291 
L 263.568622 197.307196 
L 266.26909 198.974706 
L 268.969558 199.860361 
L 271.670025 199.958886 
L 274.370493 199.269708 
L 277.070961 197.796896 
L 279.771428 195.549545 
L 282.471896 192.54257 
L 285.172364 188.797823 
L 287.872831 184.345446 
L 290.573299 179.225314 
L 293.273767 173.48843 
L 295.974234 167.198117 
L 298.674702 160.430855 
L 301.37517 153.27664 
L 304.075637 145.838741 
" clip-path="url(#p4f7822ea44)" style="fill: none; stroke: #0000ff; stroke-width: 1.5; stroke-linecap: square"/>
   </g>
   <g id="line2d_28">
    <path d="M 36.729338 145.838741 
L 39.429805 138.316824 
L 42.130273 130.915937 
L 44.830741 123.755163 
L 47.531208 116.949722 
L 50.231676 110.609117 
L 52.932144 104.835369 
L 55.632611 99.721381 
L 58.333079 95.349438 
L 61.033547 91.789888 
L 63.734014 89.100003 
L 66.434482 87.323067 
L 69.13495 86.487669 
L 71.835417 86.607252 
L 74.535885 87.679892 
L 77.236353 89.68833 
L 79.93682 92.600249 
L 82.637288 96.368795 
L 85.337756 100.933331 
L 88.038223 106.220412 
L 90.738691 112.144967 
L 93.439159 118.611667 
L 96.139626 125.516461 
L 98.840094 132.748248 
L 101.540562 140.190666 
L 104.241029 147.723964 
L 106.941497 155.226927 
L 109.641965 162.578832 
L 112.342432 169.661382 
L 115.0429 176.360617 
L 117.743368 182.568743 
L 120.443835 188.18587 
L 123.144303 193.121616 
L 125.844771 197.296562 
L 128.545239 200.643533 
L 131.245706 203.108675 
L 133.946174 204.652322 
L 136.646642 205.249636 
L 139.347109 204.891007 
L 142.047577 203.582204 
L 144.748045 201.344288 
L 147.448512 198.213267 
L 150.14898 194.23952 
L 152.849448 189.486986 
L 155.549915 184.032136 
L 158.250383 177.96274 
L 160.950851 171.376456 
L 163.651318 164.379261 
L 166.351786 157.083743 
L 169.052254 149.607288 
L 171.752721 142.070195 
L 174.453189 134.59374 
L 177.153657 127.298222 
L 179.854124 120.301027 
L 182.554592 113.714743 
L 185.25506 107.645347 
L 187.955527 102.190497 
L 190.655995 97.437963 
L 193.356463 93.464216 
L 196.05693 90.333195 
L 198.757398 88.095279 
L 201.457866 86.786476 
L 204.158333 86.427847 
L 206.858801 87.025161 
L 209.559269 88.568808 
L 212.259736 91.033949 
L 214.960204 94.380921 
L 217.660672 98.555867 
L 220.36114 103.491613 
L 223.061607 109.10874 
L 225.762075 115.316866 
L 228.462543 122.016101 
L 231.16301 129.098651 
L 233.863478 136.450556 
L 236.563946 143.953519 
L 239.264413 151.486817 
L 241.964881 158.929235 
L 244.665349 166.161022 
L 247.365816 173.065816 
L 250.066284 179.532516 
L 252.766752 185.457071 
L 255.467219 190.744152 
L 258.167687 195.308688 
L 260.868155 199.077234 
L 263.568622 201.989153 
L 266.26909 203.997591 
L 268.969558 205.070231 
L 271.670025 205.189814 
L 274.370493 204.354416 
L 277.070961 202.57748 
L 279.771428 199.887595 
L 282.471896 196.328044 
L 285.172364 191.956102 
L 287.872831 186.842114 
L 290.573299 181.068366 
L 293.273767 174.727761 
L 295.974234 167.92232 
L 298.674702 160.761546 
L 301.37517 153.360659 
L 304.075637 145.838741 
" clip-path="url(#p4f7822ea44)" style="fill: none; stroke: #ffa500; stroke-width: 1.5; stroke-linecap: square"/>
   </g>
   <g id="line2d_29">
    <path d="M 370.912213 314.773333 
L 370.912213 145.838741 
" clip-path="url(#p4f7822ea44)" style="fill: none; stroke-dasharray: 1.5,2.475; stroke-dashoffset: 0; stroke: #00bfbf; stroke-width: 1.5"/>
   </g>
   <g id="line2d_30">
    <path d="M 36.729338 145.838741 
L 370.912213 145.838741 
" clip-path="url(#p4f7822ea44)" style="fill: none; stroke-dasharray: 1.5,2.475; stroke-dashoffset: 0; stroke: #00bfbf; stroke-width: 1.5"/>
   </g>
   <g id="line2d_31">
    <path d="M 370.912213 314.773333 
L 375.988816 313.596498 
L 380.983735 312.419664 
L 385.8166 311.242829 
L 390.409647 310.065995 
L 394.688974 308.88916 
L 398.585723 307.712326 
L 402.037195 306.535492 
L 404.987855 305.358657 
L 407.390225 304.181823 
L 409.20565 303.004988 
L 410.404919 301.828154 
L 410.968736 300.651319 
L 410.888028 299.474485 
L 410.164094 298.29765 
L 408.808583 297.120816 
L 406.843306 295.943981 
L 404.299883 294.767147 
L 401.21924 293.590312 
L 397.650946 292.413478 
L 393.652416 291.236643 
L 389.287987 290.059809 
L 384.627885 288.882974 
L 379.747093 287.70614 
L 374.724145 286.529305 
L 369.639861 285.352471 
L 364.576049 284.175636 
L 359.614189 282.998802 
L 354.834118 281.821967 
L 350.31275 280.645133 
L 346.122835 279.468298 
L 342.33179 278.291464 
L 339.000615 277.114629 
L 336.182909 275.937795 
L 333.924011 274.76096 
L 332.260267 273.584126 
L 331.218447 272.407291 
L 330.815315 271.230457 
L 331.057357 270.053622 
L 331.940678 268.876788 
L 333.451066 267.699953 
L 335.564218 266.523119 
L 338.246132 265.346284 
L 341.453656 264.16945 
L 345.135179 262.992615 
L 349.231464 261.815781 
L 353.676601 260.638946 
L 358.399064 259.462112 
L 363.32287 258.285277 
L 368.36879 257.108443 
L 373.455635 255.931608 
L 378.501555 254.754774 
L 383.425361 253.577939 
L 388.147824 252.401105 
L 392.592961 251.22427 
L 396.689246 250.047436 
L 400.370769 248.870601 
L 403.578293 247.693767 
L 406.260207 246.516932 
L 408.373359 245.340098 
L 409.883747 244.163263 
L 410.767068 242.986429 
L 411.00911 241.809594 
L 410.605978 240.63276 
L 409.564158 239.455925 
L 407.900414 238.279091 
L 405.641516 237.102256 
L 402.82381 235.925422 
L 399.492635 234.748587 
L 395.70159 233.571753 
L 391.511675 232.394918 
L 386.990307 231.218084 
L 382.210236 230.041249 
L 377.248376 228.864415 
L 372.184564 227.68758 
L 367.10028 226.510746 
L 362.077332 225.333911 
L 357.19654 224.157077 
L 352.536438 222.980242 
L 348.172009 221.803408 
L 344.173479 220.626574 
L 340.605185 219.449739 
L 337.524542 218.272905 
L 334.981119 217.09607 
L 333.015842 215.919236 
L 331.660331 214.742401 
L 330.936397 213.565567 
L 330.855689 212.388732 
L 331.419506 211.211898 
L 332.618775 210.035063 
L 334.4342 208.858229 
L 336.83657 207.681394 
L 339.78723 206.50456 
L 343.238702 205.327725 
L 347.135451 204.150891 
L 351.414778 202.974056 
L 356.007825 201.797222 
L 360.84069 200.620387 
L 365.835609 199.443553 
L 370.912213 198.266718 
" clip-path="url(#p4f7822ea44)" style="fill: none; stroke: #1f77b4; stroke-width: 1.5; stroke-linecap: square"/>
   </g>
   <g id="line2d_32">
    <path d="M 304.075637 244.869364 
L 437.748788 46.808119 
" clip-path="url(#p4f7822ea44)" style="fill: none; stroke: #008000; stroke-width: 0.7; stroke-linecap: square"/>
   </g>
   <g id="patch_3">
    <path d="M 16.678365 328.89976 
L 16.678365 18.118365 
" style="fill: none; stroke: #000000; stroke-width: 0.8; stroke-linejoin: miter; stroke-linecap: square"/>
   </g>
   <g id="patch_4">
    <path d="M 457.79976 328.89976 
L 457.79976 18.118365 
" style="fill: none; stroke: #000000; stroke-width: 0.8; stroke-linejoin: miter; stroke-linecap: square"/>
   </g>
   <g id="patch_5">
    <path d="M 16.678365 328.89976 
L 457.79976 328.89976 
" style="fill: none; stroke: #000000; stroke-width: 0.8; stroke-linejoin: miter; stroke-linecap: square"/>
   </g>
   <g id="patch_6">
    <path d="M 16.678365 18.118365 
L 457.79976 18.118365 
" style="fill: none; stroke: #000000; stroke-width: 0.8; stroke-linejoin: miter; stroke-linecap: square"/>
   </g>
   <g id="text_3">
    <!-- Փոքր ազդանշանի մեդելը։ -->
    <g style="fill: #0000ff" transform="translate(154.579688 12.118365) scale(0.12 -0.12)">
     <defs>
      <path id="DejaVuSans-553" d="M 2272 3644 
Q 1669 3622 1342 3283 
Q 1016 2944 1016 2328 
Q 1016 1713 1342 1375 
Q 1669 1038 2272 1016 
L 2272 3644 
z
M 2906 1016 
Q 3197 1028 3430 1120 
Q 3663 1213 3825 1380 
Q 3988 1547 4075 1784 
Q 4163 2022 4163 2328 
Q 4163 2634 4075 2873 
Q 3988 3113 3825 3281 
Q 3663 3450 3430 3542 
Q 3197 3634 2906 3644 
L 2906 1016 
z
M 2272 494 
Q 1850 513 1500 644 
Q 1150 775 900 1009 
Q 650 1244 512 1576 
Q 375 1909 375 2328 
Q 375 2747 512 3081 
Q 650 3416 900 3653 
Q 1150 3891 1500 4022 
Q 1850 4153 2272 4169 
L 2272 4666 
L 2906 4666 
L 2906 4169 
Q 3328 4153 3678 4022 
Q 4028 3891 4279 3653 
Q 4531 3416 4672 3081 
Q 4813 2747 4813 2328 
Q 4813 1909 4672 1576 
Q 4531 1244 4279 1006 
Q 4028 769 3678 637 
Q 3328 506 2906 491 
L 2906 0 
L 2272 0 
L 2272 494 
z
" transform="scale(0.015625)"/>
      <path id="DejaVuSans-566" d="M 3481 -831 
L 4147 -831 
L 4147 -1331 
L 2906 -1331 
L 2906 525 
Q 2725 213 2450 61 
Q 2175 -91 1784 -91 
Q 1466 -91 1203 42 
Q 941 175 752 417 
Q 563 659 458 998 
Q 353 1338 353 1747 
Q 353 2156 458 2495 
Q 563 2834 752 3076 
Q 941 3319 1203 3451 
Q 1466 3584 1784 3584 
Q 2175 3584 2450 3432 
Q 2725 3281 2906 2969 
L 2906 3500 
L 3481 3500 
L 3481 -831 
z
M 947 1747 
Q 947 1503 998 1259 
Q 1050 1016 1164 823 
Q 1278 631 1465 511 
Q 1653 391 1925 391 
Q 2113 391 2258 448 
Q 2403 506 2512 607 
Q 2622 709 2697 842 
Q 2772 975 2819 1126 
Q 2866 1278 2886 1437 
Q 2906 1597 2906 1747 
Q 2906 1991 2854 2233 
Q 2803 2475 2686 2669 
Q 2569 2863 2383 2983 
Q 2197 3103 1925 3103 
Q 1738 3103 1592 3043 
Q 1447 2984 1339 2884 
Q 1231 2784 1156 2650 
Q 1081 2516 1034 2366 
Q 988 2216 967 2056 
Q 947 1897 947 1747 
z
" transform="scale(0.015625)"/>
      <path id="DejaVuSans-564" d="M 3516 0 
L 3516 -1331 
L 2938 -1331 
L 2938 2094 
Q 2938 3084 2163 3084 
Q 1697 3084 1428 2787 
Q 1159 2491 1159 1978 
L 1159 0 
L 581 0 
L 581 3500 
L 1159 3500 
L 1159 2956 
Q 1366 3275 1644 3429 
Q 1922 3584 2291 3584 
Q 2897 3584 3206 3212 
Q 3516 2841 3516 2113 
L 3516 500 
L 4181 500 
L 4181 0 
L 3516 0 
z
" transform="scale(0.015625)"/>
      <path id="DejaVuSans-577" d="M 603 -678 
Q 603 -703 609 -729 
Q 616 -756 631 -779 
Q 647 -803 678 -817 
Q 709 -831 763 -831 
L 2613 -831 
L 2613 -1331 
L 575 -1331 
Q 444 -1331 337 -1289 
Q 231 -1247 156 -1173 
Q 81 -1100 40 -1001 
Q 0 -903 0 -791 
Q 0 -638 94 -472 
Q 188 -306 341 -129 
Q 494 47 689 231 
Q 884 416 1089 609 
Q 1294 803 1489 1001 
Q 1684 1200 1837 1404 
Q 1991 1609 2084 1817 
Q 2178 2025 2178 2234 
Q 2178 2459 2108 2623 
Q 2038 2788 1909 2894 
Q 1781 3000 1601 3051 
Q 1422 3103 1200 3103 
Q 916 3103 675 3043 
Q 434 2984 191 2853 
L 191 3397 
Q 309 3441 425 3477 
Q 541 3513 664 3536 
Q 788 3559 927 3571 
Q 1066 3584 1231 3584 
Q 1591 3584 1878 3501 
Q 2166 3419 2367 3250 
Q 2569 3081 2676 2828 
Q 2784 2575 2784 2234 
Q 2784 2000 2690 1767 
Q 2597 1534 2444 1309 
Q 2291 1084 2094 873 
Q 1897 663 1694 469 
Q 1491 275 1294 101 
Q 1097 -72 944 -219 
Q 791 -366 697 -481 
Q 603 -597 603 -678 
z
" transform="scale(0.015625)"/>
      <path id="DejaVuSans-565" d="M 544 1381 
L 544 4863 
L 1119 4863 
L 1119 3500 
L 3506 3500 
L 3506 3000 
L 1119 3000 
L 1119 1403 
Q 1119 906 1313 656 
Q 1503 409 1894 409 
Q 2369 409 2631 706 
Q 2900 1013 2900 1516 
L 2900 2250 
L 3475 2250 
L 3475 0 
L 2900 0 
L 2900 538 
Q 2691 216 2416 62 
Q 2141 -91 1772 -91 
Q 1169 -91 856 284 
Q 544 656 544 1381 
z
" transform="scale(0.015625)"/>
      <path id="DejaVuSans-56c" d="M 1156 -831 
L 1938 -831 
L 1938 -1331 
L 581 -1331 
L 581 3500 
L 1156 3500 
L 1156 -831 
z
" transform="scale(0.015625)"/>
     </defs>
     <use xlink:href="#DejaVuSans-553"/>
     <use xlink:href="#DejaVuSans-578" x="81.054688"/>
     <use xlink:href="#DejaVuSans-584" x="144.433594"/>
     <use xlink:href="#DejaVuSans-580" x="208.056641"/>
     <use xlink:href="#DejaVuSans-20" x="271.435547"/>
     <use xlink:href="#DejaVuSans-561" x="303.222656"/>
     <use xlink:href="#DejaVuSans-566" x="400.634766"/>
     <use xlink:href="#DejaVuSans-564" x="464.111328"/>
     <use xlink:href="#DejaVuSans-561" x="530.419922"/>
     <use xlink:href="#DejaVuSans-576" x="627.832031"/>
     <use xlink:href="#DejaVuSans-577" x="691.210938"/>
     <use xlink:href="#DejaVuSans-561" x="741.064453"/>
     <use xlink:href="#DejaVuSans-576" x="838.476562"/>
     <use xlink:href="#DejaVuSans-56b" x="901.855469"/>
     <use xlink:href="#DejaVuSans-20" x="965.234375"/>
     <use xlink:href="#DejaVuSans-574" x="997.021484"/>
     <use xlink:href="#DejaVuSans-565" x="1060.400391"/>
     <use xlink:href="#DejaVuSans-564" x="1123.779297"/>
     <use xlink:href="#DejaVuSans-565" x="1190.087891"/>
     <use xlink:href="#DejaVuSans-56c" x="1253.466797"/>
     <use xlink:href="#DejaVuSans-568" x="1280.615234"/>
     <use xlink:href="#DejaVuSans-589" x="1343.994141"/>
    </g>
   </g>
   <g id="legend_1">
    <g id="patch_7">
     <path d="M 23.678365 70.19649 
L 182.978365 70.19649 
Q 184.978365 70.19649 184.978365 68.19649 
L 184.978365 25.118365 
Q 184.978365 23.118365 182.978365 23.118365 
L 23.678365 23.118365 
Q 21.678365 23.118365 21.678365 25.118365 
L 21.678365 68.19649 
Q 21.678365 70.19649 23.678365 70.19649 
L 23.678365 70.19649 
z
" style="fill: none; opacity: 0"/>
    </g>
    <g id="line2d_33">
     <path d="M 25.678365 31.216802 
L 35.678365 31.216802 
L 45.678365 31.216802 
" style="fill: none; stroke: #ff0000; stroke-width: 1.5; stroke-linecap: square"/>
    </g>
    <g id="text_4">
     <!-- ՎԱԲ -->
     <g style="fill: #0000ff" transform="translate(53.678365 34.716802) scale(0.1 -0.1)">
      <defs>
       <path id="DejaVuSans-54e" d="M 4666 0 
L 3250 0 
L 3250 1559 
Q 3047 1334 2756 1218 
Q 2466 1103 2097 1103 
Q 1666 1103 1334 1215 
Q 1003 1328 775 1558 
Q 547 1788 430 2133 
Q 313 2478 313 2947 
L 313 3500 
L 947 3500 
L 947 3025 
Q 947 2647 1014 2380 
Q 1081 2113 1222 1942 
Q 1363 1772 1580 1694 
Q 1797 1616 2097 1616 
Q 2397 1616 2614 1694 
Q 2831 1772 2973 1940 
Q 3116 2109 3183 2376 
Q 3250 2644 3250 3025 
L 3250 4666 
L 3884 4666 
L 3884 547 
L 4666 547 
L 4666 0 
z
" transform="scale(0.015625)"/>
       <path id="DejaVuSans-531" d="M 2825 1509 
Q 2947 1347 3080 1206 
Q 3213 1066 3356 938 
Q 3494 1253 3494 1831 
L 3494 4666 
L 4128 4666 
L 4128 1753 
Q 4128 1038 3825 588 
Q 4072 428 4350 306 
L 4131 -188 
Q 3778 -25 3441 200 
Q 3225 56 2951 -17 
Q 2678 -91 2344 -91 
Q 1478 -91 1017 373 
Q 556 838 556 1753 
L 556 4666 
L 1191 4666 
L 1191 1831 
Q 1191 1456 1256 1189 
Q 1322 922 1461 751 
Q 1600 581 1819 501 
Q 2038 422 2344 422 
Q 2541 422 2700 450 
Q 2859 478 2988 541 
Q 2819 681 2672 831 
Q 2525 981 2406 1144 
L 2825 1509 
z
" transform="scale(0.015625)"/>
       <path id="DejaVuSans-532" d="M 556 0 
L 556 2913 
Q 556 3828 1009 4292 
Q 1463 4756 2338 4756 
Q 3216 4756 3672 4295 
Q 4128 3834 4128 2913 
L 4128 2734 
L 3494 2734 
L 3494 2834 
Q 3494 3213 3426 3480 
Q 3359 3747 3218 3917 
Q 3078 4088 2861 4166 
Q 2644 4244 2344 4244 
Q 2038 4244 1820 4166 
Q 1603 4088 1462 3917 
Q 1322 3747 1256 3480 
Q 1191 3213 1191 2834 
L 1191 1956 
L 4159 1956 
L 4159 1409 
L 1191 1409 
L 1191 0 
L 556 0 
z
" transform="scale(0.015625)"/>
      </defs>
      <use xlink:href="#DejaVuSans-54e"/>
      <use xlink:href="#DejaVuSans-531" x="75.341797"/>
      <use xlink:href="#DejaVuSans-532" x="151.953125"/>
     </g>
    </g>
    <g id="line2d_34">
     <path d="M 25.678365 45.89649 
L 35.678365 45.89649 
L 45.678365 45.89649 
" style="fill: none; stroke: #0000ff; stroke-width: 1.5; stroke-linecap: square"/>
    </g>
    <g id="text_5">
     <!-- $I_D$ Հոսանքը։ -->
     <g style="fill: #0000ff" transform="translate(53.678365 49.39649) scale(0.1 -0.1)">
      <defs>
       <path id="DejaVuSans-Oblique-49" d="M 1081 4666 
L 1716 4666 
L 806 0 
L 172 0 
L 1081 4666 
z
" transform="scale(0.015625)"/>
       <path id="DejaVuSans-Oblique-44" d="M 1081 4666 
L 2438 4666 
Q 3519 4666 4070 4208 
Q 4622 3750 4622 2847 
Q 4622 2250 4412 1698 
Q 4203 1147 3834 769 
Q 3463 381 2891 190 
Q 2319 0 1538 0 
L 172 0 
L 1081 4666 
z
M 1613 4147 
L 909 519 
L 1734 519 
Q 2794 519 3375 1128 
Q 3956 1738 3956 2847 
Q 3956 3519 3581 3833 
Q 3206 4147 2406 4147 
L 1613 4147 
z
" transform="scale(0.015625)"/>
       <path id="DejaVuSans-540" d="M 4081 475 
L 4081 -169 
L 950 831 
Q 756 891 595 980 
Q 434 1069 336 1187 
Q 238 1306 220 1456 
Q 203 1606 295 1789 
Q 388 1972 605 2187 
Q 822 2403 1194 2653 
Q 1678 2978 2165 3237 
Q 2653 3497 3166 3719 
L 2519 4666 
L 3263 4666 
L 4072 3494 
Q 3719 3359 3401 3221 
Q 3084 3084 2782 2932 
Q 2481 2781 2189 2611 
Q 1897 2441 1597 2241 
Q 1275 2025 1126 1881 
Q 978 1738 958 1641 
Q 938 1544 1025 1484 
Q 1113 1425 1259 1378 
L 4081 475 
z
" transform="scale(0.015625)"/>
      </defs>
      <use xlink:href="#DejaVuSans-Oblique-49" transform="translate(0 0.015625)"/>
      <use xlink:href="#DejaVuSans-Oblique-44" transform="translate(29.492188 -16.390625) scale(0.7)"/>
      <use xlink:href="#DejaVuSans-20" transform="translate(86.12793 0.015625)"/>
      <use xlink:href="#DejaVuSans-540" transform="translate(117.915039 0.015625)"/>
      <use xlink:href="#DejaVuSans-578" transform="translate(189.49707 0.015625)"/>
      <use xlink:href="#DejaVuSans-57d" transform="translate(252.875977 0.015625)"/>
      <use xlink:href="#DejaVuSans-561" transform="translate(316.254883 0.015625)"/>
      <use xlink:href="#DejaVuSans-576" transform="translate(413.666992 0.015625)"/>
      <use xlink:href="#DejaVuSans-584" transform="translate(477.045898 0.015625)"/>
      <use xlink:href="#DejaVuSans-568" transform="translate(540.668945 0.015625)"/>
      <use xlink:href="#DejaVuSans-589" transform="translate(604.047852 0.015625)"/>
     </g>
    </g>
    <g id="line2d_35">
     <path d="M 25.678365 60.59649 
L 35.678365 60.59649 
L 45.678365 60.59649 
" style="fill: none; stroke: #ffa500; stroke-width: 1.5; stroke-linecap: square"/>
    </g>
    <g id="text_6">
     <!-- $I_D$ Հոսանքը ըստ մոդելի։ -->
     <g style="fill: #0000ff" transform="translate(53.678365 64.09649) scale(0.1 -0.1)">
      <defs>
       <path id="DejaVuSans-57f" d="M 2847 1516 
L 2847 3500 
L 3422 3500 
L 3422 2956 
Q 3525 3116 3648 3233 
Q 3772 3350 3908 3428 
Q 4044 3506 4186 3545 
Q 4328 3584 4466 3584 
Q 5075 3584 5381 3215 
Q 5688 2847 5688 2113 
L 5688 0 
L 5113 0 
L 5113 2094 
Q 5113 3084 4338 3084 
Q 4150 3084 3983 3006 
Q 3816 2928 3691 2784 
Q 3566 2641 3494 2436 
Q 3422 2231 3422 1978 
L 3422 0 
L 2847 0 
L 2847 538 
Q 2638 216 2361 62 
Q 2084 -91 1772 -91 
Q 1163 -91 853 281 
Q 544 653 544 1381 
L 544 3500 
L 1119 3500 
L 1119 1403 
Q 1119 409 1894 409 
Q 2091 409 2264 482 
Q 2438 556 2567 698 
Q 2697 841 2772 1047 
Q 2847 1253 2847 1516 
z
" transform="scale(0.015625)"/>
      </defs>
      <use xlink:href="#DejaVuSans-Oblique-49" transform="translate(0 0.015625)"/>
      <use xlink:href="#DejaVuSans-Oblique-44" transform="translate(29.492188 -16.390625) scale(0.7)"/>
      <use xlink:href="#DejaVuSans-20" transform="translate(86.12793 0.015625)"/>
      <use xlink:href="#DejaVuSans-540" transform="translate(117.915039 0.015625)"/>
      <use xlink:href="#DejaVuSans-578" transform="translate(189.49707 0.015625)"/>
      <use xlink:href="#DejaVuSans-57d" transform="translate(252.875977 0.015625)"/>
      <use xlink:href="#DejaVuSans-561" transform="translate(316.254883 0.015625)"/>
      <use xlink:href="#DejaVuSans-576" transform="translate(413.666992 0.015625)"/>
      <use xlink:href="#DejaVuSans-584" transform="translate(477.045898 0.015625)"/>
      <use xlink:href="#DejaVuSans-568" transform="translate(540.668945 0.015625)"/>
      <use xlink:href="#DejaVuSans-20" transform="translate(604.047852 0.015625)"/>
      <use xlink:href="#DejaVuSans-568" transform="translate(635.834961 0.015625)"/>
      <use xlink:href="#DejaVuSans-57d" transform="translate(699.213867 0.015625)"/>
      <use xlink:href="#DejaVuSans-57f" transform="translate(762.592773 0.015625)"/>
      <use xlink:href="#DejaVuSans-20" transform="translate(859.956055 0.015625)"/>
      <use xlink:href="#DejaVuSans-574" transform="translate(891.743164 0.015625)"/>
      <use xlink:href="#DejaVuSans-578" transform="translate(955.12207 0.015625)"/>
      <use xlink:href="#DejaVuSans-564" transform="translate(1018.500977 0.015625)"/>
      <use xlink:href="#DejaVuSans-565" transform="translate(1084.80957 0.015625)"/>
      <use xlink:href="#DejaVuSans-56c" transform="translate(1148.188477 0.015625)"/>
      <use xlink:href="#DejaVuSans-56b" transform="translate(1175.336914 0.015625)"/>
      <use xlink:href="#DejaVuSans-589" transform="translate(1238.71582 0.015625)"/>
     </g>
    </g>
   </g>
  </g>
 </g>
 <defs>
  <clipPath id="p4f7822ea44">
   <rect x="16.678365" y="18.118365" width="441.121395" height="310.781395"/>
  </clipPath>
 </defs>
</svg>
