<svg width="1678" height="647" viewBox="0 0 1678 647" fill="none" xmlns="http://www.w3.org/2000/svg">
<path d="M604.43 309.694V221.334H651.673V375.95H1V221.334L164.205 32.3599H200.712L46.0962 221.334V309.379H196.417V223.482H451.962V309.694H604.43Z" fill="#F88079" stroke="black"/>
<path d="M604.429 221.334H651.673L821.32 32.3599H767.634L604.429 221.334Z" fill="#F88079" stroke="black"/>
<path d="M821.321 32.3599L651.673 221.334V375.95L821.321 183.754V32.3599Z" fill="#72403D" stroke="black"/>
<path d="M1 221.5H46" stroke="black"/>
<path d="M196.417 221.334V214.892V212.744H451.962L621.865 16.9585L623.459 30.2993L454.109 223.482H196.417V221.334Z" fill="#96A19F" stroke="black"/>
<path d="M194.269 193.418H449.814L620.536 1.96729H362.205L194.269 193.418Z" fill="#7847C8" stroke="black"/>
<path d="M621.275 2.57275L449.814 193.418L451.962 212.745L622.349 20.826L621.275 2.57275Z" fill="#2D1D49" stroke="black"/>
<path d="M194.269 193.417L196.417 212.744H451.962L449.814 193.417H194.269Z" fill="#2D1D49" stroke="black"/>
<path d="M249.029 8.73828H307.01L145.952 194.491H86.8975L249.029 8.73828Z" fill="#132AF4" stroke="black"/>
<path d="M46.0962 309.379H196.417V223.482L46.0962 221.843V309.379Z" fill="#0392F9" stroke="black"/>
<path d="M307.01 9.81201L145.952 194.076L148.099 213.818L307.01 29.5546V9.81201Z" fill="#07005C" stroke="black"/>
<path d="M85.8237 194.491H145.952L148.099 213.818L89.0449 212.744L85.8237 194.491Z" fill="#07005C" stroke="black"/>
<path d="M307.01 29.1387H338.148L194.27 193.417L196.417 212.744V223.482L47.1702 221.334L200.712 32.3598H228.628L86.8977 194.491L89.0452 212.744L148.1 213.818L307.01 29.1387Z" fill="#0392F9" stroke="black"/>
<path d="M675.295 11.9595H736.497L575.439 194.492H515.311L675.295 11.9595Z" fill="#132AF4" stroke="black"/>
<path d="M604.429 221.334L451.961 223.482V309.379H604.429V221.334Z" fill="#0392F9" stroke="black"/>
<path d="M736.497 11.9595L575.439 194.284L577.587 213.818L736.497 31.4942V11.9595Z" fill="#07005C" stroke="black"/>
<path d="M515.311 194.491H575.475L577.586 213.818H517.458L515.311 194.491Z" fill="#07005C" stroke="black"/>
<path d="M736.496 31.2861L767.634 32.3598L604.429 221.334L454.109 223.482L623.756 30.2124H659.189L515.311 194.491L517.458 213.818H577.586L736.496 31.2861Z" fill="#0392F9" stroke="black"/>
<path d="M1459.11 309.694V221.334H1506.35V375.95H855.679V221.334L1018.88 32.3599H1055.39L900.775 221.334V309.379H1051.1V223.482H1306.64V309.694H1459.11Z" fill="#0392F9" stroke="black"/>
<path d="M1459.11 221.334H1506.35L1676 32.3599H1622.31L1459.11 221.334Z" fill="#0392F9" stroke="black"/>
<path d="M1676 32.3599L1506.35 221.334V375.95L1676 183.754V32.3599Z" fill="#035A99" stroke="black"/>
<path d="M856 221.5H901" stroke="black"/>
<path d="M1529.97 11.9595H1591.18L1430.12 194.492H1369.99L1529.97 11.9595Z" fill="#132AF4" stroke="black"/>
<path d="M1459.11 221.334L1306.64 223.482V309.379H1459.11V221.334Z" fill="#F88079" stroke="black"/>
<path d="M1591.18 11.9595L1430.12 194.284L1432.27 213.818L1591.18 31.4942V11.9595Z" fill="#07005C" stroke="black"/>
<path d="M1369.99 194.491H1430.15L1432.27 213.818H1372.14L1369.99 194.491Z" fill="#07005C" stroke="black"/>
<path d="M1591.18 31.2861L1622.31 32.3598L1459.11 221.334L1308.79 223.482L1478.44 30.2124H1513.87L1369.99 194.491L1372.14 213.818H1432.27L1591.18 31.2861Z" fill="#F88079" stroke="black"/>
<path d="M1103.71 8.73853H1161.69L1000.63 194.492H941.577L1103.71 8.73853Z" fill="#132AF4" stroke="black"/>
<path d="M900.775 309.379H1051.1V223.482L900.775 221.843V309.379Z" fill="#F88079" stroke="black"/>
<path d="M1161.69 9.81226L1000.63 194.076L1002.78 213.819L1161.69 29.5548V9.81226Z" fill="#07005C" stroke="black"/>
<path d="M940.503 194.491H1000.63L1002.78 213.818L943.724 212.744L940.503 194.491Z" fill="#07005C" stroke="black"/>
<path d="M1161.69 29.1384H1192.83L1048.95 193.417L1051.1 212.744V223.481L901.849 221.334L1055.39 32.3596H1083.31L941.577 194.491L943.724 212.744L1002.78 213.818L1161.69 29.1384Z" fill="#F88079" stroke="black"/>
<path d="M1476.32 1.60547L1304.86 192.451L1307.01 211.778L1477.39 19.8587L1476.32 1.60547Z" fill="#2D1D49" stroke="black"/>
<path d="M1051.46 220.367V213.925V211.778H1307.01L1476.91 15.9917L1478.5 29.3325L1309.15 222.515H1051.46V220.367Z" fill="#96A19F" stroke="black"/>
<path d="M1049.31 192.451H1304.86L1475.58 1H1217.25L1049.31 192.451Z" fill="#7847C8" stroke="black"/>
<path d="M1049.31 192.45L1051.46 211.777H1307.01L1304.86 192.45H1049.31Z" fill="#2D1D49" stroke="black"/>
<path d="M1307 212L1309 222" stroke="black"/>
<rect x="299" y="483" width="66" height="66" rx="8" stroke="#132AF4" stroke-width="4" stroke-dasharray="10 10"/>
<rect x="307" y="491" width="50" height="50" rx="10" fill="#F88079"/>
<path d="M413.446 514.293C413.446 514.942 413.377 515.398 413.241 515.66C413.104 515.911 412.91 516.036 412.66 516.036H387.059C386.797 516.036 386.592 515.911 386.444 515.66C386.307 515.398 386.239 514.942 386.239 514.293C386.239 513.655 386.301 513.199 386.427 512.926C386.563 512.652 386.774 512.516 387.059 512.516H412.66C412.933 512.516 413.132 512.647 413.258 512.909C413.383 513.171 413.446 513.632 413.446 514.293ZM441.166 508.602C441.166 509.844 440.972 510.943 440.584 511.9C440.197 512.857 439.633 513.666 438.893 514.327C438.152 514.977 437.241 515.472 436.158 515.814C435.087 516.156 433.823 516.327 432.364 516.327H430.519V523.385C430.519 523.499 430.479 523.601 430.399 523.692C430.331 523.784 430.211 523.858 430.04 523.915C429.869 523.972 429.641 524.017 429.356 524.051C429.072 524.085 428.707 524.103 428.263 524.103C427.83 524.103 427.465 524.085 427.169 524.051C426.884 524.017 426.656 523.972 426.485 523.915C426.314 523.858 426.195 523.784 426.126 523.692C426.058 523.601 426.024 523.499 426.024 523.385V503.492C426.024 502.957 426.161 502.558 426.434 502.296C426.719 502.022 427.089 501.886 427.545 501.886H432.757C433.281 501.886 433.777 501.909 434.244 501.954C434.723 501.988 435.292 502.074 435.953 502.21C436.614 502.336 437.28 502.575 437.953 502.928C438.636 503.281 439.217 503.731 439.696 504.278C440.174 504.814 440.539 505.446 440.79 506.175C441.04 506.893 441.166 507.702 441.166 508.602ZM436.466 508.927C436.466 508.152 436.329 507.514 436.056 507.013C435.782 506.511 435.446 506.141 435.047 505.902C434.649 505.663 434.227 505.514 433.783 505.458C433.35 505.389 432.9 505.355 432.433 505.355H430.519V512.857H432.535C433.253 512.857 433.851 512.761 434.33 512.567C434.819 512.373 435.218 512.105 435.526 511.764C435.833 511.41 436.067 510.995 436.227 510.516C436.386 510.026 436.466 509.496 436.466 508.927ZM469.688 507.372C469.688 507.599 469.489 507.776 469.09 507.901C468.703 508.027 468.071 508.089 467.193 508.089C466.339 508.089 465.729 508.027 465.365 507.901C465 507.776 464.818 507.599 464.818 507.372C464.818 507.053 464.738 506.751 464.579 506.466C464.431 506.17 464.191 505.913 463.861 505.697C463.542 505.48 463.126 505.309 462.613 505.184C462.112 505.059 461.508 504.996 460.802 504.996C460.004 504.996 459.343 505.064 458.819 505.201C458.307 505.338 457.896 505.526 457.589 505.765C457.281 505.993 457.065 506.266 456.939 506.585C456.814 506.904 456.751 507.246 456.751 507.611C456.751 508.01 456.882 508.368 457.145 508.688C457.418 508.995 457.8 509.28 458.29 509.542C458.779 509.793 459.361 510.026 460.033 510.243C460.716 510.459 461.468 510.681 462.289 510.909C463.223 511.16 464.168 511.445 465.125 511.764C466.083 512.071 466.948 512.464 467.723 512.943C468.498 513.421 469.13 514.02 469.62 514.737C470.11 515.444 470.355 516.321 470.355 517.369C470.355 518.531 470.127 519.551 469.671 520.428C469.216 521.306 468.583 522.04 467.774 522.633C466.965 523.214 466.008 523.653 464.903 523.949C463.81 524.245 462.619 524.393 461.332 524.393C460.215 524.393 459.087 524.273 457.948 524.034C456.808 523.795 455.777 523.408 454.854 522.872C453.932 522.325 453.174 521.619 452.582 520.753C452 519.887 451.71 518.827 451.71 517.574C451.71 517.46 451.744 517.358 451.812 517.267C451.892 517.175 452.029 517.101 452.223 517.044C452.416 516.987 452.684 516.942 453.026 516.908C453.379 516.874 453.829 516.856 454.376 516.856C455.23 516.856 455.84 516.919 456.205 517.044C456.569 517.17 456.751 517.346 456.751 517.574C456.751 518.588 457.139 519.374 457.914 519.933C458.7 520.491 459.845 520.77 461.349 520.77C462.146 520.77 462.818 520.707 463.365 520.582C463.924 520.445 464.374 520.257 464.715 520.018C465.057 519.767 465.302 519.471 465.45 519.129C465.61 518.776 465.689 518.383 465.689 517.95C465.689 517.472 465.564 517.067 465.313 516.737C465.063 516.395 464.721 516.099 464.288 515.848C463.867 515.597 463.377 515.381 462.818 515.199C462.26 515.005 461.668 514.828 461.041 514.669C459.97 514.396 458.905 514.099 457.845 513.78C456.797 513.45 455.851 513.034 455.008 512.533C454.177 512.031 453.499 511.41 452.975 510.67C452.462 509.918 452.206 508.984 452.206 507.867C452.206 506.796 452.411 505.862 452.821 505.064C453.242 504.267 453.829 503.606 454.581 503.082C455.344 502.547 456.256 502.148 457.315 501.886C458.386 501.624 459.571 501.493 460.87 501.493C463.775 501.493 465.969 501.977 467.45 502.945C468.931 503.914 469.677 505.389 469.688 507.372ZM474.217 502.484C474.217 502.256 474.371 502.085 474.679 501.971C474.998 501.846 475.579 501.783 476.422 501.783C477.276 501.783 477.869 501.846 478.199 501.971C478.541 502.085 478.712 502.256 478.712 502.484V507.679C479.35 507.542 480.005 507.429 480.677 507.337C481.361 507.246 481.999 507.201 482.591 507.201C483.81 507.201 484.938 507.32 485.975 507.56C487.012 507.787 487.912 508.186 488.675 508.756C489.45 509.314 490.054 510.072 490.487 511.029C490.92 511.986 491.136 513.182 491.136 514.618V517.215C491.136 517.432 490.977 517.603 490.658 517.728C490.35 517.853 489.775 517.916 488.932 517.916C488.077 517.916 487.479 517.859 487.137 517.745C486.807 517.62 486.642 517.443 486.642 517.215V515.062C486.642 513.569 486.271 512.499 485.531 511.849C484.802 511.188 483.634 510.858 482.027 510.858C481.515 510.858 480.968 510.898 480.387 510.978C479.817 511.046 479.259 511.154 478.712 511.302V523.402C478.712 523.63 478.541 523.806 478.199 523.932C477.869 524.046 477.276 524.103 476.422 524.103C475.579 524.103 474.998 524.04 474.679 523.915C474.371 523.789 474.217 523.618 474.217 523.402V502.484ZM506.483 516.292C506.483 516.52 506.323 516.697 506.004 516.822C505.697 516.948 505.104 517.01 504.227 517.01C503.361 517.01 502.769 516.948 502.45 516.822C502.131 516.697 501.971 516.52 501.971 516.292V505.338C499.123 505.782 497.699 507.189 497.699 509.559V511.183C497.699 511.41 497.534 511.587 497.203 511.712C496.884 511.838 496.286 511.9 495.409 511.9C494.554 511.9 493.973 511.838 493.666 511.712C493.358 511.587 493.204 511.41 493.204 511.183V509.61C493.204 508.357 493.478 507.229 494.024 506.227C494.571 505.224 495.34 504.375 496.332 503.68C497.323 502.974 498.502 502.433 499.869 502.057C501.248 501.681 502.763 501.493 504.415 501.493C506.067 501.493 507.56 501.675 508.893 502.04C510.237 502.393 511.376 502.911 512.311 503.595C513.256 504.267 513.98 505.093 514.481 506.073C514.994 507.053 515.25 508.169 515.25 509.422V523.385C515.25 523.499 515.216 523.601 515.147 523.692C515.09 523.784 514.977 523.858 514.806 523.915C514.646 523.972 514.424 524.017 514.139 524.051C513.854 524.085 513.49 524.103 513.045 524.103C512.191 524.103 511.593 524.04 511.251 523.915C510.921 523.789 510.755 523.613 510.755 523.385V509.815C510.755 508.448 510.396 507.411 509.679 506.705C508.972 505.999 507.907 505.543 506.483 505.338V516.292ZM520.121 502.484C520.121 502.256 520.274 502.085 520.582 501.971C520.901 501.846 521.482 501.783 522.325 501.783C523.18 501.783 523.772 501.846 524.103 501.971C524.444 502.085 524.615 502.256 524.615 502.484V507.679C525.253 507.542 525.908 507.429 526.581 507.337C527.264 507.246 527.902 507.201 528.495 507.201C529.714 507.201 530.842 507.32 531.878 507.56C532.915 507.787 533.815 508.186 534.579 508.756C535.353 509.314 535.957 510.072 536.39 511.029C536.823 511.986 537.04 513.182 537.04 514.618V517.215C537.04 517.432 536.88 517.603 536.561 517.728C536.253 517.853 535.678 517.916 534.835 517.916C533.98 517.916 533.382 517.859 533.041 517.745C532.71 517.62 532.545 517.443 532.545 517.215V515.062C532.545 513.569 532.175 512.499 531.434 511.849C530.705 511.188 529.537 510.858 527.931 510.858C527.418 510.858 526.871 510.898 526.29 510.978C525.72 511.046 525.162 511.154 524.615 511.302V523.402C524.615 523.63 524.444 523.806 524.103 523.932C523.772 524.046 523.18 524.103 522.325 524.103C521.482 524.103 520.901 524.04 520.582 523.915C520.274 523.789 520.121 523.618 520.121 523.402V502.484ZM564.725 523.402C564.725 523.618 564.566 523.789 564.247 523.915C563.939 524.04 563.364 524.103 562.521 524.103C561.666 524.103 561.068 524.046 560.726 523.932C560.396 523.806 560.23 523.63 560.23 523.402V517.455C559.592 517.591 558.932 517.705 558.248 517.796C557.576 517.888 556.944 517.933 556.351 517.933C555.143 517.933 554.015 517.819 552.967 517.591C551.931 517.352 551.025 516.953 550.25 516.395C549.487 515.825 548.889 515.062 548.456 514.105C548.023 513.148 547.806 511.952 547.806 510.516V502.484C547.806 502.256 547.96 502.085 548.268 501.971C548.587 501.846 549.168 501.783 550.011 501.783C550.865 501.783 551.458 501.846 551.788 501.971C552.13 502.085 552.301 502.256 552.301 502.484V510.072C552.301 511.553 552.665 512.624 553.395 513.285C554.135 513.945 555.309 514.276 556.915 514.276C557.428 514.276 557.969 514.242 558.539 514.173C559.12 514.094 559.684 513.98 560.23 513.832V508.329C560.23 508.101 560.396 507.93 560.726 507.816C561.068 507.691 561.666 507.628 562.521 507.628C563.364 507.628 563.939 507.691 564.247 507.816C564.566 507.93 564.725 508.101 564.725 508.329V523.402ZM569.442 502.484C569.442 502.256 569.596 502.085 569.903 501.971C570.222 501.846 570.803 501.783 571.646 501.783C572.501 501.783 573.093 501.846 573.424 501.971C573.766 502.085 573.937 502.256 573.937 502.484V507.679C574.575 507.542 575.23 507.429 575.902 507.337C576.585 507.246 577.223 507.201 577.816 507.201C579.035 507.201 580.163 507.32 581.2 507.56C582.236 507.787 583.137 508.186 583.9 508.756C584.675 509.314 585.278 510.072 585.711 511.029C586.144 511.986 586.361 513.182 586.361 514.618V517.215C586.361 517.432 586.201 517.603 585.882 517.728C585.575 517.853 584.999 517.916 584.156 517.916C583.302 517.916 582.704 517.859 582.362 517.745C582.031 517.62 581.866 517.443 581.866 517.215V515.062C581.866 513.569 581.496 512.499 580.755 511.849C580.026 511.188 578.858 510.858 577.252 510.858C576.739 510.858 576.192 510.898 575.611 510.978C575.042 511.046 574.483 511.154 573.937 511.302V523.402C573.937 523.63 573.766 523.806 573.424 523.932C573.093 524.046 572.501 524.103 571.646 524.103C570.803 524.103 570.222 524.04 569.903 523.915C569.596 523.789 569.442 523.618 569.442 523.402V502.484ZM607.057 516.275C607.057 517.529 606.874 518.657 606.51 519.659C606.157 520.662 605.615 521.516 604.886 522.223C604.157 522.918 603.24 523.453 602.135 523.829C601.041 524.205 599.754 524.393 598.272 524.393C596.882 524.393 595.658 524.216 594.598 523.863C593.539 523.499 592.65 522.98 591.932 522.308C591.226 521.625 590.69 520.793 590.326 519.813C589.972 518.833 589.796 517.717 589.796 516.463V502.501C589.796 502.387 589.824 502.285 589.881 502.193C589.95 502.102 590.064 502.028 590.223 501.971C590.394 501.914 590.622 501.869 590.907 501.834C591.192 501.8 591.556 501.783 592 501.783C592.855 501.783 593.447 501.846 593.778 501.971C594.12 502.097 594.291 502.273 594.291 502.501V516.07C594.291 516.913 594.376 517.631 594.547 518.224C594.718 518.805 594.974 519.283 595.316 519.659C595.669 520.024 596.108 520.292 596.632 520.462C597.156 520.622 597.765 520.702 598.46 520.702C599.873 520.702 600.91 520.348 601.571 519.642C602.232 518.924 602.562 517.819 602.562 516.327V502.501C602.562 502.273 602.727 502.097 603.058 501.971C603.388 501.846 603.986 501.783 604.852 501.783C605.707 501.783 606.288 501.846 606.595 501.971C606.903 502.097 607.057 502.273 607.057 502.501V516.275ZM629.103 516.275C629.103 516.993 629.028 517.739 628.88 518.514C628.732 519.289 628.482 519.995 628.128 520.633L628.556 520.941C629.273 521.442 629.883 521.784 630.384 521.966C630.726 522.08 630.948 522.325 631.051 522.701C631.153 523.066 631.205 523.624 631.205 524.376C631.205 525.253 631.148 525.863 631.034 526.205C630.92 526.546 630.789 526.717 630.641 526.717C630.276 526.717 629.9 526.638 629.513 526.478C629.125 526.33 628.732 526.131 628.333 525.88C627.935 525.629 627.53 525.339 627.12 525.008C626.71 524.689 626.3 524.353 625.89 524L625.206 523.419C624.42 523.784 623.617 524.034 622.796 524.171C621.987 524.319 621.161 524.393 620.318 524.393C618.928 524.393 617.704 524.216 616.644 523.863C615.584 523.499 614.696 522.98 613.978 522.308C613.272 521.625 612.736 520.793 612.372 519.813C612.018 518.822 611.842 517.705 611.842 516.463V502.501C611.842 502.387 611.87 502.285 611.927 502.193C611.996 502.102 612.11 502.028 612.269 501.971C612.44 501.914 612.668 501.869 612.953 501.834C613.237 501.8 613.602 501.783 614.046 501.783C614.901 501.783 615.493 501.846 615.824 501.971C616.166 502.097 616.336 502.273 616.336 502.501V516.07C616.336 516.948 616.433 517.688 616.627 518.292C616.821 518.884 617.111 519.363 617.499 519.728C617.897 520.081 618.387 520.337 618.968 520.497C619.561 520.645 620.25 520.719 621.036 520.719C621.64 520.719 622.17 520.639 622.625 520.479C623.093 520.32 623.48 520.104 623.788 519.83C624.107 519.557 624.346 519.232 624.505 518.856C624.665 518.48 624.745 518.076 624.745 517.643C624.745 517.438 624.733 517.227 624.71 517.01C624.699 516.794 624.665 516.566 624.608 516.327V502.501C624.608 502.273 624.773 502.097 625.104 501.971C625.434 501.846 626.032 501.783 626.898 501.783C627.752 501.783 628.333 501.846 628.641 501.971C628.949 502.097 629.103 502.273 629.103 502.501V516.275ZM644.142 518.343C644.142 517.831 644.045 517.341 643.851 516.874C643.657 516.406 643.35 515.996 642.928 515.643C642.507 515.29 641.96 515.011 641.288 514.806C640.615 514.589 639.806 514.481 638.861 514.481H632.469C632.298 514.481 632.162 514.458 632.059 514.413C631.957 514.367 631.871 514.282 631.803 514.156C631.746 514.031 631.706 513.854 631.683 513.626C631.672 513.399 631.666 513.108 631.666 512.755C631.666 512.105 631.717 511.61 631.82 511.268C631.934 510.926 632.133 510.755 632.418 510.755H638.844C640.245 510.755 641.339 510.522 642.125 510.055C642.911 509.576 643.304 508.893 643.304 508.004C643.304 507.206 643.059 506.608 642.569 506.209C642.079 505.799 641.259 505.594 640.108 505.594H635.904C635.676 505.594 635.506 505.452 635.392 505.167C635.278 504.882 635.221 504.398 635.221 503.714C635.221 503.031 635.278 502.558 635.392 502.296C635.506 502.022 635.676 501.886 635.904 501.886H639.938C641.362 501.886 642.581 502 643.595 502.228C644.62 502.455 645.458 502.792 646.107 503.236C646.756 503.68 647.235 504.238 647.542 504.911C647.85 505.571 648.004 506.346 648.004 507.235C648.004 508.5 647.645 509.559 646.927 510.414C646.209 511.268 645.218 511.9 643.954 512.311V512.345C644.649 512.424 645.281 512.618 645.851 512.926C646.432 513.222 646.927 513.604 647.337 514.071C647.748 514.538 648.067 515.073 648.294 515.677C648.522 516.27 648.636 516.908 648.636 517.591V523.385C648.636 523.499 648.602 523.601 648.534 523.692C648.477 523.784 648.363 523.858 648.192 523.915C648.032 523.972 647.81 524.017 647.525 524.051C647.241 524.085 646.876 524.103 646.432 524.103C645.577 524.103 644.979 524.04 644.637 523.915C644.307 523.789 644.142 523.613 644.142 523.385V518.343ZM670.357 516.275C670.357 516.993 670.283 517.739 670.135 518.514C669.987 519.289 669.736 519.995 669.383 520.633L669.811 520.941C670.528 521.442 671.138 521.784 671.639 521.966C671.981 522.08 672.203 522.325 672.306 522.701C672.408 523.066 672.459 523.624 672.459 524.376C672.459 525.253 672.403 525.863 672.289 526.205C672.175 526.546 672.044 526.717 671.896 526.717C671.531 526.717 671.155 526.638 670.768 526.478C670.38 526.33 669.987 526.131 669.588 525.88C669.19 525.629 668.785 525.339 668.375 525.008C667.965 524.689 667.555 524.353 667.145 524L666.461 523.419C665.675 523.784 664.872 524.034 664.051 524.171C663.242 524.319 662.416 524.393 661.573 524.393C660.183 524.393 658.958 524.216 657.899 523.863C656.839 523.499 655.951 522.98 655.233 522.308C654.527 521.625 653.991 520.793 653.626 519.813C653.273 518.822 653.097 517.705 653.097 516.463V502.501C653.097 502.387 653.125 502.285 653.182 502.193C653.25 502.102 653.364 502.028 653.524 501.971C653.695 501.914 653.923 501.869 654.208 501.834C654.492 501.8 654.857 501.783 655.301 501.783C656.156 501.783 656.748 501.846 657.079 501.971C657.42 502.097 657.591 502.273 657.591 502.501V516.07C657.591 516.948 657.688 517.688 657.882 518.292C658.076 518.884 658.366 519.363 658.753 519.728C659.152 520.081 659.642 520.337 660.223 520.497C660.816 520.645 661.505 520.719 662.291 520.719C662.895 520.719 663.425 520.639 663.88 520.479C664.347 520.32 664.735 520.104 665.042 519.83C665.361 519.557 665.601 519.232 665.76 518.856C665.92 518.48 666 518.076 666 517.643C666 517.438 665.988 517.227 665.965 517.01C665.954 516.794 665.92 516.566 665.863 516.327V502.501C665.863 502.273 666.028 502.097 666.358 501.971C666.689 501.846 667.287 501.783 668.153 501.783C669.007 501.783 669.588 501.846 669.896 501.971C670.204 502.097 670.357 502.273 670.357 502.501V516.275ZM686.883 509.815C686.883 508.972 686.798 508.26 686.627 507.679C686.456 507.087 686.194 506.608 685.841 506.244C685.499 505.868 685.066 505.6 684.542 505.44C684.018 505.27 683.408 505.184 682.713 505.184C681.301 505.184 680.264 505.543 679.603 506.261C678.942 506.967 678.612 508.067 678.612 509.559V511.183C678.612 511.41 678.447 511.587 678.116 511.712C677.797 511.838 677.199 511.9 676.322 511.9C675.467 511.9 674.886 511.838 674.579 511.712C674.271 511.587 674.117 511.41 674.117 511.183V509.61C674.117 508.357 674.294 507.229 674.647 506.227C675.012 505.224 675.558 504.375 676.288 503.68C677.017 502.974 677.928 502.433 679.022 502.057C680.127 501.681 681.42 501.493 682.901 501.493C684.291 501.493 685.516 501.675 686.576 502.04C687.635 502.393 688.518 502.911 689.225 503.595C689.942 504.267 690.478 505.093 690.831 506.073C691.196 507.053 691.378 508.169 691.378 509.422V520.292H695.821C696.049 520.292 696.22 520.428 696.334 520.702C696.448 520.964 696.505 521.454 696.505 522.171C696.505 522.821 696.448 523.288 696.334 523.573C696.22 523.858 696.049 524 695.821 524H688.216C687.84 524 687.521 523.892 687.259 523.675C687.009 523.459 686.883 523.094 686.883 522.582V509.815ZM698.385 509.61C698.385 508.357 698.561 507.229 698.915 506.227C699.279 505.224 699.826 504.375 700.555 503.68C701.284 502.974 702.196 502.433 703.29 502.057C704.395 501.681 705.688 501.493 707.169 501.493C708.559 501.493 709.784 501.675 710.843 502.04C711.903 502.393 712.786 502.911 713.492 503.595C714.21 504.267 714.745 505.093 715.099 506.073C715.463 507.053 715.646 508.169 715.646 509.422V523.385C715.646 523.499 715.611 523.601 715.543 523.692C715.486 523.784 715.372 523.858 715.201 523.915C715.042 523.972 714.819 524.017 714.535 524.051C714.25 524.085 713.885 524.103 713.441 524.103C712.586 524.103 711.988 524.04 711.646 523.915C711.316 523.789 711.151 523.613 711.151 523.385V509.815C711.151 508.972 711.065 508.26 710.895 507.679C710.724 507.087 710.462 506.608 710.108 506.244C709.767 505.868 709.334 505.6 708.81 505.44C708.285 505.27 707.676 505.184 706.981 505.184C705.568 505.184 704.531 505.543 703.871 506.261C703.21 506.967 702.879 508.067 702.879 509.559V523.385C702.879 523.613 702.714 523.789 702.384 523.915C702.065 524.04 701.467 524.103 700.589 524.103C699.735 524.103 699.154 524.04 698.846 523.915C698.539 523.789 698.385 523.613 698.385 523.385V509.61ZM720.431 509.61C720.431 508.357 720.607 507.229 720.96 506.227C721.325 505.224 721.872 504.375 722.601 503.68C723.33 502.974 724.242 502.433 725.335 502.057C726.441 501.681 727.734 501.493 729.215 501.493C730.605 501.493 731.83 501.675 732.889 502.04C733.949 502.393 734.832 502.911 735.538 503.595C736.256 504.267 736.791 505.093 737.145 506.073C737.509 507.053 737.691 508.169 737.691 509.422V511.183C737.691 511.297 737.657 511.399 737.589 511.49C737.532 511.581 737.418 511.655 737.247 511.712C737.088 511.769 736.865 511.815 736.581 511.849C736.296 511.883 735.931 511.9 735.487 511.9C734.632 511.9 734.034 511.838 733.692 511.712C733.362 511.587 733.197 511.41 733.197 511.183V509.815C733.197 508.972 733.111 508.26 732.94 507.679C732.77 507.087 732.507 506.608 732.154 506.244C731.812 505.868 731.38 505.6 730.855 505.44C730.331 505.27 729.722 505.184 729.027 505.184C727.614 505.184 726.577 505.543 725.917 506.261C725.256 506.967 724.925 508.067 724.925 509.559V523.385C724.925 523.613 724.76 523.789 724.43 523.915C724.111 524.04 723.513 524.103 722.635 524.103C721.781 524.103 721.2 524.04 720.892 523.915C720.584 523.789 720.431 523.613 720.431 523.385V509.61ZM740.084 509.61C740.084 508.357 740.261 507.229 740.614 506.227C740.978 505.224 741.525 504.375 742.254 503.68C742.984 502.974 743.895 502.433 744.989 502.057C746.094 501.681 747.387 501.493 748.868 501.493C750.258 501.493 751.483 501.675 752.542 502.04C753.602 502.393 754.485 502.911 755.191 503.595C755.909 504.267 756.445 505.093 756.798 506.073C757.162 507.053 757.345 508.169 757.345 509.422V514.583H761.788C762.016 514.583 762.187 514.72 762.301 514.994C762.415 515.256 762.472 515.746 762.472 516.463C762.472 517.113 762.415 517.58 762.301 517.865C762.187 518.15 762.016 518.292 761.788 518.292H757.345V523.385C757.345 523.499 757.311 523.601 757.242 523.692C757.185 523.784 757.071 523.858 756.9 523.915C756.741 523.972 756.519 524.017 756.234 524.051C755.949 524.085 755.584 524.103 755.14 524.103C754.286 524.103 753.688 524.04 753.346 523.915C753.015 523.789 752.85 523.613 752.85 523.385V509.815C752.85 508.972 752.765 508.26 752.594 507.679C752.423 507.087 752.161 506.608 751.808 506.244C751.466 505.868 751.033 505.6 750.509 505.44C749.985 505.27 749.375 505.184 748.68 505.184C747.267 505.184 746.231 505.543 745.57 506.261C744.909 506.967 744.579 508.067 744.579 509.559V511.183C744.579 511.41 744.413 511.587 744.083 511.712C743.764 511.838 743.166 511.9 742.289 511.9C741.434 511.9 740.853 511.838 740.545 511.712C740.238 511.587 740.084 511.41 740.084 511.183V509.61ZM764.608 502.484C764.608 502.256 764.762 502.085 765.069 501.971C765.388 501.846 765.969 501.783 766.812 501.783C767.667 501.783 768.259 501.846 768.59 501.971C768.932 502.085 769.103 502.256 769.103 502.484V507.679C769.741 507.542 770.396 507.429 771.068 507.337C771.751 507.246 772.389 507.201 772.982 507.201C774.201 507.201 775.329 507.32 776.366 507.56C777.403 507.787 778.303 508.186 779.066 508.756C779.841 509.314 780.444 510.072 780.877 511.029C781.31 511.986 781.527 513.182 781.527 514.618V517.215C781.527 517.432 781.367 517.603 781.048 517.728C780.741 517.853 780.165 517.916 779.322 517.916C778.468 517.916 777.87 517.859 777.528 517.745C777.197 517.62 777.032 517.443 777.032 517.215V515.062C777.032 513.569 776.662 512.499 775.921 511.849C775.192 511.188 774.024 510.858 772.418 510.858C771.905 510.858 771.358 510.898 770.777 510.978C770.208 511.046 769.649 511.154 769.103 511.302V523.402C769.103 523.63 768.932 523.806 768.59 523.932C768.259 524.046 767.667 524.103 766.812 524.103C765.969 524.103 765.388 524.04 765.069 523.915C764.762 523.789 764.608 523.618 764.608 523.402V502.484ZM787.354 521.163C787.275 521.129 787.184 521.083 787.081 521.026C786.99 520.958 786.899 520.844 786.808 520.685C786.728 520.514 786.66 520.286 786.603 520.001C786.546 519.705 786.517 519.317 786.517 518.839C786.517 518.338 786.534 517.944 786.568 517.66C786.603 517.363 786.642 517.141 786.688 516.993C786.745 516.845 786.808 516.754 786.876 516.72C786.944 516.674 787.013 516.651 787.081 516.651C787.161 516.651 787.269 516.68 787.406 516.737L790.772 518.019H791.08C791.923 518.019 792.732 517.848 793.507 517.506C794.282 517.164 794.959 516.674 795.541 516.036C796.133 515.387 796.606 514.601 796.959 513.678C797.312 512.755 797.489 511.718 797.489 510.567C797.489 509.793 797.438 509.075 797.335 508.414C797.232 507.753 797.022 507.184 796.703 506.705C796.395 506.227 795.956 505.856 795.387 505.594C794.817 505.321 794.065 505.184 793.131 505.184C791.718 505.184 790.653 505.543 789.935 506.261C789.217 506.967 788.858 508.067 788.858 509.559C788.858 509.867 788.881 510.163 788.927 510.448C788.972 510.733 788.995 511 788.995 511.251C788.995 511.467 788.801 511.633 788.414 511.747C788.038 511.849 787.44 511.9 786.62 511.9C785.765 511.9 785.167 511.838 784.825 511.712C784.495 511.587 784.307 511.41 784.261 511.183C784.216 510.932 784.176 510.676 784.142 510.414C784.119 510.14 784.107 509.872 784.107 509.61C784.107 508.357 784.307 507.229 784.706 506.227C785.116 505.224 785.708 504.375 786.483 503.68C787.269 502.974 788.232 502.433 789.371 502.057C790.522 501.681 791.838 501.493 793.319 501.493C794.857 501.493 796.184 501.692 797.301 502.091C798.429 502.478 799.352 503.042 800.069 503.783C800.799 504.523 801.34 505.423 801.693 506.483C802.046 507.531 802.223 508.716 802.223 510.038C802.223 511.291 802.08 512.442 801.795 513.49C801.511 514.538 801.095 515.484 800.548 516.327C800.012 517.158 799.357 517.882 798.583 518.497C797.808 519.112 796.925 519.608 795.934 519.984L798.634 521.009C798.725 521.043 798.816 521.095 798.907 521.163C799.01 521.231 799.101 521.345 799.181 521.505C799.26 521.664 799.323 521.892 799.369 522.188C799.426 522.473 799.454 522.855 799.454 523.333C799.454 523.801 799.437 524.171 799.403 524.444C799.38 524.729 799.34 524.946 799.283 525.094C799.238 525.253 799.181 525.356 799.112 525.401C799.044 525.458 798.976 525.487 798.907 525.487C798.793 525.487 798.685 525.464 798.583 525.418L787.354 521.163ZM811.485 510.499C811.485 510.978 811.445 511.376 811.366 511.695C811.286 512.014 811.149 512.276 810.956 512.481C810.773 512.687 810.528 512.835 810.221 512.926C809.913 513.006 809.526 513.045 809.059 513.045C808.591 513.045 808.204 513.006 807.896 512.926C807.589 512.835 807.338 512.687 807.145 512.481C806.962 512.276 806.837 512.014 806.769 511.695C806.7 511.376 806.666 510.978 806.666 510.499C806.666 510.009 806.7 509.599 806.769 509.269C806.837 508.938 806.962 508.67 807.145 508.465C807.338 508.26 807.589 508.112 807.896 508.021C808.204 507.93 808.591 507.884 809.059 507.884C809.526 507.884 809.913 507.93 810.221 508.021C810.528 508.112 810.773 508.26 810.956 508.465C811.149 508.67 811.286 508.938 811.366 509.269C811.445 509.599 811.485 510.009 811.485 510.499ZM811.485 521.659C811.485 522.137 811.445 522.542 811.366 522.872C811.286 523.191 811.149 523.453 810.956 523.658C810.773 523.863 810.528 524.006 810.221 524.085C809.913 524.177 809.526 524.222 809.059 524.222C808.591 524.222 808.204 524.177 807.896 524.085C807.589 524.006 807.338 523.863 807.145 523.658C806.962 523.453 806.837 523.191 806.769 522.872C806.7 522.542 806.666 522.137 806.666 521.659C806.666 521.18 806.7 520.776 806.769 520.445C806.837 520.104 806.962 519.83 807.145 519.625C807.338 519.42 807.589 519.278 807.896 519.198C808.204 519.107 808.591 519.061 809.059 519.061C809.526 519.061 809.913 519.107 810.221 519.198C810.528 519.278 810.773 519.42 810.956 519.625C811.149 519.83 811.286 520.104 811.366 520.445C811.445 520.776 811.485 521.18 811.485 521.659Z" fill="#132AF4"/>
<rect x="875" y="483" width="66" height="66" rx="8" stroke="#132AF4" stroke-width="4" stroke-dasharray="10 10"/>
<rect x="883" y="491" width="50" height="50" rx="10" fill="#7847C8"/>
<path d="M989.446 514.293C989.446 514.942 989.377 515.398 989.241 515.66C989.104 515.911 988.91 516.036 988.66 516.036H963.059C962.797 516.036 962.592 515.911 962.444 515.66C962.307 515.398 962.239 514.942 962.239 514.293C962.239 513.655 962.301 513.199 962.427 512.926C962.563 512.652 962.774 512.516 963.059 512.516H988.66C988.933 512.516 989.132 512.647 989.258 512.909C989.383 513.171 989.446 513.632 989.446 514.293ZM1013.92 516.292C1013.92 516.52 1013.76 516.697 1013.44 516.822C1013.13 516.948 1012.54 517.01 1011.66 517.01C1010.8 517.01 1010.2 516.948 1009.89 516.822C1009.57 516.697 1009.41 516.52 1009.41 516.292V505.338C1006.56 505.782 1005.13 507.189 1005.13 509.559V511.183C1005.13 511.41 1004.97 511.587 1004.64 511.712C1004.32 511.838 1003.72 511.9 1002.84 511.9C1001.99 511.9 1001.41 511.838 1001.1 511.712C1000.79 511.587 1000.64 511.41 1000.64 511.183V509.61C1000.64 508.357 1000.91 507.229 1001.46 506.227C1002.01 505.224 1002.78 504.375 1003.77 503.68C1004.76 502.974 1005.94 502.433 1007.3 502.057C1008.68 501.681 1010.2 501.493 1011.85 501.493C1013.5 501.493 1015 501.675 1016.33 502.04C1017.67 502.393 1018.81 502.911 1019.75 503.595C1020.69 504.267 1021.42 505.093 1021.92 506.073C1022.43 507.053 1022.69 508.169 1022.69 509.422V523.385C1022.69 523.499 1022.65 523.601 1022.58 523.692C1022.53 523.784 1022.41 523.858 1022.24 523.915C1022.08 523.972 1021.86 524.017 1021.57 524.051C1021.29 524.085 1020.93 524.103 1020.48 524.103C1019.63 524.103 1019.03 524.04 1018.69 523.915C1018.36 523.789 1018.19 523.613 1018.19 523.385V509.815C1018.19 508.448 1017.83 507.411 1017.11 506.705C1016.41 505.999 1015.34 505.543 1013.92 505.338V516.292ZM1027.47 509.61C1027.47 508.357 1027.65 507.229 1028 506.227C1028.37 505.224 1028.91 504.375 1029.64 503.68C1030.37 502.974 1031.28 502.433 1032.38 502.057C1033.48 501.681 1034.77 501.493 1036.25 501.493C1037.64 501.493 1038.87 501.675 1039.93 502.04C1040.99 502.393 1041.87 502.911 1042.58 503.595C1043.3 504.267 1043.83 505.093 1044.18 506.073C1044.55 507.053 1044.73 508.169 1044.73 509.422V523.385C1044.73 523.499 1044.7 523.601 1044.63 523.692C1044.57 523.784 1044.46 523.858 1044.29 523.915C1044.13 523.972 1043.91 524.017 1043.62 524.051C1043.34 524.085 1042.97 524.103 1042.53 524.103C1041.67 524.103 1041.07 524.04 1040.73 523.915C1040.4 523.789 1040.24 523.613 1040.24 523.385V509.815C1040.24 508.972 1040.15 508.26 1039.98 507.679C1039.81 507.087 1039.55 506.608 1039.19 506.244C1038.85 505.868 1038.42 505.6 1037.9 505.44C1037.37 505.27 1036.76 505.184 1036.07 505.184C1034.65 505.184 1033.62 505.543 1032.96 506.261C1032.3 506.967 1031.97 508.067 1031.97 509.559V523.385C1031.97 523.613 1031.8 523.789 1031.47 523.915C1031.15 524.04 1030.55 524.103 1029.68 524.103C1028.82 524.103 1028.24 524.04 1027.93 523.915C1027.62 523.789 1027.47 523.613 1027.47 523.385V509.61ZM1063.29 522.12C1063.29 522.804 1063.23 523.288 1063.12 523.573C1063.01 523.858 1062.84 524 1062.61 524H1050.94C1050.56 524 1050.24 523.892 1049.98 523.675C1049.73 523.459 1049.6 523.094 1049.6 522.582V502.501C1049.6 502.273 1049.76 502.097 1050.08 501.971C1050.4 501.846 1050.99 501.783 1051.86 501.783C1052.74 501.783 1053.33 501.846 1053.64 501.971C1053.95 502.097 1054.11 502.273 1054.11 502.501V520.292H1062.61C1062.84 520.292 1063.01 520.428 1063.12 520.702C1063.23 520.964 1063.29 521.437 1063.29 522.12ZM1065.26 502.484C1065.26 502.256 1065.41 502.085 1065.72 501.971C1066.04 501.846 1066.62 501.783 1067.46 501.783C1068.32 501.783 1068.91 501.846 1069.24 501.971C1069.58 502.085 1069.75 502.256 1069.75 502.484V507.679C1070.39 507.542 1071.04 507.429 1071.72 507.337C1072.4 507.246 1073.04 507.201 1073.63 507.201C1074.85 507.201 1075.98 507.32 1077.01 507.56C1078.05 507.787 1078.95 508.186 1079.71 508.756C1080.49 509.314 1081.09 510.072 1081.53 511.029C1081.96 511.986 1082.18 513.182 1082.18 514.618V517.215C1082.18 517.432 1082.02 517.603 1081.7 517.728C1081.39 517.853 1080.81 517.916 1079.97 517.916C1079.12 517.916 1078.52 517.859 1078.18 517.745C1077.85 517.62 1077.68 517.443 1077.68 517.215V515.062C1077.68 513.569 1077.31 512.499 1076.57 511.849C1075.84 511.188 1074.67 510.858 1073.07 510.858C1072.55 510.858 1072.01 510.898 1071.43 510.978C1070.86 511.046 1070.3 511.154 1069.75 511.302V523.402C1069.75 523.63 1069.58 523.806 1069.24 523.932C1068.91 524.046 1068.32 524.103 1067.46 524.103C1066.62 524.103 1066.04 524.04 1065.72 523.915C1065.41 523.789 1065.26 523.618 1065.26 523.402V502.484ZM1102.87 516.275C1102.87 517.529 1102.69 518.657 1102.32 519.659C1101.97 520.662 1101.43 521.516 1100.7 522.223C1099.97 522.918 1099.05 523.453 1097.95 523.829C1096.86 524.205 1095.57 524.393 1094.09 524.393C1092.7 524.393 1091.47 524.216 1090.41 523.863C1089.35 523.499 1088.46 522.98 1087.75 522.308C1087.04 521.625 1086.5 520.793 1086.14 519.813C1085.79 518.833 1085.61 517.717 1085.61 516.463V502.501C1085.61 502.387 1085.64 502.285 1085.7 502.193C1085.76 502.102 1085.88 502.028 1086.04 501.971C1086.21 501.914 1086.44 501.869 1086.72 501.834C1087.01 501.8 1087.37 501.783 1087.81 501.783C1088.67 501.783 1089.26 501.846 1089.59 501.971C1089.93 502.097 1090.1 502.273 1090.1 502.501V516.07C1090.1 516.913 1090.19 517.631 1090.36 518.224C1090.53 518.805 1090.79 519.283 1091.13 519.659C1091.48 520.024 1091.92 520.292 1092.45 520.462C1092.97 520.622 1093.58 520.702 1094.27 520.702C1095.69 520.702 1096.72 520.348 1097.39 519.642C1098.05 518.924 1098.38 517.819 1098.38 516.327V502.501C1098.38 502.273 1098.54 502.097 1098.87 501.971C1099.2 501.846 1099.8 501.783 1100.67 501.783C1101.52 501.783 1102.1 501.846 1102.41 501.971C1102.72 502.097 1102.87 502.273 1102.87 502.501V516.275ZM1107.74 502.484C1107.74 502.256 1107.9 502.085 1108.2 501.971C1108.52 501.846 1109.1 501.783 1109.95 501.783C1110.8 501.783 1111.39 501.846 1111.72 501.971C1112.07 502.085 1112.24 502.256 1112.24 502.484V507.679C1112.87 507.542 1113.53 507.429 1114.2 507.337C1114.89 507.246 1115.52 507.201 1116.12 507.201C1117.33 507.201 1118.46 507.32 1119.5 507.56C1120.54 507.787 1121.44 508.186 1122.2 508.756C1122.97 509.314 1123.58 510.072 1124.01 511.029C1124.44 511.986 1124.66 513.182 1124.66 514.618V517.215C1124.66 517.432 1124.5 517.603 1124.18 517.728C1123.87 517.853 1123.3 517.916 1122.46 517.916C1121.6 517.916 1121 517.859 1120.66 517.745C1120.33 517.62 1120.17 517.443 1120.17 517.215V515.062C1120.17 513.569 1119.8 512.499 1119.06 511.849C1118.33 511.188 1117.16 510.858 1115.55 510.858C1115.04 510.858 1114.49 510.898 1113.91 510.978C1113.34 511.046 1112.78 511.154 1112.24 511.302V523.402C1112.24 523.63 1112.07 523.806 1111.72 523.932C1111.39 524.046 1110.8 524.103 1109.95 524.103C1109.1 524.103 1108.52 524.04 1108.2 523.915C1107.9 523.789 1107.74 523.618 1107.74 523.402V502.484ZM1141.87 522.12C1141.87 522.804 1141.81 523.288 1141.7 523.573C1141.59 523.858 1141.41 524 1141.19 524H1129.51C1129.14 524 1128.82 523.892 1128.56 523.675C1128.31 523.459 1128.18 523.094 1128.18 522.582V502.501C1128.18 502.273 1128.34 502.097 1128.66 501.971C1128.98 501.846 1129.57 501.783 1130.44 501.783C1131.31 501.783 1131.91 501.846 1132.21 501.971C1132.53 502.097 1132.69 502.273 1132.69 502.501V520.292H1141.19C1141.41 520.292 1141.59 520.428 1141.7 520.702C1141.81 520.964 1141.87 521.437 1141.87 522.12ZM1143.84 502.484C1143.84 502.256 1143.99 502.085 1144.3 501.971C1144.62 501.846 1145.2 501.783 1146.04 501.783C1146.89 501.783 1147.49 501.846 1147.82 501.971C1148.16 502.085 1148.33 502.256 1148.33 502.484V507.679C1148.97 507.542 1149.62 507.429 1150.3 507.337C1150.98 507.246 1151.62 507.201 1152.21 507.201C1153.43 507.201 1154.56 507.32 1155.59 507.56C1156.63 507.787 1157.53 508.186 1158.29 508.756C1159.07 509.314 1159.67 510.072 1160.1 511.029C1160.54 511.986 1160.75 513.182 1160.75 514.618V517.215C1160.75 517.432 1160.59 517.603 1160.28 517.728C1159.97 517.853 1159.39 517.916 1158.55 517.916C1157.7 517.916 1157.1 517.859 1156.76 517.745C1156.42 517.62 1156.26 517.443 1156.26 517.215V515.062C1156.26 513.569 1155.89 512.499 1155.15 511.849C1154.42 511.188 1153.25 510.858 1151.65 510.858C1151.13 510.858 1150.59 510.898 1150 510.978C1149.44 511.046 1148.88 511.154 1148.33 511.302V523.402C1148.33 523.63 1148.16 523.806 1147.82 523.932C1147.49 524.046 1146.89 524.103 1146.04 524.103C1145.2 524.103 1144.62 524.04 1144.3 523.915C1143.99 523.789 1143.84 523.618 1143.84 523.402V502.484ZM1180.51 523.402C1180.51 523.618 1180.35 523.789 1180.03 523.915C1179.72 524.04 1179.15 524.103 1178.31 524.103C1177.45 524.103 1176.85 524.046 1176.51 523.932C1176.18 523.806 1176.02 523.63 1176.02 523.402V517.455C1175.38 517.591 1174.72 517.705 1174.03 517.796C1173.36 517.888 1172.73 517.933 1172.14 517.933C1170.93 517.933 1169.8 517.819 1168.75 517.591C1167.72 517.352 1166.81 516.953 1166.04 516.395C1165.27 515.825 1164.67 515.062 1164.24 514.105C1163.81 513.148 1163.59 511.952 1163.59 510.516V502.484C1163.59 502.256 1163.75 502.085 1164.05 501.971C1164.37 501.846 1164.95 501.783 1165.8 501.783C1166.65 501.783 1167.24 501.846 1167.57 501.971C1167.92 502.085 1168.09 502.256 1168.09 502.484V510.072C1168.09 511.553 1168.45 512.624 1169.18 513.285C1169.92 513.945 1171.09 514.276 1172.7 514.276C1173.21 514.276 1173.75 514.242 1174.32 514.173C1174.9 514.094 1175.47 513.98 1176.02 513.832V508.329C1176.02 508.101 1176.18 507.93 1176.51 507.816C1176.85 507.691 1177.45 507.628 1178.31 507.628C1179.15 507.628 1179.72 507.691 1180.03 507.816C1180.35 507.93 1180.51 508.101 1180.51 508.329V523.402ZM1185.14 509.61C1185.14 508.357 1185.32 507.229 1185.67 506.227C1186.04 505.224 1186.58 504.375 1187.31 503.68C1188.04 502.974 1188.95 502.433 1190.05 502.057C1191.15 501.681 1192.44 501.493 1193.93 501.493C1195.32 501.493 1196.54 501.675 1197.6 502.04C1198.66 502.393 1199.54 502.911 1200.25 503.595C1200.97 504.267 1201.5 505.093 1201.86 506.073C1202.22 507.053 1202.4 508.169 1202.4 509.422V523.385C1202.4 523.499 1202.37 523.601 1202.3 523.692C1202.24 523.784 1202.13 523.858 1201.96 523.915C1201.8 523.972 1201.58 524.017 1201.29 524.051C1201.01 524.085 1200.64 524.103 1200.2 524.103C1199.34 524.103 1198.75 524.04 1198.4 523.915C1198.07 523.789 1197.91 523.613 1197.91 523.385V509.815C1197.91 508.972 1197.82 508.26 1197.65 507.679C1197.48 507.087 1197.22 506.608 1196.87 506.244C1196.52 505.868 1196.09 505.6 1195.57 505.44C1195.04 505.27 1194.43 505.184 1193.74 505.184C1192.33 505.184 1191.29 505.543 1190.63 506.261C1189.97 506.967 1189.64 508.067 1189.64 509.559V523.385C1189.64 523.613 1189.47 523.789 1189.14 523.915C1188.82 524.04 1188.22 524.103 1187.35 524.103C1186.49 524.103 1185.91 524.04 1185.6 523.915C1185.3 523.789 1185.14 523.613 1185.14 523.385V509.61ZM1213.73 516.07C1213.73 516.913 1213.82 517.631 1213.99 518.224C1214.16 518.805 1214.42 519.283 1214.76 519.659C1215.11 520.024 1215.55 520.292 1216.07 520.462C1216.6 520.622 1217.21 520.702 1217.9 520.702C1219.32 520.702 1220.35 520.348 1221.01 519.642C1221.67 518.924 1222 517.819 1222 516.327V514.703C1222 514.475 1222.17 514.299 1222.5 514.173C1222.83 514.048 1223.43 513.985 1224.29 513.985C1225.15 513.985 1225.73 514.048 1226.04 514.173C1226.35 514.299 1226.5 514.475 1226.5 514.703V516.275C1226.5 517.529 1226.32 518.657 1225.95 519.659C1225.6 520.662 1225.06 521.516 1224.33 522.223C1223.6 522.918 1222.68 523.453 1221.58 523.829C1220.48 524.205 1219.2 524.393 1217.71 524.393C1216.32 524.393 1215.1 524.216 1214.04 523.863C1212.98 523.499 1212.09 522.98 1211.37 522.308C1210.67 521.625 1210.13 520.793 1209.77 519.813C1209.41 518.833 1209.24 517.717 1209.24 516.463V505.594H1204.97C1204.74 505.594 1204.57 505.463 1204.45 505.201C1204.34 504.928 1204.28 504.432 1204.28 503.714C1204.28 503.065 1204.34 502.598 1204.45 502.313C1204.57 502.028 1204.74 501.886 1204.97 501.886H1212.4C1212.78 501.886 1213.09 501.994 1213.34 502.21C1213.6 502.427 1213.73 502.792 1213.73 503.304V516.07ZM1235.25 510.499C1235.25 510.978 1235.21 511.376 1235.13 511.695C1235.05 512.014 1234.91 512.276 1234.72 512.481C1234.54 512.687 1234.29 512.835 1233.98 512.926C1233.68 513.006 1233.29 513.045 1232.82 513.045C1232.36 513.045 1231.97 513.006 1231.66 512.926C1231.35 512.835 1231.1 512.687 1230.91 512.481C1230.73 512.276 1230.6 512.014 1230.53 511.695C1230.46 511.376 1230.43 510.978 1230.43 510.499C1230.43 510.009 1230.46 509.599 1230.53 509.269C1230.6 508.938 1230.73 508.67 1230.91 508.465C1231.1 508.26 1231.35 508.112 1231.66 508.021C1231.97 507.93 1232.36 507.884 1232.82 507.884C1233.29 507.884 1233.68 507.93 1233.98 508.021C1234.29 508.112 1234.54 508.26 1234.72 508.465C1234.91 508.67 1235.05 508.938 1235.13 509.269C1235.21 509.599 1235.25 510.009 1235.25 510.499ZM1235.25 521.659C1235.25 522.137 1235.21 522.542 1235.13 522.872C1235.05 523.191 1234.91 523.453 1234.72 523.658C1234.54 523.863 1234.29 524.006 1233.98 524.085C1233.68 524.177 1233.29 524.222 1232.82 524.222C1232.36 524.222 1231.97 524.177 1231.66 524.085C1231.35 524.006 1231.1 523.863 1230.91 523.658C1230.73 523.453 1230.6 523.191 1230.53 522.872C1230.46 522.542 1230.43 522.137 1230.43 521.659C1230.43 521.18 1230.46 520.776 1230.53 520.445C1230.6 520.104 1230.73 519.83 1230.91 519.625C1231.1 519.42 1231.35 519.278 1231.66 519.198C1231.97 519.107 1232.36 519.061 1232.82 519.061C1233.29 519.061 1233.68 519.107 1233.98 519.198C1234.29 519.278 1234.54 519.42 1234.72 519.625C1234.91 519.83 1235.05 520.104 1235.13 520.445C1235.21 520.776 1235.25 521.18 1235.25 521.659Z" fill="#132AF4"/>
<rect x="875" y="579" width="66" height="66" rx="8" stroke="#132AF4" stroke-width="4" stroke-dasharray="10 10"/>
<rect x="883" y="587" width="50" height="50" rx="10" fill="#96A19F"/>
<path d="M989.446 610.293C989.446 610.942 989.377 611.398 989.241 611.66C989.104 611.911 988.91 612.036 988.66 612.036H963.059C962.797 612.036 962.592 611.911 962.444 611.66C962.307 611.398 962.239 610.942 962.239 610.293C962.239 609.655 962.301 609.199 962.427 608.926C962.563 608.652 962.774 608.516 963.059 608.516H988.66C988.933 608.516 989.132 608.647 989.258 608.909C989.383 609.171 989.446 609.632 989.446 610.293ZM1021.92 608.687C1021.92 610.521 1021.69 612.161 1021.23 613.608C1020.78 615.055 1020.1 616.286 1019.2 617.3C1018.3 618.302 1017.18 619.071 1015.85 619.607C1014.53 620.131 1013 620.393 1011.25 620.393C1007.82 620.393 1005.25 619.482 1003.54 617.659C1001.84 615.836 1000.98 612.976 1000.98 609.08C1000.98 607.291 1001.21 605.684 1001.67 604.26C1002.12 602.825 1002.8 601.606 1003.7 600.603C1004.6 599.6 1005.71 598.831 1007.03 598.296C1008.36 597.76 1009.91 597.493 1011.66 597.493C1015.02 597.493 1017.57 598.398 1019.3 600.21C1021.04 602.021 1021.92 604.847 1021.92 608.687ZM1017.2 608.926C1017.2 607.764 1017.11 606.71 1016.93 605.764C1016.74 604.807 1016.43 603.993 1015.99 603.32C1015.55 602.637 1014.97 602.113 1014.24 601.748C1013.51 601.372 1012.6 601.184 1011.51 601.184C1010.4 601.184 1009.48 601.389 1008.74 601.799C1008 602.209 1007.4 602.768 1006.95 603.474C1006.5 604.169 1006.18 604.984 1005.99 605.918C1005.8 606.841 1005.7 607.821 1005.7 608.857C1005.7 610.065 1005.79 611.153 1005.97 612.122C1006.15 613.079 1006.46 613.899 1006.89 614.583C1007.33 615.255 1007.91 615.773 1008.64 616.138C1009.37 616.502 1010.28 616.685 1011.39 616.685C1012.49 616.685 1013.42 616.479 1014.16 616.069C1014.9 615.659 1015.49 615.101 1015.94 614.395C1016.39 613.688 1016.72 612.868 1016.91 611.934C1017.1 610.988 1017.2 609.985 1017.2 608.926ZM1024.16 618.035C1023.93 618.035 1023.76 617.915 1023.64 617.676C1023.53 617.437 1023.47 616.975 1023.47 616.292C1023.47 615.608 1023.53 615.124 1023.64 614.839C1023.76 614.554 1023.93 614.412 1024.16 614.412H1026.56V604.739C1026.56 603.542 1026.77 602.494 1027.18 601.594C1027.59 600.683 1028.18 599.925 1028.94 599.321C1029.72 598.706 1030.66 598.25 1031.76 597.954C1032.87 597.646 1034.11 597.493 1035.5 597.493C1036.77 597.493 1037.91 597.641 1038.94 597.937C1039.97 598.233 1040.86 598.678 1041.59 599.27C1042.33 599.851 1042.9 600.58 1043.3 601.458C1043.71 602.323 1043.91 603.332 1043.91 604.482C1043.91 605.781 1043.68 606.881 1043.21 607.781C1042.75 608.681 1042.14 609.416 1041.36 609.985C1040.59 610.544 1039.69 610.954 1038.66 611.216C1037.65 611.466 1036.59 611.592 1035.47 611.592C1035.18 611.592 1034.86 611.58 1034.49 611.558C1034.13 611.523 1033.75 611.484 1033.35 611.438C1032.96 611.392 1032.57 611.335 1032.17 611.267C1031.77 611.187 1031.4 611.108 1031.06 611.028V614.412H1043.26C1043.49 614.412 1043.66 614.554 1043.77 614.839C1043.89 615.124 1043.95 615.608 1043.95 616.292C1043.95 616.975 1043.89 617.437 1043.77 617.676C1043.66 617.915 1043.49 618.035 1043.26 618.035H1031.06V619.385C1031.06 619.613 1030.89 619.789 1030.55 619.915C1030.22 620.04 1029.62 620.103 1028.77 620.103C1028.33 620.103 1027.96 620.085 1027.68 620.051C1027.39 620.017 1027.16 619.972 1026.99 619.915C1026.83 619.858 1026.72 619.784 1026.65 619.692C1026.59 619.601 1026.56 619.499 1026.56 619.385V618.035H1024.16ZM1034.9 608.105C1036.43 608.105 1037.55 607.843 1038.25 607.319C1038.97 606.795 1039.33 605.929 1039.33 604.722C1039.33 603.48 1038.97 602.557 1038.24 601.953C1037.52 601.338 1036.52 601.03 1035.23 601.03C1034.61 601.03 1034.05 601.11 1033.54 601.27C1033.02 601.418 1032.59 601.657 1032.22 601.987C1031.86 602.306 1031.57 602.728 1031.37 603.252C1031.16 603.765 1031.06 604.391 1031.06 605.132V607.593C1031.34 607.684 1031.66 607.764 1032 607.832C1032.34 607.9 1032.68 607.957 1033.02 608.003C1033.38 608.037 1033.71 608.066 1034.03 608.088C1034.36 608.1 1034.65 608.105 1034.9 608.105ZM1065.62 612.275C1065.62 613.529 1065.43 614.657 1065.07 615.659C1064.72 616.662 1064.17 617.516 1063.44 618.223C1062.72 618.918 1061.8 619.453 1060.69 619.829C1059.6 620.205 1058.31 620.393 1056.83 620.393C1055.44 620.393 1054.22 620.216 1053.16 619.863C1052.1 619.499 1051.21 618.98 1050.49 618.308C1049.78 617.625 1049.25 616.793 1048.88 615.813C1048.53 614.833 1048.35 613.717 1048.35 612.463V598.501C1048.35 598.387 1048.38 598.285 1048.44 598.193C1048.51 598.102 1048.62 598.028 1048.78 597.971C1048.95 597.914 1049.18 597.869 1049.47 597.834C1049.75 597.8 1050.11 597.783 1050.56 597.783C1051.41 597.783 1052.01 597.846 1052.34 597.971C1052.68 598.097 1052.85 598.273 1052.85 598.501V612.07C1052.85 612.913 1052.93 613.631 1053.11 614.224C1053.28 614.805 1053.53 615.283 1053.87 615.659C1054.23 616.024 1054.67 616.292 1055.19 616.462C1055.71 616.622 1056.32 616.702 1057.02 616.702C1058.43 616.702 1059.47 616.348 1060.13 615.642C1060.79 614.924 1061.12 613.819 1061.12 612.327V598.501C1061.12 598.273 1061.29 598.097 1061.62 597.971C1061.95 597.846 1062.54 597.783 1063.41 597.783C1064.27 597.783 1064.85 597.846 1065.15 597.971C1065.46 598.097 1065.62 598.273 1065.62 598.501V612.275ZM1070.49 598.484C1070.49 598.256 1070.64 598.085 1070.95 597.971C1071.27 597.846 1071.85 597.783 1072.69 597.783C1073.54 597.783 1074.14 597.846 1074.47 597.971C1074.81 598.085 1074.98 598.256 1074.98 598.484V603.679C1075.62 603.542 1076.27 603.429 1076.95 603.337C1077.63 603.246 1078.27 603.201 1078.86 603.201C1080.08 603.201 1081.21 603.32 1082.24 603.56C1083.28 603.787 1084.18 604.186 1084.94 604.756C1085.72 605.314 1086.32 606.072 1086.76 607.029C1087.19 607.986 1087.4 609.182 1087.4 610.618V613.215C1087.4 613.432 1087.25 613.603 1086.93 613.728C1086.62 613.853 1086.04 613.916 1085.2 613.916C1084.35 613.916 1083.75 613.859 1083.41 613.745C1083.08 613.62 1082.91 613.443 1082.91 613.215V611.062C1082.91 609.569 1082.54 608.499 1081.8 607.849C1081.07 607.188 1079.9 606.858 1078.3 606.858C1077.78 606.858 1077.24 606.898 1076.66 606.978C1076.09 607.046 1075.53 607.154 1074.98 607.302V619.402C1074.98 619.63 1074.81 619.806 1074.47 619.932C1074.14 620.046 1073.54 620.103 1072.69 620.103C1071.85 620.103 1071.27 620.04 1070.95 619.915C1070.64 619.789 1070.49 619.618 1070.49 619.402V598.484ZM1089.64 605.61C1089.64 604.357 1089.82 603.229 1090.17 602.227C1090.54 601.224 1091.08 600.375 1091.81 599.68C1092.54 598.974 1093.45 598.433 1094.55 598.057C1095.65 597.681 1096.95 597.493 1098.43 597.493C1099.82 597.493 1101.04 597.675 1102.1 598.04C1103.16 598.393 1104.04 598.911 1104.75 599.595C1105.47 600.267 1106 601.093 1106.36 602.073C1106.72 603.053 1106.9 604.169 1106.9 605.422V610.583H1111.35C1111.58 610.583 1111.75 610.72 1111.86 610.994C1111.97 611.256 1112.03 611.746 1112.03 612.463C1112.03 613.113 1111.97 613.58 1111.86 613.865C1111.75 614.15 1111.58 614.292 1111.35 614.292H1106.9V619.385C1106.9 619.499 1106.87 619.601 1106.8 619.692C1106.74 619.784 1106.63 619.858 1106.46 619.915C1106.3 619.972 1106.08 620.017 1105.79 620.051C1105.51 620.085 1105.14 620.103 1104.7 620.103C1103.85 620.103 1103.25 620.04 1102.91 619.915C1102.57 619.789 1102.41 619.613 1102.41 619.385V605.815C1102.41 604.972 1102.32 604.26 1102.15 603.679C1101.98 603.087 1101.72 602.608 1101.37 602.244C1101.03 601.868 1100.59 601.6 1100.07 601.44C1099.54 601.27 1098.93 601.184 1098.24 601.184C1096.83 601.184 1095.79 601.543 1095.13 602.261C1094.47 602.967 1094.14 604.067 1094.14 605.559V607.183C1094.14 607.41 1093.97 607.587 1093.64 607.712C1093.32 607.838 1092.73 607.9 1091.85 607.9C1090.99 607.9 1090.41 607.838 1090.1 607.712C1089.8 607.587 1089.64 607.41 1089.64 607.183V605.61ZM1119.24 606.499C1119.24 606.978 1119.2 607.376 1119.12 607.695C1119.04 608.014 1118.91 608.276 1118.71 608.481C1118.53 608.687 1118.29 608.835 1117.98 608.926C1117.67 609.006 1117.28 609.045 1116.82 609.045C1116.35 609.045 1115.96 609.006 1115.65 608.926C1115.35 608.835 1115.1 608.687 1114.9 608.481C1114.72 608.276 1114.59 608.014 1114.53 607.695C1114.46 607.376 1114.42 606.978 1114.42 606.499C1114.42 606.009 1114.46 605.599 1114.53 605.269C1114.59 604.938 1114.72 604.67 1114.9 604.465C1115.1 604.26 1115.35 604.112 1115.65 604.021C1115.96 603.93 1116.35 603.884 1116.82 603.884C1117.28 603.884 1117.67 603.93 1117.98 604.021C1118.29 604.112 1118.53 604.26 1118.71 604.465C1118.91 604.67 1119.04 604.938 1119.12 605.269C1119.2 605.599 1119.24 606.009 1119.24 606.499ZM1119.24 617.659C1119.24 618.137 1119.2 618.542 1119.12 618.872C1119.04 619.191 1118.91 619.453 1118.71 619.658C1118.53 619.863 1118.29 620.006 1117.98 620.085C1117.67 620.177 1117.28 620.222 1116.82 620.222C1116.35 620.222 1115.96 620.177 1115.65 620.085C1115.35 620.006 1115.1 619.863 1114.9 619.658C1114.72 619.453 1114.59 619.191 1114.53 618.872C1114.46 618.542 1114.42 618.137 1114.42 617.659C1114.42 617.18 1114.46 616.776 1114.53 616.445C1114.59 616.104 1114.72 615.83 1114.9 615.625C1115.1 615.42 1115.35 615.278 1115.65 615.198C1115.96 615.107 1116.35 615.061 1116.82 615.061C1117.28 615.061 1117.67 615.107 1117.98 615.198C1118.29 615.278 1118.53 615.42 1118.71 615.625C1118.91 615.83 1119.04 616.104 1119.12 616.445C1119.2 616.776 1119.24 617.18 1119.24 617.659Z" fill="#132AF4"/>
<rect x="299" y="579" width="66" height="66" rx="8" stroke="#132AF4" stroke-width="4" stroke-dasharray="10 10"/>
<rect x="307" y="587" width="50" height="50" rx="10" fill="#0392F9"/>
<path d="M413.446 610.293C413.446 610.942 413.377 611.398 413.241 611.66C413.104 611.911 412.91 612.036 412.66 612.036H387.059C386.797 612.036 386.592 611.911 386.444 611.66C386.307 611.398 386.239 610.942 386.239 610.293C386.239 609.655 386.301 609.199 386.427 608.926C386.563 608.652 386.774 608.516 387.059 608.516H412.66C412.933 608.516 413.132 608.647 413.258 608.909C413.383 609.171 413.446 609.632 413.446 610.293ZM444.259 618.428C444.259 618.69 444.213 618.923 444.122 619.128C444.031 619.333 443.906 619.504 443.746 619.641C443.598 619.778 443.416 619.88 443.199 619.949C442.994 620.006 442.783 620.034 442.567 620.034H440.653C440.254 620.034 439.907 619.994 439.61 619.915C439.326 619.835 439.058 619.692 438.807 619.487C438.568 619.271 438.334 618.986 438.106 618.633C437.879 618.268 437.622 617.801 437.337 617.231L431.834 606.892C431.515 606.277 431.191 605.616 430.86 604.91C430.53 604.192 430.234 603.497 429.972 602.825H429.938C429.983 603.645 430.017 604.465 430.04 605.286C430.063 606.095 430.074 606.932 430.074 607.798V619.368C430.074 619.482 430.04 619.584 429.972 619.675C429.915 619.766 429.806 619.846 429.647 619.915C429.499 619.972 429.294 620.017 429.032 620.051C428.77 620.085 428.434 620.103 428.023 620.103C427.625 620.103 427.294 620.085 427.032 620.051C426.77 620.017 426.565 619.972 426.417 619.915C426.269 619.846 426.166 619.766 426.109 619.675C426.052 619.584 426.024 619.482 426.024 619.368V599.492C426.024 598.957 426.178 598.558 426.485 598.296C426.804 598.022 427.192 597.886 427.647 597.886H430.057C430.49 597.886 430.855 597.926 431.151 598.005C431.447 598.074 431.709 598.193 431.937 598.364C432.176 598.535 432.398 598.774 432.604 599.082C432.809 599.378 433.019 599.749 433.236 600.193L437.542 608.276C437.793 608.766 438.038 609.25 438.277 609.729C438.528 610.196 438.767 610.669 438.995 611.147C439.223 611.615 439.445 612.076 439.662 612.532C439.878 612.987 440.089 613.443 440.294 613.899H440.311C440.277 613.101 440.248 612.27 440.226 611.404C440.214 610.538 440.208 609.712 440.208 608.926V598.552C440.208 598.438 440.243 598.336 440.311 598.245C440.379 598.153 440.493 598.074 440.653 598.005C440.812 597.937 441.023 597.891 441.285 597.869C441.547 597.834 441.883 597.817 442.293 597.817C442.681 597.817 443.006 597.834 443.268 597.869C443.53 597.891 443.729 597.937 443.866 598.005C444.014 598.074 444.116 598.153 444.173 598.245C444.23 598.336 444.259 598.438 444.259 598.552V618.428ZM474.132 603.372C474.132 603.599 473.932 603.776 473.534 603.901C473.146 604.027 472.514 604.089 471.637 604.089C470.782 604.089 470.173 604.027 469.808 603.901C469.444 603.776 469.261 603.599 469.261 603.372C469.261 603.053 469.181 602.751 469.022 602.466C468.874 602.17 468.635 601.913 468.304 601.697C467.985 601.48 467.569 601.309 467.057 601.184C466.555 601.059 465.951 600.996 465.245 600.996C464.448 600.996 463.787 601.064 463.263 601.201C462.75 601.338 462.34 601.526 462.032 601.765C461.725 601.993 461.508 602.266 461.383 602.585C461.257 602.904 461.195 603.246 461.195 603.611C461.195 604.01 461.326 604.368 461.588 604.688C461.861 604.995 462.243 605.28 462.733 605.542C463.223 605.793 463.804 606.026 464.476 606.243C465.16 606.459 465.912 606.681 466.732 606.909C467.666 607.16 468.612 607.445 469.569 607.764C470.526 608.071 471.392 608.464 472.167 608.943C472.941 609.421 473.574 610.02 474.063 610.737C474.553 611.444 474.798 612.321 474.798 613.369C474.798 614.531 474.57 615.551 474.115 616.428C473.659 617.306 473.027 618.04 472.218 618.633C471.409 619.214 470.452 619.653 469.347 619.949C468.253 620.245 467.062 620.393 465.775 620.393C464.658 620.393 463.53 620.273 462.391 620.034C461.252 619.795 460.221 619.408 459.298 618.872C458.375 618.325 457.617 617.619 457.025 616.753C456.444 615.887 456.153 614.827 456.153 613.574C456.153 613.46 456.188 613.358 456.256 613.267C456.336 613.175 456.472 613.101 456.666 613.044C456.86 612.987 457.127 612.942 457.469 612.908C457.822 612.874 458.272 612.856 458.819 612.856C459.674 612.856 460.283 612.919 460.648 613.044C461.013 613.17 461.195 613.346 461.195 613.574C461.195 614.588 461.582 615.374 462.357 615.933C463.143 616.491 464.288 616.77 465.792 616.77C466.59 616.77 467.262 616.707 467.809 616.582C468.367 616.445 468.817 616.257 469.159 616.018C469.5 615.767 469.745 615.471 469.894 615.129C470.053 614.776 470.133 614.383 470.133 613.95C470.133 613.472 470.007 613.067 469.757 612.737C469.506 612.395 469.164 612.099 468.731 611.848C468.31 611.597 467.82 611.381 467.262 611.199C466.703 611.005 466.111 610.828 465.484 610.669C464.413 610.396 463.348 610.099 462.289 609.78C461.24 609.45 460.295 609.034 459.452 608.533C458.62 608.031 457.942 607.41 457.418 606.67C456.905 605.918 456.649 604.984 456.649 603.867C456.649 602.796 456.854 601.862 457.264 601.064C457.686 600.267 458.272 599.606 459.024 599.082C459.788 598.547 460.699 598.148 461.759 597.886C462.83 597.624 464.015 597.493 465.313 597.493C468.219 597.493 470.412 597.977 471.893 598.945C473.374 599.914 474.12 601.389 474.132 603.372ZM478.661 598.484C478.661 598.256 478.814 598.085 479.122 597.971C479.441 597.846 480.022 597.783 480.865 597.783C481.72 597.783 482.312 597.846 482.643 597.971C482.984 598.085 483.155 598.256 483.155 598.484V603.679C483.793 603.542 484.448 603.429 485.121 603.337C485.804 603.246 486.442 603.201 487.035 603.201C488.254 603.201 489.382 603.32 490.418 603.56C491.455 603.787 492.355 604.186 493.119 604.756C493.893 605.314 494.497 606.072 494.93 607.029C495.363 607.986 495.58 609.182 495.58 610.618V613.215C495.58 613.432 495.42 613.603 495.101 613.728C494.793 613.853 494.218 613.916 493.375 613.916C492.521 613.916 491.922 613.859 491.581 613.745C491.25 613.62 491.085 613.443 491.085 613.215V611.062C491.085 609.569 490.715 608.499 489.974 607.849C489.245 607.188 488.077 606.858 486.471 606.858C485.958 606.858 485.411 606.898 484.83 606.978C484.26 607.046 483.702 607.154 483.155 607.302V619.402C483.155 619.63 482.984 619.806 482.643 619.932C482.312 620.046 481.72 620.103 480.865 620.103C480.022 620.103 479.441 620.04 479.122 619.915C478.814 619.789 478.661 619.618 478.661 619.402V598.484ZM510.926 612.292C510.926 612.52 510.767 612.697 510.448 612.822C510.14 612.948 509.548 613.01 508.67 613.01C507.805 613.01 507.212 612.948 506.893 612.822C506.574 612.697 506.415 612.52 506.415 612.292V601.338C503.566 601.782 502.142 603.189 502.142 605.559V607.183C502.142 607.41 501.977 607.587 501.646 607.712C501.327 607.838 500.729 607.9 499.852 607.9C498.998 607.9 498.417 607.838 498.109 607.712C497.801 607.587 497.647 607.41 497.647 607.183V605.61C497.647 604.357 497.921 603.229 498.468 602.227C499.015 601.224 499.784 600.375 500.775 599.68C501.766 598.974 502.945 598.433 504.312 598.057C505.691 597.681 507.206 597.493 508.858 597.493C510.51 597.493 512.003 597.675 513.336 598.04C514.68 598.393 515.82 598.911 516.754 599.595C517.7 600.267 518.423 601.093 518.924 602.073C519.437 603.053 519.693 604.169 519.693 605.422V619.385C519.693 619.499 519.659 619.601 519.591 619.692C519.534 619.784 519.42 619.858 519.249 619.915C519.09 619.972 518.867 620.017 518.583 620.051C518.298 620.085 517.933 620.103 517.489 620.103C516.634 620.103 516.036 620.04 515.694 619.915C515.364 619.789 515.199 619.613 515.199 619.385V605.815C515.199 604.448 514.84 603.411 514.122 602.705C513.416 601.999 512.35 601.543 510.926 601.338V612.292ZM524.564 598.484C524.564 598.256 524.718 598.085 525.025 597.971C525.344 597.846 525.925 597.783 526.769 597.783C527.623 597.783 528.215 597.846 528.546 597.971C528.888 598.085 529.059 598.256 529.059 598.484V603.679C529.697 603.542 530.352 603.429 531.024 603.337C531.708 603.246 532.346 603.201 532.938 603.201C534.157 603.201 535.285 603.32 536.322 603.56C537.359 603.787 538.259 604.186 539.022 604.756C539.797 605.314 540.401 606.072 540.833 607.029C541.266 607.986 541.483 609.182 541.483 610.618V613.215C541.483 613.432 541.323 613.603 541.004 613.728C540.697 613.853 540.121 613.916 539.278 613.916C538.424 613.916 537.826 613.859 537.484 613.745C537.153 613.62 536.988 613.443 536.988 613.215V611.062C536.988 609.569 536.618 608.499 535.877 607.849C535.148 607.188 533.98 606.858 532.374 606.858C531.861 606.858 531.314 606.898 530.733 606.978C530.164 607.046 529.605 607.154 529.059 607.302V619.402C529.059 619.63 528.888 619.806 528.546 619.932C528.215 620.046 527.623 620.103 526.769 620.103C525.925 620.103 525.344 620.04 525.025 619.915C524.718 619.789 524.564 619.618 524.564 619.402V598.484ZM569.168 619.402C569.168 619.618 569.009 619.789 568.69 619.915C568.382 620.04 567.807 620.103 566.964 620.103C566.109 620.103 565.511 620.046 565.169 619.932C564.839 619.806 564.674 619.63 564.674 619.402V613.455C564.036 613.591 563.375 613.705 562.691 613.796C562.019 613.888 561.387 613.933 560.794 613.933C559.587 613.933 558.459 613.819 557.411 613.591C556.374 613.352 555.468 612.953 554.693 612.395C553.93 611.825 553.332 611.062 552.899 610.105C552.466 609.148 552.25 607.952 552.25 606.516V598.484C552.25 598.256 552.403 598.085 552.711 597.971C553.03 597.846 553.611 597.783 554.454 597.783C555.309 597.783 555.901 597.846 556.231 597.971C556.573 598.085 556.744 598.256 556.744 598.484V606.072C556.744 607.553 557.109 608.624 557.838 609.285C558.578 609.945 559.752 610.276 561.358 610.276C561.871 610.276 562.412 610.242 562.982 610.173C563.563 610.094 564.127 609.98 564.674 609.832V604.329C564.674 604.101 564.839 603.93 565.169 603.816C565.511 603.691 566.109 603.628 566.964 603.628C567.807 603.628 568.382 603.691 568.69 603.816C569.009 603.93 569.168 604.101 569.168 604.329V619.402ZM573.885 598.484C573.885 598.256 574.039 598.085 574.347 597.971C574.666 597.846 575.247 597.783 576.09 597.783C576.944 597.783 577.537 597.846 577.867 597.971C578.209 598.085 578.38 598.256 578.38 598.484V603.679C579.018 603.542 579.673 603.429 580.345 603.337C581.029 603.246 581.667 603.201 582.259 603.201C583.478 603.201 584.606 603.32 585.643 603.56C586.68 603.787 587.58 604.186 588.343 604.756C589.118 605.314 589.722 606.072 590.155 607.029C590.588 607.986 590.804 609.182 590.804 610.618V613.215C590.804 613.432 590.645 613.603 590.326 613.728C590.018 613.853 589.443 613.916 588.6 613.916C587.745 613.916 587.147 613.859 586.805 613.745C586.475 613.62 586.31 613.443 586.31 613.215V611.062C586.31 609.569 585.939 608.499 585.199 607.849C584.47 607.188 583.302 606.858 581.695 606.858C581.183 606.858 580.636 606.898 580.055 606.978C579.485 607.046 578.927 607.154 578.38 607.302V619.402C578.38 619.63 578.209 619.806 577.867 619.932C577.537 620.046 576.944 620.103 576.09 620.103C575.247 620.103 574.666 620.04 574.347 619.915C574.039 619.789 573.885 619.618 573.885 619.402V598.484ZM611.5 612.275C611.5 613.529 611.318 614.657 610.953 615.659C610.6 616.662 610.059 617.516 609.33 618.223C608.6 618.918 607.683 619.453 606.578 619.829C605.484 620.205 604.197 620.393 602.716 620.393C601.326 620.393 600.101 620.216 599.042 619.863C597.982 619.499 597.093 618.98 596.375 618.308C595.669 617.625 595.134 616.793 594.769 615.813C594.416 614.833 594.239 613.717 594.239 612.463V598.501C594.239 598.387 594.268 598.285 594.325 598.193C594.393 598.102 594.507 598.028 594.667 597.971C594.837 597.914 595.065 597.869 595.35 597.834C595.635 597.8 596 597.783 596.444 597.783C597.298 597.783 597.891 597.846 598.221 597.971C598.563 598.097 598.734 598.273 598.734 598.501V612.07C598.734 612.913 598.819 613.631 598.99 614.224C599.161 614.805 599.417 615.283 599.759 615.659C600.112 616.024 600.551 616.292 601.075 616.462C601.599 616.622 602.209 616.702 602.904 616.702C604.317 616.702 605.353 616.348 606.014 615.642C606.675 614.924 607.005 613.819 607.005 612.327V598.501C607.005 598.273 607.171 598.097 607.501 597.971C607.831 597.846 608.43 597.783 609.295 597.783C610.15 597.783 610.731 597.846 611.039 597.971C611.346 598.097 611.5 598.273 611.5 598.501V612.275ZM633.546 612.275C633.546 612.993 633.472 613.739 633.324 614.514C633.176 615.289 632.925 615.995 632.572 616.633L632.999 616.941C633.717 617.442 634.326 617.784 634.828 617.966C635.169 618.08 635.392 618.325 635.494 618.701C635.597 619.066 635.648 619.624 635.648 620.376C635.648 621.253 635.591 621.863 635.477 622.205C635.363 622.546 635.232 622.717 635.084 622.717C634.719 622.717 634.343 622.638 633.956 622.478C633.569 622.33 633.176 622.131 632.777 621.88C632.378 621.629 631.974 621.339 631.563 621.008C631.153 620.689 630.743 620.353 630.333 620L629.649 619.419C628.863 619.784 628.06 620.034 627.24 620.171C626.431 620.319 625.605 620.393 624.762 620.393C623.372 620.393 622.147 620.216 621.087 619.863C620.028 619.499 619.139 618.98 618.421 618.308C617.715 617.625 617.18 616.793 616.815 615.813C616.462 614.822 616.285 613.705 616.285 612.463V598.501C616.285 598.387 616.314 598.285 616.371 598.193C616.439 598.102 616.553 598.028 616.712 597.971C616.883 597.914 617.111 597.869 617.396 597.834C617.681 597.8 618.045 597.783 618.49 597.783C619.344 597.783 619.937 597.846 620.267 597.971C620.609 598.097 620.78 598.273 620.78 598.501V612.07C620.78 612.948 620.877 613.688 621.07 614.292C621.264 614.884 621.555 615.363 621.942 615.728C622.341 616.081 622.831 616.337 623.412 616.497C624.004 616.645 624.693 616.719 625.479 616.719C626.083 616.719 626.613 616.639 627.069 616.479C627.536 616.32 627.923 616.104 628.231 615.83C628.55 615.557 628.789 615.232 628.949 614.856C629.108 614.48 629.188 614.076 629.188 613.643C629.188 613.438 629.177 613.227 629.154 613.01C629.142 612.794 629.108 612.566 629.051 612.327V598.501C629.051 598.273 629.216 598.097 629.547 597.971C629.877 597.846 630.475 597.783 631.341 597.783C632.196 597.783 632.777 597.846 633.084 597.971C633.392 598.097 633.546 598.273 633.546 598.501V612.275ZM648.585 614.343C648.585 613.831 648.488 613.341 648.294 612.874C648.101 612.406 647.793 611.996 647.372 611.643C646.95 611.29 646.403 611.011 645.731 610.806C645.059 610.589 644.25 610.481 643.304 610.481H636.913C636.742 610.481 636.605 610.458 636.502 610.413C636.4 610.367 636.314 610.282 636.246 610.156C636.189 610.031 636.149 609.854 636.126 609.626C636.115 609.399 636.109 609.108 636.109 608.755C636.109 608.105 636.161 607.61 636.263 607.268C636.377 606.926 636.576 606.755 636.861 606.755H643.287C644.688 606.755 645.782 606.522 646.568 606.055C647.354 605.576 647.748 604.893 647.748 604.004C647.748 603.206 647.503 602.608 647.013 602.209C646.523 601.799 645.702 601.594 644.552 601.594H640.348C640.12 601.594 639.949 601.452 639.835 601.167C639.721 600.882 639.664 600.398 639.664 599.714C639.664 599.031 639.721 598.558 639.835 598.296C639.949 598.022 640.12 597.886 640.348 597.886H644.381C645.805 597.886 647.024 598 648.038 598.228C649.063 598.455 649.901 598.792 650.55 599.236C651.2 599.68 651.678 600.238 651.986 600.911C652.293 601.571 652.447 602.346 652.447 603.235C652.447 604.5 652.088 605.559 651.371 606.414C650.653 607.268 649.662 607.9 648.397 608.311V608.345C649.092 608.424 649.724 608.618 650.294 608.926C650.875 609.222 651.371 609.604 651.781 610.071C652.191 610.538 652.51 611.073 652.738 611.677C652.966 612.27 653.08 612.908 653.08 613.591V619.385C653.08 619.499 653.045 619.601 652.977 619.692C652.92 619.784 652.806 619.858 652.635 619.915C652.476 619.972 652.254 620.017 651.969 620.051C651.684 620.085 651.319 620.103 650.875 620.103C650.021 620.103 649.422 620.04 649.081 619.915C648.75 619.789 648.585 619.613 648.585 619.385V614.343ZM674.801 612.275C674.801 612.993 674.727 613.739 674.579 614.514C674.431 615.289 674.18 615.995 673.827 616.633L674.254 616.941C674.972 617.442 675.581 617.784 676.083 617.966C676.424 618.08 676.646 618.325 676.749 618.701C676.852 619.066 676.903 619.624 676.903 620.376C676.903 621.253 676.846 621.863 676.732 622.205C676.618 622.546 676.487 622.717 676.339 622.717C675.974 622.717 675.598 622.638 675.211 622.478C674.824 622.33 674.431 622.131 674.032 621.88C673.633 621.629 673.229 621.339 672.818 621.008C672.408 620.689 671.998 620.353 671.588 620L670.904 619.419C670.118 619.784 669.315 620.034 668.495 620.171C667.686 620.319 666.86 620.393 666.017 620.393C664.627 620.393 663.402 620.216 662.342 619.863C661.283 619.499 660.394 618.98 659.676 618.308C658.97 617.625 658.434 616.793 658.07 615.813C657.717 614.822 657.54 613.705 657.54 612.463V598.501C657.54 598.387 657.569 598.285 657.625 598.193C657.694 598.102 657.808 598.028 657.967 597.971C658.138 597.914 658.366 597.869 658.651 597.834C658.936 597.8 659.3 597.783 659.745 597.783C660.599 597.783 661.192 597.846 661.522 597.971C661.864 598.097 662.035 598.273 662.035 598.501V612.07C662.035 612.948 662.132 613.688 662.325 614.292C662.519 614.884 662.809 615.363 663.197 615.728C663.596 616.081 664.085 616.337 664.667 616.497C665.259 616.645 665.948 616.719 666.734 616.719C667.338 616.719 667.868 616.639 668.324 616.479C668.791 616.32 669.178 616.104 669.486 615.83C669.805 615.557 670.044 615.232 670.204 614.856C670.363 614.48 670.443 614.076 670.443 613.643C670.443 613.438 670.431 613.227 670.409 613.01C670.397 612.794 670.363 612.566 670.306 612.327V598.501C670.306 598.273 670.471 598.097 670.802 597.971C671.132 597.846 671.73 597.783 672.596 597.783C673.451 597.783 674.032 597.846 674.339 597.971C674.647 598.097 674.801 598.273 674.801 598.501V612.275ZM691.327 605.815C691.327 604.972 691.241 604.26 691.07 603.679C690.899 603.087 690.637 602.608 690.284 602.244C689.942 601.868 689.509 601.6 688.985 601.44C688.461 601.27 687.852 601.184 687.157 601.184C685.744 601.184 684.707 601.543 684.046 602.261C683.386 602.967 683.055 604.067 683.055 605.559V607.183C683.055 607.41 682.89 607.587 682.56 607.712C682.241 607.838 681.642 607.9 680.765 607.9C679.911 607.9 679.33 607.838 679.022 607.712C678.714 607.587 678.561 607.41 678.561 607.183V605.61C678.561 604.357 678.737 603.229 679.09 602.227C679.455 601.224 680.002 600.375 680.731 599.68C681.46 598.974 682.372 598.433 683.465 598.057C684.57 597.681 685.864 597.493 687.345 597.493C688.735 597.493 689.959 597.675 691.019 598.04C692.079 598.393 692.962 598.911 693.668 599.595C694.386 600.267 694.921 601.093 695.274 602.073C695.639 603.053 695.821 604.169 695.821 605.422V616.292H700.265C700.493 616.292 700.663 616.428 700.777 616.702C700.891 616.964 700.948 617.454 700.948 618.171C700.948 618.821 700.891 619.288 700.777 619.573C700.663 619.858 700.493 620 700.265 620H692.66C692.284 620 691.965 619.892 691.703 619.675C691.452 619.459 691.327 619.094 691.327 618.582V605.815ZM702.828 605.61C702.828 604.357 703.005 603.229 703.358 602.227C703.722 601.224 704.269 600.375 704.999 599.68C705.728 598.974 706.639 598.433 707.733 598.057C708.838 597.681 710.131 597.493 711.612 597.493C713.002 597.493 714.227 597.675 715.287 598.04C716.346 598.393 717.229 598.911 717.936 599.595C718.653 600.267 719.189 601.093 719.542 602.073C719.907 603.053 720.089 604.169 720.089 605.422V619.385C720.089 619.499 720.055 619.601 719.986 619.692C719.929 619.784 719.815 619.858 719.645 619.915C719.485 619.972 719.263 620.017 718.978 620.051C718.693 620.085 718.329 620.103 717.884 620.103C717.03 620.103 716.432 620.04 716.09 619.915C715.759 619.789 715.594 619.613 715.594 619.385V605.815C715.594 604.972 715.509 604.26 715.338 603.679C715.167 603.087 714.905 602.608 714.552 602.244C714.21 601.868 713.777 601.6 713.253 601.44C712.729 601.27 712.119 601.184 711.424 601.184C710.012 601.184 708.975 601.543 708.314 602.261C707.653 602.967 707.323 604.067 707.323 605.559V619.385C707.323 619.613 707.158 619.789 706.827 619.915C706.508 620.04 705.91 620.103 705.033 620.103C704.178 620.103 703.597 620.04 703.29 619.915C702.982 619.789 702.828 619.613 702.828 619.385V605.61ZM724.874 605.61C724.874 604.357 725.051 603.229 725.404 602.227C725.768 601.224 726.315 600.375 727.044 599.68C727.774 598.974 728.685 598.433 729.779 598.057C730.884 597.681 732.177 597.493 733.658 597.493C735.048 597.493 736.273 597.675 737.333 598.04C738.392 598.393 739.275 598.911 739.981 599.595C740.699 600.267 741.235 601.093 741.588 602.073C741.952 603.053 742.135 604.169 742.135 605.422V607.183C742.135 607.297 742.101 607.399 742.032 607.49C741.975 607.581 741.861 607.655 741.69 607.712C741.531 607.769 741.309 607.815 741.024 607.849C740.739 607.883 740.375 607.9 739.93 607.9C739.076 607.9 738.478 607.838 738.136 607.712C737.805 607.587 737.64 607.41 737.64 607.183V605.815C737.64 604.972 737.555 604.26 737.384 603.679C737.213 603.087 736.951 602.608 736.598 602.244C736.256 601.868 735.823 601.6 735.299 601.44C734.775 601.27 734.165 601.184 733.47 601.184C732.057 601.184 731.021 601.543 730.36 602.261C729.699 602.967 729.369 604.067 729.369 605.559V619.385C729.369 619.613 729.203 619.789 728.873 619.915C728.554 620.04 727.956 620.103 727.079 620.103C726.224 620.103 725.643 620.04 725.335 619.915C725.028 619.789 724.874 619.613 724.874 619.385V605.61ZM744.527 605.61C744.527 604.357 744.704 603.229 745.057 602.227C745.422 601.224 745.969 600.375 746.698 599.68C747.427 598.974 748.338 598.433 749.432 598.057C750.537 597.681 751.83 597.493 753.312 597.493C754.701 597.493 755.926 597.675 756.986 598.04C758.045 598.393 758.928 598.911 759.635 599.595C760.353 600.267 760.888 601.093 761.241 602.073C761.606 603.053 761.788 604.169 761.788 605.422V610.583H766.231C766.459 610.583 766.63 610.72 766.744 610.994C766.858 611.256 766.915 611.746 766.915 612.463C766.915 613.113 766.858 613.58 766.744 613.865C766.63 614.15 766.459 614.292 766.231 614.292H761.788V619.385C761.788 619.499 761.754 619.601 761.686 619.692C761.629 619.784 761.515 619.858 761.344 619.915C761.184 619.972 760.962 620.017 760.677 620.051C760.392 620.085 760.028 620.103 759.583 620.103C758.729 620.103 758.131 620.04 757.789 619.915C757.459 619.789 757.293 619.613 757.293 619.385V605.815C757.293 604.972 757.208 604.26 757.037 603.679C756.866 603.087 756.604 602.608 756.251 602.244C755.909 601.868 755.476 601.6 754.952 601.44C754.428 601.27 753.819 601.184 753.124 601.184C751.711 601.184 750.674 601.543 750.013 602.261C749.352 602.967 749.022 604.067 749.022 605.559V607.183C749.022 607.41 748.857 607.587 748.526 607.712C748.207 607.838 747.609 607.9 746.732 607.9C745.877 607.9 745.296 607.838 744.989 607.712C744.681 607.587 744.527 607.41 744.527 607.183V605.61ZM769.051 598.484C769.051 598.256 769.205 598.085 769.513 597.971C769.832 597.846 770.413 597.783 771.256 597.783C772.11 597.783 772.703 597.846 773.033 597.971C773.375 598.085 773.546 598.256 773.546 598.484V603.679C774.184 603.542 774.839 603.429 775.511 603.337C776.195 603.246 776.833 603.201 777.425 603.201C778.644 603.201 779.772 603.32 780.809 603.56C781.846 603.787 782.746 604.186 783.509 604.756C784.284 605.314 784.888 606.072 785.321 607.029C785.754 607.986 785.97 609.182 785.97 610.618V613.215C785.97 613.432 785.811 613.603 785.492 613.728C785.184 613.853 784.609 613.916 783.766 613.916C782.911 613.916 782.313 613.859 781.971 613.745C781.641 613.62 781.476 613.443 781.476 613.215V611.062C781.476 609.569 781.105 608.499 780.365 607.849C779.636 607.188 778.468 606.858 776.861 606.858C776.349 606.858 775.802 606.898 775.221 606.978C774.651 607.046 774.093 607.154 773.546 607.302V619.402C773.546 619.63 773.375 619.806 773.033 619.932C772.703 620.046 772.11 620.103 771.256 620.103C770.413 620.103 769.832 620.04 769.513 619.915C769.205 619.789 769.051 619.618 769.051 619.402V598.484ZM791.798 617.163C791.718 617.129 791.627 617.083 791.524 617.026C791.433 616.958 791.342 616.844 791.251 616.685C791.171 616.514 791.103 616.286 791.046 616.001C790.989 615.705 790.96 615.317 790.96 614.839C790.96 614.338 790.978 613.944 791.012 613.66C791.046 613.363 791.086 613.141 791.131 612.993C791.188 612.845 791.251 612.754 791.319 612.72C791.388 612.674 791.456 612.651 791.524 612.651C791.604 612.651 791.712 612.68 791.849 612.737L795.216 614.019H795.523C796.367 614.019 797.175 613.848 797.95 613.506C798.725 613.164 799.403 612.674 799.984 612.036C800.576 611.387 801.049 610.601 801.402 609.678C801.756 608.755 801.932 607.718 801.932 606.567C801.932 605.793 801.881 605.075 801.778 604.414C801.676 603.753 801.465 603.184 801.146 602.705C800.838 602.227 800.4 601.856 799.83 601.594C799.26 601.321 798.508 601.184 797.574 601.184C796.161 601.184 795.096 601.543 794.378 602.261C793.661 602.967 793.302 604.067 793.302 605.559C793.302 605.867 793.325 606.163 793.37 606.448C793.416 606.733 793.438 607 793.438 607.251C793.438 607.467 793.245 607.633 792.857 607.747C792.481 607.849 791.883 607.9 791.063 607.9C790.208 607.9 789.61 607.838 789.269 607.712C788.938 607.587 788.75 607.41 788.705 607.183C788.659 606.932 788.619 606.676 788.585 606.414C788.562 606.14 788.551 605.872 788.551 605.61C788.551 604.357 788.75 603.229 789.149 602.227C789.559 601.224 790.152 600.375 790.926 599.68C791.712 598.974 792.675 598.433 793.814 598.057C794.965 597.681 796.281 597.493 797.762 597.493C799.3 597.493 800.628 597.692 801.744 598.091C802.872 598.478 803.795 599.042 804.513 599.783C805.242 600.523 805.783 601.423 806.136 602.483C806.489 603.531 806.666 604.716 806.666 606.038C806.666 607.291 806.524 608.442 806.239 609.49C805.954 610.538 805.538 611.484 804.991 612.327C804.456 613.158 803.801 613.882 803.026 614.497C802.251 615.112 801.368 615.608 800.377 615.984L803.077 617.009C803.168 617.043 803.259 617.095 803.351 617.163C803.453 617.231 803.544 617.345 803.624 617.505C803.704 617.664 803.766 617.892 803.812 618.188C803.869 618.473 803.897 618.855 803.897 619.333C803.897 619.801 803.88 620.171 803.846 620.444C803.823 620.729 803.784 620.946 803.727 621.094C803.681 621.253 803.624 621.356 803.556 621.401C803.487 621.458 803.419 621.487 803.351 621.487C803.237 621.487 803.128 621.464 803.026 621.418L791.798 617.163ZM815.929 606.499C815.929 606.978 815.889 607.376 815.809 607.695C815.729 608.014 815.593 608.276 815.399 608.481C815.217 608.687 814.972 608.835 814.664 608.926C814.356 609.006 813.969 609.045 813.502 609.045C813.035 609.045 812.647 609.006 812.34 608.926C812.032 608.835 811.782 608.687 811.588 608.481C811.406 608.276 811.28 608.014 811.212 607.695C811.144 607.376 811.109 606.978 811.109 606.499C811.109 606.009 811.144 605.599 811.212 605.269C811.28 604.938 811.406 604.67 811.588 604.465C811.782 604.26 812.032 604.112 812.34 604.021C812.647 603.93 813.035 603.884 813.502 603.884C813.969 603.884 814.356 603.93 814.664 604.021C814.972 604.112 815.217 604.26 815.399 604.465C815.593 604.67 815.729 604.938 815.809 605.269C815.889 605.599 815.929 606.009 815.929 606.499ZM815.929 617.659C815.929 618.137 815.889 618.542 815.809 618.872C815.729 619.191 815.593 619.453 815.399 619.658C815.217 619.863 814.972 620.006 814.664 620.085C814.356 620.177 813.969 620.222 813.502 620.222C813.035 620.222 812.647 620.177 812.34 620.085C812.032 620.006 811.782 619.863 811.588 619.658C811.406 619.453 811.28 619.191 811.212 618.872C811.144 618.542 811.109 618.137 811.109 617.659C811.109 617.18 811.144 616.776 811.212 616.445C811.28 616.104 811.406 615.83 811.588 615.625C811.782 615.42 812.032 615.278 812.34 615.198C812.647 615.107 813.035 615.061 813.502 615.061C813.969 615.061 814.356 615.107 814.664 615.198C814.972 615.278 815.217 615.42 815.399 615.625C815.593 615.83 815.729 616.104 815.809 616.445C815.889 616.776 815.929 617.18 815.929 617.659Z" fill="#132AF4"/>
<path d="M288.938 429.07C288.938 429.913 289.023 430.631 289.194 431.224C289.365 431.805 289.622 432.283 289.963 432.659C290.317 433.024 290.755 433.292 291.279 433.462C291.803 433.622 292.413 433.702 293.108 433.702C294.521 433.702 295.557 433.348 296.218 432.642C296.879 431.924 297.209 430.819 297.209 429.327V427.703C297.209 427.475 297.375 427.299 297.705 427.173C298.035 427.048 298.634 426.985 299.5 426.985C300.354 426.985 300.935 427.048 301.243 427.173C301.55 427.299 301.704 427.475 301.704 427.703V429.275C301.704 430.529 301.522 431.657 301.157 432.659C300.804 433.662 300.263 434.516 299.534 435.223C298.805 435.918 297.887 436.453 296.782 436.829C295.688 437.205 294.401 437.393 292.92 437.393C291.53 437.393 290.305 437.216 289.246 436.863C288.186 436.499 287.297 435.98 286.58 435.308C285.873 434.625 285.338 433.793 284.973 432.813C284.62 431.833 284.443 430.717 284.443 429.463V418.594H280.171C279.943 418.594 279.772 418.463 279.658 418.201C279.544 417.928 279.487 417.432 279.487 416.714C279.487 416.065 279.544 415.598 279.658 415.313C279.772 415.028 279.943 414.886 280.171 414.886H287.605C287.981 414.886 288.294 414.994 288.545 415.21C288.807 415.427 288.938 415.792 288.938 416.304V429.07ZM326.997 414.886C327.225 414.886 327.396 415.022 327.51 415.296C327.624 415.558 327.681 416.048 327.681 416.766C327.681 417.415 327.624 417.882 327.51 418.167C327.396 418.452 327.225 418.594 326.997 418.594H322.554V429.275C322.554 430.529 322.371 431.657 322.007 432.659C321.654 433.662 321.112 434.516 320.383 435.223C319.654 435.918 318.737 436.453 317.632 436.829C316.538 437.205 315.251 437.393 313.77 437.393C312.38 437.393 311.155 437.216 310.095 436.863C309.036 436.499 308.147 435.98 307.429 435.308C306.723 434.625 306.187 433.793 305.823 432.813C305.47 431.833 305.293 430.717 305.293 429.463V415.501C305.293 415.387 305.321 415.285 305.378 415.193C305.447 415.102 305.561 415.028 305.72 414.971C305.891 414.914 306.119 414.869 306.404 414.834C306.689 414.8 307.053 414.783 307.498 414.783C308.352 414.783 308.944 414.846 309.275 414.971C309.617 415.097 309.788 415.273 309.788 415.501V429.07C309.788 429.913 309.873 430.631 310.044 431.224C310.215 431.805 310.471 432.283 310.813 432.659C311.166 433.024 311.605 433.292 312.129 433.462C312.653 433.622 313.263 433.702 313.958 433.702C315.37 433.702 316.407 433.348 317.068 432.642C317.729 431.924 318.059 430.819 318.059 429.327V416.304C318.059 415.792 318.184 415.427 318.435 415.21C318.697 414.994 319.016 414.886 319.392 414.886H326.997ZM349.47 425.687C349.47 427.521 349.242 429.161 348.787 430.608C348.331 432.055 347.653 433.286 346.753 434.3C345.853 435.302 344.736 436.071 343.403 436.607C342.082 437.131 340.549 437.393 338.806 437.393C335.377 437.393 332.808 436.482 331.099 434.659C329.39 432.836 328.535 429.976 328.535 426.08C328.535 424.291 328.763 422.684 329.219 421.26C329.674 419.825 330.352 418.606 331.252 417.603C332.153 416.6 333.263 415.831 334.585 415.296C335.918 414.76 337.462 414.493 339.216 414.493C342.577 414.493 345.124 415.398 346.855 417.21C348.599 419.021 349.47 421.847 349.47 425.687ZM344.753 425.926C344.753 424.764 344.662 423.71 344.48 422.764C344.298 421.807 343.984 420.993 343.54 420.32C343.107 419.637 342.526 419.113 341.797 418.748C341.068 418.372 340.156 418.184 339.062 418.184C337.957 418.184 337.035 418.389 336.294 418.799C335.553 419.209 334.955 419.768 334.5 420.474C334.055 421.169 333.736 421.984 333.542 422.918C333.349 423.841 333.252 424.821 333.252 425.857C333.252 427.065 333.343 428.153 333.525 429.122C333.708 430.079 334.015 430.899 334.448 431.583C334.881 432.255 335.462 432.773 336.191 433.138C336.921 433.502 337.838 433.685 338.943 433.685C340.048 433.685 340.971 433.479 341.711 433.069C342.452 432.659 343.044 432.101 343.489 431.395C343.944 430.688 344.269 429.868 344.463 428.934C344.657 427.988 344.753 426.985 344.753 425.926ZM369.568 436.402C369.568 436.618 369.408 436.789 369.089 436.915C368.782 437.04 368.206 437.103 367.363 437.103C366.509 437.103 365.911 437.046 365.569 436.932C365.238 436.806 365.073 436.63 365.073 436.402V430.455C364.435 430.591 363.774 430.705 363.091 430.796C362.419 430.888 361.786 430.933 361.194 430.933C359.986 430.933 358.858 430.819 357.81 430.591C356.773 430.352 355.868 429.953 355.093 429.395C354.329 428.825 353.731 428.062 353.298 427.105C352.865 426.148 352.649 424.952 352.649 423.516V415.484C352.649 415.256 352.803 415.085 353.11 414.971C353.429 414.846 354.01 414.783 354.854 414.783C355.708 414.783 356.3 414.846 356.631 414.971C356.973 415.085 357.144 415.256 357.144 415.484V423.072C357.144 424.553 357.508 425.624 358.237 426.285C358.978 426.945 360.151 427.276 361.758 427.276C362.271 427.276 362.812 427.242 363.381 427.173C363.962 427.094 364.526 426.98 365.073 426.832V421.329C365.073 421.101 365.238 420.93 365.569 420.816C365.911 420.691 366.509 420.628 367.363 420.628C368.206 420.628 368.782 420.691 369.089 420.816C369.408 420.93 369.568 421.101 369.568 421.329V436.402Z" fill="#132AF4"/>
<path d="M1144.3 429.292C1144.3 429.52 1144.14 429.697 1143.83 429.822C1143.52 429.948 1142.93 430.01 1142.05 430.01C1141.18 430.01 1140.59 429.948 1140.27 429.822C1139.95 429.697 1139.79 429.52 1139.79 429.292V418.338C1136.94 418.782 1135.52 420.189 1135.52 422.559V424.183C1135.52 424.41 1135.35 424.587 1135.02 424.712C1134.71 424.838 1134.11 424.9 1133.23 424.9C1132.38 424.9 1131.79 424.838 1131.49 424.712C1131.18 424.587 1131.03 424.41 1131.03 424.183V422.61C1131.03 421.357 1131.3 420.229 1131.85 419.227C1132.39 418.224 1133.16 417.375 1134.15 416.68C1135.14 415.974 1136.32 415.433 1137.69 415.057C1139.07 414.681 1140.58 414.493 1142.24 414.493C1143.89 414.493 1145.38 414.675 1146.71 415.04C1148.06 415.393 1149.2 415.911 1150.13 416.595C1151.08 417.267 1151.8 418.093 1152.3 419.073C1152.81 420.053 1153.07 421.169 1153.07 422.422V436.385C1153.07 436.499 1153.04 436.601 1152.97 436.692C1152.91 436.784 1152.8 436.858 1152.63 436.915C1152.47 436.972 1152.25 437.017 1151.96 437.051C1151.68 437.085 1151.31 437.103 1150.87 437.103C1150.01 437.103 1149.41 437.04 1149.07 436.915C1148.74 436.789 1148.58 436.613 1148.58 436.385V422.815C1148.58 421.448 1148.22 420.411 1147.5 419.705C1146.79 418.999 1145.73 418.543 1144.3 418.338V429.292ZM1179.56 414.886C1179.79 414.886 1179.96 415.022 1180.07 415.296C1180.19 415.558 1180.24 416.048 1180.24 416.766C1180.24 417.415 1180.19 417.882 1180.07 418.167C1179.96 418.452 1179.79 418.594 1179.56 418.594H1175.12V429.275C1175.12 430.529 1174.93 431.657 1174.57 432.659C1174.22 433.662 1173.68 434.516 1172.95 435.223C1172.22 435.918 1171.3 436.453 1170.2 436.829C1169.1 437.205 1167.81 437.393 1166.33 437.393C1164.94 437.393 1163.72 437.216 1162.66 436.863C1161.6 436.499 1160.71 435.98 1159.99 435.308C1159.29 434.625 1158.75 433.793 1158.39 432.813C1158.03 431.833 1157.86 430.717 1157.86 429.463V415.501C1157.86 415.387 1157.88 415.285 1157.94 415.193C1158.01 415.102 1158.12 415.028 1158.28 414.971C1158.45 414.914 1158.68 414.869 1158.97 414.834C1159.25 414.8 1159.62 414.783 1160.06 414.783C1160.92 414.783 1161.51 414.846 1161.84 414.971C1162.18 415.097 1162.35 415.273 1162.35 415.501V429.07C1162.35 429.913 1162.44 430.631 1162.61 431.224C1162.78 431.805 1163.03 432.283 1163.38 432.659C1163.73 433.024 1164.17 433.292 1164.69 433.462C1165.22 433.622 1165.83 433.702 1166.52 433.702C1167.93 433.702 1168.97 433.348 1169.63 432.642C1170.29 431.924 1170.62 430.819 1170.62 429.327V416.304C1170.62 415.792 1170.75 415.427 1171 415.21C1171.26 414.994 1171.58 414.886 1171.96 414.886H1179.56ZM1202.03 425.687C1202.03 427.521 1201.81 429.161 1201.35 430.608C1200.89 432.055 1200.22 433.286 1199.32 434.3C1198.42 435.302 1197.3 436.071 1195.97 436.607C1194.65 437.131 1193.11 437.393 1191.37 437.393C1187.94 437.393 1185.37 436.482 1183.66 434.659C1181.95 432.836 1181.1 429.976 1181.1 426.08C1181.1 424.291 1181.33 422.684 1181.78 421.26C1182.24 419.825 1182.92 418.606 1183.82 417.603C1184.72 416.6 1185.83 415.831 1187.15 415.296C1188.48 414.76 1190.03 414.493 1191.78 414.493C1195.14 414.493 1197.69 415.398 1199.42 417.21C1201.16 419.021 1202.03 421.847 1202.03 425.687ZM1197.32 425.926C1197.32 424.764 1197.23 423.71 1197.04 422.764C1196.86 421.807 1196.55 420.993 1196.1 420.32C1195.67 419.637 1195.09 419.113 1194.36 418.748C1193.63 418.372 1192.72 418.184 1191.63 418.184C1190.52 418.184 1189.6 418.389 1188.86 418.799C1188.12 419.209 1187.52 419.768 1187.06 420.474C1186.62 421.169 1186.3 421.984 1186.11 422.918C1185.91 423.841 1185.82 424.821 1185.82 425.857C1185.82 427.065 1185.91 428.153 1186.09 429.122C1186.27 430.079 1186.58 430.899 1187.01 431.583C1187.44 432.255 1188.03 432.773 1188.75 433.138C1189.48 433.502 1190.4 433.685 1191.51 433.685C1192.61 433.685 1193.53 433.479 1194.27 433.069C1195.02 432.659 1195.61 432.101 1196.05 431.395C1196.51 430.688 1196.83 429.868 1197.03 428.934C1197.22 427.988 1197.32 426.985 1197.32 425.926ZM1222.13 436.402C1222.13 436.618 1221.97 436.789 1221.65 436.915C1221.35 437.04 1220.77 437.103 1219.93 437.103C1219.07 437.103 1218.47 437.046 1218.13 436.932C1217.8 436.806 1217.64 436.63 1217.64 436.402V430.455C1217 430.591 1216.34 430.705 1215.65 430.796C1214.98 430.888 1214.35 430.933 1213.76 430.933C1212.55 430.933 1211.42 430.819 1210.37 430.591C1209.34 430.352 1208.43 429.953 1207.66 429.395C1206.89 428.825 1206.29 428.062 1205.86 427.105C1205.43 426.148 1205.21 424.952 1205.21 423.516V415.484C1205.21 415.256 1205.37 415.085 1205.67 414.971C1205.99 414.846 1206.57 414.783 1207.42 414.783C1208.27 414.783 1208.86 414.846 1209.19 414.971C1209.54 415.085 1209.71 415.256 1209.71 415.484V423.072C1209.71 424.553 1210.07 425.624 1210.8 426.285C1211.54 426.945 1212.71 427.276 1214.32 427.276C1214.83 427.276 1215.38 427.242 1215.94 427.173C1216.53 427.094 1217.09 426.98 1217.64 426.832V421.329C1217.64 421.101 1217.8 420.93 1218.13 420.816C1218.47 420.691 1219.07 420.628 1219.93 420.628C1220.77 420.628 1221.35 420.691 1221.65 420.816C1221.97 420.93 1222.13 421.101 1222.13 421.329V436.402Z" fill="#132AF4"/>
</svg>
