<svg width="3089" height="1521" viewBox="0 0 3089 1521" fill="none" xmlns="http://www.w3.org/2000/svg">
<path d="M1501.5 46H1495V288" stroke="#132AF4" stroke-width="15"/>
<path d="M1489 46L2900 46" stroke="#132AF4" stroke-width="15"/>
<circle cx="2926" cy="46" r="27.5" transform="rotate(90 2926 46)" stroke="#132AF4" stroke-width="15"/>
<path d="M1495 621V876H1019" stroke="#132AF4" stroke-width="15"/>
<path d="M653 876H969" stroke="#132AF4" stroke-width="15"/>
<path d="M992 841C1011.33 841 1027 856.67 1027 876C1027 895.33 1011.33 911 992 911C972.67 911 957 895.33 957 876C957 856.67 972.67 841 992 841Z" fill="#132AF4"/>
<path d="M1495 841C1514.33 841 1530 856.67 1530 876C1530 895.33 1514.33 911 1495 911C1475.67 911 1460 895.33 1460 876C1460 856.67 1475.67 841 1495 841Z" fill="#132AF4"/>
<path d="M2581 11C2600.33 11 2616 26.67 2616 46C2616 65.33 2600.33 81 2581 81C2561.67 81 2546 65.33 2546 46C2546 26.67 2561.67 11 2581 11Z" fill="#132AF4"/>
<path d="M992 876L992 1327" stroke="#132AF4" stroke-width="15"/>
<circle cx="992" cy="1361" r="27.5" transform="rotate(-180 992 1361)" stroke="#132AF4" stroke-width="15"/>
<path d="M653 46H202" stroke="#132AF4" stroke-width="15"/>
<circle cx="168" cy="46" r="27.5" transform="rotate(-90 168 46)" stroke="#132AF4" stroke-width="15"/>
<path d="M479 397.736C479 394.494 479.958 391.916 481.873 390H484.305C490.493 390.442 498.229 390.663 507.512 390.663C524.899 390.663 535.14 390.442 538.234 390H540.445C541.329 390.884 541.771 391.547 541.771 391.989C541.771 392.432 541.623 393.758 541.329 395.968C540.592 398.178 539.929 399.578 539.34 400.167H534.698C531.456 400.462 529.246 400.609 528.067 400.609C523.794 401.346 521.437 402.451 520.995 403.925C520.995 404.219 523.131 422.712 527.404 459.402C531.677 496.092 533.888 514.584 534.035 514.879L550.17 489.019C560.926 471.779 571.683 454.392 582.439 436.857C593.196 419.323 598.721 410.261 599.016 409.671C599.605 408.64 599.9 407.535 599.9 406.356C599.9 402.82 596.658 400.757 590.175 400.167C587.523 400.167 586.197 399.357 586.197 397.736C586.197 397.589 586.344 396.631 586.639 394.863C587.081 392.8 587.523 391.474 587.965 390.884C588.407 390.295 589.365 390 590.838 390C591.133 390 592.017 390 593.49 390C594.964 390 597.469 390.074 601.005 390.221C604.542 390.369 609.257 390.442 615.151 390.442C625.318 390.442 631.728 390.295 634.38 390H635.927C636.959 391.032 637.474 391.842 637.474 392.432C637.474 394.936 636.811 397.294 635.485 399.504C635.043 399.946 633.79 400.167 631.728 400.167C629.812 400.315 628.044 400.462 626.423 400.609C624.802 400.757 623.255 401.125 621.782 401.715C620.308 402.304 619.129 402.82 618.245 403.262C617.361 403.704 616.477 404.293 615.593 405.03C614.709 405.767 613.972 406.282 613.383 406.577C612.793 406.872 612.204 407.535 611.614 408.566C611.025 409.598 610.509 410.113 610.067 410.113L567.41 478.631C540.887 521.51 527.183 543.465 526.299 544.496C525.857 544.791 525.341 545.159 524.752 545.601L520.774 545.822H519.226C516.574 545.822 515.248 545.307 515.248 544.275C514.806 543.391 511.933 519.815 506.628 473.547C501.029 426.69 498.155 403.041 498.008 402.599C497.271 400.978 492.703 400.167 484.305 400.167H480.547C479.516 399.431 479 398.62 479 397.736Z" fill="#132AF4" stroke="#132AF4" stroke-width="15"/>
<path d="M611.469 534.793C611.469 522.813 614.959 511.301 621.939 500.259C628.918 489.216 637.721 480.465 648.347 474.006C658.973 467.547 669.599 464.266 680.225 464.162C689.601 464.162 697.05 466.818 702.571 472.131C703.508 473.173 704.29 474.058 704.915 474.788C705.54 475.517 705.957 476.038 706.165 476.35L706.321 476.819C706.634 476.819 708.04 475.465 710.54 472.756C711.27 472.131 712.051 471.402 712.884 470.568C713.718 469.735 714.551 468.902 715.385 468.068C716.218 467.235 716.739 466.662 716.947 466.349L719.291 464.005H720.229C721.687 464.005 722.416 464.37 722.416 465.099C722.416 465.516 720.75 472.652 717.416 486.507C713.666 500.988 711.79 508.28 711.79 508.384C711.582 508.905 711.322 509.218 711.009 509.322C710.697 509.426 709.759 509.53 708.196 509.634H705.696C705.071 509.009 704.759 508.541 704.759 508.228C704.759 508.124 704.811 507.759 704.915 507.134C705.019 506.509 705.123 505.467 705.227 504.009C705.332 502.551 705.384 500.884 705.384 499.009C705.384 491.612 703.717 485.153 700.383 479.632C697.05 474.11 691.372 471.298 683.35 471.194C681.475 471.194 679.444 471.35 677.256 471.662C675.068 471.975 672.308 472.652 668.974 473.694C665.641 474.736 662.463 476.194 659.442 478.069C656.421 479.944 653.139 482.445 649.597 485.57C646.055 488.695 643.034 492.393 640.534 496.665C638.034 500.936 635.586 506.249 633.19 512.604C630.794 518.958 629.179 525.938 628.346 533.543C628.137 535.418 628.033 537.449 628.033 539.637C628.033 544.638 628.762 549.065 630.221 552.92C631.679 556.774 633.554 559.743 635.846 561.827C638.138 563.91 640.742 565.681 643.659 567.14C646.576 568.598 649.285 569.484 651.785 569.796C654.285 570.109 656.629 570.317 658.817 570.421C664.442 570.421 669.599 569.223 674.287 566.827C678.975 564.431 682.205 561.358 683.975 557.608C684.288 556.774 685.069 553.909 686.319 549.013C687.57 544.117 688.195 541.356 688.195 540.731C688.195 539.898 687.517 539.377 686.163 539.168C684.809 538.96 681.684 538.804 676.787 538.7H671.006C670.381 538.075 670.068 537.658 670.068 537.449C670.068 537.241 670.172 536.251 670.381 534.48C670.797 533.126 671.318 532.137 671.943 531.511H674.6C678.767 531.72 686.059 531.824 696.477 531.824C700.644 531.824 704.029 531.824 706.634 531.824C709.238 531.824 711.113 531.772 712.259 531.668C713.405 531.564 714.03 531.564 714.134 531.668C715.593 531.668 716.322 532.137 716.322 533.074C716.322 533.282 716.218 534.012 716.01 535.262C715.489 537.241 714.968 538.335 714.447 538.543C714.134 538.648 713.353 538.7 712.103 538.7C710.019 538.7 707.884 538.856 705.696 539.168C704.967 539.481 704.446 539.95 704.134 540.575C703.821 541.2 703.092 543.856 701.946 548.544C701.008 551.982 700.227 554.899 699.602 557.295C696.997 567.921 695.539 573.39 695.227 573.703C695.018 573.911 694.758 574.015 694.445 574.015C693.403 574.015 691.945 572.974 690.07 570.89C688.195 568.806 686.997 567.192 686.476 566.046C686.476 565.942 686.372 565.942 686.163 566.046C685.955 566.15 685.642 566.41 685.226 566.827C677.517 574.015 667.099 577.609 653.973 577.609C641.368 577.609 631.158 573.599 623.345 565.577C615.532 557.555 611.573 547.294 611.469 534.793Z" fill="#132AF4" stroke="#132AF4" stroke-width="15"/>
<path d="M774.609 570.421C780.755 570.421 786.381 567.713 791.485 562.295C796.59 556.878 799.194 550.576 799.299 543.388C799.299 536.824 796.59 532.293 791.173 529.793C780.13 526.98 773.046 525.053 769.921 524.011C766.796 522.969 764.608 521.927 763.358 520.886C757.107 516.51 753.982 510.207 753.982 501.978C753.982 495.623 755.649 489.841 758.982 484.632C762.316 479.423 765.702 475.517 769.14 472.912C772.161 470.308 775.807 468.224 780.078 466.662C784.349 465.099 787.683 464.266 790.079 464.162H791.798H792.892C802.893 464.162 810.133 467.495 814.612 474.163C814.717 474.163 815.394 473.485 816.644 472.131C817.894 470.777 819.248 469.266 820.707 467.599C822.165 465.933 823.207 464.787 823.832 464.162C823.936 464.162 824.144 464.162 824.457 464.162C824.77 464.162 825.03 464.11 825.238 464.005C826.593 464.005 827.27 464.37 827.27 465.099C827.27 465.828 825.811 472.131 822.894 484.007C819.977 495.883 818.311 502.03 817.894 502.446C817.477 502.863 816.644 503.019 815.394 502.915C813.31 502.915 812.268 502.446 812.268 501.509C812.268 500.884 812.321 500.363 812.425 499.946C812.425 499.634 812.477 498.644 812.581 496.977C812.685 495.31 812.789 493.956 812.893 492.914C812.893 489.372 812.425 486.299 811.487 483.695C810.55 481.09 809.612 479.163 808.674 477.913C807.737 476.663 806.435 475.361 804.768 474.006C801.017 471.819 796.746 470.725 791.954 470.725C786.016 470.725 780.495 473.121 775.39 477.913C770.285 482.705 767.681 488.226 767.577 494.477C767.577 497.602 768.358 500.311 769.921 502.603C771.484 504.894 773.619 506.509 776.328 507.447C776.744 507.655 780.391 508.645 787.266 510.416C794.142 512.187 797.632 513.124 797.736 513.229C801.278 514.374 804.716 516.875 808.049 520.729C811.383 524.584 813.05 529.793 813.05 536.356C813.05 539.064 812.633 541.981 811.8 545.106C811.279 547.398 810.341 549.951 808.987 552.763C807.633 555.576 805.757 558.649 803.361 561.983C800.965 565.317 797.528 568.442 793.048 571.359C788.568 574.276 783.672 576.255 778.359 577.297C777.109 577.505 775.338 577.609 773.046 577.609C762.733 577.609 754.711 574.745 748.982 569.015L747.419 567.296L743.043 572.14C740.647 574.953 739.189 576.568 738.668 576.984C738.147 577.401 737.47 577.609 736.637 577.609C735.282 577.609 734.605 577.193 734.605 576.359C734.605 576.047 737.626 563.806 743.669 539.637C743.877 539.012 744.919 538.7 746.794 538.7H748.825C749.45 539.325 749.763 539.898 749.763 540.419C749.763 540.627 749.711 541.096 749.607 541.825C749.502 542.554 749.294 543.648 748.982 545.106C748.669 546.565 748.565 548.284 748.669 550.263C748.877 554.326 749.815 557.764 751.482 560.577C753.149 563.389 755.388 565.473 758.201 566.827C761.014 568.181 763.722 569.119 766.327 569.64C768.931 570.161 771.692 570.421 774.609 570.421Z" fill="#132AF4" stroke="#132AF4" stroke-width="15"/>
<path d="M5 55.5457C5 46.9911 7.49199 38.7712 12.476 30.8861C17.46 23.001 23.7457 16.7524 31.3333 12.1404C38.9209 7.52833 46.5084 5.18511 54.096 5.11072C60.7909 5.11072 66.1097 7.00761 70.0522 10.8014C70.7217 11.5453 71.2796 12.1776 71.7259 12.6983C72.1723 13.219 72.4698 13.5909 72.6186 13.8141L72.7302 14.1488C72.9533 14.1488 73.9576 13.1818 75.7429 11.2477C76.2636 10.8014 76.8215 10.2807 77.4166 9.68558C78.0117 9.09047 78.6068 8.49537 79.2019 7.90027C79.797 7.30516 80.169 6.89603 80.3177 6.67287L81.9915 4.99914H82.661C83.7024 4.99914 84.2231 5.2595 84.2231 5.78021C84.2231 6.07776 83.0329 11.1733 80.6525 21.0669C77.9745 31.4068 76.6355 36.614 76.6355 36.6884C76.4868 37.0603 76.3008 37.2835 76.0776 37.3579C75.8545 37.4323 75.185 37.5066 74.0692 37.581H72.2838C71.8375 37.1347 71.6144 36.8 71.6144 36.5768C71.6144 36.5024 71.6516 36.2421 71.7259 35.7957C71.8003 35.3494 71.8747 34.6055 71.9491 33.5641C72.0235 32.5227 72.0607 31.3325 72.0607 29.9935C72.0607 24.7119 70.8705 20.0999 68.4901 16.1573C66.1097 12.2148 62.0555 10.2063 56.3276 10.1319C54.9887 10.1319 53.5381 10.2435 51.976 10.4666C50.4138 10.6898 48.4425 11.1733 46.0621 11.9172C43.6817 12.6611 41.4129 13.7025 39.2556 15.0415C37.0984 16.3805 34.7552 18.1658 32.226 20.3974C29.6968 22.6291 27.5395 25.2698 25.7542 28.3197C23.9689 31.3696 22.2208 35.1634 20.5099 39.7011C18.799 44.2388 17.6459 49.2227 17.0508 54.6531C16.9021 55.992 16.8277 57.4426 16.8277 59.0048C16.8277 62.5754 17.3484 65.7369 18.3898 68.4892C19.4313 71.2416 20.7702 73.3616 22.4068 74.8494C24.0433 76.3371 25.903 77.6017 27.9859 78.6432C30.0687 79.6846 32.0028 80.3169 33.7881 80.54C35.5734 80.7632 37.2472 80.912 38.8093 80.9864C42.8262 80.9864 46.5084 80.1309 49.8559 78.42C53.2034 76.7091 55.5094 74.5146 56.774 71.8367C56.9971 71.2416 57.555 69.1959 58.4477 65.6997C59.3404 62.2034 59.7867 60.2322 59.7867 59.7858C59.7867 59.1907 59.3032 58.8188 58.3361 58.67C57.3691 58.5212 55.1374 58.4096 51.6412 58.3353H47.5127C47.0664 57.8889 46.8432 57.5914 46.8432 57.4426C46.8432 57.2938 46.9176 56.5871 47.0664 55.3226C47.3639 54.3555 47.7358 53.6488 48.1822 53.2025H50.0791C53.0546 53.3513 58.2617 53.4257 65.7005 53.4257C68.676 53.4257 71.0936 53.4257 72.9533 53.4257C74.813 53.4257 76.152 53.3885 76.9703 53.3141C77.7886 53.2397 78.2349 53.2397 78.3093 53.3141C79.3507 53.3141 79.8714 53.6488 79.8714 54.3183C79.8714 54.4671 79.797 54.9878 79.6483 55.8805C79.2763 57.2938 78.9044 58.0749 78.5324 58.2237C78.3093 58.2981 77.7514 58.3353 76.8587 58.3353C75.3709 58.3353 73.846 58.4468 72.2838 58.67C71.7631 58.8932 71.3912 59.2279 71.168 59.6742C70.9449 60.1206 70.4242 62.0175 69.6059 65.3649C68.9364 67.8197 68.3785 69.9026 67.9322 71.6135C66.0725 79.2011 65.031 83.1064 64.8079 83.3296C64.6591 83.4784 64.4731 83.5528 64.25 83.5528C63.5061 83.5528 62.4646 82.8089 61.1257 81.3211C59.7867 79.8334 58.9312 78.6804 58.5593 77.8621C58.5593 77.7877 58.4849 77.7877 58.3361 77.8621C58.1873 77.9365 57.9642 78.1224 57.6666 78.42C52.1619 83.5528 44.7231 86.1191 35.3503 86.1191C26.3493 86.1191 19.0593 83.2552 13.4802 77.5273C7.90113 71.7995 5.07439 64.4723 5 55.5457Z" fill="#132AF4" stroke="#132AF4" stroke-width="10"/>
<path d="M987.565 1509.99C991.954 1509.99 995.971 1508.05 999.616 1504.18C1003.26 1500.32 1005.12 1495.82 1005.19 1490.68C1005.19 1486 1003.26 1482.76 999.393 1480.98C991.508 1478.97 986.449 1477.59 984.217 1476.85C981.986 1476.1 980.424 1475.36 979.531 1474.61C975.068 1471.49 972.836 1466.99 972.836 1461.11C972.836 1456.58 974.026 1452.45 976.407 1448.73C978.787 1445.01 981.205 1442.22 983.66 1440.36C985.817 1438.5 988.42 1437.01 991.47 1435.9C994.52 1434.78 996.901 1434.19 998.612 1434.11H999.839H1000.62C1007.76 1434.11 1012.93 1436.49 1016.13 1441.25C1016.2 1441.25 1016.69 1440.77 1017.58 1439.8C1018.47 1438.83 1019.44 1437.76 1020.48 1436.57C1021.52 1435.38 1022.27 1434.56 1022.71 1434.11C1022.79 1434.11 1022.94 1434.11 1023.16 1434.11C1023.38 1434.11 1023.57 1434.07 1023.72 1434C1024.68 1434 1025.17 1434.26 1025.17 1434.78C1025.17 1435.3 1024.13 1439.8 1022.04 1448.28C1019.96 1456.76 1018.77 1461.15 1018.47 1461.45C1018.18 1461.75 1017.58 1461.86 1016.69 1461.78C1015.2 1461.78 1014.46 1461.45 1014.46 1460.78C1014.46 1460.33 1014.49 1459.96 1014.57 1459.66C1014.57 1459.44 1014.6 1458.73 1014.68 1457.54C1014.75 1456.35 1014.83 1455.39 1014.9 1454.64C1014.9 1452.11 1014.57 1449.92 1013.9 1448.06C1013.23 1446.2 1012.56 1444.82 1011.89 1443.93C1011.22 1443.04 1010.29 1442.11 1009.1 1441.14C1006.42 1439.58 1003.37 1438.8 999.951 1438.8C995.71 1438.8 991.768 1440.51 988.123 1443.93C984.478 1447.35 982.618 1451.29 982.544 1455.76C982.544 1457.99 983.102 1459.92 984.217 1461.56C985.333 1463.2 986.858 1464.35 988.792 1465.02C989.09 1465.17 991.693 1465.87 996.603 1467.14C1001.51 1468.4 1004 1469.07 1004.08 1469.15C1006.61 1469.97 1009.06 1471.75 1011.44 1474.5C1013.82 1477.26 1015.01 1480.98 1015.01 1485.66C1015.01 1487.6 1014.72 1489.68 1014.12 1491.91C1013.75 1493.55 1013.08 1495.37 1012.11 1497.38C1011.15 1499.39 1009.81 1501.58 1008.1 1503.96C1006.39 1506.34 1003.93 1508.57 1000.73 1510.66C997.533 1512.74 994.037 1514.15 990.243 1514.9C989.35 1515.04 988.086 1515.12 986.449 1515.12C979.085 1515.12 973.357 1513.07 969.266 1508.98L968.15 1507.75L965.025 1511.21C963.314 1513.22 962.273 1514.38 961.901 1514.67C961.529 1514.97 961.046 1515.12 960.451 1515.12C959.484 1515.12 959 1514.82 959 1514.23C959 1514 961.157 1505.26 965.472 1488C965.621 1487.56 966.364 1487.34 967.703 1487.34H969.154C969.6 1487.78 969.823 1488.19 969.823 1488.56C969.823 1488.71 969.786 1489.05 969.712 1489.57C969.637 1490.09 969.489 1490.87 969.266 1491.91C969.042 1492.95 968.968 1494.18 969.042 1495.59C969.191 1498.49 969.861 1500.95 971.051 1502.96C972.241 1504.97 973.84 1506.45 975.849 1507.42C977.857 1508.39 979.791 1509.06 981.651 1509.43C983.511 1509.8 985.482 1509.99 987.565 1509.99Z" fill="#132AF4" stroke="#132AF4" stroke-width="10"/>
<path d="M3026.34 14.1375C3026.34 13.6168 3024.22 13.2821 3019.98 13.1333C3018.27 13.1333 3017.15 13.0961 3016.63 13.0217C3016.11 12.9473 3015.85 12.6126 3015.85 12.0175C3015.85 11.4224 3016 10.6785 3016.3 9.78585C3016.6 8.89319 3016.86 8.33528 3017.08 8.11212C3017.23 8.03773 3024.63 8.00054 3039.29 8.00054C3051.71 8.07492 3058.66 8.11212 3060.15 8.11212C3061.64 8.11212 3063.13 8.33528 3064.61 8.78161C3069.97 10.0462 3074.51 12.9845 3078.23 17.5966C3081.95 22.2086 3083.84 28.3828 3083.92 36.1192C3083.92 47.7237 3079.94 58.138 3071.98 67.3621C3064.02 76.5862 3054.65 82.0909 3043.86 83.8762L3042.3 84.0994L3020.65 84.2109H3008.27H3002.35C3000.57 84.2109 2999.41 84.1365 2998.89 83.9878C2998.37 83.839 2998.07 83.5043 2998 82.9835C2998 82.8348 2998.11 82.314 2998.33 81.4214C2998.63 80.2312 2998.93 79.5617 2999.23 79.4129C2999.52 79.2641 3000.38 79.1526 3001.79 79.0782C3003.8 79.0782 3006.03 78.9666 3008.49 78.7434C3009.53 78.5203 3010.24 78.0739 3010.61 77.4044C3010.83 77.1069 3013.51 66.767 3018.64 46.3847C3023.78 26.0024 3026.34 15.2534 3026.34 14.1375ZM3072.76 31.8791C3072.76 29.0523 3072.35 26.5231 3071.53 24.2915C3070.71 22.0598 3069.75 20.3117 3068.63 19.0471C3067.52 17.7825 3066.14 16.7039 3064.5 15.8113C3062.87 14.9186 3061.42 14.3235 3060.15 14.026C3058.89 13.7284 3057.58 13.468 3056.25 13.2449C3056.1 13.2449 3055.58 13.2449 3054.68 13.2449C3053.79 13.2449 3052.71 13.2449 3051.45 13.2449C3050.18 13.2449 3048.96 13.2077 3047.77 13.1333H3042.97C3039.69 13.1333 3037.83 13.5052 3037.39 14.2491C3037.24 14.5467 3034.52 25.2585 3029.24 46.3847C3023.96 67.5109 3021.32 78.1855 3021.32 78.4087C3021.32 78.7062 3021.73 78.855 3022.55 78.855C3023.37 78.855 3026.23 78.8922 3031.14 78.9666C3031.51 78.9666 3032.22 78.9666 3033.26 78.9666C3034.3 78.9666 3035.19 79.0038 3035.94 79.0782C3045.31 79.0782 3053.05 76.0283 3059.15 69.9285C3061.82 67.2505 3064.02 64.1262 3065.73 60.5556C3067.44 56.985 3069.04 52.2613 3070.53 46.3847C3072.02 40.508 3072.76 35.6728 3072.76 31.8791Z" fill="#132AF4" stroke="#132AF4" stroke-width="10"/>
<path d="M2722 425.979C2722.15 425.528 2722.3 424.928 2722.45 424.177C2722.6 423.426 2722.98 421.774 2723.58 419.222C2724.18 416.669 2724.93 414.342 2725.83 412.24C2726.73 410.138 2727.86 407.66 2729.21 404.807C2730.56 401.955 2732.06 399.702 2733.71 398.051C2735.36 396.399 2737.32 394.747 2739.57 393.096C2741.82 391.444 2744.3 390.768 2747 391.069C2751.35 391.069 2755.18 391.97 2758.49 393.771C2761.79 395.573 2764.12 397.225 2765.47 398.726C2766.82 400.228 2767.65 401.729 2767.95 403.231C2768.25 404.132 2768.47 404.582 2768.62 404.582C2768.77 404.582 2769.37 404.057 2770.42 403.006C2777.63 395.198 2785.96 391.294 2795.42 391.294H2796.1C2803.31 391.294 2808.71 394.372 2812.32 400.528C2813.52 403.381 2814.12 406.159 2814.12 408.861C2814.12 413.366 2813.14 416.97 2811.19 419.672C2809.24 422.375 2807.29 424.102 2805.33 424.852C2803.38 425.603 2801.5 425.904 2799.7 425.753C2796.7 425.753 2794.3 424.928 2792.5 423.276C2790.69 421.624 2789.79 419.447 2789.79 416.744C2789.79 409.537 2794 404.732 2802.41 402.33C2799.1 400.378 2796.4 399.402 2794.3 399.402C2785.89 399.402 2778.16 404.958 2771.1 416.069C2769.6 418.471 2768.47 420.949 2767.72 423.501C2766.97 426.054 2764.42 436.039 2760.06 453.456C2754.96 474.477 2752.03 485.663 2751.28 487.015C2749.33 491.069 2746.1 493.096 2741.59 493.096C2739.64 493.096 2738.07 492.645 2736.86 491.744C2735.66 490.843 2734.84 489.943 2734.39 489.042C2733.94 488.141 2733.79 487.39 2733.94 486.789C2733.94 484.837 2736.94 471.925 2742.95 448.051C2748.95 424.177 2751.95 410.888 2751.95 408.186C2751.95 402.33 2750 399.402 2746.1 399.402C2742.95 399.402 2740.24 401.504 2737.99 405.708C2735.74 409.913 2733.94 414.492 2732.59 419.447C2731.23 424.402 2730.41 427.105 2730.11 427.555C2729.81 427.855 2728.61 428.006 2726.5 428.006H2723.35C2722.45 427.105 2722 426.429 2722 425.979Z" fill="#132AF4" stroke="#132AF4" stroke-width="15"/>
<path d="M2841.57 431.245C2847.51 422.647 2855.63 418.347 2865.93 418.347C2871.02 418.347 2876.12 419.727 2881.21 422.487C2886.31 425.247 2890.45 430.131 2893.63 437.137C2897.56 445.948 2899.53 458.05 2899.53 473.442C2899.53 489.896 2897.24 502.476 2892.68 511.181C2890.56 515.639 2887.64 519.196 2883.92 521.849C2880.21 524.503 2876.97 526.149 2874.21 526.786C2871.45 527.423 2868.74 527.794 2866.09 527.9C2863.33 527.9 2860.57 527.582 2857.81 526.945C2855.05 526.308 2851.81 524.61 2848.09 521.849C2844.38 519.089 2841.46 515.533 2839.34 511.181C2834.77 502.476 2832.49 489.896 2832.49 473.442C2832.49 454.971 2835.51 440.905 2841.57 431.245ZM2877.39 429.334C2874.21 425.937 2870.44 424.239 2866.09 424.239C2861.63 424.239 2857.81 425.937 2854.62 429.334C2851.97 432.094 2850.22 435.916 2849.37 440.799C2848.52 445.682 2848.09 455.873 2848.09 471.372C2848.09 488.145 2848.52 499.185 2849.37 504.493C2850.22 509.801 2852.13 513.994 2855.1 517.072C2858.07 520.257 2861.73 521.849 2866.09 521.849C2870.33 521.849 2873.94 520.257 2876.92 517.072C2879.99 513.888 2881.9 509.429 2882.65 503.697C2883.39 497.964 2883.82 487.19 2883.92 471.372C2883.92 455.98 2883.5 445.842 2882.65 440.959C2881.8 436.075 2880.05 432.201 2877.39 429.334Z" fill="#132AF4" stroke="#132AF4" stroke-width="15"/>
<path d="M577 212.926C577 212.926 577 211.95 577 209.999C577 208.047 578.051 206.545 580.153 205.494H647.494V171.711L647.719 137.928C649.22 135.976 650.647 135 651.998 135C653.95 135 655.452 136.126 656.503 138.379V205.494H723.618C725.87 206.695 726.996 208.197 726.996 209.999C726.996 211.8 725.87 213.302 723.618 214.503H656.503V281.618C655.301 283.72 653.95 284.771 652.449 284.771H651.998H651.548C649.746 284.771 648.395 283.72 647.494 281.618V214.503H580.153C578.051 213.452 577 211.95 577 209.999V212.926Z" fill="#132AF4" stroke="#132AF4" stroke-width="15"/>
<path d="M577 821.392C577 821.392 577 820.416 577 818.464C577 816.512 578.051 815.011 580.153 813.96H711.006C713.258 815.161 714.384 816.663 714.384 818.464C714.384 820.266 713.258 821.768 711.006 822.969H580.153C578.051 821.918 577 820.416 577 818.464V821.392Z" fill="#132AF4" stroke="#132AF4" stroke-width="15"/>
<path d="M1980 365.736C1980 362.494 1980.96 359.916 1982.87 358H1985.3C1991.49 358.442 1999.23 358.663 2008.51 358.663C2025.9 358.663 2036.14 358.442 2039.23 358H2041.44C2042.33 358.884 2042.77 359.547 2042.77 359.989C2042.77 360.432 2042.62 361.758 2042.33 363.968C2041.59 366.178 2040.93 367.578 2040.34 368.167H2035.7C2032.46 368.462 2030.25 368.609 2029.07 368.609C2024.79 369.346 2022.44 370.451 2021.99 371.925C2021.99 372.219 2024.13 390.712 2028.4 427.402C2032.68 464.092 2034.89 482.584 2035.03 482.879L2051.17 457.019C2061.93 439.779 2072.68 422.392 2083.44 404.857C2094.2 387.323 2099.72 378.261 2100.02 377.671C2100.61 376.64 2100.9 375.535 2100.9 374.356C2100.9 370.82 2097.66 368.757 2091.18 368.167C2088.52 368.167 2087.2 367.357 2087.2 365.736C2087.2 365.589 2087.34 364.631 2087.64 362.863C2088.08 360.8 2088.52 359.474 2088.96 358.884C2089.41 358.295 2090.36 358 2091.84 358C2092.13 358 2093.02 358 2094.49 358C2095.96 358 2098.47 358.074 2102.01 358.221C2105.54 358.369 2110.26 358.442 2116.15 358.442C2126.32 358.442 2132.73 358.295 2135.38 358H2136.93C2137.96 359.032 2138.47 359.842 2138.47 360.432C2138.47 362.936 2137.81 365.294 2136.49 367.504C2136.04 367.946 2134.79 368.167 2132.73 368.167C2130.81 368.315 2129.04 368.462 2127.42 368.609C2125.8 368.757 2124.26 369.125 2122.78 369.715C2121.31 370.304 2120.13 370.82 2119.25 371.262C2118.36 371.704 2117.48 372.293 2116.59 373.03C2115.71 373.767 2114.97 374.282 2114.38 374.577C2113.79 374.872 2113.2 375.535 2112.61 376.566C2112.03 377.598 2111.51 378.113 2111.07 378.113L2068.41 446.631C2041.89 489.51 2028.18 511.465 2027.3 512.496C2026.86 512.791 2026.34 513.159 2025.75 513.601L2021.77 513.822H2020.23C2017.57 513.822 2016.25 513.307 2016.25 512.275C2015.81 511.391 2012.93 487.815 2007.63 441.547C2002.03 394.69 1999.16 371.041 1999.01 370.599C1998.27 368.978 1993.7 368.167 1985.3 368.167H1981.55C1980.52 367.431 1980 366.62 1980 365.736Z" fill="#132AF4" stroke="#132AF4" stroke-width="15"/>
<path d="M2112.47 502.793C2112.47 490.813 2115.96 479.301 2122.94 468.259C2129.92 457.216 2138.72 448.465 2149.35 442.006C2159.97 435.547 2170.6 432.266 2181.23 432.162C2190.6 432.162 2198.05 434.818 2203.57 440.131C2204.51 441.173 2205.29 442.058 2205.91 442.788C2206.54 443.517 2206.96 444.038 2207.16 444.35L2207.32 444.819C2207.63 444.819 2209.04 443.465 2211.54 440.756C2212.27 440.131 2213.05 439.402 2213.88 438.568C2214.72 437.735 2215.55 436.902 2216.38 436.068C2217.22 435.235 2217.74 434.662 2217.95 434.349L2220.29 432.005H2221.23C2222.69 432.005 2223.42 432.37 2223.42 433.099C2223.42 433.516 2221.75 440.652 2218.42 454.507C2214.67 468.988 2212.79 476.28 2212.79 476.384C2212.58 476.905 2212.32 477.218 2212.01 477.322C2211.7 477.426 2210.76 477.53 2209.2 477.634H2206.7C2206.07 477.009 2205.76 476.541 2205.76 476.228C2205.76 476.124 2205.81 475.759 2205.91 475.134C2206.02 474.509 2206.12 473.467 2206.23 472.009C2206.33 470.551 2206.38 468.884 2206.38 467.009C2206.38 459.612 2204.72 453.153 2201.38 447.632C2198.05 442.11 2192.37 439.298 2184.35 439.194C2182.48 439.194 2180.44 439.35 2178.26 439.662C2176.07 439.975 2173.31 440.652 2169.97 441.694C2166.64 442.736 2163.46 444.194 2160.44 446.069C2157.42 447.944 2154.14 450.445 2150.6 453.57C2147.06 456.695 2144.03 460.393 2141.53 464.665C2139.03 468.936 2136.59 474.249 2134.19 480.604C2131.79 486.958 2130.18 493.938 2129.35 501.543C2129.14 503.418 2129.03 505.449 2129.03 507.637C2129.03 512.638 2129.76 517.065 2131.22 520.92C2132.68 524.774 2134.55 527.743 2136.85 529.827C2139.14 531.91 2141.74 533.681 2144.66 535.14C2147.58 536.598 2150.28 537.484 2152.79 537.796C2155.29 538.109 2157.63 538.317 2159.82 538.421C2165.44 538.421 2170.6 537.223 2175.29 534.827C2179.98 532.431 2183.2 529.358 2184.98 525.608C2185.29 524.774 2186.07 521.909 2187.32 517.013C2188.57 512.117 2189.19 509.356 2189.19 508.731C2189.19 507.898 2188.52 507.377 2187.16 507.168C2185.81 506.96 2182.68 506.804 2177.79 506.7H2172.01C2171.38 506.075 2171.07 505.658 2171.07 505.449C2171.07 505.241 2171.17 504.251 2171.38 502.48C2171.8 501.126 2172.32 500.137 2172.94 499.511H2175.6C2179.77 499.72 2187.06 499.824 2197.48 499.824C2201.64 499.824 2205.03 499.824 2207.63 499.824C2210.24 499.824 2212.11 499.772 2213.26 499.668C2214.41 499.564 2215.03 499.564 2215.13 499.668C2216.59 499.668 2217.32 500.137 2217.32 501.074C2217.32 501.282 2217.22 502.012 2217.01 503.262C2216.49 505.241 2215.97 506.335 2215.45 506.543C2215.13 506.648 2214.35 506.7 2213.1 506.7C2211.02 506.7 2208.88 506.856 2206.7 507.168C2205.97 507.481 2205.45 507.95 2205.13 508.575C2204.82 509.2 2204.09 511.856 2202.95 516.544C2202.01 519.982 2201.23 522.899 2200.6 525.295C2198 535.921 2196.54 541.39 2196.23 541.703C2196.02 541.911 2195.76 542.015 2195.45 542.015C2194.4 542.015 2192.94 540.974 2191.07 538.89C2189.19 536.806 2188 535.192 2187.48 534.046C2187.48 533.942 2187.37 533.942 2187.16 534.046C2186.95 534.15 2186.64 534.41 2186.23 534.827C2178.52 542.015 2168.1 545.609 2154.97 545.609C2142.37 545.609 2132.16 541.599 2124.35 533.577C2116.53 525.555 2112.57 515.294 2112.47 502.793Z" fill="#132AF4" stroke="#132AF4" stroke-width="15"/>
<path d="M2275.61 538.421C2281.76 538.421 2287.38 535.713 2292.49 530.295C2297.59 524.878 2300.19 518.576 2300.3 511.388C2300.3 504.824 2297.59 500.293 2292.17 497.793C2281.13 494.98 2274.05 493.053 2270.92 492.011C2267.8 490.969 2265.61 489.927 2264.36 488.886C2258.11 484.51 2254.98 478.207 2254.98 469.978C2254.98 463.623 2256.65 457.841 2259.98 452.632C2263.32 447.423 2266.7 443.517 2270.14 440.912C2273.16 438.308 2276.81 436.224 2281.08 434.662C2285.35 433.099 2288.68 432.266 2291.08 432.162H2292.8H2293.89C2303.89 432.162 2311.13 435.495 2315.61 442.163C2315.72 442.163 2316.39 441.485 2317.64 440.131C2318.89 438.777 2320.25 437.266 2321.71 435.599C2323.17 433.933 2324.21 432.787 2324.83 432.162C2324.94 432.162 2325.14 432.162 2325.46 432.162C2325.77 432.162 2326.03 432.11 2326.24 432.005C2327.59 432.005 2328.27 432.37 2328.27 433.099C2328.27 433.828 2326.81 440.131 2323.89 452.007C2320.98 463.883 2319.31 470.03 2318.89 470.446C2318.48 470.863 2317.64 471.019 2316.39 470.915C2314.31 470.915 2313.27 470.446 2313.27 469.509C2313.27 468.884 2313.32 468.363 2313.42 467.946C2313.42 467.634 2313.48 466.644 2313.58 464.977C2313.69 463.31 2313.79 461.956 2313.89 460.914C2313.89 457.372 2313.42 454.299 2312.49 451.695C2311.55 449.09 2310.61 447.163 2309.67 445.913C2308.74 444.663 2307.43 443.361 2305.77 442.006C2302.02 439.819 2297.75 438.725 2292.95 438.725C2287.02 438.725 2281.49 441.121 2276.39 445.913C2271.29 450.705 2268.68 456.226 2268.58 462.477C2268.58 465.602 2269.36 468.311 2270.92 470.603C2272.48 472.894 2274.62 474.509 2277.33 475.447C2277.74 475.655 2281.39 476.645 2288.27 478.416C2295.14 480.187 2298.63 481.124 2298.74 481.229C2302.28 482.374 2305.72 484.875 2309.05 488.729C2312.38 492.584 2314.05 497.793 2314.05 504.356C2314.05 507.064 2313.63 509.981 2312.8 513.106C2312.28 515.398 2311.34 517.951 2309.99 520.763C2308.63 523.576 2306.76 526.649 2304.36 529.983C2301.97 533.317 2298.53 536.442 2294.05 539.359C2289.57 542.276 2284.67 544.255 2279.36 545.297C2278.11 545.505 2276.34 545.609 2274.05 545.609C2263.73 545.609 2255.71 542.745 2249.98 537.015L2248.42 535.296L2244.04 540.14C2241.65 542.953 2240.19 544.568 2239.67 544.984C2239.15 545.401 2238.47 545.609 2237.64 545.609C2236.28 545.609 2235.61 545.193 2235.61 544.359C2235.61 544.047 2238.63 531.806 2244.67 507.637C2244.88 507.012 2245.92 506.7 2247.79 506.7H2249.83C2250.45 507.325 2250.76 507.898 2250.76 508.419C2250.76 508.627 2250.71 509.096 2250.61 509.825C2250.5 510.554 2250.29 511.648 2249.98 513.106C2249.67 514.565 2249.56 516.284 2249.67 518.263C2249.88 522.326 2250.81 525.764 2252.48 528.577C2254.15 531.389 2256.39 533.473 2259.2 534.827C2262.01 536.181 2264.72 537.119 2267.33 537.64C2269.93 538.161 2272.69 538.421 2275.61 538.421Z" fill="#132AF4" stroke="#132AF4" stroke-width="15"/>
<path d="M1772.79 502.15C1770.54 504.102 1767.24 506.204 1762.88 508.456C1758.53 510.709 1753.95 511.835 1749.14 511.835C1739.68 511.835 1732.1 508.456 1726.4 501.7C1720.69 494.943 1717.76 486.309 1717.61 475.799C1717.61 460.033 1723.39 445.543 1734.95 432.33C1746.52 419.117 1759.35 412.435 1773.47 412.285C1780.53 412.285 1787.06 415.889 1793.06 423.096L1793.74 422.195C1794.04 421.745 1794.41 421.294 1794.86 420.844C1795.32 420.393 1795.99 419.793 1796.89 419.042C1797.79 418.291 1798.77 417.766 1799.82 417.465C1800.87 417.165 1802.07 416.94 1803.42 416.79C1805.53 416.79 1807.25 417.465 1808.6 418.817C1809.95 420.168 1810.71 421.594 1810.86 423.096C1810.86 425.348 1806.58 443.516 1798.02 477.6C1789.46 511.685 1784.95 529.102 1784.5 529.853C1781.8 537.961 1776.02 544.642 1767.16 549.898C1758.3 555.153 1748.17 557.856 1736.76 558.006C1715.59 558.006 1705 552.901 1705 542.691C1705 538.787 1706.35 535.333 1709.05 532.33C1711.76 529.327 1715.21 527.826 1719.41 527.826C1721.67 527.826 1723.77 528.501 1725.72 529.853C1727.67 531.204 1728.72 533.531 1728.87 536.835C1728.87 538.336 1728.72 539.763 1728.42 541.114C1728.12 542.465 1727.6 543.516 1726.85 544.267C1726.1 545.018 1725.5 545.769 1725.05 546.519C1724.59 547.27 1724.07 547.871 1723.47 548.321L1723.02 548.772H1723.24C1724.74 549.222 1729.25 549.447 1736.76 549.447C1742.46 549.447 1746.97 548.546 1750.27 546.745C1753.72 545.093 1756.95 542.615 1759.95 539.312C1762.96 536.009 1765.06 532.48 1766.26 528.727C1767.16 525.874 1768.36 521.219 1769.86 514.763C1771.82 507.555 1772.79 503.351 1772.79 502.15ZM1789.23 437.961L1788.33 435.483C1787.88 433.832 1787.51 432.706 1787.21 432.105C1786.91 431.504 1786.46 430.453 1785.86 428.952C1785.26 427.45 1784.5 426.399 1783.6 425.799C1782.7 425.198 1781.73 424.372 1780.68 423.321C1779.62 422.27 1778.27 421.594 1776.62 421.294C1774.97 420.994 1773.32 420.769 1771.67 420.618C1765.06 420.618 1758.68 424.597 1752.52 432.555C1748.02 438.411 1744.26 447.345 1741.26 459.357C1738.26 471.369 1736.76 480.078 1736.76 485.483C1736.76 497.345 1741.41 503.276 1750.72 503.276C1759.13 503.276 1767.39 498.021 1775.5 487.51L1777.3 485.258L1789.23 437.961Z" fill="#132AF4" stroke="#132AF4" stroke-width="15"/>
<path d="M1820.96 499.923C1821.07 499.286 1821.22 498.437 1821.44 497.375C1821.65 496.314 1822.29 494.297 1823.35 491.325C1824.41 488.352 1825.47 485.858 1826.53 483.841C1827.59 481.824 1829.29 479.86 1831.63 477.949C1833.96 476.038 1836.3 475.136 1838.63 475.242C1840.97 475.348 1843.25 475.72 1845.48 476.357C1847.71 476.993 1849.3 477.949 1850.26 479.223C1851.21 480.497 1852.06 481.664 1852.81 482.726C1853.55 483.787 1853.97 484.796 1854.08 485.751L1854.4 486.866C1854.4 487.078 1854.45 487.184 1854.56 487.184L1856.31 485.433C1862.68 478.639 1870.16 475.242 1878.76 475.242C1880.57 475.242 1882.21 475.348 1883.7 475.56C1885.18 475.773 1886.56 476.144 1887.84 476.675C1889.11 477.206 1890.12 477.737 1890.86 478.267C1891.61 478.798 1892.4 479.435 1893.25 480.178C1894.1 480.921 1894.63 481.611 1894.84 482.248C1895.06 482.885 1895.48 483.575 1896.12 484.318C1896.75 485.061 1896.97 485.698 1896.75 486.229C1896.54 486.76 1896.7 487.238 1897.23 487.662C1897.76 488.087 1897.87 488.458 1897.55 488.777L1898.82 487.184C1905.51 479.223 1913.42 475.242 1922.55 475.242C1928.28 475.242 1932.9 476.675 1936.4 479.541C1939.91 482.407 1941.71 486.601 1941.82 492.121C1941.82 497.535 1939.8 505.921 1935.77 517.28C1931.73 528.638 1929.72 535.432 1929.72 537.662C1929.82 539.148 1930.09 540.156 1930.51 540.687C1930.94 541.218 1931.73 541.483 1932.9 541.483C1935.87 541.483 1938.63 539.891 1941.18 536.706C1943.73 533.522 1945.8 529.169 1947.39 523.649C1947.71 522.481 1948.03 521.791 1948.35 521.579C1948.66 521.367 1949.51 521.261 1950.89 521.261C1953.02 521.261 1954.08 521.685 1954.08 522.534C1954.08 522.641 1953.87 523.437 1953.44 524.923C1952.59 528.002 1951.42 531.027 1949.94 533.999C1948.45 536.972 1946.01 539.944 1942.61 542.916C1939.22 545.889 1935.55 547.322 1931.63 547.216C1926.64 547.216 1923.03 545.783 1920.8 542.916C1918.57 540.05 1917.45 537.078 1917.45 533.999C1917.45 531.982 1919.37 525.613 1923.19 514.891C1927.01 504.169 1928.97 496.102 1929.08 490.688C1929.08 484.424 1926.74 481.293 1922.07 481.293H1921.28C1912.15 481.293 1904.45 486.654 1898.19 497.375L1897.07 499.286L1891.82 520.624C1888.32 534.53 1886.3 542.014 1885.77 543.076C1884.39 545.942 1882.1 547.375 1878.92 547.375C1877.54 547.375 1876.43 547.003 1875.58 546.26C1874.73 545.517 1874.14 544.88 1873.82 544.35C1873.51 543.819 1873.35 543.288 1873.35 542.757C1873.35 541.589 1875.15 533.999 1878.76 519.987L1884.49 496.739C1884.81 495.146 1884.97 493.129 1884.97 490.688C1884.97 484.424 1882.64 481.293 1877.96 481.293H1877.17C1868.04 481.293 1860.34 486.654 1854.08 497.375L1852.97 499.286L1847.71 520.624C1844.21 534.53 1842.19 542.014 1841.66 543.076C1840.28 545.942 1838 547.375 1834.81 547.375C1833.43 547.375 1832.32 547.057 1831.47 546.42C1830.62 545.783 1830.04 545.146 1829.72 544.509C1829.4 543.872 1829.29 543.341 1829.4 542.916C1829.4 541.536 1831.42 532.832 1835.45 516.802C1839.59 500.454 1841.66 491.908 1841.66 491.165C1841.98 489.573 1842.14 488.14 1842.14 486.866C1842.14 483.044 1840.81 481.134 1838.16 481.134C1835.82 481.134 1833.86 482.62 1832.26 485.592C1830.67 488.564 1829.45 491.802 1828.6 495.305C1827.75 498.809 1827.12 500.719 1826.69 501.038C1826.48 501.25 1825.63 501.356 1824.14 501.356H1821.91C1821.28 500.719 1820.96 500.242 1820.96 499.923Z" fill="#132AF4" stroke="#132AF4" stroke-width="15"/>
<circle cx="1494.5" cy="457.5" r="165" stroke="#132AF4" stroke-width="15"/>
<path d="M1495.18 570.569L1554.86 430.82L1554.86 430.82C1554.92 430.678 1554.95 430.607 1554.92 430.56C1554.88 430.514 1554.81 430.524 1554.66 430.543L1495 437.902L1435.34 430.543C1435.19 430.524 1435.12 430.514 1435.08 430.56C1435.05 430.607 1435.08 430.678 1435.14 430.82L1494.82 570.569C1494.89 570.753 1494.93 570.845 1495 570.845C1495.07 570.845 1495.11 570.753 1495.18 570.569Z" fill="#132AF4"/>
<path d="M1495 437.902L1435.34 430.543C1435.19 430.524 1435.12 430.514 1435.08 430.56C1435.05 430.607 1435.08 430.678 1435.14 430.82L1494.82 570.569C1494.89 570.753 1494.93 570.845 1495 570.845C1495.07 570.845 1495.11 570.753 1495.18 570.569L1554.86 430.82C1554.92 430.678 1554.95 430.607 1554.92 430.56C1554.88 430.514 1554.81 430.524 1554.66 430.543L1495 437.902ZM1495 437.902V345" stroke="#132AF4" stroke-width="15"/>
<path d="M2581 654V609L2491 594L2671 564L2491 534L2671 504L2491 474L2671 444L2491 414L2671 384L2491 354L2671 324L2581 309V264" stroke="#132AF4" stroke-width="15"/>
<path d="M2581.37 195C2600.7 195 2616.37 210.67 2616.37 230C2616.37 249.33 2600.7 265 2581.37 265C2562.04 265 2546.37 249.33 2546.37 230C2546.37 210.67 2562.04 195 2581.37 195Z" fill="#132AF4"/>
<circle cx="2581" cy="688" r="35" transform="rotate(-90 2581 688)" fill="#132AF4"/>
<path d="M2581 47V204" stroke="#132AF4" stroke-width="15"/>
<path d="M2581 719V876H1487" stroke="#132AF4" stroke-width="15"/>
</svg>
