<svg width="4169" height="1831" viewBox="0 0 4169 1831" fill="none" xmlns="http://www.w3.org/2000/svg">
<path d="M1504.5 46H1498V288" stroke="#132AF4" stroke-width="15"/>
<path d="M1492 46L3714 46" stroke="#132AF4" stroke-width="15"/>
<path d="M3714 46H3238V293" stroke="#132AF4" stroke-width="15"/>
<path d="M1498 621V876H1022" stroke="#132AF4" stroke-width="15"/>
<path d="M656 876H972" stroke="#132AF4" stroke-width="15"/>
<path d="M995 841C1014.33 841 1030 856.67 1030 876C1030 895.33 1014.33 911 995 911C975.67 911 960 895.33 960 876C960 856.67 975.67 841 995 841Z" fill="#132AF4"/>
<path d="M1498 841C1517.33 841 1533 856.67 1533 876C1533 895.33 1517.33 911 1498 911C1478.67 911 1463 895.33 1463 876C1463 856.67 1478.67 841 1498 841Z" fill="#132AF4"/>
<path d="M2584 841C2603.33 841 2619 856.67 2619 876C2619 895.33 2603.33 911 2584 911C2564.67 911 2549 895.33 2549 876C2549 856.67 2564.67 841 2584 841Z" fill="#132AF4"/>
<path d="M2584 11C2603.33 11 2619 26.67 2619 46C2619 65.33 2603.33 81 2584 81C2564.67 81 2549 65.33 2549 46C2549 26.67 2564.67 11 2584 11Z" fill="#132AF4"/>
<path d="M3238 11C3257.33 11 3273 26.67 3273 46C3273 65.33 3257.33 81 3238 81C3218.67 81 3203 65.33 3203 46C3203 26.67 3218.67 11 3238 11Z" fill="#132AF4"/>
<path d="M995 876V1032" stroke="#132AF4" stroke-width="15"/>
<circle cx="995" cy="1066" r="27.5" transform="rotate(-180 995 1066)" stroke="#132AF4" stroke-width="15"/>
<path d="M656 46H205" stroke="#132AF4" stroke-width="15"/>
<circle cx="171" cy="46" r="27.5" transform="rotate(-90 171 46)" stroke="#132AF4" stroke-width="15"/>
<path d="M482 397.736C482 394.494 482.958 391.916 484.873 390H487.305C493.493 390.442 501.229 390.663 510.512 390.663C527.899 390.663 538.14 390.442 541.234 390H543.445C544.329 390.884 544.771 391.547 544.771 391.989C544.771 392.432 544.623 393.758 544.329 395.968C543.592 398.178 542.929 399.578 542.34 400.167H537.698C534.456 400.462 532.246 400.609 531.067 400.609C526.794 401.346 524.437 402.451 523.995 403.925C523.995 404.219 526.131 422.712 530.404 459.402C534.677 496.092 536.888 514.584 537.035 514.879L553.17 489.019C563.926 471.779 574.683 454.392 585.439 436.857C596.196 419.323 601.721 410.261 602.016 409.671C602.605 408.64 602.9 407.535 602.9 406.356C602.9 402.82 599.658 400.757 593.175 400.167C590.523 400.167 589.197 399.357 589.197 397.736C589.197 397.589 589.344 396.631 589.639 394.863C590.081 392.8 590.523 391.474 590.965 390.884C591.407 390.295 592.365 390 593.838 390C594.133 390 595.017 390 596.49 390C597.964 390 600.469 390.074 604.005 390.221C607.542 390.369 612.257 390.442 618.151 390.442C628.318 390.442 634.728 390.295 637.38 390H638.927C639.958 391.032 640.474 391.842 640.474 392.432C640.474 394.936 639.811 397.294 638.485 399.504C638.043 399.946 636.79 400.167 634.728 400.167C632.812 400.315 631.044 400.462 629.423 400.609C627.802 400.757 626.255 401.125 624.782 401.715C623.308 402.304 622.129 402.82 621.245 403.262C620.361 403.704 619.477 404.293 618.593 405.03C617.709 405.767 616.972 406.282 616.383 406.577C615.793 406.872 615.204 407.535 614.614 408.566C614.025 409.598 613.509 410.113 613.067 410.113L570.41 478.631C543.887 521.51 530.183 543.465 529.299 544.496C528.857 544.791 528.341 545.159 527.752 545.601L523.774 545.822H522.226C519.574 545.822 518.248 545.307 518.248 544.275C517.806 543.391 514.933 519.815 509.628 473.547C504.029 426.69 501.155 403.041 501.008 402.599C500.271 400.978 495.703 400.167 487.305 400.167H483.547C482.516 399.431 482 398.62 482 397.736Z" fill="#132AF4" stroke="#132AF4" stroke-width="15"/>
<path d="M614.469 534.793C614.469 522.813 617.959 511.301 624.939 500.259C631.918 489.216 640.721 480.465 651.347 474.006C661.973 467.547 672.599 464.266 683.225 464.162C692.601 464.162 700.05 466.818 705.571 472.131C706.508 473.173 707.29 474.058 707.915 474.788C708.54 475.517 708.957 476.038 709.165 476.35L709.321 476.819C709.634 476.819 711.04 475.465 713.54 472.756C714.27 472.131 715.051 471.402 715.884 470.568C716.718 469.735 717.551 468.902 718.385 468.068C719.218 467.235 719.739 466.662 719.947 466.349L722.291 464.005H723.229C724.687 464.005 725.416 464.37 725.416 465.099C725.416 465.516 723.75 472.652 720.416 486.507C716.666 500.988 714.79 508.28 714.79 508.384C714.582 508.905 714.322 509.218 714.009 509.322C713.697 509.426 712.759 509.53 711.196 509.634H708.696C708.071 509.009 707.759 508.541 707.759 508.228C707.759 508.124 707.811 507.759 707.915 507.134C708.019 506.509 708.123 505.467 708.227 504.009C708.332 502.551 708.384 500.884 708.384 499.009C708.384 491.612 706.717 485.153 703.383 479.632C700.05 474.11 694.372 471.298 686.35 471.194C684.475 471.194 682.444 471.35 680.256 471.662C678.068 471.975 675.308 472.652 671.974 473.694C668.641 474.736 665.463 476.194 662.442 478.069C659.421 479.944 656.139 482.445 652.597 485.57C649.055 488.695 646.034 492.393 643.534 496.665C641.034 500.936 638.586 506.249 636.19 512.604C633.794 518.958 632.179 525.938 631.346 533.543C631.137 535.418 631.033 537.449 631.033 539.637C631.033 544.638 631.762 549.065 633.221 552.92C634.679 556.774 636.554 559.743 638.846 561.827C641.138 563.91 643.742 565.681 646.659 567.14C649.576 568.598 652.285 569.484 654.785 569.796C657.285 570.109 659.629 570.317 661.817 570.421C667.442 570.421 672.599 569.223 677.287 566.827C681.975 564.431 685.204 561.358 686.975 557.608C687.288 556.774 688.069 553.909 689.319 549.013C690.57 544.117 691.195 541.356 691.195 540.731C691.195 539.898 690.517 539.377 689.163 539.168C687.809 538.96 684.684 538.804 679.787 538.7H674.006C673.381 538.075 673.068 537.658 673.068 537.449C673.068 537.241 673.172 536.251 673.381 534.48C673.797 533.126 674.318 532.137 674.943 531.511H677.6C681.767 531.72 689.059 531.824 699.477 531.824C703.644 531.824 707.029 531.824 709.634 531.824C712.238 531.824 714.113 531.772 715.259 531.668C716.405 531.564 717.03 531.564 717.134 531.668C718.593 531.668 719.322 532.137 719.322 533.074C719.322 533.282 719.218 534.012 719.01 535.262C718.489 537.241 717.968 538.335 717.447 538.543C717.134 538.648 716.353 538.7 715.103 538.7C713.019 538.7 710.884 538.856 708.696 539.168C707.967 539.481 707.446 539.95 707.134 540.575C706.821 541.2 706.092 543.856 704.946 548.544C704.008 551.982 703.227 554.899 702.602 557.295C699.997 567.921 698.539 573.39 698.227 573.703C698.018 573.911 697.758 574.015 697.445 574.015C696.403 574.015 694.945 572.974 693.07 570.89C691.195 568.806 689.997 567.192 689.476 566.046C689.476 565.942 689.372 565.942 689.163 566.046C688.955 566.15 688.642 566.41 688.226 566.827C680.517 574.015 670.099 577.609 656.973 577.609C644.368 577.609 634.158 573.599 626.345 565.577C618.532 557.555 614.573 547.294 614.469 534.793Z" fill="#132AF4" stroke="#132AF4" stroke-width="15"/>
<path d="M777.609 570.421C783.755 570.421 789.381 567.713 794.485 562.295C799.59 556.878 802.194 550.576 802.299 543.388C802.299 536.824 799.59 532.293 794.173 529.793C783.13 526.98 776.046 525.053 772.921 524.011C769.796 522.969 767.608 521.927 766.358 520.886C760.107 516.51 756.982 510.207 756.982 501.978C756.982 495.623 758.649 489.841 761.982 484.632C765.316 479.423 768.702 475.517 772.14 472.912C775.161 470.308 778.807 468.224 783.078 466.662C787.349 465.099 790.683 464.266 793.079 464.162H794.798H795.892C805.893 464.162 813.133 467.495 817.612 474.163C817.717 474.163 818.394 473.485 819.644 472.131C820.894 470.777 822.248 469.266 823.707 467.599C825.165 465.933 826.207 464.787 826.832 464.162C826.936 464.162 827.144 464.162 827.457 464.162C827.77 464.162 828.03 464.11 828.238 464.005C829.593 464.005 830.27 464.37 830.27 465.099C830.27 465.828 828.811 472.131 825.894 484.007C822.977 495.883 821.311 502.03 820.894 502.446C820.477 502.863 819.644 503.019 818.394 502.915C816.31 502.915 815.268 502.446 815.268 501.509C815.268 500.884 815.321 500.363 815.425 499.946C815.425 499.634 815.477 498.644 815.581 496.977C815.685 495.31 815.789 493.956 815.893 492.914C815.893 489.372 815.425 486.299 814.487 483.695C813.55 481.09 812.612 479.163 811.674 477.913C810.737 476.663 809.435 475.361 807.768 474.006C804.017 471.819 799.746 470.725 794.954 470.725C789.016 470.725 783.495 473.121 778.39 477.913C773.285 482.705 770.681 488.226 770.577 494.477C770.577 497.602 771.358 500.311 772.921 502.603C774.484 504.894 776.619 506.509 779.328 507.447C779.744 507.655 783.391 508.645 790.266 510.416C797.142 512.187 800.632 513.124 800.736 513.229C804.278 514.374 807.716 516.875 811.049 520.729C814.383 524.584 816.05 529.793 816.05 536.356C816.05 539.064 815.633 541.981 814.8 545.106C814.279 547.398 813.341 549.951 811.987 552.763C810.633 555.576 808.757 558.649 806.361 561.983C803.965 565.317 800.528 568.442 796.048 571.359C791.568 574.276 786.672 576.255 781.359 577.297C780.109 577.505 778.338 577.609 776.046 577.609C765.733 577.609 757.711 574.745 751.982 569.015L750.419 567.296L746.043 572.14C743.647 574.953 742.189 576.568 741.668 576.984C741.147 577.401 740.47 577.609 739.637 577.609C738.282 577.609 737.605 577.193 737.605 576.359C737.605 576.047 740.626 563.806 746.669 539.637C746.877 539.012 747.919 538.7 749.794 538.7H751.825C752.45 539.325 752.763 539.898 752.763 540.419C752.763 540.627 752.711 541.096 752.607 541.825C752.502 542.554 752.294 543.648 751.982 545.106C751.669 546.565 751.565 548.284 751.669 550.263C751.877 554.326 752.815 557.764 754.482 560.577C756.149 563.389 758.388 565.473 761.201 566.827C764.014 568.181 766.722 569.119 769.327 569.64C771.931 570.161 774.692 570.421 777.609 570.421Z" fill="#132AF4" stroke="#132AF4" stroke-width="15"/>
<path d="M8 55.5457C8 46.9911 10.492 38.7712 15.476 30.8861C20.46 23.001 26.7457 16.7524 34.3333 12.1404C41.9209 7.52833 49.5084 5.1851 57.096 5.11072C63.7909 5.11072 69.1097 7.00761 73.0522 10.8014C73.7217 11.5453 74.2796 12.1776 74.7259 12.6983C75.1723 13.219 75.4698 13.5909 75.6186 13.8141L75.7302 14.1488C75.9533 14.1488 76.9576 13.1818 78.7429 11.2477C79.2636 10.8014 79.8215 10.2807 80.4166 9.68558C81.0117 9.09047 81.6068 8.49537 82.2019 7.90027C82.797 7.30516 83.169 6.89603 83.3177 6.67287L84.9915 4.99914H85.661C86.7024 4.99914 87.2231 5.2595 87.2231 5.78021C87.2231 6.07776 86.0329 11.1733 83.6525 21.0669C80.9745 31.4068 79.6355 36.614 79.6355 36.6884C79.4868 37.0603 79.3008 37.2835 79.0776 37.3579C78.8545 37.4323 78.185 37.5066 77.0692 37.581H75.2839C74.8375 37.1347 74.6144 36.8 74.6144 36.5768C74.6144 36.5024 74.6516 36.2421 74.7259 35.7957C74.8003 35.3494 74.8747 34.6055 74.9491 33.5641C75.0235 32.5227 75.0607 31.3325 75.0607 29.9935C75.0607 24.7119 73.8705 20.0999 71.4901 16.1573C69.1097 12.2148 65.0555 10.2063 59.3276 10.1319C57.9887 10.1319 56.5381 10.2435 54.976 10.4667C53.4138 10.6898 51.4425 11.1733 49.0621 11.9172C46.6817 12.6611 44.4129 13.7025 42.2556 15.0415C40.0984 16.3805 37.7552 18.1658 35.226 20.3974C32.6968 22.6291 30.5395 25.2698 28.7542 28.3197C26.9689 31.3696 25.2208 35.1634 23.5099 39.7011C21.799 44.2388 20.6459 49.2227 20.0508 54.6531C19.9021 55.992 19.8277 57.4426 19.8277 59.0048C19.8277 62.5754 20.3484 65.7369 21.3898 68.4892C22.4313 71.2416 23.7702 73.3616 25.4068 74.8494C27.0433 76.3371 28.903 77.6017 30.9859 78.6432C33.0687 79.6846 35.0028 80.3169 36.7881 80.54C38.5734 80.7632 40.2472 80.912 41.8093 80.9864C45.8262 80.9864 49.5084 80.1309 52.8559 78.42C56.2034 76.7091 58.5094 74.5146 59.774 71.8367C59.9971 71.2416 60.555 69.1959 61.4477 65.6997C62.3404 62.2034 62.7867 60.2322 62.7867 59.7858C62.7867 59.1907 62.3032 58.8188 61.3361 58.67C60.3691 58.5212 58.1374 58.4096 54.6412 58.3353H50.5127C50.0664 57.8889 49.8432 57.5914 49.8432 57.4426C49.8432 57.2938 49.9176 56.5871 50.0664 55.3226C50.3639 54.3555 50.7358 53.6488 51.1822 53.2025H53.0791C56.0546 53.3513 61.2617 53.4257 68.7005 53.4257C71.676 53.4257 74.0936 53.4257 75.9533 53.4257C77.813 53.4257 79.152 53.3885 79.9703 53.3141C80.7886 53.2397 81.2349 53.2397 81.3093 53.3141C82.3507 53.3141 82.8714 53.6488 82.8714 54.3183C82.8714 54.4671 82.797 54.9878 82.6483 55.8805C82.2763 57.2938 81.9044 58.0749 81.5324 58.2237C81.3093 58.2981 80.7514 58.3353 79.8587 58.3353C78.3709 58.3353 76.846 58.4468 75.2839 58.67C74.7631 58.8932 74.3912 59.2279 74.168 59.6742C73.9449 60.1206 73.4241 62.0175 72.6059 65.3649C71.9364 67.8197 71.3785 69.9026 70.9322 71.6135C69.0725 79.2011 68.031 83.1064 67.8079 83.3296C67.6591 83.4784 67.4731 83.5528 67.25 83.5528C66.5061 83.5528 65.4646 82.8089 64.1257 81.3211C62.7867 79.8334 61.9312 78.6804 61.5593 77.8621C61.5593 77.7877 61.4849 77.7877 61.3361 77.8621C61.1873 77.9365 60.9642 78.1224 60.6666 78.42C55.1619 83.5528 47.7231 86.1191 38.3503 86.1191C29.3493 86.1191 22.0593 83.2552 16.4802 77.5273C10.9011 71.7995 8.07439 64.4723 8 55.5457Z" fill="#132AF4" stroke="#132AF4" stroke-width="10"/>
<path d="M1079.56 1100.99C1083.95 1100.99 1087.97 1099.05 1091.62 1095.18C1095.26 1091.32 1097.12 1086.82 1097.19 1081.68C1097.19 1077 1095.26 1073.76 1091.39 1071.98C1083.51 1069.97 1078.45 1068.59 1076.22 1067.85C1073.99 1067.1 1072.42 1066.36 1071.53 1065.61C1067.07 1062.49 1064.84 1057.99 1064.84 1052.11C1064.84 1047.58 1066.03 1043.45 1068.41 1039.73C1070.79 1036.01 1073.2 1033.22 1075.66 1031.36C1077.82 1029.5 1080.42 1028.01 1083.47 1026.9C1086.52 1025.78 1088.9 1025.19 1090.61 1025.11H1091.84H1092.62C1099.76 1025.11 1104.93 1027.49 1108.13 1032.25C1108.2 1032.25 1108.69 1031.77 1109.58 1030.8C1110.47 1029.83 1111.44 1028.76 1112.48 1027.57C1113.52 1026.38 1114.27 1025.56 1114.71 1025.11C1114.79 1025.11 1114.94 1025.11 1115.16 1025.11C1115.38 1025.11 1115.57 1025.07 1115.72 1025C1116.68 1025 1117.17 1025.26 1117.17 1025.78C1117.17 1026.3 1116.13 1030.8 1114.04 1039.28C1111.96 1047.76 1110.77 1052.15 1110.47 1052.45C1110.18 1052.75 1109.58 1052.86 1108.69 1052.78C1107.2 1052.78 1106.46 1052.45 1106.46 1051.78C1106.46 1051.33 1106.49 1050.96 1106.57 1050.66C1106.57 1050.44 1106.6 1049.73 1106.68 1048.54C1106.75 1047.35 1106.83 1046.39 1106.9 1045.64C1106.9 1043.11 1106.57 1040.92 1105.9 1039.06C1105.23 1037.2 1104.56 1035.82 1103.89 1034.93C1103.22 1034.04 1102.29 1033.11 1101.1 1032.14C1098.42 1030.58 1095.37 1029.8 1091.95 1029.8C1087.71 1029.8 1083.77 1031.51 1080.12 1034.93C1076.48 1038.35 1074.62 1042.29 1074.54 1046.76C1074.54 1048.99 1075.1 1050.92 1076.22 1052.56C1077.33 1054.2 1078.86 1055.35 1080.79 1056.02C1081.09 1056.17 1083.69 1056.87 1088.6 1058.14C1093.51 1059.4 1096 1060.07 1096.08 1060.15C1098.61 1060.97 1101.06 1062.75 1103.44 1065.5C1105.82 1068.26 1107.01 1071.98 1107.01 1076.66C1107.01 1078.6 1106.72 1080.68 1106.12 1082.91C1105.75 1084.55 1105.08 1086.37 1104.11 1088.38C1103.15 1090.39 1101.81 1092.58 1100.1 1094.96C1098.39 1097.34 1095.93 1099.57 1092.73 1101.66C1089.53 1103.74 1086.04 1105.15 1082.24 1105.9C1081.35 1106.04 1080.09 1106.12 1078.45 1106.12C1071.08 1106.12 1065.36 1104.07 1061.27 1099.98L1060.15 1098.75L1057.03 1102.21C1055.31 1104.22 1054.27 1105.38 1053.9 1105.67C1053.53 1105.97 1053.05 1106.12 1052.45 1106.12C1051.48 1106.12 1051 1105.82 1051 1105.23C1051 1105 1053.16 1096.26 1057.47 1079C1057.62 1078.56 1058.36 1078.34 1059.7 1078.34H1061.15C1061.6 1078.78 1061.82 1079.19 1061.82 1079.56C1061.82 1079.71 1061.79 1080.05 1061.71 1080.57C1061.64 1081.09 1061.49 1081.87 1061.27 1082.91C1061.04 1083.95 1060.97 1085.18 1061.04 1086.59C1061.19 1089.49 1061.86 1091.95 1063.05 1093.96C1064.24 1095.97 1065.84 1097.45 1067.85 1098.42C1069.86 1099.39 1071.79 1100.06 1073.65 1100.43C1075.51 1100.8 1077.48 1100.99 1079.56 1100.99Z" fill="#132AF4" stroke="#132AF4" stroke-width="10"/>
<path d="M2725 425.979C2725.15 425.528 2725.3 424.928 2725.45 424.177C2725.6 423.426 2725.98 421.774 2726.58 419.222C2727.18 416.669 2727.93 414.342 2728.83 412.24C2729.73 410.138 2730.86 407.66 2732.21 404.807C2733.56 401.955 2735.06 399.702 2736.71 398.051C2738.36 396.399 2740.32 394.747 2742.57 393.096C2744.82 391.444 2747.3 390.768 2750 391.069C2754.35 391.069 2758.18 391.97 2761.49 393.771C2764.79 395.573 2767.12 397.225 2768.47 398.726C2769.82 400.228 2770.65 401.729 2770.95 403.231C2771.25 404.132 2771.47 404.582 2771.62 404.582C2771.77 404.582 2772.37 404.057 2773.42 403.006C2780.63 395.198 2788.96 391.294 2798.42 391.294H2799.1C2806.31 391.294 2811.71 394.372 2815.32 400.528C2816.52 403.381 2817.12 406.159 2817.12 408.861C2817.12 413.366 2816.14 416.97 2814.19 419.672C2812.24 422.375 2810.29 424.102 2808.33 424.852C2806.38 425.603 2804.5 425.904 2802.7 425.753C2799.7 425.753 2797.3 424.928 2795.5 423.276C2793.69 421.624 2792.79 419.447 2792.79 416.744C2792.79 409.537 2797 404.732 2805.41 402.33C2802.1 400.378 2799.4 399.402 2797.3 399.402C2788.89 399.402 2781.16 404.958 2774.1 416.069C2772.6 418.471 2771.47 420.949 2770.72 423.501C2769.97 426.054 2767.42 436.039 2763.06 453.456C2757.96 474.477 2755.03 485.663 2754.28 487.015C2752.33 491.069 2749.1 493.096 2744.59 493.096C2742.64 493.096 2741.07 492.645 2739.86 491.744C2738.66 490.843 2737.84 489.943 2737.39 489.042C2736.94 488.141 2736.79 487.39 2736.94 486.789C2736.94 484.837 2739.94 471.925 2745.95 448.051C2751.95 424.177 2754.95 410.888 2754.95 408.186C2754.95 402.33 2753 399.402 2749.1 399.402C2745.95 399.402 2743.24 401.504 2740.99 405.708C2738.74 409.913 2736.94 414.492 2735.59 419.447C2734.23 424.402 2733.41 427.105 2733.11 427.555C2732.81 427.855 2731.61 428.006 2729.5 428.006H2726.35C2725.45 427.105 2725 426.429 2725 425.979Z" fill="#132AF4" stroke="#132AF4" stroke-width="15"/>
<path d="M2844.57 431.245C2850.51 422.647 2858.63 418.347 2868.93 418.347C2874.02 418.347 2879.12 419.727 2884.21 422.487C2889.31 425.247 2893.45 430.131 2896.63 437.137C2900.56 445.948 2902.53 458.05 2902.53 473.442C2902.53 489.896 2900.24 502.476 2895.68 511.181C2893.56 515.639 2890.64 519.196 2886.92 521.849C2883.21 524.503 2879.97 526.149 2877.21 526.786C2874.45 527.423 2871.74 527.794 2869.09 527.9C2866.33 527.9 2863.57 527.582 2860.81 526.945C2858.05 526.308 2854.81 524.61 2851.09 521.849C2847.38 519.089 2844.46 515.533 2842.34 511.181C2837.77 502.476 2835.49 489.896 2835.49 473.442C2835.49 454.971 2838.51 440.905 2844.57 431.245ZM2880.39 429.334C2877.21 425.937 2873.44 424.239 2869.09 424.239C2864.63 424.239 2860.81 425.937 2857.62 429.334C2854.97 432.094 2853.22 435.916 2852.37 440.799C2851.52 445.682 2851.09 455.873 2851.09 471.372C2851.09 488.145 2851.52 499.185 2852.37 504.493C2853.22 509.801 2855.13 513.994 2858.1 517.072C2861.07 520.257 2864.73 521.849 2869.09 521.849C2873.33 521.849 2876.94 520.257 2879.92 517.072C2882.99 513.888 2884.9 509.429 2885.65 503.697C2886.39 497.964 2886.82 487.19 2886.92 471.372C2886.92 455.98 2886.5 445.842 2885.65 440.959C2884.8 436.075 2883.05 432.201 2880.39 429.334Z" fill="#132AF4" stroke="#132AF4" stroke-width="15"/>
<path d="M580 212.926C580 212.926 580 211.95 580 209.999C580 208.047 581.051 206.545 583.153 205.494H650.494V171.711L650.719 137.928C652.22 135.976 653.647 135 654.998 135C656.95 135 658.452 136.126 659.503 138.379V205.494H726.618C728.87 206.695 729.996 208.197 729.996 209.999C729.996 211.8 728.87 213.302 726.618 214.503H659.503V281.618C658.301 283.72 656.95 284.771 655.449 284.771H654.998H654.548C652.746 284.771 651.395 283.72 650.494 281.618V214.503H583.153C581.051 213.452 580 211.95 580 209.999V212.926Z" fill="#132AF4" stroke="#132AF4" stroke-width="15"/>
<path d="M580 821.392C580 821.392 580 820.416 580 818.464C580 816.512 581.051 815.011 583.153 813.96H714.006C716.258 815.161 717.384 816.663 717.384 818.464C717.384 820.266 716.258 821.768 714.006 822.969H583.153C581.051 821.918 580 820.416 580 818.464V821.392Z" fill="#132AF4" stroke="#132AF4" stroke-width="15"/>
<path d="M920 1585.85C920 1585.85 920 1586.82 920 1588.77C920 1590.72 921.051 1592.23 923.153 1593.28H990.494V1627.06L990.719 1660.84C992.22 1662.8 993.647 1663.77 994.998 1663.77C996.95 1663.77 998.452 1662.65 999.503 1660.39V1593.28H1066.62C1068.87 1592.08 1070 1590.57 1070 1588.77C1070 1586.97 1068.87 1585.47 1066.62 1584.27H999.503V1517.15C998.301 1515.05 996.95 1514 995.449 1514H994.998H994.548C992.746 1514 991.395 1515.05 990.494 1517.15V1584.27H923.153C921.051 1585.32 920 1586.82 920 1588.77V1585.85Z" fill="#132AF4" stroke="#132AF4" stroke-width="15"/>
<path d="M920 1151.58C920 1151.58 920 1152.55 920 1154.5C920 1156.46 921.051 1157.96 923.153 1159.01H1054.01C1056.26 1157.81 1057.38 1156.31 1057.38 1154.5C1057.38 1152.7 1056.26 1151.2 1054.01 1150H923.153C921.051 1151.05 920 1152.55 920 1154.5V1151.58Z" fill="#132AF4" stroke="#132AF4" stroke-width="15"/>
<path d="M1983 365.736C1983 362.494 1983.96 359.916 1985.87 358H1988.3C1994.49 358.442 2002.23 358.663 2011.51 358.663C2028.9 358.663 2039.14 358.442 2042.23 358H2044.44C2045.33 358.884 2045.77 359.547 2045.77 359.989C2045.77 360.432 2045.62 361.758 2045.33 363.968C2044.59 366.178 2043.93 367.578 2043.34 368.167H2038.7C2035.46 368.462 2033.25 368.609 2032.07 368.609C2027.79 369.346 2025.44 370.451 2024.99 371.925C2024.99 372.219 2027.13 390.712 2031.4 427.402C2035.68 464.092 2037.89 482.584 2038.03 482.879L2054.17 457.019C2064.93 439.779 2075.68 422.392 2086.44 404.857C2097.2 387.323 2102.72 378.261 2103.02 377.671C2103.61 376.64 2103.9 375.535 2103.9 374.356C2103.9 370.82 2100.66 368.757 2094.18 368.167C2091.52 368.167 2090.2 367.357 2090.2 365.736C2090.2 365.589 2090.34 364.631 2090.64 362.863C2091.08 360.8 2091.52 359.474 2091.96 358.884C2092.41 358.295 2093.36 358 2094.84 358C2095.13 358 2096.02 358 2097.49 358C2098.96 358 2101.47 358.074 2105.01 358.221C2108.54 358.369 2113.26 358.442 2119.15 358.442C2129.32 358.442 2135.73 358.295 2138.38 358H2139.93C2140.96 359.032 2141.47 359.842 2141.47 360.432C2141.47 362.936 2140.81 365.294 2139.49 367.504C2139.04 367.946 2137.79 368.167 2135.73 368.167C2133.81 368.315 2132.04 368.462 2130.42 368.609C2128.8 368.757 2127.26 369.125 2125.78 369.715C2124.31 370.304 2123.13 370.82 2122.25 371.262C2121.36 371.704 2120.48 372.293 2119.59 373.03C2118.71 373.767 2117.97 374.282 2117.38 374.577C2116.79 374.872 2116.2 375.535 2115.61 376.566C2115.03 377.598 2114.51 378.113 2114.07 378.113L2071.41 446.631C2044.89 489.51 2031.18 511.465 2030.3 512.496C2029.86 512.791 2029.34 513.159 2028.75 513.601L2024.77 513.822H2023.23C2020.57 513.822 2019.25 513.307 2019.25 512.275C2018.81 511.391 2015.93 487.815 2010.63 441.547C2005.03 394.69 2002.16 371.041 2002.01 370.599C2001.27 368.978 1996.7 368.167 1988.3 368.167H1984.55C1983.52 367.431 1983 366.62 1983 365.736Z" fill="#132AF4" stroke="#132AF4" stroke-width="15"/>
<path d="M2115.47 502.793C2115.47 490.813 2118.96 479.301 2125.94 468.259C2132.92 457.216 2141.72 448.465 2152.35 442.006C2162.97 435.547 2173.6 432.266 2184.23 432.162C2193.6 432.162 2201.05 434.818 2206.57 440.131C2207.51 441.173 2208.29 442.058 2208.91 442.788C2209.54 443.517 2209.96 444.038 2210.16 444.35L2210.32 444.819C2210.63 444.819 2212.04 443.465 2214.54 440.756C2215.27 440.131 2216.05 439.402 2216.88 438.568C2217.72 437.735 2218.55 436.902 2219.38 436.068C2220.22 435.235 2220.74 434.662 2220.95 434.349L2223.29 432.005H2224.23C2225.69 432.005 2226.42 432.37 2226.42 433.099C2226.42 433.516 2224.75 440.652 2221.42 454.507C2217.67 468.988 2215.79 476.28 2215.79 476.384C2215.58 476.905 2215.32 477.218 2215.01 477.322C2214.7 477.426 2213.76 477.53 2212.2 477.634H2209.7C2209.07 477.009 2208.76 476.541 2208.76 476.228C2208.76 476.124 2208.81 475.759 2208.91 475.134C2209.02 474.509 2209.12 473.467 2209.23 472.009C2209.33 470.551 2209.38 468.884 2209.38 467.009C2209.38 459.612 2207.72 453.153 2204.38 447.632C2201.05 442.11 2195.37 439.298 2187.35 439.194C2185.48 439.194 2183.44 439.35 2181.26 439.662C2179.07 439.975 2176.31 440.652 2172.97 441.694C2169.64 442.736 2166.46 444.194 2163.44 446.069C2160.42 447.944 2157.14 450.445 2153.6 453.57C2150.06 456.695 2147.03 460.393 2144.53 464.665C2142.03 468.936 2139.59 474.249 2137.19 480.604C2134.79 486.958 2133.18 493.938 2132.35 501.543C2132.14 503.418 2132.03 505.449 2132.03 507.637C2132.03 512.638 2132.76 517.065 2134.22 520.92C2135.68 524.774 2137.55 527.743 2139.85 529.827C2142.14 531.91 2144.74 533.681 2147.66 535.14C2150.58 536.598 2153.28 537.484 2155.79 537.796C2158.29 538.109 2160.63 538.317 2162.82 538.421C2168.44 538.421 2173.6 537.223 2178.29 534.827C2182.98 532.431 2186.2 529.358 2187.98 525.608C2188.29 524.774 2189.07 521.909 2190.32 517.013C2191.57 512.117 2192.19 509.356 2192.19 508.731C2192.19 507.898 2191.52 507.377 2190.16 507.168C2188.81 506.96 2185.68 506.804 2180.79 506.7H2175.01C2174.38 506.075 2174.07 505.658 2174.07 505.449C2174.07 505.241 2174.17 504.251 2174.38 502.48C2174.8 501.126 2175.32 500.137 2175.94 499.511H2178.6C2182.77 499.72 2190.06 499.824 2200.48 499.824C2204.64 499.824 2208.03 499.824 2210.63 499.824C2213.24 499.824 2215.11 499.772 2216.26 499.668C2217.41 499.564 2218.03 499.564 2218.13 499.668C2219.59 499.668 2220.32 500.137 2220.32 501.074C2220.32 501.282 2220.22 502.012 2220.01 503.262C2219.49 505.241 2218.97 506.335 2218.45 506.543C2218.13 506.648 2217.35 506.7 2216.1 506.7C2214.02 506.7 2211.88 506.856 2209.7 507.168C2208.97 507.481 2208.45 507.95 2208.13 508.575C2207.82 509.2 2207.09 511.856 2205.95 516.544C2205.01 519.982 2204.23 522.899 2203.6 525.295C2201 535.921 2199.54 541.39 2199.23 541.703C2199.02 541.911 2198.76 542.015 2198.45 542.015C2197.4 542.015 2195.94 540.974 2194.07 538.89C2192.19 536.806 2191 535.192 2190.48 534.046C2190.48 533.942 2190.37 533.942 2190.16 534.046C2189.95 534.15 2189.64 534.41 2189.23 534.827C2181.52 542.015 2171.1 545.609 2157.97 545.609C2145.37 545.609 2135.16 541.599 2127.35 533.577C2119.53 525.555 2115.57 515.294 2115.47 502.793Z" fill="#132AF4" stroke="#132AF4" stroke-width="15"/>
<path d="M2278.61 538.421C2284.76 538.421 2290.38 535.713 2295.49 530.295C2300.59 524.878 2303.19 518.576 2303.3 511.388C2303.3 504.824 2300.59 500.293 2295.17 497.793C2284.13 494.98 2277.05 493.053 2273.92 492.011C2270.8 490.969 2268.61 489.927 2267.36 488.886C2261.11 484.51 2257.98 478.207 2257.98 469.978C2257.98 463.623 2259.65 457.841 2262.98 452.632C2266.32 447.423 2269.7 443.517 2273.14 440.912C2276.16 438.308 2279.81 436.224 2284.08 434.662C2288.35 433.099 2291.68 432.266 2294.08 432.162H2295.8H2296.89C2306.89 432.162 2314.13 435.495 2318.61 442.163C2318.72 442.163 2319.39 441.485 2320.64 440.131C2321.89 438.777 2323.25 437.266 2324.71 435.599C2326.17 433.933 2327.21 432.787 2327.83 432.162C2327.94 432.162 2328.14 432.162 2328.46 432.162C2328.77 432.162 2329.03 432.11 2329.24 432.005C2330.59 432.005 2331.27 432.37 2331.27 433.099C2331.27 433.828 2329.81 440.131 2326.89 452.007C2323.98 463.883 2322.31 470.03 2321.89 470.446C2321.48 470.863 2320.64 471.019 2319.39 470.915C2317.31 470.915 2316.27 470.446 2316.27 469.509C2316.27 468.884 2316.32 468.363 2316.42 467.946C2316.42 467.634 2316.48 466.644 2316.58 464.977C2316.69 463.31 2316.79 461.956 2316.89 460.914C2316.89 457.372 2316.42 454.299 2315.49 451.695C2314.55 449.09 2313.61 447.163 2312.67 445.913C2311.74 444.663 2310.43 443.361 2308.77 442.006C2305.02 439.819 2300.75 438.725 2295.95 438.725C2290.02 438.725 2284.49 441.121 2279.39 445.913C2274.29 450.705 2271.68 456.226 2271.58 462.477C2271.58 465.602 2272.36 468.311 2273.92 470.603C2275.48 472.894 2277.62 474.509 2280.33 475.447C2280.74 475.655 2284.39 476.645 2291.27 478.416C2298.14 480.187 2301.63 481.124 2301.74 481.229C2305.28 482.374 2308.72 484.875 2312.05 488.729C2315.38 492.584 2317.05 497.793 2317.05 504.356C2317.05 507.064 2316.63 509.981 2315.8 513.106C2315.28 515.398 2314.34 517.951 2312.99 520.763C2311.63 523.576 2309.76 526.649 2307.36 529.983C2304.97 533.317 2301.53 536.442 2297.05 539.359C2292.57 542.276 2287.67 544.255 2282.36 545.297C2281.11 545.505 2279.34 545.609 2277.05 545.609C2266.73 545.609 2258.71 542.745 2252.98 537.015L2251.42 535.296L2247.04 540.14C2244.65 542.953 2243.19 544.568 2242.67 544.984C2242.15 545.401 2241.47 545.609 2240.64 545.609C2239.28 545.609 2238.61 545.193 2238.61 544.359C2238.61 544.047 2241.63 531.806 2247.67 507.637C2247.88 507.012 2248.92 506.7 2250.79 506.7H2252.83C2253.45 507.325 2253.76 507.898 2253.76 508.419C2253.76 508.627 2253.71 509.096 2253.61 509.825C2253.5 510.554 2253.29 511.648 2252.98 513.106C2252.67 514.565 2252.56 516.284 2252.67 518.263C2252.88 522.326 2253.81 525.764 2255.48 528.577C2257.15 531.389 2259.39 533.473 2262.2 534.827C2265.01 536.181 2267.72 537.119 2270.33 537.64C2272.93 538.161 2275.69 538.421 2278.61 538.421Z" fill="#132AF4" stroke="#132AF4" stroke-width="15"/>
<path d="M1775.79 502.15C1773.54 504.102 1770.24 506.204 1765.88 508.456C1761.53 510.709 1756.95 511.835 1752.14 511.835C1742.68 511.835 1735.1 508.456 1729.4 501.7C1723.69 494.943 1720.76 486.309 1720.61 475.799C1720.61 460.033 1726.39 445.543 1737.95 432.33C1749.52 419.117 1762.35 412.435 1776.47 412.285C1783.53 412.285 1790.06 415.889 1796.06 423.096L1796.74 422.195C1797.04 421.745 1797.41 421.294 1797.86 420.844C1798.32 420.393 1798.99 419.793 1799.89 419.042C1800.79 418.291 1801.77 417.766 1802.82 417.465C1803.87 417.165 1805.07 416.94 1806.42 416.79C1808.53 416.79 1810.25 417.465 1811.6 418.817C1812.95 420.168 1813.71 421.594 1813.86 423.096C1813.86 425.348 1809.58 443.516 1801.02 477.6C1792.46 511.685 1787.95 529.102 1787.5 529.853C1784.8 537.961 1779.02 544.642 1770.16 549.898C1761.3 555.153 1751.17 557.856 1739.76 558.006C1718.59 558.006 1708 552.901 1708 542.691C1708 538.787 1709.35 535.333 1712.05 532.33C1714.76 529.327 1718.21 527.826 1722.41 527.826C1724.67 527.826 1726.77 528.501 1728.72 529.853C1730.67 531.204 1731.72 533.531 1731.87 536.835C1731.87 538.336 1731.72 539.763 1731.42 541.114C1731.12 542.465 1730.6 543.516 1729.85 544.267C1729.1 545.018 1728.5 545.769 1728.05 546.519C1727.59 547.27 1727.07 547.871 1726.47 548.321L1726.02 548.772H1726.24C1727.74 549.222 1732.25 549.447 1739.76 549.447C1745.46 549.447 1749.97 548.546 1753.27 546.745C1756.72 545.093 1759.95 542.615 1762.95 539.312C1765.96 536.009 1768.06 532.48 1769.26 528.727C1770.16 525.874 1771.36 521.219 1772.86 514.763C1774.82 507.555 1775.79 503.351 1775.79 502.15ZM1792.23 437.961L1791.33 435.483C1790.88 433.832 1790.51 432.706 1790.21 432.105C1789.91 431.504 1789.46 430.453 1788.86 428.952C1788.26 427.45 1787.5 426.399 1786.6 425.799C1785.7 425.198 1784.73 424.372 1783.68 423.321C1782.62 422.27 1781.27 421.594 1779.62 421.294C1777.97 420.994 1776.32 420.769 1774.67 420.618C1768.06 420.618 1761.68 424.597 1755.52 432.555C1751.02 438.411 1747.26 447.345 1744.26 459.357C1741.26 471.369 1739.76 480.078 1739.76 485.483C1739.76 497.345 1744.41 503.276 1753.72 503.276C1762.13 503.276 1770.39 498.021 1778.5 487.51L1780.3 485.258L1792.23 437.961Z" fill="#132AF4" stroke="#132AF4" stroke-width="15"/>
<path d="M1823.96 499.923C1824.07 499.286 1824.22 498.437 1824.44 497.375C1824.65 496.314 1825.29 494.297 1826.35 491.325C1827.41 488.352 1828.47 485.858 1829.53 483.841C1830.59 481.824 1832.29 479.86 1834.63 477.949C1836.96 476.038 1839.3 475.136 1841.63 475.242C1843.97 475.348 1846.25 475.72 1848.48 476.357C1850.71 476.993 1852.3 477.949 1853.26 479.223C1854.21 480.497 1855.06 481.664 1855.81 482.726C1856.55 483.787 1856.97 484.796 1857.08 485.751L1857.4 486.866C1857.4 487.078 1857.45 487.184 1857.56 487.184L1859.31 485.433C1865.68 478.639 1873.16 475.242 1881.76 475.242C1883.57 475.242 1885.21 475.348 1886.7 475.56C1888.18 475.773 1889.56 476.144 1890.84 476.675C1892.11 477.206 1893.12 477.737 1893.86 478.267C1894.61 478.798 1895.4 479.435 1896.25 480.178C1897.1 480.921 1897.63 481.611 1897.84 482.248C1898.06 482.885 1898.48 483.575 1899.12 484.318C1899.75 485.061 1899.97 485.698 1899.75 486.229C1899.54 486.76 1899.7 487.238 1900.23 487.662C1900.76 488.087 1900.87 488.458 1900.55 488.777L1901.82 487.184C1908.51 479.223 1916.42 475.242 1925.55 475.242C1931.28 475.242 1935.9 476.675 1939.4 479.541C1942.91 482.407 1944.71 486.601 1944.82 492.121C1944.82 497.535 1942.8 505.921 1938.77 517.28C1934.73 528.638 1932.72 535.432 1932.72 537.662C1932.82 539.148 1933.09 540.156 1933.51 540.687C1933.94 541.218 1934.73 541.483 1935.9 541.483C1938.87 541.483 1941.63 539.891 1944.18 536.706C1946.73 533.522 1948.8 529.169 1950.39 523.649C1950.71 522.481 1951.03 521.791 1951.35 521.579C1951.66 521.367 1952.51 521.261 1953.89 521.261C1956.02 521.261 1957.08 521.685 1957.08 522.534C1957.08 522.641 1956.87 523.437 1956.44 524.923C1955.59 528.002 1954.42 531.027 1952.94 533.999C1951.45 536.972 1949.01 539.944 1945.61 542.916C1942.22 545.889 1938.55 547.322 1934.63 547.216C1929.64 547.216 1926.03 545.783 1923.8 542.916C1921.57 540.05 1920.45 537.078 1920.45 533.999C1920.45 531.982 1922.37 525.613 1926.19 514.891C1930.01 504.169 1931.97 496.102 1932.08 490.688C1932.08 484.424 1929.74 481.293 1925.07 481.293H1924.28C1915.15 481.293 1907.45 486.654 1901.19 497.375L1900.07 499.286L1894.82 520.624C1891.32 534.53 1889.3 542.014 1888.77 543.076C1887.39 545.942 1885.1 547.375 1881.92 547.375C1880.54 547.375 1879.43 547.003 1878.58 546.26C1877.73 545.517 1877.14 544.88 1876.82 544.35C1876.51 543.819 1876.35 543.288 1876.35 542.757C1876.35 541.589 1878.15 533.999 1881.76 519.987L1887.49 496.739C1887.81 495.146 1887.97 493.129 1887.97 490.688C1887.97 484.424 1885.64 481.293 1880.96 481.293H1880.17C1871.04 481.293 1863.34 486.654 1857.08 497.375L1855.97 499.286L1850.71 520.624C1847.21 534.53 1845.19 542.014 1844.66 543.076C1843.28 545.942 1841 547.375 1837.81 547.375C1836.43 547.375 1835.32 547.057 1834.47 546.42C1833.62 545.783 1833.04 545.146 1832.72 544.509C1832.4 543.872 1832.29 543.341 1832.4 542.916C1832.4 541.536 1834.42 532.832 1838.45 516.802C1842.59 500.454 1844.66 491.908 1844.66 491.165C1844.98 489.573 1845.14 488.14 1845.14 486.866C1845.14 483.044 1843.81 481.134 1841.16 481.134C1838.82 481.134 1836.86 482.62 1835.26 485.592C1833.67 488.564 1832.45 491.802 1831.6 495.305C1830.75 498.809 1830.12 500.719 1829.69 501.038C1829.48 501.25 1828.63 501.356 1827.14 501.356H1824.91C1824.28 500.719 1823.96 500.242 1823.96 499.923Z" fill="#132AF4" stroke="#132AF4" stroke-width="15"/>
<circle cx="1497.5" cy="457.5" r="165" stroke="#132AF4" stroke-width="15"/>
<path d="M1498.18 570.569L1557.86 430.82L1557.86 430.82C1557.92 430.678 1557.95 430.607 1557.92 430.56C1557.88 430.514 1557.81 430.524 1557.66 430.543L1498 437.902L1438.34 430.543C1438.19 430.524 1438.12 430.514 1438.08 430.56C1438.05 430.607 1438.08 430.678 1438.14 430.82L1497.82 570.569C1497.89 570.753 1497.93 570.845 1498 570.845C1498.07 570.845 1498.11 570.753 1498.18 570.569Z" fill="#132AF4"/>
<path d="M1498 437.902L1438.34 430.543C1438.19 430.524 1438.12 430.514 1438.08 430.56C1438.05 430.607 1438.08 430.678 1438.14 430.82L1497.82 570.569C1497.89 570.753 1497.93 570.845 1498 570.845C1498.07 570.845 1498.11 570.753 1498.18 570.569L1557.86 430.82C1557.92 430.678 1557.95 430.607 1557.92 430.56C1557.88 430.514 1557.81 430.524 1557.66 430.543L1498 437.902ZM1498 437.902V345" stroke="#132AF4" stroke-width="15"/>
<path d="M2584 654V609L2494 594L2674 564L2494 534L2674 504L2494 474L2674 444L2494 414L2674 384L2494 354L2674 324L2584 309V264" stroke="#132AF4" stroke-width="15"/>
<path d="M2584.37 195C2603.7 195 2619.37 210.67 2619.37 230C2619.37 249.33 2603.7 265 2584.37 265C2565.04 265 2549.37 249.33 2549.37 230C2549.37 210.67 2565.04 195 2584.37 195Z" fill="#132AF4"/>
<circle cx="2584" cy="688" r="35" transform="rotate(-90 2584 688)" fill="#132AF4"/>
<path d="M2584 47V204" stroke="#132AF4" stroke-width="15"/>
<path d="M2584 719V876H1490" stroke="#132AF4" stroke-width="15"/>
<path d="M3842.34 14.1375C3842.34 13.6168 3840.22 13.2821 3835.98 13.1333C3834.27 13.1333 3833.15 13.0961 3832.63 13.0217C3832.11 12.9473 3831.85 12.6126 3831.85 12.0175C3831.85 11.4224 3832 10.6785 3832.3 9.78584C3832.6 8.89319 3832.86 8.33528 3833.08 8.11212C3833.23 8.03773 3840.63 8.00053 3855.29 8.00053C3867.71 8.07492 3874.66 8.11212 3876.15 8.11212C3877.64 8.11212 3879.13 8.33528 3880.61 8.78161C3885.97 10.0462 3890.51 12.9845 3894.23 17.5966C3897.95 22.2086 3899.84 28.3828 3899.92 36.1192C3899.92 47.7237 3895.94 58.138 3887.98 67.3621C3880.02 76.5862 3870.65 82.0909 3859.86 83.8762L3858.3 84.0994L3836.65 84.2109H3824.27H3818.35C3816.57 84.2109 3815.41 84.1365 3814.89 83.9878C3814.37 83.839 3814.07 83.5043 3814 82.9835C3814 82.8348 3814.11 82.314 3814.33 81.4214C3814.63 80.2312 3814.93 79.5617 3815.23 79.4129C3815.52 79.2641 3816.38 79.1526 3817.79 79.0782C3819.8 79.0782 3822.03 78.9666 3824.49 78.7434C3825.53 78.5203 3826.24 78.0739 3826.61 77.4044C3826.83 77.1069 3829.51 66.767 3834.64 46.3847C3839.78 26.0024 3842.34 15.2534 3842.34 14.1375ZM3888.76 31.8791C3888.76 29.0523 3888.35 26.5231 3887.53 24.2915C3886.71 22.0598 3885.75 20.3117 3884.63 19.0471C3883.52 17.7825 3882.14 16.7039 3880.5 15.8113C3878.87 14.9186 3877.42 14.3235 3876.15 14.026C3874.89 13.7284 3873.58 13.468 3872.25 13.2449C3872.1 13.2449 3871.58 13.2449 3870.68 13.2449C3869.79 13.2449 3868.71 13.2449 3867.45 13.2449C3866.18 13.2449 3864.96 13.2077 3863.77 13.1333H3858.97C3855.69 13.1333 3853.83 13.5052 3853.39 14.2491C3853.24 14.5467 3850.52 25.2585 3845.24 46.3847C3839.96 67.5109 3837.32 78.1855 3837.32 78.4087C3837.32 78.7062 3837.73 78.855 3838.55 78.855C3839.37 78.855 3842.23 78.8922 3847.14 78.9666C3847.51 78.9666 3848.22 78.9666 3849.26 78.9666C3850.3 78.9666 3851.19 79.0038 3851.94 79.0782C3861.31 79.0782 3869.05 76.0283 3875.15 69.9285C3877.82 67.2505 3880.02 64.1262 3881.73 60.5556C3883.44 56.985 3885.04 52.2613 3886.53 46.3847C3888.02 40.508 3888.76 35.6728 3888.76 31.8791Z" fill="#132AF4" stroke="#132AF4" stroke-width="10"/>
<circle cx="3742" cy="46" r="27.5" transform="rotate(90 3742 46)" stroke="#132AF4" stroke-width="15"/>
<circle cx="3237.5" cy="457.5" r="165" stroke="#132AF4" stroke-width="15"/>
<path d="M3238.18 570.569L3297.86 430.82L3297.86 430.82C3297.92 430.678 3297.95 430.607 3297.92 430.56C3297.88 430.514 3297.81 430.524 3297.66 430.543L3238 437.902L3178.34 430.543C3178.19 430.524 3178.12 430.514 3178.08 430.56C3178.05 430.607 3178.08 430.678 3178.14 430.82L3237.82 570.569C3237.89 570.753 3237.93 570.845 3238 570.845C3238.07 570.845 3238.11 570.753 3238.18 570.569Z" fill="#132AF4"/>
<path d="M3238 437.902L3178.34 430.543C3178.19 430.524 3178.12 430.514 3178.08 430.56C3178.05 430.607 3178.08 430.678 3178.14 430.82L3237.82 570.569C3237.89 570.753 3237.93 570.845 3238 570.845C3238.07 570.845 3238.11 570.753 3238.18 570.569L3297.86 430.82C3297.92 430.678 3297.95 430.607 3297.92 430.56C3297.88 430.514 3297.81 430.524 3297.66 430.543L3238 437.902ZM3238 437.902V345" stroke="#132AF4" stroke-width="15"/>
<path d="M3238 627V876H2574" stroke="#132AF4" stroke-width="15"/>
<path d="M3534.79 508.15C3532.54 510.102 3529.24 512.204 3524.88 514.456C3520.53 516.709 3515.95 517.835 3511.14 517.835C3501.68 517.835 3494.1 514.456 3488.4 507.7C3482.69 500.943 3479.76 492.309 3479.61 481.799C3479.61 466.033 3485.39 451.543 3496.95 438.33C3508.52 425.117 3521.35 418.435 3535.47 418.285C3542.53 418.285 3549.06 421.889 3555.06 429.096L3555.74 428.195C3556.04 427.745 3556.41 427.294 3556.86 426.844C3557.32 426.393 3557.99 425.793 3558.89 425.042C3559.79 424.291 3560.77 423.766 3561.82 423.465C3562.87 423.165 3564.07 422.94 3565.42 422.79C3567.53 422.79 3569.25 423.465 3570.6 424.817C3571.95 426.168 3572.71 427.594 3572.86 429.096C3572.86 431.348 3568.58 449.516 3560.02 483.6C3551.46 517.685 3546.95 535.102 3546.5 535.853C3543.8 543.961 3538.02 550.642 3529.16 555.898C3520.3 561.153 3510.17 563.856 3498.76 564.006C3477.59 564.006 3467 558.901 3467 548.691C3467 544.787 3468.35 541.333 3471.05 538.33C3473.76 535.327 3477.21 533.826 3481.41 533.826C3483.67 533.826 3485.77 534.501 3487.72 535.853C3489.67 537.204 3490.72 539.531 3490.87 542.835C3490.87 544.336 3490.72 545.763 3490.42 547.114C3490.12 548.465 3489.6 549.516 3488.85 550.267C3488.1 551.018 3487.5 551.769 3487.05 552.519C3486.59 553.27 3486.07 553.871 3485.47 554.321L3485.02 554.772H3485.24C3486.74 555.222 3491.25 555.447 3498.76 555.447C3504.46 555.447 3508.97 554.546 3512.27 552.745C3515.72 551.093 3518.95 548.615 3521.95 545.312C3524.96 542.009 3527.06 538.48 3528.26 534.727C3529.16 531.874 3530.36 527.219 3531.86 520.763C3533.82 513.555 3534.79 509.351 3534.79 508.15ZM3551.23 443.961L3550.33 441.483C3549.88 439.832 3549.51 438.706 3549.21 438.105C3548.91 437.504 3548.46 436.453 3547.86 434.952C3547.26 433.45 3546.5 432.399 3545.6 431.799C3544.7 431.198 3543.73 430.372 3542.68 429.321C3541.62 428.27 3540.27 427.594 3538.62 427.294C3536.97 426.994 3535.32 426.769 3533.67 426.618C3527.06 426.618 3520.68 430.597 3514.52 438.555C3510.02 444.411 3506.26 453.345 3503.26 465.357C3500.26 477.369 3498.76 486.078 3498.76 491.483C3498.76 503.345 3503.41 509.276 3512.72 509.276C3521.13 509.276 3529.39 504.021 3537.5 493.51L3539.3 491.258L3551.23 443.961Z" fill="#132AF4" stroke="#132AF4" stroke-width="15"/>
<path d="M3582.96 505.923C3583.06 505.286 3583.22 504.437 3583.44 503.375C3583.65 502.314 3584.28 500.297 3585.35 497.325C3586.41 494.352 3587.47 491.858 3588.53 489.841C3589.59 487.824 3591.29 485.86 3593.63 483.949C3595.96 482.038 3598.3 481.136 3600.63 481.242C3602.97 481.348 3605.25 481.72 3607.48 482.357C3609.71 482.993 3611.3 483.949 3612.26 485.223C3613.21 486.497 3614.06 487.664 3614.8 488.726C3615.55 489.787 3615.97 490.796 3616.08 491.751L3616.4 492.866C3616.4 493.078 3616.45 493.184 3616.56 493.184L3618.31 491.433C3624.68 484.639 3632.16 481.242 3640.76 481.242C3642.56 481.242 3644.21 481.348 3645.7 481.56C3647.18 481.773 3648.56 482.144 3649.84 482.675C3651.11 483.206 3652.12 483.737 3652.86 484.267C3653.6 484.798 3654.4 485.435 3655.25 486.178C3656.1 486.921 3656.63 487.611 3656.84 488.248C3657.05 488.885 3657.48 489.575 3658.12 490.318C3658.75 491.061 3658.97 491.698 3658.75 492.229C3658.54 492.76 3658.7 493.238 3659.23 493.662C3659.76 494.087 3659.87 494.458 3659.55 494.777L3660.82 493.184C3667.51 485.223 3675.42 481.242 3684.55 481.242C3690.28 481.242 3694.9 482.675 3698.4 485.541C3701.91 488.407 3703.71 492.601 3703.82 498.121C3703.82 503.535 3701.8 511.921 3697.77 523.28C3693.73 534.638 3691.71 541.432 3691.71 543.662C3691.82 545.148 3692.09 546.156 3692.51 546.687C3692.94 547.218 3693.73 547.483 3694.9 547.483C3697.87 547.483 3700.63 545.891 3703.18 542.706C3705.73 539.522 3707.8 535.169 3709.39 529.649C3709.71 528.481 3710.03 527.791 3710.34 527.579C3710.66 527.367 3711.51 527.261 3712.89 527.261C3715.02 527.261 3716.08 527.685 3716.08 528.534C3716.08 528.641 3715.87 529.437 3715.44 530.923C3714.59 534.002 3713.42 537.027 3711.94 539.999C3710.45 542.972 3708.01 545.944 3704.61 548.916C3701.22 551.889 3697.55 553.322 3693.63 553.216C3688.64 553.216 3685.03 551.783 3682.8 548.916C3680.57 546.05 3679.45 543.078 3679.45 539.999C3679.45 537.982 3681.36 531.613 3685.19 520.891C3689.01 510.169 3690.97 502.102 3691.08 496.688C3691.08 490.424 3688.74 487.293 3684.07 487.293H3683.28C3674.15 487.293 3666.45 492.654 3660.19 503.375L3659.07 505.286L3653.82 526.624C3650.31 540.53 3648.3 548.014 3647.77 549.076C3646.39 551.942 3644.1 553.375 3640.92 553.375C3639.54 553.375 3638.42 553.003 3637.57 552.26C3636.73 551.517 3636.14 550.88 3635.82 550.35C3635.5 549.819 3635.35 549.288 3635.35 548.757C3635.35 547.589 3637.15 539.999 3640.76 525.987L3646.49 502.739C3646.81 501.146 3646.97 499.129 3646.97 496.688C3646.97 490.424 3644.63 487.293 3639.96 487.293H3639.17C3630.04 487.293 3622.34 492.654 3616.08 503.375L3614.96 505.286L3609.71 526.624C3606.21 540.53 3604.19 548.014 3603.66 549.076C3602.28 551.942 3600 553.375 3596.81 553.375C3595.43 553.375 3594.32 553.057 3593.47 552.42C3592.62 551.783 3592.03 551.146 3591.72 550.509C3591.4 549.872 3591.29 549.341 3591.4 548.916C3591.4 547.536 3593.41 538.832 3597.45 522.802C3601.59 506.454 3603.66 497.908 3603.66 497.165C3603.98 495.573 3604.14 494.14 3604.14 492.866C3604.14 489.044 3602.81 487.134 3600.15 487.134C3597.82 487.134 3595.86 488.62 3594.26 491.592C3592.67 494.564 3591.45 497.802 3590.6 501.305C3589.75 504.809 3589.11 506.719 3588.69 507.038C3588.48 507.25 3587.63 507.356 3586.14 507.356H3583.91C3583.28 506.719 3582.96 506.242 3582.96 505.923Z" fill="#132AF4" stroke="#132AF4" stroke-width="15"/>
<path d="M3731.05 448.599C3731.05 447.537 3731.26 446.317 3731.68 444.936C3732.11 443.556 3732.75 442.866 3733.59 442.866C3733.7 442.866 3737.52 442.601 3745.06 442.07C3752.6 441.539 3756.47 441.221 3756.68 441.115C3757.96 441.115 3758.59 441.593 3758.59 442.548C3758.59 443.503 3756.79 451.094 3753.18 465.318C3752.33 468.928 3751.43 472.643 3750.47 476.465C3749.52 480.286 3748.72 483.153 3748.09 485.064L3747.45 488.089C3747.45 488.407 3747.77 488.248 3748.4 487.611C3753.61 483.365 3758.97 481.242 3764.49 481.242C3771.07 481.242 3776.38 483.683 3780.41 488.567C3784.44 493.45 3786.51 499.607 3786.62 507.038C3786.62 518.821 3782.43 529.49 3774.04 539.044C3765.65 548.598 3756.63 553.375 3746.97 553.375C3741.66 553.375 3736.83 551.358 3732.48 547.324C3728.13 543.29 3725.9 536.762 3725.79 527.738V526.305C3725.79 524.076 3726.22 520.997 3727.07 517.07C3727.92 513.142 3730.52 502.685 3734.87 485.7C3740.18 464.788 3742.83 453.694 3742.83 452.42C3742.83 451.147 3740.81 450.404 3736.78 450.191C3736.25 450.191 3735.82 450.191 3735.51 450.191H3734.71C3733.65 450.191 3732.96 450.191 3732.64 450.191C3732.32 450.191 3731.95 450.032 3731.52 449.713C3731.1 449.395 3730.94 449.023 3731.05 448.599ZM3772.93 499.872V498.917C3772.93 491.061 3769.69 487.134 3763.21 487.134C3761.41 487.134 3759.55 487.558 3757.64 488.407C3755.73 489.257 3753.98 490.371 3752.38 491.751C3750.79 493.131 3749.41 494.405 3748.24 495.573C3747.08 496.741 3746.12 497.908 3745.38 499.076L3744.42 500.35L3741.08 514.044C3738.74 523.174 3737.58 529.649 3737.58 533.471C3737.58 538.566 3738.85 542.388 3741.4 544.936C3743.1 546.634 3745.22 547.483 3747.77 547.483C3751.27 547.483 3754.83 545.785 3758.44 542.388C3761.09 539.946 3763.21 536.974 3764.8 533.471C3766.4 529.968 3768.15 524.394 3770.06 516.751C3771.97 509.108 3772.93 503.482 3772.93 499.872Z" fill="#132AF4" stroke="#132AF4" stroke-width="15"/>
<path d="M3810.74 371.884C3810.74 368.581 3811.71 365.953 3813.67 364.001H3816.14C3822.45 364.452 3830.33 364.677 3839.79 364.677C3857.51 364.677 3867.94 364.452 3871.1 364.001H3873.35C3874.25 364.902 3874.7 365.578 3874.7 366.028C3874.7 366.479 3874.55 367.83 3874.25 370.082C3873.5 372.335 3872.82 373.761 3872.22 374.362H3867.49C3864.19 374.662 3861.94 374.812 3860.74 374.812C3856.38 375.563 3853.98 376.689 3853.53 378.191C3853.53 378.491 3855.71 397.335 3860.06 434.722C3864.42 472.109 3866.67 490.953 3866.82 491.254L3883.26 464.902C3894.22 447.335 3905.18 429.617 3916.14 411.749C3927.1 393.881 3932.73 384.647 3933.03 384.046C3933.64 382.995 3933.94 381.869 3933.94 380.668C3933.94 377.064 3930.63 374.962 3924.03 374.362C3921.32 374.362 3919.97 373.536 3919.97 371.884C3919.97 371.734 3920.12 370.758 3920.42 368.956C3920.87 366.854 3921.32 365.503 3921.77 364.902C3922.22 364.302 3923.2 364.001 3924.7 364.001C3925 364.001 3925.9 364.001 3927.4 364.001C3928.91 364.001 3931.46 364.076 3935.06 364.227C3938.67 364.377 3943.47 364.452 3949.48 364.452C3959.84 364.452 3966.37 364.302 3969.07 364.001H3970.65C3971.7 365.052 3972.22 365.878 3972.22 366.479C3972.22 369.031 3971.55 371.434 3970.2 373.686C3969.75 374.136 3968.47 374.362 3966.37 374.362C3964.42 374.512 3962.61 374.662 3960.96 374.812C3959.31 374.962 3957.73 375.338 3956.23 375.938C3954.73 376.539 3953.53 377.064 3952.63 377.515C3951.73 377.965 3950.83 378.566 3949.93 379.317C3949.03 380.067 3948.27 380.593 3947.67 380.893C3947.07 381.194 3946.47 381.869 3945.87 382.92C3945.27 383.971 3944.75 384.497 3944.3 384.497L3900.83 454.317C3873.8 498.01 3859.84 520.383 3858.94 521.434C3858.48 521.734 3857.96 522.109 3857.36 522.56L3853.3 522.785H3851.73C3849.03 522.785 3847.67 522.26 3847.67 521.209C3847.22 520.308 3844.3 496.284 3838.89 449.137C3833.18 401.389 3830.26 377.29 3830.11 376.839C3829.36 375.188 3824.7 374.362 3816.14 374.362H3812.31C3811.26 373.611 3810.74 372.785 3810.74 371.884Z" fill="#132AF4" stroke="#132AF4" stroke-width="15"/>
<path d="M3974.55 450.193C3971.68 450.193 3969.98 450.14 3969.45 450.034C3968.92 449.927 3968.65 449.344 3968.65 448.282C3968.65 445.416 3969.24 443.664 3970.41 443.027C3970.51 442.921 3977.41 442.868 3991.11 442.868C4018.6 442.868 4033.09 442.974 4034.58 443.186C4041.26 444.248 4046.84 446.637 4051.3 450.352C4055.76 454.067 4058.04 458.951 4058.14 465.002C4058.14 471.796 4055.07 477.9 4048.91 483.314C4042.75 488.727 4035.69 492.39 4027.73 494.301L4026.14 494.778C4032.93 495.734 4038.5 498.175 4042.86 502.103C4047.21 506.031 4049.44 510.914 4049.54 516.753C4049.54 524.502 4045.72 531.986 4038.08 539.205C4030.44 546.423 4021.04 550.51 4009.9 551.466C4009.15 551.572 3997.95 551.625 3976.3 551.625C3955.07 551.625 3944.29 551.519 3943.97 551.307C3943.55 550.988 3943.34 550.563 3943.34 550.033C3943.34 549.29 3943.44 548.546 3943.65 547.803C3944.18 545.786 3944.72 544.672 3945.25 544.459C3945.67 544.353 3946.47 544.3 3947.64 544.3H3948.59C3951.46 544.3 3954.64 544.141 3958.14 543.823C3959.63 543.504 3960.64 542.867 3961.17 541.912C3961.49 541.487 3965.31 526.731 3972.63 497.645C3979.96 468.558 3983.62 453.218 3983.62 451.626C3983.62 450.883 3980.6 450.405 3974.55 450.193ZM4041.11 465.002C4041.11 461.817 4040.31 458.845 4038.72 456.084C4037.12 453.324 4034.52 451.52 4030.91 450.67C4030.17 450.458 4025.29 450.299 4016.26 450.193C4014.14 450.193 4011.91 450.193 4009.58 450.193C4007.24 450.193 4005.38 450.246 4004 450.352H4001.93C4000.34 450.458 3999.33 450.989 3998.91 451.944C3998.7 452.369 3997 458.738 3993.81 471.052C3993.81 471.371 3993.76 471.689 3993.65 472.008L3988.72 492.071H4001.62C4010.21 492.071 4015.15 491.965 4016.42 491.753C4022.79 490.691 4028.47 487.613 4033.46 482.517C4038.45 477.422 4041 471.583 4041.11 465.002ZM4032.51 515.16C4032.51 510.489 4031.29 506.615 4028.84 503.536C4026.4 500.458 4023.22 498.653 4019.29 498.122C4018.65 498.016 4014.25 497.963 4006.07 497.963C3993.55 497.963 3987.23 498.016 3987.13 498.122C3987.13 498.335 3986.22 502.209 3984.42 509.746C3982.61 517.283 3980.76 524.767 3978.84 532.198L3975.98 543.345C3975.98 543.769 3976.62 543.982 3977.89 543.982C3979.16 543.982 3983.46 544.088 3990.79 544.3C4000.24 544.3 4005.33 544.247 4006.07 544.141C4012.66 543.398 4018.71 540.319 4024.23 534.905C4029.75 529.491 4032.51 522.91 4032.51 515.16Z" fill="#132AF4" stroke="#132AF4" stroke-width="15"/>
<path d="M4107.66 547.8C4113.93 547.8 4119.66 545.04 4124.86 539.52C4130.06 534 4132.72 527.577 4132.82 520.253C4132.82 513.565 4130.06 508.947 4124.54 506.399C4113.29 503.533 4106.07 501.569 4102.89 500.508C4099.7 499.446 4097.47 498.385 4096.2 497.323C4089.83 492.864 4086.65 486.442 4086.65 478.056C4086.65 471.58 4088.34 465.688 4091.74 460.381C4095.14 455.073 4098.59 451.092 4102.09 448.438C4105.17 445.784 4108.89 443.661 4113.24 442.069C4117.59 440.476 4120.99 439.627 4123.43 439.521H4125.18H4126.3C4136.49 439.521 4143.86 442.918 4148.43 449.712C4148.53 449.712 4149.22 449.022 4150.5 447.642C4151.77 446.262 4153.15 444.723 4154.64 443.024C4156.12 441.326 4157.19 440.158 4157.82 439.521C4157.93 439.521 4158.14 439.521 4158.46 439.521C4158.78 439.521 4159.04 439.468 4159.26 439.362C4160.64 439.362 4161.33 439.733 4161.33 440.476C4161.33 441.219 4159.84 447.642 4156.87 459.744C4153.9 471.845 4152.2 478.109 4151.77 478.533C4151.35 478.958 4150.5 479.117 4149.22 479.011C4147.1 479.011 4146.04 478.533 4146.04 477.578C4146.04 476.941 4146.09 476.41 4146.2 475.986C4146.2 475.667 4146.25 474.659 4146.36 472.96C4146.46 471.262 4146.57 469.882 4146.68 468.82C4146.68 465.211 4146.2 462.079 4145.24 459.425C4144.29 456.771 4143.33 454.807 4142.38 453.534C4141.42 452.26 4140.1 450.933 4138.4 449.553C4134.58 447.323 4130.22 446.209 4125.34 446.209C4119.29 446.209 4113.66 448.65 4108.46 453.534C4103.26 458.417 4100.61 464.043 4100.5 470.412C4100.5 473.597 4101.3 476.357 4102.89 478.693C4104.48 481.028 4106.66 482.673 4109.42 483.629C4109.84 483.841 4113.56 484.85 4120.56 486.654C4127.57 488.459 4131.13 489.414 4131.23 489.52C4134.84 490.688 4138.34 493.236 4141.74 497.164C4145.14 501.092 4146.84 506.399 4146.84 513.087C4146.84 515.847 4146.41 518.82 4145.56 522.004C4145.03 524.34 4144.08 526.941 4142.7 529.807C4141.32 532.673 4139.41 535.805 4136.96 539.202C4134.52 542.599 4131.02 545.783 4126.45 548.756C4121.89 551.728 4116.9 553.745 4111.49 554.807C4110.21 555.019 4108.41 555.125 4106.07 555.125C4095.56 555.125 4087.39 552.206 4081.55 546.367L4079.96 544.616L4075.5 549.552C4073.06 552.418 4071.57 554.063 4071.04 554.488C4070.51 554.913 4069.82 555.125 4068.97 555.125C4067.59 555.125 4066.9 554.7 4066.9 553.851C4066.9 553.533 4069.98 541.059 4076.14 516.431C4076.35 515.794 4077.41 515.476 4079.32 515.476H4081.39C4082.03 516.113 4082.35 516.696 4082.35 517.227C4082.35 517.44 4082.29 517.917 4082.19 518.66C4082.08 519.403 4081.87 520.518 4081.55 522.004C4081.23 523.49 4081.13 525.242 4081.23 527.259C4081.44 531.399 4082.4 534.902 4084.1 537.768C4085.8 540.635 4088.08 542.758 4090.95 544.138C4093.81 545.518 4096.57 546.473 4099.23 547.004C4101.88 547.535 4104.69 547.8 4107.66 547.8Z" fill="#132AF4" stroke="#132AF4" stroke-width="15"/>
<path d="M847 1236.88C847 1233.58 847.976 1230.95 849.928 1229H852.405C858.712 1229.45 866.595 1229.68 876.054 1229.68C893.772 1229.68 904.207 1229.45 907.36 1229H909.613C910.514 1229.9 910.964 1230.58 910.964 1231.03C910.964 1231.48 910.814 1232.83 910.514 1235.08C909.763 1237.33 909.087 1238.76 908.486 1239.36H903.757C900.453 1239.66 898.201 1239.81 897 1239.81C892.646 1240.56 890.243 1241.69 889.793 1243.19C889.793 1243.49 891.97 1262.33 896.324 1299.72C900.679 1337.11 902.931 1355.95 903.081 1356.25L919.523 1329.9C930.483 1312.33 941.444 1294.62 952.405 1276.75C963.366 1258.88 968.997 1249.65 969.297 1249.05C969.898 1248 970.198 1246.87 970.198 1245.67C970.198 1242.06 966.895 1239.96 960.288 1239.36C957.586 1239.36 956.234 1238.54 956.234 1236.88C956.234 1236.73 956.384 1235.76 956.685 1233.96C957.135 1231.85 957.586 1230.5 958.036 1229.9C958.487 1229.3 959.462 1229 960.964 1229C961.264 1229 962.165 1229 963.667 1229C965.168 1229 967.721 1229.08 971.324 1229.23C974.928 1229.38 979.733 1229.45 985.739 1229.45C996.099 1229.45 1002.63 1229.3 1005.33 1229H1006.91C1007.96 1230.05 1008.49 1230.88 1008.49 1231.48C1008.49 1234.03 1007.81 1236.43 1006.46 1238.69C1006.01 1239.14 1004.73 1239.36 1002.63 1239.36C1000.68 1239.51 998.877 1239.66 997.225 1239.81C995.574 1239.96 993.997 1240.34 992.496 1240.94C990.994 1241.54 989.793 1242.06 988.892 1242.51C987.991 1242.97 987.09 1243.57 986.189 1244.32C985.288 1245.07 984.538 1245.59 983.937 1245.89C983.336 1246.19 982.736 1246.87 982.135 1247.92C981.535 1248.97 981.009 1249.5 980.559 1249.5L937.09 1319.32C910.063 1363.01 896.099 1385.38 895.198 1386.43C894.748 1386.73 894.222 1387.11 893.622 1387.56L889.568 1387.79H887.991C885.288 1387.79 883.937 1387.26 883.937 1386.21C883.486 1385.31 880.559 1361.28 875.153 1314.14C869.447 1266.39 866.52 1242.29 866.369 1241.84C865.619 1240.19 860.964 1239.36 852.405 1239.36H848.577C847.526 1238.61 847 1237.79 847 1236.88Z" fill="#132AF4" stroke="#132AF4" stroke-width="15"/>
<path d="M1010.81 1315.19C1007.94 1315.19 1006.24 1315.14 1005.71 1315.03C1005.18 1314.93 1004.92 1314.34 1004.92 1313.28C1004.92 1310.42 1005.5 1308.66 1006.67 1308.03C1006.77 1307.92 1013.67 1307.87 1027.37 1307.87C1054.86 1307.87 1069.35 1307.97 1070.84 1308.19C1077.53 1309.25 1083.1 1311.64 1087.56 1315.35C1092.02 1319.07 1094.3 1323.95 1094.41 1330C1094.41 1336.8 1091.33 1342.9 1085.17 1348.31C1079.01 1353.73 1071.95 1357.39 1063.99 1359.3L1062.4 1359.78C1069.19 1360.73 1074.77 1363.18 1079.12 1367.1C1083.47 1371.03 1085.7 1375.91 1085.81 1381.75C1085.81 1389.5 1081.99 1396.99 1074.34 1404.2C1066.7 1411.42 1057.3 1415.51 1046.16 1416.47C1045.42 1416.57 1034.22 1416.62 1012.56 1416.62C991.329 1416.62 980.554 1416.52 980.236 1416.31C979.811 1415.99 979.599 1415.56 979.599 1415.03C979.599 1414.29 979.705 1413.55 979.917 1412.8C980.448 1410.79 980.979 1409.67 981.509 1409.46C981.934 1409.35 982.73 1409.3 983.898 1409.3H984.853C987.72 1409.3 990.904 1409.14 994.407 1408.82C995.894 1408.5 996.902 1407.87 997.433 1406.91C997.751 1406.49 1001.57 1391.73 1008.9 1362.64C1016.22 1333.56 1019.88 1318.22 1019.88 1316.63C1019.88 1315.88 1016.86 1315.41 1010.81 1315.19ZM1077.37 1330C1077.37 1326.82 1076.57 1323.84 1074.98 1321.08C1073.39 1318.32 1070.79 1316.52 1067.18 1315.67C1066.43 1315.46 1061.55 1315.3 1052.53 1315.19C1050.4 1315.19 1048.18 1315.19 1045.84 1315.19C1043.5 1315.19 1041.65 1315.25 1040.27 1315.35H1038.2C1036.6 1315.46 1035.6 1315.99 1035.17 1316.94C1034.96 1317.37 1033.26 1323.74 1030.08 1336.05C1030.08 1336.37 1030.02 1336.69 1029.92 1337.01L1024.98 1357.07H1037.88C1046.48 1357.07 1051.41 1356.97 1052.69 1356.75C1059.06 1355.69 1064.74 1352.61 1069.73 1347.52C1074.71 1342.42 1077.26 1336.58 1077.37 1330ZM1068.77 1380.16C1068.77 1375.49 1067.55 1371.61 1065.11 1368.54C1062.67 1365.46 1059.48 1363.65 1055.55 1363.12C1054.92 1363.02 1050.51 1362.96 1042.34 1362.96C1029.81 1362.96 1023.49 1363.02 1023.39 1363.12C1023.39 1363.33 1022.49 1367.21 1020.68 1374.75C1018.88 1382.28 1017.02 1389.77 1015.11 1397.2L1012.24 1408.34C1012.24 1408.77 1012.88 1408.98 1014.15 1408.98C1015.43 1408.98 1019.73 1409.09 1027.05 1409.3C1036.5 1409.3 1041.59 1409.25 1042.34 1409.14C1048.92 1408.4 1054.97 1405.32 1060.49 1399.91C1066.01 1394.49 1068.77 1387.91 1068.77 1380.16Z" fill="#132AF4" stroke="#132AF4" stroke-width="15"/>
<path d="M1143.93 1412.8C1150.19 1412.8 1155.92 1410.04 1161.12 1404.52C1166.33 1399 1168.98 1392.58 1169.09 1385.25C1169.09 1378.56 1166.33 1373.95 1160.81 1371.4C1149.55 1368.53 1142.34 1366.57 1139.15 1365.51C1135.97 1364.45 1133.74 1363.38 1132.46 1362.32C1126.09 1357.86 1122.91 1351.44 1122.91 1343.06C1122.91 1336.58 1124.61 1330.69 1128 1325.38C1131.4 1320.07 1134.85 1316.09 1138.35 1313.44C1141.43 1310.78 1145.15 1308.66 1149.5 1307.07C1153.85 1305.48 1157.25 1304.63 1159.69 1304.52H1161.44H1162.56C1172.75 1304.52 1180.13 1307.92 1184.69 1314.71C1184.8 1314.71 1185.49 1314.02 1186.76 1312.64C1188.04 1311.26 1189.42 1309.72 1190.9 1308.02C1192.39 1306.33 1193.45 1305.16 1194.09 1304.52C1194.19 1304.52 1194.4 1304.52 1194.72 1304.52C1195.04 1304.52 1195.31 1304.47 1195.52 1304.36C1196.9 1304.36 1197.59 1304.73 1197.59 1305.48C1197.59 1306.22 1196.1 1312.64 1193.13 1324.74C1190.16 1336.85 1188.46 1343.11 1188.04 1343.53C1187.61 1343.96 1186.76 1344.12 1185.49 1344.01C1183.36 1344.01 1182.3 1343.53 1182.3 1342.58C1182.3 1341.94 1182.36 1341.41 1182.46 1340.99C1182.46 1340.67 1182.52 1339.66 1182.62 1337.96C1182.73 1336.26 1182.83 1334.88 1182.94 1333.82C1182.94 1330.21 1182.46 1327.08 1181.51 1324.43C1180.55 1321.77 1179.6 1319.81 1178.64 1318.53C1177.69 1317.26 1176.36 1315.93 1174.66 1314.55C1170.84 1312.32 1166.49 1311.21 1161.6 1311.21C1155.55 1311.21 1149.93 1313.65 1144.72 1318.53C1139.52 1323.42 1136.87 1329.04 1136.76 1335.41C1136.76 1338.6 1137.56 1341.36 1139.15 1343.69C1140.74 1346.03 1142.92 1347.67 1145.68 1348.63C1146.1 1348.84 1149.82 1349.85 1156.83 1351.65C1163.83 1353.46 1167.39 1354.41 1167.49 1354.52C1171.1 1355.69 1174.61 1358.24 1178 1362.16C1181.4 1366.09 1183.1 1371.4 1183.1 1378.09C1183.1 1380.85 1182.67 1383.82 1181.83 1387C1181.29 1389.34 1180.34 1391.94 1178.96 1394.81C1177.58 1397.67 1175.67 1400.8 1173.23 1404.2C1170.79 1407.6 1167.28 1410.78 1162.72 1413.76C1158.15 1416.73 1153.16 1418.74 1147.75 1419.81C1146.48 1420.02 1144.67 1420.12 1142.34 1420.12C1131.83 1420.12 1123.65 1417.21 1117.81 1411.37L1116.22 1409.62L1111.76 1414.55C1109.32 1417.42 1107.83 1419.06 1107.3 1419.49C1106.77 1419.91 1106.08 1420.12 1105.23 1420.12C1103.85 1420.12 1103.16 1419.7 1103.16 1418.85C1103.16 1418.53 1106.24 1406.06 1112.4 1381.43C1112.61 1380.79 1113.67 1380.48 1115.58 1380.48H1117.65C1118.29 1381.11 1118.61 1381.7 1118.61 1382.23C1118.61 1382.44 1118.56 1382.92 1118.45 1383.66C1118.34 1384.4 1118.13 1385.52 1117.81 1387C1117.49 1388.49 1117.39 1390.24 1117.49 1392.26C1117.71 1396.4 1118.66 1399.9 1120.36 1402.77C1122.06 1405.63 1124.34 1407.76 1127.21 1409.14C1130.07 1410.52 1132.83 1411.47 1135.49 1412C1138.14 1412.53 1140.96 1412.8 1143.93 1412.8Z" fill="#132AF4" stroke="#132AF4" stroke-width="15"/>
<path d="M8 1642.88C8 1639.58 8.97598 1636.95 10.9279 1635H13.4054C19.7117 1635.45 27.5946 1635.68 37.0541 1635.68C54.7718 1635.68 65.2072 1635.45 68.3604 1635H70.6126C71.5135 1635.9 71.964 1636.58 71.964 1637.03C71.964 1637.48 71.8138 1638.83 71.5135 1641.08C70.7628 1643.33 70.0871 1644.76 69.4865 1645.36H64.7568C61.4535 1645.66 59.2012 1645.81 58 1645.81C53.6457 1646.56 51.2432 1647.69 50.7928 1649.19C50.7928 1649.49 52.97 1668.33 57.3243 1705.72C61.6787 1743.11 63.9309 1761.95 64.0811 1762.25L80.5225 1735.9C91.4835 1718.33 102.444 1700.62 113.405 1682.75C124.366 1664.88 129.997 1655.65 130.297 1655.04C130.898 1653.99 131.198 1652.87 131.198 1651.67C131.198 1648.06 127.895 1645.96 121.288 1645.36C118.586 1645.36 117.234 1644.53 117.234 1642.88C117.234 1642.73 117.384 1641.76 117.685 1639.95C118.135 1637.85 118.586 1636.5 119.036 1635.9C119.487 1635.3 120.462 1635 121.964 1635C122.264 1635 123.165 1635 124.667 1635C126.168 1635 128.721 1635.07 132.324 1635.22C135.928 1635.37 140.733 1635.45 146.739 1635.45C157.099 1635.45 163.631 1635.3 166.333 1635H167.91C168.961 1636.05 169.487 1636.88 169.487 1637.48C169.487 1640.03 168.811 1642.43 167.459 1644.68C167.009 1645.13 165.733 1645.36 163.631 1645.36C161.679 1645.51 159.877 1645.66 158.225 1645.81C156.574 1645.96 154.997 1646.34 153.496 1646.94C151.994 1647.54 150.793 1648.06 149.892 1648.51C148.991 1648.96 148.09 1649.56 147.189 1650.31C146.288 1651.07 145.538 1651.59 144.937 1651.89C144.336 1652.19 143.736 1652.87 143.135 1653.92C142.535 1654.97 142.009 1655.49 141.559 1655.49L98.0901 1725.31C71.0631 1769.01 57.0991 1791.38 56.1982 1792.43C55.7478 1792.73 55.2222 1793.11 54.6216 1793.56L50.5676 1793.78H48.991C46.2883 1793.78 44.9369 1793.26 44.9369 1792.21C44.4865 1791.31 41.5586 1767.28 36.1532 1720.13C30.4475 1672.39 27.5195 1648.29 27.3694 1647.84C26.6186 1646.19 21.964 1645.36 13.4054 1645.36H9.57658C8.52553 1644.61 8 1643.78 8 1642.88Z" fill="#132AF4" stroke="#132AF4" stroke-width="15"/>
<path d="M171.809 1721.19C168.942 1721.19 167.244 1721.14 166.713 1721.03C166.182 1720.93 165.917 1720.34 165.917 1719.28C165.917 1716.42 166.501 1714.66 167.668 1714.03C167.775 1713.92 174.675 1713.87 188.369 1713.87C215.863 1713.87 230.354 1713.97 231.84 1714.19C238.528 1715.25 244.101 1717.64 248.559 1721.35C253.018 1725.07 255.3 1729.95 255.407 1736C255.407 1742.8 252.328 1748.9 246.171 1754.31C240.014 1759.73 232.955 1763.39 224.993 1765.3L223.4 1765.78C230.194 1766.73 235.768 1769.18 240.12 1773.1C244.472 1777.03 246.702 1781.91 246.808 1787.75C246.808 1795.5 242.986 1802.99 235.343 1810.2C227.7 1817.42 218.305 1821.51 207.159 1822.47C206.415 1822.57 195.216 1822.62 173.56 1822.62C152.329 1822.62 141.554 1822.52 141.236 1822.31C140.811 1821.99 140.599 1821.56 140.599 1821.03C140.599 1820.29 140.705 1819.55 140.917 1818.8C141.448 1816.79 141.979 1815.67 142.509 1815.46C142.934 1815.35 143.73 1815.3 144.898 1815.3H145.853C148.72 1815.3 151.904 1815.14 155.407 1814.82C156.894 1814.5 157.902 1813.87 158.433 1812.91C158.751 1812.49 162.573 1797.73 169.898 1768.64C177.223 1739.56 180.885 1724.22 180.885 1722.63C180.885 1721.88 177.859 1721.41 171.809 1721.19ZM238.368 1736C238.368 1732.82 237.572 1729.84 235.98 1727.08C234.388 1724.32 231.787 1722.52 228.177 1721.67C227.434 1721.46 222.551 1721.3 213.528 1721.19C211.405 1721.19 209.176 1721.19 206.84 1721.19C204.505 1721.19 202.647 1721.25 201.267 1721.35H199.197C197.604 1721.46 196.596 1721.99 196.171 1722.94C195.959 1723.37 194.261 1729.74 191.076 1742.05C191.076 1742.37 191.023 1742.69 190.917 1743.01L185.98 1763.07H198.878C207.477 1763.07 212.413 1762.97 213.687 1762.75C220.057 1761.69 225.736 1758.61 230.725 1753.52C235.715 1748.42 238.262 1742.58 238.368 1736ZM229.77 1786.16C229.77 1781.49 228.549 1777.61 226.107 1774.54C223.666 1771.46 220.481 1769.65 216.553 1769.12C215.916 1769.02 211.511 1768.96 203.337 1768.96C190.811 1768.96 184.494 1769.02 184.388 1769.12C184.388 1769.33 183.486 1773.21 181.681 1780.75C179.876 1788.28 178.019 1795.77 176.108 1803.2L173.242 1814.34C173.242 1814.77 173.879 1814.98 175.152 1814.98C176.426 1814.98 180.726 1815.09 188.05 1815.3C197.498 1815.3 202.594 1815.25 203.337 1815.14C209.919 1814.4 215.97 1811.32 221.49 1805.91C227.01 1800.49 229.77 1793.91 229.77 1786.16Z" fill="#132AF4" stroke="#132AF4" stroke-width="15"/>
<path d="M1635 1729H355" stroke="#132AF4" stroke-width="15"/>
</svg>
