<svg width="769" height="349" viewBox="0 0 769 349" fill="none" xmlns="http://www.w3.org/2000/svg">
<path d="M484.5 41V287" stroke="#132AF4" stroke-width="4"/>
<path d="M456 250.5L484.5 250.451M749.5 250L484.5 250.451M484.5 250.451L592.5 170" stroke="#132AF4" stroke-width="4"/>
<path d="M484.5 250.5L592.5 130" stroke="#132AF4" stroke-width="4"/>
<path d="M484.5 250.5L593 76.5" stroke="#132AF4" stroke-width="4"/>
<path d="M352.301 303.807L324.33 296.091C324.183 296.051 324.11 296.03 324.069 296.07C324.028 296.111 324.046 296.184 324.083 296.332L326 304L324.083 311.668C324.046 311.816 324.028 311.889 324.069 311.93C324.11 311.97 324.183 311.949 324.33 311.909L352.301 304.193C352.583 304.115 352.724 304.076 352.724 304C352.724 303.924 352.583 303.885 352.301 303.807Z" fill="#132AF4"/>
<path d="M326 304L324.083 311.668C324.046 311.816 324.028 311.889 324.069 311.93C324.11 311.97 324.183 311.949 324.33 311.909L352.301 304.193C352.583 304.115 352.724 304.076 352.724 304C352.724 303.924 352.583 303.885 352.301 303.807L324.33 296.091C324.183 296.051 324.11 296.03 324.069 296.07C324.028 296.111 324.046 296.184 324.083 296.332L326 304ZM326 304H25" stroke="#132AF4" stroke-width="3"/>
<path d="M43.8072 33.6989L36.0911 61.6697C36.0506 61.8167 36.0303 61.8902 36.0704 61.9313C36.1105 61.9724 36.1845 61.9539 36.3324 61.9169L44 59.9999L51.6676 61.9169C51.8155 61.9539 51.8895 61.9724 51.9296 61.9313C51.9697 61.8902 51.9494 61.8167 51.9089 61.6697L44.1928 33.6989C44.115 33.417 44.0761 33.276 44 33.276C43.9239 33.276 43.885 33.417 43.8072 33.6989Z" fill="#132AF4"/>
<path d="M44 59.9999L51.6676 61.9169C51.8155 61.9539 51.8895 61.9724 51.9296 61.9313C51.9697 61.8902 51.9494 61.8167 51.9089 61.6697L44.1928 33.6989C44.115 33.417 44.0761 33.276 44 33.276C43.9239 33.276 43.885 33.417 43.8072 33.6989L36.0911 61.6697C36.0506 61.8167 36.0303 61.8902 36.0704 61.9313C36.1105 61.9724 36.1845 61.9539 36.3324 61.9169L44 59.9999ZM44 59.9999L44 323" stroke="#132AF4" stroke-width="3"/>
<path d="M44 304C44 304 69.2272 280.896 87.5 269C98.0544 262.129 94.5 263 115.5 253C136.5 243 154 242 154 242L164.5 242" stroke="#132AF4" stroke-width="4"/>
<path d="M44 304C44 304 69 273 86.5 254C104 235 122 221 122 221C148.845 199.249 185.5 183 199 180.5C212.5 178 217.5 179.5 217.5 179.5" stroke="#132AF4" stroke-width="4"/>
<path d="M44 304C63.1062 269.898 73.9739 251.114 94 219C94 219 113.945 189.111 124 175.5C132.769 163.464 137.949 156.925 147.5 145.5C162.384 128.956 171.213 120.06 188 105C196.691 97.2716 202.75 91.6398 212 84.5C219.079 78.7482 229 71.5 229 71.5C229 71.5 236.305 66.854 243 63.5C252.445 58.9299 262.169 56.8655 273 55.5H292" stroke="#132AF4" stroke-width="4"/>
<circle cx="63" cy="285" r="57" stroke="#132AF4" stroke-width="2" stroke-dasharray="4 4"/>
<path d="M120 285L428 221.5" stroke="#132AF4" stroke-width="4" stroke-dasharray="8 8"/>
<circle cx="595" cy="174" r="173" stroke="#132AF4" stroke-width="2" stroke-dasharray="4 4"/>
<path d="M178 231.032C178 230.6 178.128 230.256 178.383 230.001H178.707C179.532 230.059 180.563 230.089 181.8 230.089C184.117 230.089 185.482 230.059 185.895 230.001H186.189C186.307 230.118 186.366 230.207 186.366 230.266C186.366 230.325 186.346 230.501 186.307 230.796C186.209 231.091 186.121 231.277 186.042 231.356H185.423C184.991 231.395 184.697 231.415 184.54 231.415C183.97 231.513 183.656 231.66 183.597 231.856C183.597 231.896 183.882 234.36 184.451 239.25C185.021 244.14 185.315 246.605 185.335 246.644L187.486 243.198C188.919 240.9 190.353 238.583 191.786 236.246C193.22 233.909 193.956 232.701 193.996 232.622C194.074 232.485 194.114 232.338 194.114 232.18C194.114 231.709 193.682 231.434 192.817 231.356C192.464 231.356 192.287 231.248 192.287 231.032C192.287 231.012 192.307 230.884 192.346 230.649C192.405 230.374 192.464 230.197 192.523 230.118C192.582 230.04 192.709 230.001 192.906 230.001C192.945 230.001 193.063 230.001 193.259 230.001C193.456 230.001 193.79 230.01 194.261 230.03C194.732 230.05 195.361 230.059 196.146 230.059C197.501 230.059 198.356 230.04 198.709 230.001H198.915C199.053 230.138 199.121 230.246 199.121 230.325C199.121 230.658 199.033 230.973 198.856 231.267C198.797 231.326 198.631 231.356 198.356 231.356C198.1 231.375 197.865 231.395 197.649 231.415C197.433 231.434 197.226 231.483 197.03 231.562C196.834 231.64 196.676 231.709 196.559 231.768C196.441 231.827 196.323 231.906 196.205 232.004C196.087 232.102 195.989 232.171 195.911 232.21C195.832 232.249 195.753 232.338 195.675 232.475C195.596 232.613 195.528 232.681 195.469 232.681L189.783 241.813C186.248 247.528 184.422 250.454 184.304 250.592C184.245 250.631 184.176 250.68 184.098 250.739L183.568 250.769H183.361C183.008 250.769 182.831 250.7 182.831 250.562C182.772 250.445 182.389 247.302 181.682 241.136C180.936 234.891 180.553 231.739 180.533 231.68C180.435 231.464 179.826 231.356 178.707 231.356H178.206C178.069 231.257 178 231.149 178 231.032Z" fill="#132AF4" stroke="#132AF4" stroke-width="2"/>
<path d="M195.656 249.29C195.656 247.694 196.121 246.16 197.051 244.688C197.981 243.216 199.155 242.05 200.571 241.189C201.987 240.328 203.403 239.891 204.82 239.877C206.069 239.877 207.062 240.231 207.798 240.939C207.923 241.078 208.027 241.196 208.11 241.293C208.194 241.39 208.249 241.46 208.277 241.501L208.298 241.564C208.339 241.564 208.527 241.383 208.86 241.022C208.957 240.939 209.061 240.842 209.172 240.731C209.283 240.62 209.395 240.508 209.506 240.397C209.617 240.286 209.686 240.21 209.714 240.168L210.026 239.856H210.151C210.346 239.856 210.443 239.905 210.443 240.002C210.443 240.057 210.221 241.008 209.776 242.855C209.277 244.785 209.027 245.757 209.027 245.771C208.999 245.84 208.964 245.882 208.922 245.896C208.881 245.91 208.756 245.923 208.548 245.937H208.214C208.131 245.854 208.089 245.792 208.089 245.75C208.089 245.736 208.096 245.687 208.11 245.604C208.124 245.521 208.138 245.382 208.152 245.188C208.166 244.993 208.173 244.771 208.173 244.521C208.173 243.535 207.951 242.674 207.506 241.939C207.062 241.203 206.305 240.828 205.236 240.814C204.986 240.814 204.715 240.835 204.424 240.876C204.132 240.918 203.764 241.008 203.32 241.147C202.876 241.286 202.452 241.48 202.05 241.73C201.647 241.98 201.21 242.313 200.738 242.73C200.265 243.147 199.863 243.639 199.53 244.209C199.196 244.778 198.87 245.486 198.551 246.333C198.231 247.18 198.016 248.11 197.905 249.124C197.877 249.374 197.863 249.645 197.863 249.936C197.863 250.603 197.961 251.193 198.155 251.706C198.349 252.22 198.599 252.616 198.905 252.894C199.21 253.171 199.557 253.407 199.946 253.602C200.335 253.796 200.696 253.914 201.029 253.956C201.362 253.997 201.675 254.025 201.966 254.039C202.716 254.039 203.403 253.879 204.028 253.56C204.653 253.241 205.083 252.831 205.319 252.331C205.361 252.22 205.465 251.838 205.632 251.186C205.798 250.533 205.882 250.165 205.882 250.082C205.882 249.971 205.792 249.901 205.611 249.874C205.431 249.846 205.014 249.825 204.361 249.811H203.591C203.508 249.728 203.466 249.672 203.466 249.645C203.466 249.617 203.48 249.485 203.508 249.249C203.563 249.068 203.632 248.936 203.716 248.853H204.07C204.625 248.881 205.597 248.895 206.986 248.895C207.541 248.895 207.992 248.895 208.339 248.895C208.686 248.895 208.936 248.888 209.089 248.874C209.242 248.86 209.325 248.86 209.339 248.874C209.533 248.874 209.631 248.936 209.631 249.061C209.631 249.089 209.617 249.186 209.589 249.353C209.52 249.617 209.45 249.763 209.381 249.79C209.339 249.804 209.235 249.811 209.068 249.811C208.791 249.811 208.506 249.832 208.214 249.874C208.117 249.915 208.048 249.978 208.006 250.061C207.964 250.144 207.867 250.498 207.715 251.123C207.59 251.581 207.485 251.97 207.402 252.29C207.055 253.706 206.861 254.435 206.819 254.476C206.791 254.504 206.756 254.518 206.715 254.518C206.576 254.518 206.382 254.379 206.132 254.102C205.882 253.824 205.722 253.609 205.653 253.456C205.653 253.442 205.639 253.442 205.611 253.456C205.583 253.47 205.542 253.504 205.486 253.56C204.459 254.518 203.07 254.997 201.321 254.997C199.641 254.997 198.28 254.463 197.239 253.393C196.197 252.324 195.67 250.957 195.656 249.29Z" fill="#132AF4" stroke="#132AF4" stroke-width="2"/>
<path d="M217.399 254.039C218.218 254.039 218.968 253.678 219.648 252.956C220.329 252.234 220.676 251.394 220.69 250.436C220.69 249.561 220.329 248.957 219.607 248.624C218.135 248.249 217.191 247.992 216.774 247.853C216.358 247.715 216.066 247.576 215.9 247.437C215.066 246.854 214.65 246.014 214.65 244.917C214.65 244.07 214.872 243.299 215.316 242.605C215.761 241.911 216.212 241.39 216.67 241.043C217.073 240.696 217.559 240.418 218.128 240.21C218.697 240.002 219.142 239.891 219.461 239.877H219.69H219.836C221.169 239.877 222.134 240.321 222.731 241.21C222.745 241.21 222.835 241.119 223.002 240.939C223.168 240.758 223.349 240.557 223.543 240.335C223.737 240.113 223.876 239.96 223.96 239.877C223.973 239.877 224.001 239.877 224.043 239.877C224.085 239.877 224.119 239.87 224.147 239.856C224.327 239.856 224.418 239.905 224.418 240.002C224.418 240.099 224.223 240.939 223.835 242.522C223.446 244.105 223.224 244.924 223.168 244.979C223.113 245.035 223.002 245.056 222.835 245.042C222.557 245.042 222.418 244.979 222.418 244.854C222.418 244.771 222.425 244.702 222.439 244.646C222.439 244.604 222.446 244.473 222.46 244.25C222.474 244.028 222.488 243.848 222.502 243.709C222.502 243.237 222.439 242.827 222.314 242.48C222.189 242.133 222.064 241.876 221.939 241.71C221.814 241.543 221.641 241.369 221.419 241.189C220.919 240.897 220.35 240.751 219.711 240.751C218.919 240.751 218.184 241.071 217.503 241.71C216.823 242.348 216.476 243.084 216.462 243.917C216.462 244.334 216.566 244.695 216.774 245C216.983 245.306 217.267 245.521 217.628 245.646C217.684 245.674 218.17 245.805 219.086 246.042C220.002 246.278 220.468 246.403 220.481 246.416C220.954 246.569 221.412 246.902 221.856 247.416C222.3 247.93 222.522 248.624 222.522 249.499C222.522 249.86 222.467 250.249 222.356 250.665C222.286 250.971 222.161 251.311 221.981 251.686C221.8 252.06 221.551 252.47 221.231 252.914C220.912 253.359 220.454 253.775 219.857 254.164C219.26 254.553 218.607 254.817 217.899 254.955C217.732 254.983 217.496 254.997 217.191 254.997C215.816 254.997 214.747 254.615 213.983 253.852L213.775 253.622L213.192 254.268C212.873 254.643 212.678 254.858 212.609 254.914C212.539 254.969 212.449 254.997 212.338 254.997C212.158 254.997 212.067 254.942 212.067 254.83C212.067 254.789 212.47 253.157 213.275 249.936C213.303 249.853 213.442 249.811 213.692 249.811H213.963C214.046 249.894 214.088 249.971 214.088 250.04C214.088 250.068 214.081 250.131 214.067 250.228C214.053 250.325 214.025 250.471 213.983 250.665C213.942 250.859 213.928 251.089 213.942 251.352C213.97 251.894 214.095 252.352 214.317 252.727C214.539 253.102 214.837 253.38 215.212 253.56C215.587 253.741 215.948 253.865 216.295 253.935C216.642 254.004 217.01 254.039 217.399 254.039Z" fill="#132AF4" stroke="#132AF4" stroke-width="2"/>
<path d="M228.854 242.501L228.583 242.605C228.389 242.675 228.111 242.744 227.75 242.814C227.389 242.883 226.986 242.932 226.542 242.959H226.146V242.001H226.542C227.195 241.973 227.799 241.869 228.354 241.689C228.909 241.508 229.298 241.342 229.52 241.189C229.742 241.036 229.937 240.884 230.103 240.731C230.131 240.689 230.215 240.668 230.353 240.668C230.478 240.668 230.596 240.71 230.707 240.793V247.021L230.728 253.269C230.825 253.366 230.909 253.428 230.978 253.456C231.048 253.484 231.214 253.512 231.478 253.539C231.742 253.567 232.172 253.581 232.769 253.581H233.311V254.539H233.082C232.79 254.497 231.686 254.477 229.77 254.477C227.882 254.477 226.792 254.497 226.5 254.539H226.25V253.581H226.792C227.097 253.581 227.361 253.581 227.583 253.581C227.806 253.581 227.979 253.574 228.104 253.56C228.229 253.546 228.34 253.525 228.437 253.498C228.535 253.47 228.59 253.456 228.604 253.456C228.618 253.456 228.659 253.421 228.729 253.352C228.798 253.283 228.84 253.255 228.854 253.269V242.501Z" fill="#132AF4" stroke="#132AF4" stroke-width="2"/>
<path d="M226 169.032C226 168.6 226.128 168.256 226.383 168.001H226.707C227.532 168.059 228.563 168.089 229.8 168.089C232.117 168.089 233.482 168.059 233.895 168.001H234.189C234.307 168.118 234.366 168.207 234.366 168.266C234.366 168.325 234.346 168.501 234.307 168.796C234.209 169.091 234.121 169.277 234.042 169.356H233.423C232.991 169.395 232.697 169.415 232.54 169.415C231.97 169.513 231.656 169.66 231.597 169.856C231.597 169.896 231.882 172.36 232.451 177.25C233.021 182.14 233.315 184.605 233.335 184.644L235.486 181.198C236.919 178.9 238.353 176.583 239.786 174.246C241.22 171.909 241.956 170.701 241.996 170.622C242.074 170.485 242.114 170.338 242.114 170.18C242.114 169.709 241.682 169.434 240.817 169.356C240.464 169.356 240.287 169.248 240.287 169.032C240.287 169.012 240.307 168.884 240.346 168.649C240.405 168.374 240.464 168.197 240.523 168.118C240.582 168.04 240.709 168.001 240.906 168.001C240.945 168.001 241.063 168.001 241.259 168.001C241.456 168.001 241.79 168.01 242.261 168.03C242.732 168.05 243.361 168.059 244.146 168.059C245.501 168.059 246.356 168.04 246.709 168.001H246.915C247.053 168.138 247.121 168.246 247.121 168.325C247.121 168.658 247.033 168.973 246.856 169.267C246.797 169.326 246.631 169.356 246.356 169.356C246.1 169.375 245.865 169.395 245.649 169.415C245.433 169.434 245.226 169.483 245.03 169.562C244.834 169.64 244.676 169.709 244.559 169.768C244.441 169.827 244.323 169.906 244.205 170.004C244.087 170.102 243.989 170.171 243.911 170.21C243.832 170.249 243.753 170.338 243.675 170.475C243.596 170.613 243.528 170.681 243.469 170.681L237.783 179.813C234.248 185.528 232.422 188.454 232.304 188.592C232.245 188.631 232.176 188.68 232.098 188.739L231.568 188.769H231.361C231.008 188.769 230.831 188.7 230.831 188.562C230.772 188.445 230.389 185.302 229.682 179.136C228.936 172.891 228.553 169.739 228.533 169.68C228.435 169.464 227.826 169.356 226.707 169.356H226.206C226.069 169.257 226 169.149 226 169.032Z" fill="#132AF4" stroke="#132AF4" stroke-width="2"/>
<path d="M243.656 187.29C243.656 185.694 244.121 184.16 245.051 182.688C245.981 181.216 247.155 180.05 248.571 179.189C249.987 178.328 251.403 177.891 252.82 177.877C254.069 177.877 255.062 178.231 255.798 178.939C255.923 179.078 256.027 179.196 256.11 179.293C256.194 179.39 256.249 179.46 256.277 179.501L256.298 179.564C256.339 179.564 256.527 179.383 256.86 179.022C256.957 178.939 257.061 178.842 257.172 178.731C257.283 178.62 257.395 178.508 257.506 178.397C257.617 178.286 257.686 178.21 257.714 178.168L258.026 177.856H258.151C258.346 177.856 258.443 177.905 258.443 178.002C258.443 178.057 258.221 179.008 257.776 180.855C257.277 182.785 257.027 183.757 257.027 183.771C256.999 183.84 256.964 183.882 256.922 183.896C256.881 183.91 256.756 183.923 256.548 183.937H256.214C256.131 183.854 256.089 183.792 256.089 183.75C256.089 183.736 256.096 183.687 256.11 183.604C256.124 183.521 256.138 183.382 256.152 183.188C256.166 182.993 256.173 182.771 256.173 182.521C256.173 181.535 255.951 180.674 255.506 179.939C255.062 179.203 254.305 178.828 253.236 178.814C252.986 178.814 252.715 178.835 252.424 178.876C252.132 178.918 251.764 179.008 251.32 179.147C250.876 179.286 250.452 179.48 250.05 179.73C249.647 179.98 249.21 180.313 248.738 180.73C248.265 181.147 247.863 181.639 247.53 182.209C247.196 182.778 246.87 183.486 246.551 184.333C246.231 185.18 246.016 186.11 245.905 187.124C245.877 187.374 245.863 187.645 245.863 187.936C245.863 188.603 245.961 189.193 246.155 189.706C246.349 190.22 246.599 190.616 246.905 190.894C247.21 191.171 247.557 191.407 247.946 191.602C248.335 191.796 248.696 191.914 249.029 191.956C249.362 191.997 249.675 192.025 249.966 192.039C250.716 192.039 251.403 191.879 252.028 191.56C252.653 191.241 253.083 190.831 253.319 190.331C253.361 190.22 253.465 189.838 253.632 189.186C253.798 188.533 253.882 188.165 253.882 188.082C253.882 187.971 253.792 187.901 253.611 187.874C253.431 187.846 253.014 187.825 252.361 187.811H251.591C251.508 187.728 251.466 187.672 251.466 187.645C251.466 187.617 251.48 187.485 251.508 187.249C251.563 187.068 251.632 186.936 251.716 186.853H252.07C252.625 186.881 253.597 186.895 254.986 186.895C255.541 186.895 255.992 186.895 256.339 186.895C256.686 186.895 256.936 186.888 257.089 186.874C257.242 186.86 257.325 186.86 257.339 186.874C257.533 186.874 257.631 186.936 257.631 187.061C257.631 187.089 257.617 187.186 257.589 187.353C257.52 187.617 257.45 187.763 257.381 187.79C257.339 187.804 257.235 187.811 257.068 187.811C256.791 187.811 256.506 187.832 256.214 187.874C256.117 187.915 256.048 187.978 256.006 188.061C255.964 188.144 255.867 188.498 255.715 189.123C255.59 189.581 255.485 189.97 255.402 190.29C255.055 191.706 254.861 192.435 254.819 192.476C254.791 192.504 254.756 192.518 254.715 192.518C254.576 192.518 254.382 192.379 254.132 192.102C253.882 191.824 253.722 191.609 253.653 191.456C253.653 191.442 253.639 191.442 253.611 191.456C253.583 191.47 253.542 191.504 253.486 191.56C252.459 192.518 251.07 192.997 249.321 192.997C247.641 192.997 246.28 192.463 245.239 191.393C244.197 190.324 243.67 188.957 243.656 187.29Z" fill="#132AF4" stroke="#132AF4" stroke-width="2"/>
<path d="M265.399 192.039C266.218 192.039 266.968 191.678 267.648 190.956C268.329 190.234 268.676 189.394 268.69 188.436C268.69 187.561 268.329 186.957 267.607 186.624C266.135 186.249 265.191 185.992 264.774 185.853C264.358 185.715 264.066 185.576 263.9 185.437C263.066 184.854 262.65 184.014 262.65 182.917C262.65 182.07 262.872 181.299 263.316 180.605C263.761 179.911 264.212 179.39 264.67 179.043C265.073 178.696 265.559 178.418 266.128 178.21C266.697 178.002 267.142 177.891 267.461 177.877H267.69H267.836C269.169 177.877 270.134 178.321 270.731 179.21C270.745 179.21 270.835 179.119 271.002 178.939C271.168 178.758 271.349 178.557 271.543 178.335C271.737 178.113 271.876 177.96 271.96 177.877C271.973 177.877 272.001 177.877 272.043 177.877C272.085 177.877 272.119 177.87 272.147 177.856C272.327 177.856 272.418 177.905 272.418 178.002C272.418 178.099 272.223 178.939 271.835 180.522C271.446 182.105 271.224 182.924 271.168 182.979C271.113 183.035 271.002 183.056 270.835 183.042C270.557 183.042 270.418 182.979 270.418 182.854C270.418 182.771 270.425 182.702 270.439 182.646C270.439 182.604 270.446 182.473 270.46 182.25C270.474 182.028 270.488 181.848 270.502 181.709C270.502 181.237 270.439 180.827 270.314 180.48C270.189 180.133 270.064 179.876 269.939 179.71C269.814 179.543 269.641 179.369 269.419 179.189C268.919 178.897 268.35 178.751 267.711 178.751C266.919 178.751 266.184 179.071 265.503 179.71C264.823 180.348 264.476 181.084 264.462 181.917C264.462 182.334 264.566 182.695 264.774 183C264.983 183.306 265.267 183.521 265.628 183.646C265.684 183.674 266.17 183.805 267.086 184.042C268.002 184.278 268.468 184.403 268.481 184.416C268.954 184.569 269.412 184.902 269.856 185.416C270.3 185.93 270.522 186.624 270.522 187.499C270.522 187.86 270.467 188.249 270.356 188.665C270.286 188.971 270.161 189.311 269.981 189.686C269.8 190.06 269.551 190.47 269.231 190.914C268.912 191.359 268.454 191.775 267.857 192.164C267.26 192.553 266.607 192.817 265.899 192.955C265.732 192.983 265.496 192.997 265.191 192.997C263.816 192.997 262.747 192.615 261.983 191.852L261.775 191.622L261.192 192.268C260.873 192.643 260.678 192.858 260.609 192.914C260.539 192.969 260.449 192.997 260.338 192.997C260.158 192.997 260.067 192.942 260.067 192.83C260.067 192.789 260.47 191.157 261.275 187.936C261.303 187.853 261.442 187.811 261.692 187.811H261.963C262.046 187.894 262.088 187.971 262.088 188.04C262.088 188.068 262.081 188.131 262.067 188.228C262.053 188.325 262.025 188.471 261.983 188.665C261.942 188.859 261.928 189.089 261.942 189.352C261.97 189.894 262.095 190.352 262.317 190.727C262.539 191.102 262.837 191.38 263.212 191.56C263.587 191.741 263.948 191.865 264.295 191.935C264.642 192.004 265.01 192.039 265.399 192.039Z" fill="#132AF4" stroke="#132AF4" stroke-width="2"/>
<path d="M274.688 183.604C274.313 183.604 274.014 183.479 273.792 183.229C273.57 182.98 273.459 182.674 273.459 182.313C273.459 181.327 273.827 180.473 274.563 179.751C275.299 179.029 276.215 178.668 277.312 178.668C278.576 178.668 279.631 179.057 280.478 179.835C281.325 180.612 281.755 181.619 281.769 182.855C281.769 183.452 281.63 184.021 281.353 184.562C281.075 185.104 280.742 185.576 280.353 185.979C279.964 186.381 279.409 186.895 278.687 187.52C278.187 187.95 277.493 188.589 276.604 189.436L275.375 190.602L276.958 190.623C279.138 190.623 280.297 190.588 280.436 190.519C280.533 190.491 280.7 189.873 280.936 188.665V188.603H281.769V188.665C281.755 188.707 281.665 189.339 281.498 190.561C281.332 191.782 281.228 192.421 281.186 192.477V192.539H273.459V192.143V191.893C273.459 191.796 273.501 191.692 273.584 191.581C273.667 191.47 273.876 191.227 274.209 190.852C274.612 190.408 274.959 190.019 275.25 189.686C275.375 189.547 275.611 189.29 275.958 188.915C276.305 188.54 276.541 188.283 276.666 188.145C276.791 188.006 276.993 187.777 277.27 187.457C277.548 187.138 277.743 186.902 277.854 186.749C277.965 186.596 278.124 186.388 278.333 186.124C278.541 185.861 278.687 185.638 278.77 185.458C278.853 185.277 278.957 185.076 279.082 184.854C279.207 184.632 279.298 184.41 279.353 184.187C279.409 183.965 279.457 183.757 279.499 183.563C279.541 183.368 279.561 183.139 279.561 182.875C279.561 182.001 279.325 181.244 278.853 180.605C278.381 179.967 277.708 179.647 276.833 179.647C276.375 179.647 275.972 179.765 275.625 180.001C275.278 180.237 275.035 180.466 274.896 180.689C274.757 180.911 274.688 181.043 274.688 181.084C274.688 181.098 274.723 181.105 274.792 181.105C275.042 181.105 275.299 181.202 275.563 181.397C275.826 181.591 275.958 181.91 275.958 182.355C275.958 182.702 275.847 182.993 275.625 183.229C275.403 183.465 275.091 183.59 274.688 183.604Z" fill="#132AF4" stroke="#132AF4" stroke-width="2"/>
<path d="M1.50079 53.0907C1.16693 53.0907 1 53.0023 1 52.8255C1 52.7863 1.02946 52.6488 1.08837 52.4131C1.18657 52.04 1.28476 51.8338 1.38296 51.7945C1.44187 51.7749 1.58916 51.765 1.82483 51.765H2.00158C3.1799 51.765 3.92617 51.6963 4.24039 51.5588C4.26003 51.5588 4.27967 51.549 4.29931 51.5294C4.3975 51.4901 4.50552 51.2643 4.62335 50.8518C4.74118 50.4394 5.22233 48.5148 6.0668 45.078C6.30246 44.1943 6.47921 43.4971 6.59704 42.9865C7.97176 37.4877 8.65911 34.7186 8.65911 34.6793C8.61984 34.6008 8.6002 34.5517 8.6002 34.532C8.40381 34.4142 7.70663 34.3553 6.50867 34.3553H5.91951C5.74276 34.2375 5.70348 33.992 5.80168 33.6188C5.88023 33.3243 5.93915 33.1475 5.97842 33.0886C6.0177 33.0297 6.15517 33.0002 6.39084 33.0002H6.50867C7.92266 33.0395 9.35629 33.0591 10.8096 33.0591C13.2055 33.0591 14.4624 33.0395 14.5802 33.0002H14.8748C15.0123 33.1377 15.081 33.2457 15.081 33.3243C15.081 33.4028 15.0515 33.5697 14.9926 33.825C14.9337 34.0803 14.865 34.2375 14.7864 34.2964C14.7275 34.3356 14.5016 34.3553 14.1089 34.3553C13.5001 34.3553 12.8716 34.3847 12.2235 34.4437C11.9486 34.5026 11.762 34.6106 11.6638 34.7677C11.5264 35.0426 11.0256 36.9181 10.1615 40.3942C9.94545 41.3172 9.72943 42.2108 9.5134 43.0749C8.13869 48.4952 7.45133 51.2643 7.45133 51.3821C7.45133 51.5196 7.54952 51.6079 7.74591 51.6472C7.9423 51.6865 8.45291 51.7258 9.27773 51.765H10.2204C10.3382 51.9222 10.3971 52.0105 10.3971 52.0302C10.3971 52.0498 10.3677 52.2266 10.3088 52.5604C10.2302 52.8157 10.132 53.0023 10.0142 53.1201H9.54286C8.81622 53.0808 7.47097 53.0612 5.50709 53.0612C4.8001 53.0612 4.15202 53.0612 3.56286 53.0612C2.97369 53.0612 2.50236 53.0612 2.14887 53.0612C1.79537 53.0612 1.57934 53.071 1.50079 53.0907Z" fill="#132AF4" stroke="#132AF4" stroke-width="2"/>
<path d="M20.1451 44.4598C20.1451 44.3626 19.7494 44.3001 18.958 44.2723C18.6387 44.2723 18.4304 44.2654 18.3332 44.2515C18.236 44.2376 18.1874 44.1751 18.1874 44.0641C18.1874 43.953 18.2152 43.8141 18.2707 43.6475C18.3263 43.4809 18.3748 43.3768 18.4165 43.3351C18.4443 43.3212 19.8258 43.3143 22.5611 43.3143C24.8798 43.3282 26.178 43.3351 26.4557 43.3351C26.7334 43.3351 27.0111 43.3768 27.2888 43.4601C28.2885 43.6961 29.1354 44.2446 29.8296 45.1054C30.5239 45.9662 30.8779 47.1187 30.8918 48.5627C30.8918 50.7287 30.149 52.6725 28.6633 54.3942C27.1777 56.1159 25.4282 57.1434 23.415 57.4766L23.1234 57.5182L19.083 57.5391H16.7712H15.6674C15.3341 57.5391 15.1189 57.5252 15.0217 57.4974C14.9245 57.4696 14.869 57.4072 14.8551 57.31C14.8551 57.2822 14.8759 57.185 14.9176 57.0184C14.9731 56.7962 15.0287 56.6713 15.0842 56.6435C15.1397 56.6157 15.2994 56.5949 15.5632 56.581C15.9381 56.581 16.3546 56.5602 16.8128 56.5185C17.0072 56.4769 17.1391 56.3936 17.2085 56.2686C17.2502 56.2131 17.75 54.2831 18.7081 50.4787C19.6661 46.6744 20.1451 44.668 20.1451 44.4598ZM28.8091 47.7712C28.8091 47.2436 28.7328 46.7716 28.58 46.355C28.4273 45.9385 28.2468 45.6122 28.0385 45.3762C27.8303 45.1401 27.5734 44.9388 27.2679 44.7722C26.9625 44.6056 26.6917 44.4945 26.4557 44.4389C26.2196 44.3834 25.9767 44.3348 25.7267 44.2932C25.699 44.2932 25.6018 44.2932 25.4352 44.2932C25.2686 44.2932 25.0672 44.2932 24.8312 44.2932C24.5951 44.2932 24.3661 44.2862 24.1439 44.2723H23.2483C22.6374 44.2723 22.2903 44.3418 22.207 44.4806C22.1792 44.5361 21.6724 46.5355 20.6866 50.4787C19.7008 54.422 19.2079 56.4144 19.2079 56.4561C19.2079 56.5116 19.2843 56.5394 19.437 56.5394C19.5898 56.5394 20.1243 56.5463 21.0407 56.5602C21.1101 56.5602 21.242 56.5602 21.4364 56.5602C21.6308 56.5602 21.7974 56.5671 21.9362 56.581C23.6857 56.581 25.1297 56.0118 26.2682 54.8732C26.7681 54.3734 27.1777 53.7902 27.497 53.1238C27.8164 52.4573 28.1149 51.5756 28.3926 50.4787C28.6703 49.3819 28.8091 48.4794 28.8091 47.7712Z" fill="#132AF4" stroke="#132AF4" stroke-width="2"/>
<path d="M606 153.032C606 152.6 606.128 152.256 606.383 152.001H606.707C607.532 152.059 608.563 152.089 609.8 152.089C612.117 152.089 613.482 152.059 613.895 152.001H614.189C614.307 152.118 614.366 152.207 614.366 152.266C614.366 152.325 614.346 152.501 614.307 152.796C614.209 153.091 614.121 153.277 614.042 153.356H613.423C612.991 153.395 612.697 153.415 612.54 153.415C611.97 153.513 611.656 153.66 611.597 153.856C611.597 153.896 611.882 156.36 612.451 161.25C613.021 166.14 613.315 168.605 613.335 168.644L615.486 165.198C616.919 162.9 618.353 160.583 619.786 158.246C621.22 155.909 621.956 154.701 621.996 154.622C622.074 154.485 622.114 154.338 622.114 154.18C622.114 153.709 621.682 153.434 620.817 153.356C620.464 153.356 620.287 153.248 620.287 153.032C620.287 153.012 620.307 152.884 620.346 152.649C620.405 152.374 620.464 152.197 620.523 152.118C620.582 152.04 620.709 152.001 620.906 152.001C620.945 152.001 621.063 152.001 621.259 152.001C621.456 152.001 621.79 152.01 622.261 152.03C622.732 152.05 623.361 152.059 624.146 152.059C625.501 152.059 626.356 152.04 626.709 152.001H626.915C627.053 152.138 627.121 152.246 627.121 152.325C627.121 152.658 627.033 152.973 626.856 153.267C626.797 153.326 626.631 153.356 626.356 153.356C626.1 153.375 625.865 153.395 625.649 153.415C625.433 153.434 625.226 153.483 625.03 153.562C624.834 153.64 624.676 153.709 624.559 153.768C624.441 153.827 624.323 153.906 624.205 154.004C624.087 154.102 623.989 154.171 623.911 154.21C623.832 154.249 623.753 154.338 623.675 154.475C623.596 154.613 623.528 154.681 623.469 154.681L617.783 163.813C614.248 169.528 612.422 172.454 612.304 172.592C612.245 172.631 612.176 172.68 612.098 172.739L611.568 172.769H611.361C611.008 172.769 610.831 172.7 610.831 172.562C610.772 172.445 610.389 169.302 609.682 163.136C608.936 156.891 608.553 153.739 608.533 153.68C608.435 153.464 607.826 153.356 606.707 153.356H606.206C606.069 153.257 606 153.149 606 153.032Z" fill="#132AF4" stroke="#132AF4" stroke-width="2"/>
<path d="M623.656 171.29C623.656 169.694 624.121 168.16 625.051 166.688C625.981 165.216 627.155 164.05 628.571 163.189C629.987 162.328 631.403 161.891 632.82 161.877C634.069 161.877 635.062 162.231 635.798 162.939C635.923 163.078 636.027 163.196 636.11 163.293C636.194 163.39 636.249 163.46 636.277 163.501L636.298 163.564C636.339 163.564 636.527 163.383 636.86 163.022C636.957 162.939 637.061 162.842 637.172 162.731C637.283 162.62 637.395 162.508 637.506 162.397C637.617 162.286 637.686 162.21 637.714 162.168L638.026 161.856H638.151C638.346 161.856 638.443 161.905 638.443 162.002C638.443 162.057 638.221 163.008 637.776 164.855C637.277 166.785 637.027 167.757 637.027 167.771C636.999 167.84 636.964 167.882 636.922 167.896C636.881 167.91 636.756 167.923 636.548 167.937H636.214C636.131 167.854 636.089 167.792 636.089 167.75C636.089 167.736 636.096 167.687 636.11 167.604C636.124 167.521 636.138 167.382 636.152 167.188C636.166 166.993 636.173 166.771 636.173 166.521C636.173 165.535 635.951 164.674 635.506 163.939C635.062 163.203 634.305 162.828 633.236 162.814C632.986 162.814 632.715 162.835 632.424 162.876C632.132 162.918 631.764 163.008 631.32 163.147C630.876 163.286 630.452 163.48 630.05 163.73C629.647 163.98 629.21 164.313 628.738 164.73C628.265 165.147 627.863 165.639 627.53 166.209C627.196 166.778 626.87 167.486 626.551 168.333C626.231 169.18 626.016 170.11 625.905 171.124C625.877 171.374 625.863 171.645 625.863 171.936C625.863 172.603 625.961 173.193 626.155 173.706C626.349 174.22 626.599 174.616 626.905 174.894C627.21 175.171 627.557 175.407 627.946 175.602C628.335 175.796 628.696 175.914 629.029 175.956C629.362 175.997 629.675 176.025 629.966 176.039C630.716 176.039 631.403 175.879 632.028 175.56C632.653 175.241 633.083 174.831 633.319 174.331C633.361 174.22 633.465 173.838 633.632 173.186C633.798 172.533 633.882 172.165 633.882 172.082C633.882 171.971 633.792 171.901 633.611 171.874C633.431 171.846 633.014 171.825 632.361 171.811H631.591C631.508 171.728 631.466 171.672 631.466 171.645C631.466 171.617 631.48 171.485 631.508 171.249C631.563 171.068 631.632 170.936 631.716 170.853H632.07C632.625 170.881 633.597 170.895 634.986 170.895C635.541 170.895 635.992 170.895 636.339 170.895C636.686 170.895 636.936 170.888 637.089 170.874C637.242 170.86 637.325 170.86 637.339 170.874C637.533 170.874 637.631 170.936 637.631 171.061C637.631 171.089 637.617 171.186 637.589 171.353C637.52 171.617 637.45 171.763 637.381 171.79C637.339 171.804 637.235 171.811 637.068 171.811C636.791 171.811 636.506 171.832 636.214 171.874C636.117 171.915 636.048 171.978 636.006 172.061C635.964 172.144 635.867 172.498 635.715 173.123C635.59 173.581 635.485 173.97 635.402 174.29C635.055 175.706 634.861 176.435 634.819 176.476C634.791 176.504 634.756 176.518 634.715 176.518C634.576 176.518 634.382 176.379 634.132 176.102C633.882 175.824 633.722 175.609 633.653 175.456C633.653 175.442 633.639 175.442 633.611 175.456C633.583 175.47 633.542 175.504 633.486 175.56C632.459 176.518 631.07 176.997 629.321 176.997C627.641 176.997 626.28 176.463 625.239 175.393C624.197 174.324 623.67 172.957 623.656 171.29Z" fill="#132AF4" stroke="#132AF4" stroke-width="2"/>
<path d="M645.399 176.039C646.218 176.039 646.968 175.678 647.648 174.956C648.329 174.234 648.676 173.394 648.69 172.436C648.69 171.561 648.329 170.957 647.607 170.624C646.135 170.249 645.191 169.992 644.774 169.853C644.358 169.715 644.066 169.576 643.9 169.437C643.066 168.854 642.65 168.014 642.65 166.917C642.65 166.07 642.872 165.299 643.316 164.605C643.761 163.911 644.212 163.39 644.67 163.043C645.073 162.696 645.559 162.418 646.128 162.21C646.697 162.002 647.142 161.891 647.461 161.877H647.69H647.836C649.169 161.877 650.134 162.321 650.731 163.21C650.745 163.21 650.835 163.119 651.002 162.939C651.168 162.758 651.349 162.557 651.543 162.335C651.737 162.113 651.876 161.96 651.96 161.877C651.973 161.877 652.001 161.877 652.043 161.877C652.085 161.877 652.119 161.87 652.147 161.856C652.327 161.856 652.418 161.905 652.418 162.002C652.418 162.099 652.223 162.939 651.835 164.522C651.446 166.105 651.224 166.924 651.168 166.979C651.113 167.035 651.002 167.056 650.835 167.042C650.557 167.042 650.418 166.979 650.418 166.854C650.418 166.771 650.425 166.702 650.439 166.646C650.439 166.604 650.446 166.473 650.46 166.25C650.474 166.028 650.488 165.848 650.502 165.709C650.502 165.237 650.439 164.827 650.314 164.48C650.189 164.133 650.064 163.876 649.939 163.71C649.814 163.543 649.641 163.369 649.419 163.189C648.919 162.897 648.35 162.751 647.711 162.751C646.919 162.751 646.184 163.071 645.503 163.71C644.823 164.348 644.476 165.084 644.462 165.917C644.462 166.334 644.566 166.695 644.774 167C644.983 167.306 645.267 167.521 645.628 167.646C645.684 167.674 646.17 167.805 647.086 168.042C648.002 168.278 648.468 168.403 648.481 168.416C648.954 168.569 649.412 168.902 649.856 169.416C650.3 169.93 650.522 170.624 650.522 171.499C650.522 171.86 650.467 172.249 650.356 172.665C650.286 172.971 650.161 173.311 649.981 173.686C649.8 174.06 649.551 174.47 649.231 174.914C648.912 175.359 648.454 175.775 647.857 176.164C647.26 176.553 646.607 176.817 645.899 176.955C645.732 176.983 645.496 176.997 645.191 176.997C643.816 176.997 642.747 176.615 641.983 175.852L641.775 175.622L641.192 176.268C640.873 176.643 640.678 176.858 640.609 176.914C640.539 176.969 640.449 176.997 640.338 176.997C640.158 176.997 640.067 176.942 640.067 176.83C640.067 176.789 640.47 175.157 641.275 171.936C641.303 171.853 641.442 171.811 641.692 171.811H641.963C642.046 171.894 642.088 171.971 642.088 172.04C642.088 172.068 642.081 172.131 642.067 172.228C642.053 172.325 642.025 172.471 641.983 172.665C641.942 172.859 641.928 173.089 641.942 173.352C641.97 173.894 642.095 174.352 642.317 174.727C642.539 175.102 642.837 175.38 643.212 175.56C643.587 175.741 643.948 175.865 644.295 175.935C644.642 176.004 645.01 176.039 645.399 176.039Z" fill="#132AF4" stroke="#132AF4" stroke-width="2"/>
<path d="M656.854 164.501L656.583 164.605C656.389 164.675 656.111 164.744 655.75 164.814C655.389 164.883 654.986 164.932 654.542 164.959H654.146V164.001H654.542C655.195 163.973 655.799 163.869 656.354 163.689C656.909 163.508 657.298 163.342 657.52 163.189C657.742 163.036 657.937 162.884 658.103 162.731C658.131 162.689 658.215 162.668 658.353 162.668C658.478 162.668 658.596 162.71 658.707 162.793V169.021L658.728 175.269C658.825 175.366 658.909 175.428 658.978 175.456C659.048 175.484 659.214 175.512 659.478 175.539C659.742 175.567 660.172 175.581 660.769 175.581H661.311V176.539H661.082C660.79 176.497 659.686 176.477 657.77 176.477C655.882 176.477 654.792 176.497 654.5 176.539H654.25V175.581H654.792C655.097 175.581 655.361 175.581 655.583 175.581C655.806 175.581 655.979 175.574 656.104 175.56C656.229 175.546 656.34 175.525 656.437 175.498C656.535 175.47 656.59 175.456 656.604 175.456C656.618 175.456 656.659 175.421 656.729 175.352C656.798 175.283 656.84 175.255 656.854 175.269V164.501Z" fill="#132AF4" stroke="#132AF4" stroke-width="2"/>
<path d="M606 110.032C606 109.6 606.128 109.256 606.383 109.001H606.707C607.532 109.059 608.563 109.089 609.8 109.089C612.117 109.089 613.482 109.059 613.895 109.001H614.189C614.307 109.118 614.366 109.207 614.366 109.266C614.366 109.325 614.346 109.501 614.307 109.796C614.209 110.091 614.121 110.277 614.042 110.356H613.423C612.991 110.395 612.697 110.415 612.54 110.415C611.97 110.513 611.656 110.66 611.597 110.856C611.597 110.896 611.882 113.36 612.451 118.25C613.021 123.14 613.315 125.605 613.335 125.644L615.486 122.198C616.919 119.9 618.353 117.583 619.786 115.246C621.22 112.909 621.956 111.701 621.996 111.622C622.074 111.485 622.114 111.338 622.114 111.18C622.114 110.709 621.682 110.434 620.817 110.356C620.464 110.356 620.287 110.248 620.287 110.032C620.287 110.012 620.307 109.884 620.346 109.649C620.405 109.374 620.464 109.197 620.523 109.118C620.582 109.04 620.709 109.001 620.906 109.001C620.945 109.001 621.063 109.001 621.259 109.001C621.456 109.001 621.79 109.01 622.261 109.03C622.732 109.05 623.361 109.059 624.146 109.059C625.501 109.059 626.356 109.04 626.709 109.001H626.915C627.053 109.138 627.121 109.246 627.121 109.325C627.121 109.658 627.033 109.973 626.856 110.267C626.797 110.326 626.631 110.356 626.356 110.356C626.1 110.375 625.865 110.395 625.649 110.415C625.433 110.434 625.226 110.483 625.03 110.562C624.834 110.64 624.676 110.709 624.559 110.768C624.441 110.827 624.323 110.906 624.205 111.004C624.087 111.102 623.989 111.171 623.911 111.21C623.832 111.249 623.753 111.338 623.675 111.475C623.596 111.613 623.528 111.681 623.469 111.681L617.783 120.813C614.248 126.528 612.422 129.454 612.304 129.592C612.245 129.631 612.176 129.68 612.098 129.739L611.568 129.769H611.361C611.008 129.769 610.831 129.7 610.831 129.562C610.772 129.445 610.389 126.302 609.682 120.136C608.936 113.891 608.553 110.739 608.533 110.68C608.435 110.464 607.826 110.356 606.707 110.356H606.206C606.069 110.257 606 110.149 606 110.032Z" fill="#132AF4" stroke="#132AF4" stroke-width="2"/>
<path d="M623.656 128.29C623.656 126.694 624.121 125.16 625.051 123.688C625.981 122.216 627.155 121.05 628.571 120.189C629.987 119.328 631.403 118.891 632.82 118.877C634.069 118.877 635.062 119.231 635.798 119.939C635.923 120.078 636.027 120.196 636.11 120.293C636.194 120.39 636.249 120.46 636.277 120.501L636.298 120.564C636.339 120.564 636.527 120.383 636.86 120.022C636.957 119.939 637.061 119.842 637.172 119.731C637.283 119.62 637.395 119.508 637.506 119.397C637.617 119.286 637.686 119.21 637.714 119.168L638.026 118.856H638.151C638.346 118.856 638.443 118.905 638.443 119.002C638.443 119.057 638.221 120.008 637.776 121.855C637.277 123.785 637.027 124.757 637.027 124.771C636.999 124.84 636.964 124.882 636.922 124.896C636.881 124.91 636.756 124.923 636.548 124.937H636.214C636.131 124.854 636.089 124.792 636.089 124.75C636.089 124.736 636.096 124.687 636.11 124.604C636.124 124.521 636.138 124.382 636.152 124.188C636.166 123.993 636.173 123.771 636.173 123.521C636.173 122.535 635.951 121.674 635.506 120.939C635.062 120.203 634.305 119.828 633.236 119.814C632.986 119.814 632.715 119.835 632.424 119.876C632.132 119.918 631.764 120.008 631.32 120.147C630.876 120.286 630.452 120.48 630.05 120.73C629.647 120.98 629.21 121.313 628.738 121.73C628.265 122.147 627.863 122.639 627.53 123.209C627.196 123.778 626.87 124.486 626.551 125.333C626.231 126.18 626.016 127.11 625.905 128.124C625.877 128.374 625.863 128.645 625.863 128.936C625.863 129.603 625.961 130.193 626.155 130.706C626.349 131.22 626.599 131.616 626.905 131.894C627.21 132.171 627.557 132.407 627.946 132.602C628.335 132.796 628.696 132.914 629.029 132.956C629.362 132.997 629.675 133.025 629.966 133.039C630.716 133.039 631.403 132.879 632.028 132.56C632.653 132.241 633.083 131.831 633.319 131.331C633.361 131.22 633.465 130.838 633.632 130.186C633.798 129.533 633.882 129.165 633.882 129.082C633.882 128.971 633.792 128.901 633.611 128.874C633.431 128.846 633.014 128.825 632.361 128.811H631.591C631.508 128.728 631.466 128.672 631.466 128.645C631.466 128.617 631.48 128.485 631.508 128.249C631.563 128.068 631.632 127.936 631.716 127.853H632.07C632.625 127.881 633.597 127.895 634.986 127.895C635.541 127.895 635.992 127.895 636.339 127.895C636.686 127.895 636.936 127.888 637.089 127.874C637.242 127.86 637.325 127.86 637.339 127.874C637.533 127.874 637.631 127.936 637.631 128.061C637.631 128.089 637.617 128.186 637.589 128.353C637.52 128.617 637.45 128.763 637.381 128.79C637.339 128.804 637.235 128.811 637.068 128.811C636.791 128.811 636.506 128.832 636.214 128.874C636.117 128.915 636.048 128.978 636.006 129.061C635.964 129.144 635.867 129.498 635.715 130.123C635.59 130.581 635.485 130.97 635.402 131.29C635.055 132.706 634.861 133.435 634.819 133.476C634.791 133.504 634.756 133.518 634.715 133.518C634.576 133.518 634.382 133.379 634.132 133.102C633.882 132.824 633.722 132.609 633.653 132.456C633.653 132.442 633.639 132.442 633.611 132.456C633.583 132.47 633.542 132.504 633.486 132.56C632.459 133.518 631.07 133.997 629.321 133.997C627.641 133.997 626.28 133.463 625.239 132.393C624.197 131.324 623.67 129.957 623.656 128.29Z" fill="#132AF4" stroke="#132AF4" stroke-width="2"/>
<path d="M645.399 133.039C646.218 133.039 646.968 132.678 647.648 131.956C648.329 131.234 648.676 130.394 648.69 129.436C648.69 128.561 648.329 127.957 647.607 127.624C646.135 127.249 645.191 126.992 644.774 126.853C644.358 126.715 644.066 126.576 643.9 126.437C643.066 125.854 642.65 125.014 642.65 123.917C642.65 123.07 642.872 122.299 643.316 121.605C643.761 120.911 644.212 120.39 644.67 120.043C645.073 119.696 645.559 119.418 646.128 119.21C646.697 119.002 647.142 118.891 647.461 118.877H647.69H647.836C649.169 118.877 650.134 119.321 650.731 120.21C650.745 120.21 650.835 120.119 651.002 119.939C651.168 119.758 651.349 119.557 651.543 119.335C651.737 119.113 651.876 118.96 651.96 118.877C651.973 118.877 652.001 118.877 652.043 118.877C652.085 118.877 652.119 118.87 652.147 118.856C652.327 118.856 652.418 118.905 652.418 119.002C652.418 119.099 652.223 119.939 651.835 121.522C651.446 123.105 651.224 123.924 651.168 123.979C651.113 124.035 651.002 124.056 650.835 124.042C650.557 124.042 650.418 123.979 650.418 123.854C650.418 123.771 650.425 123.702 650.439 123.646C650.439 123.604 650.446 123.473 650.46 123.25C650.474 123.028 650.488 122.848 650.502 122.709C650.502 122.237 650.439 121.827 650.314 121.48C650.189 121.133 650.064 120.876 649.939 120.71C649.814 120.543 649.641 120.369 649.419 120.189C648.919 119.897 648.35 119.751 647.711 119.751C646.919 119.751 646.184 120.071 645.503 120.71C644.823 121.348 644.476 122.084 644.462 122.917C644.462 123.334 644.566 123.695 644.774 124C644.983 124.306 645.267 124.521 645.628 124.646C645.684 124.674 646.17 124.805 647.086 125.042C648.002 125.278 648.468 125.403 648.481 125.416C648.954 125.569 649.412 125.902 649.856 126.416C650.3 126.93 650.522 127.624 650.522 128.499C650.522 128.86 650.467 129.249 650.356 129.665C650.286 129.971 650.161 130.311 649.981 130.686C649.8 131.06 649.551 131.47 649.231 131.914C648.912 132.359 648.454 132.775 647.857 133.164C647.26 133.553 646.607 133.817 645.899 133.955C645.732 133.983 645.496 133.997 645.191 133.997C643.816 133.997 642.747 133.615 641.983 132.852L641.775 132.622L641.192 133.268C640.873 133.643 640.678 133.858 640.609 133.914C640.539 133.969 640.449 133.997 640.338 133.997C640.158 133.997 640.067 133.942 640.067 133.83C640.067 133.789 640.47 132.157 641.275 128.936C641.303 128.853 641.442 128.811 641.692 128.811H641.963C642.046 128.894 642.088 128.971 642.088 129.04C642.088 129.068 642.081 129.131 642.067 129.228C642.053 129.325 642.025 129.471 641.983 129.665C641.942 129.859 641.928 130.089 641.942 130.352C641.97 130.894 642.095 131.352 642.317 131.727C642.539 132.102 642.837 132.38 643.212 132.56C643.587 132.741 643.948 132.865 644.295 132.935C644.642 133.004 645.01 133.039 645.399 133.039Z" fill="#132AF4" stroke="#132AF4" stroke-width="2"/>
<path d="M654.688 124.604C654.313 124.604 654.014 124.479 653.792 124.229C653.57 123.98 653.459 123.674 653.459 123.313C653.459 122.327 653.827 121.473 654.563 120.751C655.299 120.029 656.215 119.668 657.312 119.668C658.576 119.668 659.631 120.057 660.478 120.835C661.325 121.612 661.755 122.619 661.769 123.855C661.769 124.452 661.63 125.021 661.353 125.562C661.075 126.104 660.742 126.576 660.353 126.979C659.964 127.381 659.409 127.895 658.687 128.52C658.187 128.95 657.493 129.589 656.604 130.436L655.375 131.602L656.958 131.623C659.138 131.623 660.297 131.588 660.436 131.519C660.533 131.491 660.7 130.873 660.936 129.665V129.603H661.769V129.665C661.755 129.707 661.665 130.339 661.498 131.561C661.332 132.782 661.228 133.421 661.186 133.477V133.539H653.459V133.143V132.893C653.459 132.796 653.501 132.692 653.584 132.581C653.667 132.47 653.876 132.227 654.209 131.852C654.612 131.408 654.959 131.019 655.25 130.686C655.375 130.547 655.611 130.29 655.958 129.915C656.305 129.54 656.541 129.283 656.666 129.145C656.791 129.006 656.993 128.777 657.27 128.457C657.548 128.138 657.743 127.902 657.854 127.749C657.965 127.596 658.124 127.388 658.333 127.124C658.541 126.861 658.687 126.638 658.77 126.458C658.853 126.277 658.957 126.076 659.082 125.854C659.207 125.632 659.298 125.41 659.353 125.187C659.409 124.965 659.457 124.757 659.499 124.563C659.541 124.368 659.561 124.139 659.561 123.875C659.561 123.001 659.325 122.244 658.853 121.605C658.381 120.967 657.708 120.647 656.833 120.647C656.375 120.647 655.972 120.765 655.625 121.001C655.278 121.237 655.035 121.466 654.896 121.689C654.757 121.911 654.688 122.043 654.688 122.084C654.688 122.098 654.723 122.105 654.792 122.105C655.042 122.105 655.299 122.202 655.563 122.397C655.826 122.591 655.958 122.91 655.958 123.355C655.958 123.702 655.847 123.993 655.625 124.229C655.403 124.465 655.091 124.59 654.688 124.604Z" fill="#132AF4" stroke="#132AF4" stroke-width="2"/>
<path d="M305 44.031C305 43.5989 305.128 43.2552 305.383 42.9999H305.707C306.532 43.0588 307.563 43.0883 308.801 43.0883C311.118 43.0883 312.483 43.0588 312.896 42.9999H313.19C313.308 43.1177 313.367 43.2061 313.367 43.265C313.367 43.324 313.348 43.5007 313.308 43.7954C313.21 44.09 313.122 44.2766 313.043 44.3551H312.424C311.992 44.3944 311.698 44.4141 311.541 44.4141C310.971 44.5123 310.657 44.6596 310.598 44.856C310.598 44.8953 310.883 47.3602 311.452 52.2509C312.022 57.1416 312.316 59.6066 312.336 59.6458L314.487 56.1988C315.921 53.9008 317.354 51.5831 318.788 49.2458C320.222 46.9085 320.959 45.7006 320.998 45.622C321.076 45.4845 321.116 45.3372 321.116 45.1801C321.116 44.7087 320.684 44.4337 319.819 44.3551C319.466 44.3551 319.289 44.2471 319.289 44.031C319.289 44.0114 319.309 43.8837 319.348 43.648C319.407 43.3731 319.466 43.1963 319.525 43.1177C319.584 43.0392 319.711 42.9999 319.908 42.9999C319.947 42.9999 320.065 42.9999 320.261 42.9999C320.458 42.9999 320.792 43.0097 321.263 43.0293C321.734 43.049 322.363 43.0588 323.149 43.0588C324.504 43.0588 325.358 43.0392 325.712 42.9999H325.918C326.055 43.1374 326.124 43.2454 326.124 43.324C326.124 43.6579 326.036 43.9721 325.859 44.2667C325.8 44.3257 325.633 44.3551 325.358 44.3551C325.103 44.3748 324.867 44.3944 324.651 44.4141C324.435 44.4337 324.229 44.4828 324.032 44.5614C323.836 44.6399 323.679 44.7087 323.561 44.7676C323.443 44.8265 323.325 44.9051 323.207 45.0033C323.09 45.1015 322.991 45.1702 322.913 45.2095C322.834 45.2488 322.756 45.3372 322.677 45.4747C322.599 45.6122 322.53 45.6809 322.471 45.6809L316.785 54.8141C313.249 60.5297 311.423 63.4562 311.305 63.5937C311.246 63.633 311.177 63.6821 311.099 63.741L310.568 63.7705H310.362C310.009 63.7705 309.832 63.7018 309.832 63.5643C309.773 63.4464 309.39 60.3038 308.683 54.1365C307.936 47.8906 307.553 44.7381 307.534 44.6792C307.436 44.4632 306.827 44.3551 305.707 44.3551H305.206C305.069 44.2569 305 44.1489 305 44.031Z" fill="#132AF4" stroke="#132AF4" stroke-width="2"/>
<path d="M322.658 62.2927C322.658 60.6958 323.123 59.1613 324.053 57.6894C324.984 56.2174 326.157 55.051 327.573 54.19C328.99 53.3291 330.406 52.8916 331.823 52.8777C333.072 52.8777 334.065 53.2318 334.801 53.9401C334.926 54.0789 335.03 54.1969 335.114 54.2942C335.197 54.3914 335.253 54.4608 335.28 54.5024L335.301 54.5649C335.343 54.5649 335.53 54.3844 335.864 54.0234C335.961 53.9401 336.065 53.8428 336.176 53.7318C336.287 53.6207 336.398 53.5096 336.509 53.3985C336.62 53.2874 336.69 53.211 336.718 53.1694L337.03 52.8569H337.155C337.349 52.8569 337.447 52.9055 337.447 53.0027C337.447 53.0583 337.225 54.0095 336.78 55.8564C336.28 57.7866 336.03 58.7586 336.03 58.7725C336.003 58.8419 335.968 58.8836 335.926 58.8975C335.884 58.9114 335.76 58.9253 335.551 58.9391H335.218C335.135 58.8558 335.093 58.7933 335.093 58.7517C335.093 58.7378 335.1 58.6892 335.114 58.6059C335.128 58.5226 335.142 58.3837 335.155 58.1893C335.169 57.9949 335.176 57.7727 335.176 57.5227C335.176 56.5368 334.954 55.6758 334.51 54.9399C334.065 54.2039 333.309 53.829 332.239 53.8151C331.989 53.8151 331.719 53.8359 331.427 53.8776C331.135 53.9192 330.767 54.0095 330.323 54.1483C329.879 54.2872 329.455 54.4816 329.052 54.7316C328.65 54.9815 328.212 55.3148 327.74 55.7314C327.268 56.148 326.865 56.641 326.532 57.2103C326.199 57.7796 325.872 58.4878 325.553 59.3349C325.234 60.182 325.018 61.1124 324.907 62.1261C324.88 62.376 324.866 62.6468 324.866 62.9384C324.866 63.605 324.963 64.1951 325.157 64.7089C325.352 65.2227 325.602 65.6185 325.907 65.8962C326.213 66.1739 326.56 66.41 326.949 66.6044C327.337 66.7988 327.698 66.9169 328.032 66.9585C328.365 67.0002 328.677 67.028 328.969 67.0418C329.719 67.0418 330.406 66.8821 331.031 66.5628C331.656 66.2434 332.087 65.8337 332.323 65.3338C332.364 65.2227 332.468 64.8409 332.635 64.1882C332.802 63.5355 332.885 63.1675 332.885 63.0842C332.885 62.9731 332.795 62.9037 332.614 62.8759C332.434 62.8482 332.017 62.8273 331.364 62.8134H330.594C330.51 62.7301 330.469 62.6746 330.469 62.6468C330.469 62.619 330.483 62.4871 330.51 62.251C330.566 62.0705 330.635 61.9386 330.719 61.8553H331.073C331.628 61.8831 332.6 61.8969 333.989 61.8969C334.544 61.8969 334.996 61.8969 335.343 61.8969C335.69 61.8969 335.94 61.89 336.093 61.8761C336.246 61.8622 336.329 61.8622 336.343 61.8761C336.537 61.8761 336.634 61.9386 336.634 62.0636C336.634 62.0914 336.62 62.1886 336.593 62.3552C336.523 62.619 336.454 62.7648 336.384 62.7926C336.343 62.8065 336.239 62.8134 336.072 62.8134C335.794 62.8134 335.51 62.8343 335.218 62.8759C335.121 62.9176 335.051 62.9801 335.01 63.0634C334.968 63.1467 334.871 63.5008 334.718 64.1257C334.593 64.584 334.489 64.9728 334.406 65.2922C334.058 66.7086 333.864 67.4376 333.822 67.4793C333.795 67.507 333.76 67.5209 333.718 67.5209C333.579 67.5209 333.385 67.3821 333.135 67.1043C332.885 66.8266 332.725 66.6114 332.656 66.4586C332.656 66.4447 332.642 66.4447 332.614 66.4586C332.586 66.4725 332.545 66.5072 332.489 66.5628C331.462 67.5209 330.073 68 328.323 68C326.643 68 325.282 67.4654 324.241 66.3961C323.199 65.3269 322.672 63.9591 322.658 62.2927Z" fill="#132AF4" stroke="#132AF4" stroke-width="2"/>
<path d="M344.404 67.0418C345.223 67.0418 345.973 66.6808 346.653 65.9587C347.334 65.2366 347.681 64.3965 347.695 63.4383C347.695 62.5635 347.334 61.9594 346.612 61.6262C345.14 61.2512 344.195 60.9943 343.779 60.8555C343.362 60.7166 343.071 60.5777 342.904 60.4389C342.071 59.8556 341.654 59.0155 341.654 57.9185C341.654 57.0714 341.876 56.3007 342.321 55.6064C342.765 54.9121 343.216 54.3914 343.675 54.0442C344.077 53.697 344.563 53.4193 345.133 53.211C345.702 53.0027 346.146 52.8916 346.466 52.8777H346.695H346.841C348.174 52.8777 349.139 53.3221 349.736 54.2108C349.75 54.2108 349.84 54.1206 350.007 53.9401C350.173 53.7595 350.354 53.5582 350.548 53.336C350.743 53.1138 350.882 52.9611 350.965 52.8777C350.979 52.8777 351.007 52.8777 351.048 52.8777C351.09 52.8777 351.125 52.8708 351.152 52.8569C351.333 52.8569 351.423 52.9055 351.423 53.0027C351.423 53.0999 351.229 53.9401 350.84 55.5231C350.451 57.1061 350.229 57.9254 350.173 57.981C350.118 58.0365 350.007 58.0574 349.84 58.0435C349.562 58.0435 349.424 57.981 349.424 57.856C349.424 57.7727 349.431 57.7033 349.444 57.6477C349.444 57.6061 349.451 57.4741 349.465 57.252C349.479 57.0298 349.493 56.8492 349.507 56.7104C349.507 56.2382 349.444 55.8286 349.319 55.4814C349.194 55.1343 349.069 54.8774 348.944 54.7107C348.82 54.5441 348.646 54.3705 348.424 54.19C347.924 53.8984 347.355 53.7526 346.716 53.7526C345.924 53.7526 345.188 54.072 344.508 54.7107C343.827 55.3495 343.48 56.0855 343.466 56.9187C343.466 57.3353 343.57 57.6963 343.779 58.0018C343.987 58.3073 344.272 58.5226 344.633 58.6475C344.688 58.6753 345.174 58.8072 346.091 59.0433C347.007 59.2794 347.473 59.4043 347.486 59.4182C347.959 59.571 348.417 59.9042 348.861 60.418C349.306 60.9318 349.528 61.6262 349.528 62.501C349.528 62.862 349.472 63.2509 349.361 63.6675C349.292 63.973 349.167 64.3132 348.986 64.6881C348.806 65.063 348.556 65.4727 348.236 65.917C347.917 66.3614 347.459 66.778 346.862 67.1668C346.264 67.5556 345.612 67.8195 344.904 67.9583C344.737 67.9861 344.501 68 344.195 68C342.821 68 341.751 67.6181 340.988 66.8544L340.779 66.6252L340.196 67.271C339.877 67.6459 339.682 67.8611 339.613 67.9167C339.543 67.9722 339.453 68 339.342 68C339.162 68 339.071 67.9445 339.071 67.8334C339.071 67.7917 339.474 66.1601 340.279 62.9384C340.307 62.8551 340.446 62.8134 340.696 62.8134H340.967C341.05 62.8968 341.092 62.9731 341.092 63.0426C341.092 63.0703 341.085 63.1328 341.071 63.23C341.057 63.3272 341.029 63.473 340.988 63.6675C340.946 63.8619 340.932 64.091 340.946 64.3548C340.974 64.8964 341.099 65.3546 341.321 65.7296C341.543 66.1045 341.842 66.3822 342.217 66.5628C342.591 66.7433 342.953 66.8683 343.3 66.9377C343.647 67.0071 344.015 67.0418 344.404 67.0418Z" fill="#132AF4" stroke="#132AF4" stroke-width="2"/>
<path d="M354.069 57.8977C353.694 57.8977 353.402 57.7796 353.194 57.5436C352.986 57.3075 352.875 57.002 352.861 56.6271C352.861 55.8633 353.194 55.1829 353.861 54.5858C354.527 53.9887 355.333 53.6901 356.277 53.6901C356.763 53.6901 357.068 53.697 357.193 53.7109C358.221 53.8776 359.005 54.2456 359.547 54.8149C360.089 55.3842 360.366 56.0022 360.38 56.6687C360.38 57.3908 360.144 58.0921 359.672 58.7725C359.2 59.4529 358.547 59.9459 357.714 60.2514L357.652 60.2931C357.652 60.307 357.714 60.3278 357.839 60.3556C357.964 60.3833 358.165 60.4458 358.443 60.543C358.721 60.6402 358.985 60.786 359.235 60.9804C360.373 61.7164 360.943 62.6885 360.943 63.8966C360.943 64.9936 360.512 65.9518 359.651 66.7711C358.79 67.5904 357.7 68 356.381 68C355.27 68 354.312 67.7014 353.506 67.1043C352.701 66.5072 352.298 65.7504 352.298 64.8339C352.298 64.4451 352.423 64.1326 352.673 63.8966C352.923 63.6605 353.236 63.5355 353.611 63.5216C353.999 63.5216 354.319 63.6466 354.569 63.8966C354.819 64.1465 354.944 64.459 354.944 64.8339C354.944 64.9867 354.923 65.1255 354.881 65.2505C354.84 65.3755 354.791 65.4866 354.735 65.5838C354.68 65.681 354.603 65.7643 354.506 65.8337C354.409 65.9032 354.326 65.9587 354.256 66.0004C354.187 66.042 354.117 66.0698 354.048 66.0837C353.979 66.0976 353.923 66.1184 353.881 66.1462L353.798 66.167C354.506 66.7919 355.367 67.1043 356.381 67.1043C357.145 67.1043 357.721 66.7363 358.11 66.0004C358.346 65.5421 358.464 64.8409 358.464 63.8966V63.48C358.464 62.1608 358.02 61.279 357.131 60.8346C356.923 60.7513 356.499 60.7027 355.86 60.6888L354.985 60.668L354.923 60.6263C354.895 60.5847 354.881 60.4736 354.881 60.2931C354.881 60.0431 354.937 59.9181 355.048 59.9181C355.437 59.9181 355.839 59.8834 356.256 59.814C356.728 59.7446 357.159 59.4529 357.547 58.9391C357.936 58.4253 358.131 57.6477 358.131 56.6062V56.4396C358.131 55.6481 357.888 55.0996 357.402 54.7941C357.096 54.5997 356.77 54.5024 356.423 54.5024C355.978 54.5024 355.569 54.5788 355.194 54.7316C354.819 54.8843 354.555 55.044 354.402 55.2107C354.249 55.3773 354.173 55.4606 354.173 55.4606H354.235C354.277 55.4745 354.333 55.4884 354.402 55.5023C354.472 55.5162 354.541 55.5509 354.61 55.6064C354.68 55.662 354.763 55.7106 354.86 55.7522C354.958 55.7939 355.027 55.8703 355.069 55.9813C355.11 56.0924 355.166 56.1966 355.235 56.2938C355.305 56.391 355.326 56.5299 355.298 56.7104C355.298 57.0159 355.201 57.2867 355.006 57.5227C354.812 57.7588 354.499 57.8838 354.069 57.8977Z" fill="#132AF4" stroke="#132AF4" stroke-width="2"/>
<path d="M606 56.031C606 55.5989 606.128 55.2552 606.383 54.9999H606.707C607.532 55.0588 608.563 55.0883 609.801 55.0883C612.118 55.0883 613.483 55.0588 613.896 54.9999H614.19C614.308 55.1177 614.367 55.2061 614.367 55.265C614.367 55.324 614.348 55.5007 614.308 55.7954C614.21 56.09 614.122 56.2766 614.043 56.3551H613.424C612.992 56.3944 612.698 56.4141 612.541 56.4141C611.971 56.5123 611.657 56.6596 611.598 56.856C611.598 56.8953 611.883 59.3602 612.452 64.2509C613.022 69.1416 613.316 71.6066 613.336 71.6458L615.487 68.1988C616.921 65.9008 618.354 63.5831 619.788 61.2458C621.222 58.9085 621.959 57.7006 621.998 57.622C622.076 57.4845 622.116 57.3372 622.116 57.1801C622.116 56.7087 621.684 56.4337 620.819 56.3551C620.466 56.3551 620.289 56.2471 620.289 56.031C620.289 56.0114 620.309 55.8837 620.348 55.648C620.407 55.3731 620.466 55.1963 620.525 55.1177C620.584 55.0392 620.711 54.9999 620.908 54.9999C620.947 54.9999 621.065 54.9999 621.261 54.9999C621.458 54.9999 621.792 55.0097 622.263 55.0293C622.734 55.049 623.363 55.0588 624.149 55.0588C625.504 55.0588 626.358 55.0392 626.712 54.9999H626.918C627.055 55.1374 627.124 55.2454 627.124 55.324C627.124 55.6579 627.036 55.9721 626.859 56.2667C626.8 56.3257 626.633 56.3551 626.358 56.3551C626.103 56.3748 625.867 56.3944 625.651 56.4141C625.435 56.4337 625.229 56.4828 625.032 56.5614C624.836 56.6399 624.679 56.7087 624.561 56.7676C624.443 56.8265 624.325 56.9051 624.207 57.0033C624.09 57.1015 623.991 57.1702 623.913 57.2095C623.834 57.2488 623.756 57.3372 623.677 57.4747C623.599 57.6122 623.53 57.6809 623.471 57.6809L617.785 66.8141C614.249 72.5297 612.423 75.4562 612.305 75.5937C612.246 75.633 612.177 75.6821 612.099 75.741L611.568 75.7705H611.362C611.009 75.7705 610.832 75.7018 610.832 75.5643C610.773 75.4464 610.39 72.3038 609.683 66.1365C608.936 59.8906 608.553 56.7381 608.534 56.6792C608.436 56.4632 607.827 56.3551 606.707 56.3551H606.206C606.069 56.2569 606 56.1489 606 56.031Z" fill="#132AF4" stroke="#132AF4" stroke-width="2"/>
<path d="M623.658 74.2927C623.658 72.6958 624.123 71.1613 625.053 69.6894C625.984 68.2174 627.157 67.051 628.573 66.19C629.99 65.3291 631.406 64.8916 632.823 64.8777C634.072 64.8777 635.065 65.2318 635.801 65.9401C635.926 66.0789 636.03 66.1969 636.114 66.2942C636.197 66.3914 636.253 66.4608 636.28 66.5024L636.301 66.5649C636.343 66.5649 636.53 66.3844 636.864 66.0234C636.961 65.9401 637.065 65.8428 637.176 65.7318C637.287 65.6207 637.398 65.5096 637.509 65.3985C637.62 65.2874 637.69 65.211 637.718 65.1694L638.03 64.8569H638.155C638.349 64.8569 638.447 64.9055 638.447 65.0027C638.447 65.0583 638.225 66.0095 637.78 67.8564C637.28 69.7866 637.03 70.7586 637.03 70.7725C637.003 70.8419 636.968 70.8836 636.926 70.8975C636.884 70.9114 636.76 70.9253 636.551 70.9391H636.218C636.135 70.8558 636.093 70.7933 636.093 70.7517C636.093 70.7378 636.1 70.6892 636.114 70.6059C636.128 70.5226 636.142 70.3837 636.155 70.1893C636.169 69.9949 636.176 69.7727 636.176 69.5227C636.176 68.5368 635.954 67.6758 635.51 66.9399C635.065 66.2039 634.309 65.829 633.239 65.8151C632.989 65.8151 632.719 65.8359 632.427 65.8776C632.135 65.9192 631.767 66.0095 631.323 66.1483C630.879 66.2872 630.455 66.4816 630.052 66.7316C629.65 66.9815 629.212 67.3148 628.74 67.7314C628.268 68.148 627.865 68.641 627.532 69.2103C627.199 69.7796 626.872 70.4878 626.553 71.3349C626.234 72.182 626.018 73.1124 625.907 74.1261C625.88 74.376 625.866 74.6468 625.866 74.9384C625.866 75.605 625.963 76.1951 626.157 76.7089C626.352 77.2227 626.602 77.6185 626.907 77.8962C627.213 78.1739 627.56 78.41 627.949 78.6044C628.337 78.7988 628.698 78.9169 629.032 78.9585C629.365 79.0002 629.677 79.028 629.969 79.0418C630.719 79.0418 631.406 78.8821 632.031 78.5628C632.656 78.2434 633.087 77.8337 633.323 77.3338C633.364 77.2227 633.468 76.8409 633.635 76.1882C633.802 75.5355 633.885 75.1675 633.885 75.0842C633.885 74.9731 633.795 74.9037 633.614 74.8759C633.434 74.8482 633.017 74.8273 632.364 74.8134H631.594C631.51 74.7301 631.469 74.6746 631.469 74.6468C631.469 74.619 631.483 74.4871 631.51 74.251C631.566 74.0705 631.635 73.9386 631.719 73.8553H632.073C632.628 73.8831 633.6 73.8969 634.989 73.8969C635.544 73.8969 635.996 73.8969 636.343 73.8969C636.69 73.8969 636.94 73.89 637.093 73.8761C637.246 73.8622 637.329 73.8622 637.343 73.8761C637.537 73.8761 637.634 73.9386 637.634 74.0636C637.634 74.0914 637.62 74.1886 637.593 74.3552C637.523 74.619 637.454 74.7648 637.384 74.7926C637.343 74.8065 637.239 74.8134 637.072 74.8134C636.794 74.8134 636.51 74.8343 636.218 74.8759C636.121 74.9176 636.051 74.9801 636.01 75.0634C635.968 75.1467 635.871 75.5008 635.718 76.1257C635.593 76.584 635.489 76.9728 635.406 77.2922C635.058 78.7086 634.864 79.4376 634.822 79.4793C634.795 79.507 634.76 79.5209 634.718 79.5209C634.579 79.5209 634.385 79.3821 634.135 79.1043C633.885 78.8266 633.725 78.6114 633.656 78.4586C633.656 78.4447 633.642 78.4447 633.614 78.4586C633.586 78.4725 633.545 78.5072 633.489 78.5628C632.462 79.5209 631.073 80 629.323 80C627.643 80 626.282 79.4654 625.241 78.3961C624.199 77.3269 623.672 75.9591 623.658 74.2927Z" fill="#132AF4" stroke="#132AF4" stroke-width="2"/>
<path d="M645.404 79.0418C646.223 79.0418 646.973 78.6808 647.653 77.9587C648.334 77.2366 648.681 76.3965 648.695 75.4383C648.695 74.5635 648.334 73.9594 647.612 73.6262C646.14 73.2512 645.195 72.9943 644.779 72.8555C644.362 72.7166 644.071 72.5777 643.904 72.4389C643.071 71.8556 642.654 71.0155 642.654 69.9185C642.654 69.0714 642.876 68.3007 643.321 67.6064C643.765 66.9121 644.216 66.3914 644.675 66.0442C645.077 65.697 645.563 65.4193 646.133 65.211C646.702 65.0027 647.146 64.8916 647.466 64.8777H647.695H647.841C649.174 64.8777 650.139 65.3221 650.736 66.2108C650.75 66.2108 650.84 66.1206 651.007 65.9401C651.173 65.7595 651.354 65.5582 651.548 65.336C651.743 65.1138 651.882 64.9611 651.965 64.8777C651.979 64.8777 652.007 64.8777 652.048 64.8777C652.09 64.8777 652.125 64.8708 652.152 64.8569C652.333 64.8569 652.423 64.9055 652.423 65.0027C652.423 65.0999 652.229 65.9401 651.84 67.5231C651.451 69.1061 651.229 69.9254 651.173 69.981C651.118 70.0365 651.007 70.0574 650.84 70.0435C650.562 70.0435 650.424 69.981 650.424 69.856C650.424 69.7727 650.431 69.7033 650.444 69.6477C650.444 69.6061 650.451 69.4741 650.465 69.252C650.479 69.0298 650.493 68.8492 650.507 68.7104C650.507 68.2382 650.444 67.8286 650.319 67.4814C650.194 67.1343 650.069 66.8774 649.944 66.7107C649.82 66.5441 649.646 66.3705 649.424 66.19C648.924 65.8984 648.355 65.7526 647.716 65.7526C646.924 65.7526 646.188 66.072 645.508 66.7107C644.827 67.3495 644.48 68.0855 644.466 68.9187C644.466 69.3353 644.57 69.6963 644.779 70.0018C644.987 70.3073 645.272 70.5226 645.633 70.6475C645.688 70.6753 646.174 70.8072 647.091 71.0433C648.007 71.2794 648.473 71.4043 648.486 71.4182C648.959 71.571 649.417 71.9042 649.861 72.418C650.306 72.9318 650.528 73.6262 650.528 74.501C650.528 74.862 650.472 75.2509 650.361 75.6675C650.292 75.973 650.167 76.3132 649.986 76.6881C649.806 77.063 649.556 77.4727 649.236 77.917C648.917 78.3614 648.459 78.778 647.862 79.1668C647.264 79.5556 646.612 79.8195 645.904 79.9583C645.737 79.9861 645.501 80 645.195 80C643.821 80 642.751 79.6181 641.988 78.8544L641.779 78.6252L641.196 79.271C640.877 79.6459 640.682 79.8611 640.613 79.9167C640.543 79.9722 640.453 80 640.342 80C640.162 80 640.071 79.9445 640.071 79.8334C640.071 79.7917 640.474 78.1601 641.279 74.9384C641.307 74.8551 641.446 74.8134 641.696 74.8134H641.967C642.05 74.8968 642.092 74.9731 642.092 75.0426C642.092 75.0703 642.085 75.1328 642.071 75.23C642.057 75.3272 642.029 75.473 641.988 75.6675C641.946 75.8619 641.932 76.091 641.946 76.3548C641.974 76.8964 642.099 77.3546 642.321 77.7296C642.543 78.1045 642.842 78.3822 643.217 78.5628C643.591 78.7433 643.953 78.8683 644.3 78.9377C644.647 79.0071 645.015 79.0418 645.404 79.0418Z" fill="#132AF4" stroke="#132AF4" stroke-width="2"/>
<path d="M655.069 69.8977C654.694 69.8977 654.402 69.7796 654.194 69.5436C653.986 69.3075 653.875 69.002 653.861 68.6271C653.861 67.8633 654.194 67.1829 654.861 66.5858C655.527 65.9887 656.333 65.6901 657.277 65.6901C657.763 65.6901 658.068 65.697 658.193 65.7109C659.221 65.8776 660.005 66.2456 660.547 66.8149C661.089 67.3842 661.366 68.0022 661.38 68.6687C661.38 69.3908 661.144 70.0921 660.672 70.7725C660.2 71.4529 659.547 71.9459 658.714 72.2514L658.652 72.2931C658.652 72.307 658.714 72.3278 658.839 72.3556C658.964 72.3833 659.165 72.4458 659.443 72.543C659.721 72.6402 659.985 72.786 660.235 72.9804C661.373 73.7164 661.943 74.6885 661.943 75.8966C661.943 76.9936 661.512 77.9518 660.651 78.7711C659.79 79.5904 658.7 80 657.381 80C656.27 80 655.312 79.7014 654.506 79.1043C653.701 78.5072 653.298 77.7504 653.298 76.8339C653.298 76.4451 653.423 76.1326 653.673 75.8966C653.923 75.6605 654.236 75.5355 654.611 75.5216C654.999 75.5216 655.319 75.6466 655.569 75.8966C655.819 76.1465 655.944 76.459 655.944 76.8339C655.944 76.9867 655.923 77.1255 655.881 77.2505C655.84 77.3755 655.791 77.4866 655.735 77.5838C655.68 77.681 655.603 77.7643 655.506 77.8337C655.409 77.9032 655.326 77.9587 655.256 78.0004C655.187 78.042 655.117 78.0698 655.048 78.0837C654.979 78.0976 654.923 78.1184 654.881 78.1462L654.798 78.167C655.506 78.7919 656.367 79.1043 657.381 79.1043C658.145 79.1043 658.721 78.7363 659.11 78.0004C659.346 77.5421 659.464 76.8409 659.464 75.8966V75.48C659.464 74.1608 659.02 73.279 658.131 72.8346C657.923 72.7513 657.499 72.7027 656.86 72.6888L655.985 72.668L655.923 72.6263C655.895 72.5847 655.881 72.4736 655.881 72.2931C655.881 72.0431 655.937 71.9181 656.048 71.9181C656.437 71.9181 656.839 71.8834 657.256 71.814C657.728 71.7446 658.159 71.4529 658.547 70.9391C658.936 70.4253 659.131 69.6477 659.131 68.6062V68.4396C659.131 67.6481 658.888 67.0996 658.402 66.7941C658.096 66.5997 657.77 66.5024 657.423 66.5024C656.978 66.5024 656.569 66.5788 656.194 66.7316C655.819 66.8843 655.555 67.044 655.402 67.2107C655.249 67.3773 655.173 67.4606 655.173 67.4606H655.235C655.277 67.4745 655.333 67.4884 655.402 67.5023C655.472 67.5162 655.541 67.5509 655.61 67.6064C655.68 67.662 655.763 67.7106 655.86 67.7522C655.958 67.7939 656.027 67.8703 656.069 67.9813C656.11 68.0924 656.166 68.1966 656.235 68.2938C656.305 68.391 656.326 68.5299 656.298 68.7104C656.298 69.0159 656.201 69.2867 656.006 69.5227C655.812 69.7588 655.499 69.8838 655.069 69.8977Z" fill="#132AF4" stroke="#132AF4" stroke-width="2"/>
<path d="M302 324.031C302 323.599 302.128 323.255 302.383 323H302.707C303.532 323.059 304.563 323.088 305.801 323.088C308.118 323.088 309.483 323.059 309.896 323H310.19C310.308 323.118 310.367 323.206 310.367 323.265C310.367 323.324 310.348 323.501 310.308 323.795C310.21 324.09 310.122 324.277 310.043 324.355H309.424C308.992 324.394 308.698 324.414 308.541 324.414C307.971 324.512 307.657 324.66 307.598 324.856C307.598 324.895 307.883 327.36 308.452 332.251C309.022 337.142 309.316 339.607 309.336 339.646L311.487 336.199C312.921 333.901 314.354 331.583 315.788 329.246C317.222 326.908 317.959 325.701 317.998 325.622C318.076 325.484 318.116 325.337 318.116 325.18C318.116 324.709 317.684 324.434 316.819 324.355C316.466 324.355 316.289 324.247 316.289 324.031C316.289 324.011 316.309 323.884 316.348 323.648C316.407 323.373 316.466 323.196 316.525 323.118C316.584 323.039 316.711 323 316.908 323C316.947 323 317.065 323 317.261 323C317.458 323 317.792 323.01 318.263 323.029C318.734 323.049 319.363 323.059 320.149 323.059C321.504 323.059 322.358 323.039 322.712 323H322.918C323.055 323.137 323.124 323.245 323.124 323.324C323.124 323.658 323.036 323.972 322.859 324.267C322.8 324.326 322.633 324.355 322.358 324.355C322.103 324.375 321.867 324.394 321.651 324.414C321.435 324.434 321.229 324.483 321.032 324.561C320.836 324.64 320.679 324.709 320.561 324.768C320.443 324.827 320.325 324.905 320.207 325.003C320.09 325.101 319.991 325.17 319.913 325.21C319.834 325.249 319.756 325.337 319.677 325.475C319.599 325.612 319.53 325.681 319.471 325.681L313.785 334.814C310.249 340.53 308.423 343.456 308.305 343.594C308.246 343.633 308.177 343.682 308.099 343.741L307.568 343.771H307.362C307.009 343.771 306.832 343.702 306.832 343.564C306.773 343.446 306.39 340.304 305.683 334.136C304.936 327.891 304.553 324.738 304.534 324.679C304.436 324.463 303.827 324.355 302.707 324.355H302.206C302.069 324.257 302 324.149 302 324.031Z" fill="#132AF4" stroke="#132AF4" stroke-width="2"/>
<path d="M324.595 334.461C324.595 334.364 324.199 334.301 323.408 334.274C323.088 334.274 322.88 334.267 322.783 334.253C322.686 334.239 322.637 334.176 322.637 334.065C322.637 333.954 322.665 333.815 322.72 333.649C322.776 333.482 322.824 333.378 322.866 333.336C322.894 333.322 324.276 333.315 327.011 333.315C329.33 333.329 330.629 333.336 330.906 333.336C331.184 333.336 331.462 333.378 331.739 333.461C332.739 333.697 333.586 334.246 334.281 335.107C334.975 335.968 335.329 337.12 335.343 338.564C335.343 340.731 334.6 342.675 333.114 344.397C331.628 346.119 329.879 347.146 327.865 347.48L327.574 347.521L323.533 347.542H321.221H320.117C319.783 347.542 319.568 347.528 319.471 347.5C319.374 347.473 319.318 347.41 319.304 347.313C319.304 347.285 319.325 347.188 319.367 347.021C319.422 346.799 319.478 346.674 319.533 346.646C319.589 346.619 319.749 346.598 320.012 346.584C320.387 346.584 320.804 346.563 321.262 346.521C321.457 346.48 321.589 346.396 321.658 346.271C321.7 346.216 322.2 344.286 323.158 340.481C324.116 336.676 324.595 334.669 324.595 334.461ZM333.26 337.773C333.26 337.245 333.184 336.773 333.031 336.357C332.878 335.94 332.698 335.614 332.489 335.378C332.281 335.141 332.024 334.94 331.719 334.773C331.413 334.607 331.142 334.496 330.906 334.44C330.67 334.385 330.427 334.336 330.177 334.294C330.149 334.294 330.052 334.294 329.886 334.294C329.719 334.294 329.518 334.294 329.282 334.294C329.045 334.294 328.816 334.287 328.594 334.274H327.699C327.088 334.274 326.74 334.343 326.657 334.482C326.629 334.537 326.122 336.537 325.136 340.481C324.151 344.425 323.658 346.417 323.658 346.459C323.658 346.514 323.734 346.542 323.887 346.542C324.039 346.542 324.574 346.549 325.491 346.563C325.56 346.563 325.692 346.563 325.886 346.563C326.081 346.563 326.247 346.57 326.386 346.584C328.136 346.584 329.58 346.014 330.719 344.876C331.219 344.376 331.628 343.793 331.948 343.126C332.267 342.46 332.566 341.578 332.843 340.481C333.121 339.384 333.26 338.481 333.26 337.773Z" fill="#132AF4" stroke="#132AF4" stroke-width="2"/>
<path d="M342.279 347.042C343.098 347.042 343.848 346.681 344.529 345.959C345.209 345.237 345.556 344.396 345.57 343.438C345.57 342.563 345.209 341.959 344.487 341.626C343.015 341.251 342.071 340.994 341.654 340.855C341.238 340.717 340.946 340.578 340.779 340.439C339.946 339.856 339.53 339.016 339.53 337.918C339.53 337.071 339.752 336.301 340.196 335.606C340.641 334.912 341.092 334.391 341.55 334.044C341.953 333.697 342.439 333.419 343.008 333.211C343.578 333.003 344.022 332.892 344.341 332.878H344.57H344.716C346.049 332.878 347.014 333.322 347.612 334.211C347.625 334.211 347.716 334.121 347.882 333.94C348.049 333.76 348.229 333.558 348.424 333.336C348.618 333.114 348.757 332.961 348.84 332.878C348.854 332.878 348.882 332.878 348.924 332.878C348.965 332.878 349 332.871 349.028 332.857C349.208 332.857 349.299 332.906 349.299 333.003C349.299 333.1 349.104 333.94 348.715 335.523C348.327 337.106 348.104 337.925 348.049 337.981C347.993 338.037 347.882 338.057 347.716 338.043C347.438 338.043 347.299 337.981 347.299 337.856C347.299 337.773 347.306 337.703 347.32 337.648C347.32 337.606 347.327 337.474 347.341 337.252C347.355 337.03 347.368 336.849 347.382 336.71C347.382 336.238 347.32 335.829 347.195 335.481C347.07 335.134 346.945 334.877 346.82 334.711C346.695 334.544 346.521 334.371 346.299 334.19C345.799 333.898 345.23 333.753 344.591 333.753C343.8 333.753 343.064 334.072 342.383 334.711C341.703 335.35 341.356 336.085 341.342 336.919C341.342 337.335 341.446 337.696 341.654 338.002C341.863 338.307 342.147 338.523 342.508 338.648C342.564 338.675 343.05 338.807 343.966 339.043C344.883 339.279 345.348 339.404 345.362 339.418C345.834 339.571 346.292 339.904 346.737 340.418C347.181 340.932 347.403 341.626 347.403 342.501C347.403 342.862 347.348 343.251 347.237 343.667C347.167 343.973 347.042 344.313 346.862 344.688C346.681 345.063 346.431 345.473 346.112 345.917C345.792 346.361 345.334 346.778 344.737 347.167C344.14 347.556 343.487 347.819 342.779 347.958C342.612 347.986 342.376 348 342.071 348C340.696 348 339.627 347.618 338.863 346.854L338.655 346.625L338.072 347.271C337.752 347.646 337.558 347.861 337.488 347.917C337.419 347.972 337.329 348 337.218 348C337.037 348 336.947 347.944 336.947 347.833C336.947 347.792 337.349 346.16 338.155 342.938C338.183 342.855 338.322 342.813 338.571 342.813H338.842C338.926 342.897 338.967 342.973 338.967 343.043C338.967 343.07 338.96 343.133 338.946 343.23C338.933 343.327 338.905 343.473 338.863 343.667C338.821 343.862 338.808 344.091 338.821 344.355C338.849 344.896 338.974 345.355 339.196 345.73C339.419 346.105 339.717 346.382 340.092 346.563C340.467 346.743 340.828 346.868 341.175 346.938C341.522 347.007 341.89 347.042 342.279 347.042Z" fill="#132AF4" stroke="#132AF4" stroke-width="2"/>
</svg>
