<svg width="2908" height="1516" viewBox="0 0 2908 1516" fill="none" xmlns="http://www.w3.org/2000/svg">
<path d="M1499.5 44H1493V283.5" stroke="#132AF4" stroke-width="15"/>
<path d="M1493 656V611L1403 596L1583 566L1403 536L1583 506L1403 476L1583 446L1403 416L1583 386L1403 356L1583 326L1493 311V266" stroke="#132AF4" stroke-width="15"/>
<path d="M1493.37 197C1512.7 197 1528.37 212.67 1528.37 232C1528.37 251.33 1512.7 267 1493.37 267C1474.04 267 1458.37 251.33 1458.37 232C1458.37 212.67 1474.04 197 1493.37 197Z" fill="#132AF4"/>
<circle cx="1493" cy="690" r="35" transform="rotate(-90 1493 690)" fill="#132AF4"/>
<path d="M1487 44L1938 44" stroke="#132AF4" stroke-width="15"/>
<circle cx="1972" cy="44" r="27.5" transform="rotate(90 1972 44)" stroke="#132AF4" stroke-width="15"/>
<path d="M1493 672V874H1017" stroke="#132AF4" stroke-width="15"/>
<path d="M651 874H967" stroke="#132AF4" stroke-width="15"/>
<path d="M990 839C1009.33 839 1025 854.67 1025 874C1025 893.33 1009.33 909 990 909C970.67 909 955 893.33 955 874C955 854.67 970.67 839 990 839Z" fill="#132AF4"/>
<path d="M990 874L990 1325" stroke="#132AF4" stroke-width="15"/>
<circle cx="990" cy="1359" r="27.5" transform="rotate(-180 990 1359)" stroke="#132AF4" stroke-width="15"/>
<path d="M651 44H200" stroke="#132AF4" stroke-width="15"/>
<circle cx="166" cy="44" r="27.5" transform="rotate(-90 166 44)" stroke="#132AF4" stroke-width="15"/>
<path d="M1678.48 342.731C1676.06 342.731 1674.62 342.687 1674.17 342.597C1673.73 342.507 1673.5 342.015 1673.5 341.119C1673.5 338.7 1674 337.221 1674.98 336.684C1675.16 336.594 1682.96 336.549 1698.37 336.549C1713.78 336.639 1722.11 336.773 1723.36 336.952C1728.38 337.669 1732.59 338.924 1736 340.715C1739.4 342.507 1741.82 344.568 1743.25 346.898C1744.69 349.227 1745.63 351.153 1746.08 352.676C1746.52 354.2 1746.79 355.723 1746.88 357.246C1746.88 361.278 1745.58 365.041 1742.98 368.535C1740.39 372.029 1737.38 374.717 1733.98 376.598C1730.58 378.48 1727.57 380.003 1724.98 381.168C1722.38 382.333 1720.67 382.915 1719.87 382.915L1720.81 383.587C1726.81 386.992 1729.81 391.919 1729.81 398.37C1729.81 399.356 1729.59 402.088 1729.14 406.568C1728.69 411.048 1728.47 414.721 1728.47 417.588V418.798C1728.47 420.411 1728.51 421.665 1728.6 422.561C1728.69 423.457 1729.19 424.263 1730.08 424.98C1730.98 425.697 1732.14 426.1 1733.58 426.19C1736.09 426.19 1738.15 425.204 1739.76 423.233C1741.37 421.262 1742.54 419.156 1743.25 416.916C1743.7 415.662 1744.06 414.901 1744.33 414.632C1744.6 414.363 1745.27 414.229 1746.34 414.229C1748.14 414.229 1749.03 414.766 1749.03 415.841C1749.03 417.454 1747.96 420.007 1745.81 423.502C1742.4 428.609 1738.37 431.162 1733.71 431.162H1732.5C1727.04 431.162 1722.51 430.042 1718.93 427.802C1715.34 425.562 1713.37 422.068 1713.01 417.32C1713.01 414.901 1713.69 411.138 1715.03 406.031C1716.37 400.924 1717.05 397.653 1717.05 396.22C1717.05 391.651 1715.12 388.335 1711.27 386.275C1709.92 385.648 1708.8 385.289 1707.91 385.2C1707.01 385.11 1703.83 385.02 1698.37 384.931H1689.09L1684.79 402.402C1681.84 414.229 1680.36 420.231 1680.36 420.411C1680.36 420.769 1680.4 420.993 1680.49 421.083C1680.58 421.172 1680.89 421.351 1681.43 421.62C1681.97 421.889 1682.73 421.979 1683.72 421.889C1684.7 421.799 1686.18 421.889 1688.15 422.158H1692.32C1692.86 422.875 1693.12 423.278 1693.12 423.367C1693.12 423.457 1692.99 424.263 1692.72 425.786C1692.36 426.951 1691.91 427.802 1691.38 428.34H1689.36C1686.14 428.161 1680.27 428.071 1671.76 428.071C1668.71 428.071 1665.89 428.071 1663.29 428.071C1660.69 428.071 1658.63 428.071 1657.11 428.071C1655.58 428.071 1654.64 428.116 1654.28 428.205C1652.76 428.205 1652 427.802 1652 426.996C1652 426.817 1652.13 426.19 1652.4 425.114C1652.85 423.412 1653.3 422.471 1653.75 422.292C1654.11 422.203 1654.78 422.158 1655.76 422.158H1656.57C1658.99 422.158 1661.68 422.023 1664.63 421.755C1665.89 421.486 1666.74 420.948 1667.19 420.142C1667.46 419.783 1670.68 407.33 1676.86 382.781C1683.04 358.231 1686.14 345.285 1686.14 343.941C1686.14 343.314 1683.58 342.911 1678.48 342.731ZM1732.23 353.886C1732.23 351.019 1731.29 348.6 1729.41 346.629C1727.53 344.658 1723.68 343.403 1717.85 342.866C1717.67 342.866 1716.64 342.866 1714.76 342.866C1712.88 342.866 1711.18 342.821 1709.65 342.731H1706.7C1702.49 342.731 1700.07 343.179 1699.44 344.075C1699.35 344.344 1697.83 350.302 1694.87 361.95C1691.91 373.597 1690.44 379.555 1690.44 379.824C1690.44 379.914 1693.53 379.958 1699.71 379.958C1706.7 379.869 1711.36 379.555 1713.69 379.018C1719.42 378.122 1723.9 375.479 1727.13 371.088C1728.56 369.028 1729.77 366.34 1730.75 363.025C1731.74 359.71 1732.23 356.663 1732.23 353.886Z" fill="#132AF4" stroke="#132AF4" stroke-width="5"/>
<path d="M1781.28 388.881C1781.28 388.437 1779.47 388.152 1775.86 388.026C1774.4 388.026 1773.45 387.994 1773.01 387.931C1772.57 387.867 1772.35 387.582 1772.35 387.075C1772.35 386.569 1772.47 385.935 1772.73 385.175C1772.98 384.415 1773.2 383.94 1773.39 383.75C1773.52 383.687 1779.82 383.655 1792.3 383.655C1802.88 383.718 1808.8 383.75 1810.07 383.75C1811.33 383.75 1812.6 383.94 1813.87 384.32C1818.43 385.397 1822.29 387.899 1825.46 391.826C1828.63 395.754 1830.24 401.011 1830.3 407.599C1830.3 417.481 1826.92 426.349 1820.14 434.203C1813.36 442.058 1805.38 446.745 1796.19 448.266L1794.86 448.456L1776.43 448.551H1765.88H1760.85C1759.33 448.551 1758.35 448.487 1757.9 448.361C1757.46 448.234 1757.21 447.949 1757.14 447.506C1757.14 447.379 1757.24 446.936 1757.43 446.175C1757.68 445.162 1757.93 444.592 1758.19 444.465C1758.44 444.338 1759.17 444.243 1760.37 444.18C1762.08 444.18 1763.98 444.085 1766.07 443.895C1766.96 443.705 1767.56 443.325 1767.88 442.755C1768.07 442.501 1770.35 433.697 1774.72 416.34C1779.09 398.984 1781.28 389.831 1781.28 388.881ZM1820.8 403.988C1820.8 401.581 1820.45 399.428 1819.76 397.527C1819.06 395.627 1818.24 394.138 1817.29 393.061C1816.34 391.985 1815.17 391.066 1813.77 390.306C1812.38 389.546 1811.14 389.039 1810.07 388.786C1808.99 388.532 1807.88 388.311 1806.74 388.121C1806.61 388.121 1806.17 388.121 1805.41 388.121C1804.65 388.121 1803.73 388.121 1802.66 388.121C1801.58 388.121 1800.53 388.089 1799.52 388.026H1795.43C1792.65 388.026 1791.06 388.342 1790.68 388.976C1790.56 389.229 1788.24 398.351 1783.75 416.34C1779.25 434.33 1777 443.42 1777 443.61C1777 443.863 1777.35 443.99 1778.05 443.99C1778.74 443.99 1781.18 444.022 1785.36 444.085C1785.68 444.085 1786.28 444.085 1787.17 444.085C1788.05 444.085 1788.81 444.117 1789.45 444.18C1797.43 444.18 1804.02 441.583 1809.21 436.389C1811.49 434.108 1813.36 431.448 1814.82 428.407C1816.27 425.367 1817.64 421.345 1818.9 416.34C1820.17 411.336 1820.8 407.219 1820.8 403.988Z" fill="#132AF4" stroke="#132AF4" stroke-width="5"/>
<path d="M1861.94 446.252C1865.68 446.252 1869.1 444.605 1872.2 441.311C1875.31 438.018 1876.89 434.185 1876.95 429.815C1876.95 425.824 1875.31 423.068 1872.01 421.548C1865.3 419.838 1860.99 418.666 1859.09 418.033C1857.19 417.399 1855.86 416.766 1855.1 416.132C1851.3 413.472 1849.4 409.639 1849.4 404.635C1849.4 400.771 1850.41 397.256 1852.44 394.089C1854.47 390.921 1856.53 388.546 1858.62 386.962C1860.45 385.379 1862.67 384.112 1865.27 383.162C1867.86 382.211 1869.89 381.705 1871.35 381.641H1872.39H1873.06C1879.14 381.641 1883.54 383.668 1886.27 387.722C1886.33 387.722 1886.74 387.311 1887.5 386.487C1888.26 385.664 1889.08 384.745 1889.97 383.732C1890.86 382.718 1891.49 382.021 1891.87 381.641C1891.94 381.641 1892.06 381.641 1892.25 381.641C1892.44 381.641 1892.6 381.61 1892.73 381.546C1893.55 381.546 1893.96 381.768 1893.96 382.211C1893.96 382.655 1893.08 386.487 1891.3 393.708C1889.53 400.93 1888.51 404.667 1888.26 404.92C1888.01 405.174 1887.5 405.269 1886.74 405.205C1885.47 405.205 1884.84 404.92 1884.84 404.35C1884.84 403.97 1884.87 403.653 1884.94 403.4C1884.94 403.21 1884.97 402.608 1885.03 401.595C1885.09 400.581 1885.16 399.758 1885.22 399.124C1885.22 396.971 1884.94 395.102 1884.37 393.518C1883.8 391.935 1883.23 390.763 1882.66 390.003C1882.09 389.243 1881.29 388.451 1880.28 387.627C1878 386.297 1875.4 385.632 1872.49 385.632C1868.88 385.632 1865.52 387.089 1862.42 390.003C1859.31 392.917 1857.73 396.274 1857.67 400.075C1857.67 401.975 1858.14 403.622 1859.09 405.015C1860.04 406.409 1861.34 407.391 1862.99 407.961C1863.24 408.088 1865.46 408.689 1869.64 409.766C1873.82 410.843 1875.94 411.413 1876 411.476C1878.16 412.173 1880.25 413.693 1882.28 416.037C1884.3 418.381 1885.32 421.548 1885.32 425.539C1885.32 427.186 1885.06 428.959 1884.56 430.86C1884.24 432.253 1883.67 433.805 1882.85 435.515C1882.02 437.226 1880.88 439.094 1879.42 441.121C1877.97 443.148 1875.88 445.049 1873.15 446.822C1870.43 448.596 1867.45 449.8 1864.22 450.433C1863.46 450.56 1862.39 450.623 1860.99 450.623C1854.72 450.623 1849.84 448.881 1846.36 445.397L1845.41 444.352L1842.75 447.297C1841.29 449.008 1840.41 449.99 1840.09 450.243C1839.77 450.496 1839.36 450.623 1838.85 450.623C1838.03 450.623 1837.62 450.37 1837.62 449.863C1837.62 449.673 1839.45 442.23 1843.13 427.534C1843.26 427.154 1843.89 426.964 1845.03 426.964H1846.26C1846.64 427.344 1846.83 427.693 1846.83 428.009C1846.83 428.136 1846.8 428.421 1846.74 428.864C1846.68 429.308 1846.55 429.973 1846.36 430.86C1846.17 431.747 1846.11 432.792 1846.17 433.995C1846.3 436.466 1846.87 438.556 1847.88 440.266C1848.89 441.977 1850.26 443.243 1851.97 444.067C1853.68 444.89 1855.32 445.461 1856.91 445.777C1858.49 446.094 1860.17 446.252 1861.94 446.252Z" fill="#132AF4" stroke="#132AF4" stroke-width="5"/>
<path d="M1945.55 381.699C1945.55 380.534 1946.18 379.638 1947.44 379.011H2033.04C2034.39 379.728 2035.06 380.624 2035.06 381.699C2035.06 382.684 2034.43 383.536 2033.18 384.252L1990.44 384.387H1947.7C1946.27 383.939 1945.55 383.043 1945.55 381.699ZM1945.55 407.771C1945.55 406.427 1946.27 405.531 1947.7 405.083H2033.18C2034.43 405.979 2035.06 406.875 2035.06 407.771C2035.06 408.936 2034.39 409.832 2033.04 410.459H1947.44C1946.18 409.832 1945.55 408.936 1945.55 407.771Z" fill="#132AF4" stroke="#132AF4" stroke-width="5"/>
<path d="M2495.71 259.827L2493.96 260.499C2492.71 260.947 2490.92 261.394 2488.59 261.842C2486.26 262.29 2483.66 262.604 2480.79 262.783H2478.24V256.601H2480.79C2485 256.422 2488.9 255.75 2492.49 254.585C2496.07 253.42 2498.58 252.345 2500.01 251.36C2501.44 250.374 2502.7 249.389 2503.77 248.403C2503.95 248.134 2504.49 248 2505.39 248C2506.19 248 2506.95 248.269 2507.67 248.806V288.99L2507.81 329.308C2508.43 329.935 2508.97 330.338 2509.42 330.517C2509.87 330.697 2510.94 330.876 2512.64 331.055C2514.35 331.234 2517.12 331.324 2520.98 331.324H2524.47V337.506H2522.99C2521.11 337.237 2513.99 337.103 2501.62 337.103C2489.44 337.103 2482.41 337.237 2480.52 337.506H2478.91V331.324H2482.41C2484.38 331.324 2486.08 331.324 2487.51 331.324C2488.95 331.324 2490.07 331.279 2490.87 331.189C2491.68 331.1 2492.4 330.965 2493.02 330.786C2493.65 330.607 2494.01 330.517 2494.1 330.517C2494.19 330.517 2494.46 330.293 2494.9 329.845C2495.35 329.397 2495.62 329.218 2495.71 329.308V259.827Z" fill="#132AF4" stroke="#132AF4" stroke-width="5"/>
<path d="M2117.29 634.654C2116.04 634.654 2114.96 634.296 2114.06 633.579C2113.17 632.862 2112.68 631.877 2112.59 630.623C2112.59 629.727 2115.86 616.198 2122.4 590.036C2128.94 563.874 2132.39 550.524 2132.75 549.987C2133.91 547.478 2135.97 546.224 2138.93 546.224C2140 546.313 2140.9 546.627 2141.62 547.164C2142.33 547.702 2142.78 548.239 2142.96 548.777C2143.14 549.315 2143.23 549.763 2143.23 550.121C2143.23 551.196 2141.84 557.199 2139.06 568.13C2136.28 579.06 2134.81 585.198 2134.63 586.542C2134.45 587.527 2134.36 589.095 2134.36 591.245V592.32C2134.36 598.861 2137.36 602.131 2143.36 602.131C2144.17 602.131 2144.98 602.086 2145.78 601.997C2146.59 601.907 2147.35 601.728 2148.07 601.459C2148.78 601.19 2149.46 600.877 2150.08 600.518C2150.71 600.16 2151.29 599.846 2151.83 599.578C2152.37 599.309 2152.9 598.861 2153.44 598.234C2153.98 597.607 2154.47 597.159 2154.92 596.89C2155.37 596.621 2155.82 596.083 2156.26 595.277C2156.71 594.471 2157.07 593.978 2157.34 593.799C2157.61 593.62 2158.01 593.082 2158.55 592.186L2159.49 590.842L2164.33 571.624C2167.55 558.901 2169.35 552.137 2169.7 551.331C2170.87 548.911 2172.79 547.702 2175.48 547.702C2176.65 547.702 2177.59 548.016 2178.3 548.643C2179.02 549.27 2179.51 549.807 2179.78 550.255C2180.05 550.703 2180.14 551.151 2180.05 551.599L2169.84 594.336C2169.75 594.784 2169.7 595.501 2169.7 596.487C2169.7 598.727 2170.02 600.205 2170.64 600.922C2171.27 601.638 2172.21 602.042 2173.47 602.131C2174.27 602.042 2175.17 601.638 2176.15 600.922C2178.04 599.13 2179.87 594.829 2181.66 588.02C2182.2 586.228 2182.65 585.287 2183.01 585.198C2183.19 585.108 2183.64 585.063 2184.35 585.063H2184.89C2186.59 585.063 2187.44 585.466 2187.44 586.273C2187.44 586.81 2187.22 588.02 2186.77 589.901C2186.32 591.783 2185.43 594.202 2184.08 597.159C2182.74 600.115 2181.31 602.355 2179.78 603.878C2178.62 605.043 2177.18 605.984 2175.48 606.701C2174.77 606.88 2173.69 606.969 2172.26 606.969C2170.38 606.969 2168.67 606.701 2167.15 606.163C2165.63 605.625 2164.42 604.953 2163.52 604.147C2162.63 603.341 2161.86 602.534 2161.24 601.728C2160.61 600.922 2160.21 600.25 2160.03 599.712C2159.85 599.175 2159.76 598.861 2159.76 598.771L2158.95 599.578C2158.41 600.115 2157.61 600.787 2156.53 601.594C2155.46 602.4 2154.29 603.206 2153.04 604.013C2151.78 604.819 2150.17 605.536 2148.2 606.163C2146.23 606.79 2144.35 607.104 2142.56 607.104C2138.35 607.104 2134.18 606.073 2130.06 604.013L2126.83 617.049C2124.95 624.396 2123.83 628.651 2123.47 629.816C2123.11 630.981 2122.58 631.966 2121.86 632.773C2120.43 634.027 2118.9 634.654 2117.29 634.654Z" fill="#132AF4" stroke="#132AF4" stroke-width="5"/>
<path d="M2196.96 598.533C2197.03 598.153 2197.12 597.646 2197.25 597.013C2197.37 596.379 2197.75 595.176 2198.39 593.402C2199.02 591.628 2199.65 590.14 2200.29 588.936C2200.92 587.733 2201.97 586.561 2203.42 585.421C2204.88 584.28 2206.34 583.742 2207.79 583.805C2210.07 583.805 2211.97 584.376 2213.49 585.516C2215.02 586.656 2215.97 587.733 2216.35 588.746C2216.73 589.76 2216.92 590.425 2216.92 590.742C2216.92 590.868 2216.95 590.932 2217.01 590.932L2218.06 589.886C2221.92 585.832 2226.32 583.805 2231.26 583.805C2234.68 583.805 2237.44 584.661 2239.53 586.371C2241.62 588.081 2242.7 590.583 2242.76 593.877C2242.82 597.171 2241.62 602.143 2239.15 608.795C2236.68 615.446 2235.48 619.468 2235.54 620.862C2235.54 622.509 2236.08 623.332 2237.15 623.332C2237.53 623.332 2237.82 623.3 2238.01 623.237C2239.85 622.92 2241.49 621.717 2242.95 619.626C2244.41 617.536 2245.52 615.002 2246.28 612.025C2246.4 611.518 2247.04 611.265 2248.18 611.265C2249.44 611.265 2250.08 611.518 2250.08 612.025C2250.08 612.089 2249.95 612.564 2249.7 613.45C2249.19 615.287 2248.49 617.093 2247.61 618.866C2246.72 620.64 2245.26 622.414 2243.23 624.187C2241.21 625.961 2239.02 626.816 2236.68 626.753C2233.7 626.753 2231.55 625.897 2230.22 624.187C2228.89 622.477 2228.22 620.703 2228.22 618.866C2228.22 617.663 2229.36 613.862 2231.64 607.464C2233.92 601.067 2235.1 596.253 2235.16 593.022C2235.16 589.285 2233.77 587.416 2230.98 587.416H2230.5C2225.06 587.416 2220.46 590.615 2216.73 597.013L2216.06 598.153L2212.92 610.885C2210.83 619.183 2209.63 623.649 2209.31 624.282C2208.49 625.993 2207.13 626.848 2205.23 626.848C2204.41 626.848 2203.74 626.658 2203.23 626.278C2202.73 625.897 2202.38 625.517 2202.19 625.137C2202 624.757 2201.93 624.441 2202 624.187C2202 623.364 2203.2 618.201 2205.61 608.7C2208.02 599.198 2209.28 594.035 2209.41 593.212C2209.47 592.895 2209.5 592.167 2209.5 591.027C2209.5 588.556 2208.74 587.321 2207.22 587.321C2204.82 587.321 2202.82 590.488 2201.24 596.823C2200.86 598.089 2200.67 598.755 2200.67 598.818C2200.54 599.198 2199.94 599.388 2198.86 599.388H2197.53C2197.15 599.008 2196.96 598.723 2196.96 598.533Z" fill="#132AF4" stroke="#132AF4" stroke-width="5"/>
<path d="M2265.43 571.749C2265.43 561.445 2268.43 551.545 2274.43 542.048C2280.43 532.55 2288 525.024 2297.14 519.47C2306.28 513.915 2315.42 511.092 2324.56 511.003C2332.62 511.003 2339.03 513.287 2343.78 517.857C2344.58 518.753 2345.26 519.514 2345.79 520.142C2346.33 520.769 2346.69 521.217 2346.87 521.485L2347 521.889C2347.27 521.889 2348.48 520.724 2350.63 518.394C2351.26 517.857 2351.93 517.23 2352.65 516.513C2353.36 515.796 2354.08 515.079 2354.8 514.363C2355.51 513.646 2355.96 513.153 2356.14 512.884L2358.16 510.868H2358.96C2360.22 510.868 2360.84 511.182 2360.84 511.809C2360.84 512.168 2359.41 518.305 2356.54 530.221C2353.32 542.675 2351.71 548.946 2351.71 549.036C2351.53 549.484 2351.3 549.753 2351.03 549.842C2350.77 549.932 2349.96 550.022 2348.62 550.111H2346.46C2345.93 549.574 2345.66 549.17 2345.66 548.902C2345.66 548.812 2345.7 548.498 2345.79 547.961C2345.88 547.423 2345.97 546.527 2346.06 545.273C2346.15 544.019 2346.2 542.585 2346.2 540.972C2346.2 534.611 2344.76 529.056 2341.9 524.308C2339.03 519.559 2334.15 517.14 2327.25 517.05C2324.92 517.05 2322.41 517.364 2319.72 517.991C2317.03 518.618 2313.81 519.694 2310.04 521.217C2306.28 522.74 2302.56 525.248 2298.89 528.743C2295.22 532.237 2291.95 536.403 2289.08 541.241C2286.21 546.348 2283.93 552.306 2282.22 559.116C2280.52 565.925 2279.67 571.48 2279.67 575.78C2279.67 585.994 2283.08 593.341 2289.89 597.821C2294.19 600.867 2299.47 602.39 2305.74 602.39C2313.9 602.39 2321.15 599.344 2327.52 593.251C2333.88 587.159 2338.09 580.529 2340.15 573.361C2340.51 572.196 2340.78 571.525 2340.95 571.345C2341.13 571.166 2341.85 571.077 2343.11 571.077C2344.9 571.077 2345.79 571.48 2345.79 572.286C2345.79 572.734 2345.75 573.137 2345.66 573.496C2343.06 583.082 2337.51 591.325 2328.99 598.224C2320.48 605.123 2311.34 608.572 2301.58 608.572C2291.45 608.572 2282.9 605.212 2275.91 598.493C2268.92 591.773 2265.43 582.858 2265.43 571.749Z" fill="#132AF4" stroke="#132AF4" stroke-width="5"/>
<path d="M2378.33 626.816C2373.58 626.816 2369.75 625.264 2366.83 622.161C2363.92 619.057 2362.46 615.319 2362.46 610.949C2362.46 606.831 2363.41 602.936 2365.31 599.262C2367.21 595.588 2369.81 592.389 2373.1 589.665C2377.92 585.801 2382.83 583.869 2387.83 583.869C2389.86 583.869 2391.13 583.901 2391.63 583.964C2392.46 584.154 2393.28 584.376 2394.1 584.629C2394.93 584.883 2396.03 585.389 2397.43 586.15C2398.82 586.91 2399.96 587.86 2400.85 589C2401.74 590.14 2402.56 591.692 2403.32 593.656C2404.08 595.619 2404.46 597.837 2404.46 600.307C2404.46 607.085 2401.74 613.197 2396.29 618.645C2390.84 624.093 2384.85 626.816 2378.33 626.816ZM2370.73 614.369C2370.73 617.537 2371.55 619.817 2373.2 621.21C2374.85 622.604 2376.71 623.301 2378.81 623.301C2381.59 623.301 2384.22 622.287 2386.69 620.26C2389.16 618.233 2391.13 615.573 2392.58 612.279C2393.15 610.949 2393.88 608.605 2394.77 605.248C2395.65 601.891 2396.1 598.977 2396.1 596.506C2396.1 593.719 2395.53 591.597 2394.39 590.14C2392.87 588.24 2390.84 587.29 2388.31 587.29C2384.32 587.29 2380.8 589.127 2377.76 592.801C2375.42 595.588 2373.67 599.293 2372.53 603.918C2371.39 608.542 2370.79 612.026 2370.73 614.369Z" fill="#132AF4" stroke="#132AF4" stroke-width="5"/>
<path d="M2410.26 598.312C2410.7 595.651 2412.41 592.579 2415.39 589.095C2418.37 585.611 2422.04 583.837 2426.41 583.774C2428.63 583.774 2430.66 584.344 2432.49 585.484C2434.33 586.625 2435.69 588.05 2436.58 589.76C2439.24 585.769 2442.44 583.774 2446.17 583.774C2448.52 583.774 2450.55 584.471 2452.26 585.864C2453.97 587.258 2454.85 589.127 2454.92 591.47C2454.92 593.307 2454.47 594.796 2453.59 595.936C2452.7 597.076 2451.84 597.773 2451.02 598.027C2450.2 598.28 2449.47 598.407 2448.84 598.407C2447.63 598.407 2446.65 598.058 2445.89 597.361C2445.13 596.665 2444.75 595.746 2444.75 594.606C2444.75 591.692 2446.33 589.697 2449.5 588.62C2448.8 587.796 2447.54 587.385 2445.7 587.385C2444.88 587.385 2444.27 587.448 2443.89 587.575C2441.49 588.588 2439.71 590.679 2438.57 593.846C2434.77 607.845 2432.87 616.016 2432.87 618.36C2432.87 620.134 2433.38 621.4 2434.39 622.161C2435.41 622.921 2436.51 623.301 2437.72 623.301C2440.06 623.301 2442.37 622.256 2444.65 620.165C2446.93 618.075 2448.49 615.509 2449.31 612.469C2449.5 611.836 2449.69 611.487 2449.88 611.424C2450.07 611.36 2450.58 611.297 2451.4 611.234H2451.78C2452.73 611.234 2453.21 611.487 2453.21 611.994C2453.21 612.057 2453.14 612.406 2453.02 613.039C2452 616.65 2450.04 619.849 2447.12 622.636C2444.21 625.423 2440.82 626.816 2436.96 626.816C2432.52 626.816 2429.17 624.821 2426.89 620.83C2424.29 624.758 2421.31 626.721 2417.95 626.721H2417.38C2414.28 626.721 2412.06 625.898 2410.73 624.251C2409.4 622.604 2408.71 620.862 2408.64 619.025C2408.64 616.998 2409.25 615.351 2410.45 614.084C2411.65 612.817 2413.08 612.184 2414.72 612.184C2417.45 612.184 2418.81 613.514 2418.81 616.175C2418.81 617.441 2418.43 618.55 2417.67 619.5C2416.91 620.45 2416.18 621.084 2415.48 621.4C2414.79 621.717 2414.38 621.876 2414.25 621.876L2413.96 621.971C2413.96 622.034 2414.15 622.161 2414.53 622.351C2414.91 622.541 2415.42 622.762 2416.05 623.016C2416.69 623.269 2417.29 623.364 2417.86 623.301C2420.14 623.301 2422.1 621.876 2423.75 619.025C2424.32 618.012 2425.05 615.858 2425.94 612.564C2426.82 609.27 2427.71 605.85 2428.6 602.302C2429.48 598.755 2429.99 596.665 2430.12 596.031C2430.43 594.321 2430.59 593.086 2430.59 592.326C2430.59 590.552 2430.12 589.285 2429.17 588.525C2428.22 587.765 2427.14 587.385 2425.94 587.385C2423.4 587.385 2421.03 588.398 2418.81 590.425C2416.59 592.452 2415.04 595.049 2414.15 598.217C2414.03 598.787 2413.87 599.103 2413.68 599.167C2413.49 599.23 2412.98 599.293 2412.16 599.357H2410.83C2410.45 598.977 2410.26 598.628 2410.26 598.312Z" fill="#132AF4" stroke="#132AF4" stroke-width="5"/>
<path d="M2554.56 422.946C2555.81 422.946 2558.05 422.991 2561.28 423.081C2564.5 423.17 2567.5 423.26 2570.28 423.349C2574.85 423.349 2578.66 423.305 2581.71 423.215C2584.75 423.125 2586.5 423.081 2586.95 423.081C2588.56 423.081 2589.37 423.439 2589.37 424.156C2589.37 424.514 2589.23 425.186 2588.96 426.172C2588.51 427.784 2588.11 428.68 2587.75 428.859C2587.39 429.039 2586.41 429.128 2584.8 429.128C2582.56 429.218 2580.76 429.442 2579.42 429.8C2578.08 430.159 2577.14 430.517 2576.6 430.875C2576.06 431.234 2575.93 431.637 2576.2 432.085C2576.2 433.16 2576.91 443.822 2578.35 464.07C2579.78 484.319 2580.5 495.026 2580.5 496.19L2580.76 495.787C2580.94 495.518 2581.21 495.071 2581.57 494.443C2581.93 493.816 2582.47 492.965 2583.18 491.89C2583.9 490.815 2584.66 489.471 2585.47 487.858C2586.27 486.245 2587.35 484.409 2588.69 482.348C2590.04 480.287 2591.38 477.868 2592.73 475.091C2594.07 472.313 2595.82 469.312 2597.97 466.086C2607.28 449.601 2612.57 440.193 2613.83 437.864C2615.08 435.534 2615.75 434.101 2615.84 433.563C2615.84 432.219 2614.99 431.144 2613.29 430.338C2611.59 429.531 2609.7 429.128 2607.64 429.128C2606.39 429.128 2605.76 428.68 2605.76 427.784C2605.76 427.516 2605.85 426.933 2606.03 426.037C2606.39 424.604 2606.66 423.753 2606.84 423.484C2607.02 423.215 2607.64 423.081 2608.72 423.081C2608.99 423.081 2609.75 423.081 2611 423.081C2612.26 423.081 2614 423.081 2616.24 423.081C2618.48 423.081 2620.9 423.125 2623.5 423.215C2629.41 423.215 2633.22 423.125 2634.92 422.946C2636.18 422.946 2636.81 423.439 2636.81 424.424C2636.81 424.962 2636.67 425.724 2636.4 426.709C2636.13 427.695 2635.82 428.367 2635.46 428.725C2635.1 429.083 2634.66 429.218 2634.12 429.128C2632.15 429.128 2630.36 429.397 2628.74 429.935C2627.13 430.472 2625.79 431.099 2624.71 431.816C2623.64 432.533 2622.78 433.294 2622.16 434.101C2621.53 434.907 2620.99 435.624 2620.54 436.251L2620.01 437.057L2597.29 476.838C2582.24 503.358 2574.67 516.663 2574.58 516.753C2574.04 517.38 2572.97 517.693 2571.36 517.693C2570.01 517.693 2569.16 517.469 2568.8 517.021C2568.53 516.753 2567.68 505.732 2566.25 483.961C2564.82 462.189 2564.05 450.945 2563.97 450.228L2562.35 452.647C2560.38 455.962 2554.65 465.952 2545.15 482.617C2532.25 505.195 2525.71 516.573 2525.53 516.753C2525.35 516.932 2525.13 517.111 2524.86 517.29C2524.41 517.559 2523.6 517.693 2522.44 517.693C2520.74 517.693 2519.79 517.38 2519.62 516.753C2519.62 516.484 2518.63 502.193 2516.66 473.881C2514.69 445.569 2513.66 431.323 2513.57 431.144C2513.39 430.338 2512.94 429.845 2512.22 429.666C2511.51 429.487 2509.76 429.307 2506.98 429.128H2503.76C2503.13 428.501 2502.82 428.008 2502.82 427.65C2502.91 425.589 2503.49 424.021 2504.56 422.946H2506.18C2509.94 423.215 2514.42 423.349 2519.62 423.349C2530.81 423.349 2536.95 423.215 2538.03 422.946H2539.37C2539.91 423.484 2540.18 423.887 2540.18 424.156C2540.18 424.424 2540.09 425.231 2539.91 426.575C2539.46 427.919 2539.06 428.77 2538.7 429.128H2535.88C2530.41 429.397 2527.5 430.159 2527.14 431.413C2529.83 472.627 2531.35 494.309 2531.71 496.459L2563.29 440.82L2563.02 435.848C2562.76 432.085 2562.31 430.069 2561.68 429.8C2561.14 429.442 2559.26 429.218 2556.04 429.128C2554.33 429.128 2553.21 429.039 2552.68 428.859C2552.14 428.68 2551.87 428.277 2551.87 427.65C2551.87 427.471 2551.96 426.933 2552.14 426.037C2552.23 425.679 2552.32 425.276 2552.41 424.828C2552.5 424.38 2552.54 424.066 2552.54 423.887C2552.54 423.708 2552.68 423.529 2552.95 423.349C2553.21 423.17 2553.39 423.081 2553.48 423.081C2553.57 423.081 2553.93 423.036 2554.56 422.946Z" fill="#132AF4" stroke="#132AF4" stroke-width="5"/>
<path d="M2551.26 612.21C2548.22 612.21 2546.6 612.031 2546.43 611.673C2546.34 611.494 2546.29 611.135 2546.29 610.598C2546.29 608.447 2546.78 606.969 2547.77 606.163C2547.95 606.073 2548.62 606.028 2549.79 606.028C2554.62 606.297 2560.31 606.431 2566.85 606.431C2579.49 606.431 2586.74 606.297 2588.63 606.028H2590.24C2590.78 606.566 2591.04 606.969 2591.04 607.238C2591.04 607.507 2590.95 608.313 2590.78 609.657C2590.33 611.001 2589.92 611.852 2589.57 612.21H2584.46C2578.28 612.3 2574.65 612.703 2573.57 613.42C2572.95 613.778 2572.32 615.033 2571.69 617.183C2571.06 619.333 2568.06 631.16 2562.69 652.663C2561.25 658.486 2559.73 664.669 2558.12 671.209C2556.51 677.749 2555.3 682.677 2554.49 685.992L2553.28 690.83C2553.28 691.189 2553.68 691.368 2554.49 691.368C2555.3 691.368 2557.94 691.458 2562.42 691.637H2564.7C2567.57 691.637 2569.85 691.592 2571.56 691.502C2573.26 691.413 2575.45 691.099 2578.14 690.562C2580.83 690.024 2583.07 689.218 2584.86 688.143C2586.65 687.067 2588.63 685.544 2590.78 683.573C2592.93 681.602 2594.81 679.138 2596.42 676.182C2597.85 673.494 2599.2 670.492 2600.45 667.177C2601.71 663.862 2602.47 661.981 2602.74 661.533C2603.18 661.264 2603.95 661.13 2605.02 661.13H2606.77C2607.31 661.936 2607.57 662.429 2607.57 662.608C2607.57 662.787 2606.68 665.43 2604.89 670.537C2603.09 675.644 2601.12 681.02 2598.97 686.664C2596.82 692.309 2595.66 695.624 2595.48 696.609C2595.3 697.057 2595.12 697.326 2594.94 697.416C2594.76 697.505 2594.05 697.64 2592.79 697.819C2591.54 697.998 2589.61 698.043 2587.01 697.953C2586.03 697.953 2582.62 697.953 2576.8 697.953C2570.97 697.953 2565.42 697.908 2560.13 697.819H2536.21C2528.69 697.819 2524.92 697.371 2524.92 696.475C2524.92 695.848 2525.01 695.221 2525.19 694.593C2525.64 692.891 2526.09 691.95 2526.54 691.771C2526.89 691.682 2527.57 691.637 2528.55 691.637H2529.36C2531.78 691.637 2534.46 691.502 2537.42 691.234C2538.68 690.965 2539.53 690.427 2539.97 689.621C2540.24 689.262 2543.47 676.809 2549.65 652.26C2555.83 627.71 2558.92 614.764 2558.92 613.42C2558.92 612.793 2556.37 612.39 2551.26 612.21Z" fill="#132AF4" stroke="#132AF4" stroke-width="5"/>
<path d="M2650.25 576.076H2482.53V568.013H2650.25V576.076Z" fill="#132AF4" stroke="#132AF4" stroke-width="5"/>
<path d="M2673.37 518.541C2673.37 516.569 2673.95 515.002 2675.12 513.837H2676.59C2680.36 514.106 2685.06 514.24 2690.7 514.24C2701.28 514.24 2707.5 514.106 2709.39 513.837H2710.73C2711.27 514.374 2711.54 514.778 2711.54 515.046C2711.54 515.315 2711.45 516.121 2711.27 517.465C2710.82 518.809 2710.42 519.66 2710.06 520.019H2707.24C2705.26 520.198 2703.92 520.288 2703.2 520.288C2700.61 520.736 2699.17 521.408 2698.9 522.304C2698.9 522.483 2700.2 533.727 2702.8 556.036C2705.4 578.346 2706.74 589.59 2706.83 589.769L2716.64 574.045C2723.18 563.562 2729.72 552.99 2736.26 542.328C2742.8 531.666 2746.16 526.156 2746.34 525.798C2746.7 525.171 2746.88 524.499 2746.88 523.782C2746.88 521.632 2744.91 520.377 2740.97 520.019C2739.36 520.019 2738.55 519.526 2738.55 518.541C2738.55 518.451 2738.64 517.869 2738.82 516.793C2739.09 515.539 2739.36 514.733 2739.62 514.374C2739.89 514.016 2740.48 513.837 2741.37 513.837C2741.55 513.837 2742.09 513.837 2742.98 513.837C2743.88 513.837 2745.4 513.882 2747.55 513.971C2749.7 514.061 2752.57 514.106 2756.15 514.106C2762.34 514.106 2766.23 514.016 2767.85 513.837H2768.79C2769.41 514.464 2769.73 514.957 2769.73 515.315C2769.73 516.838 2769.32 518.272 2768.52 519.616C2768.25 519.884 2767.49 520.019 2766.23 520.019C2765.07 520.108 2763.99 520.198 2763.01 520.288C2762.02 520.377 2761.08 520.601 2760.19 520.96C2759.29 521.318 2758.57 521.632 2758.04 521.9C2757.5 522.169 2756.96 522.528 2756.42 522.976C2755.89 523.423 2755.44 523.737 2755.08 523.916C2754.72 524.095 2754.36 524.499 2754 525.126C2753.65 525.753 2753.33 526.067 2753.06 526.067L2727.13 567.728C2711 593.801 2702.67 607.15 2702.13 607.778C2701.86 607.957 2701.55 608.181 2701.19 608.45L2698.77 608.584H2697.83C2696.21 608.584 2695.41 608.27 2695.41 607.643C2695.14 607.106 2693.39 592.77 2690.17 564.637C2686.76 536.146 2685.02 521.766 2684.93 521.497C2684.48 520.512 2681.7 520.019 2676.59 520.019H2674.31C2673.68 519.571 2673.37 519.078 2673.37 518.541Z" fill="#132AF4" stroke="#132AF4" stroke-width="5"/>
<path d="M2753.91 601.88C2753.91 594.595 2756.04 587.596 2760.28 580.881C2764.52 574.167 2769.88 568.846 2776.34 564.918C2782.8 560.991 2789.26 558.996 2795.72 558.932C2801.42 558.932 2805.95 560.548 2809.31 563.778C2809.88 564.412 2810.35 564.95 2810.73 565.394C2811.11 565.837 2811.37 566.154 2811.49 566.344L2811.59 566.629C2811.78 566.629 2812.63 565.805 2814.15 564.158C2814.6 563.778 2815.07 563.335 2815.58 562.828C2816.09 562.321 2816.59 561.815 2817.1 561.308C2817.61 560.801 2817.92 560.453 2818.05 560.263L2819.48 558.837H2820.05C2820.93 558.837 2821.38 559.059 2821.38 559.503C2821.38 559.756 2820.36 564.095 2818.33 572.52C2816.05 581.325 2814.91 585.759 2814.91 585.822C2814.79 586.139 2814.63 586.329 2814.44 586.392C2814.25 586.455 2813.68 586.519 2812.73 586.582H2811.21C2810.83 586.202 2810.64 585.917 2810.64 585.727C2810.64 585.664 2810.67 585.442 2810.73 585.062C2810.8 584.682 2810.86 584.048 2810.92 583.162C2810.99 582.275 2811.02 581.261 2811.02 580.121C2811.02 575.624 2810.01 571.696 2807.98 568.339C2805.95 564.982 2802.5 563.271 2797.62 563.208C2796.48 563.208 2795.25 563.303 2793.92 563.493C2792.59 563.683 2790.91 564.095 2788.88 564.728C2786.85 565.362 2784.92 566.249 2783.08 567.389C2781.25 568.529 2779.25 570.049 2777.1 571.95C2774.94 573.85 2773.11 576.099 2771.59 578.696C2770.07 581.293 2768.58 584.523 2767.12 588.387C2765.66 592.251 2764.68 596.495 2764.18 601.12C2764.05 602.26 2763.99 603.495 2763.99 604.825C2763.99 607.866 2764.43 610.558 2765.32 612.902C2766.2 615.245 2767.34 617.051 2768.74 618.317C2770.13 619.584 2771.71 620.661 2773.49 621.548C2775.26 622.435 2776.91 622.973 2778.43 623.163C2779.95 623.353 2781.37 623.48 2782.7 623.543C2786.12 623.543 2789.26 622.815 2792.11 621.358C2794.96 619.901 2796.92 618.032 2798 615.752C2798.19 615.245 2798.67 613.503 2799.43 610.526C2800.19 607.549 2800.57 605.87 2800.57 605.49C2800.57 604.984 2800.16 604.667 2799.33 604.54C2798.51 604.413 2796.61 604.318 2793.63 604.255H2790.12C2789.74 603.875 2789.55 603.622 2789.55 603.495C2789.55 603.368 2789.61 602.766 2789.74 601.69C2789.99 600.866 2790.31 600.264 2790.69 599.884H2792.3C2794.83 600.011 2799.27 600.074 2805.6 600.074C2808.14 600.074 2810.2 600.074 2811.78 600.074C2813.36 600.074 2814.5 600.043 2815.2 599.979C2815.9 599.916 2816.28 599.916 2816.34 599.979C2817.23 599.979 2817.67 600.264 2817.67 600.834C2817.67 600.961 2817.61 601.405 2817.48 602.165C2817.16 603.368 2816.85 604.033 2816.53 604.16C2816.34 604.223 2815.86 604.255 2815.1 604.255C2813.84 604.255 2812.54 604.35 2811.21 604.54C2810.77 604.73 2810.45 605.015 2810.26 605.395C2810.07 605.775 2809.63 607.391 2808.93 610.241C2808.36 612.331 2807.88 614.105 2807.5 615.562C2805.92 622.023 2805.03 625.349 2804.84 625.539C2804.72 625.665 2804.56 625.729 2804.37 625.729C2803.73 625.729 2802.85 625.095 2801.71 623.828C2800.57 622.561 2799.84 621.58 2799.52 620.883C2799.52 620.82 2799.46 620.82 2799.33 620.883C2799.21 620.946 2799.02 621.105 2798.76 621.358C2794.07 625.729 2787.74 627.914 2779.76 627.914C2772.09 627.914 2765.89 625.475 2761.14 620.598C2756.38 615.72 2753.98 609.481 2753.91 601.88Z" fill="#132AF4" stroke="#132AF4" stroke-width="5"/>
<path d="M2853.11 623.543C2856.85 623.543 2860.27 621.896 2863.37 618.602C2866.48 615.309 2868.06 611.476 2868.12 607.106C2868.12 603.115 2866.48 600.359 2863.18 598.839C2856.47 597.129 2852.16 595.957 2850.26 595.324C2848.36 594.69 2847.03 594.057 2846.27 593.423C2842.47 590.763 2840.57 586.93 2840.57 581.926C2840.57 578.062 2841.58 574.547 2843.61 571.38C2845.64 568.212 2847.7 565.837 2849.79 564.253C2851.62 562.67 2853.84 561.403 2856.44 560.453C2859.03 559.503 2861.06 558.996 2862.52 558.932H2863.56H2864.23C2870.31 558.932 2874.71 560.959 2877.44 565.013C2877.5 565.013 2877.91 564.602 2878.67 563.778C2879.43 562.955 2880.25 562.036 2881.14 561.023C2882.03 560.009 2882.66 559.312 2883.04 558.932C2883.11 558.932 2883.23 558.932 2883.42 558.932C2883.61 558.932 2883.77 558.901 2883.9 558.837C2884.72 558.837 2885.13 559.059 2885.13 559.503C2885.13 559.946 2884.25 563.778 2882.47 570.999C2880.7 578.221 2879.68 581.958 2879.43 582.211C2879.18 582.465 2878.67 582.56 2877.91 582.496C2876.64 582.496 2876.01 582.211 2876.01 581.641C2876.01 581.261 2876.04 580.944 2876.11 580.691C2876.11 580.501 2876.14 579.899 2876.2 578.886C2876.26 577.872 2876.33 577.049 2876.39 576.415C2876.39 574.262 2876.11 572.393 2875.54 570.809C2874.97 569.226 2874.4 568.054 2873.83 567.294C2873.26 566.534 2872.46 565.742 2871.45 564.918C2869.17 563.588 2866.57 562.923 2863.66 562.923C2860.05 562.923 2856.69 564.38 2853.59 567.294C2850.48 570.208 2848.9 573.565 2848.84 577.366C2848.84 579.266 2849.31 580.913 2850.26 582.306C2851.21 583.7 2852.51 584.682 2854.16 585.252C2854.41 585.379 2856.63 585.98 2860.81 587.057C2864.99 588.134 2867.11 588.704 2867.17 588.767C2869.33 589.464 2871.42 590.984 2873.45 593.328C2875.47 595.672 2876.49 598.839 2876.49 602.83C2876.49 604.477 2876.23 606.25 2875.73 608.151C2875.41 609.544 2874.84 611.096 2874.02 612.807C2873.19 614.517 2872.05 616.385 2870.59 618.412C2869.14 620.439 2867.05 622.34 2864.32 624.113C2861.6 625.887 2858.62 627.091 2855.39 627.724C2854.63 627.851 2853.56 627.914 2852.16 627.914C2845.89 627.914 2841.01 626.172 2837.53 622.688L2836.58 621.643L2833.92 624.589C2832.46 626.299 2831.57 627.281 2831.26 627.534C2830.94 627.787 2830.53 627.914 2830.02 627.914C2829.2 627.914 2828.79 627.661 2828.79 627.154C2828.79 626.964 2830.62 619.521 2834.3 604.825C2834.43 604.445 2835.06 604.255 2836.2 604.255H2837.43C2837.81 604.635 2838 604.984 2838 605.3C2838 605.427 2837.97 605.712 2837.91 606.155C2837.85 606.599 2837.72 607.264 2837.53 608.151C2837.34 609.038 2837.28 610.083 2837.34 611.286C2837.47 613.757 2838.04 615.847 2839.05 617.557C2840.06 619.268 2841.42 620.534 2843.14 621.358C2844.85 622.181 2846.49 622.752 2848.08 623.068C2849.66 623.385 2851.34 623.543 2853.11 623.543Z" fill="#132AF4" stroke="#132AF4" stroke-width="5"/>
<path d="M2905.3 398.783H2096.05V390.72H2905.3V398.783Z" fill="#132AF4" stroke="#132AF4" stroke-width="5"/>
<path d="M3 53.5457C3 44.9911 5.49199 36.7712 10.476 28.8861C15.46 21.001 21.7457 14.7524 29.3333 10.1404C36.9209 5.52833 44.5084 3.18511 52.096 3.11072C58.7909 3.11072 64.1097 5.00761 68.0522 8.80139C68.7217 9.54527 69.2796 10.1776 69.7259 10.6983C70.1723 11.219 70.4698 11.5909 70.6186 11.8141L70.7302 12.1488C70.9533 12.1488 71.9576 11.1818 73.7429 9.24772C74.2636 8.80139 74.8215 8.28068 75.4166 7.68558C76.0117 7.09047 76.6068 6.49537 77.2019 5.90027C77.797 5.30516 78.169 4.89603 78.3177 4.67287L79.9915 2.99914H80.661C81.7024 2.99914 82.2231 3.2595 82.2231 3.78021C82.2231 4.07776 81.0329 9.17333 78.6525 19.0669C75.9745 29.4068 74.6355 34.614 74.6355 34.6884C74.4868 35.0603 74.3008 35.2835 74.0776 35.3579C73.8545 35.4323 73.185 35.5066 72.0692 35.581H70.2838C69.8375 35.1347 69.6144 34.8 69.6144 34.5768C69.6144 34.5024 69.6516 34.2421 69.7259 33.7957C69.8003 33.3494 69.8747 32.6055 69.9491 31.5641C70.0235 30.5227 70.0607 29.3325 70.0607 27.9935C70.0607 22.7119 68.8705 18.0999 66.4901 14.1573C64.1097 10.2148 60.0555 8.20629 54.3276 8.1319C52.9887 8.1319 51.5381 8.24348 49.976 8.46665C48.4138 8.68981 46.4425 9.17333 44.0621 9.91721C41.6817 10.6611 39.4129 11.7025 37.2556 13.0415C35.0984 14.3805 32.7552 16.1658 30.226 18.3974C27.6968 20.6291 25.5395 23.2698 23.7542 26.3197C21.9689 29.3696 20.2208 33.1634 18.5099 37.7011C16.799 42.2388 15.6459 47.2227 15.0508 52.6531C14.9021 53.992 14.8277 55.4426 14.8277 57.0048C14.8277 60.5754 15.3484 63.7369 16.3898 66.4892C17.4313 69.2416 18.7702 71.3616 20.4068 72.8494C22.0433 74.3371 23.903 75.6017 25.9859 76.6432C28.0687 77.6846 30.0028 78.3169 31.7881 78.54C33.5734 78.7632 35.2472 78.912 36.8093 78.9864C40.8262 78.9864 44.5084 78.1309 47.8559 76.42C51.2034 74.7091 53.5094 72.5146 54.774 69.8367C54.9971 69.2416 55.555 67.1959 56.4477 63.6997C57.3404 60.2034 57.7867 58.2322 57.7867 57.7858C57.7867 57.1907 57.3032 56.8188 56.3361 56.67C55.3691 56.5212 53.1374 56.4096 49.6412 56.3353H45.5127C45.0664 55.8889 44.8432 55.5914 44.8432 55.4426C44.8432 55.2938 44.9176 54.5871 45.0664 53.3226C45.3639 52.3555 45.7358 51.6488 46.1822 51.2025H48.0791C51.0546 51.3513 56.2617 51.4257 63.7005 51.4257C66.676 51.4257 69.0936 51.4257 70.9533 51.4257C72.813 51.4257 74.152 51.3885 74.9703 51.3141C75.7886 51.2397 76.2349 51.2397 76.3093 51.3141C77.3507 51.3141 77.8714 51.6488 77.8714 52.3183C77.8714 52.4671 77.797 52.9878 77.6483 53.8805C77.2763 55.2938 76.9044 56.0749 76.5324 56.2237C76.3093 56.2981 75.7514 56.3353 74.8587 56.3353C73.3709 56.3353 71.846 56.4468 70.2838 56.67C69.7631 56.8932 69.3912 57.2279 69.168 57.6742C68.9449 58.1206 68.4242 60.0175 67.6059 63.3649C66.9364 65.8197 66.3785 67.9026 65.9322 69.6135C64.0725 77.2011 63.031 81.1064 62.8079 81.3296C62.6591 81.4784 62.4731 81.5528 62.25 81.5528C61.5061 81.5528 60.4646 80.8089 59.1257 79.3211C57.7867 77.8334 56.9312 76.6804 56.5593 75.8621C56.5593 75.7877 56.4849 75.7877 56.3361 75.8621C56.1873 75.9365 55.9642 76.1224 55.6666 76.42C50.1619 81.5528 42.7231 84.1191 33.3503 84.1191C24.3493 84.1191 17.0593 81.2552 11.4802 75.5273C5.90113 69.7995 3.07439 62.4723 3 53.5457Z" fill="#132AF4" stroke="#132AF4" stroke-width="5"/>
<path d="M985.565 1507.99C989.954 1507.99 993.971 1506.05 997.616 1502.18C1001.26 1498.32 1003.12 1493.82 1003.19 1488.68C1003.19 1484 1001.26 1480.76 997.393 1478.98C989.508 1476.97 984.449 1475.59 982.217 1474.85C979.986 1474.1 978.424 1473.36 977.531 1472.61C973.068 1469.49 970.836 1464.99 970.836 1459.11C970.836 1454.58 972.026 1450.45 974.407 1446.73C976.787 1443.01 979.205 1440.22 981.66 1438.36C983.817 1436.5 986.42 1435.01 989.47 1433.9C992.52 1432.78 994.901 1432.19 996.612 1432.11H997.839H998.62C1005.76 1432.11 1010.93 1434.49 1014.13 1439.25C1014.2 1439.25 1014.69 1438.77 1015.58 1437.8C1016.47 1436.83 1017.44 1435.76 1018.48 1434.57C1019.52 1433.38 1020.27 1432.56 1020.71 1432.11C1020.79 1432.11 1020.94 1432.11 1021.16 1432.11C1021.38 1432.11 1021.57 1432.07 1021.72 1432C1022.68 1432 1023.17 1432.26 1023.17 1432.78C1023.17 1433.3 1022.13 1437.8 1020.04 1446.28C1017.96 1454.76 1016.77 1459.15 1016.47 1459.45C1016.18 1459.75 1015.58 1459.86 1014.69 1459.78C1013.2 1459.78 1012.46 1459.45 1012.46 1458.78C1012.46 1458.33 1012.49 1457.96 1012.57 1457.66C1012.57 1457.44 1012.6 1456.73 1012.68 1455.54C1012.75 1454.35 1012.83 1453.39 1012.9 1452.64C1012.9 1450.11 1012.57 1447.92 1011.9 1446.06C1011.23 1444.2 1010.56 1442.82 1009.89 1441.93C1009.22 1441.04 1008.29 1440.11 1007.1 1439.14C1004.42 1437.58 1001.37 1436.8 997.951 1436.8C993.71 1436.8 989.768 1438.51 986.123 1441.93C982.478 1445.35 980.618 1449.29 980.544 1453.76C980.544 1455.99 981.102 1457.92 982.217 1459.56C983.333 1461.2 984.858 1462.35 986.792 1463.02C987.09 1463.17 989.693 1463.87 994.603 1465.14C999.513 1466.4 1002 1467.07 1002.08 1467.15C1004.61 1467.97 1007.06 1469.75 1009.44 1472.5C1011.82 1475.26 1013.01 1478.98 1013.01 1483.66C1013.01 1485.6 1012.72 1487.68 1012.12 1489.91C1011.75 1491.55 1011.08 1493.37 1010.11 1495.38C1009.15 1497.39 1007.81 1499.58 1006.1 1501.96C1004.39 1504.34 1001.93 1506.57 998.732 1508.66C995.533 1510.74 992.037 1512.15 988.243 1512.9C987.35 1513.04 986.086 1513.12 984.449 1513.12C977.085 1513.12 971.357 1511.07 967.266 1506.98L966.15 1505.75L963.025 1509.21C961.314 1511.22 960.273 1512.38 959.901 1512.67C959.529 1512.97 959.046 1513.12 958.451 1513.12C957.484 1513.12 957 1512.82 957 1512.23C957 1512 959.157 1503.26 963.472 1486C963.621 1485.56 964.364 1485.34 965.703 1485.34H967.154C967.6 1485.78 967.823 1486.19 967.823 1486.56C967.823 1486.71 967.786 1487.05 967.712 1487.57C967.637 1488.09 967.489 1488.87 967.266 1489.91C967.042 1490.95 966.968 1492.18 967.042 1493.59C967.191 1496.49 967.861 1498.95 969.051 1500.96C970.241 1502.97 971.84 1504.45 973.849 1505.42C975.857 1506.39 977.791 1507.06 979.651 1507.43C981.511 1507.8 983.482 1507.99 985.565 1507.99Z" fill="#132AF4" stroke="#132AF4" stroke-width="5"/>
<path d="M2072.34 12.1375C2072.34 11.6168 2070.22 11.2821 2065.98 11.1333C2064.27 11.1333 2063.15 11.0961 2062.63 11.0217C2062.11 10.9473 2061.85 10.6126 2061.85 10.0175C2061.85 9.42238 2062 8.6785 2062.3 7.78585C2062.6 6.89319 2062.86 6.33528 2063.08 6.11212C2063.23 6.03773 2070.63 6.00054 2085.29 6.00054C2097.71 6.07492 2104.66 6.11212 2106.15 6.11212C2107.64 6.11212 2109.13 6.33528 2110.61 6.78161C2115.97 8.0462 2120.51 10.9845 2124.23 15.5966C2127.95 20.2086 2129.84 26.3828 2129.92 34.1192C2129.92 45.7237 2125.94 56.138 2117.98 65.3621C2110.02 74.5862 2100.65 80.0909 2089.86 81.8762L2088.3 82.0994L2066.65 82.2109H2054.27H2048.35C2046.57 82.2109 2045.41 82.1365 2044.89 81.9878C2044.37 81.839 2044.07 81.5043 2044 80.9835C2044 80.8348 2044.11 80.314 2044.33 79.4214C2044.63 78.2312 2044.93 77.5617 2045.23 77.4129C2045.52 77.2641 2046.38 77.1526 2047.79 77.0782C2049.8 77.0782 2052.03 76.9666 2054.49 76.7434C2055.53 76.5203 2056.24 76.0739 2056.61 75.4044C2056.83 75.1069 2059.51 64.767 2064.64 44.3847C2069.78 24.0024 2072.34 13.2534 2072.34 12.1375ZM2118.76 29.8791C2118.76 27.0523 2118.35 24.5231 2117.53 22.2915C2116.71 20.0598 2115.75 18.3117 2114.63 17.0471C2113.52 15.7825 2112.14 14.7039 2110.5 13.8113C2108.87 12.9186 2107.42 12.3235 2106.15 12.026C2104.89 11.7284 2103.58 11.468 2102.25 11.2449C2102.1 11.2449 2101.58 11.2449 2100.68 11.2449C2099.79 11.2449 2098.71 11.2449 2097.45 11.2449C2096.18 11.2449 2094.96 11.2077 2093.77 11.1333H2088.97C2085.69 11.1333 2083.83 11.5052 2083.39 12.2491C2083.24 12.5467 2080.52 23.2585 2075.24 44.3847C2069.96 65.5109 2067.32 76.1855 2067.32 76.4087C2067.32 76.7062 2067.73 76.855 2068.55 76.855C2069.37 76.855 2072.23 76.8922 2077.14 76.9666C2077.51 76.9666 2078.22 76.9666 2079.26 76.9666C2080.3 76.9666 2081.19 77.0038 2081.94 77.0782C2091.31 77.0782 2099.05 74.0283 2105.15 67.9285C2107.82 65.2505 2110.02 62.1262 2111.73 58.5556C2113.44 54.985 2115.04 50.2613 2116.53 44.3847C2118.02 38.508 2118.76 33.6728 2118.76 29.8791Z" fill="#132AF4" stroke="#132AF4" stroke-width="5"/>
<path d="M574 164.926C574 164.926 574 163.95 574 161.999C574 160.047 575.051 158.545 577.153 157.494H644.494V123.711L644.719 89.9282C646.22 87.9763 647.647 87.0003 648.998 87.0003C650.95 87.0003 652.452 88.1264 653.503 90.3786V157.494H720.618C722.87 158.695 723.996 160.197 723.996 161.999C723.996 163.8 722.87 165.302 720.618 166.503H653.503V233.618C652.301 235.72 650.95 236.771 649.449 236.771H648.998H648.548C646.746 236.771 645.395 235.72 644.494 233.618V166.503H577.153C575.051 165.452 574 163.95 574 161.999V164.926Z" fill="#132AF4" stroke="#132AF4" stroke-width="15"/>
<path d="M574 773.392C574 773.392 574 772.416 574 770.464C574 768.512 575.051 767.011 577.153 765.96H708.006C710.258 767.161 711.384 768.663 711.384 770.464C711.384 772.266 710.258 773.768 708.006 774.969H577.153C575.051 773.918 574 772.416 574 770.464V773.392Z" fill="#132AF4" stroke="#132AF4" stroke-width="15"/>
<path d="M476 349.736C476 346.494 476.958 343.916 478.873 342H481.305C487.493 342.442 495.229 342.663 504.512 342.663C521.899 342.663 532.14 342.442 535.234 342H537.445C538.329 342.884 538.771 343.547 538.771 343.989C538.771 344.432 538.623 345.758 538.329 347.968C537.592 350.178 536.929 351.578 536.34 352.167H531.698C528.456 352.462 526.246 352.609 525.067 352.609C520.794 353.346 518.437 354.451 517.995 355.925C517.995 356.219 520.131 374.712 524.404 411.402C528.677 448.092 530.888 466.584 531.035 466.879L547.17 441.019C557.926 423.779 568.683 406.392 579.439 388.857C590.196 371.323 595.721 362.261 596.016 361.671C596.605 360.64 596.9 359.535 596.9 358.356C596.9 354.82 593.658 352.757 587.175 352.167C584.523 352.167 583.197 351.357 583.197 349.736C583.197 349.589 583.344 348.631 583.639 346.863C584.081 344.8 584.523 343.474 584.965 342.884C585.407 342.295 586.365 342 587.838 342C588.133 342 589.017 342 590.49 342C591.964 342 594.469 342.074 598.005 342.221C601.542 342.369 606.257 342.442 612.151 342.442C622.318 342.442 628.728 342.295 631.38 342H632.927C633.959 343.032 634.474 343.842 634.474 344.432C634.474 346.936 633.811 349.294 632.485 351.504C632.043 351.946 630.79 352.167 628.728 352.167C626.812 352.315 625.044 352.462 623.423 352.609C621.802 352.757 620.255 353.125 618.782 353.715C617.308 354.304 616.129 354.82 615.245 355.262C614.361 355.704 613.477 356.293 612.593 357.03C611.709 357.767 610.972 358.282 610.383 358.577C609.793 358.872 609.204 359.535 608.614 360.566C608.025 361.598 607.509 362.113 607.067 362.113L564.41 430.631C537.887 473.51 524.183 495.465 523.299 496.496C522.857 496.791 522.341 497.159 521.752 497.601L517.774 497.822H516.226C513.574 497.822 512.248 497.307 512.248 496.275C511.806 495.391 508.933 471.815 503.628 425.547C498.029 378.69 495.155 355.041 495.008 354.599C494.271 352.978 489.703 352.167 481.305 352.167H477.547C476.516 351.431 476 350.62 476 349.736Z" fill="#132AF4" stroke="#132AF4" stroke-width="15"/>
<path d="M608.469 486.793C608.469 474.813 611.959 463.301 618.939 452.259C625.918 441.216 634.721 432.465 645.347 426.006C655.973 419.547 666.599 416.266 677.225 416.162C686.601 416.162 694.05 418.818 699.571 424.131C700.508 425.173 701.29 426.058 701.915 426.788C702.54 427.517 702.957 428.038 703.165 428.35L703.321 428.819C703.634 428.819 705.04 427.465 707.54 424.756C708.27 424.131 709.051 423.402 709.884 422.568C710.718 421.735 711.551 420.902 712.385 420.068C713.218 419.235 713.739 418.662 713.947 418.349L716.291 416.005H717.229C718.687 416.005 719.416 416.37 719.416 417.099C719.416 417.516 717.75 424.652 714.416 438.507C710.666 452.988 708.79 460.28 708.79 460.384C708.582 460.905 708.322 461.218 708.009 461.322C707.697 461.426 706.759 461.53 705.196 461.634H702.696C702.071 461.009 701.759 460.541 701.759 460.228C701.759 460.124 701.811 459.759 701.915 459.134C702.019 458.509 702.123 457.467 702.227 456.009C702.332 454.551 702.384 452.884 702.384 451.009C702.384 443.612 700.717 437.153 697.383 431.632C694.05 426.11 688.372 423.298 680.35 423.194C678.475 423.194 676.444 423.35 674.256 423.662C672.068 423.975 669.308 424.652 665.974 425.694C662.641 426.736 659.463 428.194 656.442 430.069C653.421 431.944 650.139 434.445 646.597 437.57C643.055 440.695 640.034 444.393 637.534 448.665C635.034 452.936 632.586 458.249 630.19 464.604C627.794 470.958 626.179 477.938 625.346 485.543C625.137 487.418 625.033 489.449 625.033 491.637C625.033 496.638 625.762 501.065 627.221 504.92C628.679 508.774 630.554 511.743 632.846 513.827C635.138 515.91 637.742 517.681 640.659 519.14C643.576 520.598 646.285 521.484 648.785 521.796C651.285 522.109 653.629 522.317 655.817 522.421C661.442 522.421 666.599 521.223 671.287 518.827C675.975 516.431 679.205 513.358 680.975 509.608C681.288 508.774 682.069 505.909 683.319 501.013C684.57 496.117 685.195 493.356 685.195 492.731C685.195 491.898 684.517 491.377 683.163 491.168C681.809 490.96 678.684 490.804 673.787 490.7H668.006C667.381 490.075 667.068 489.658 667.068 489.449C667.068 489.241 667.172 488.251 667.381 486.48C667.797 485.126 668.318 484.137 668.943 483.511H671.6C675.767 483.72 683.059 483.824 693.477 483.824C697.644 483.824 701.029 483.824 703.634 483.824C706.238 483.824 708.113 483.772 709.259 483.668C710.405 483.564 711.03 483.564 711.134 483.668C712.593 483.668 713.322 484.137 713.322 485.074C713.322 485.282 713.218 486.012 713.01 487.262C712.489 489.241 711.968 490.335 711.447 490.543C711.134 490.648 710.353 490.7 709.103 490.7C707.019 490.7 704.884 490.856 702.696 491.168C701.967 491.481 701.446 491.95 701.134 492.575C700.821 493.2 700.092 495.856 698.946 500.544C698.008 503.982 697.227 506.899 696.602 509.295C693.997 519.921 692.539 525.39 692.227 525.703C692.018 525.911 691.758 526.015 691.445 526.015C690.403 526.015 688.945 524.974 687.07 522.89C685.195 520.806 683.997 519.192 683.476 518.046C683.476 517.942 683.372 517.942 683.163 518.046C682.955 518.15 682.642 518.41 682.226 518.827C674.517 526.015 664.099 529.609 650.973 529.609C638.368 529.609 628.158 525.599 620.345 517.577C612.532 509.555 608.573 499.294 608.469 486.793Z" fill="#132AF4" stroke="#132AF4" stroke-width="15"/>
<path d="M771.609 522.421C777.755 522.421 783.381 519.713 788.485 514.295C793.59 508.878 796.194 502.576 796.299 495.388C796.299 488.824 793.59 484.293 788.173 481.793C777.13 478.98 770.046 477.053 766.921 476.011C763.796 474.969 761.608 473.927 760.358 472.886C754.107 468.51 750.982 462.207 750.982 453.978C750.982 447.623 752.649 441.841 755.982 436.632C759.316 431.423 762.702 427.517 766.14 424.912C769.161 422.308 772.807 420.224 777.078 418.662C781.349 417.099 784.683 416.266 787.079 416.162H788.798H789.892C799.893 416.162 807.133 419.495 811.612 426.163C811.717 426.163 812.394 425.485 813.644 424.131C814.894 422.777 816.248 421.266 817.707 419.599C819.165 417.933 820.207 416.787 820.832 416.162C820.936 416.162 821.144 416.162 821.457 416.162C821.77 416.162 822.03 416.11 822.238 416.005C823.593 416.005 824.27 416.37 824.27 417.099C824.27 417.828 822.811 424.131 819.894 436.007C816.977 447.883 815.311 454.03 814.894 454.446C814.477 454.863 813.644 455.019 812.394 454.915C810.31 454.915 809.268 454.446 809.268 453.509C809.268 452.884 809.321 452.363 809.425 451.946C809.425 451.634 809.477 450.644 809.581 448.977C809.685 447.31 809.789 445.956 809.893 444.914C809.893 441.372 809.425 438.299 808.487 435.695C807.55 433.09 806.612 431.163 805.674 429.913C804.737 428.663 803.435 427.361 801.768 426.006C798.017 423.819 793.746 422.725 788.954 422.725C783.016 422.725 777.495 425.121 772.39 429.913C767.285 434.705 764.681 440.226 764.577 446.477C764.577 449.602 765.358 452.311 766.921 454.603C768.484 456.894 770.619 458.509 773.328 459.447C773.744 459.655 777.391 460.645 784.266 462.416C791.142 464.187 794.632 465.124 794.736 465.229C798.278 466.374 801.716 468.875 805.049 472.729C808.383 476.584 810.05 481.793 810.05 488.356C810.05 491.064 809.633 493.981 808.8 497.106C808.279 499.398 807.341 501.951 805.987 504.763C804.633 507.576 802.757 510.649 800.361 513.983C797.965 517.317 794.528 520.442 790.048 523.359C785.568 526.276 780.672 528.255 775.359 529.297C774.109 529.505 772.338 529.609 770.046 529.609C759.733 529.609 751.711 526.745 745.982 521.015L744.419 519.296L740.043 524.14C737.647 526.953 736.189 528.568 735.668 528.984C735.147 529.401 734.47 529.609 733.637 529.609C732.282 529.609 731.605 529.193 731.605 528.359C731.605 528.047 734.626 515.806 740.669 491.637C740.877 491.012 741.919 490.7 743.794 490.7H745.825C746.45 491.325 746.763 491.898 746.763 492.419C746.763 492.627 746.711 493.096 746.607 493.825C746.502 494.554 746.294 495.648 745.982 497.106C745.669 498.565 745.565 500.284 745.669 502.263C745.877 506.326 746.815 509.764 748.482 512.577C750.149 515.389 752.388 517.473 755.201 518.827C758.014 520.181 760.722 521.119 763.327 521.64C765.931 522.161 768.692 522.421 771.609 522.421Z" fill="#132AF4" stroke="#132AF4" stroke-width="15"/>
</svg>
