<svg width="1427" height="1503" viewBox="0 0 1427 1503" fill="none" xmlns="http://www.w3.org/2000/svg">
<rect x="360" y="537" width="67" height="778" fill="url(#paint0_linear_147_231)"/>
<path d="M750 152H817L427 537H360L750 152Z" fill="url(#paint1_linear_147_231)"/>
<rect x="602.777" y="537" width="67" height="778" fill="url(#paint2_linear_147_231)"/>
<path d="M992.777 152H1059.78L669.777 537H602.777L992.777 152Z" fill="url(#paint3_linear_147_231)"/>
<rect x="426.777" y="537" width="176" height="778" fill="url(#paint4_linear_147_231)"/>
<path d="M816.777 152H992.777L602.777 537H426.777L816.777 152Z" fill="url(#paint5_linear_147_231)"/>
<path d="M669.777 537L1059.78 152V930L669.777 1315V537Z" fill="url(#paint6_linear_147_231)"/>
<path d="M669.777 537L1059.78 152V930L669.777 1315V537Z" fill="url(#paint7_linear_147_231)"/>
<path d="M359.777 537L749.777 152H816.777M359.777 537H426.777M359.777 537V1315H426.777M816.777 152L426.777 537M816.777 152H992.777M426.777 537V1315M426.777 537H602.777M426.777 1315H602.777M602.777 537H669.777M602.777 537V582.5V1315M602.777 537L992.777 152M602.777 1315H669.777M669.777 1315V537M669.777 1315L1059.78 930V152M669.777 537L1059.78 152M992.777 152H1059.78" stroke="black" stroke-width="3"/>
<path d="M889.777 723H1293.78L1285.28 797.5L1273.78 809H842.777C842.777 809 837.777 789.5 842.777 772.5C847.776 755.5 889.777 723 889.777 723Z" fill="url(#paint8_linear_147_231)" stroke="black" stroke-width="3"/>
<path d="M1310.17 777.193C1305.7 788.84 1298.44 798.079 1290.39 803.629C1282.32 809.184 1273.61 810.965 1266.06 808.065C1258.5 805.164 1253.22 798.012 1250.95 788.49C1248.68 778.976 1249.46 767.251 1253.93 755.604C1258.4 743.957 1265.66 734.718 1273.72 729.168C1281.78 723.613 1290.49 721.832 1298.05 724.733C1305.6 727.633 1310.88 734.786 1313.16 744.307C1315.43 753.821 1314.64 765.547 1310.17 777.193Z" fill="#07005C" stroke="black" stroke-width="3"/>
<path d="M39.3082 723H360V809H2C2 809 2.67731 786 10.5552 765.5C18.433 745 39.3082 723 39.3082 723Z" fill="url(#paint9_linear_147_231)" stroke="black" stroke-width="3"/>
<path d="M529.206 1337.5L545.679 1378.85L545.679 1378.85C545.748 1379.02 545.782 1379.11 545.846 1379.11C545.91 1379.11 545.954 1379.03 546.041 1378.87L556.756 1358.61L573.679 1343.17C573.817 1343.04 573.886 1342.98 573.866 1342.92C573.847 1342.86 573.754 1342.84 573.569 1342.82L529.417 1337.23C529.267 1337.21 529.192 1337.2 529.157 1337.25C529.122 1337.29 529.15 1337.36 529.206 1337.5Z" fill="#132AF4"/>
<path d="M556.756 1358.61L573.679 1343.17C573.817 1343.04 573.886 1342.98 573.866 1342.92C573.847 1342.86 573.754 1342.84 573.569 1342.82L529.417 1337.23C529.267 1337.21 529.192 1337.2 529.157 1337.25C529.122 1337.29 529.15 1337.36 529.206 1337.5L545.679 1378.85C545.748 1379.02 545.782 1379.11 545.846 1379.11C545.91 1379.11 545.954 1379.03 546.041 1378.87L556.756 1358.61ZM556.756 1358.61L656.705 1435.99" stroke="#132AF4" stroke-width="15"/>
<path d="M674.418 1412.89C674.418 1409.31 674.923 1406.08 675.932 1403.22C676.973 1400.35 678.536 1397.93 680.619 1395.94C682.702 1393.93 685.307 1392.38 688.432 1391.3C691.589 1390.23 695.284 1389.69 699.516 1389.69C703.487 1389.69 706.986 1390.21 710.014 1391.26C713.041 1392.26 715.564 1393.75 717.582 1395.7C719.633 1397.62 721.163 1399.98 722.172 1402.78C723.214 1405.58 723.734 1408.77 723.734 1412.35V1427.1H736.43C737.081 1427.1 737.569 1427.49 737.895 1428.27C738.22 1429.02 738.383 1430.42 738.383 1432.47C738.383 1434.32 738.22 1435.66 737.895 1436.47C737.569 1437.28 737.081 1437.69 736.43 1437.69H723.734V1452.24C723.734 1452.57 723.637 1452.86 723.441 1453.12C723.279 1453.38 722.953 1453.59 722.465 1453.76C722.009 1453.92 721.374 1454.05 720.561 1454.15C719.747 1454.24 718.705 1454.29 717.436 1454.29C714.994 1454.29 713.285 1454.11 712.309 1453.76C711.365 1453.4 710.893 1452.89 710.893 1452.24V1413.47C710.893 1411.06 710.648 1409.03 710.16 1407.37C709.672 1405.68 708.923 1404.31 707.914 1403.27C706.938 1402.19 705.701 1401.43 704.203 1400.97C702.706 1400.48 700.964 1400.24 698.979 1400.24C694.942 1400.24 691.98 1401.27 690.092 1403.32C688.204 1405.33 687.26 1408.48 687.26 1412.74V1417.38C687.26 1418.03 686.788 1418.53 685.844 1418.89C684.932 1419.25 683.223 1419.43 680.717 1419.43C678.275 1419.43 676.615 1419.25 675.736 1418.89C674.857 1418.53 674.418 1418.03 674.418 1417.38V1412.89ZM744.486 1392.53C744.486 1391.87 744.926 1391.39 745.805 1391.06C746.716 1390.7 748.376 1390.52 750.785 1390.52C753.227 1390.52 754.919 1390.7 755.863 1391.06C756.84 1391.39 757.328 1391.87 757.328 1392.53V1407.37C759.151 1406.98 761.023 1406.65 762.943 1406.39C764.896 1406.13 766.719 1406 768.412 1406C771.895 1406 775.118 1406.34 778.08 1407.03C781.042 1407.68 783.614 1408.82 785.795 1410.45C788.008 1412.04 789.734 1414.21 790.971 1416.94C792.208 1419.67 792.826 1423.09 792.826 1427.19V1434.62C792.826 1435.23 792.37 1435.72 791.459 1436.08C790.58 1436.44 788.936 1436.62 786.527 1436.62C784.086 1436.62 782.377 1436.45 781.4 1436.13C780.456 1435.77 779.984 1435.27 779.984 1434.62V1428.46C779.984 1424.2 778.926 1421.14 776.811 1419.28C774.727 1417.4 771.391 1416.45 766.801 1416.45C765.336 1416.45 763.773 1416.57 762.113 1416.79C760.486 1416.99 758.891 1417.3 757.328 1417.72V1452.29C757.328 1452.94 756.84 1453.45 755.863 1453.8C754.919 1454.13 753.227 1454.29 750.785 1454.29C748.376 1454.29 746.716 1454.11 745.805 1453.76C744.926 1453.4 744.486 1452.91 744.486 1452.29V1392.53ZM844.291 1443.4C844.942 1443.4 845.43 1443.79 845.756 1444.58C846.081 1445.32 846.244 1446.68 846.244 1448.63C846.244 1450.58 846.081 1451.97 845.756 1452.78C845.43 1453.59 844.942 1454 844.291 1454H806.693C805.619 1454 804.708 1453.69 803.959 1453.07C803.243 1452.45 802.885 1451.41 802.885 1449.95V1392.57C802.885 1392.25 802.966 1391.96 803.129 1391.7C803.324 1391.43 803.65 1391.22 804.105 1391.06C804.594 1390.9 805.245 1390.77 806.059 1390.67C806.872 1390.57 807.914 1390.52 809.184 1390.52C811.625 1390.52 813.318 1390.7 814.262 1391.06C815.238 1391.42 815.727 1391.92 815.727 1392.57V1407.12H848.783C849.434 1407.12 849.923 1407.52 850.248 1408.3C850.574 1409.05 850.736 1410.4 850.736 1412.35C850.736 1414.3 850.574 1415.69 850.248 1416.5C849.923 1417.31 849.434 1417.72 848.783 1417.72H815.727V1443.4H844.291ZM898.441 1448.63C898.441 1450.58 898.279 1451.97 897.953 1452.78C897.628 1453.59 897.139 1454 896.488 1454H863.139C862.064 1454 861.153 1453.69 860.404 1453.07C859.688 1452.45 859.33 1451.41 859.33 1449.95V1392.57C859.33 1391.92 859.786 1391.42 860.697 1391.06C861.609 1390.7 863.301 1390.52 865.775 1390.52C868.282 1390.52 869.975 1390.7 870.854 1391.06C871.765 1391.42 872.221 1391.92 872.221 1392.57V1443.4H896.488C897.139 1443.4 897.628 1443.79 897.953 1444.58C898.279 1445.32 898.441 1446.68 898.441 1448.63ZM953.129 1431.93C953.129 1435.51 952.608 1438.73 951.566 1441.6C950.557 1444.46 949.011 1446.9 946.928 1448.92C944.844 1450.91 942.224 1452.44 939.066 1453.51C935.941 1454.59 932.263 1455.12 928.031 1455.12C924.06 1455.12 920.561 1454.62 917.533 1453.61C914.506 1452.57 911.967 1451.09 909.916 1449.17C907.898 1447.21 906.368 1444.84 905.326 1442.04C904.317 1439.24 903.812 1436.05 903.812 1432.47V1392.57C903.812 1392.25 903.894 1391.96 904.057 1391.7C904.252 1391.43 904.577 1391.22 905.033 1391.06C905.521 1390.9 906.173 1390.77 906.986 1390.67C907.8 1390.57 908.842 1390.52 910.111 1390.52C912.553 1390.52 914.245 1390.7 915.189 1391.06C916.166 1391.42 916.654 1391.92 916.654 1392.57V1407.12H953.129C953.78 1407.12 954.268 1407.52 954.594 1408.3C954.919 1409.05 955.082 1410.4 955.082 1412.35C955.082 1414.3 954.919 1415.69 954.594 1416.5C954.268 1417.31 953.78 1417.72 953.129 1417.72H916.654V1431.34C916.654 1433.75 916.898 1435.8 917.387 1437.5C917.875 1439.16 918.607 1440.52 919.584 1441.6C920.593 1442.64 921.846 1443.4 923.344 1443.89C924.841 1444.35 926.583 1444.58 928.568 1444.58C932.605 1444.58 935.567 1443.57 937.455 1441.55C939.343 1439.5 940.287 1436.34 940.287 1432.08V1428.41C940.287 1427.76 940.759 1427.26 941.703 1426.9C942.647 1426.54 944.356 1426.36 946.83 1426.36C949.271 1426.36 950.932 1426.54 951.811 1426.9C952.689 1427.26 953.129 1427.76 953.129 1428.41V1431.93ZM1012.94 1452.29C1012.94 1452.91 1012.49 1453.4 1011.58 1453.76C1010.7 1454.11 1009.05 1454.29 1006.64 1454.29C1004.2 1454.29 1002.49 1454.13 1001.52 1453.8C1000.57 1453.45 1000.1 1452.94 1000.1 1452.29V1435.3C998.279 1435.69 996.391 1436.01 994.438 1436.28C992.517 1436.54 990.71 1436.67 989.018 1436.67C985.567 1436.67 982.344 1436.34 979.35 1435.69C976.387 1435.01 973.799 1433.87 971.586 1432.27C969.405 1430.64 967.696 1428.46 966.459 1425.73C965.222 1422.99 964.604 1419.58 964.604 1415.47V1392.53C964.604 1391.87 965.043 1391.39 965.922 1391.06C966.833 1390.7 968.493 1390.52 970.902 1390.52C973.344 1390.52 975.036 1390.7 975.98 1391.06C976.957 1391.39 977.445 1391.87 977.445 1392.53V1414.21C977.445 1418.44 978.487 1421.5 980.57 1423.38C982.686 1425.27 986.039 1426.22 990.629 1426.22C992.094 1426.22 993.64 1426.12 995.268 1425.92C996.928 1425.7 998.539 1425.37 1000.1 1424.95V1409.22C1000.1 1408.57 1000.57 1408.09 1001.52 1407.76C1002.49 1407.4 1004.2 1407.22 1006.64 1407.22C1009.05 1407.22 1010.7 1407.4 1011.58 1407.76C1012.49 1408.09 1012.94 1408.57 1012.94 1409.22V1452.29ZM1075.1 1406.49C1075.1 1407.14 1074.53 1407.65 1073.39 1408C1072.29 1408.36 1070.48 1408.54 1067.97 1408.54C1065.53 1408.54 1063.79 1408.36 1062.75 1408C1061.71 1407.65 1061.19 1407.14 1061.19 1406.49C1061.19 1405.58 1060.96 1404.72 1060.5 1403.9C1060.08 1403.06 1059.4 1402.32 1058.45 1401.71C1057.54 1401.09 1056.35 1400.6 1054.89 1400.24C1053.45 1399.88 1051.73 1399.7 1049.71 1399.7C1047.43 1399.7 1045.54 1399.9 1044.05 1400.29C1042.58 1400.68 1041.41 1401.22 1040.53 1401.9C1039.65 1402.55 1039.03 1403.33 1038.68 1404.24C1038.32 1405.16 1038.14 1406.13 1038.14 1407.17C1038.14 1408.31 1038.51 1409.34 1039.26 1410.25C1040.04 1411.13 1041.13 1411.94 1042.53 1412.69C1043.93 1413.41 1045.59 1414.07 1047.51 1414.69C1049.47 1415.31 1051.62 1415.95 1053.96 1416.6C1056.63 1417.31 1059.33 1418.13 1062.06 1419.04C1064.8 1419.92 1067.27 1421.04 1069.49 1422.41C1071.7 1423.78 1073.51 1425.48 1074.91 1427.54C1076.31 1429.55 1077.01 1432.06 1077.01 1435.05C1077.01 1438.38 1076.35 1441.29 1075.05 1443.79C1073.75 1446.3 1071.94 1448.4 1069.63 1450.09C1067.32 1451.75 1064.59 1453.01 1061.43 1453.85C1058.3 1454.7 1054.9 1455.12 1051.22 1455.12C1048.03 1455.12 1044.81 1454.78 1041.56 1454.1C1038.3 1453.41 1035.36 1452.31 1032.72 1450.78C1030.08 1449.21 1027.92 1447.2 1026.22 1444.72C1024.56 1442.25 1023.73 1439.22 1023.73 1435.64C1023.73 1435.32 1023.83 1435.02 1024.03 1434.76C1024.26 1434.5 1024.65 1434.29 1025.2 1434.13C1025.75 1433.96 1026.52 1433.83 1027.49 1433.74C1028.5 1433.64 1029.79 1433.59 1031.35 1433.59C1033.79 1433.59 1035.53 1433.77 1036.58 1434.13C1037.62 1434.49 1038.14 1434.99 1038.14 1435.64C1038.14 1438.54 1039.25 1440.78 1041.46 1442.38C1043.71 1443.97 1046.98 1444.77 1051.27 1444.77C1053.55 1444.77 1055.47 1444.59 1057.04 1444.23C1058.63 1443.84 1059.92 1443.31 1060.89 1442.62C1061.87 1441.91 1062.57 1441.06 1062.99 1440.08C1063.45 1439.07 1063.68 1437.95 1063.68 1436.71C1063.68 1435.35 1063.32 1434.19 1062.6 1433.25C1061.89 1432.27 1060.91 1431.43 1059.67 1430.71C1058.47 1429.99 1057.07 1429.37 1055.47 1428.85C1053.88 1428.3 1052.18 1427.8 1050.39 1427.34C1047.33 1426.56 1044.29 1425.71 1041.26 1424.8C1038.27 1423.86 1035.57 1422.67 1033.16 1421.24C1030.78 1419.8 1028.85 1418.03 1027.35 1415.91C1025.88 1413.77 1025.15 1411.1 1025.15 1407.91C1025.15 1404.85 1025.74 1402.18 1026.91 1399.9C1028.11 1397.62 1029.79 1395.73 1031.94 1394.23C1034.12 1392.7 1036.72 1391.57 1039.75 1390.82C1042.81 1390.07 1046.2 1389.69 1049.91 1389.69C1058.21 1389.69 1064.47 1391.08 1068.71 1393.84C1072.94 1396.61 1075.07 1400.83 1075.1 1406.49ZM1087.8 1412.89C1087.8 1409.31 1088.3 1406.08 1089.31 1403.22C1090.35 1400.35 1091.91 1397.93 1094 1395.94C1096.08 1393.93 1098.69 1392.38 1101.81 1391.3C1104.97 1390.23 1108.66 1389.69 1112.89 1389.69C1116.87 1389.69 1120.37 1390.21 1123.39 1391.26C1126.42 1392.26 1128.94 1393.75 1130.96 1395.7C1133.01 1397.62 1134.54 1399.98 1135.55 1402.78C1136.59 1405.58 1137.11 1408.77 1137.11 1412.35V1417.38C1137.11 1417.7 1137.02 1418 1136.82 1418.26C1136.66 1418.52 1136.33 1418.73 1135.84 1418.89C1135.39 1419.06 1134.75 1419.19 1133.94 1419.28C1133.13 1419.38 1132.08 1419.43 1130.81 1419.43C1128.37 1419.43 1126.66 1419.25 1125.69 1418.89C1124.74 1418.53 1124.27 1418.03 1124.27 1417.38V1413.47C1124.27 1411.06 1124.03 1409.03 1123.54 1407.37C1123.05 1405.68 1122.3 1404.31 1121.29 1403.27C1120.32 1402.19 1119.08 1401.43 1117.58 1400.97C1116.08 1400.48 1114.34 1400.24 1112.36 1400.24C1108.32 1400.24 1105.36 1401.27 1103.47 1403.32C1101.58 1405.33 1100.64 1408.48 1100.64 1412.74V1452.24C1100.64 1452.89 1100.17 1453.4 1099.22 1453.76C1098.31 1454.11 1096.6 1454.29 1094.1 1454.29C1091.65 1454.29 1089.99 1454.11 1089.12 1453.76C1088.24 1453.4 1087.8 1452.89 1087.8 1452.24V1412.89ZM1147.61 1392.53C1147.61 1391.87 1148.05 1391.39 1148.93 1391.06C1149.84 1390.7 1151.5 1390.52 1153.91 1390.52C1156.35 1390.52 1158.04 1390.7 1158.99 1391.06C1159.96 1391.39 1160.45 1391.87 1160.45 1392.53V1407.37C1162.28 1406.98 1164.15 1406.65 1166.07 1406.39C1168.02 1406.13 1169.84 1406 1171.54 1406C1175.02 1406 1178.24 1406.34 1181.21 1407.03C1184.17 1407.68 1186.74 1408.82 1188.92 1410.45C1191.13 1412.04 1192.86 1414.21 1194.1 1416.94C1195.33 1419.67 1195.95 1423.09 1195.95 1427.19V1434.62C1195.95 1435.23 1195.5 1435.72 1194.58 1436.08C1193.71 1436.44 1192.06 1436.62 1189.65 1436.62C1187.21 1436.62 1185.5 1436.45 1184.53 1436.13C1183.58 1435.77 1183.11 1435.27 1183.11 1434.62V1428.46C1183.11 1424.2 1182.05 1421.14 1179.94 1419.28C1177.85 1417.4 1174.52 1416.45 1169.93 1416.45C1168.46 1416.45 1166.9 1416.57 1165.24 1416.79C1163.61 1416.99 1162.02 1417.3 1160.45 1417.72V1452.29C1160.45 1452.94 1159.96 1453.45 1158.99 1453.8C1158.04 1454.13 1156.35 1454.29 1153.91 1454.29C1151.5 1454.29 1149.84 1454.11 1148.93 1453.76C1148.05 1453.4 1147.61 1452.91 1147.61 1452.29V1392.53ZM1252.4 1452.29C1252.4 1452.91 1251.94 1453.4 1251.03 1453.76C1250.15 1454.11 1248.51 1454.29 1246.1 1454.29C1243.66 1454.29 1241.95 1454.13 1240.97 1453.8C1240.03 1453.45 1239.55 1452.94 1239.55 1452.29V1435.3C1237.73 1435.69 1235.84 1436.01 1233.89 1436.28C1231.97 1436.54 1230.16 1436.67 1228.47 1436.67C1225.02 1436.67 1221.8 1436.34 1218.8 1435.69C1215.84 1435.01 1213.25 1433.87 1211.04 1432.27C1208.86 1430.64 1207.15 1428.46 1205.91 1425.73C1204.68 1422.99 1204.06 1419.58 1204.06 1415.47V1392.53C1204.06 1391.87 1204.5 1391.39 1205.38 1391.06C1206.29 1390.7 1207.95 1390.52 1210.36 1390.52C1212.8 1390.52 1214.49 1390.7 1215.43 1391.06C1216.41 1391.39 1216.9 1391.87 1216.9 1392.53V1414.21C1216.9 1418.44 1217.94 1421.5 1220.02 1423.38C1222.14 1425.27 1225.49 1426.22 1230.08 1426.22C1231.55 1426.22 1233.09 1426.12 1234.72 1425.92C1236.38 1425.7 1237.99 1425.37 1239.55 1424.95V1409.22C1239.55 1408.57 1240.03 1408.09 1240.97 1407.76C1241.95 1407.4 1243.66 1407.22 1246.1 1407.22C1248.51 1407.22 1250.15 1407.4 1251.03 1407.76C1251.94 1408.09 1252.4 1408.57 1252.4 1409.22V1452.29Z" fill="#132AF4"/>
<path d="M812 152V21" stroke="#132AF4" stroke-width="10" stroke-dasharray="10 10"/>
<path d="M995 152V21" stroke="#132AF4" stroke-width="10" stroke-dasharray="10 10"/>
<path d="M940.396 80.1868L974.616 96.3191C974.782 96.3974 974.865 96.4366 974.865 96.5C974.865 96.5634 974.782 96.6026 974.616 96.6809L940.396 112.813C940.225 112.894 940.14 112.934 940.091 112.892C940.042 112.851 940.067 112.76 940.119 112.578L944.635 96.5H863.365L867.881 112.578C867.933 112.76 867.958 112.851 867.909 112.892C867.86 112.934 867.775 112.894 867.604 112.813L833.384 96.6809C833.218 96.6026 833.135 96.5634 833.135 96.5C833.135 96.4366 833.218 96.3974 833.384 96.3191L867.604 80.1868L867.604 80.1868C867.775 80.1063 867.86 80.066 867.909 80.1075C867.958 80.149 867.933 80.24 867.881 80.4218V80.4218L863.365 96.5H944.635L940.119 80.4218C940.067 80.24 940.042 80.149 940.091 80.1075C940.14 80.066 940.225 80.1063 940.396 80.1868Z" fill="#132AF4"/>
<path d="M944.635 96.5L940.119 112.578C940.067 112.76 940.042 112.851 940.091 112.892C940.14 112.934 940.225 112.894 940.396 112.813L974.616 96.6809C974.782 96.6026 974.865 96.5634 974.865 96.5C974.865 96.4366 974.782 96.3974 974.616 96.3191L940.396 80.1868C940.225 80.1063 940.14 80.066 940.091 80.1075C940.042 80.149 940.067 80.24 940.119 80.4218L944.635 96.5ZM944.635 96.5H863.365M863.365 96.5L867.881 80.4218C867.933 80.24 867.958 80.149 867.909 80.1075C867.86 80.066 867.775 80.1063 867.604 80.1868L833.384 96.3191C833.218 96.3974 833.135 96.4366 833.135 96.5C833.135 96.5634 833.218 96.6026 833.384 96.6809L867.604 112.813C867.775 112.894 867.86 112.934 867.909 112.892C867.958 112.851 867.933 112.76 867.881 112.578L863.365 96.5Z" stroke="#132AF4" stroke-width="10"/>
<path d="M911.381 2.9375C911.438 2.9375 913.483 2.79546 917.517 2.51136C921.551 2.22727 923.625 2.05682 923.739 2C924.42 2 924.761 2.22727 924.761 2.68182C924.761 3.07954 922.688 11.6591 918.54 28.4205C914.392 45.1818 912.261 53.733 912.148 54.0739C912.034 54.4148 912.006 54.8409 912.062 55.3523C912.062 57.7386 912.858 58.9318 914.449 58.9318C914.96 58.875 915.528 58.6193 916.153 58.1648C917.347 57.0284 918.511 54.3011 919.648 49.983C919.989 48.8466 920.273 48.25 920.5 48.1932C920.614 48.1364 920.898 48.108 921.352 48.108H921.693H922.034C922.886 48.108 923.312 48.3352 923.312 48.7898C923.312 49.0739 923.227 49.5284 923.057 50.1534C922.318 52.9943 921.466 55.2955 920.5 57.0568C919.534 58.8182 918.739 59.9545 918.114 60.4659C917.489 60.9773 916.693 61.4318 915.727 61.8295C915.273 61.9432 914.591 62 913.682 62C911.75 62 910.131 61.5739 908.824 60.7216C907.517 59.8693 906.665 58.9886 906.267 58.0795L905.756 56.8011C905.699 56.7443 905.585 56.7727 905.415 56.8864C905.301 57 905.188 57.1136 905.074 57.2273C901.722 60.4091 898.312 62 894.847 62C891.722 62 888.966 60.8636 886.58 58.5909C884.193 56.3182 883 52.7102 883 47.767C883 45.0398 883.568 42.2557 884.705 39.4148C885.841 36.5739 887.205 34.1307 888.795 32.0852C891.466 28.8466 894.136 26.6023 896.807 25.3523C899.477 24.1023 901.892 23.4773 904.051 23.4773C907.233 23.4773 909.619 24.6705 911.21 27.0568C911.494 27.3977 911.636 27.5114 911.636 27.3977C911.693 27.1705 912.46 24.0739 913.938 18.108C915.415 12.142 916.21 8.98864 916.324 8.64773C916.324 7.90909 916.125 7.45454 915.727 7.28409C915.33 7.11364 914.222 6.97159 912.403 6.85796H910.614C910.273 6.51704 910.102 6.28977 910.102 6.17614C910.102 6.0625 910.159 5.52273 910.273 4.55682C910.557 3.47727 910.926 2.9375 911.381 2.9375ZM910.188 33.3636C908.881 28.875 906.75 26.6307 903.795 26.6307C901.807 26.6307 899.903 27.5114 898.085 29.2727C896.267 31.0341 894.847 33.3352 893.824 36.1761C892.176 40.6648 891.011 45.3239 890.33 50.1534C890.33 50.3239 890.33 50.6364 890.33 51.0909C890.33 51.5455 890.301 51.8864 890.244 52.1136C890.244 54.6705 890.756 56.4318 891.778 57.3977C892.801 58.3636 894.023 58.875 895.443 58.9318C898.511 58.9318 901.665 56.8864 904.903 52.7955L905.585 51.858L910.188 33.3636Z" fill="#132AF4" stroke="#132AF4" stroke-width="4"/>
<defs>
<linearGradient id="paint0_linear_147_231" x1="393.5" y1="537" x2="393.5" y2="1315" gradientUnits="userSpaceOnUse">
<stop stop-color="#1000C2"/>
<stop offset="1" stop-color="#07005C"/>
</linearGradient>
<linearGradient id="paint1_linear_147_231" x1="783.222" y1="152" x2="400.222" y2="537" gradientUnits="userSpaceOnUse">
<stop stop-color="#132AF4"/>
<stop offset="1" stop-color="#1000C2"/>
</linearGradient>
<linearGradient id="paint2_linear_147_231" x1="636.277" y1="537" x2="636.277" y2="1315" gradientUnits="userSpaceOnUse">
<stop stop-color="#1000C2"/>
<stop offset="1" stop-color="#07005C"/>
</linearGradient>
<linearGradient id="paint3_linear_147_231" x1="1026" y1="152" x2="643" y2="537" gradientUnits="userSpaceOnUse">
<stop stop-color="#132AF4"/>
<stop offset="1" stop-color="#1000C2"/>
</linearGradient>
<linearGradient id="paint4_linear_147_231" x1="598.338" y1="537" x2="293.282" y2="1164.41" gradientUnits="userSpaceOnUse">
<stop stop-color="#96A19F"/>
<stop offset="1" stop-color="#373B3A"/>
</linearGradient>
<linearGradient id="paint5_linear_147_231" x1="978.5" y1="152" x2="933.503" y2="572.426" gradientUnits="userSpaceOnUse">
<stop stop-color="#D7DAD9"/>
<stop offset="1" stop-color="#96A19F"/>
</linearGradient>
<linearGradient id="paint6_linear_147_231" x1="1060" y1="152" x2="670" y2="539.5" gradientUnits="userSpaceOnUse">
<stop stop-color="#1329F3"/>
<stop offset="1" stop-color="#0F01C4"/>
</linearGradient>
<linearGradient id="paint7_linear_147_231" x1="680" y1="541" x2="678.5" y2="1306" gradientUnits="userSpaceOnUse">
<stop stop-color="#0F00C1"/>
<stop offset="1" stop-color="#07005D"/>
</linearGradient>
<linearGradient id="paint8_linear_147_231" x1="1202.78" y1="809" x2="1203.28" y2="723" gradientUnits="userSpaceOnUse">
<stop stop-color="#0BB7EE"/>
<stop offset="1" stop-color="#1B00C4"/>
</linearGradient>
<linearGradient id="paint9_linear_147_231" x1="287.765" y1="809" x2="288.395" y2="723.002" gradientUnits="userSpaceOnUse">
<stop stop-color="#0BB7EE"/>
<stop offset="1" stop-color="#1B00C4"/>
</linearGradient>
</defs>
</svg>
