<svg width="769" height="190" viewBox="0 0 769 190" fill="none" xmlns="http://www.w3.org/2000/svg">
<path d="M69 124.01H25" stroke="#132AF4" stroke-width="6"/>
<circle cx="13" cy="124.01" r="10" stroke="#132AF4" stroke-width="6"/>
<path d="M700 124H744" stroke="#132AF4" stroke-width="6"/>
<circle cx="755.973" cy="124" r="10" transform="rotate(180 755.973 124)" stroke="#132AF4" stroke-width="6"/>
<path d="M229 124.011H333.5" stroke="#132AF4" stroke-width="6"/>
<path d="M69 124.011H165.5" stroke="#132AF4" stroke-width="6"/>
<path d="M222 58.0107V189.011" stroke="#132AF4" stroke-width="16"/>
<path d="M173 58.0107V189.011" stroke="#132AF4" stroke-width="16"/>
<path d="M390.389 124.011H422.889L433.722 59.0107L455.389 189.011L477.055 59.0107L498.722 189.011L520.389 59.0107L542.055 189.011L563.722 59.0107L585.389 189.011L607.055 59.0107L628.722 189.011L639.555 124.011H672.055" stroke="#132AF4" stroke-width="6"/>
<path d="M333 124.011H407" stroke="#132AF4" stroke-width="6"/>
<path d="M672 124.011H700" stroke="#132AF4" stroke-width="6"/>
<path d="M185 22.0119C185 18.4576 186.035 15.0423 188.106 11.7661C190.177 8.48996 192.789 5.89374 195.941 3.97748C199.094 2.06123 202.246 1.08764 205.399 1.05674C208.181 1.05674 210.39 1.84487 212.028 3.42115C212.307 3.73022 212.538 3.99294 212.724 4.20929C212.909 4.42564 213.033 4.58017 213.095 4.6729L213.141 4.81198C213.234 4.81198 213.651 4.41018 214.393 3.60659C214.609 3.42115 214.841 3.2048 215.088 2.95754C215.336 2.71028 215.583 2.46302 215.83 2.21576C216.077 1.9685 216.232 1.79851 216.294 1.70579L216.989 1.01038H217.267C217.7 1.01038 217.916 1.11855 217.916 1.3349C217.916 1.45853 217.422 3.57569 216.433 7.68636C215.32 11.9825 214.764 14.146 214.764 14.1769C214.702 14.3314 214.625 14.4242 214.532 14.4551C214.439 14.486 214.161 14.5169 213.697 14.5478H212.956C212.77 14.3624 212.678 14.2233 212.678 14.1305C212.678 14.0996 212.693 13.9915 212.724 13.806C212.755 13.6206 212.786 13.3115 212.817 12.8788C212.848 12.4461 212.863 11.9516 212.863 11.3952C212.863 9.20082 212.368 7.28457 211.379 5.64648C210.39 4.00839 208.706 3.17389 206.326 3.14298C205.522 3.14298 204.657 3.25116 203.73 3.46751C202.803 3.68386 201.69 4.05475 200.392 4.58017C199.094 5.1056 197.811 5.97101 196.544 7.17639C195.277 8.38178 194.149 9.81897 193.16 11.488C192.171 13.2497 191.382 15.305 190.795 17.654C190.208 20.0029 189.914 21.9192 189.914 23.4028C189.914 26.9262 191.089 29.4606 193.438 31.006C194.921 32.0568 196.745 32.5822 198.908 32.5822C201.721 32.5822 204.224 31.5314 206.419 29.4297C208.613 27.328 210.066 25.0408 210.777 22.5683C210.9 22.1665 210.993 21.9347 211.055 21.8728C211.117 21.811 211.364 21.7801 211.797 21.7801C212.415 21.7801 212.724 21.9192 212.724 22.1974C212.724 22.3519 212.708 22.491 212.678 22.6146C211.781 25.9217 209.865 28.7652 206.929 31.145C203.993 33.5249 200.84 34.7148 197.471 34.7148C193.979 34.7148 191.027 33.5558 188.616 31.2378C186.205 28.9197 185 25.8444 185 22.0119Z" fill="#132AF4" stroke="#132AF4" stroke-width="2"/>
<path d="M507 11.9102C507.043 11.7825 507.085 11.6124 507.128 11.3997C507.17 11.187 507.276 10.7191 507.447 9.99594C507.617 9.27278 507.829 8.61344 508.085 8.0179C508.34 7.42237 508.659 6.72048 509.042 5.91225C509.425 5.10403 509.85 4.46595 510.318 3.99803C510.786 3.53011 511.339 3.06219 511.977 2.59426C512.615 2.12634 513.317 1.93492 514.083 2.02C515.316 2.02 516.401 2.27523 517.337 2.78569C518.273 3.29615 518.932 3.76407 519.315 4.18945C519.698 4.61484 519.932 5.04022 520.017 5.4656C520.102 5.72083 520.166 5.84845 520.208 5.84845C520.251 5.84845 520.421 5.69956 520.719 5.40179C522.76 3.1898 525.121 2.0838 527.801 2.0838H527.993C530.035 2.0838 531.566 2.95584 532.587 4.69991C532.927 5.50814 533.097 6.2951 533.097 7.06079C533.097 8.33694 532.821 9.35786 532.268 10.1236C531.715 10.8892 531.162 11.3784 530.609 11.5911C530.056 11.8038 529.524 11.8889 529.014 11.8464C528.163 11.8464 527.482 11.6124 526.972 11.1445C526.461 10.6766 526.206 10.0597 526.206 9.29405C526.206 7.25221 527.397 5.89099 529.779 5.21037C528.843 4.65737 528.078 4.38087 527.482 4.38087C525.1 4.38087 522.909 5.95479 520.91 9.10263C520.485 9.78324 520.166 10.4851 519.953 11.2083C519.74 11.9314 519.017 14.7602 517.783 19.6947C516.337 25.65 515.508 28.8192 515.295 29.202C514.742 30.3505 513.827 30.9248 512.551 30.9248C511.998 30.9248 511.552 30.7972 511.211 30.542C510.871 30.2867 510.637 30.0315 510.509 29.7763C510.382 29.521 510.339 29.3083 510.382 29.1382C510.382 28.5852 511.233 24.9269 512.934 18.1633C514.636 11.3997 515.486 7.63506 515.486 6.86937C515.486 5.21037 514.933 4.38087 513.827 4.38087C512.934 4.38087 512.168 4.97641 511.53 6.16749C510.892 7.35856 510.382 8.65598 509.999 10.0597C509.616 11.4635 509.382 12.2292 509.297 12.3568C509.212 12.4419 508.872 12.4844 508.276 12.4844H507.383C507.128 12.2292 507 12.0378 507 11.9102Z" fill="#132AF4" stroke="#132AF4" stroke-width="2"/>
<path d="M538.078 32.6217C538.078 29.3435 539.371 26.3962 541.958 23.7797C544.544 21.1633 547.341 19.855 550.349 19.855C552.033 19.855 553.356 20.2159 554.318 20.9377C555.281 21.6595 555.777 22.6068 555.807 23.7797C555.807 24.6519 555.521 25.3887 554.95 25.9902C554.379 26.5917 553.657 26.9075 552.785 26.9376C552.213 26.9376 551.762 26.7872 551.431 26.4865C551.1 26.1857 550.935 25.7346 550.935 25.1331C550.935 24.5316 551.1 24.0203 551.431 23.5993C551.762 23.1782 552.093 22.8625 552.424 22.6519C552.755 22.4414 552.965 22.3512 553.055 22.3813H553.1C553.1 22.3211 553.01 22.2309 552.83 22.1106C552.649 21.9903 552.333 21.87 551.882 21.7497C551.431 21.6294 550.92 21.5693 550.349 21.5693C549.446 21.5693 548.589 21.7798 547.777 22.2008C547.146 22.4715 546.499 22.9377 545.837 23.5993C544.514 24.9226 543.552 26.7872 542.95 29.1932C542.349 31.5991 542.033 33.3435 542.003 34.4262C542.003 35.8096 542.394 36.8472 543.176 37.5389C543.837 38.2607 544.71 38.6216 545.792 38.6216H545.973C549.341 38.6216 552.123 37.3434 554.318 34.7871C554.589 34.4863 554.77 34.3359 554.86 34.3359C554.98 34.3359 555.176 34.4713 555.446 34.7419C555.717 35.0126 555.867 35.2231 555.897 35.3735C555.927 35.5239 555.792 35.7494 555.491 36.0502C555.191 36.3509 554.754 36.772 554.183 37.3133C553.612 37.8547 552.935 38.3058 552.153 38.6667C551.371 39.0276 550.409 39.4035 549.266 39.7945C548.123 40.1854 546.92 40.3509 545.657 40.2907C543.401 40.2907 541.582 39.5689 540.198 38.1253C538.815 36.6818 538.108 34.8472 538.078 32.6217Z" fill="#132AF4" stroke="#132AF4" stroke-width="2"/>
</svg>
