<svg width="1057" height="436" viewBox="0 0 1057 436" fill="none" xmlns="http://www.w3.org/2000/svg">
<path d="M69 370.006H25" stroke="#132AF4" stroke-width="6"/>
<path d="M351 368.006V116" stroke="#132AF4" stroke-width="6"/>
<path d="M69 368.006L69 116" stroke="#132AF4" stroke-width="6"/>
<circle cx="13" cy="370.006" r="10" stroke="#132AF4" stroke-width="6"/>
<circle cx="1044" cy="370.006" r="10" stroke="#132AF4" stroke-width="6"/>
<circle cx="350.889" cy="370.395" r="9.38889" fill="#132AF4"/>
<circle cx="69.3889" cy="370.395" r="9.38889" fill="#132AF4"/>
<path d="M238 370.006H342.5" stroke="#132AF4" stroke-width="6"/>
<path d="M78 370.006H174.5" stroke="#132AF4" stroke-width="6"/>
<path d="M231 304.006V435.006" stroke="#132AF4" stroke-width="16"/>
<path d="M182 304.006V435.006" stroke="#132AF4" stroke-width="16"/>
<path d="M69.3887 119.006H101.889L112.722 54.0063L134.389 184.006L156.055 54.0063L177.722 184.006L199.389 54.0063L221.055 184.006L242.722 54.0063L264.389 184.006L286.055 54.0063L307.722 184.006L318.555 119.006H351.055" stroke="#132AF4" stroke-width="6"/>
<path d="M414.389 370.006H446.889L457.722 305.006L479.389 435.006L501.055 305.006L522.722 435.006L544.389 305.006L566.055 435.006L587.722 305.006L609.389 435.006L631.055 305.006L652.722 435.006L663.555 370.006H696.055" stroke="#132AF4" stroke-width="6"/>
<path d="M357 370.006H431" stroke="#132AF4" stroke-width="6"/>
<path d="M696 370.006H724" stroke="#132AF4" stroke-width="6"/>
<path d="M1035.5 370.006H985C985 370.006 981.293 305.006 953 305.006C924.707 305.006 921 370.006 921 370.006C921 370.006 917.293 305.006 889 305.006C860.707 305.006 857 370.006 857 370.006C857 370.006 853.293 305.006 825 305.006C796.707 305.006 793 370.006 793 370.006C793 370.006 789.293 305.006 761 305.006C732.707 305.006 729 370.006 729 370.006H719" stroke="#132AF4" stroke-width="6"/>
<path d="M193.133 3.13263C192.299 3.13263 191.804 3.11717 191.65 3.08627C191.495 3.05536 191.418 2.88537 191.418 2.57629C191.418 1.7418 191.588 1.23182 191.928 1.04638C191.99 1.01547 194.678 1.00002 199.995 1.00002C205.311 1.03093 208.185 1.07729 208.618 1.1391C210.349 1.38636 211.801 1.81906 212.976 2.43721C214.15 3.05536 214.985 3.76623 215.479 4.56982C215.974 5.37341 216.298 6.03792 216.453 6.56334C216.607 7.08877 216.7 7.61419 216.731 8.13962C216.731 9.53045 216.283 10.8286 215.386 12.0339C214.49 13.2393 213.455 14.1666 212.28 14.8156C211.106 15.4647 210.07 15.9901 209.174 16.3919C208.278 16.7937 207.69 16.9946 207.412 16.9946L207.737 17.2264C209.808 18.4009 210.843 20.1008 210.843 22.3261C210.843 22.6661 210.766 23.6087 210.611 25.1541C210.457 26.6995 210.379 27.9667 210.379 28.9557V29.373C210.379 29.9293 210.395 30.362 210.426 30.6711C210.457 30.9802 210.627 31.2583 210.936 31.5056C211.245 31.7528 211.647 31.8919 212.141 31.9228C213.007 31.9228 213.717 31.5828 214.274 30.9029C214.83 30.2229 215.232 29.4966 215.479 28.7239C215.634 28.2912 215.757 28.0285 215.85 27.9358C215.943 27.8431 216.175 27.7967 216.545 27.7967C217.164 27.7967 217.473 27.9821 217.473 28.353C217.473 28.9094 217.102 29.7902 216.36 30.9956C215.186 32.7573 213.795 33.6382 212.188 33.6382H211.77C209.885 33.6382 208.324 33.2518 207.088 32.4792C205.851 31.7065 205.172 30.5011 205.048 28.863C205.048 28.0285 205.28 26.7304 205.743 24.9687C206.207 23.207 206.439 22.0788 206.439 21.5843C206.439 20.008 205.774 18.8645 204.445 18.1536C203.982 17.9372 203.595 17.8136 203.286 17.7827C202.977 17.7518 201.88 17.7209 199.995 17.69H196.796L195.312 23.7169C194.292 27.7967 193.782 29.8675 193.782 29.9293C193.782 30.0529 193.798 30.1302 193.829 30.1611C193.859 30.192 193.968 30.2538 194.153 30.3466C194.339 30.4393 194.601 30.4702 194.941 30.4393C195.281 30.4084 195.791 30.4393 196.471 30.532H197.908C198.094 30.7793 198.186 30.9183 198.186 30.9492C198.186 30.9802 198.14 31.2583 198.047 31.7837C197.924 32.1855 197.769 32.4792 197.584 32.6646H196.888C195.776 32.6028 193.751 32.5719 190.815 32.5719C189.764 32.5719 188.791 32.5719 187.894 32.5719C186.998 32.5719 186.287 32.5719 185.762 32.5719C185.236 32.5719 184.912 32.5873 184.788 32.6182C184.263 32.6182 184 32.4792 184 32.201C184 32.1392 184.046 31.9228 184.139 31.5519C184.294 30.9647 184.448 30.6402 184.603 30.5784C184.726 30.5474 184.958 30.532 185.298 30.532H185.576C186.411 30.532 187.338 30.4856 188.358 30.3929C188.791 30.3002 189.084 30.1147 189.239 29.8366C189.332 29.7129 190.444 25.4168 192.577 16.9482C194.709 8.4796 195.776 4.01349 195.776 3.54988C195.776 3.33352 194.895 3.19444 193.133 3.13263ZM211.678 6.98059C211.678 5.99156 211.353 5.15706 210.704 4.4771C210.055 3.79713 208.726 3.36443 206.717 3.17899C206.655 3.17899 206.3 3.17899 205.651 3.17899C205.002 3.17899 204.414 3.16353 203.889 3.13263H202.869C201.416 3.13263 200.582 3.28716 200.365 3.59624C200.335 3.68896 199.809 5.7443 198.789 9.76225C197.769 13.7802 197.259 15.8355 197.259 15.9283C197.259 15.9592 198.326 15.9746 200.458 15.9746C202.869 15.9437 204.476 15.8355 205.28 15.6501C207.258 15.341 208.803 14.4293 209.916 12.9148C210.41 12.2039 210.828 11.2767 211.168 10.1331C211.508 8.98957 211.678 7.93872 211.678 6.98059Z" fill="#132AF4" stroke="#132AF4" stroke-width="2"/>
<path d="M231.182 17.2326C231.204 17.2326 231.991 17.178 233.542 17.0688C235.094 16.9595 235.891 16.8939 235.935 16.8721C236.197 16.8721 236.328 16.9595 236.328 17.1343C236.328 17.2873 235.531 20.5868 233.936 27.033C232.341 33.4792 231.521 36.7679 231.477 36.899C231.434 37.0301 231.423 37.194 231.445 37.3906C231.445 38.3084 231.751 38.7673 232.362 38.7673C232.559 38.7454 232.778 38.6471 233.018 38.4723C233.477 38.0353 233.925 36.9864 234.362 35.3257C234.493 34.8886 234.602 34.6592 234.69 34.6374C234.733 34.6155 234.843 34.6046 235.017 34.6046H235.148H235.28C235.607 34.6046 235.771 34.692 235.771 34.8668C235.771 34.9761 235.738 35.1509 235.673 35.3912C235.389 36.4838 235.061 37.3688 234.69 38.0462C234.318 38.7236 234.012 39.1606 233.772 39.3573C233.531 39.5539 233.226 39.7288 232.854 39.8817C232.679 39.9254 232.417 39.9473 232.067 39.9473C231.324 39.9473 230.702 39.7834 230.199 39.4556C229.697 39.1278 229.369 38.7891 229.216 38.4395L229.019 37.9479C228.997 37.926 228.954 37.9369 228.888 37.9806C228.844 38.0243 228.801 38.068 228.757 38.1117C227.468 39.3354 226.157 39.9473 224.824 39.9473C223.622 39.9473 222.562 39.5102 221.644 38.6362C220.726 37.7621 220.268 36.3745 220.268 34.4735C220.268 33.4246 220.486 32.3539 220.923 31.2613C221.36 30.1687 221.885 29.2291 222.496 28.4425C223.523 27.1969 224.55 26.3338 225.577 25.8531C226.605 25.3723 227.533 25.132 228.364 25.132C229.587 25.132 230.505 25.5908 231.117 26.5086C231.226 26.6397 231.281 26.6834 231.281 26.6397C231.303 26.5523 231.598 25.3614 232.166 23.067C232.734 20.7726 233.04 19.5598 233.083 19.4287C233.083 19.1446 233.007 18.9698 232.854 18.9043C232.701 18.8387 232.275 18.7841 231.576 18.7404H230.887C230.756 18.6093 230.691 18.5219 230.691 18.4782C230.691 18.4345 230.713 18.2269 230.756 17.8554C230.866 17.4402 231.008 17.2326 231.182 17.2326ZM230.724 28.9341C230.221 27.2078 229.402 26.3447 228.265 26.3447C227.5 26.3447 226.768 26.6834 226.069 27.3608C225.37 28.0382 224.824 28.9232 224.43 30.0158C223.797 31.742 223.349 33.5339 223.086 35.3912C223.086 35.4568 223.086 35.577 223.086 35.7518C223.086 35.9266 223.075 36.0577 223.054 36.1451C223.054 37.1284 223.25 37.8058 223.644 38.1773C224.037 38.5488 224.507 38.7454 225.053 38.7673C226.233 38.7673 227.446 37.9806 228.691 36.4073L228.954 36.0468L230.724 28.9341Z" fill="#132AF4" stroke="#132AF4" stroke-width="2"/>
<path d="M540.133 250.139C539.299 250.139 538.804 250.124 538.65 250.093C538.495 250.062 538.418 249.892 538.418 249.583C538.418 248.748 538.588 248.238 538.928 248.053C538.99 248.022 541.678 248.006 546.995 248.006C552.311 248.037 555.185 248.084 555.618 248.145C557.349 248.393 558.801 248.825 559.976 249.444C561.15 250.062 561.985 250.773 562.479 251.576C562.974 252.38 563.298 253.044 563.453 253.57C563.607 254.095 563.7 254.621 563.731 255.146C563.731 256.537 563.283 257.835 562.386 259.04C561.49 260.246 560.455 261.173 559.28 261.822C558.106 262.471 557.07 262.996 556.174 263.398C555.278 263.8 554.69 264.001 554.412 264.001L554.737 264.233C556.808 265.407 557.843 267.107 557.843 269.332C557.843 269.672 557.766 270.615 557.611 272.16C557.457 273.706 557.379 274.973 557.379 275.962V276.379C557.379 276.936 557.395 277.368 557.426 277.677C557.457 277.986 557.627 278.265 557.936 278.512C558.245 278.759 558.647 278.898 559.141 278.929C560.007 278.929 560.717 278.589 561.274 277.909C561.83 277.229 562.232 276.503 562.479 275.73C562.634 275.298 562.757 275.035 562.85 274.942C562.943 274.849 563.175 274.803 563.545 274.803C564.164 274.803 564.473 274.988 564.473 275.359C564.473 275.916 564.102 276.797 563.36 278.002C562.186 279.764 560.795 280.645 559.188 280.645H558.77C556.885 280.645 555.324 280.258 554.088 279.486C552.851 278.713 552.172 277.507 552.048 275.869C552.048 275.035 552.28 273.737 552.743 271.975C553.207 270.213 553.439 269.085 553.439 268.591C553.439 267.014 552.774 265.871 551.445 265.16C550.982 264.944 550.595 264.82 550.286 264.789C549.977 264.758 548.88 264.727 546.995 264.696H543.796L542.312 270.723C541.292 274.803 540.782 276.874 540.782 276.936C540.782 277.059 540.798 277.137 540.829 277.167C540.859 277.198 540.968 277.26 541.153 277.353C541.339 277.446 541.601 277.477 541.941 277.446C542.281 277.415 542.791 277.446 543.471 277.538H544.908C545.094 277.786 545.186 277.925 545.186 277.956C545.186 277.986 545.14 278.265 545.047 278.79C544.924 279.192 544.769 279.486 544.584 279.671H543.888C542.776 279.609 540.751 279.578 537.815 279.578C536.764 279.578 535.791 279.578 534.894 279.578C533.998 279.578 533.287 279.578 532.762 279.578C532.236 279.578 531.912 279.594 531.788 279.625C531.263 279.625 531 279.486 531 279.207C531 279.146 531.046 278.929 531.139 278.558C531.294 277.971 531.448 277.647 531.603 277.585C531.726 277.554 531.958 277.538 532.298 277.538H532.576C533.411 277.538 534.338 277.492 535.358 277.399C535.791 277.307 536.084 277.121 536.239 276.843C536.332 276.719 537.444 272.423 539.577 263.955C541.709 255.486 542.776 251.02 542.776 250.556C542.776 250.34 541.895 250.201 540.133 250.139ZM558.678 253.987C558.678 252.998 558.353 252.163 557.704 251.483C557.055 250.803 555.726 250.371 553.717 250.185C553.655 250.185 553.3 250.185 552.651 250.185C552.002 250.185 551.414 250.17 550.889 250.139H549.869C548.416 250.139 547.582 250.294 547.365 250.603C547.335 250.695 546.809 252.751 545.789 256.769C544.769 260.787 544.259 262.842 544.259 262.935C544.259 262.966 545.326 262.981 547.458 262.981C549.869 262.95 551.476 262.842 552.28 262.656C554.258 262.347 555.803 261.436 556.916 259.921C557.41 259.21 557.828 258.283 558.168 257.139C558.508 255.996 558.678 254.945 558.678 253.987Z" fill="#132AF4" stroke="#132AF4" stroke-width="2"/>
<path d="M570.479 277.153C570.479 276.453 570.653 275.743 571.003 275.022C571.353 274.301 571.964 273.635 572.838 273.023C573.713 272.411 574.772 272.116 576.018 272.138C577.373 272.138 578.356 272.433 578.968 273.023C579.58 273.613 579.896 274.268 579.918 274.989C579.918 275.689 579.733 276.202 579.361 276.53C578.99 276.858 578.574 277.033 578.116 277.054C577.832 277.054 577.569 276.967 577.329 276.792C577.089 276.617 576.957 276.333 576.936 275.94C576.936 275.59 577.034 275.284 577.231 275.022C577.427 274.76 577.613 274.563 577.788 274.432C577.963 274.301 578.105 274.236 578.214 274.236C578.236 274.236 578.247 274.225 578.247 274.203C578.247 274.137 578.17 274.039 578.017 273.908C577.864 273.777 577.591 273.656 577.198 273.547C576.805 273.438 576.378 273.372 575.92 273.351C574.871 273.351 574.106 273.635 573.625 274.203C573.144 274.771 572.893 275.35 572.871 275.94C572.871 276.486 573.079 276.869 573.494 277.087C573.909 277.306 574.51 277.491 575.297 277.644C576.083 277.797 576.652 277.961 577.001 278.136C578.443 278.77 579.164 279.819 579.164 281.283C579.164 281.895 579.044 282.506 578.804 283.118C578.564 283.73 578.203 284.342 577.722 284.954C577.242 285.566 576.553 286.046 575.657 286.396C574.761 286.746 573.734 286.931 572.576 286.953C570.894 286.953 569.703 286.636 569.004 286.003C568.304 285.369 567.944 284.626 567.922 283.774C567.922 282.922 568.151 282.31 568.61 281.938C569.069 281.567 569.55 281.381 570.052 281.381C570.38 281.381 570.686 281.479 570.97 281.676C571.254 281.873 571.407 282.211 571.429 282.692C571.429 283.26 571.232 283.741 570.839 284.134C570.446 284.528 570.107 284.724 569.823 284.724C569.779 284.746 569.746 284.757 569.725 284.757C569.703 284.757 569.692 284.779 569.692 284.823C569.714 284.888 569.801 284.976 569.954 285.085C570.107 285.194 570.446 285.336 570.97 285.511C571.495 285.686 572.096 285.762 572.773 285.74C573.56 285.74 574.237 285.62 574.805 285.38C575.373 285.139 575.788 284.834 576.051 284.462C576.313 284.091 576.499 283.752 576.608 283.446C576.717 283.14 576.772 282.867 576.772 282.627C576.772 282.015 576.542 281.556 576.083 281.25C575.625 280.944 575.1 280.758 574.51 280.693C573.92 280.627 573.275 280.463 572.576 280.201C571.877 279.939 571.363 279.556 571.036 279.054C570.664 278.508 570.479 277.874 570.479 277.153Z" fill="#132AF4" stroke="#132AF4" stroke-width="2"/>
<path d="M844.087 250.139C843.036 250.139 842.48 250.077 842.418 249.954C842.387 249.892 842.371 249.768 842.371 249.583C842.371 248.841 842.541 248.331 842.881 248.053C842.943 248.022 843.175 248.007 843.577 248.007C845.246 248.099 847.208 248.146 849.465 248.146C853.823 248.146 856.326 248.099 856.975 248.007H857.531C857.717 248.192 857.81 248.331 857.81 248.424C857.81 248.516 857.779 248.795 857.717 249.258C857.562 249.722 857.423 250.015 857.3 250.139H855.538C853.405 250.17 852.154 250.309 851.783 250.556C851.566 250.68 851.35 251.113 851.134 251.854C850.917 252.596 849.882 256.676 848.027 264.094C847.533 266.103 847.008 268.235 846.451 270.492C845.895 272.748 845.478 274.448 845.199 275.591L844.782 277.26C844.782 277.384 844.921 277.446 845.199 277.446C845.478 277.446 846.389 277.477 847.935 277.538H848.723C849.712 277.538 850.5 277.523 851.087 277.492C851.675 277.461 852.432 277.353 853.359 277.168C854.286 276.982 855.059 276.704 855.677 276.333C856.295 275.962 856.975 275.437 857.717 274.757C858.459 274.077 859.108 273.227 859.664 272.207C860.159 271.28 860.622 270.244 861.055 269.101C861.488 267.957 861.75 267.308 861.843 267.154C861.998 267.061 862.26 267.015 862.631 267.015H863.234C863.419 267.293 863.512 267.463 863.512 267.525C863.512 267.586 863.203 268.498 862.585 270.26C861.967 272.022 861.287 273.876 860.545 275.823C859.803 277.77 859.401 278.914 859.34 279.254C859.278 279.408 859.216 279.501 859.154 279.532C859.092 279.563 858.845 279.609 858.412 279.671C857.98 279.733 857.315 279.748 856.419 279.717C856.079 279.717 854.904 279.717 852.895 279.717C850.886 279.717 848.97 279.702 847.147 279.671H838.894C836.298 279.671 835 279.517 835 279.207C835 278.991 835.031 278.775 835.093 278.558C835.247 277.971 835.402 277.647 835.556 277.585C835.68 277.554 835.912 277.538 836.252 277.538H836.53C837.364 277.538 838.292 277.492 839.312 277.399C839.744 277.307 840.038 277.121 840.192 276.843C840.285 276.719 841.398 272.423 843.53 263.955C845.663 255.486 846.729 251.02 846.729 250.556C846.729 250.34 845.848 250.201 844.087 250.139Z" fill="#132AF4" stroke="#132AF4" stroke-width="2"/>
<path d="M872.649 266.958C872.649 266.434 872.857 265.975 873.272 265.582C873.687 265.188 874.168 264.981 874.714 264.959C875.108 264.959 875.435 265.09 875.698 265.352C875.96 265.615 876.102 265.942 876.124 266.336C876.124 266.838 875.905 267.297 875.468 267.712C875.031 268.128 874.55 268.346 874.026 268.368C873.698 268.368 873.392 268.259 873.108 268.04C872.824 267.822 872.671 267.461 872.649 266.958ZM867.307 277.218C867.307 277.043 867.405 276.704 867.602 276.202C867.798 275.699 868.061 275.142 868.388 274.53C868.716 273.918 869.197 273.361 869.83 272.858C870.464 272.356 871.12 272.115 871.797 272.137C872.649 272.137 873.36 272.389 873.928 272.891C874.496 273.394 874.791 274.071 874.813 274.923C874.813 275.295 874.66 275.907 874.354 276.759C874.048 277.611 873.611 278.758 873.043 280.2C872.475 281.643 872.016 282.877 871.666 283.904C871.557 284.385 871.502 284.735 871.502 284.953C871.502 285.499 871.688 285.773 872.059 285.773C872.256 285.773 872.464 285.74 872.682 285.674C872.901 285.609 873.152 285.456 873.436 285.215C873.72 284.975 874.015 284.593 874.321 284.068C874.627 283.544 874.9 282.899 875.14 282.134C875.206 281.872 875.261 281.719 875.304 281.675C875.348 281.632 875.534 281.61 875.862 281.61C876.299 281.61 876.517 281.719 876.517 281.938C876.517 282.112 876.419 282.451 876.222 282.954C876.025 283.456 875.752 284.014 875.403 284.625C875.053 285.237 874.561 285.784 873.928 286.264C873.294 286.745 872.617 286.985 871.895 286.985C871.196 286.985 870.552 286.756 869.962 286.297C869.372 285.838 869.066 285.139 869.044 284.199C869.044 283.828 869.098 283.478 869.208 283.15C869.317 282.823 869.787 281.577 870.617 279.414C871.447 277.207 871.928 275.885 872.059 275.448C872.19 275.011 872.267 274.585 872.289 274.169C872.289 273.645 872.103 273.383 871.732 273.383H871.666C871.01 273.383 870.41 273.743 869.863 274.464C869.317 275.186 868.902 276.103 868.618 277.218C868.596 277.24 868.574 277.272 868.552 277.316C868.53 277.36 868.519 277.393 868.519 277.414C868.519 277.436 868.498 277.458 868.454 277.48C868.41 277.502 868.377 277.513 868.356 277.513C868.334 277.513 868.29 277.513 868.224 277.513C868.159 277.513 868.071 277.513 867.962 277.513H867.503C867.372 277.382 867.307 277.283 867.307 277.218Z" fill="#132AF4" stroke="#132AF4" stroke-width="2"/>
<path d="M194 268.009C194 264.454 195.035 261.039 197.106 257.763C199.177 254.487 201.789 251.89 204.941 249.974C208.094 248.058 211.246 247.084 214.399 247.053C217.181 247.053 219.39 247.841 221.028 249.418C221.307 249.727 221.538 249.99 221.724 250.206C221.909 250.422 222.033 250.577 222.095 250.669L222.141 250.809C222.234 250.809 222.651 250.407 223.393 249.603C223.609 249.418 223.841 249.201 224.088 248.954C224.336 248.707 224.583 248.46 224.83 248.212C225.077 247.965 225.232 247.795 225.294 247.702L225.989 247.007H226.267C226.7 247.007 226.916 247.115 226.916 247.331C226.916 247.455 226.422 249.572 225.433 253.683C224.32 257.979 223.764 260.143 223.764 260.173C223.702 260.328 223.625 260.421 223.532 260.452C223.439 260.483 223.161 260.513 222.697 260.544H221.956C221.77 260.359 221.678 260.22 221.678 260.127C221.678 260.096 221.693 259.988 221.724 259.803C221.755 259.617 221.786 259.308 221.817 258.875C221.848 258.443 221.863 257.948 221.863 257.392C221.863 255.197 221.368 253.281 220.379 251.643C219.39 250.005 217.706 249.17 215.326 249.14C214.522 249.14 213.657 249.248 212.73 249.464C211.803 249.68 210.69 250.051 209.392 250.577C208.094 251.102 206.811 251.968 205.544 253.173C204.277 254.378 203.149 255.816 202.16 257.485C201.171 259.246 200.382 261.302 199.795 263.651C199.208 266 198.914 267.916 198.914 269.399C198.914 272.923 200.089 275.457 202.438 277.003C203.921 278.053 205.745 278.579 207.908 278.579C210.721 278.579 213.224 277.528 215.419 275.426C217.613 273.325 219.066 271.037 219.777 268.565C219.9 268.163 219.993 267.931 220.055 267.869C220.117 267.808 220.364 267.777 220.797 267.777C221.415 267.777 221.724 267.916 221.724 268.194C221.724 268.348 221.708 268.488 221.678 268.611C220.781 271.918 218.865 274.762 215.929 277.142C212.993 279.521 209.84 280.711 206.471 280.711C202.979 280.711 200.027 279.552 197.616 277.234C195.205 274.916 194 271.841 194 268.009Z" fill="#132AF4" stroke="#132AF4" stroke-width="2"/>
</svg>
