<?xml version="1.0" encoding="utf-8" standalone="no"?>
<!DOCTYPE svg PUBLIC "-//W3C//DTD SVG 1.1//EN"
  "http://www.w3.org/Graphics/SVG/1.1/DTD/svg11.dtd">
<svg xmlns:xlink="http://www.w3.org/1999/xlink" width="576pt" height="360pt" viewBox="0 0 576 360" xmlns="http://www.w3.org/2000/svg" version="1.1">
 <metadata>
  <rdf:RDF xmlns:dc="http://purl.org/dc/elements/1.1/" xmlns:cc="http://creativecommons.org/ns#" xmlns:rdf="http://www.w3.org/1999/02/22-rdf-syntax-ns#">
   <cc:Work>
    <dc:type rdf:resource="http://purl.org/dc/dcmitype/StillImage"/>
    <dc:date>2024-07-19T17:47:44.110063</dc:date>
    <dc:format>image/svg+xml</dc:format>
    <dc:creator>
     <cc:Agent>
      <dc:title>Matplotlib v3.7.2, https://matplotlib.org/</dc:title>
     </cc:Agent>
    </dc:creator>
   </cc:Work>
  </rdf:RDF>
 </metadata>
 <defs>
  <style type="text/css">*{stroke-linejoin: round; stroke-linecap: butt}</style>
 </defs>
 <g id="figure_1">
  <g id="patch_1">
   <path d="M 0 360 
L 576 360 
L 576 0 
L 0 0 
L 0 360 
z
" style="fill: none"/>
  </g>
  <g id="axes_1">
   <g id="patch_2">
    <path d="M 3.00024 116.99976 
L 572.99976 116.99976 
L 572.99976 16.598677 
L 3.00024 16.598677 
L 3.00024 116.99976 
z
" style="fill: none"/>
   </g>
   <g id="matplotlib.axis_1">
    <g id="xtick_1">
     <g id="line2d_1">
      <path d="M 28.909309 116.99976 
L 28.909309 16.598677 
" clip-path="url(#pe082a8304f)" style="fill: none; stroke: #b0b0b0; stroke-width: 0.8; stroke-linecap: square"/>
     </g>
    </g>
    <g id="xtick_2">
     <g id="line2d_2">
      <path d="M 72.091091 116.99976 
L 72.091091 16.598677 
" clip-path="url(#pe082a8304f)" style="fill: none; stroke: #b0b0b0; stroke-width: 0.8; stroke-linecap: square"/>
     </g>
    </g>
    <g id="xtick_3">
     <g id="line2d_3">
      <path d="M 115.272873 116.99976 
L 115.272873 16.598677 
" clip-path="url(#pe082a8304f)" style="fill: none; stroke: #b0b0b0; stroke-width: 0.8; stroke-linecap: square"/>
     </g>
    </g>
    <g id="xtick_4">
     <g id="line2d_4">
      <path d="M 158.454655 116.99976 
L 158.454655 16.598677 
" clip-path="url(#pe082a8304f)" style="fill: none; stroke: #b0b0b0; stroke-width: 0.8; stroke-linecap: square"/>
     </g>
    </g>
    <g id="xtick_5">
     <g id="line2d_5">
      <path d="M 201.636436 116.99976 
L 201.636436 16.598677 
" clip-path="url(#pe082a8304f)" style="fill: none; stroke: #b0b0b0; stroke-width: 0.8; stroke-linecap: square"/>
     </g>
    </g>
    <g id="xtick_6">
     <g id="line2d_6">
      <path d="M 244.818218 116.99976 
L 244.818218 16.598677 
" clip-path="url(#pe082a8304f)" style="fill: none; stroke: #b0b0b0; stroke-width: 0.8; stroke-linecap: square"/>
     </g>
    </g>
    <g id="xtick_7">
     <g id="line2d_7">
      <path d="M 288 116.99976 
L 288 16.598677 
" clip-path="url(#pe082a8304f)" style="fill: none; stroke: #b0b0b0; stroke-width: 0.8; stroke-linecap: square"/>
     </g>
    </g>
    <g id="xtick_8">
     <g id="line2d_8">
      <path d="M 331.181782 116.99976 
L 331.181782 16.598677 
" clip-path="url(#pe082a8304f)" style="fill: none; stroke: #b0b0b0; stroke-width: 0.8; stroke-linecap: square"/>
     </g>
    </g>
    <g id="xtick_9">
     <g id="line2d_9">
      <path d="M 374.363564 116.99976 
L 374.363564 16.598677 
" clip-path="url(#pe082a8304f)" style="fill: none; stroke: #b0b0b0; stroke-width: 0.8; stroke-linecap: square"/>
     </g>
    </g>
    <g id="xtick_10">
     <g id="line2d_10">
      <path d="M 417.545345 116.99976 
L 417.545345 16.598677 
" clip-path="url(#pe082a8304f)" style="fill: none; stroke: #b0b0b0; stroke-width: 0.8; stroke-linecap: square"/>
     </g>
    </g>
    <g id="xtick_11">
     <g id="line2d_11">
      <path d="M 460.727127 116.99976 
L 460.727127 16.598677 
" clip-path="url(#pe082a8304f)" style="fill: none; stroke: #b0b0b0; stroke-width: 0.8; stroke-linecap: square"/>
     </g>
    </g>
    <g id="xtick_12">
     <g id="line2d_12">
      <path d="M 503.908909 116.99976 
L 503.908909 16.598677 
" clip-path="url(#pe082a8304f)" style="fill: none; stroke: #b0b0b0; stroke-width: 0.8; stroke-linecap: square"/>
     </g>
    </g>
    <g id="xtick_13">
     <g id="line2d_13">
      <path d="M 547.090691 116.99976 
L 547.090691 16.598677 
" clip-path="url(#pe082a8304f)" style="fill: none; stroke: #b0b0b0; stroke-width: 0.8; stroke-linecap: square"/>
     </g>
    </g>
   </g>
   <g id="matplotlib.axis_2">
    <g id="ytick_1">
     <g id="line2d_14">
      <path d="M 3.00024 112.436097 
L 572.99976 112.436097 
" clip-path="url(#pe082a8304f)" style="fill: none; stroke: #b0b0b0; stroke-width: 0.8; stroke-linecap: square"/>
     </g>
    </g>
    <g id="ytick_2">
     <g id="line2d_15">
      <path d="M 3.00024 89.617658 
L 572.99976 89.617658 
" clip-path="url(#pe082a8304f)" style="fill: none; stroke: #b0b0b0; stroke-width: 0.8; stroke-linecap: square"/>
     </g>
    </g>
    <g id="ytick_3">
     <g id="line2d_16">
      <path d="M 3.00024 66.799219 
L 572.99976 66.799219 
" clip-path="url(#pe082a8304f)" style="fill: none; stroke: #b0b0b0; stroke-width: 0.8; stroke-linecap: square"/>
     </g>
    </g>
    <g id="ytick_4">
     <g id="line2d_17">
      <path d="M 3.00024 43.980779 
L 572.99976 43.980779 
" clip-path="url(#pe082a8304f)" style="fill: none; stroke: #b0b0b0; stroke-width: 0.8; stroke-linecap: square"/>
     </g>
    </g>
    <g id="ytick_5">
     <g id="line2d_18">
      <path d="M 3.00024 21.16234 
L 572.99976 21.16234 
" clip-path="url(#pe082a8304f)" style="fill: none; stroke: #b0b0b0; stroke-width: 0.8; stroke-linecap: square"/>
     </g>
    </g>
   </g>
   <g id="line2d_19">
    <path d="M 3.00024 66.799219 
L 572.99976 66.799219 
" clip-path="url(#pe082a8304f)" style="fill: none; stroke: #778899; stroke-width: 2; stroke-linecap: square"/>
   </g>
   <g id="line2d_20">
    <path d="M 28.909309 116.99976 
L 28.909309 16.598677 
" clip-path="url(#pe082a8304f)" style="fill: none; stroke: #778899; stroke-width: 2; stroke-linecap: square"/>
   </g>
   <g id="line2d_21">
    <path d="M 28.909309 66.799219 
L 36.827121 53.835812 
L 41.490753 46.634262 
L 45.118023 41.423274 
L 48.227111 37.304599 
L 51.336199 33.562789 
L 53.927106 30.767148 
L 56.518013 28.29133 
L 59.10892 26.157311 
L 61.181646 24.709026 
L 63.254371 23.499906 
L 65.327097 22.536822 
L 67.399822 21.825245 
L 69.472548 21.369219 
L 71.545273 21.171335 
L 73.617999 21.232718 
L 75.690724 21.553019 
L 77.76345 22.130418 
L 79.836175 22.961635 
L 81.908901 24.041945 
L 83.981626 25.36521 
L 86.054352 26.923911 
L 88.645259 29.189755 
L 91.236166 31.789422 
L 93.827073 34.699839 
L 96.936161 38.565974 
L 100.045249 42.792857 
L 103.672519 48.107886 
L 107.81797 54.574436 
L 114.036146 64.746817 
L 123.363411 80.037301 
L 128.027044 87.22101 
L 131.654313 92.412991 
L 134.763402 96.512067 
L 137.87249 100.231491 
L 140.463397 103.006553 
L 143.054304 105.460235 
L 145.645211 107.570759 
L 147.717936 108.99941 
L 149.790662 110.18827 
L 151.863387 111.130586 
L 153.936113 111.821001 
L 156.008838 112.255594 
L 158.081564 112.431895 
L 160.154289 112.348901 
L 162.227015 112.007086 
L 164.299741 111.40839 
L 166.372466 110.556216 
L 168.445192 109.455406 
L 170.517917 108.112215 
L 172.590643 106.534275 
L 175.18155 104.245518 
L 177.772456 101.624384 
L 180.363363 98.69414 
L 183.472452 94.806621 
L 186.58154 90.561241 
L 190.20881 85.228592 
L 194.872442 77.915193 
L 201.6088 66.845098 
L 209.899702 53.286983 
L 214.563335 46.121398 
L 218.190604 40.948631 
L 221.299693 36.869314 
L 224.408781 33.172423 
L 226.999688 30.418051 
L 229.590595 27.986601 
L 232.181502 25.899655 
L 234.254227 24.490695 
L 236.326953 23.322141 
L 238.399678 22.400633 
L 240.472404 21.731406 
L 242.545129 21.318263 
L 244.617855 21.163552 
L 246.69058 21.268152 
L 248.763306 21.631469 
L 250.836031 22.251438 
L 252.908757 23.124536 
L 254.981482 24.245803 
L 257.054208 25.608867 
L 259.126933 27.205982 
L 261.71784 29.517564 
L 264.308747 32.16006 
L 266.899654 35.110016 
L 270.008742 39.018764 
L 273.117831 43.282473 
L 276.7451 48.632532 
L 281.408733 55.96157 
L 288.145091 67.040083 
L 295.917812 79.762625 
L 300.581444 86.964175 
L 304.208714 92.175164 
L 307.317802 96.293838 
L 310.42689 100.035648 
L 313.017797 102.831289 
L 315.608704 105.307107 
L 318.199611 107.441126 
L 320.272336 108.889411 
L 322.345062 110.098531 
L 324.417788 111.061616 
L 326.490513 111.773193 
L 328.563239 112.229219 
L 330.635964 112.427102 
L 332.70869 112.365719 
L 334.781415 112.045418 
L 336.854141 111.468019 
L 338.926866 110.636803 
L 340.999592 109.556493 
L 343.072317 108.233228 
L 345.145043 106.674526 
L 347.73595 104.408683 
L 350.326857 101.809016 
L 352.917764 98.898599 
L 356.026852 95.032463 
L 359.13594 90.80558 
L 362.76321 85.490551 
L 366.908661 79.024001 
L 373.126837 68.85162 
L 382.454102 53.561136 
L 387.117735 46.377427 
L 390.745004 41.185447 
L 393.854093 37.08637 
L 396.963181 33.366946 
L 399.554088 30.591885 
L 402.144995 28.138203 
L 404.735902 26.027678 
L 406.808627 24.599028 
L 408.881353 23.410167 
L 410.954078 22.467852 
L 413.026804 21.777436 
L 415.099529 21.342844 
L 417.172255 21.166543 
L 419.24498 21.249536 
L 421.317706 21.591352 
L 423.390431 22.190048 
L 425.463157 23.042222 
L 427.535882 24.143032 
L 429.608608 25.486223 
L 431.681334 27.064162 
L 434.27224 29.35292 
L 436.863147 31.974054 
L 439.454054 34.904298 
L 442.563143 38.791816 
L 445.672231 43.037196 
L 449.299501 48.369845 
L 453.963133 55.683244 
L 460.699491 66.75334 
L 468.990393 80.311454 
L 473.654025 87.477039 
L 477.281295 92.649807 
L 480.390383 96.729124 
L 483.499472 100.426015 
L 486.090379 103.180387 
L 488.681286 105.611837 
L 491.272192 107.698783 
L 493.344918 109.107742 
L 495.417644 110.276296 
L 497.490369 111.197805 
L 499.563095 111.867032 
L 501.63582 112.280175 
L 503.708546 112.434885 
L 505.781271 112.330285 
L 507.853997 111.966968 
L 509.926722 111.346999 
L 511.999448 110.473901 
L 514.072173 109.352634 
L 516.144899 107.989571 
L 518.217624 106.392456 
L 520.808531 104.080874 
L 523.399438 101.438378 
L 525.990345 98.488422 
L 529.099433 94.579674 
L 532.208522 90.315964 
L 535.835791 84.965906 
L 540.499424 77.636867 
L 547.090691 66.799219 
L 547.090691 66.799219 
" clip-path="url(#pe082a8304f)" style="fill: none; stroke: #0000ff; stroke-width: 1.5; stroke-linecap: square"/>
   </g>
   <g id="patch_3">
    <path d="M 3.00024 116.99976 
L 3.00024 16.598677 
" style="fill: none; stroke: #000000; stroke-width: 0.8; stroke-linejoin: miter; stroke-linecap: square"/>
   </g>
   <g id="patch_4">
    <path d="M 572.99976 116.99976 
L 572.99976 16.598677 
" style="fill: none; stroke: #000000; stroke-width: 0.8; stroke-linejoin: miter; stroke-linecap: square"/>
   </g>
   <g id="patch_5">
    <path d="M 3.00024 116.99976 
L 572.99976 116.99976 
" style="fill: none; stroke: #000000; stroke-width: 0.8; stroke-linejoin: miter; stroke-linecap: square"/>
   </g>
   <g id="patch_6">
    <path d="M 3.00024 16.598677 
L 572.99976 16.598677 
" style="fill: none; stroke: #000000; stroke-width: 0.8; stroke-linejoin: miter; stroke-linecap: square"/>
   </g>
   <g id="text_1">
    <!-- ԼԱՐՄԱՆ ԿԱԽՈՒՄԸ ԺԱՄԱՆԱԿԻՑ։ -->
    <g style="fill: #0000ff" transform="translate(14.40023 10.598677) scale(0.1 -0.1)">
     <defs>
      <path id="DejaVuSans-53c" d="M 1222 4666 
L 1222 547 
L 3413 547 
L 3413 0 
L 588 0 
L 588 4666 
L 1222 4666 
z
" transform="scale(0.015625)"/>
      <path id="DejaVuSans-531" d="M 2825 1509 
Q 2947 1347 3080 1206 
Q 3213 1066 3356 938 
Q 3494 1253 3494 1831 
L 3494 4666 
L 4128 4666 
L 4128 1753 
Q 4128 1038 3825 588 
Q 4072 428 4350 306 
L 4131 -188 
Q 3778 -25 3441 200 
Q 3225 56 2951 -17 
Q 2678 -91 2344 -91 
Q 1478 -91 1017 373 
Q 556 838 556 1753 
L 556 4666 
L 1191 4666 
L 1191 1831 
Q 1191 1456 1256 1189 
Q 1322 922 1461 751 
Q 1600 581 1819 501 
Q 2038 422 2344 422 
Q 2541 422 2700 450 
Q 2859 478 2988 541 
Q 2819 681 2672 831 
Q 2525 981 2406 1144 
L 2825 1509 
z
" transform="scale(0.015625)"/>
      <path id="DejaVuSans-550" d="M 556 0 
L 556 2913 
Q 556 3828 1009 4292 
Q 1463 4756 2331 4756 
Q 3203 4756 3665 4301 
Q 4128 3847 4128 2913 
L 4128 2734 
L 3494 2734 
L 3494 2834 
Q 3494 3213 3425 3480 
Q 3356 3747 3212 3917 
Q 3069 4088 2850 4166 
Q 2631 4244 2331 4244 
Q 2025 4244 1809 4166 
Q 1594 4088 1456 3917 
Q 1319 3747 1255 3480 
Q 1191 3213 1191 2834 
L 1191 0 
L 556 0 
z
" transform="scale(0.015625)"/>
      <path id="DejaVuSans-544" d="M 4128 4119 
L 4128 1753 
Q 4128 844 3676 376 
Q 3225 -91 2344 -91 
Q 1456 -91 1006 370 
Q 556 831 556 1753 
L 556 4666 
L 1191 4666 
L 1191 1831 
Q 1191 1456 1256 1189 
Q 1322 922 1461 751 
Q 1600 581 1819 501 
Q 2038 422 2344 422 
Q 2647 422 2865 501 
Q 3084 581 3223 751 
Q 3363 922 3428 1189 
Q 3494 1456 3494 1831 
L 3494 4666 
L 4909 4666 
L 4909 4119 
L 4128 4119 
z
" transform="scale(0.015625)"/>
      <path id="DejaVuSans-546" d="M 1416 4666 
L 1416 1831 
Q 1416 1456 1480 1189 
Q 1544 922 1684 751 
Q 1825 581 2044 501 
Q 2263 422 2572 422 
Q 2878 422 3095 501 
Q 3313 581 3452 753 
Q 3591 925 3655 1190 
Q 3719 1456 3719 1831 
L 3719 1931 
L 4353 1931 
L 4353 1753 
Q 4353 841 3901 375 
Q 3450 -91 2566 -91 
Q 1684 -91 1232 379 
Q 781 850 781 1753 
L 781 4116 
L 0 4116 
L 0 4666 
L 1416 4666 
z
" transform="scale(0.015625)"/>
      <path id="DejaVuSans-20" transform="scale(0.015625)"/>
      <path id="DejaVuSans-53f" d="M 4128 0 
L 3494 0 
L 3494 1509 
Q 3278 1313 2993 1208 
Q 2709 1103 2341 1103 
Q 1909 1103 1578 1215 
Q 1247 1328 1019 1558 
Q 791 1788 673 2133 
Q 556 2478 556 2947 
L 556 4666 
L 1191 4666 
L 1191 3025 
Q 1191 2647 1258 2380 
Q 1325 2113 1465 1942 
Q 1606 1772 1823 1694 
Q 2041 1616 2341 1616 
Q 2641 1616 2858 1694 
Q 3075 1772 3217 1940 
Q 3359 2109 3426 2376 
Q 3494 2644 3494 3025 
L 3494 3500 
L 4128 3500 
L 4128 0 
z
" transform="scale(0.015625)"/>
      <path id="DejaVuSans-53d" d="M 3031 3500 
L 3031 1253 
Q 3031 1019 3115 859 
Q 3200 700 3331 603 
Q 3463 506 3622 464 
Q 3781 422 3931 422 
Q 4081 422 4234 464 
Q 4388 506 4514 603 
Q 4641 700 4720 859 
Q 4800 1019 4800 1253 
L 4800 3500 
L 5434 3500 
L 5434 1328 
Q 5434 956 5321 689 
Q 5209 422 5009 248 
Q 4809 75 4534 -8 
Q 4259 -91 3931 -91 
Q 3603 -91 3323 -8 
Q 3044 75 2837 248 
Q 2631 422 2514 689 
Q 2397 956 2397 1328 
L 2397 2953 
L 1222 2953 
L 1222 0 
L 588 0 
L 588 4666 
L 1222 4666 
L 1222 3500 
L 3031 3500 
z
" transform="scale(0.015625)"/>
      <path id="DejaVuSans-548" d="M 556 0 
L 556 2913 
Q 556 3834 1006 4295 
Q 1456 4756 2344 4756 
Q 3225 4756 3676 4290 
Q 4128 3825 4128 2913 
L 4128 0 
L 3494 0 
L 3494 2834 
Q 3494 3213 3426 3480 
Q 3359 3747 3218 3917 
Q 3078 4088 2861 4166 
Q 2644 4244 2344 4244 
Q 2038 4244 1820 4166 
Q 1603 4088 1462 3917 
Q 1322 3747 1256 3480 
Q 1191 3213 1191 2834 
L 1191 0 
L 556 0 
z
" transform="scale(0.015625)"/>
      <path id="DejaVuSans-552" d="M 1222 4666 
L 1222 3500 
L 3441 3500 
L 3441 2953 
L 1222 2953 
L 1222 0 
L 588 0 
L 588 4666 
L 1222 4666 
z
" transform="scale(0.015625)"/>
      <path id="DejaVuSans-538" d="M 556 0 
L 556 2913 
Q 556 3828 1009 4292 
Q 1463 4756 2338 4756 
Q 3216 4756 3672 4295 
Q 4128 3834 4128 2913 
L 4128 2734 
L 3494 2734 
L 3494 2834 
Q 3494 3213 3426 3480 
Q 3359 3747 3218 3917 
Q 3078 4088 2861 4166 
Q 2644 4244 2344 4244 
Q 2038 4244 1820 4166 
Q 1603 4088 1462 3917 
Q 1322 3747 1256 3480 
Q 1191 3213 1191 2834 
L 1191 547 
L 4159 547 
L 4159 0 
L 556 0 
z
" transform="scale(0.015625)"/>
      <path id="DejaVuSans-53a" d="M 3884 1872 
Q 3884 1416 3770 1052 
Q 3656 688 3431 434 
Q 3206 181 2873 45 
Q 2541 -91 2106 -91 
Q 1669 -91 1331 54 
Q 994 200 762 445 
Q 531 691 411 1017 
Q 291 1344 291 1706 
Q 291 2069 411 2394 
Q 531 2719 762 2966 
Q 994 3213 1331 3356 
Q 1669 3500 2103 3500 
L 3250 3500 
L 3250 4666 
L 3884 4666 
L 3884 3500 
L 4666 3500 
L 4666 2953 
L 3884 2953 
L 3884 1872 
z
M 2100 2953 
Q 1803 2953 1586 2850 
Q 1369 2747 1226 2575 
Q 1084 2403 1015 2178 
Q 947 1953 947 1706 
Q 947 1459 1005 1228 
Q 1063 997 1197 817 
Q 1331 638 1554 530 
Q 1778 422 2106 422 
Q 2706 422 2978 808 
Q 3250 1194 3250 1950 
L 3250 2953 
L 2100 2953 
z
" transform="scale(0.015625)"/>
      <path id="DejaVuSans-53b" d="M 588 4666 
L 1222 4666 
L 1222 3094 
Q 1419 3334 1712 3448 
Q 2006 3563 2375 3563 
Q 2806 3563 3137 3450 
Q 3469 3338 3697 3108 
Q 3925 2878 4042 2533 
Q 4159 2188 4159 1719 
L 4159 1484 
L 3525 1484 
L 3525 1641 
Q 3525 2019 3458 2286 
Q 3391 2553 3250 2723 
Q 3109 2894 2892 2972 
Q 2675 3050 2375 3050 
Q 2075 3050 1858 2972 
Q 1641 2894 1498 2725 
Q 1356 2556 1289 2287 
Q 1222 2019 1222 1641 
L 1222 0 
L 588 0 
L 588 4666 
z
" transform="scale(0.015625)"/>
      <path id="DejaVuSans-551" d="M 4322 1388 
Q 4322 1066 4201 795 
Q 4081 525 3842 328 
Q 3603 131 3243 20 
Q 2884 -91 2406 -91 
Q 1928 -91 1570 25 
Q 1213 141 975 344 
Q 738 547 619 820 
Q 500 1094 500 1409 
L 1134 1409 
Q 1134 1206 1201 1028 
Q 1269 850 1419 714 
Q 1569 578 1811 500 
Q 2053 422 2406 422 
Q 2756 422 2998 500 
Q 3241 578 3387 712 
Q 3534 847 3600 1022 
Q 3666 1197 3666 1391 
Q 3666 1791 3350 1989 
Q 3034 2188 2406 2188 
L 556 2188 
L 556 2734 
L 1256 2734 
Q 1156 2788 1070 2866 
Q 984 2944 921 3042 
Q 859 3141 823 3256 
Q 788 3372 788 3500 
Q 788 3797 903 4030 
Q 1019 4263 1231 4423 
Q 1444 4584 1742 4668 
Q 2041 4753 2406 4753 
Q 2772 4753 3072 4670 
Q 3372 4588 3586 4428 
Q 3800 4269 3919 4039 
Q 4038 3809 4038 3519 
Q 4038 3334 3980 3171 
Q 3922 3009 3822 2879 
Q 3722 2750 3590 2656 
Q 3459 2563 3316 2516 
Q 3528 2463 3711 2364 
Q 3894 2266 4030 2123 
Q 4166 1981 4244 1797 
Q 4322 1613 4322 1388 
z
M 2406 2734 
Q 2659 2734 2845 2795 
Q 3031 2856 3151 2961 
Q 3272 3066 3330 3209 
Q 3388 3353 3388 3519 
Q 3388 3888 3139 4067 
Q 2891 4247 2406 4247 
Q 1922 4247 1672 4065 
Q 1422 3884 1422 3500 
Q 1422 3381 1459 3248 
Q 1497 3116 1603 3000 
Q 1709 2884 1903 2809 
Q 2097 2734 2406 2734 
z
" transform="scale(0.015625)"/>
      <path id="DejaVuSans-589" d="M 750 794 
L 1409 794 
L 1409 0 
L 750 0 
L 750 794 
z
M 750 2656 
L 1409 2656 
L 1409 1863 
L 750 1863 
L 750 2656 
z
" transform="scale(0.015625)"/>
     </defs>
     <use xlink:href="#DejaVuSans-53c"/>
     <use xlink:href="#DejaVuSans-531" x="53.320312"/>
     <use xlink:href="#DejaVuSans-550" x="129.931641"/>
     <use xlink:href="#DejaVuSans-544" x="199.316406"/>
     <use xlink:href="#DejaVuSans-531" x="278.466797"/>
     <use xlink:href="#DejaVuSans-546" x="355.078125"/>
     <use xlink:href="#DejaVuSans-20" x="427.978516"/>
     <use xlink:href="#DejaVuSans-53f" x="459.765625"/>
     <use xlink:href="#DejaVuSans-531" x="532.958984"/>
     <use xlink:href="#DejaVuSans-53d" x="609.570312"/>
     <use xlink:href="#DejaVuSans-548" x="701.757812"/>
     <use xlink:href="#DejaVuSans-552" x="774.951172"/>
     <use xlink:href="#DejaVuSans-544" x="828.710938"/>
     <use xlink:href="#DejaVuSans-538" x="907.861328"/>
     <use xlink:href="#DejaVuSans-20" x="981.054688"/>
     <use xlink:href="#DejaVuSans-53a" x="1012.841797"/>
     <use xlink:href="#DejaVuSans-531" x="1088.183594"/>
     <use xlink:href="#DejaVuSans-544" x="1164.794922"/>
     <use xlink:href="#DejaVuSans-531" x="1243.945312"/>
     <use xlink:href="#DejaVuSans-546" x="1320.556641"/>
     <use xlink:href="#DejaVuSans-531" x="1393.457031"/>
     <use xlink:href="#DejaVuSans-53f" x="1470.068359"/>
     <use xlink:href="#DejaVuSans-53b" x="1543.261719"/>
     <use xlink:href="#DejaVuSans-551" x="1612.353516"/>
     <use xlink:href="#DejaVuSans-589" x="1686.71875"/>
    </g>
   </g>
  </g>
  <g id="axes_2">
   <g id="patch_7">
    <path d="M 3.00024 236.99976 
L 572.99976 236.99976 
L 572.99976 136.598678 
L 3.00024 136.598678 
L 3.00024 236.99976 
z
" style="fill: none"/>
   </g>
   <g id="matplotlib.axis_3">
    <g id="xtick_14">
     <g id="line2d_22">
      <path d="M 28.909309 236.99976 
L 28.909309 136.598678 
" clip-path="url(#pea459b08bd)" style="fill: none; stroke: #b0b0b0; stroke-width: 0.8; stroke-linecap: square"/>
     </g>
    </g>
    <g id="xtick_15">
     <g id="line2d_23">
      <path d="M 72.091091 236.99976 
L 72.091091 136.598678 
" clip-path="url(#pea459b08bd)" style="fill: none; stroke: #b0b0b0; stroke-width: 0.8; stroke-linecap: square"/>
     </g>
    </g>
    <g id="xtick_16">
     <g id="line2d_24">
      <path d="M 115.272873 236.99976 
L 115.272873 136.598678 
" clip-path="url(#pea459b08bd)" style="fill: none; stroke: #b0b0b0; stroke-width: 0.8; stroke-linecap: square"/>
     </g>
    </g>
    <g id="xtick_17">
     <g id="line2d_25">
      <path d="M 158.454655 236.99976 
L 158.454655 136.598678 
" clip-path="url(#pea459b08bd)" style="fill: none; stroke: #b0b0b0; stroke-width: 0.8; stroke-linecap: square"/>
     </g>
    </g>
    <g id="xtick_18">
     <g id="line2d_26">
      <path d="M 201.636436 236.99976 
L 201.636436 136.598678 
" clip-path="url(#pea459b08bd)" style="fill: none; stroke: #b0b0b0; stroke-width: 0.8; stroke-linecap: square"/>
     </g>
    </g>
    <g id="xtick_19">
     <g id="line2d_27">
      <path d="M 244.818218 236.99976 
L 244.818218 136.598678 
" clip-path="url(#pea459b08bd)" style="fill: none; stroke: #b0b0b0; stroke-width: 0.8; stroke-linecap: square"/>
     </g>
    </g>
    <g id="xtick_20">
     <g id="line2d_28">
      <path d="M 288 236.99976 
L 288 136.598678 
" clip-path="url(#pea459b08bd)" style="fill: none; stroke: #b0b0b0; stroke-width: 0.8; stroke-linecap: square"/>
     </g>
    </g>
    <g id="xtick_21">
     <g id="line2d_29">
      <path d="M 331.181782 236.99976 
L 331.181782 136.598678 
" clip-path="url(#pea459b08bd)" style="fill: none; stroke: #b0b0b0; stroke-width: 0.8; stroke-linecap: square"/>
     </g>
    </g>
    <g id="xtick_22">
     <g id="line2d_30">
      <path d="M 374.363564 236.99976 
L 374.363564 136.598678 
" clip-path="url(#pea459b08bd)" style="fill: none; stroke: #b0b0b0; stroke-width: 0.8; stroke-linecap: square"/>
     </g>
    </g>
    <g id="xtick_23">
     <g id="line2d_31">
      <path d="M 417.545345 236.99976 
L 417.545345 136.598678 
" clip-path="url(#pea459b08bd)" style="fill: none; stroke: #b0b0b0; stroke-width: 0.8; stroke-linecap: square"/>
     </g>
    </g>
    <g id="xtick_24">
     <g id="line2d_32">
      <path d="M 460.727127 236.99976 
L 460.727127 136.598678 
" clip-path="url(#pea459b08bd)" style="fill: none; stroke: #b0b0b0; stroke-width: 0.8; stroke-linecap: square"/>
     </g>
    </g>
    <g id="xtick_25">
     <g id="line2d_33">
      <path d="M 503.908909 236.99976 
L 503.908909 136.598678 
" clip-path="url(#pea459b08bd)" style="fill: none; stroke: #b0b0b0; stroke-width: 0.8; stroke-linecap: square"/>
     </g>
    </g>
    <g id="xtick_26">
     <g id="line2d_34">
      <path d="M 547.090691 236.99976 
L 547.090691 136.598678 
" clip-path="url(#pea459b08bd)" style="fill: none; stroke: #b0b0b0; stroke-width: 0.8; stroke-linecap: square"/>
     </g>
    </g>
   </g>
   <g id="matplotlib.axis_4">
    <g id="ytick_6">
     <g id="line2d_35">
      <path d="M 3.00024 235.219553 
L 572.99976 235.219553 
" clip-path="url(#pea459b08bd)" style="fill: none; stroke: #b0b0b0; stroke-width: 0.8; stroke-linecap: square"/>
     </g>
    </g>
    <g id="ytick_7">
     <g id="line2d_36">
      <path d="M 3.00024 211.009154 
L 572.99976 211.009154 
" clip-path="url(#pea459b08bd)" style="fill: none; stroke: #b0b0b0; stroke-width: 0.8; stroke-linecap: square"/>
     </g>
    </g>
    <g id="ytick_8">
     <g id="line2d_37">
      <path d="M 3.00024 186.798754 
L 572.99976 186.798754 
" clip-path="url(#pea459b08bd)" style="fill: none; stroke: #b0b0b0; stroke-width: 0.8; stroke-linecap: square"/>
     </g>
    </g>
    <g id="ytick_9">
     <g id="line2d_38">
      <path d="M 3.00024 162.588355 
L 572.99976 162.588355 
" clip-path="url(#pea459b08bd)" style="fill: none; stroke: #b0b0b0; stroke-width: 0.8; stroke-linecap: square"/>
     </g>
    </g>
    <g id="ytick_10">
     <g id="line2d_39">
      <path d="M 3.00024 138.377956 
L 572.99976 138.377956 
" clip-path="url(#pea459b08bd)" style="fill: none; stroke: #b0b0b0; stroke-width: 0.8; stroke-linecap: square"/>
     </g>
    </g>
   </g>
   <g id="line2d_40">
    <path d="M 3.00024 186.798754 
L 572.99976 186.798754 
" clip-path="url(#pea459b08bd)" style="fill: none; stroke: #778899; stroke-width: 2; stroke-linecap: square"/>
   </g>
   <g id="line2d_41">
    <path d="M 28.909309 236.99976 
L 28.909309 136.598678 
" clip-path="url(#pea459b08bd)" style="fill: none; stroke: #778899; stroke-width: 2; stroke-linecap: square"/>
   </g>
   <g id="line2d_42">
    <path d="M 28.909309 186.798754 
L 28.914491 141.163227 
L 28.992218 141.163422 
L 30.608944 141.249536 
L 32.68167 141.591352 
L 34.754395 142.190048 
L 36.827121 143.042222 
L 38.899846 144.143032 
L 40.972572 145.486223 
L 43.045297 147.064162 
L 45.636204 149.351991 
L 48.227111 151.974054 
L 50.818018 154.903369 
L 53.927106 158.790888 
L 57.036194 163.036267 
L 60.663464 168.369845 
L 64.808915 174.850942 
L 71.027092 185.033311 
L 80.354357 200.311454 
L 85.017989 207.47611 
L 88.645259 212.649807 
L 91.754347 216.729124 
L 94.863435 220.426015 
L 97.454342 223.179458 
L 100.045249 225.611837 
L 102.636156 227.697854 
L 104.708882 229.106814 
L 106.781607 230.275368 
L 108.854333 231.196876 
L 110.927058 231.866103 
L 112.999784 232.279246 
L 115.072509 232.433957 
L 117.145235 232.329356 
L 119.21796 231.96604 
L 121.290686 231.346071 
L 123.363411 230.472972 
L 125.436137 229.351706 
L 127.508862 227.988642 
L 129.581588 226.391527 
L 132.172495 224.080874 
L 134.763402 221.437449 
L 137.354309 218.488422 
L 140.463397 214.579674 
L 143.572485 210.315964 
L 147.199755 204.964977 
L 151.345206 198.46959 
L 157.563383 188.277635 
L 166.890647 173.012435 
L 171.55428 165.866186 
L 175.18155 160.711906 
L 178.290638 156.65251 
L 181.399726 152.978298 
L 183.990633 150.245653 
L 186.58154 147.835603 
L 189.172447 145.773246 
L 191.245172 144.384033 
L 193.317898 143.235831 
L 195.390623 142.335166 
L 197.463349 141.687154 
L 199.536074 141.295478 
L 201.6088 141.162363 
L 203.681526 141.288566 
L 205.754251 141.67337 
L 207.826977 142.314587 
L 209.899702 143.208575 
L 211.972428 144.350254 
L 214.045153 145.733137 
L 216.117879 147.349365 
L 218.708786 149.68275 
L 221.299693 152.347434 
L 223.890599 155.316056 
L 226.999688 159.245879 
L 230.108776 163.52775 
L 233.736046 168.895936 
L 238.399678 176.239396 
L 245.654217 188.185922 
L 252.908757 200.036372 
L 257.054208 206.447198 
L 260.681478 211.696514 
L 263.790566 215.853895 
L 266.899654 219.640034 
L 269.490561 222.475574 
L 272.081468 224.996297 
L 274.672375 227.176123 
L 276.7451 228.663505 
L 278.817826 229.913 
L 280.890551 230.917509 
L 282.963277 231.671323 
L 285.036002 232.17016 
L 287.108728 232.411186 
L 289.181454 232.393029 
L 291.254179 232.115794 
L 293.326905 231.581056 
L 295.39963 230.791854 
L 297.472356 229.752671 
L 299.545081 228.469413 
L 301.617807 226.949371 
L 303.690532 225.201183 
L 306.281439 222.711297 
L 308.872346 219.900796 
L 311.463253 216.798333 
L 314.572341 212.725373 
L 318.199611 207.557868 
L 322.345062 201.216828 
L 327.526876 192.847954 
L 340.999592 170.843974 
L 345.145043 164.601791 
L 348.772312 159.549491 
L 351.881401 155.592086 
L 354.472308 152.59592 
L 357.063215 149.905194 
L 359.654121 147.540085 
L 362.245028 145.525292 
L 364.317754 144.175736 
L 366.390479 143.068375 
L 368.463205 142.209501 
L 370.53593 141.603995 
L 372.608656 141.255298 
L 374.681382 141.16539 
L 376.754107 141.334782 
L 378.826833 141.762513 
L 380.899558 142.446151 
L 382.972284 143.381812 
L 385.045009 144.56418 
L 387.117735 145.986535 
L 389.19046 147.640796 
L 391.781367 150.01937 
L 394.372274 152.726254 
L 396.963181 155.733715 
L 400.072269 159.705222 
L 403.699539 164.773292 
L 407.326809 170.222419 
L 411.990441 177.640128 
L 420.799525 192.187957 
L 426.49952 201.402624 
L 430.644971 207.732252 
L 434.27224 212.884674 
L 437.381329 216.94407 
L 440.490417 220.618282 
L 443.081324 223.352784 
L 445.672231 225.760977 
L 448.263138 227.825192 
L 450.335863 229.214405 
L 452.408589 230.362606 
L 454.481314 231.263272 
L 456.55404 231.911284 
L 458.626765 232.30296 
L 460.699491 232.436074 
L 462.772216 232.309872 
L 464.844942 231.925068 
L 466.917668 231.28385 
L 468.990393 230.389862 
L 471.063119 229.248183 
L 473.135844 227.865301 
L 475.20857 226.249073 
L 477.799477 223.91383 
L 480.390383 221.251004 
L 482.98129 218.280524 
L 486.090379 214.350701 
L 489.199467 210.06883 
L 492.826737 204.702502 
L 497.490369 197.357184 
L 504.226727 186.27162 
L 511.999448 173.560208 
L 516.66308 166.377427 
L 520.29035 161.184518 
L 523.399438 157.085441 
L 526.508526 153.366017 
L 529.099433 150.591885 
L 531.69034 148.137274 
L 534.281247 146.027678 
L 536.353973 144.599028 
L 538.426698 143.410167 
L 540.499424 142.467852 
L 542.572149 141.777436 
L 544.644875 141.342844 
L 546.7176 141.166543 
L 547.090691 141.162713 
L 547.090691 141.162713 
" clip-path="url(#pea459b08bd)" style="fill: none; stroke: #0000ff; stroke-width: 1.5; stroke-linecap: square"/>
   </g>
   <g id="patch_8">
    <path d="M 3.00024 236.99976 
L 3.00024 136.598678 
" style="fill: none; stroke: #000000; stroke-width: 0.8; stroke-linejoin: miter; stroke-linecap: square"/>
   </g>
   <g id="patch_9">
    <path d="M 572.99976 236.99976 
L 572.99976 136.598678 
" style="fill: none; stroke: #000000; stroke-width: 0.8; stroke-linejoin: miter; stroke-linecap: square"/>
   </g>
   <g id="patch_10">
    <path d="M 3.00024 236.99976 
L 572.99976 236.99976 
" style="fill: none; stroke: #000000; stroke-width: 0.8; stroke-linejoin: miter; stroke-linecap: square"/>
   </g>
   <g id="patch_11">
    <path d="M 3.00024 136.598678 
L 572.99976 136.598678 
" style="fill: none; stroke: #000000; stroke-width: 0.8; stroke-linejoin: miter; stroke-linecap: square"/>
   </g>
   <g id="text_2">
    <!-- ՀՈՍԱՆՔԻ ԿԱԽՈՒՄԸ ԺԱՄԱՆԱԿԻՑ։ -->
    <g style="fill: #0000ff" transform="translate(14.40023 130.598678) scale(0.1 -0.1)">
     <defs>
      <path id="DejaVuSans-540" d="M 4081 475 
L 4081 -169 
L 950 831 
Q 756 891 595 980 
Q 434 1069 336 1187 
Q 238 1306 220 1456 
Q 203 1606 295 1789 
Q 388 1972 605 2187 
Q 822 2403 1194 2653 
Q 1678 2978 2165 3237 
Q 2653 3497 3166 3719 
L 2519 4666 
L 3263 4666 
L 4072 3494 
Q 3719 3359 3401 3221 
Q 3084 3084 2782 2932 
Q 2481 2781 2189 2611 
Q 1897 2441 1597 2241 
Q 1275 2025 1126 1881 
Q 978 1738 958 1641 
Q 938 1544 1025 1484 
Q 1113 1425 1259 1378 
L 4081 475 
z
" transform="scale(0.015625)"/>
      <path id="DejaVuSans-54d" d="M 556 4666 
L 1191 4666 
L 1191 1831 
Q 1191 1081 1462 751 
Q 1734 422 2344 422 
Q 2950 422 3222 751 
Q 3494 1081 3494 1831 
L 3494 4666 
L 4128 4666 
L 4128 1753 
Q 4128 841 3676 375 
Q 3225 -91 2344 -91 
Q 1459 -91 1007 375 
Q 556 841 556 1753 
L 556 4666 
z
" transform="scale(0.015625)"/>
      <path id="DejaVuSans-554" d="M 2531 1472 
Q 2338 1472 2166 1505 
Q 1994 1538 1847 1595 
Q 1700 1653 1583 1734 
Q 1466 1816 1384 1909 
L 1384 1028 
L 4259 1028 
L 4259 481 
L 1384 481 
L 1384 0 
L 750 0 
L 750 481 
L 156 481 
L 156 1028 
L 750 1028 
L 750 2944 
Q 750 3856 1203 4306 
Q 1656 4756 2528 4756 
Q 2963 4756 3302 4634 
Q 3641 4513 3872 4295 
Q 4103 4078 4223 3775 
Q 4344 3472 4344 3109 
Q 4344 2747 4223 2445 
Q 4103 2144 3872 1928 
Q 3641 1713 3303 1592 
Q 2966 1472 2531 1472 
z
M 1440 3561 
Q 1384 3353 1384 3109 
Q 1384 2866 1440 2664 
Q 1497 2463 1631 2319 
Q 1766 2175 1986 2097 
Q 2206 2019 2534 2019 
Q 2863 2019 3084 2097 
Q 3306 2175 3439 2317 
Q 3572 2459 3630 2661 
Q 3688 2863 3688 3109 
Q 3688 3356 3628 3564 
Q 3569 3772 3433 3923 
Q 3297 4075 3075 4159 
Q 2853 4244 2528 4244 
Q 2203 4244 1984 4158 
Q 1766 4072 1631 3920 
Q 1497 3769 1440 3561 
z
" transform="scale(0.015625)"/>
     </defs>
     <use xlink:href="#DejaVuSans-540"/>
     <use xlink:href="#DejaVuSans-548" x="71.582031"/>
     <use xlink:href="#DejaVuSans-54d" x="144.775391"/>
     <use xlink:href="#DejaVuSans-531" x="217.96875"/>
     <use xlink:href="#DejaVuSans-546" x="294.580078"/>
     <use xlink:href="#DejaVuSans-554" x="367.480469"/>
     <use xlink:href="#DejaVuSans-53b" x="443.164062"/>
     <use xlink:href="#DejaVuSans-20" x="512.255859"/>
     <use xlink:href="#DejaVuSans-53f" x="544.042969"/>
     <use xlink:href="#DejaVuSans-531" x="617.236328"/>
     <use xlink:href="#DejaVuSans-53d" x="693.847656"/>
     <use xlink:href="#DejaVuSans-548" x="786.035156"/>
     <use xlink:href="#DejaVuSans-552" x="859.228516"/>
     <use xlink:href="#DejaVuSans-544" x="912.988281"/>
     <use xlink:href="#DejaVuSans-538" x="992.138672"/>
     <use xlink:href="#DejaVuSans-20" x="1065.332031"/>
     <use xlink:href="#DejaVuSans-53a" x="1097.119141"/>
     <use xlink:href="#DejaVuSans-531" x="1172.460938"/>
     <use xlink:href="#DejaVuSans-544" x="1249.072266"/>
     <use xlink:href="#DejaVuSans-531" x="1328.222656"/>
     <use xlink:href="#DejaVuSans-546" x="1404.833984"/>
     <use xlink:href="#DejaVuSans-531" x="1477.734375"/>
     <use xlink:href="#DejaVuSans-53f" x="1554.345703"/>
     <use xlink:href="#DejaVuSans-53b" x="1627.539062"/>
     <use xlink:href="#DejaVuSans-551" x="1696.630859"/>
     <use xlink:href="#DejaVuSans-589" x="1770.996094"/>
    </g>
   </g>
  </g>
  <g id="axes_3">
   <g id="patch_12">
    <path d="M 3.00024 356.99976 
L 572.99976 356.99976 
L 572.99976 256.598678 
L 3.00024 256.598678 
L 3.00024 356.99976 
z
" style="fill: none"/>
   </g>
   <g id="matplotlib.axis_5">
    <g id="xtick_27">
     <g id="line2d_43">
      <path d="M 28.909309 356.99976 
L 28.909309 256.598678 
" clip-path="url(#pb85127b9ce)" style="fill: none; stroke: #b0b0b0; stroke-width: 0.8; stroke-linecap: square"/>
     </g>
    </g>
    <g id="xtick_28">
     <g id="line2d_44">
      <path d="M 72.091091 356.99976 
L 72.091091 256.598678 
" clip-path="url(#pb85127b9ce)" style="fill: none; stroke: #b0b0b0; stroke-width: 0.8; stroke-linecap: square"/>
     </g>
    </g>
    <g id="xtick_29">
     <g id="line2d_45">
      <path d="M 115.272873 356.99976 
L 115.272873 256.598678 
" clip-path="url(#pb85127b9ce)" style="fill: none; stroke: #b0b0b0; stroke-width: 0.8; stroke-linecap: square"/>
     </g>
    </g>
    <g id="xtick_30">
     <g id="line2d_46">
      <path d="M 158.454655 356.99976 
L 158.454655 256.598678 
" clip-path="url(#pb85127b9ce)" style="fill: none; stroke: #b0b0b0; stroke-width: 0.8; stroke-linecap: square"/>
     </g>
    </g>
    <g id="xtick_31">
     <g id="line2d_47">
      <path d="M 201.636436 356.99976 
L 201.636436 256.598678 
" clip-path="url(#pb85127b9ce)" style="fill: none; stroke: #b0b0b0; stroke-width: 0.8; stroke-linecap: square"/>
     </g>
    </g>
    <g id="xtick_32">
     <g id="line2d_48">
      <path d="M 244.818218 356.99976 
L 244.818218 256.598678 
" clip-path="url(#pb85127b9ce)" style="fill: none; stroke: #b0b0b0; stroke-width: 0.8; stroke-linecap: square"/>
     </g>
    </g>
    <g id="xtick_33">
     <g id="line2d_49">
      <path d="M 288 356.99976 
L 288 256.598678 
" clip-path="url(#pb85127b9ce)" style="fill: none; stroke: #b0b0b0; stroke-width: 0.8; stroke-linecap: square"/>
     </g>
    </g>
    <g id="xtick_34">
     <g id="line2d_50">
      <path d="M 331.181782 356.99976 
L 331.181782 256.598678 
" clip-path="url(#pb85127b9ce)" style="fill: none; stroke: #b0b0b0; stroke-width: 0.8; stroke-linecap: square"/>
     </g>
    </g>
    <g id="xtick_35">
     <g id="line2d_51">
      <path d="M 374.363564 356.99976 
L 374.363564 256.598678 
" clip-path="url(#pb85127b9ce)" style="fill: none; stroke: #b0b0b0; stroke-width: 0.8; stroke-linecap: square"/>
     </g>
    </g>
    <g id="xtick_36">
     <g id="line2d_52">
      <path d="M 417.545345 356.99976 
L 417.545345 256.598678 
" clip-path="url(#pb85127b9ce)" style="fill: none; stroke: #b0b0b0; stroke-width: 0.8; stroke-linecap: square"/>
     </g>
    </g>
    <g id="xtick_37">
     <g id="line2d_53">
      <path d="M 460.727127 356.99976 
L 460.727127 256.598678 
" clip-path="url(#pb85127b9ce)" style="fill: none; stroke: #b0b0b0; stroke-width: 0.8; stroke-linecap: square"/>
     </g>
    </g>
    <g id="xtick_38">
     <g id="line2d_54">
      <path d="M 503.908909 356.99976 
L 503.908909 256.598678 
" clip-path="url(#pb85127b9ce)" style="fill: none; stroke: #b0b0b0; stroke-width: 0.8; stroke-linecap: square"/>
     </g>
    </g>
    <g id="xtick_39">
     <g id="line2d_55">
      <path d="M 547.090691 356.99976 
L 547.090691 256.598678 
" clip-path="url(#pb85127b9ce)" style="fill: none; stroke: #b0b0b0; stroke-width: 0.8; stroke-linecap: square"/>
     </g>
    </g>
   </g>
   <g id="matplotlib.axis_6">
    <g id="ytick_11">
     <g id="line2d_56">
      <path d="M 3.00024 345.535358 
L 572.99976 345.535358 
" clip-path="url(#pb85127b9ce)" style="fill: none; stroke: #b0b0b0; stroke-width: 0.8; stroke-linecap: square"/>
     </g>
    </g>
    <g id="ytick_12">
     <g id="line2d_57">
      <path d="M 3.00024 306.799218 
L 572.99976 306.799218 
" clip-path="url(#pb85127b9ce)" style="fill: none; stroke: #b0b0b0; stroke-width: 0.8; stroke-linecap: square"/>
     </g>
    </g>
    <g id="ytick_13">
     <g id="line2d_58">
      <path d="M 3.00024 268.063078 
L 572.99976 268.063078 
" clip-path="url(#pb85127b9ce)" style="fill: none; stroke: #b0b0b0; stroke-width: 0.8; stroke-linecap: square"/>
     </g>
    </g>
   </g>
   <g id="line2d_59">
    <path d="M 3.00024 306.799218 
L 572.99976 306.799218 
" clip-path="url(#pb85127b9ce)" style="fill: none; stroke: #778899; stroke-width: 2; stroke-linecap: square"/>
   </g>
   <g id="line2d_60">
    <path d="M 28.909309 356.99976 
L 28.909309 256.598678 
" clip-path="url(#pb85127b9ce)" style="fill: none; stroke: #778899; stroke-width: 2; stroke-linecap: square"/>
   </g>
   <g id="line2d_61">
    <path d="M 28.909309 306.799218 
L 33.718032 291.157322 
L 36.308939 283.40059 
L 38.381665 277.779996 
L 40.45439 272.818032 
L 42.008934 269.59802 
L 43.563479 266.851644 
L 45.118023 264.617574 
L 46.154385 263.425513 
L 47.190748 262.479913 
L 48.227111 261.786145 
L 49.263474 261.348154 
L 50.299837 261.168427 
L 51.336199 261.247987 
L 52.372562 261.58638 
L 53.408925 262.181685 
L 54.445288 263.030518 
L 55.48165 264.128058 
L 56.518013 265.468066 
L 58.072557 267.914065 
L 59.627101 270.860145 
L 61.181646 274.262105 
L 63.254371 279.438677 
L 65.327097 285.236222 
L 67.918004 293.156672 
L 72.063455 306.70839 
L 77.245268 323.514622 
L 79.836175 331.173951 
L 81.908901 336.693218 
L 83.981626 341.533981 
L 85.53617 344.65418 
L 87.090715 347.287426 
L 88.645259 349.406502 
L 89.681622 350.517102 
L 90.717984 351.379291 
L 91.754347 351.988171 
L 92.79071 352.340281 
L 93.827073 352.43362 
L 94.863435 352.267659 
L 95.899798 351.843339 
L 96.936161 351.163072 
L 97.972524 350.230724 
L 99.008886 349.051591 
L 100.563431 346.834255 
L 102.117975 344.107263 
L 103.672519 340.901868 
L 105.227063 337.262246 
L 107.299789 331.811694 
L 109.890695 324.215594 
L 112.999784 314.311819 
L 121.290686 287.451496 
L 123.881593 280.04888 
L 125.954318 274.797881 
L 127.508862 271.331153 
L 129.063407 268.31602 
L 130.617951 265.794381 
L 132.172495 263.794717 
L 133.208858 262.76624 
L 134.24522 261.987964 
L 135.281583 261.464312 
L 136.317946 261.19826 
L 137.354309 261.191318 
L 138.390671 261.443527 
L 139.427034 261.953453 
L 140.463397 262.718199 
L 141.49976 263.733418 
L 142.536122 264.993343 
L 144.090667 267.327631 
L 145.645211 270.163056 
L 147.199755 273.469901 
L 149.27248 278.531184 
L 151.345206 284.234067 
L 153.936113 292.064752 
L 157.563383 303.84305 
L 163.263378 322.440361 
L 165.854285 330.198494 
L 167.92701 335.819 
L 169.999736 340.780873 
L 171.55428 344.000017 
L 173.108824 346.74712 
L 174.663368 348.980606 
L 175.699731 350.172716 
L 176.736094 351.118366 
L 177.772456 351.812182 
L 178.808819 352.250223 
L 179.845182 352.429999 
L 180.881545 352.350489 
L 181.917908 352.012146 
L 182.95427 351.41689 
L 183.990633 350.568106 
L 185.026996 349.470615 
L 186.063359 348.130655 
L 187.617903 345.684013 
L 189.172447 342.73872 
L 190.726991 339.335834 
L 192.799717 334.159172 
L 194.872442 328.361539 
L 197.463349 320.442542 
L 201.6088 306.890974 
L 206.272432 291.696969 
L 208.863339 283.895282 
L 210.936065 278.225508 
L 213.00879 273.204263 
L 214.563335 269.93227 
L 216.117879 267.133017 
L 217.672423 264.838734 
L 218.708786 263.60616 
L 219.745148 262.619015 
L 220.781511 261.882908 
L 221.817874 261.402022 
L 222.854237 261.17909 
L 223.890599 261.215377 
L 224.926962 261.510678 
L 225.963325 262.063314 
L 226.999688 262.870146 
L 228.03605 263.926589 
L 229.072413 265.226638 
L 230.626957 267.618565 
L 232.181502 270.5079 
L 233.736046 273.864259 
L 235.808771 278.983615 
L 237.881497 284.734303 
L 240.472404 292.608674 
L 244.617855 306.133073 
L 249.799669 322.977857 
L 252.390575 330.689001 
L 254.463301 336.259305 
L 256.536026 341.160983 
L 258.090571 344.329242 
L 259.645115 347.021242 
L 261.199659 349.196136 
L 262.236022 350.347602 
L 263.272384 351.251615 
L 264.308747 351.903037 
L 265.34511 352.298167 
L 266.381473 352.43476 
L 267.417836 352.31204 
L 268.454198 351.930704 
L 269.490561 351.29292 
L 270.526924 350.402311 
L 271.563287 349.263938 
L 273.117831 347.107305 
L 274.672375 344.433734 
L 276.226919 341.281016 
L 277.781463 337.686175 
L 279.854189 332.288846 
L 282.445096 324.744649 
L 285.554184 314.877029 
L 293.845086 287.972004 
L 296.435993 280.516181 
L 298.508718 275.209958 
L 300.063263 271.694016 
L 301.617807 268.628199 
L 303.172351 266.048348 
L 304.726895 263.991127 
L 305.763258 262.921536 
L 306.799621 262.10127 
L 307.835983 261.534988 
L 308.872346 261.225909 
L 309.908709 261.17579 
L 310.945072 261.384915 
L 311.981434 261.852096 
L 313.017797 262.574678 
L 314.05416 263.548557 
L 315.090523 264.768197 
L 316.645067 267.041326 
L 318.199611 269.825651 
L 319.754155 273.079106 
L 321.826881 278.081465 
L 323.899606 283.735602 
L 326.490513 291.524988 
L 330.117783 303.269165 
L 335.817778 321.902226 
L 338.408685 329.702499 
L 340.48141 335.37236 
L 342.554136 340.393696 
L 344.10868 343.666573 
L 345.663224 346.465083 
L 347.217768 348.759966 
L 348.254131 349.992491 
L 349.290494 350.979587 
L 350.326857 351.715645 
L 351.363219 352.196481 
L 352.399582 352.419364 
L 353.435945 352.383028 
L 354.472308 352.087677 
L 355.50867 351.534991 
L 356.545033 350.72811 
L 357.581396 349.671619 
L 358.617759 348.371521 
L 360.172303 345.98022 
L 361.726847 343.090116 
L 363.281391 339.734667 
L 365.354117 334.615401 
L 367.426842 328.8648 
L 370.017749 320.988992 
L 374.1632 307.464441 
L 379.345014 290.619499 
L 381.935921 282.910582 
L 384.008646 277.340322 
L 386.081372 272.438682 
L 387.635916 269.26794 
L 389.19046 266.578468 
L 390.745004 264.40101 
L 391.781367 263.249536 
L 392.81773 262.345517 
L 393.854093 261.69409 
L 394.890455 261.298957 
L 395.926818 261.162363 
L 396.963181 261.285084 
L 397.999544 261.666422 
L 399.035906 262.304211 
L 400.072269 263.194827 
L 401.108632 264.333208 
L 402.663176 266.492406 
L 404.21772 269.163448 
L 405.772264 272.31865 
L 407.326809 275.911058 
L 409.399534 281.30843 
L 411.990441 288.854884 
L 415.099529 298.722415 
L 423.390431 325.627144 
L 425.981338 333.081651 
L 428.054064 338.387963 
L 429.608608 341.904866 
L 431.163152 344.969862 
L 432.717696 347.550392 
L 434.27224 349.607078 
L 435.308603 350.676718 
L 436.344966 351.497033 
L 437.381329 352.063364 
L 438.417692 352.372493 
L 439.454054 352.422661 
L 440.490417 352.213586 
L 441.52678 351.746454 
L 442.563143 351.023921 
L 443.599505 350.050092 
L 444.635868 348.8305 
L 446.190412 346.556777 
L 447.744956 343.77319 
L 449.299501 340.518855 
L 451.372226 335.516405 
L 453.444952 329.862181 
L 456.035858 322.074205 
L 459.663128 310.32838 
L 465.881305 290.084553 
L 468.472212 282.423851 
L 470.544937 276.904673 
L 472.617663 272.064001 
L 474.172207 268.944639 
L 475.726751 266.310698 
L 477.281295 264.192174 
L 478.317658 263.081525 
L 479.354021 262.219286 
L 480.390383 261.610358 
L 481.426746 261.258198 
L 482.463109 261.164809 
L 483.499472 261.330721 
L 484.535834 261.754991 
L 485.572197 262.435209 
L 486.60856 263.367508 
L 487.644923 264.546592 
L 489.199467 266.764507 
L 490.754011 269.490777 
L 492.308555 272.697035 
L 493.863099 276.335655 
L 495.935825 281.786118 
L 498.526732 289.383572 
L 501.63582 299.287466 
L 509.926722 326.148049 
L 512.517629 333.548386 
L 514.590355 338.799344 
L 516.144899 342.268522 
L 517.699443 345.281155 
L 519.253987 347.805334 
L 520.808531 349.802425 
L 521.844894 350.830895 
L 522.881257 351.609165 
L 523.91762 352.132813 
L 524.953982 352.398863 
L 525.990345 352.405805 
L 527.026708 352.153598 
L 528.063071 351.643675 
L 529.099433 350.878935 
L 530.135796 349.863723 
L 531.172159 348.603808 
L 532.726703 346.272074 
L 534.281247 343.434133 
L 535.835791 340.129757 
L 537.908517 335.068434 
L 539.981242 329.365504 
L 542.572149 321.532616 
L 546.199419 309.756345 
L 547.090691 306.799218 
L 547.090691 306.799218 
" clip-path="url(#pb85127b9ce)" style="fill: none; stroke: #0000ff; stroke-width: 1.5; stroke-linecap: square"/>
   </g>
   <g id="patch_13">
    <path d="M 3.00024 356.99976 
L 3.00024 256.598678 
" style="fill: none; stroke: #000000; stroke-width: 0.8; stroke-linejoin: miter; stroke-linecap: square"/>
   </g>
   <g id="patch_14">
    <path d="M 572.99976 356.99976 
L 572.99976 256.598678 
" style="fill: none; stroke: #000000; stroke-width: 0.8; stroke-linejoin: miter; stroke-linecap: square"/>
   </g>
   <g id="patch_15">
    <path d="M 3.00024 356.99976 
L 572.99976 356.99976 
" style="fill: none; stroke: #000000; stroke-width: 0.8; stroke-linejoin: miter; stroke-linecap: square"/>
   </g>
   <g id="patch_16">
    <path d="M 3.00024 256.598678 
L 572.99976 256.598678 
" style="fill: none; stroke: #000000; stroke-width: 0.8; stroke-linejoin: miter; stroke-linecap: square"/>
   </g>
   <g id="text_3">
    <!-- ՀԶՈՐՈՒԹՅԱՆ ԱԿՆԹԱՐԹԱԻՆ ԱՐԺԵՔԸ։ -->
    <g style="fill: #0000ff" transform="translate(14.40023 250.598678) scale(0.1 -0.1)">
     <defs>
      <path id="DejaVuSans-536" d="M 4431 2803 
Q 4431 2481 4351 2200 
Q 4272 1919 4140 1680 
Q 4009 1441 3839 1247 
Q 3669 1053 3492 908 
Q 3316 763 3144 667 
Q 2972 572 2834 531 
L 4347 531 
L 4347 0 
L 659 0 
L 659 1038 
L 1294 1038 
L 1294 531 
L 1563 531 
Q 1753 531 1992 598 
Q 2231 666 2476 795 
Q 2722 925 2958 1117 
Q 3194 1309 3376 1562 
Q 3559 1816 3670 2127 
Q 3781 2438 3781 2803 
Q 3781 3125 3706 3392 
Q 3631 3659 3472 3848 
Q 3313 4038 3066 4142 
Q 2819 4247 2475 4247 
Q 2131 4247 1887 4147 
Q 1644 4047 1489 3872 
Q 1334 3697 1262 3461 
Q 1191 3225 1191 2956 
L 1191 2734 
L 556 2734 
L 556 2969 
Q 556 3347 675 3675 
Q 794 4003 1033 4243 
Q 1272 4484 1630 4621 
Q 1988 4759 2466 4759 
Q 2944 4759 3311 4618 
Q 3678 4478 3926 4220 
Q 4175 3963 4303 3602 
Q 4431 3241 4431 2803 
z
" transform="scale(0.015625)"/>
      <path id="DejaVuSans-539" d="M 3281 4166 
Q 3009 4244 2634 4244 
Q 2259 4244 1986 4166 
Q 1713 4088 1536 3917 
Q 1359 3747 1275 3480 
Q 1191 3213 1191 2834 
L 1191 0 
L 556 0 
L 556 2913 
Q 556 3372 698 3717 
Q 841 4063 1108 4294 
Q 1375 4525 1759 4640 
Q 2144 4756 2628 4756 
Q 3113 4756 3497 4640 
Q 3881 4525 4148 4294 
Q 4416 4063 4558 3717 
Q 4700 3372 4700 2913 
L 4700 2750 
L 5344 2750 
L 5344 2203 
L 4700 2203 
L 4700 1275 
Q 4700 941 4597 686 
Q 4494 431 4312 259 
Q 4131 88 3879 -1 
Q 3628 -91 3334 -91 
Q 3038 -91 2789 0 
Q 2541 91 2359 270 
Q 2178 450 2076 723 
Q 1975 997 1975 1362 
Q 1975 1728 2081 1990 
Q 2188 2253 2370 2422 
Q 2553 2591 2801 2670 
Q 3050 2750 3334 2750 
L 4066 2750 
L 4066 2825 
Q 4066 3206 3983 3476 
Q 3900 3747 3726 3917 
Q 3553 4088 3281 4166 
z
M 2629 1759 
Q 2578 1591 2578 1328 
Q 2578 1066 2636 891 
Q 2694 716 2795 612 
Q 2897 509 3034 465 
Q 3172 422 3334 422 
Q 3497 422 3631 464 
Q 3766 506 3862 607 
Q 3959 709 4012 876 
Q 4066 1044 4066 1294 
L 4066 2203 
L 3334 2203 
Q 3156 2203 3015 2164 
Q 2875 2125 2778 2026 
Q 2681 1928 2629 1759 
z
" transform="scale(0.015625)"/>
      <path id="DejaVuSans-545" d="M 4278 1388 
Q 4278 1066 4158 795 
Q 4038 525 3798 328 
Q 3559 131 3200 20 
Q 2841 -91 2362 -91 
Q 1884 -91 1526 25 
Q 1169 141 931 344 
Q 694 547 575 820 
Q 456 1094 456 1409 
L 1091 1409 
Q 1091 1206 1158 1028 
Q 1225 850 1375 714 
Q 1525 578 1767 500 
Q 2009 422 2363 422 
Q 2713 422 2955 500 
Q 3197 578 3344 712 
Q 3491 847 3556 1022 
Q 3622 1197 3622 1391 
Q 3622 1791 3306 1989 
Q 2991 2188 2363 2188 
L 513 2188 
L 513 2734 
L 2363 2734 
Q 2616 2734 2802 2795 
Q 2988 2856 3108 2961 
Q 3228 3066 3286 3209 
Q 3344 3353 3344 3519 
Q 3344 3888 3095 4064 
Q 2847 4241 2362 4241 
Q 1878 4241 1628 4062 
Q 1378 3884 1378 3500 
L 744 3500 
Q 744 3797 859 4030 
Q 975 4263 1187 4423 
Q 1400 4584 1698 4668 
Q 1997 4753 2362 4753 
Q 2728 4753 3028 4670 
Q 3328 4588 3542 4428 
Q 3756 4269 3875 4039 
Q 3994 3809 3994 3519 
Q 3994 3334 3936 3171 
Q 3878 3009 3778 2879 
Q 3678 2750 3547 2656 
Q 3416 2563 3272 2516 
Q 3484 2463 3667 2364 
Q 3850 2266 3986 2123 
Q 4122 1981 4200 1797 
Q 4278 1613 4278 1388 
z
" transform="scale(0.015625)"/>
      <path id="DejaVuSans-535" d="M 1191 4666 
L 1191 3500 
L 4159 3500 
L 4159 2953 
L 1191 2953 
L 1191 1831 
Q 1191 1453 1256 1186 
Q 1322 919 1462 748 
Q 1603 578 1820 500 
Q 2038 422 2344 422 
Q 2644 422 2861 500 
Q 3078 578 3218 748 
Q 3359 919 3426 1186 
Q 3494 1453 3494 1831 
L 3494 1931 
L 4128 1931 
L 4128 1753 
Q 4128 831 3672 370 
Q 3216 -91 2338 -91 
Q 1463 -91 1009 373 
Q 556 838 556 1753 
L 556 4666 
L 1191 4666 
z
" transform="scale(0.015625)"/>
     </defs>
     <use xlink:href="#DejaVuSans-540"/>
     <use xlink:href="#DejaVuSans-536" x="71.582031"/>
     <use xlink:href="#DejaVuSans-548" x="148.779297"/>
     <use xlink:href="#DejaVuSans-550" x="221.972656"/>
     <use xlink:href="#DejaVuSans-548" x="291.357422"/>
     <use xlink:href="#DejaVuSans-552" x="364.550781"/>
     <use xlink:href="#DejaVuSans-539" x="418.310547"/>
     <use xlink:href="#DejaVuSans-545" x="504.248047"/>
     <use xlink:href="#DejaVuSans-531" x="577.001953"/>
     <use xlink:href="#DejaVuSans-546" x="653.613281"/>
     <use xlink:href="#DejaVuSans-20" x="726.513672"/>
     <use xlink:href="#DejaVuSans-531" x="758.300781"/>
     <use xlink:href="#DejaVuSans-53f" x="834.912109"/>
     <use xlink:href="#DejaVuSans-546" x="908.105469"/>
     <use xlink:href="#DejaVuSans-539" x="981.005859"/>
     <use xlink:href="#DejaVuSans-531" x="1066.943359"/>
     <use xlink:href="#DejaVuSans-550" x="1143.554688"/>
     <use xlink:href="#DejaVuSans-539" x="1212.939453"/>
     <use xlink:href="#DejaVuSans-531" x="1298.876953"/>
     <use xlink:href="#DejaVuSans-53b" x="1375.488281"/>
     <use xlink:href="#DejaVuSans-546" x="1444.580078"/>
     <use xlink:href="#DejaVuSans-20" x="1517.480469"/>
     <use xlink:href="#DejaVuSans-531" x="1549.267578"/>
     <use xlink:href="#DejaVuSans-550" x="1625.878906"/>
     <use xlink:href="#DejaVuSans-53a" x="1695.263672"/>
     <use xlink:href="#DejaVuSans-535" x="1770.605469"/>
     <use xlink:href="#DejaVuSans-554" x="1843.798828"/>
     <use xlink:href="#DejaVuSans-538" x="1919.482422"/>
     <use xlink:href="#DejaVuSans-589" x="1992.675781"/>
    </g>
   </g>
  </g>
 </g>
 <defs>
  <clipPath id="pe082a8304f">
   <rect x="3.00024" y="16.598677" width="569.99952" height="100.401083"/>
  </clipPath>
  <clipPath id="pea459b08bd">
   <rect x="3.00024" y="136.598678" width="569.99952" height="100.401082"/>
  </clipPath>
  <clipPath id="pb85127b9ce">
   <rect x="3.00024" y="256.598678" width="569.99952" height="100.401083"/>
  </clipPath>
 </defs>
</svg>
