<svg width="303" height="331" viewBox="0 0 303 331" fill="none" xmlns="http://www.w3.org/2000/svg">
<circle cx="242" cy="7" r="5" fill="url(#paint0_radial_421_912)"/>
<circle cx="242" cy="17" r="5" fill="url(#paint1_radial_421_912)"/>
<circle cx="242" cy="27" r="5" fill="url(#paint2_radial_421_912)"/>
<circle cx="242" cy="37" r="5" fill="url(#paint3_radial_421_912)"/>
<circle cx="242" cy="47" r="5" fill="url(#paint4_radial_421_912)"/>
<circle cx="242" cy="57" r="5" fill="url(#paint5_radial_421_912)"/>
<circle cx="242" cy="67" r="5" fill="url(#paint6_radial_421_912)"/>
<circle cx="242" cy="77" r="5" fill="url(#paint7_radial_421_912)"/>
<circle cx="242" cy="87" r="5" fill="url(#paint8_radial_421_912)"/>
<circle cx="242" cy="97" r="5" fill="url(#paint9_radial_421_912)"/>
<circle cx="242" cy="107" r="5" fill="url(#paint10_radial_421_912)"/>
<circle cx="242" cy="117" r="5" fill="url(#paint11_radial_421_912)"/>
<circle cx="242" cy="127" r="5" fill="url(#paint12_radial_421_912)"/>
<circle cx="242" cy="137" r="5" fill="url(#paint13_radial_421_912)"/>
<circle cx="242" cy="147" r="5" fill="url(#paint14_radial_421_912)"/>
<circle cx="242" cy="157" r="5" fill="url(#paint15_radial_421_912)"/>
<circle cx="242" cy="167" r="5" fill="url(#paint16_radial_421_912)"/>
<circle cx="242" cy="177" r="5" fill="url(#paint17_radial_421_912)"/>
<circle cx="242" cy="187" r="5" fill="url(#paint18_radial_421_912)"/>
<circle cx="242" cy="197" r="5" fill="url(#paint19_radial_421_912)"/>
<rect x="236" y="1" width="12" height="202" stroke="#0BB7EE" stroke-width="2"/>
<circle cx="42" cy="7" r="5" fill="url(#paint20_radial_421_912)"/>
<circle cx="42" cy="17" r="5" fill="url(#paint21_radial_421_912)"/>
<circle cx="42" cy="27" r="5" fill="url(#paint22_radial_421_912)"/>
<circle cx="42" cy="37" r="5" fill="url(#paint23_radial_421_912)"/>
<circle cx="42" cy="47" r="5" fill="url(#paint24_radial_421_912)"/>
<circle cx="42" cy="57" r="5" fill="url(#paint25_radial_421_912)"/>
<circle cx="42" cy="67" r="5" fill="url(#paint26_radial_421_912)"/>
<circle cx="42" cy="77" r="5" fill="url(#paint27_radial_421_912)"/>
<circle cx="42" cy="87" r="5" fill="url(#paint28_radial_421_912)"/>
<circle cx="42" cy="97" r="5" fill="url(#paint29_radial_421_912)"/>
<circle cx="42" cy="107" r="5" fill="url(#paint30_radial_421_912)"/>
<circle cx="42" cy="117" r="5" fill="url(#paint31_radial_421_912)"/>
<circle cx="42" cy="127" r="5" fill="url(#paint32_radial_421_912)"/>
<circle cx="42" cy="137" r="5" fill="url(#paint33_radial_421_912)"/>
<circle cx="42" cy="147" r="5" fill="url(#paint34_radial_421_912)"/>
<circle cx="42" cy="157" r="5" fill="url(#paint35_radial_421_912)"/>
<circle cx="42" cy="167" r="5" fill="url(#paint36_radial_421_912)"/>
<circle cx="42" cy="177" r="5" fill="url(#paint37_radial_421_912)"/>
<circle cx="42" cy="187" r="5" fill="url(#paint38_radial_421_912)"/>
<circle cx="42" cy="197" r="5" fill="url(#paint39_radial_421_912)"/>
<rect x="36" y="1" width="12" height="202" stroke="#0BB7EE" stroke-width="2"/>
<path d="M49 4L235 4" stroke="#0BB7EE" stroke-width="2"/>
<path d="M226.955 3.98161L220.334 1.14408C220.186 1.08048 220.112 1.04868 220.065 1.0853C220.018 1.12191 220.032 1.20154 220.058 1.36079L220.493 3.96711C220.495 3.98352 220.497 3.99172 220.497 3.99999C220.497 4.00827 220.495 4.01647 220.493 4.03287L220.058 6.6392C220.032 6.79845 220.018 6.87808 220.065 6.91469C220.112 6.9513 220.186 6.9195 220.334 6.85591L226.955 4.01838C226.973 4.01052 226.983 4.00659 226.983 3.99999C226.983 3.9934 226.973 3.98947 226.955 3.98161Z" fill="#0BB7EE" stroke="#0BB7EE" stroke-width="2" stroke-linecap="round" stroke-linejoin="round"/>
<path d="M49 17H235" stroke="#0BB7EE" stroke-width="2"/>
<path d="M226.955 16.9816L220.334 14.1441C220.186 14.0805 220.112 14.0487 220.065 14.0853C220.018 14.1219 220.032 14.2015 220.058 14.3608L220.493 16.9671C220.495 16.9835 220.497 16.9917 220.497 17C220.497 17.0083 220.495 17.0165 220.493 17.0329L220.058 19.6392C220.032 19.7985 220.018 19.8781 220.065 19.9147C220.112 19.9513 220.186 19.9195 220.334 19.8559L226.955 17.0184C226.973 17.0105 226.983 17.0066 226.983 17C226.983 16.9934 226.973 16.9895 226.955 16.9816Z" fill="#0BB7EE" stroke="#0BB7EE" stroke-width="2" stroke-linecap="round" stroke-linejoin="round"/>
<path d="M49 30H235" stroke="#0BB7EE" stroke-width="2"/>
<path d="M226.955 29.9816L220.334 27.1441C220.186 27.0805 220.112 27.0487 220.065 27.0853C220.018 27.1219 220.032 27.2015 220.058 27.3608L220.493 29.9671C220.495 29.9835 220.497 29.9917 220.497 30C220.497 30.0083 220.495 30.0165 220.493 30.0329L220.058 32.6392C220.032 32.7985 220.018 32.8781 220.065 32.9147C220.112 32.9513 220.186 32.9195 220.334 32.8559L226.955 30.0184C226.973 30.0105 226.983 30.0066 226.983 30C226.983 29.9934 226.973 29.9895 226.955 29.9816Z" fill="#0BB7EE" stroke="#0BB7EE" stroke-width="2" stroke-linecap="round" stroke-linejoin="round"/>
<path d="M49 43H235" stroke="#0BB7EE" stroke-width="2"/>
<path d="M226.955 42.9816L220.334 40.1441C220.186 40.0805 220.112 40.0487 220.065 40.0853C220.018 40.1219 220.032 40.2015 220.058 40.3608L220.493 42.9671C220.495 42.9835 220.497 42.9917 220.497 43C220.497 43.0083 220.495 43.0165 220.493 43.0329L220.058 45.6392C220.032 45.7985 220.018 45.8781 220.065 45.9147C220.112 45.9513 220.186 45.9195 220.334 45.8559L226.955 43.0184C226.973 43.0105 226.983 43.0066 226.983 43C226.983 42.9934 226.973 42.9895 226.955 42.9816Z" fill="#0BB7EE" stroke="#0BB7EE" stroke-width="2" stroke-linecap="round" stroke-linejoin="round"/>
<path d="M49 56H235" stroke="#0BB7EE" stroke-width="2"/>
<path d="M226.955 55.9816L220.334 53.1441C220.186 53.0805 220.112 53.0487 220.065 53.0853C220.018 53.1219 220.032 53.2015 220.058 53.3608L220.493 55.9671C220.495 55.9835 220.497 55.9917 220.497 56C220.497 56.0083 220.495 56.0165 220.493 56.0329L220.058 58.6392C220.032 58.7985 220.018 58.8781 220.065 58.9147C220.112 58.9513 220.186 58.9195 220.334 58.8559L226.955 56.0184C226.973 56.0105 226.983 56.0066 226.983 56C226.983 55.9934 226.973 55.9895 226.955 55.9816Z" fill="#0BB7EE" stroke="#0BB7EE" stroke-width="2" stroke-linecap="round" stroke-linejoin="round"/>
<path d="M49 69H235" stroke="#0BB7EE" stroke-width="2"/>
<path d="M226.955 68.9816L220.334 66.1441C220.186 66.0805 220.112 66.0487 220.065 66.0853C220.018 66.1219 220.032 66.2015 220.058 66.3608L220.493 68.9671C220.495 68.9835 220.497 68.9917 220.497 69C220.497 69.0083 220.495 69.0165 220.493 69.0329L220.058 71.6392C220.032 71.7985 220.018 71.8781 220.065 71.9147C220.112 71.9513 220.186 71.9195 220.334 71.8559L226.955 69.0184C226.973 69.0105 226.983 69.0066 226.983 69C226.983 68.9934 226.973 68.9895 226.955 68.9816Z" fill="#0BB7EE" stroke="#0BB7EE" stroke-width="2" stroke-linecap="round" stroke-linejoin="round"/>
<path d="M49 82H235" stroke="#0BB7EE" stroke-width="2"/>
<path d="M226.955 81.9816L220.334 79.1441C220.186 79.0805 220.112 79.0487 220.065 79.0853C220.018 79.1219 220.032 79.2015 220.058 79.3608L220.493 81.9671C220.495 81.9835 220.497 81.9917 220.497 82C220.497 82.0083 220.495 82.0165 220.493 82.0329L220.058 84.6392C220.032 84.7985 220.018 84.8781 220.065 84.9147C220.112 84.9513 220.186 84.9195 220.334 84.8559L226.955 82.0184C226.973 82.0105 226.983 82.0066 226.983 82C226.983 81.9934 226.973 81.9895 226.955 81.9816Z" fill="#0BB7EE" stroke="#0BB7EE" stroke-width="2" stroke-linecap="round" stroke-linejoin="round"/>
<path d="M49 95H235" stroke="#0BB7EE" stroke-width="2"/>
<path d="M226.955 94.9816L220.334 92.1441C220.186 92.0805 220.112 92.0487 220.065 92.0853C220.018 92.1219 220.032 92.2015 220.058 92.3608L220.493 94.9671C220.495 94.9835 220.497 94.9917 220.497 95C220.497 95.0083 220.495 95.0165 220.493 95.0329L220.058 97.6392C220.032 97.7985 220.018 97.8781 220.065 97.9147C220.112 97.9513 220.186 97.9195 220.334 97.8559L226.955 95.0184C226.973 95.0105 226.983 95.0066 226.983 95C226.983 94.9934 226.973 94.9895 226.955 94.9816Z" fill="#0BB7EE" stroke="#0BB7EE" stroke-width="2" stroke-linecap="round" stroke-linejoin="round"/>
<path d="M49 108H235" stroke="#0BB7EE" stroke-width="2"/>
<path d="M226.955 107.982L220.334 105.144C220.186 105.08 220.112 105.049 220.065 105.085C220.018 105.122 220.032 105.202 220.058 105.361L220.493 107.967C220.495 107.984 220.497 107.992 220.497 108C220.497 108.008 220.495 108.016 220.493 108.033L220.058 110.639C220.032 110.798 220.018 110.878 220.065 110.915C220.112 110.951 220.186 110.92 220.334 110.856L226.955 108.018C226.973 108.011 226.983 108.007 226.983 108C226.983 107.993 226.973 107.989 226.955 107.982Z" fill="#0BB7EE" stroke="#0BB7EE" stroke-width="2" stroke-linecap="round" stroke-linejoin="round"/>
<path d="M49 121H235" stroke="#0BB7EE" stroke-width="2"/>
<path d="M226.955 120.982L220.334 118.144C220.186 118.08 220.112 118.049 220.065 118.085C220.018 118.122 220.032 118.202 220.058 118.361L220.493 120.967C220.495 120.984 220.497 120.992 220.497 121C220.497 121.008 220.495 121.016 220.493 121.033L220.058 123.639C220.032 123.798 220.018 123.878 220.065 123.915C220.112 123.951 220.186 123.92 220.334 123.856L226.955 121.018C226.973 121.011 226.983 121.007 226.983 121C226.983 120.993 226.973 120.989 226.955 120.982Z" fill="#0BB7EE" stroke="#0BB7EE" stroke-width="2" stroke-linecap="round" stroke-linejoin="round"/>
<path d="M49 134H235" stroke="#0BB7EE" stroke-width="2"/>
<path d="M226.955 133.982L220.334 131.144C220.186 131.08 220.112 131.049 220.065 131.085C220.018 131.122 220.032 131.202 220.058 131.361L220.493 133.967C220.495 133.984 220.497 133.992 220.497 134C220.497 134.008 220.495 134.016 220.493 134.033L220.058 136.639C220.032 136.798 220.018 136.878 220.065 136.915C220.112 136.951 220.186 136.92 220.334 136.856L226.955 134.018C226.973 134.011 226.983 134.007 226.983 134C226.983 133.993 226.973 133.989 226.955 133.982Z" fill="#0BB7EE" stroke="#0BB7EE" stroke-width="2" stroke-linecap="round" stroke-linejoin="round"/>
<path d="M49 147H235" stroke="#0BB7EE" stroke-width="2"/>
<path d="M226.955 146.982L220.334 144.144C220.186 144.08 220.112 144.049 220.065 144.085C220.018 144.122 220.032 144.202 220.058 144.361L220.493 146.967C220.495 146.984 220.497 146.992 220.497 147C220.497 147.008 220.495 147.016 220.493 147.033L220.058 149.639C220.032 149.798 220.018 149.878 220.065 149.915C220.112 149.951 220.186 149.92 220.334 149.856L226.955 147.018C226.973 147.011 226.983 147.007 226.983 147C226.983 146.993 226.973 146.989 226.955 146.982Z" fill="#0BB7EE" stroke="#0BB7EE" stroke-width="2" stroke-linecap="round" stroke-linejoin="round"/>
<path d="M49 160H235" stroke="#0BB7EE" stroke-width="2"/>
<path d="M226.955 159.982L220.334 157.144C220.186 157.08 220.112 157.049 220.065 157.085C220.018 157.122 220.032 157.202 220.058 157.361L220.493 159.967C220.495 159.984 220.497 159.992 220.497 160C220.497 160.008 220.495 160.016 220.493 160.033L220.058 162.639C220.032 162.798 220.018 162.878 220.065 162.915C220.112 162.951 220.186 162.92 220.334 162.856L226.955 160.018C226.973 160.011 226.983 160.007 226.983 160C226.983 159.993 226.973 159.989 226.955 159.982Z" fill="#0BB7EE" stroke="#0BB7EE" stroke-width="2" stroke-linecap="round" stroke-linejoin="round"/>
<path d="M49 173H235" stroke="#0BB7EE" stroke-width="2"/>
<path d="M226.955 172.982L220.334 170.144C220.186 170.08 220.112 170.049 220.065 170.085C220.018 170.122 220.032 170.202 220.058 170.361L220.493 172.967C220.495 172.984 220.497 172.992 220.497 173C220.497 173.008 220.495 173.016 220.493 173.033L220.058 175.639C220.032 175.798 220.018 175.878 220.065 175.915C220.112 175.951 220.186 175.92 220.334 175.856L226.955 173.018C226.973 173.011 226.983 173.007 226.983 173C226.983 172.993 226.973 172.989 226.955 172.982Z" fill="#0BB7EE" stroke="#0BB7EE" stroke-width="2" stroke-linecap="round" stroke-linejoin="round"/>
<path d="M49 186H235" stroke="#0BB7EE" stroke-width="2"/>
<path d="M226.955 185.982L220.334 183.144C220.186 183.08 220.112 183.049 220.065 183.085C220.018 183.122 220.032 183.202 220.058 183.361L220.493 185.967C220.495 185.984 220.497 185.992 220.497 186C220.497 186.008 220.495 186.016 220.493 186.033L220.058 188.639C220.032 188.798 220.018 188.878 220.065 188.915C220.112 188.951 220.186 188.92 220.334 188.856L226.955 186.018C226.973 186.011 226.983 186.007 226.983 186C226.983 185.993 226.973 185.989 226.955 185.982Z" fill="#0BB7EE" stroke="#0BB7EE" stroke-width="2" stroke-linecap="round" stroke-linejoin="round"/>
<path d="M49 199H235" stroke="#0BB7EE" stroke-width="2"/>
<path d="M226.955 198.982L220.334 196.144C220.186 196.08 220.112 196.049 220.065 196.085C220.018 196.122 220.032 196.202 220.058 196.361L220.493 198.967C220.495 198.984 220.497 198.992 220.497 199C220.497 199.008 220.495 199.016 220.493 199.033L220.058 201.639C220.032 201.798 220.018 201.878 220.065 201.915C220.112 201.951 220.186 201.92 220.334 201.856L226.955 199.018C226.973 199.011 226.983 199.007 226.983 199C226.983 198.993 226.973 198.989 226.955 198.982Z" fill="#0BB7EE" stroke="#0BB7EE" stroke-width="2" stroke-linecap="round" stroke-linejoin="round"/>
<path d="M4.42773 102.244C4.42773 102.244 4.42773 102.165 4.42773 102.009C4.42773 101.853 4.51182 101.732 4.67999 101.648H10.0674V98.9414L10.0854 96.2346C10.2055 96.0782 10.3196 96 10.4277 96C10.5839 96 10.704 96.0902 10.7881 96.2707V101.648H16.1575C16.3376 101.744 16.4277 101.865 16.4277 102.009C16.4277 102.153 16.3376 102.274 16.1575 102.37H10.7881V107.747C10.692 107.916 10.5839 108 10.4638 108H10.4277H10.3917C10.2476 108 10.1394 107.916 10.0674 107.747V102.37H4.67999C4.51182 102.286 4.42773 102.165 4.42773 102.009V102.244Z" fill="#EF2F2F" stroke="#EF2F2F" stroke-width="1.5"/>
<path d="M19.4277 100.962C19.4277 98.8449 20.2244 96.8323 21.8177 94.9245C23.411 93.0168 25.2034 92.0524 27.195 92.0314C28.4529 92.0314 29.4172 92.5765 30.0881 93.6667C30.1091 93.6457 30.1615 93.5828 30.2453 93.478C30.3292 93.3732 30.4445 93.2579 30.5913 93.1321C30.738 93.0063 30.9057 92.8805 31.0944 92.7547C31.8072 92.2516 32.2894 92 32.5409 92C32.6248 92 32.6982 92.0314 32.7611 92.0943C32.824 92.1572 32.8554 92.2096 32.8554 92.2516C32.8554 92.4403 32.1321 95.4277 30.6856 101.214C29.1971 107.168 28.4529 110.187 28.4529 110.27C28.4529 110.438 28.9246 110.532 29.868 110.553H30.6541C30.7799 110.721 30.8428 110.816 30.8428 110.836C30.8428 110.857 30.8114 111.046 30.7485 111.403C30.6646 111.675 30.5598 111.874 30.434 112H30.0252C29.3753 111.958 28.2432 111.937 26.629 111.937C26.042 111.937 25.5074 111.937 25.0252 111.937C24.543 111.937 24.1552 111.937 23.8617 111.937C23.5682 111.937 23.39 111.948 23.3271 111.969C23.0336 111.969 22.8869 111.885 22.8869 111.717C22.8869 111.654 22.9078 111.497 22.9497 111.245C23.0336 110.91 23.107 110.711 23.1699 110.648C23.2328 110.585 23.4424 110.553 23.7988 110.553C24.8051 110.553 25.4131 110.48 25.6227 110.333C25.7904 110.229 26.0839 109.306 26.5032 107.566C26.9225 105.826 27.1426 104.935 27.1636 104.893C27.1636 104.872 27.0902 104.904 26.9435 104.987C25.9372 105.805 24.8889 106.214 23.7988 106.214C22.6458 106.214 21.629 105.795 20.7485 104.956C19.868 104.117 19.4277 102.786 19.4277 100.962ZM29.4592 95.6478C28.977 93.9916 28.1908 93.1635 27.1007 93.1635C26.3669 93.1635 25.6646 93.4885 24.9938 94.1384C24.3229 94.7883 23.7988 95.6373 23.4214 96.6855C22.8135 98.3417 22.3837 100.061 22.1321 101.843C22.1321 101.906 22.1321 102.021 22.1321 102.189C22.1321 102.356 22.1217 102.482 22.1007 102.566C22.1007 103.509 22.2894 104.159 22.6667 104.516C23.0441 104.872 23.4948 105.061 24.0189 105.082C25.151 105.082 26.3145 104.327 27.5095 102.818L27.7611 102.472L29.4592 95.6478Z" fill="#EF2F2F" stroke="#EF2F2F" stroke-width="1.5"/>
<path d="M252 102.244C252 102.244 252 102.165 252 102.009C252 101.853 252.084 101.732 252.252 101.648H257.64H263.73C263.91 101.744 264 101.865 264 102.009C264 102.153 263.91 102.274 263.73 102.37L257.64 102.37L252.252 102.37C252.084 102.286 252 102.165 252 102.009V102.244Z" fill="#1B00C3"/>
<path d="M252 102.009C252 102.165 252 102.244 252 102.244V102.009ZM252 102.009C252 101.853 252.084 101.732 252.252 101.648H257.64H263.73C263.91 101.744 264 101.865 264 102.009C264 102.153 263.91 102.274 263.73 102.37L257.64 102.37L252.252 102.37C252.084 102.286 252 102.165 252 102.009Z" stroke="#1B00C3" stroke-width="1.5"/>
<path d="M267 100.962C267 98.8449 267.797 96.8323 269.39 94.9245C270.983 93.0168 272.776 92.0524 274.767 92.0314C276.025 92.0314 276.99 92.5765 277.66 93.6667C277.681 93.6457 277.734 93.5828 277.818 93.478C277.901 93.3732 278.017 93.2579 278.164 93.1321C278.31 93.0063 278.478 92.8805 278.667 92.7547C279.379 92.2516 279.862 92 280.113 92C280.197 92 280.27 92.0314 280.333 92.0943C280.396 92.1572 280.428 92.2096 280.428 92.2516C280.428 92.4403 279.704 95.4277 278.258 101.214C276.769 107.168 276.025 110.187 276.025 110.27C276.025 110.438 276.497 110.532 277.44 110.553H278.226C278.352 110.721 278.415 110.816 278.415 110.836C278.415 110.857 278.384 111.046 278.321 111.403C278.237 111.675 278.132 111.874 278.006 112H277.597C276.948 111.958 275.816 111.937 274.201 111.937C273.614 111.937 273.08 111.937 272.597 111.937C272.115 111.937 271.727 111.937 271.434 111.937C271.14 111.937 270.962 111.948 270.899 111.969C270.606 111.969 270.459 111.885 270.459 111.717C270.459 111.654 270.48 111.497 270.522 111.245C270.606 110.91 270.679 110.711 270.742 110.648C270.805 110.585 271.015 110.553 271.371 110.553C272.377 110.553 272.985 110.48 273.195 110.333C273.363 110.229 273.656 109.306 274.075 107.566C274.495 105.826 274.715 104.935 274.736 104.893C274.736 104.872 274.662 104.904 274.516 104.987C273.509 105.805 272.461 106.214 271.371 106.214C270.218 106.214 269.201 105.795 268.321 104.956C267.44 104.117 267 102.786 267 100.962ZM277.031 95.6478C276.549 93.9916 275.763 93.1635 274.673 93.1635C273.939 93.1635 273.237 93.4885 272.566 94.1384C271.895 94.7883 271.371 95.6373 270.994 96.6855C270.386 98.3417 269.956 100.061 269.704 101.843C269.704 101.906 269.704 102.021 269.704 102.189C269.704 102.356 269.694 102.482 269.673 102.566C269.673 103.509 269.862 104.159 270.239 104.516C270.616 104.872 271.067 105.061 271.591 105.082C272.723 105.082 273.887 104.327 275.082 102.818L275.333 102.472L277.031 95.6478Z" fill="#1B00C3" stroke="#1B00C3" stroke-width="1.5"/>
<path d="M32.3539 293.884C33.2407 292.628 34.4521 292 35.9881 292C36.7482 292 37.5083 292.202 38.2684 292.605C39.0285 293.008 39.6461 293.721 40.1211 294.744C40.707 296.031 41 297.798 41 300.047C41 302.45 40.6595 304.287 39.9786 305.558C39.6619 306.209 39.2264 306.729 38.6722 307.116C38.118 307.504 37.635 307.744 37.2233 307.837C36.8116 307.93 36.4078 307.984 36.0119 308C35.6002 308 35.1884 307.953 34.7767 307.86C34.365 307.767 33.882 307.519 33.3278 307.116C32.7736 306.713 32.3381 306.194 32.0214 305.558C31.3405 304.287 31 302.45 31 300.047C31 297.349 31.4513 295.295 32.3539 293.884ZM37.6983 293.605C37.2233 293.109 36.6611 292.86 36.0119 292.86C35.3468 292.86 34.7767 293.109 34.3017 293.605C33.9058 294.008 33.6445 294.566 33.5178 295.279C33.3911 295.992 33.3278 297.481 33.3278 299.744C33.3278 302.194 33.3911 303.806 33.5178 304.581C33.6445 305.357 33.9295 305.969 34.3729 306.419C34.8163 306.884 35.3626 307.116 36.0119 307.116C36.6453 307.116 37.1837 306.884 37.6271 306.419C38.0863 305.953 38.3713 305.302 38.4822 304.465C38.593 303.628 38.6564 302.054 38.6722 299.744C38.6722 297.496 38.6089 296.016 38.4822 295.302C38.3555 294.589 38.0942 294.023 37.6983 293.605Z" fill="#132AF4" stroke="#132AF4" stroke-width="1.5"/>
<path d="M34.8471 237.988C34.5333 237.988 34.3765 237.886 34.3765 237.682C34.3765 237.62 34.4157 237.431 34.4941 237.118C34.5725 236.804 34.6118 236.529 34.6118 236.294C34.6118 235.808 34.4471 235.51 34.1176 235.4C33.7882 235.29 33.0275 235.235 31.8353 235.235H30.6118C30.5961 235.267 30.3216 236.349 29.7882 238.482C29.2549 240.616 28.9882 241.714 28.9882 241.776C28.9882 241.839 29.0745 241.871 29.2471 241.871C29.4196 241.871 30.0471 241.886 31.1294 241.918C32.6039 241.918 33.5765 241.902 34.0471 241.871C34.5176 241.839 34.9882 241.737 35.4588 241.565C36.2275 241.314 36.8627 240.875 37.3647 240.247C37.8667 239.62 38.4235 238.592 39.0353 237.165C39.1922 236.82 39.2941 236.631 39.3412 236.6C39.451 236.569 39.5686 236.553 39.6941 236.553C40.0078 236.553 40.1647 236.655 40.1647 236.859C38.5176 240.843 37.6549 242.875 37.5765 242.953C37.5294 242.984 35.2863 243 30.8471 243H26.4C24.8 243 24 242.914 24 242.741C24 242.71 24.0235 242.6 24.0706 242.412C24.1333 242.161 24.1961 242.02 24.2588 241.988C24.3216 241.957 24.502 241.933 24.8 241.918C25.2235 241.918 25.6941 241.894 26.2118 241.847C26.4314 241.8 26.5804 241.706 26.6588 241.565C26.6902 241.486 27.2471 239.282 28.3294 234.953C29.4118 230.624 29.9608 228.427 29.9765 228.365C29.9765 228.255 29.9451 228.2 29.8824 228.2C29.7569 228.153 29.3412 228.114 28.6353 228.082H27.9059C27.8118 227.988 27.7647 227.925 27.7647 227.894C27.7647 227.863 27.7804 227.729 27.8118 227.494C27.8745 227.227 27.9529 227.063 28.0471 227H41.0824C41.1922 227.063 41.2471 227.149 41.2471 227.259C41.2471 227.337 41.1451 228.216 40.9412 229.894C40.7373 231.573 40.6275 232.435 40.6118 232.482C40.5804 232.592 40.4235 232.647 40.1412 232.647H39.8588C39.749 232.569 39.6941 232.467 39.6941 232.341L39.7647 231.8C39.8118 231.424 39.8353 231.016 39.8353 230.576C39.8353 230.106 39.7804 229.714 39.6706 229.4C39.5608 229.086 39.4118 228.843 39.2235 228.671C39.0353 228.498 38.7608 228.373 38.4 228.294C38.0392 228.216 37.6706 228.161 37.2941 228.129C36.9176 228.098 36.4157 228.082 35.7882 228.082H34.6824C33.302 228.098 32.5725 228.122 32.4941 228.153C32.4314 228.184 32.3843 228.255 32.3529 228.365C32.3373 228.412 32.0941 229.376 31.6235 231.259C31.1529 233.141 30.9098 234.098 30.8941 234.129C31.2549 234.145 31.6314 234.153 32.0235 234.153H32.6353C33.6706 234.153 34.3843 234.035 34.7765 233.8C35.1686 233.565 35.5216 232.929 35.8353 231.894C35.898 231.643 35.9451 231.502 35.9765 231.471C36.0078 231.439 36.1412 231.416 36.3765 231.4C36.4549 231.4 36.5176 231.4 36.5647 231.4C36.6118 231.4 36.651 231.408 36.6824 231.424C36.7137 231.439 36.7294 231.447 36.7294 231.447C36.7294 231.447 36.7451 231.478 36.7765 231.541C36.8078 231.604 36.8314 231.635 36.8471 231.635L36.0706 234.741C35.5529 236.827 35.2706 237.886 35.2235 237.918C35.1765 237.965 35.051 237.988 34.8471 237.988Z" fill="#132AF4" stroke="#132AF4" stroke-width="1.5"/>
<path d="M47 204L47 331" stroke="#132AF4" stroke-width="4"/>
<path d="M237 204V288.5" stroke="#132AF4" stroke-width="4" stroke-dasharray="8 8"/>
<path d="M237 288V234.5L49 234.5" stroke="#0BB7EE" stroke-width="4"/>
<path d="M300.132 287.845L280.437 278.214L280.437 278.214C280.251 278.123 280.158 278.077 280.108 278.122C280.058 278.166 280.092 278.264 280.16 278.459L283.5 288.025L280.161 297.541C280.093 297.736 280.058 297.834 280.108 297.878C280.158 297.923 280.251 297.878 280.437 297.787L300.131 288.205C300.292 288.127 300.372 288.088 300.372 288.025C300.372 287.963 300.292 287.923 300.132 287.845Z" fill="#132AF4"/>
<path d="M283.5 288.025L280.161 297.541C280.093 297.736 280.058 297.834 280.108 297.878C280.158 297.923 280.251 297.878 280.437 297.787L300.131 288.205C300.292 288.127 300.372 288.088 300.372 288.025C300.372 287.963 300.292 287.923 300.132 287.845L280.437 278.214C280.251 278.123 280.158 278.077 280.108 278.122C280.058 278.166 280.092 278.264 280.16 278.459L283.5 288.025ZM283.5 288.025H0" stroke="#132AF4" stroke-width="4"/>
<defs>
<radialGradient id="paint0_radial_421_912" cx="0" cy="0" r="1" gradientUnits="userSpaceOnUse" gradientTransform="translate(242 7) rotate(90) scale(5)">
<stop stop-color="#2400FF"/>
<stop offset="1" stop-color="#0D005D"/>
</radialGradient>
<radialGradient id="paint1_radial_421_912" cx="0" cy="0" r="1" gradientUnits="userSpaceOnUse" gradientTransform="translate(242 17) rotate(90) scale(5)">
<stop stop-color="#2400FF"/>
<stop offset="1" stop-color="#0D005D"/>
</radialGradient>
<radialGradient id="paint2_radial_421_912" cx="0" cy="0" r="1" gradientUnits="userSpaceOnUse" gradientTransform="translate(242 27) rotate(90) scale(5)">
<stop stop-color="#2400FF"/>
<stop offset="1" stop-color="#0D005D"/>
</radialGradient>
<radialGradient id="paint3_radial_421_912" cx="0" cy="0" r="1" gradientUnits="userSpaceOnUse" gradientTransform="translate(242 37) rotate(90) scale(5)">
<stop stop-color="#2400FF"/>
<stop offset="1" stop-color="#0D005D"/>
</radialGradient>
<radialGradient id="paint4_radial_421_912" cx="0" cy="0" r="1" gradientUnits="userSpaceOnUse" gradientTransform="translate(242 47) rotate(90) scale(5)">
<stop stop-color="#2400FF"/>
<stop offset="1" stop-color="#0D005D"/>
</radialGradient>
<radialGradient id="paint5_radial_421_912" cx="0" cy="0" r="1" gradientUnits="userSpaceOnUse" gradientTransform="translate(242 57) rotate(90) scale(5)">
<stop stop-color="#2400FF"/>
<stop offset="1" stop-color="#0D005D"/>
</radialGradient>
<radialGradient id="paint6_radial_421_912" cx="0" cy="0" r="1" gradientUnits="userSpaceOnUse" gradientTransform="translate(242 67) rotate(90) scale(5)">
<stop stop-color="#2400FF"/>
<stop offset="1" stop-color="#0D005D"/>
</radialGradient>
<radialGradient id="paint7_radial_421_912" cx="0" cy="0" r="1" gradientUnits="userSpaceOnUse" gradientTransform="translate(242 77) rotate(90) scale(5)">
<stop stop-color="#2400FF"/>
<stop offset="1" stop-color="#0D005D"/>
</radialGradient>
<radialGradient id="paint8_radial_421_912" cx="0" cy="0" r="1" gradientUnits="userSpaceOnUse" gradientTransform="translate(242 87) rotate(90) scale(5)">
<stop stop-color="#2400FF"/>
<stop offset="1" stop-color="#0D005D"/>
</radialGradient>
<radialGradient id="paint9_radial_421_912" cx="0" cy="0" r="1" gradientUnits="userSpaceOnUse" gradientTransform="translate(242 97) rotate(90) scale(5)">
<stop stop-color="#2400FF"/>
<stop offset="1" stop-color="#0D005D"/>
</radialGradient>
<radialGradient id="paint10_radial_421_912" cx="0" cy="0" r="1" gradientUnits="userSpaceOnUse" gradientTransform="translate(242 107) rotate(90) scale(5)">
<stop stop-color="#2400FF"/>
<stop offset="1" stop-color="#0D005D"/>
</radialGradient>
<radialGradient id="paint11_radial_421_912" cx="0" cy="0" r="1" gradientUnits="userSpaceOnUse" gradientTransform="translate(242 117) rotate(90) scale(5)">
<stop stop-color="#2400FF"/>
<stop offset="1" stop-color="#0D005D"/>
</radialGradient>
<radialGradient id="paint12_radial_421_912" cx="0" cy="0" r="1" gradientUnits="userSpaceOnUse" gradientTransform="translate(242 127) rotate(90) scale(5)">
<stop stop-color="#2400FF"/>
<stop offset="1" stop-color="#0D005D"/>
</radialGradient>
<radialGradient id="paint13_radial_421_912" cx="0" cy="0" r="1" gradientUnits="userSpaceOnUse" gradientTransform="translate(242 137) rotate(90) scale(5)">
<stop stop-color="#2400FF"/>
<stop offset="1" stop-color="#0D005D"/>
</radialGradient>
<radialGradient id="paint14_radial_421_912" cx="0" cy="0" r="1" gradientUnits="userSpaceOnUse" gradientTransform="translate(242 147) rotate(90) scale(5)">
<stop stop-color="#2400FF"/>
<stop offset="1" stop-color="#0D005D"/>
</radialGradient>
<radialGradient id="paint15_radial_421_912" cx="0" cy="0" r="1" gradientUnits="userSpaceOnUse" gradientTransform="translate(242 157) rotate(90) scale(5)">
<stop stop-color="#2400FF"/>
<stop offset="1" stop-color="#0D005D"/>
</radialGradient>
<radialGradient id="paint16_radial_421_912" cx="0" cy="0" r="1" gradientUnits="userSpaceOnUse" gradientTransform="translate(242 167) rotate(90) scale(5)">
<stop stop-color="#2400FF"/>
<stop offset="1" stop-color="#0D005D"/>
</radialGradient>
<radialGradient id="paint17_radial_421_912" cx="0" cy="0" r="1" gradientUnits="userSpaceOnUse" gradientTransform="translate(242 177) rotate(90) scale(5)">
<stop stop-color="#2400FF"/>
<stop offset="1" stop-color="#0D005D"/>
</radialGradient>
<radialGradient id="paint18_radial_421_912" cx="0" cy="0" r="1" gradientUnits="userSpaceOnUse" gradientTransform="translate(242 187) rotate(90) scale(5)">
<stop stop-color="#2400FF"/>
<stop offset="1" stop-color="#0D005D"/>
</radialGradient>
<radialGradient id="paint19_radial_421_912" cx="0" cy="0" r="1" gradientUnits="userSpaceOnUse" gradientTransform="translate(242 197) rotate(90) scale(5)">
<stop stop-color="#2400FF"/>
<stop offset="1" stop-color="#0D005D"/>
</radialGradient>
<radialGradient id="paint20_radial_421_912" cx="0" cy="0" r="1" gradientUnits="userSpaceOnUse" gradientTransform="translate(42 7) rotate(90) scale(5)">
<stop stop-color="#E35252"/>
<stop offset="1" stop-color="#7D0606"/>
</radialGradient>
<radialGradient id="paint21_radial_421_912" cx="0" cy="0" r="1" gradientUnits="userSpaceOnUse" gradientTransform="translate(42 17) rotate(90) scale(5)">
<stop stop-color="#E35252"/>
<stop offset="1" stop-color="#7D0606"/>
</radialGradient>
<radialGradient id="paint22_radial_421_912" cx="0" cy="0" r="1" gradientUnits="userSpaceOnUse" gradientTransform="translate(42 27) rotate(90) scale(5)">
<stop stop-color="#E35252"/>
<stop offset="1" stop-color="#7D0606"/>
</radialGradient>
<radialGradient id="paint23_radial_421_912" cx="0" cy="0" r="1" gradientUnits="userSpaceOnUse" gradientTransform="translate(42 37) rotate(90) scale(5)">
<stop stop-color="#E35252"/>
<stop offset="1" stop-color="#7D0606"/>
</radialGradient>
<radialGradient id="paint24_radial_421_912" cx="0" cy="0" r="1" gradientUnits="userSpaceOnUse" gradientTransform="translate(42 47) rotate(90) scale(5)">
<stop stop-color="#E35252"/>
<stop offset="1" stop-color="#7D0606"/>
</radialGradient>
<radialGradient id="paint25_radial_421_912" cx="0" cy="0" r="1" gradientUnits="userSpaceOnUse" gradientTransform="translate(42 57) rotate(90) scale(5)">
<stop stop-color="#E35252"/>
<stop offset="1" stop-color="#7D0606"/>
</radialGradient>
<radialGradient id="paint26_radial_421_912" cx="0" cy="0" r="1" gradientUnits="userSpaceOnUse" gradientTransform="translate(42 67) rotate(90) scale(5)">
<stop stop-color="#E35252"/>
<stop offset="1" stop-color="#7D0606"/>
</radialGradient>
<radialGradient id="paint27_radial_421_912" cx="0" cy="0" r="1" gradientUnits="userSpaceOnUse" gradientTransform="translate(42 77) rotate(90) scale(5)">
<stop stop-color="#E35252"/>
<stop offset="1" stop-color="#7D0606"/>
</radialGradient>
<radialGradient id="paint28_radial_421_912" cx="0" cy="0" r="1" gradientUnits="userSpaceOnUse" gradientTransform="translate(42 87) rotate(90) scale(5)">
<stop stop-color="#E35252"/>
<stop offset="1" stop-color="#7D0606"/>
</radialGradient>
<radialGradient id="paint29_radial_421_912" cx="0" cy="0" r="1" gradientUnits="userSpaceOnUse" gradientTransform="translate(42 97) rotate(90) scale(5)">
<stop stop-color="#E35252"/>
<stop offset="1" stop-color="#7D0606"/>
</radialGradient>
<radialGradient id="paint30_radial_421_912" cx="0" cy="0" r="1" gradientUnits="userSpaceOnUse" gradientTransform="translate(42 107) rotate(90) scale(5)">
<stop stop-color="#E35252"/>
<stop offset="1" stop-color="#7D0606"/>
</radialGradient>
<radialGradient id="paint31_radial_421_912" cx="0" cy="0" r="1" gradientUnits="userSpaceOnUse" gradientTransform="translate(42 117) rotate(90) scale(5)">
<stop stop-color="#E35252"/>
<stop offset="1" stop-color="#7D0606"/>
</radialGradient>
<radialGradient id="paint32_radial_421_912" cx="0" cy="0" r="1" gradientUnits="userSpaceOnUse" gradientTransform="translate(42 127) rotate(90) scale(5)">
<stop stop-color="#E35252"/>
<stop offset="1" stop-color="#7D0606"/>
</radialGradient>
<radialGradient id="paint33_radial_421_912" cx="0" cy="0" r="1" gradientUnits="userSpaceOnUse" gradientTransform="translate(42 137) rotate(90) scale(5)">
<stop stop-color="#E35252"/>
<stop offset="1" stop-color="#7D0606"/>
</radialGradient>
<radialGradient id="paint34_radial_421_912" cx="0" cy="0" r="1" gradientUnits="userSpaceOnUse" gradientTransform="translate(42 147) rotate(90) scale(5)">
<stop stop-color="#E35252"/>
<stop offset="1" stop-color="#7D0606"/>
</radialGradient>
<radialGradient id="paint35_radial_421_912" cx="0" cy="0" r="1" gradientUnits="userSpaceOnUse" gradientTransform="translate(42 157) rotate(90) scale(5)">
<stop stop-color="#E35252"/>
<stop offset="1" stop-color="#7D0606"/>
</radialGradient>
<radialGradient id="paint36_radial_421_912" cx="0" cy="0" r="1" gradientUnits="userSpaceOnUse" gradientTransform="translate(42 167) rotate(90) scale(5)">
<stop stop-color="#E35252"/>
<stop offset="1" stop-color="#7D0606"/>
</radialGradient>
<radialGradient id="paint37_radial_421_912" cx="0" cy="0" r="1" gradientUnits="userSpaceOnUse" gradientTransform="translate(42 177) rotate(90) scale(5)">
<stop stop-color="#E35252"/>
<stop offset="1" stop-color="#7D0606"/>
</radialGradient>
<radialGradient id="paint38_radial_421_912" cx="0" cy="0" r="1" gradientUnits="userSpaceOnUse" gradientTransform="translate(42 187) rotate(90) scale(5)">
<stop stop-color="#E35252"/>
<stop offset="1" stop-color="#7D0606"/>
</radialGradient>
<radialGradient id="paint39_radial_421_912" cx="0" cy="0" r="1" gradientUnits="userSpaceOnUse" gradientTransform="translate(42 197) rotate(90) scale(5)">
<stop stop-color="#E35252"/>
<stop offset="1" stop-color="#7D0606"/>
</radialGradient>
</defs>
</svg>
