<svg width="358" height="236" viewBox="0 0 358 236" fill="none" xmlns="http://www.w3.org/2000/svg">
<circle cx="85" cy="25" r="25" fill="url(#paint0_radial_380_1047)"/>
<path d="M68 25.8459C68 25.8459 68 25.7505 68 25.5597C68 25.369 68.1027 25.2222 68.3082 25.1195H81.0974C81.3176 25.2369 81.4276 25.3836 81.4276 25.5597C81.4276 25.7358 81.3176 25.8826 81.0974 26H68.3082C68.1027 25.8973 68 25.7505 68 25.5597V25.8459Z" fill="#0BB7EE" stroke="#0BB7EE"/>
<path d="M85.8926 24.2736C85.8926 22.7914 86.4502 21.3826 87.5655 20.0472C88.6808 18.7118 89.9355 18.0367 91.3297 18.0221C92.2102 18.0221 92.8852 18.4036 93.3548 19.1667C93.3695 19.152 93.4062 19.108 93.4649 19.0346C93.5236 18.9613 93.6043 18.8805 93.707 18.7925C93.8097 18.7044 93.9271 18.6164 94.0592 18.5283C94.5582 18.1761 94.8957 18 95.0718 18C95.1305 18 95.1819 18.0221 95.2259 18.0661C95.2699 18.1101 95.2919 18.1468 95.2919 18.1761C95.2919 18.3082 94.7856 20.3994 93.7731 24.4497C92.7311 28.6174 92.2102 30.7306 92.2102 30.7893C92.2102 30.9067 92.5404 30.9727 93.2007 30.9874H93.751C93.8391 31.1048 93.8831 31.1709 93.8831 31.1855C93.8831 31.2002 93.8611 31.3323 93.8171 31.5818C93.7584 31.7725 93.685 31.9119 93.597 32H93.3108C92.8559 31.9706 92.0634 31.956 90.9334 31.956C90.5225 31.956 90.1483 31.956 89.8108 31.956C89.4733 31.956 89.2018 31.956 88.9963 31.956C88.7909 31.956 88.6662 31.9633 88.6221 31.978C88.4167 31.978 88.314 31.9193 88.314 31.8019C88.314 31.7579 88.3286 31.6478 88.358 31.4717C88.4167 31.2369 88.468 31.0975 88.5121 31.0535C88.5561 31.0094 88.7028 30.9874 88.9523 30.9874C89.6567 30.9874 90.0823 30.9361 90.229 30.8333C90.3464 30.76 90.5519 30.1143 90.8454 28.8962C91.1389 27.6782 91.293 27.0545 91.3077 27.0252C91.3077 27.0105 91.2563 27.0325 91.1536 27.0912C90.4492 27.6635 89.7154 27.9497 88.9523 27.9497C88.1452 27.9497 87.4335 27.6562 86.8171 27.0692C86.2008 26.4822 85.8926 25.5503 85.8926 24.2736ZM92.9146 20.5535C92.577 19.3942 92.0267 18.8145 91.2636 18.8145C90.75 18.8145 90.2584 19.042 89.7888 19.4969C89.3192 19.9518 88.9523 20.5462 88.6882 21.2799C88.2626 22.4392 87.9618 23.6426 87.7857 24.89C87.7857 24.934 87.7857 25.0147 87.7857 25.1321C87.7857 25.2495 87.7783 25.3375 87.7636 25.3962C87.7636 26.0566 87.8957 26.5115 88.1599 26.761C88.424 27.0105 88.7395 27.1426 89.1064 27.1572C89.8989 27.1572 90.7133 26.6289 91.5498 25.5723L91.7259 25.3302L92.9146 20.5535Z" fill="#0BB7EE"/>
<path d="M99.0271 22.0362L98.8248 22.114C98.6795 22.1659 98.472 22.2177 98.2022 22.2696C97.9325 22.3215 97.6316 22.3578 97.2996 22.3786H97.0039V21.6627H97.2996C97.7872 21.6419 98.2386 21.5641 98.6536 21.4292C99.0686 21.2943 99.3591 21.1698 99.5251 21.0557C99.6911 20.9416 99.8363 20.8275 99.9608 20.7133C99.9816 20.6822 100.044 20.6666 100.148 20.6666C100.241 20.6666 100.329 20.6978 100.412 20.76V25.4133L100.428 30.0822C100.5 30.1548 100.563 30.2015 100.614 30.2222C100.666 30.243 100.791 30.2637 100.988 30.2845C101.185 30.3052 101.507 30.3156 101.953 30.3156H102.358V31.0315H102.186C101.968 31.0004 101.144 30.9848 99.7118 30.9848C98.3008 30.9848 97.4864 31.0004 97.2685 31.0315H97.0817V30.3156H97.4864C97.7146 30.3156 97.9117 30.3156 98.0777 30.3156C98.2437 30.3156 98.3734 30.3104 98.4668 30.3C98.5602 30.2897 98.6432 30.2741 98.7158 30.2534C98.7884 30.2326 98.8299 30.2222 98.8403 30.2222C98.8507 30.2222 98.8818 30.1963 98.9337 30.1444C98.9856 30.0925 99.0167 30.0718 99.0271 30.0822V22.0362Z" fill="#0BB7EE"/>
<path d="M110 211C110 224.807 98.8071 236 85 236C71.1929 236 60 224.807 60 211C60 197.193 71.1929 186 85 186C98.8071 186 110 197.193 110 211Z" fill="url(#paint1_radial_380_1047)"/>
<path d="M68 211.846C68 211.846 68 211.751 68 211.56C68 211.369 68.1027 211.222 68.3082 211.119H81.0974C81.3176 211.237 81.4276 211.384 81.4276 211.56C81.4276 211.736 81.3176 211.883 81.0974 212H68.3082C68.1027 211.897 68 211.751 68 211.56V211.846Z" fill="#0BB7EE" stroke="#0BB7EE"/>
<path d="M85.8926 210.274C85.8926 208.791 86.4502 207.383 87.5655 206.047C88.6808 204.712 89.9355 204.037 91.3297 204.022C92.2102 204.022 92.8852 204.404 93.3548 205.167C93.3695 205.152 93.4062 205.108 93.4649 205.035C93.5236 204.961 93.6043 204.881 93.707 204.792C93.8097 204.704 93.9271 204.616 94.0592 204.528C94.5582 204.176 94.8957 204 95.0718 204C95.1305 204 95.1819 204.022 95.2259 204.066C95.2699 204.11 95.2919 204.147 95.2919 204.176C95.2919 204.308 94.7856 206.399 93.7731 210.45C92.7311 214.617 92.2102 216.731 92.2102 216.789C92.2102 216.907 92.5404 216.973 93.2007 216.987H93.751C93.8391 217.105 93.8831 217.171 93.8831 217.186C93.8831 217.2 93.8611 217.332 93.8171 217.582C93.7584 217.773 93.685 217.912 93.597 218H93.3108C92.8559 217.971 92.0634 217.956 90.9334 217.956C90.5225 217.956 90.1483 217.956 89.8108 217.956C89.4733 217.956 89.2018 217.956 88.9963 217.956C88.7909 217.956 88.6662 217.963 88.6221 217.978C88.4167 217.978 88.314 217.919 88.314 217.802C88.314 217.758 88.3286 217.648 88.358 217.472C88.4167 217.237 88.468 217.097 88.5121 217.053C88.5561 217.009 88.7028 216.987 88.9523 216.987C89.6567 216.987 90.0823 216.936 90.229 216.833C90.3464 216.76 90.5519 216.114 90.8454 214.896C91.1389 213.678 91.293 213.055 91.3077 213.025C91.3077 213.01 91.2563 213.033 91.1536 213.091C90.4492 213.664 89.7154 213.95 88.9523 213.95C88.1452 213.95 87.4335 213.656 86.8171 213.069C86.2008 212.482 85.8926 211.55 85.8926 210.274ZM92.9146 206.553C92.577 205.394 92.0267 204.815 91.2636 204.815C90.75 204.815 90.2584 205.042 89.7888 205.497C89.3192 205.952 88.9523 206.546 88.6882 207.28C88.2626 208.439 87.9618 209.643 87.7857 210.89C87.7857 210.934 87.7857 211.015 87.7857 211.132C87.7857 211.249 87.7783 211.338 87.7636 211.396C87.7636 212.057 87.8957 212.512 88.1599 212.761C88.424 213.01 88.7395 213.143 89.1064 213.157C89.8989 213.157 90.7133 212.629 91.5498 211.572L91.7259 211.33L92.9146 206.553Z" fill="#0BB7EE"/>
<path d="M99.0271 208.036L98.8248 208.114C98.6795 208.166 98.472 208.218 98.2022 208.27C97.9325 208.321 97.6316 208.358 97.2996 208.379H97.0039V207.663H97.2996C97.7872 207.642 98.2386 207.564 98.6536 207.429C99.0686 207.294 99.3591 207.17 99.5251 207.056C99.6911 206.942 99.8363 206.827 99.9608 206.713C99.9816 206.682 100.044 206.667 100.148 206.667C100.241 206.667 100.329 206.698 100.412 206.76V211.413L100.428 216.082C100.5 216.155 100.563 216.201 100.614 216.222C100.666 216.243 100.791 216.264 100.988 216.284C101.185 216.305 101.507 216.316 101.953 216.316H102.358V217.031H102.186C101.968 217 101.144 216.985 99.7118 216.985C98.3008 216.985 97.4864 217 97.2685 217.031H97.0817V216.316H97.4864C97.7146 216.316 97.9117 216.316 98.0777 216.316C98.2437 216.316 98.3734 216.31 98.4668 216.3C98.5602 216.29 98.6432 216.274 98.7158 216.253C98.7884 216.233 98.8299 216.222 98.8403 216.222C98.8507 216.222 98.8818 216.196 98.9337 216.144C98.9856 216.093 99.0167 216.072 99.0271 216.082V208.036Z" fill="#0BB7EE"/>
<circle cx="273" cy="25" r="25" fill="url(#paint2_radial_380_1047)"/>
<path d="M256 24.8459C256 24.8459 256 24.7505 256 24.5597C256 24.369 256.103 24.2222 256.308 24.1195H269.097C269.318 24.2369 269.428 24.3836 269.428 24.5597C269.428 24.7358 269.318 24.8826 269.097 25H256.308C256.103 24.8973 256 24.7505 256 24.5597V24.8459Z" fill="#0BB7EE" stroke="#0BB7EE"/>
<path d="M273.068 24.2736C273.068 22.7914 273.626 21.3826 274.741 20.0472C275.857 18.7117 277.112 18.0367 278.506 18.022C279.387 18.022 280.062 18.4036 280.531 19.1667C280.546 19.152 280.583 19.108 280.641 19.0346C280.7 18.9612 280.781 18.8805 280.884 18.7925C280.986 18.7044 281.104 18.6164 281.236 18.5283C281.735 18.1761 282.072 18 282.248 18C282.307 18 282.359 18.022 282.403 18.066C282.447 18.1101 282.469 18.1468 282.469 18.1761C282.469 18.3082 281.962 20.3994 280.95 24.4497C279.908 28.6174 279.387 30.7306 279.387 30.7893C279.387 30.9067 279.717 30.9727 280.377 30.9874H280.928C281.016 31.1048 281.06 31.1709 281.06 31.1855C281.06 31.2002 281.038 31.3323 280.994 31.5818C280.935 31.7725 280.862 31.9119 280.773 32H280.487C280.032 31.9706 279.24 31.956 278.11 31.956C277.699 31.956 277.325 31.956 276.987 31.956C276.649 31.956 276.378 31.956 276.172 31.956C275.967 31.956 275.842 31.9633 275.798 31.978C275.593 31.978 275.49 31.9193 275.49 31.8019C275.49 31.7579 275.505 31.6478 275.534 31.4717C275.593 31.2369 275.644 31.0975 275.688 31.0535C275.732 31.0094 275.879 30.9874 276.128 30.9874C276.833 30.9874 277.258 30.9361 277.405 30.8333C277.523 30.76 277.728 30.1143 278.022 28.8962C278.315 27.6782 278.469 27.0545 278.484 27.0252C278.484 27.0105 278.433 27.0325 278.33 27.0912C277.625 27.6635 276.892 27.9497 276.128 27.9497C275.321 27.9497 274.609 27.6562 273.993 27.0692C273.377 26.4822 273.068 25.5503 273.068 24.2736ZM280.091 20.5535C279.753 19.3941 279.203 18.8145 278.44 18.8145C277.926 18.8145 277.435 19.0419 276.965 19.4969C276.495 19.9518 276.128 20.5461 275.864 21.2799C275.439 22.4392 275.138 23.6426 274.962 24.8899C274.962 24.934 274.962 25.0147 274.962 25.1321C274.962 25.2495 274.954 25.3375 274.94 25.3962C274.94 26.0566 275.072 26.5115 275.336 26.761C275.6 27.0105 275.916 27.1426 276.282 27.1572C277.075 27.1572 277.89 26.6289 278.726 25.5723L278.902 25.3302L280.091 20.5535Z" fill="#0BB7EE"/>
<path d="M284.58 24.3549C284.3 24.3549 284.077 24.2615 283.911 24.0748C283.745 23.888 283.662 23.6597 283.662 23.39C283.662 22.6533 283.937 22.0153 284.487 21.4758C285.037 20.9362 285.722 20.6665 286.542 20.6665C287.486 20.6665 288.274 20.957 288.907 21.538C289.54 22.119 289.862 22.8712 289.872 23.7946C289.872 24.2408 289.769 24.6661 289.561 25.0708C289.353 25.4754 289.104 25.8282 288.814 26.1291C288.523 26.4299 288.108 26.8138 287.569 27.2807C287.195 27.6023 286.676 28.0796 286.012 28.7125L285.094 29.584L286.277 29.5996C287.906 29.5996 288.772 29.5736 288.876 29.5218C288.949 29.501 289.073 29.0393 289.25 28.1367V28.09H289.872V28.1367C289.862 28.1678 289.794 28.6399 289.67 29.5529C289.545 30.4659 289.468 30.9432 289.436 30.9847V31.0314H283.662V30.7357V30.5489C283.662 30.4763 283.693 30.3985 283.755 30.3155C283.818 30.2325 283.973 30.0509 284.222 29.7708C284.523 29.4388 284.783 29.1483 285.001 28.8993C285.094 28.7955 285.27 28.6036 285.53 28.3234C285.789 28.0433 285.966 27.8514 286.059 27.7476C286.152 27.6438 286.303 27.4727 286.51 27.234C286.718 26.9954 286.863 26.819 286.946 26.7049C287.029 26.5908 287.149 26.4351 287.304 26.238C287.46 26.0409 287.569 25.8749 287.631 25.74C287.693 25.6051 287.771 25.4547 287.864 25.2887C287.958 25.1227 288.025 24.9567 288.067 24.7907C288.108 24.6246 288.145 24.469 288.176 24.3238C288.207 24.1785 288.222 24.0073 288.222 23.8102C288.222 23.1565 288.046 22.5911 287.693 22.1138C287.34 21.6366 286.837 21.3979 286.184 21.3979C285.841 21.3979 285.54 21.4861 285.281 21.6625C285.021 21.8389 284.84 22.0101 284.736 22.1761C284.632 22.3421 284.58 22.4407 284.58 22.4718C284.58 22.4822 284.606 22.4873 284.658 22.4873C284.845 22.4873 285.037 22.56 285.234 22.7052C285.431 22.8505 285.53 23.0891 285.53 23.4211C285.53 23.6805 285.447 23.8984 285.281 24.0748C285.115 24.2511 284.881 24.3445 284.58 24.3549Z" fill="#0BB7EE"/>
<circle cx="85" cy="118" r="25" fill="url(#paint3_radial_380_1047)"/>
<path d="M85.8926 117.274C85.8926 115.791 86.4502 114.383 87.5655 113.047C88.6808 111.712 89.9355 111.037 91.3297 111.022C92.2102 111.022 92.8852 111.404 93.3548 112.167C93.3695 112.152 93.4062 112.108 93.4649 112.035C93.5236 111.961 93.6043 111.881 93.707 111.792C93.8097 111.704 93.9271 111.616 94.0592 111.528C94.5582 111.176 94.8957 111 95.0718 111C95.1305 111 95.1819 111.022 95.2259 111.066C95.2699 111.11 95.2919 111.147 95.2919 111.176C95.2919 111.308 94.7856 113.399 93.7731 117.45C92.7311 121.617 92.2102 123.731 92.2102 123.789C92.2102 123.907 92.5404 123.973 93.2007 123.987H93.751C93.8391 124.105 93.8831 124.171 93.8831 124.186C93.8831 124.2 93.8611 124.332 93.8171 124.582C93.7584 124.773 93.685 124.912 93.597 125H93.3108C92.8559 124.971 92.0634 124.956 90.9334 124.956C90.5225 124.956 90.1483 124.956 89.8108 124.956C89.4733 124.956 89.2018 124.956 88.9963 124.956C88.7909 124.956 88.6662 124.963 88.6221 124.978C88.4167 124.978 88.314 124.919 88.314 124.802C88.314 124.758 88.3286 124.648 88.358 124.472C88.4167 124.237 88.468 124.097 88.5121 124.053C88.5561 124.009 88.7028 123.987 88.9523 123.987C89.6567 123.987 90.0823 123.936 90.229 123.833C90.3464 123.76 90.5519 123.114 90.8454 121.896C91.1389 120.678 91.293 120.055 91.3077 120.025C91.3077 120.01 91.2563 120.033 91.1536 120.091C90.4492 120.664 89.7154 120.95 88.9523 120.95C88.1452 120.95 87.4335 120.656 86.8171 120.069C86.2008 119.482 85.8926 118.55 85.8926 117.274ZM92.9146 113.553C92.577 112.394 92.0267 111.815 91.2636 111.815C90.75 111.815 90.2584 112.042 89.7888 112.497C89.3192 112.952 88.9523 113.546 88.6882 114.28C88.2626 115.439 87.9618 116.643 87.7857 117.89C87.7857 117.934 87.7857 118.015 87.7857 118.132C87.7857 118.249 87.7783 118.338 87.7636 118.396C87.7636 119.057 87.8957 119.512 88.1599 119.761C88.424 120.01 88.7395 120.143 89.1064 120.157C89.8989 120.157 90.7133 119.629 91.5498 118.572L91.7259 118.33L92.9146 113.553Z" fill="#0BB7EE"/>
<path d="M99.0271 115.036L98.8248 115.114C98.6795 115.166 98.472 115.218 98.2022 115.27C97.9325 115.321 97.6316 115.358 97.2996 115.379H97.0039V114.663H97.2996C97.7872 114.642 98.2386 114.564 98.6536 114.429C99.0686 114.294 99.3591 114.17 99.5251 114.056C99.6911 113.942 99.8363 113.827 99.9608 113.713C99.9816 113.682 100.044 113.667 100.148 113.667C100.241 113.667 100.329 113.698 100.412 113.76V118.413L100.428 123.082C100.5 123.155 100.563 123.201 100.614 123.222C100.666 123.243 100.791 123.264 100.988 123.284C101.185 123.305 101.507 123.316 101.953 123.316H102.358V124.031H102.186C101.968 124 101.144 123.985 99.7118 123.985C98.3008 123.985 97.4864 124 97.2685 124.031H97.0817V123.316H97.4864C97.7146 123.316 97.9117 123.316 98.0777 123.316C98.2437 123.316 98.3734 123.31 98.4668 123.3C98.5602 123.29 98.6432 123.274 98.7158 123.253C98.7884 123.233 98.8299 123.222 98.8403 123.222C98.8507 123.222 98.8818 123.196 98.9337 123.144C98.9856 123.093 99.0167 123.072 99.0271 123.082V115.036Z" fill="#0BB7EE"/>
<path d="M68 118.558C68 118.558 68 118.47 68 118.295C68 118.12 68.0942 117.985 68.2827 117.891H74.3212V114.862L74.3414 111.833C74.476 111.658 74.6039 111.57 74.7251 111.57C74.9001 111.57 75.0348 111.671 75.129 111.873V117.891H81.1473C81.3492 117.999 81.4502 118.134 81.4502 118.295C81.4502 118.457 81.3492 118.591 81.1473 118.699H75.129V124.717C75.0213 124.906 74.9001 125 74.7655 125H74.7251H74.6847C74.5231 125 74.402 124.906 74.3212 124.717V118.699H68.2827C68.0942 118.605 68 118.47 68 118.295V118.558Z" fill="#0BB7EE" stroke="#0BB7EE"/>
<circle cx="273" cy="211" r="25" fill="url(#paint4_radial_380_1047)"/>
<path d="M273.893 210.274C273.893 208.791 274.45 207.383 275.566 206.047C276.681 204.712 277.936 204.037 279.33 204.022C280.21 204.022 280.885 204.404 281.355 205.167C281.369 205.152 281.406 205.108 281.465 205.035C281.524 204.961 281.604 204.881 281.707 204.792C281.81 204.704 281.927 204.616 282.059 204.528C282.558 204.176 282.896 204 283.072 204C283.13 204 283.182 204.022 283.226 204.066C283.27 204.11 283.292 204.147 283.292 204.176C283.292 204.308 282.786 206.399 281.773 210.45C280.731 214.617 280.21 216.731 280.21 216.789C280.21 216.907 280.54 216.973 281.201 216.987H281.751C281.839 217.105 281.883 217.171 281.883 217.186C281.883 217.2 281.861 217.332 281.817 217.582C281.758 217.773 281.685 217.912 281.597 218H281.311C280.856 217.971 280.063 217.956 278.933 217.956C278.523 217.956 278.148 217.956 277.811 217.956C277.473 217.956 277.202 217.956 276.996 217.956C276.791 217.956 276.666 217.963 276.622 217.978C276.417 217.978 276.314 217.919 276.314 217.802C276.314 217.758 276.329 217.648 276.358 217.472C276.417 217.237 276.468 217.097 276.512 217.053C276.556 217.009 276.703 216.987 276.952 216.987C277.657 216.987 278.082 216.936 278.229 216.833C278.346 216.76 278.552 216.114 278.845 214.896C279.139 213.678 279.293 213.055 279.308 213.025C279.308 213.01 279.256 213.033 279.154 213.091C278.449 213.664 277.715 213.95 276.952 213.95C276.145 213.95 275.433 213.656 274.817 213.069C274.201 212.482 273.893 211.55 273.893 210.274ZM280.915 206.553C280.577 205.394 280.027 204.815 279.264 204.815C278.75 204.815 278.258 205.042 277.789 205.497C277.319 205.952 276.952 206.546 276.688 207.28C276.263 208.439 275.962 209.643 275.786 210.89C275.786 210.934 275.786 211.015 275.786 211.132C275.786 211.249 275.778 211.338 275.764 211.396C275.764 212.057 275.896 212.512 276.16 212.761C276.424 213.01 276.74 213.143 277.106 213.157C277.899 213.157 278.713 212.629 279.55 211.572L279.726 211.33L280.915 206.553Z" fill="#0BB7EE"/>
<path d="M287.027 208.036L286.825 208.114C286.68 208.166 286.472 208.218 286.202 208.27C285.932 208.321 285.632 208.358 285.3 208.379H285.004V207.663H285.3C285.787 207.642 286.239 207.564 286.654 207.429C287.069 207.294 287.359 207.17 287.525 207.056C287.691 206.942 287.836 206.827 287.961 206.713C287.982 206.682 288.044 206.667 288.148 206.667C288.241 206.667 288.329 206.698 288.412 206.76V211.413L288.428 216.082C288.5 216.155 288.563 216.201 288.614 216.222C288.666 216.243 288.791 216.264 288.988 216.284C289.185 216.305 289.507 216.316 289.953 216.316H290.358V217.031H290.186C289.968 217 289.144 216.985 287.712 216.985C286.301 216.985 285.486 217 285.268 217.031H285.082V216.316H285.486C285.715 216.316 285.912 216.316 286.078 216.316C286.244 216.316 286.373 216.31 286.467 216.3C286.56 216.29 286.643 216.274 286.716 216.253C286.788 216.233 286.83 216.222 286.84 216.222C286.851 216.222 286.882 216.196 286.934 216.144C286.986 216.093 287.017 216.072 287.027 216.082V208.036Z" fill="#0BB7EE"/>
<path d="M256 211.558C256 211.558 256 211.47 256 211.295C256 211.12 256.094 210.985 256.283 210.891H262.321V207.862L262.341 204.833C262.476 204.658 262.604 204.57 262.725 204.57C262.9 204.57 263.035 204.671 263.129 204.873V210.891H269.147C269.349 210.999 269.45 211.134 269.45 211.295C269.45 211.457 269.349 211.591 269.147 211.699H263.129V217.717C263.021 217.906 262.9 218 262.765 218H262.725H262.685C262.523 218 262.402 217.906 262.321 217.717V211.699H256.283C256.094 211.605 256 211.47 256 211.295V211.558Z" fill="#0BB7EE" stroke="#0BB7EE"/>
<circle cx="273" cy="118" r="25" fill="url(#paint5_radial_380_1047)"/>
<path d="M273.068 117.274C273.068 115.791 273.626 114.383 274.741 113.047C275.857 111.712 277.112 111.037 278.506 111.022C279.387 111.022 280.062 111.404 280.531 112.167C280.546 112.152 280.583 112.108 280.641 112.035C280.7 111.961 280.781 111.881 280.884 111.792C280.986 111.704 281.104 111.616 281.236 111.528C281.735 111.176 282.072 111 282.248 111C282.307 111 282.359 111.022 282.403 111.066C282.447 111.11 282.469 111.147 282.469 111.176C282.469 111.308 281.962 113.399 280.95 117.45C279.908 121.617 279.387 123.731 279.387 123.789C279.387 123.907 279.717 123.973 280.377 123.987H280.928C281.016 124.105 281.06 124.171 281.06 124.186C281.06 124.2 281.038 124.332 280.994 124.582C280.935 124.773 280.862 124.912 280.773 125H280.487C280.032 124.971 279.24 124.956 278.11 124.956C277.699 124.956 277.325 124.956 276.987 124.956C276.649 124.956 276.378 124.956 276.172 124.956C275.967 124.956 275.842 124.963 275.798 124.978C275.593 124.978 275.49 124.919 275.49 124.802C275.49 124.758 275.505 124.648 275.534 124.472C275.593 124.237 275.644 124.097 275.688 124.053C275.732 124.009 275.879 123.987 276.128 123.987C276.833 123.987 277.258 123.936 277.405 123.833C277.523 123.76 277.728 123.114 278.022 121.896C278.315 120.678 278.469 120.055 278.484 120.025C278.484 120.01 278.433 120.032 278.33 120.091C277.625 120.664 276.892 120.95 276.128 120.95C275.321 120.95 274.609 120.656 273.993 120.069C273.377 119.482 273.068 118.55 273.068 117.274ZM280.091 113.553C279.753 112.394 279.203 111.814 278.44 111.814C277.926 111.814 277.435 112.042 276.965 112.497C276.495 112.952 276.128 113.546 275.864 114.28C275.439 115.439 275.138 116.643 274.962 117.89C274.962 117.934 274.962 118.015 274.962 118.132C274.962 118.249 274.954 118.338 274.94 118.396C274.94 119.057 275.072 119.512 275.336 119.761C275.6 120.01 275.916 120.143 276.282 120.157C277.075 120.157 277.89 119.629 278.726 118.572L278.902 118.33L280.091 113.553Z" fill="#0BB7EE"/>
<path d="M284.58 117.355C284.3 117.355 284.077 117.262 283.911 117.075C283.745 116.888 283.662 116.66 283.662 116.39C283.662 115.653 283.937 115.015 284.487 114.476C285.037 113.936 285.722 113.666 286.542 113.666C287.486 113.666 288.274 113.957 288.907 114.538C289.54 115.119 289.862 115.871 289.872 116.795C289.872 117.241 289.769 117.666 289.561 118.071C289.353 118.475 289.104 118.828 288.814 119.129C288.523 119.43 288.108 119.814 287.569 120.281C287.195 120.602 286.676 121.08 286.012 121.713L285.094 122.584L286.277 122.6C287.906 122.6 288.772 122.574 288.876 122.522C288.949 122.501 289.073 122.039 289.25 121.137V121.09H289.872V121.137C289.862 121.168 289.794 121.64 289.67 122.553C289.545 123.466 289.468 123.943 289.436 123.985V124.031H283.662V123.736V123.549C283.662 123.476 283.693 123.398 283.755 123.315C283.818 123.232 283.973 123.051 284.222 122.771C284.523 122.439 284.783 122.148 285.001 121.899C285.094 121.796 285.27 121.604 285.53 121.323C285.789 121.043 285.966 120.851 286.059 120.748C286.152 120.644 286.303 120.473 286.51 120.234C286.718 119.995 286.863 119.819 286.946 119.705C287.029 119.591 287.149 119.435 287.304 119.238C287.46 119.041 287.569 118.875 287.631 118.74C287.693 118.605 287.771 118.455 287.864 118.289C287.958 118.123 288.025 117.957 288.067 117.791C288.108 117.625 288.145 117.469 288.176 117.324C288.207 117.179 288.222 117.007 288.222 116.81C288.222 116.157 288.046 115.591 287.693 115.114C287.34 114.637 286.837 114.398 286.184 114.398C285.841 114.398 285.54 114.486 285.281 114.663C285.021 114.839 284.84 115.01 284.736 115.176C284.632 115.342 284.58 115.441 284.58 115.472C284.58 115.482 284.606 115.487 284.658 115.487C284.845 115.487 285.037 115.56 285.234 115.705C285.431 115.85 285.53 116.089 285.53 116.421C285.53 116.68 285.447 116.898 285.281 117.075C285.115 117.251 284.881 117.345 284.58 117.355Z" fill="#0BB7EE"/>
<path d="M256 117.988C256 117.988 256 117.9 256 117.725C256 117.55 256.094 117.415 256.283 117.321H262.321V114.292L262.341 111.263C262.476 111.088 262.604 111 262.725 111C262.9 111 263.035 111.101 263.129 111.303V117.321H269.147C269.349 117.429 269.45 117.564 269.45 117.725C269.45 117.887 269.349 118.021 269.147 118.129H263.129V124.147C263.021 124.336 262.9 124.43 262.765 124.43H262.725H262.685C262.523 124.43 262.402 124.336 262.321 124.147V118.129H256.283C256.094 118.035 256 117.9 256 117.725V117.988Z" fill="#0BB7EE" stroke="#0BB7EE"/>
<path d="M354.615 24.819L338.381 17.1795C338.216 17.1017 338.133 17.0628 338.085 17.103C338.036 17.1431 338.058 17.2317 338.102 17.409L340 25L338.102 32.591C338.058 32.7683 338.036 32.8569 338.085 32.897C338.133 32.9372 338.216 32.8983 338.381 32.8205L354.615 25.181C354.782 25.1026 354.865 25.0635 354.865 25C354.865 24.9365 354.782 24.8974 354.615 24.819Z" fill="#132AF4"/>
<path d="M340 25L338.102 32.591C338.058 32.7683 338.036 32.8569 338.085 32.897C338.133 32.9372 338.216 32.8983 338.381 32.8205L354.615 25.181C354.782 25.1026 354.865 25.0635 354.865 25C354.865 24.9365 354.782 24.8974 354.615 24.819L338.381 17.1795C338.216 17.1017 338.133 17.0628 338.085 17.103C338.036 17.1431 338.058 17.2317 338.102 17.409L340 25ZM340 25H308" stroke="#132AF4" stroke-width="5"/>
<path d="M3.38455 25.181L19.6186 32.8205C19.7839 32.8983 19.8665 32.9372 19.9154 32.897C19.9642 32.8569 19.9421 32.7683 19.8978 32.591L18 25L19.8978 17.409C19.9421 17.2317 19.9642 17.1431 19.9154 17.103C19.8665 17.0628 19.7839 17.1017 19.6186 17.1795L3.38455 24.819C3.21809 24.8974 3.13485 24.9365 3.13485 25C3.13485 25.0635 3.21809 25.1026 3.38455 25.181Z" fill="#132AF4"/>
<path d="M18 25L19.8978 17.409C19.9421 17.2317 19.9642 17.1431 19.9154 17.103C19.8665 17.0628 19.7839 17.1017 19.6186 17.1795L3.38455 24.819C3.21809 24.8974 3.13485 24.9365 3.13485 25C3.13485 25.0635 3.21808 25.1026 3.38455 25.181L19.6186 32.8205C19.7839 32.8983 19.8665 32.9372 19.9154 32.897C19.9642 32.8569 19.9421 32.7683 19.8978 32.591L18 25ZM18 25H50" stroke="#132AF4" stroke-width="5"/>
<path d="M166.615 212.819L150.381 205.179C150.216 205.102 150.133 205.063 150.085 205.103C150.036 205.143 150.058 205.232 150.102 205.409L152 213L150.102 220.591C150.058 220.768 150.036 220.857 150.085 220.897C150.133 220.937 150.216 220.898 150.381 220.821L166.615 213.181C166.782 213.103 166.865 213.063 166.865 213C166.865 212.937 166.782 212.897 166.615 212.819Z" fill="#132AF4"/>
<path d="M152 213L150.102 220.591C150.058 220.768 150.036 220.857 150.085 220.897C150.133 220.937 150.216 220.898 150.381 220.821L166.615 213.181C166.782 213.103 166.865 213.063 166.865 213C166.865 212.937 166.782 212.897 166.615 212.819L150.381 205.179C150.216 205.102 150.133 205.063 150.085 205.103C150.036 205.143 150.058 205.232 150.102 205.409L152 213ZM152 213H120" stroke="#132AF4" stroke-width="5"/>
<path d="M354.615 117.819L338.381 110.179C338.216 110.102 338.133 110.063 338.085 110.103C338.036 110.143 338.058 110.232 338.102 110.409L340 118L338.102 125.591C338.058 125.768 338.036 125.857 338.085 125.897C338.133 125.937 338.216 125.898 338.381 125.821L354.615 118.181C354.782 118.103 354.865 118.063 354.865 118C354.865 117.937 354.782 117.897 354.615 117.819Z" fill="#EF2F2F"/>
<path d="M340 118L338.102 125.591C338.058 125.768 338.036 125.857 338.085 125.897C338.133 125.937 338.216 125.898 338.381 125.821L354.615 118.181C354.782 118.103 354.865 118.063 354.865 118C354.865 117.937 354.782 117.897 354.615 117.819L338.381 110.179C338.216 110.102 338.133 110.063 338.085 110.103C338.036 110.143 338.058 110.232 338.102 110.409L340 118ZM340 118H308" stroke="#EF2F2F" stroke-width="5"/>
<path d="M191.385 212.181L207.619 219.821C207.784 219.898 207.867 219.937 207.915 219.897C207.964 219.857 207.942 219.768 207.898 219.591L206 212L207.898 204.409C207.942 204.232 207.964 204.143 207.915 204.103C207.867 204.063 207.784 204.102 207.619 204.179L191.385 211.819C191.218 211.897 191.135 211.937 191.135 212C191.135 212.063 191.218 212.103 191.385 212.181Z" fill="#EF2F2F"/>
<path d="M206 212L207.898 204.409C207.942 204.232 207.964 204.143 207.915 204.103C207.867 204.063 207.784 204.102 207.619 204.179L191.385 211.819C191.218 211.897 191.135 211.937 191.135 212C191.135 212.063 191.218 212.103 191.385 212.181L207.619 219.821C207.784 219.898 207.867 219.937 207.915 219.897C207.964 219.857 207.942 219.768 207.898 219.591L206 212ZM206 212H238" stroke="#EF2F2F" stroke-width="5"/>
<path d="M3.38455 118.181L19.6186 125.821C19.7839 125.898 19.8665 125.937 19.9154 125.897C19.9642 125.857 19.9421 125.768 19.8978 125.591L18 118L19.8978 110.409C19.9421 110.232 19.9642 110.143 19.9154 110.103C19.8665 110.063 19.7839 110.102 19.6186 110.179L3.38455 117.819C3.21809 117.897 3.13485 117.937 3.13485 118C3.13485 118.063 3.21809 118.103 3.38455 118.181Z" fill="#EF2F2F"/>
<path d="M18 118L19.8978 110.409C19.9421 110.232 19.9642 110.143 19.9154 110.103C19.8665 110.063 19.7839 110.102 19.6186 110.179L3.38455 117.819C3.21809 117.897 3.13485 117.937 3.13485 118C3.13485 118.063 3.21808 118.103 3.38455 118.181L19.6186 125.821C19.7839 125.898 19.8665 125.937 19.9154 125.897C19.9642 125.857 19.9421 125.768 19.8978 125.591L18 118ZM18 118H50" stroke="#EF2F2F" stroke-width="5"/>
<path d="M273 144V185" stroke="#0BB7EE" stroke-width="3" stroke-dasharray="6 6"/>
<path d="M85 144V185" stroke="#0BB7EE" stroke-width="3" stroke-dasharray="6 6"/>
<path d="M85 170H273" stroke="#0BB7EE" stroke-width="3" stroke-dasharray="6 6"/>
<path d="M132.072 67.5088C132.072 67.3178 132.175 67.1709 132.381 67.068H146.421C146.641 67.1856 146.751 67.3325 146.751 67.5088C146.751 67.6705 146.648 67.8101 146.443 67.9276L139.434 67.9496H132.425C132.19 67.8762 132.072 67.7292 132.072 67.5088ZM132.072 71.7847C132.072 71.5643 132.19 71.4173 132.425 71.3439H146.443C146.648 71.4908 146.751 71.6377 146.751 71.7847C146.751 71.9757 146.641 72.1226 146.421 72.2255H132.381C132.175 72.1226 132.072 71.9757 132.072 71.7847Z" fill="#132AF4" stroke="#132AF4" stroke-width="0.5"/>
<path d="M161.671 60.8968C161.671 60.7498 161.701 60.5809 161.76 60.3898C161.818 60.1988 161.907 60.1033 162.024 60.1033C162.039 60.1033 162.568 60.0666 163.611 59.9931C164.654 59.9196 165.191 59.8756 165.22 59.8609C165.396 59.8609 165.484 59.9196 165.484 60.0372C165.484 60.14 165.117 61.6755 164.382 64.6436C163.648 67.5529 163.28 69.059 163.28 69.1619C163.56 69.0149 163.773 68.8754 163.92 68.7431C164.272 68.4786 164.779 68.0158 165.44 67.3546C166.102 66.6934 166.616 66.2452 166.983 66.0101C167.571 65.6134 168.129 65.415 168.658 65.415C169.099 65.415 169.444 65.5546 169.694 65.8338C169.944 66.113 170.076 66.5097 170.091 67.024C170.091 67.3913 170.039 67.6999 169.937 67.9497C169.834 68.1995 169.694 68.3831 169.518 68.5007C169.341 68.6182 169.187 68.699 169.055 68.7431C168.923 68.7872 168.79 68.8092 168.658 68.8092C168.364 68.8092 168.129 68.7284 167.953 68.5668C167.777 68.4052 167.688 68.1921 167.688 67.9276C167.688 67.5603 167.806 67.2591 168.041 67.024C168.276 66.7889 168.511 66.6346 168.746 66.5611L169.099 66.495C168.923 66.3187 168.746 66.2305 168.57 66.2305H168.482C168.012 66.2746 167.549 66.4583 167.093 66.7815C166.638 67.1048 166.102 67.575 165.484 68.1921C164.867 68.8092 164.382 69.2574 164.03 69.5366C164.059 69.5513 164.169 69.5733 164.36 69.6027C164.551 69.6321 164.728 69.6762 164.889 69.7349C165.051 69.7937 165.242 69.8525 165.462 69.9113C165.683 69.97 165.881 70.0729 166.057 70.2198C166.234 70.3668 166.395 70.499 166.542 70.6165C166.689 70.7341 166.814 70.9251 166.917 71.1896C167.02 71.4541 167.064 71.6965 167.049 71.9169C167.049 72.1667 167.013 72.4679 166.939 72.8206C166.866 73.1732 166.822 73.4671 166.807 73.7022C166.807 74.2899 167.005 74.5838 167.402 74.5838C168.107 74.5838 168.68 73.7095 169.121 71.961C169.15 71.8435 169.297 71.7847 169.562 71.7847H169.65C169.885 71.7847 170.003 71.8508 170.003 71.983C170.003 72.0565 169.981 72.1594 169.937 72.2916C169.334 74.3634 168.467 75.3993 167.336 75.3993C166.675 75.3993 166.138 75.2083 165.727 74.8262C165.315 74.4442 165.11 73.8932 165.11 73.1732C165.11 72.9087 165.132 72.681 165.176 72.49C165.22 72.299 165.242 72.1226 165.242 71.961C165.242 71.6377 165.139 71.3586 164.933 71.1235C164.728 70.8884 164.471 70.7194 164.162 70.6165C163.853 70.5137 163.604 70.4329 163.413 70.3741C163.222 70.3153 163.089 70.2933 163.016 70.308H162.972C162.795 70.9251 162.641 71.5202 162.509 72.0932C162.377 72.6663 162.274 73.0924 162.2 73.3716C162.127 73.6508 162.061 73.9226 162.002 74.1871C161.943 74.4516 161.892 74.6279 161.848 74.716C161.804 74.8042 161.752 74.8997 161.693 75.0026C161.635 75.1054 161.554 75.1715 161.451 75.2009C161.26 75.3332 161.054 75.3993 160.834 75.3993C160.584 75.3993 160.393 75.3258 160.261 75.1789C160.129 75.032 160.062 74.9071 160.062 74.8042C160.062 74.6573 160.334 73.4818 160.878 71.2778C161.422 69.0737 161.958 66.9064 162.487 64.7759L163.302 61.58C163.317 61.389 163.266 61.2715 163.148 61.2274C163.031 61.1833 162.744 61.1466 162.289 61.1172H162.178C162.031 61.1172 161.936 61.1172 161.892 61.1172C161.848 61.1172 161.796 61.0951 161.738 61.051C161.679 61.007 161.657 60.9555 161.671 60.8968Z" fill="#132AF4" stroke="#132AF4" stroke-width="0.5"/>
<path d="M171.818 75.8448C171.818 75.2526 171.917 74.7124 172.114 74.2242C172.312 73.7359 172.566 73.3308 172.878 73.0088C173.19 72.6867 173.538 72.4166 173.922 72.1985C174.306 71.9803 174.67 71.8193 175.013 71.7154C175.356 71.6115 175.683 71.5648 175.994 71.5752H176.041C176.509 71.5752 176.914 71.6894 177.257 71.918C177.599 72.1465 177.771 72.4841 177.771 72.9308C177.771 73.8658 177.194 74.4787 176.041 74.7696C175.532 74.9046 174.836 74.9773 173.953 74.9877C173.569 74.9877 173.371 74.9981 173.361 75.0189C173.361 75.0397 173.33 75.2215 173.268 75.5643C173.205 75.9071 173.169 76.2084 173.158 76.4681C173.158 76.9563 173.268 77.3407 173.486 77.6212C173.704 77.9017 174.031 78.0471 174.467 78.0575C174.904 78.0679 175.387 77.9692 175.917 77.7614C176.446 77.5536 176.924 77.2108 177.35 76.733C177.444 76.6291 177.506 76.5771 177.537 76.5771C177.579 76.5771 177.646 76.6239 177.74 76.7174C177.833 76.8109 177.885 76.8836 177.896 76.9355C177.906 76.9875 177.859 77.0706 177.755 77.1849C177.651 77.2991 177.496 77.4394 177.288 77.6056C177.08 77.7718 176.841 77.9328 176.571 78.0886C176.301 78.2445 175.974 78.3743 175.589 78.4782C175.205 78.5821 174.81 78.634 174.405 78.634C173.584 78.634 172.951 78.3587 172.504 77.8082C172.057 77.2576 171.829 76.6031 171.818 75.8448ZM177.023 72.962C176.961 72.4218 176.607 72.1517 175.963 72.1517C175.62 72.1517 175.304 72.2244 175.013 72.3699C174.722 72.5153 174.488 72.6919 174.312 72.8997C174.135 73.1074 173.984 73.3204 173.86 73.5386C173.735 73.7567 173.652 73.9437 173.61 74.0995C173.569 74.2554 173.543 74.354 173.532 74.3956C173.532 74.406 173.636 74.4112 173.844 74.4112C175.018 74.4112 175.839 74.2865 176.306 74.0372C176.774 73.7879 177.013 73.4295 177.023 72.962Z" fill="#132AF4" stroke="#132AF4" stroke-width="0.5"/>
<path d="M187.488 65.0182H187.444C187.267 65.0182 187.135 64.9153 187.047 64.7096V53.998L187.069 43.2864C187.216 43.0954 187.355 42.9999 187.488 42.9999C187.679 42.9999 187.826 43.1101 187.928 43.3305V64.7096C187.811 64.9153 187.679 65.0182 187.532 65.0182H187.488Z" fill="#132AF4" stroke="#132AF4" stroke-width="0.5"/>
<path d="M191.275 56.0587C191.275 54.5746 191.834 53.164 192.95 51.8269C194.067 50.4898 195.323 49.8139 196.719 49.7992C197.601 49.7992 198.277 50.1812 198.747 50.9453C198.762 50.9306 198.798 50.8865 198.857 50.8131C198.916 50.7396 198.997 50.6588 199.1 50.5706C199.203 50.4825 199.32 50.3943 199.452 50.3061C199.952 49.9535 200.29 49.7772 200.466 49.7772C200.525 49.7772 200.576 49.7992 200.62 49.8433C200.665 49.8874 200.687 49.9241 200.687 49.9535C200.687 50.0857 200.18 52.1796 199.166 56.235C198.123 60.4079 197.601 62.5238 197.601 62.5826C197.601 62.7001 197.932 62.7663 198.593 62.7809H199.144C199.232 62.8985 199.276 62.9646 199.276 62.9793C199.276 62.994 199.254 63.1262 199.21 63.376C199.151 63.567 199.078 63.7066 198.989 63.7948H198.703C198.247 63.7654 197.454 63.7507 196.323 63.7507C195.911 63.7507 195.537 63.7507 195.199 63.7507C194.861 63.7507 194.589 63.7507 194.383 63.7507C194.177 63.7507 194.052 63.7581 194.008 63.7728C193.803 63.7728 193.7 63.714 193.7 63.5964C193.7 63.5524 193.715 63.4422 193.744 63.2658C193.803 63.0307 193.854 62.8911 193.898 62.8471C193.942 62.803 194.089 62.7809 194.339 62.7809C195.044 62.7809 195.47 62.7295 195.617 62.6267C195.735 62.5532 195.941 61.9067 196.234 60.6871C196.528 59.4676 196.683 58.8431 196.697 58.8137C196.697 58.799 196.646 58.821 196.543 58.8798C195.838 59.4529 195.103 59.7394 194.339 59.7394C193.531 59.7394 192.818 59.4455 192.201 58.8578C191.584 58.27 191.275 57.337 191.275 56.0587ZM198.306 52.3338C197.968 51.173 197.417 50.5927 196.653 50.5927C196.139 50.5927 195.647 50.8204 195.177 51.2759C194.706 51.7314 194.339 52.3265 194.075 53.0612C193.648 54.222 193.347 55.4268 193.171 56.6758C193.171 56.7199 193.171 56.8007 193.171 56.9182C193.171 57.0358 193.164 57.1239 193.149 57.1827C193.149 57.8439 193.281 58.2994 193.546 58.5492C193.81 58.799 194.126 58.9312 194.493 58.9459C195.287 58.9459 196.102 58.417 196.94 57.359L197.116 57.1166L198.306 52.3338Z" fill="#132AF4" stroke="#132AF4" stroke-width="0.5"/>
<path d="M204.426 53.8184L204.224 53.8963C204.078 53.9482 203.87 54.0002 203.6 54.0521C203.33 54.1041 203.029 54.1404 202.696 54.1612H202.4V53.4444H202.696C203.185 53.4236 203.637 53.3457 204.052 53.2107C204.468 53.0756 204.759 52.951 204.925 52.8367C205.091 52.7224 205.236 52.6081 205.361 52.4939C205.382 52.4627 205.444 52.4471 205.548 52.4471C205.642 52.4471 205.73 52.4783 205.813 52.5406V57.1998L205.829 61.8745C205.901 61.9473 205.964 61.994 206.016 62.0148C206.067 62.0356 206.192 62.0563 206.39 62.0771C206.587 62.0979 206.909 62.1083 207.356 62.1083H207.761V62.8251H207.589C207.371 62.7939 206.545 62.7783 205.112 62.7783C203.699 62.7783 202.883 62.7939 202.665 62.8251H202.478V62.1083H202.883C203.112 62.1083 203.309 62.1083 203.476 62.1083C203.642 62.1083 203.772 62.1031 203.865 62.0927C203.959 62.0823 204.042 62.0667 204.114 62.0459C204.187 62.0252 204.229 62.0148 204.239 62.0148C204.25 62.0148 204.281 61.9888 204.333 61.9369C204.385 61.8849 204.416 61.8642 204.426 61.8745V53.8184Z" fill="#132AF4" stroke="#132AF4" stroke-width="0.5"/>
<path d="M213.072 65.0182H213.028C212.851 65.0182 212.719 64.9153 212.631 64.7096V53.998L212.653 43.2864C212.8 43.0954 212.939 42.9999 213.072 42.9999C213.263 42.9999 213.41 43.1101 213.512 43.3305V64.7096C213.395 64.9153 213.263 65.0182 213.116 65.0182H213.072Z" fill="#132AF4" stroke="#132AF4" stroke-width="0.5"/>
<path d="M224.087 65.0182H224.043C223.867 65.0182 223.735 64.9153 223.646 64.7096V53.998L223.669 43.2864C223.815 43.0954 223.955 42.9999 224.087 42.9999C224.278 42.9999 224.425 43.1101 224.528 43.3305V64.7096C224.411 64.9153 224.278 65.0182 224.131 65.0182H224.087Z" fill="#132AF4" stroke="#132AF4" stroke-width="0.5"/>
<path d="M227.883 56.0587C227.883 54.5746 228.441 53.164 229.558 51.8269C230.675 50.4898 231.931 49.8139 233.327 49.7992C234.208 49.7992 234.884 50.1812 235.354 50.9453C235.369 50.9306 235.406 50.8865 235.465 50.8131C235.523 50.7396 235.604 50.6588 235.707 50.5706C235.81 50.4825 235.928 50.3943 236.06 50.3061C236.559 49.9535 236.897 49.7772 237.074 49.7772C237.132 49.7772 237.184 49.7992 237.228 49.8433C237.272 49.8874 237.294 49.9241 237.294 49.9535C237.294 50.0857 236.787 52.1796 235.773 56.235C234.73 60.4079 234.208 62.5238 234.208 62.5826C234.208 62.7001 234.539 62.7663 235.2 62.7809H235.751C235.839 62.8985 235.883 62.9646 235.883 62.9793C235.883 62.994 235.861 63.1262 235.817 63.376C235.759 63.567 235.685 63.7066 235.597 63.7948H235.31C234.855 63.7654 234.061 63.7507 232.93 63.7507C232.519 63.7507 232.144 63.7507 231.806 63.7507C231.468 63.7507 231.196 63.7507 230.99 63.7507C230.785 63.7507 230.66 63.7581 230.616 63.7728C230.41 63.7728 230.307 63.714 230.307 63.5964C230.307 63.5524 230.322 63.4422 230.351 63.2658C230.41 63.0307 230.462 62.8911 230.506 62.8471C230.55 62.803 230.697 62.7809 230.946 62.7809C231.652 62.7809 232.078 62.7295 232.225 62.6267C232.342 62.5532 232.548 61.9067 232.842 60.6871C233.136 59.4676 233.29 58.8431 233.305 58.8137C233.305 58.799 233.253 58.821 233.15 58.8798C232.445 59.4529 231.71 59.7394 230.946 59.7394C230.138 59.7394 229.426 59.4455 228.809 58.8578C228.191 58.27 227.883 57.337 227.883 56.0587ZM234.914 52.3338C234.576 51.173 234.025 50.5927 233.261 50.5927C232.746 50.5927 232.254 50.8204 231.784 51.2759C231.314 51.7314 230.946 52.3265 230.682 53.0612C230.256 54.222 229.955 55.4268 229.778 56.6758C229.778 56.7199 229.778 56.8007 229.778 56.9182C229.778 57.0358 229.771 57.1239 229.756 57.1827C229.756 57.8439 229.888 58.2994 230.153 58.5492C230.417 58.799 230.733 58.9312 231.101 58.9459C231.894 58.9459 232.71 58.417 233.547 57.359L233.723 57.1166L234.914 52.3338Z" fill="#132AF4" stroke="#132AF4" stroke-width="0.5"/>
<path d="M239.41 56.1403C239.129 56.1403 238.906 56.0468 238.74 55.8598C238.573 55.6728 238.49 55.4443 238.49 55.1742C238.49 54.4366 238.766 53.7977 239.316 53.2575C239.867 52.7173 240.552 52.4473 241.373 52.4473C242.318 52.4473 243.108 52.7381 243.742 53.3199C244.375 53.9016 244.697 54.6548 244.708 55.5793C244.708 56.026 244.604 56.452 244.396 56.8571C244.188 57.2622 243.939 57.6154 243.648 57.9167C243.357 58.218 242.942 58.6023 242.401 59.0698C242.027 59.3919 241.508 59.8697 240.843 60.5034L239.924 61.376L241.108 61.3916C242.739 61.3916 243.606 61.3656 243.71 61.3137C243.783 61.2929 243.908 60.8306 244.084 59.9269V59.8801H244.708V59.9269C244.697 59.958 244.63 60.4307 244.505 61.3449C244.38 62.259 244.303 62.7369 244.271 62.7784V62.8252H238.49V62.5291V62.3421C238.49 62.2694 238.521 62.1915 238.584 62.1084C238.646 62.0253 238.802 61.8435 239.051 61.563C239.352 61.2306 239.612 60.9397 239.83 60.6904C239.924 60.5865 240.1 60.3943 240.36 60.1138C240.62 59.8334 240.796 59.6412 240.89 59.5373C240.983 59.4334 241.134 59.262 241.342 59.0231C241.55 58.7841 241.695 58.6075 241.778 58.4933C241.861 58.379 241.981 58.2232 242.137 58.0258C242.292 57.8284 242.401 57.6622 242.464 57.5271C242.526 57.3921 242.604 57.2415 242.698 57.0753C242.791 56.909 242.859 56.7428 242.9 56.5766C242.942 56.4104 242.978 56.2546 243.009 56.1091C243.04 55.9637 243.056 55.7923 243.056 55.5949C243.056 54.9405 242.879 54.3743 242.526 53.8964C242.173 53.4186 241.669 53.1796 241.015 53.1796C240.672 53.1796 240.371 53.2679 240.111 53.4445C239.851 53.6211 239.669 53.7925 239.565 53.9588C239.462 54.125 239.41 54.2237 239.41 54.2548C239.41 54.2652 239.436 54.2704 239.488 54.2704C239.675 54.2704 239.867 54.3431 240.064 54.4886C240.261 54.634 240.36 54.8729 240.36 55.2054C240.36 55.4651 240.277 55.6832 240.111 55.8598C239.945 56.0364 239.711 56.1299 239.41 56.1403Z" fill="#132AF4" stroke="#132AF4" stroke-width="0.5"/>
<path d="M249.667 65.0182H249.623C249.447 65.0182 249.315 64.9153 249.227 64.7096V53.998L249.249 43.2864C249.396 43.0954 249.535 42.9999 249.667 42.9999C249.858 42.9999 250.005 43.1101 250.108 43.3305V64.7096C249.991 64.9153 249.858 65.0182 249.711 65.0182H249.667Z" fill="#132AF4" stroke="#132AF4" stroke-width="0.5"/>
<path d="M205.367 86.1218C205.382 86.0777 205.397 86.019 205.411 85.9455C205.426 85.872 205.463 85.7104 205.521 85.4606C205.58 85.2108 205.654 84.9831 205.742 84.7773C205.83 84.5716 205.94 84.3292 206.072 84.05C206.205 83.7708 206.352 83.5504 206.513 83.3888C206.675 83.2272 206.866 83.0655 207.086 82.9039C207.307 82.7423 207.549 82.6762 207.814 82.7056C208.24 82.7056 208.614 82.7937 208.938 82.97C209.261 83.1464 209.489 83.308 209.621 83.4549C209.753 83.6019 209.834 83.7488 209.863 83.8957C209.893 83.9839 209.915 84.028 209.93 84.028C209.944 84.028 210.003 83.9765 210.106 83.8737C210.811 83.1096 211.627 82.7276 212.552 82.7276H212.618C213.324 82.7276 213.853 83.0288 214.205 83.6313C214.323 83.9104 214.382 84.1823 214.382 84.4467C214.382 84.8875 214.286 85.2402 214.095 85.5047C213.904 85.7692 213.713 85.9381 213.522 86.0116C213.331 86.0851 213.147 86.1145 212.971 86.0998C212.677 86.0998 212.442 86.019 212.266 85.8573C212.089 85.6957 212.001 85.4826 212.001 85.2182C212.001 84.5129 212.413 84.0427 213.236 83.8076C212.912 83.6166 212.648 83.521 212.442 83.521C211.619 83.521 210.863 84.0647 210.172 85.152C210.025 85.3871 209.915 85.6296 209.841 85.8794C209.768 86.1292 209.518 87.1063 209.092 88.8107C208.592 90.8678 208.306 91.9625 208.232 92.0947C208.041 92.4915 207.726 92.6898 207.285 92.6898C207.094 92.6898 206.939 92.6457 206.822 92.5576C206.704 92.4694 206.623 92.3813 206.579 92.2931C206.535 92.2049 206.521 92.1315 206.535 92.0727C206.535 91.8817 206.829 90.618 207.417 88.2818C208.005 85.9455 208.299 84.6451 208.299 84.3806C208.299 83.8076 208.108 83.521 207.726 83.521C207.417 83.521 207.152 83.7268 206.932 84.1382C206.712 84.5496 206.535 84.9978 206.403 85.4826C206.271 85.9675 206.19 86.232 206.161 86.2761C206.131 86.3055 206.014 86.3202 205.808 86.3202H205.499C205.411 86.232 205.367 86.1659 205.367 86.1218Z" fill="#132AF4" stroke="#132AF4" stroke-width="0.5"/>
<path d="M217.271 77.969C216.99 77.969 216.767 77.8755 216.601 77.6886C216.435 77.5016 216.352 77.273 216.352 77.0029C216.352 76.2654 216.627 75.6265 217.177 75.0863C217.728 74.5461 218.414 74.276 219.234 74.276C220.18 74.276 220.969 74.5669 221.603 75.1486C222.237 75.7304 222.559 76.4835 222.569 77.4081C222.569 77.8548 222.465 78.2807 222.257 78.6858C222.05 79.091 221.8 79.4442 221.509 79.7454C221.218 80.0467 220.803 80.4311 220.263 80.8985C219.889 81.2206 219.369 81.6984 218.705 82.3321L217.785 83.2048L218.969 83.2203C220.6 83.2203 221.468 83.1944 221.572 83.1424C221.644 83.1217 221.769 82.6594 221.946 81.7556V81.7088H222.569V81.7556C222.559 81.7868 222.491 82.2594 222.366 83.1736C222.242 84.0878 222.164 84.5656 222.133 84.6072V84.6539H216.352V84.3579V84.1709C216.352 84.0982 216.383 84.0202 216.445 83.9371C216.507 83.854 216.663 83.6722 216.913 83.3917C217.214 83.0593 217.474 82.7684 217.692 82.5191C217.785 82.4152 217.962 82.2231 218.221 81.9426C218.481 81.6621 218.658 81.4699 218.751 81.366C218.845 81.2621 218.995 81.0907 219.203 80.8518C219.411 80.6129 219.556 80.4363 219.639 80.322C219.723 80.2077 219.842 80.0519 219.998 79.8545C220.154 79.6571 220.263 79.4909 220.325 79.3559C220.387 79.2208 220.465 79.0702 220.559 78.904C220.652 78.7378 220.72 78.5716 220.761 78.4053C220.803 78.2391 220.839 78.0833 220.87 77.9379C220.902 77.7924 220.917 77.621 220.917 77.4237C220.917 76.7692 220.741 76.203 220.387 75.7252C220.034 75.2473 219.53 75.0084 218.876 75.0084C218.533 75.0084 218.232 75.0967 217.972 75.2733C217.712 75.4499 217.531 75.6213 217.427 75.7875C217.323 75.9537 217.271 76.0524 217.271 76.0836C217.271 76.0939 217.297 76.0991 217.349 76.0991C217.536 76.0991 217.728 76.1719 217.925 76.3173C218.123 76.4627 218.221 76.7017 218.221 77.0341C218.221 77.2938 218.138 77.512 217.972 77.6886C217.806 77.8652 217.572 77.9586 217.271 77.969Z" fill="#132AF4" stroke="#132AF4" stroke-width="0.5"/>
<path d="M218.891 89.9933L218.688 90.0712C218.543 90.1232 218.335 90.1751 218.065 90.2271C217.795 90.279 217.494 90.3154 217.161 90.3361H216.865V89.6193H217.161C217.65 89.5986 218.101 89.5206 218.517 89.3856C218.933 89.2505 219.223 89.1259 219.39 89.0116C219.556 88.8973 219.701 88.7831 219.826 88.6688C219.847 88.6376 219.909 88.6221 220.013 88.6221C220.106 88.6221 220.195 88.6532 220.278 88.7156V93.3747L220.293 98.0495C220.366 98.1222 220.428 98.1689 220.48 98.1897C220.532 98.2105 220.657 98.2313 220.854 98.252C221.052 98.2728 221.374 98.2832 221.82 98.2832H222.226V99H222.054C221.836 98.9688 221.01 98.9533 219.577 98.9533C218.164 98.9533 217.348 98.9688 217.13 99H216.943V98.2832H217.348C217.577 98.2832 217.774 98.2832 217.94 98.2832C218.107 98.2832 218.236 98.278 218.33 98.2676C218.423 98.2572 218.507 98.2417 218.579 98.2209C218.652 98.2001 218.694 98.1897 218.704 98.1897C218.714 98.1897 218.746 98.1637 218.797 98.1118C218.849 98.0599 218.881 98.0391 218.891 98.0495V89.9933Z" fill="#132AF4" stroke="#132AF4" stroke-width="0.5"/>
<path d="M225.064 92.3151C224.783 92.3151 224.56 92.2216 224.394 92.0346C224.228 91.8476 224.145 91.6191 224.145 91.349C224.145 90.6114 224.42 89.9725 224.97 89.4323C225.521 88.8922 226.207 88.6221 227.027 88.6221C227.973 88.6221 228.762 88.9129 229.396 89.4947C230.03 90.0764 230.352 90.8296 230.362 91.7541C230.362 92.2008 230.258 92.6268 230.05 93.0319C229.843 93.437 229.593 93.7903 229.302 94.0915C229.011 94.3928 228.596 94.7771 228.056 95.2446C227.682 95.5667 227.162 96.0445 226.497 96.6782L225.578 97.5508L226.762 97.5664C228.393 97.5664 229.261 97.5404 229.365 97.4885C229.437 97.4677 229.562 97.0054 229.739 96.1017V96.0549H230.362V96.1017C230.352 96.1328 230.284 96.6055 230.159 97.5197C230.035 98.4338 229.957 98.9117 229.926 98.9533V99H224.145V98.7039V98.5169C224.145 98.4442 224.176 98.3663 224.238 98.2832C224.3 98.2001 224.456 98.0183 224.706 97.7378C225.007 97.4054 225.266 97.1145 225.485 96.8652C225.578 96.7613 225.755 96.5691 226.014 96.2886C226.274 96.0082 226.451 95.816 226.544 95.7121C226.638 95.6082 226.788 95.4368 226.996 95.1979C227.204 94.9589 227.349 94.7823 227.432 94.6681C227.516 94.5538 227.635 94.398 227.791 94.2006C227.947 94.0032 228.056 93.837 228.118 93.702C228.18 93.5669 228.258 93.4163 228.352 93.2501C228.445 93.0838 228.513 92.9176 228.554 92.7514C228.596 92.5852 228.632 92.4294 228.663 92.2839C228.695 92.1385 228.71 91.9671 228.71 91.7697C228.71 91.1153 228.534 90.5491 228.18 90.0712C227.827 89.5934 227.323 89.3544 226.669 89.3544C226.326 89.3544 226.025 89.4427 225.765 89.6193C225.505 89.7959 225.324 89.9673 225.22 90.1336C225.116 90.2998 225.064 90.3985 225.064 90.4296C225.064 90.44 225.09 90.4452 225.142 90.4452C225.329 90.4452 225.521 90.5179 225.718 90.6634C225.916 90.8088 226.014 91.0477 226.014 91.3802C226.014 91.6399 225.931 91.858 225.765 92.0346C225.599 92.2112 225.365 92.3047 225.064 92.3151Z" fill="#132AF4" stroke="#132AF4" stroke-width="0.5"/>
<path d="M254.936 70.3077H182.223V68.9853H254.936V70.3077Z" fill="#132AF4" stroke="#132AF4" stroke-width="0.5"/>
<path d="M104.375 77.9963C104.125 77.9963 104 77.9228 104 77.7759C104 77.7465 104.022 77.6436 104.066 77.4673C104.125 77.2322 104.184 77.1 104.242 77.0706C104.301 77.0412 104.47 77.0191 104.749 77.0045C105.146 77.0045 105.587 76.9824 106.072 76.9383C106.277 76.8943 106.417 76.8061 106.491 76.6739C106.52 76.6004 107.042 74.5359 108.055 70.4805C109.069 66.4251 109.584 64.368 109.598 64.3092C109.598 64.2064 109.569 64.155 109.51 64.155C109.393 64.1109 109.003 64.0741 108.342 64.0448H107.659C107.571 63.9566 107.526 63.8978 107.526 63.8684C107.526 63.839 107.541 63.7141 107.571 63.4937C107.629 63.244 107.703 63.0897 107.791 63.0309H119.671C119.774 63.0897 119.825 63.1705 119.825 63.2733C119.825 63.3468 119.729 64.1696 119.538 65.7419C119.347 67.3141 119.245 68.1222 119.23 68.1663C119.2 68.2691 119.054 68.3206 118.789 68.3206H118.525C118.422 68.2471 118.37 68.1516 118.37 68.034C118.37 68.0194 118.392 67.843 118.436 67.5051C118.48 67.1671 118.503 66.7778 118.503 66.3369C118.503 65.8961 118.451 65.5361 118.348 65.257C118.245 64.9778 118.106 64.75 117.929 64.5737C117.753 64.3974 117.481 64.2798 117.114 64.2211C116.747 64.1623 116.372 64.1109 115.99 64.0668C115.608 64.0227 115.079 64.0154 114.403 64.0448H113.896C112.691 64.0594 112.052 64.0815 111.979 64.1109C111.905 64.1403 111.854 64.199 111.824 64.2872C111.81 64.3019 111.56 65.2643 111.075 67.1745L110.37 70.0177H111.582C111.626 70.0177 111.795 70.0177 112.089 70.0177C112.383 70.0177 112.588 70.0103 112.706 69.9956C112.823 69.9809 112.985 69.9589 113.191 69.9295C113.397 69.9001 113.573 69.8487 113.72 69.7752C113.867 69.7018 113.992 69.6136 114.094 69.5107C114.285 69.3344 114.447 69.092 114.579 68.7834C114.712 68.4749 114.807 68.1957 114.866 67.9459C114.925 67.6961 114.961 67.5639 114.976 67.5492C115.02 67.4757 115.16 67.439 115.395 67.439H115.659C115.762 67.5124 115.814 67.5859 115.814 67.6594C115.814 67.7034 115.586 68.6659 115.13 70.5466C114.675 72.4274 114.425 73.3972 114.381 73.456C114.352 73.5588 114.205 73.6102 113.94 73.6102H113.676C113.573 73.5221 113.521 73.4339 113.521 73.3458C113.521 73.3017 113.558 73.1401 113.632 72.8609C113.705 72.5817 113.742 72.2878 113.742 71.9793C113.742 71.5532 113.595 71.2887 113.301 71.1858C113.007 71.083 112.353 71.0315 111.339 71.0315H110.127L109.422 73.8307C108.952 75.6527 108.717 76.6077 108.717 76.6959C108.717 76.9016 109.37 77.0045 110.678 77.0045H111.229C111.317 77.0926 111.361 77.144 111.361 77.1587C111.361 77.1734 111.347 77.3204 111.317 77.5995C111.259 77.7906 111.185 77.9301 111.097 78.0183H110.722C110.12 77.9889 109.01 77.9742 107.394 77.9742C106.439 77.9742 105.712 77.9742 105.212 77.9742C104.713 77.9742 104.433 77.9816 104.375 77.9963Z" fill="#132AF4" stroke="#132AF4" stroke-width="0.5"/>
<path d="M116.721 58.4437C116.721 58.3254 116.758 58.2219 116.832 58.1331C116.906 58.0443 117.017 58 117.165 58C117.268 58 117.357 58.037 117.431 58.1109C117.505 58.1701 117.579 58.3106 117.653 58.5325C117.801 59.0798 118.104 59.5014 118.563 59.7972C118.725 59.9008 118.807 60.0339 118.807 60.1966C118.807 60.3298 118.784 60.4185 118.74 60.4629C118.696 60.5073 118.592 60.5738 118.429 60.6626C117.793 60.988 117.239 61.454 116.765 62.0605C116.736 62.0901 116.699 62.1344 116.655 62.1936C116.61 62.2528 116.573 62.2972 116.544 62.3267C116.514 62.3563 116.477 62.3711 116.433 62.3711C116.388 62.3711 116.336 62.3785 116.277 62.3933C116.174 62.3933 116.078 62.3563 115.989 62.2824C115.9 62.2084 115.848 62.0975 115.834 61.9495C115.834 61.6685 116.181 61.2321 116.876 60.6404H113.082L109.288 60.6182C109.096 60.4851 109 60.3446 109 60.1966C109 60.0931 109.096 59.9452 109.288 59.7529H117.254C116.899 59.1908 116.721 58.7544 116.721 58.4437Z" fill="#132AF4"/>
<path d="M99.4408 81.0183H99.3967C99.2204 81.0183 99.0882 80.9108 99 80.6957V69.4976L99.022 58.2995C99.169 58.0998 99.3086 58 99.4408 58C99.6318 58 99.7788 58.1152 99.8816 58.3456V80.6957C99.7641 80.9108 99.6318 81.0183 99.4849 81.0183H99.4408Z" fill="#132AF4" stroke="#132AF4" stroke-width="0.5"/>
<path d="M125.021 81.0183H124.977C124.8 81.0183 124.668 80.9108 124.58 80.6957V69.4976L124.602 58.2995C124.749 58.0998 124.889 58 125.021 58C125.212 58 125.359 58.1152 125.462 58.3456V80.6957C125.344 80.9108 125.212 81.0183 125.065 81.0183H125.021Z" fill="#132AF4" stroke="#132AF4" stroke-width="0.5"/>
<path d="M169 145.974C169.034 145.871 169.068 145.735 169.103 145.563C169.137 145.392 169.222 145.016 169.359 144.434C169.496 143.852 169.667 143.321 169.873 142.842C170.078 142.363 170.335 141.798 170.643 141.148C170.951 140.497 171.293 139.984 171.67 139.607C172.046 139.231 172.491 138.854 173.005 138.478C173.518 138.101 174.083 137.947 174.699 138.016C175.692 138.016 176.565 138.221 177.318 138.632C178.071 139.043 178.601 139.419 178.91 139.761C179.218 140.104 179.406 140.446 179.474 140.788C179.543 140.994 179.594 141.096 179.628 141.096C179.663 141.096 179.8 140.977 180.039 140.737C181.682 138.957 183.582 138.067 185.738 138.067H185.892C187.535 138.067 188.768 138.769 189.589 140.172C189.863 140.823 190 141.456 190 142.072C190 143.099 189.778 143.92 189.333 144.537C188.888 145.153 188.443 145.546 187.998 145.717C187.553 145.889 187.125 145.957 186.714 145.923C186.029 145.923 185.482 145.735 185.071 145.358C184.66 144.982 184.455 144.485 184.455 143.869C184.455 142.226 185.413 141.131 187.33 140.583C186.577 140.138 185.961 139.915 185.482 139.915C183.565 139.915 181.802 141.182 180.193 143.715C179.851 144.263 179.594 144.827 179.423 145.409C179.252 145.991 178.67 148.268 177.677 152.238C176.513 157.03 175.846 159.581 175.675 159.889C175.23 160.813 174.494 161.275 173.467 161.275C173.022 161.275 172.663 161.172 172.389 160.967C172.115 160.761 171.927 160.556 171.824 160.351C171.721 160.145 171.687 159.974 171.721 159.837C171.721 159.392 172.406 156.448 173.775 151.006C175.144 145.563 175.829 142.534 175.829 141.918C175.829 140.583 175.384 139.915 174.494 139.915C173.775 139.915 173.159 140.395 172.645 141.353C172.132 142.312 171.721 143.356 171.413 144.485C171.105 145.615 170.917 146.231 170.848 146.334C170.78 146.402 170.506 146.436 170.027 146.436H169.308C169.103 146.231 169 146.077 169 145.974Z" fill="#132AF4"/>
<defs>
<radialGradient id="paint0_radial_380_1047" cx="0" cy="0" r="1" gradientUnits="userSpaceOnUse" gradientTransform="translate(85 25) rotate(90) scale(25)">
<stop stop-color="#2400FF"/>
<stop offset="1" stop-color="#0D005D"/>
</radialGradient>
<radialGradient id="paint1_radial_380_1047" cx="0" cy="0" r="1" gradientUnits="userSpaceOnUse" gradientTransform="translate(85 211) rotate(90) scale(25)">
<stop stop-color="#2400FF"/>
<stop offset="1" stop-color="#0D005D"/>
</radialGradient>
<radialGradient id="paint2_radial_380_1047" cx="0" cy="0" r="1" gradientUnits="userSpaceOnUse" gradientTransform="translate(273 25) rotate(90) scale(25)">
<stop stop-color="#2400FF"/>
<stop offset="1" stop-color="#0D005D"/>
</radialGradient>
<radialGradient id="paint3_radial_380_1047" cx="0" cy="0" r="1" gradientUnits="userSpaceOnUse" gradientTransform="translate(85 118) rotate(90) scale(25)">
<stop stop-color="#EC5959"/>
<stop offset="1" stop-color="#7D0707"/>
</radialGradient>
<radialGradient id="paint4_radial_380_1047" cx="0" cy="0" r="1" gradientUnits="userSpaceOnUse" gradientTransform="translate(273 211) rotate(90) scale(25)">
<stop stop-color="#EC5959"/>
<stop offset="1" stop-color="#7D0707"/>
</radialGradient>
<radialGradient id="paint5_radial_380_1047" cx="0" cy="0" r="1" gradientUnits="userSpaceOnUse" gradientTransform="translate(273 118) rotate(90) scale(25)">
<stop stop-color="#EC5959"/>
<stop offset="1" stop-color="#7D0707"/>
</radialGradient>
</defs>
</svg>
