<svg width="358" height="238" viewBox="0 0 358 238" fill="none" xmlns="http://www.w3.org/2000/svg">
<circle cx="85" cy="26" r="25" fill="#1B00C4" stroke="#132AF4"/>
<path d="M68 26.8459C68 26.8459 68 26.7505 68 26.5597C68 26.369 68.1027 26.2222 68.3082 26.1195H81.0974C81.3176 26.2369 81.4276 26.3836 81.4276 26.5597C81.4276 26.7358 81.3176 26.8826 81.0974 27H68.3082C68.1027 26.8973 68 26.7505 68 26.5597V26.8459Z" fill="#0BB7EE" stroke="#0BB7EE"/>
<path d="M85.8926 25.2736C85.8926 23.7914 86.4502 22.3826 87.5655 21.0472C88.6808 19.7118 89.9355 19.0367 91.3297 19.0221C92.2102 19.0221 92.8852 19.4036 93.3548 20.1667C93.3695 20.152 93.4062 20.108 93.4649 20.0346C93.5236 19.9613 93.6043 19.8805 93.707 19.7925C93.8097 19.7044 93.9271 19.6164 94.0592 19.5283C94.5582 19.1761 94.8957 19 95.0718 19C95.1305 19 95.1819 19.0221 95.2259 19.0661C95.2699 19.1101 95.2919 19.1468 95.2919 19.1761C95.2919 19.3082 94.7856 21.3994 93.7731 25.4497C92.7311 29.6174 92.2102 31.7306 92.2102 31.7893C92.2102 31.9067 92.5404 31.9727 93.2007 31.9874H93.751C93.8391 32.1048 93.8831 32.1709 93.8831 32.1855C93.8831 32.2002 93.8611 32.3323 93.8171 32.5818C93.7584 32.7725 93.685 32.9119 93.597 33H93.3108C92.8559 32.9706 92.0634 32.956 90.9334 32.956C90.5225 32.956 90.1483 32.956 89.8108 32.956C89.4733 32.956 89.2018 32.956 88.9963 32.956C88.7909 32.956 88.6662 32.9633 88.6221 32.978C88.4167 32.978 88.314 32.9193 88.314 32.8019C88.314 32.7579 88.3286 32.6478 88.358 32.4717C88.4167 32.2369 88.468 32.0975 88.5121 32.0535C88.5561 32.0094 88.7028 31.9874 88.9523 31.9874C89.6567 31.9874 90.0823 31.9361 90.229 31.8333C90.3464 31.76 90.5519 31.1143 90.8454 29.8962C91.1389 28.6782 91.293 28.0545 91.3077 28.0252C91.3077 28.0105 91.2563 28.0325 91.1536 28.0912C90.4492 28.6635 89.7154 28.9497 88.9523 28.9497C88.1452 28.9497 87.4335 28.6562 86.8171 28.0692C86.2008 27.4822 85.8926 26.5503 85.8926 25.2736ZM92.9146 21.5535C92.577 20.3942 92.0267 19.8145 91.2636 19.8145C90.75 19.8145 90.2584 20.042 89.7888 20.4969C89.3192 20.9518 88.9523 21.5462 88.6882 22.2799C88.2626 23.4392 87.9618 24.6426 87.7857 25.89C87.7857 25.934 87.7857 26.0147 87.7857 26.1321C87.7857 26.2495 87.7783 26.3375 87.7636 26.3962C87.7636 27.0566 87.8957 27.5115 88.1599 27.761C88.424 28.0105 88.7395 28.1426 89.1064 28.1572C89.8989 28.1572 90.7133 27.6289 91.5498 26.5723L91.7259 26.3302L92.9146 21.5535Z" fill="#0BB7EE"/>
<path d="M99.0271 23.0362L98.8248 23.114C98.6795 23.1659 98.472 23.2177 98.2022 23.2696C97.9325 23.3215 97.6316 23.3578 97.2996 23.3786H97.0039V22.6627H97.2996C97.7872 22.6419 98.2386 22.5641 98.6536 22.4292C99.0686 22.2943 99.3591 22.1698 99.5251 22.0557C99.6911 21.9416 99.8363 21.8275 99.9608 21.7133C99.9816 21.6822 100.044 21.6666 100.148 21.6666C100.241 21.6666 100.329 21.6978 100.412 21.76V26.4133L100.428 31.0822C100.5 31.1548 100.563 31.2015 100.614 31.2222C100.666 31.243 100.791 31.2637 100.988 31.2845C101.185 31.3052 101.507 31.3156 101.953 31.3156H102.358V32.0315H102.186C101.968 32.0004 101.144 31.9848 99.7118 31.9848C98.3008 31.9848 97.4864 32.0004 97.2685 32.0315H97.0817V31.3156H97.4864C97.7146 31.3156 97.9117 31.3156 98.0777 31.3156C98.2437 31.3156 98.3734 31.3104 98.4668 31.3C98.5602 31.2897 98.6432 31.2741 98.7158 31.2534C98.7884 31.2326 98.8299 31.2222 98.8403 31.2222C98.8507 31.2222 98.8818 31.1963 98.9337 31.1444C98.9856 31.0925 99.0167 31.0718 99.0271 31.0822V23.0362Z" fill="#0BB7EE"/>
<circle cx="85" cy="212" r="25" fill="#1B00C4" stroke="#132AF4"/>
<path d="M68 212.846C68 212.846 68 212.751 68 212.56C68 212.369 68.1027 212.222 68.3082 212.119H81.0974C81.3176 212.237 81.4276 212.384 81.4276 212.56C81.4276 212.736 81.3176 212.883 81.0974 213H68.3082C68.1027 212.897 68 212.751 68 212.56V212.846Z" fill="#0BB7EE" stroke="#0BB7EE"/>
<path d="M85.8926 211.274C85.8926 209.791 86.4502 208.383 87.5655 207.047C88.6808 205.712 89.9355 205.037 91.3297 205.022C92.2102 205.022 92.8852 205.404 93.3548 206.167C93.3695 206.152 93.4062 206.108 93.4649 206.035C93.5236 205.961 93.6043 205.881 93.707 205.792C93.8097 205.704 93.9271 205.616 94.0592 205.528C94.5582 205.176 94.8957 205 95.0718 205C95.1305 205 95.1819 205.022 95.2259 205.066C95.2699 205.11 95.2919 205.147 95.2919 205.176C95.2919 205.308 94.7856 207.399 93.7731 211.45C92.7311 215.617 92.2102 217.731 92.2102 217.789C92.2102 217.907 92.5404 217.973 93.2007 217.987H93.751C93.8391 218.105 93.8831 218.171 93.8831 218.186C93.8831 218.2 93.8611 218.332 93.8171 218.582C93.7584 218.773 93.685 218.912 93.597 219H93.3108C92.8559 218.971 92.0634 218.956 90.9334 218.956C90.5225 218.956 90.1483 218.956 89.8108 218.956C89.4733 218.956 89.2018 218.956 88.9963 218.956C88.7909 218.956 88.6662 218.963 88.6221 218.978C88.4167 218.978 88.314 218.919 88.314 218.802C88.314 218.758 88.3286 218.648 88.358 218.472C88.4167 218.237 88.468 218.097 88.5121 218.053C88.5561 218.009 88.7028 217.987 88.9523 217.987C89.6567 217.987 90.0823 217.936 90.229 217.833C90.3464 217.76 90.5519 217.114 90.8454 215.896C91.1389 214.678 91.293 214.055 91.3077 214.025C91.3077 214.01 91.2563 214.033 91.1536 214.091C90.4492 214.664 89.7154 214.95 88.9523 214.95C88.1452 214.95 87.4335 214.656 86.8171 214.069C86.2008 213.482 85.8926 212.55 85.8926 211.274ZM92.9146 207.553C92.577 206.394 92.0267 205.815 91.2636 205.815C90.75 205.815 90.2584 206.042 89.7888 206.497C89.3192 206.952 88.9523 207.546 88.6882 208.28C88.2626 209.439 87.9618 210.643 87.7857 211.89C87.7857 211.934 87.7857 212.015 87.7857 212.132C87.7857 212.249 87.7783 212.338 87.7636 212.396C87.7636 213.057 87.8957 213.512 88.1599 213.761C88.424 214.01 88.7395 214.143 89.1064 214.157C89.8989 214.157 90.7133 213.629 91.5498 212.572L91.7259 212.33L92.9146 207.553Z" fill="#0BB7EE"/>
<path d="M99.0271 209.036L98.8248 209.114C98.6795 209.166 98.472 209.218 98.2022 209.27C97.9325 209.321 97.6316 209.358 97.2996 209.379H97.0039V208.663H97.2996C97.7872 208.642 98.2386 208.564 98.6536 208.429C99.0686 208.294 99.3591 208.17 99.5251 208.056C99.6911 207.942 99.8363 207.827 99.9608 207.713C99.9816 207.682 100.044 207.667 100.148 207.667C100.241 207.667 100.329 207.698 100.412 207.76V212.413L100.428 217.082C100.5 217.155 100.563 217.201 100.614 217.222C100.666 217.243 100.791 217.264 100.988 217.284C101.185 217.305 101.507 217.316 101.953 217.316H102.358V218.031H102.186C101.968 218 101.144 217.985 99.7118 217.985C98.3008 217.985 97.4864 218 97.2685 218.031H97.0817V217.316H97.4864C97.7146 217.316 97.9117 217.316 98.0777 217.316C98.2437 217.316 98.3734 217.31 98.4668 217.3C98.5602 217.29 98.6432 217.274 98.7158 217.253C98.7884 217.233 98.8299 217.222 98.8403 217.222C98.8507 217.222 98.8818 217.196 98.9337 217.144C98.9856 217.093 99.0167 217.072 99.0271 217.082V209.036Z" fill="#0BB7EE"/>
<circle cx="273" cy="26" r="25" fill="#1B00C4" stroke="#132AF4"/>
<path d="M256 25.8459C256 25.8459 256 25.7505 256 25.5597C256 25.369 256.103 25.2222 256.308 25.1195H269.097C269.318 25.2369 269.428 25.3836 269.428 25.5597C269.428 25.7358 269.318 25.8826 269.097 26H256.308C256.103 25.8973 256 25.7505 256 25.5597V25.8459Z" fill="#0BB7EE" stroke="#0BB7EE"/>
<path d="M273.068 25.2736C273.068 23.7914 273.626 22.3826 274.741 21.0472C275.857 19.7117 277.112 19.0367 278.506 19.022C279.387 19.022 280.062 19.4036 280.531 20.1667C280.546 20.152 280.583 20.108 280.641 20.0346C280.7 19.9612 280.781 19.8805 280.884 19.7925C280.986 19.7044 281.104 19.6164 281.236 19.5283C281.735 19.1761 282.072 19 282.248 19C282.307 19 282.359 19.022 282.403 19.066C282.447 19.1101 282.469 19.1468 282.469 19.1761C282.469 19.3082 281.962 21.3994 280.95 25.4497C279.908 29.6174 279.387 31.7306 279.387 31.7893C279.387 31.9067 279.717 31.9727 280.377 31.9874H280.928C281.016 32.1048 281.06 32.1709 281.06 32.1855C281.06 32.2002 281.038 32.3323 280.994 32.5818C280.935 32.7725 280.862 32.9119 280.773 33H280.487C280.032 32.9706 279.24 32.956 278.11 32.956C277.699 32.956 277.325 32.956 276.987 32.956C276.649 32.956 276.378 32.956 276.172 32.956C275.967 32.956 275.842 32.9633 275.798 32.978C275.593 32.978 275.49 32.9193 275.49 32.8019C275.49 32.7579 275.505 32.6478 275.534 32.4717C275.593 32.2369 275.644 32.0975 275.688 32.0535C275.732 32.0094 275.879 31.9874 276.128 31.9874C276.833 31.9874 277.258 31.9361 277.405 31.8333C277.523 31.76 277.728 31.1143 278.022 29.8962C278.315 28.6782 278.469 28.0545 278.484 28.0252C278.484 28.0105 278.433 28.0325 278.33 28.0912C277.625 28.6635 276.892 28.9497 276.128 28.9497C275.321 28.9497 274.609 28.6562 273.993 28.0692C273.377 27.4822 273.068 26.5503 273.068 25.2736ZM280.091 21.5535C279.753 20.3941 279.203 19.8145 278.44 19.8145C277.926 19.8145 277.435 20.0419 276.965 20.4969C276.495 20.9518 276.128 21.5461 275.864 22.2799C275.439 23.4392 275.138 24.6426 274.962 25.8899C274.962 25.934 274.962 26.0147 274.962 26.1321C274.962 26.2495 274.954 26.3375 274.94 26.3962C274.94 27.0566 275.072 27.5115 275.336 27.761C275.6 28.0105 275.916 28.1426 276.282 28.1572C277.075 28.1572 277.89 27.6289 278.726 26.5723L278.902 26.3302L280.091 21.5535Z" fill="#0BB7EE"/>
<path d="M284.58 25.355C284.3 25.355 284.077 25.2616 283.911 25.0749C283.745 24.8881 283.662 24.6599 283.662 24.3901C283.662 23.6535 283.937 23.0154 284.487 22.4759C285.037 21.9364 285.722 21.6666 286.542 21.6666C287.486 21.6666 288.274 21.9571 288.907 22.5381C289.54 23.1191 289.862 23.8714 289.872 24.7947C289.872 25.2409 289.769 25.6663 289.561 26.0709C289.353 26.4755 289.104 26.8283 288.814 27.1292C288.523 27.4301 288.108 27.8139 287.569 28.2808C287.195 28.6025 286.676 29.0797 286.012 29.7126L285.094 30.5841L286.277 30.5997C287.906 30.5997 288.772 30.5738 288.876 30.5219C288.949 30.5011 289.073 30.0394 289.25 29.1368V29.0901H289.872V29.1368C289.862 29.1679 289.794 29.64 289.67 30.553C289.545 31.466 289.468 31.9433 289.436 31.9848V32.0315H283.662V31.7358V31.549C283.662 31.4764 283.693 31.3986 283.755 31.3156C283.818 31.2326 283.973 31.051 284.222 30.7709C284.523 30.4389 284.783 30.1484 285.001 29.8994C285.094 29.7956 285.27 29.6037 285.53 29.3236C285.789 29.0434 285.966 28.8515 286.059 28.7477C286.152 28.644 286.303 28.4728 286.51 28.2341C286.718 27.9955 286.863 27.8191 286.946 27.705C287.029 27.5909 287.149 27.4353 287.304 27.2381C287.46 27.041 287.569 26.875 287.631 26.7401C287.693 26.6052 287.771 26.4548 287.864 26.2888C287.958 26.1228 288.025 25.9568 288.067 25.7908C288.108 25.6248 288.145 25.4691 288.176 25.3239C288.207 25.1786 288.222 25.0074 288.222 24.8103C288.222 24.1567 288.046 23.5912 287.693 23.114C287.34 22.6367 286.837 22.3981 286.184 22.3981C285.841 22.3981 285.54 22.4863 285.281 22.6626C285.021 22.839 284.84 23.0102 284.736 23.1762C284.632 23.3422 284.58 23.4408 284.58 23.4719C284.58 23.4823 284.606 23.4875 284.658 23.4875C284.845 23.4875 285.037 23.5601 285.234 23.7053C285.431 23.8506 285.53 24.0892 285.53 24.4212C285.53 24.6806 285.447 24.8985 285.281 25.0749C285.115 25.2513 284.881 25.3446 284.58 25.355Z" fill="#0BB7EE"/>
<circle cx="85" cy="119" r="25" fill="#EF2F2F" stroke="#EF2F2F"/>
<path d="M85.8926 118.274C85.8926 116.791 86.4502 115.383 87.5655 114.047C88.6808 112.712 89.9355 112.037 91.3297 112.022C92.2102 112.022 92.8852 112.404 93.3548 113.167C93.3695 113.152 93.4062 113.108 93.4649 113.035C93.5236 112.961 93.6043 112.881 93.707 112.792C93.8097 112.704 93.9271 112.616 94.0592 112.528C94.5582 112.176 94.8957 112 95.0718 112C95.1305 112 95.1819 112.022 95.2259 112.066C95.2699 112.11 95.2919 112.147 95.2919 112.176C95.2919 112.308 94.7856 114.399 93.7731 118.45C92.7311 122.617 92.2102 124.731 92.2102 124.789C92.2102 124.907 92.5404 124.973 93.2007 124.987H93.751C93.8391 125.105 93.8831 125.171 93.8831 125.186C93.8831 125.2 93.8611 125.332 93.8171 125.582C93.7584 125.773 93.685 125.912 93.597 126H93.3108C92.8559 125.971 92.0634 125.956 90.9334 125.956C90.5225 125.956 90.1483 125.956 89.8108 125.956C89.4733 125.956 89.2018 125.956 88.9963 125.956C88.7909 125.956 88.6662 125.963 88.6221 125.978C88.4167 125.978 88.314 125.919 88.314 125.802C88.314 125.758 88.3286 125.648 88.358 125.472C88.4167 125.237 88.468 125.097 88.5121 125.053C88.5561 125.009 88.7028 124.987 88.9523 124.987C89.6567 124.987 90.0823 124.936 90.229 124.833C90.3464 124.76 90.5519 124.114 90.8454 122.896C91.1389 121.678 91.293 121.055 91.3077 121.025C91.3077 121.01 91.2563 121.033 91.1536 121.091C90.4492 121.664 89.7154 121.95 88.9523 121.95C88.1452 121.95 87.4335 121.656 86.8171 121.069C86.2008 120.482 85.8926 119.55 85.8926 118.274ZM92.9146 114.553C92.577 113.394 92.0267 112.815 91.2636 112.815C90.75 112.815 90.2584 113.042 89.7888 113.497C89.3192 113.952 88.9523 114.546 88.6882 115.28C88.2626 116.439 87.9618 117.643 87.7857 118.89C87.7857 118.934 87.7857 119.015 87.7857 119.132C87.7857 119.249 87.7783 119.338 87.7636 119.396C87.7636 120.057 87.8957 120.512 88.1599 120.761C88.424 121.01 88.7395 121.143 89.1064 121.157C89.8989 121.157 90.7133 120.629 91.5498 119.572L91.7259 119.33L92.9146 114.553Z" fill="#0BB7EE"/>
<path d="M99.0271 116.036L98.8248 116.114C98.6795 116.166 98.472 116.218 98.2022 116.27C97.9325 116.321 97.6316 116.358 97.2996 116.379H97.0039V115.663H97.2996C97.7872 115.642 98.2386 115.564 98.6536 115.429C99.0686 115.294 99.3591 115.17 99.5251 115.056C99.6911 114.942 99.8363 114.827 99.9608 114.713C99.9816 114.682 100.044 114.667 100.148 114.667C100.241 114.667 100.329 114.698 100.412 114.76V119.413L100.428 124.082C100.5 124.155 100.563 124.201 100.614 124.222C100.666 124.243 100.791 124.264 100.988 124.284C101.185 124.305 101.507 124.316 101.953 124.316H102.358V125.031H102.186C101.968 125 101.144 124.985 99.7118 124.985C98.3008 124.985 97.4864 125 97.2685 125.031H97.0817V124.316H97.4864C97.7146 124.316 97.9117 124.316 98.0777 124.316C98.2437 124.316 98.3734 124.31 98.4668 124.3C98.5602 124.29 98.6432 124.274 98.7158 124.253C98.7884 124.233 98.8299 124.222 98.8403 124.222C98.8507 124.222 98.8818 124.196 98.9337 124.144C98.9856 124.093 99.0167 124.072 99.0271 124.082V116.036Z" fill="#0BB7EE"/>
<path d="M68 119.558C68 119.558 68 119.47 68 119.295C68 119.12 68.0942 118.985 68.2827 118.891H74.3212V115.862L74.3414 112.833C74.476 112.658 74.6039 112.57 74.7251 112.57C74.9001 112.57 75.0348 112.671 75.129 112.873V118.891H81.1473C81.3492 118.999 81.4502 119.134 81.4502 119.295C81.4502 119.457 81.3492 119.591 81.1473 119.699H75.129V125.717C75.0213 125.906 74.9001 126 74.7655 126H74.7251H74.6847C74.5231 126 74.402 125.906 74.3212 125.717V119.699H68.2827C68.0942 119.605 68 119.47 68 119.295V119.558Z" fill="#0BB7EE" stroke="#0BB7EE"/>
<circle cx="273" cy="212" r="25" fill="#EF2F2F" stroke="#EF2F2F"/>
<path d="M273.893 211.274C273.893 209.791 274.45 208.383 275.566 207.047C276.681 205.712 277.936 205.037 279.33 205.022C280.21 205.022 280.885 205.404 281.355 206.167C281.369 206.152 281.406 206.108 281.465 206.035C281.524 205.961 281.604 205.881 281.707 205.792C281.81 205.704 281.927 205.616 282.059 205.528C282.558 205.176 282.896 205 283.072 205C283.13 205 283.182 205.022 283.226 205.066C283.27 205.11 283.292 205.147 283.292 205.176C283.292 205.308 282.786 207.399 281.773 211.45C280.731 215.617 280.21 217.731 280.21 217.789C280.21 217.907 280.54 217.973 281.201 217.987H281.751C281.839 218.105 281.883 218.171 281.883 218.186C281.883 218.2 281.861 218.332 281.817 218.582C281.758 218.773 281.685 218.912 281.597 219H281.311C280.856 218.971 280.063 218.956 278.933 218.956C278.523 218.956 278.148 218.956 277.811 218.956C277.473 218.956 277.202 218.956 276.996 218.956C276.791 218.956 276.666 218.963 276.622 218.978C276.417 218.978 276.314 218.919 276.314 218.802C276.314 218.758 276.329 218.648 276.358 218.472C276.417 218.237 276.468 218.097 276.512 218.053C276.556 218.009 276.703 217.987 276.952 217.987C277.657 217.987 278.082 217.936 278.229 217.833C278.346 217.76 278.552 217.114 278.845 215.896C279.139 214.678 279.293 214.055 279.308 214.025C279.308 214.01 279.256 214.033 279.154 214.091C278.449 214.664 277.715 214.95 276.952 214.95C276.145 214.95 275.433 214.656 274.817 214.069C274.201 213.482 273.893 212.55 273.893 211.274ZM280.915 207.553C280.577 206.394 280.027 205.815 279.264 205.815C278.75 205.815 278.258 206.042 277.789 206.497C277.319 206.952 276.952 207.546 276.688 208.28C276.263 209.439 275.962 210.643 275.786 211.89C275.786 211.934 275.786 212.015 275.786 212.132C275.786 212.249 275.778 212.338 275.764 212.396C275.764 213.057 275.896 213.512 276.16 213.761C276.424 214.01 276.74 214.143 277.106 214.157C277.899 214.157 278.713 213.629 279.55 212.572L279.726 212.33L280.915 207.553Z" fill="#0BB7EE"/>
<path d="M287.027 209.036L286.825 209.114C286.68 209.166 286.472 209.218 286.202 209.27C285.932 209.321 285.632 209.358 285.3 209.379H285.004V208.663H285.3C285.787 208.642 286.239 208.564 286.654 208.429C287.069 208.294 287.359 208.17 287.525 208.056C287.691 207.942 287.836 207.827 287.961 207.713C287.982 207.682 288.044 207.667 288.148 207.667C288.241 207.667 288.329 207.698 288.412 207.76V212.413L288.428 217.082C288.5 217.155 288.563 217.201 288.614 217.222C288.666 217.243 288.791 217.264 288.988 217.284C289.185 217.305 289.507 217.316 289.953 217.316H290.358V218.031H290.186C289.968 218 289.144 217.985 287.712 217.985C286.301 217.985 285.486 218 285.268 218.031H285.082V217.316H285.486C285.715 217.316 285.912 217.316 286.078 217.316C286.244 217.316 286.373 217.31 286.467 217.3C286.56 217.29 286.643 217.274 286.716 217.253C286.788 217.233 286.83 217.222 286.84 217.222C286.851 217.222 286.882 217.196 286.934 217.144C286.986 217.093 287.017 217.072 287.027 217.082V209.036Z" fill="#0BB7EE"/>
<path d="M256 212.558C256 212.558 256 212.47 256 212.295C256 212.12 256.094 211.985 256.283 211.891H262.321V208.862L262.341 205.833C262.476 205.658 262.604 205.57 262.725 205.57C262.9 205.57 263.035 205.671 263.129 205.873V211.891H269.147C269.349 211.999 269.45 212.134 269.45 212.295C269.45 212.457 269.349 212.591 269.147 212.699H263.129V218.717C263.021 218.906 262.9 219 262.765 219H262.725H262.685C262.523 219 262.402 218.906 262.321 218.717V212.699H256.283C256.094 212.605 256 212.47 256 212.295V212.558Z" fill="#0BB7EE" stroke="#0BB7EE"/>
<circle cx="273" cy="119" r="25" fill="#EF2F2F" stroke="#EF2F2F"/>
<path d="M273.068 118.274C273.068 116.791 273.626 115.383 274.741 114.047C275.857 112.712 277.112 112.037 278.506 112.022C279.387 112.022 280.062 112.404 280.531 113.167C280.546 113.152 280.583 113.108 280.641 113.035C280.7 112.961 280.781 112.881 280.884 112.792C280.986 112.704 281.104 112.616 281.236 112.528C281.735 112.176 282.072 112 282.248 112C282.307 112 282.359 112.022 282.403 112.066C282.447 112.11 282.469 112.147 282.469 112.176C282.469 112.308 281.962 114.399 280.95 118.45C279.908 122.617 279.387 124.731 279.387 124.789C279.387 124.907 279.717 124.973 280.377 124.987H280.928C281.016 125.105 281.06 125.171 281.06 125.186C281.06 125.2 281.038 125.332 280.994 125.582C280.935 125.773 280.862 125.912 280.773 126H280.487C280.032 125.971 279.24 125.956 278.11 125.956C277.699 125.956 277.325 125.956 276.987 125.956C276.649 125.956 276.378 125.956 276.172 125.956C275.967 125.956 275.842 125.963 275.798 125.978C275.593 125.978 275.49 125.919 275.49 125.802C275.49 125.758 275.505 125.648 275.534 125.472C275.593 125.237 275.644 125.097 275.688 125.053C275.732 125.009 275.879 124.987 276.128 124.987C276.833 124.987 277.258 124.936 277.405 124.833C277.523 124.76 277.728 124.114 278.022 122.896C278.315 121.678 278.469 121.055 278.484 121.025C278.484 121.01 278.433 121.032 278.33 121.091C277.625 121.664 276.892 121.95 276.128 121.95C275.321 121.95 274.609 121.656 273.993 121.069C273.377 120.482 273.068 119.55 273.068 118.274ZM280.091 114.553C279.753 113.394 279.203 112.814 278.44 112.814C277.926 112.814 277.435 113.042 276.965 113.497C276.495 113.952 276.128 114.546 275.864 115.28C275.439 116.439 275.138 117.643 274.962 118.89C274.962 118.934 274.962 119.015 274.962 119.132C274.962 119.249 274.954 119.338 274.94 119.396C274.94 120.057 275.072 120.512 275.336 120.761C275.6 121.01 275.916 121.143 276.282 121.157C277.075 121.157 277.89 120.629 278.726 119.572L278.902 119.33L280.091 114.553Z" fill="#0BB7EE"/>
<path d="M284.58 118.355C284.3 118.355 284.077 118.262 283.911 118.075C283.745 117.888 283.662 117.66 283.662 117.39C283.662 116.653 283.937 116.015 284.487 115.476C285.037 114.936 285.722 114.667 286.542 114.667C287.486 114.667 288.274 114.957 288.907 115.538C289.54 116.119 289.862 116.871 289.872 117.795C289.872 118.241 289.769 118.666 289.561 119.071C289.353 119.476 289.104 119.828 288.814 120.129C288.523 120.43 288.108 120.814 287.569 121.281C287.195 121.602 286.676 122.08 286.012 122.713L285.094 123.584L286.277 123.6C287.906 123.6 288.772 123.574 288.876 123.522C288.949 123.501 289.073 123.039 289.25 122.137V122.09H289.872V122.137C289.862 122.168 289.794 122.64 289.67 123.553C289.545 124.466 289.468 124.943 289.436 124.985V125.031H283.662V124.736V124.549C283.662 124.476 283.693 124.399 283.755 124.316C283.818 124.233 283.973 124.051 284.222 123.771C284.523 123.439 284.783 123.148 285.001 122.899C285.094 122.796 285.27 122.604 285.53 122.324C285.789 122.043 285.966 121.851 286.059 121.748C286.152 121.644 286.303 121.473 286.51 121.234C286.718 120.996 286.863 120.819 286.946 120.705C287.029 120.591 287.149 120.435 287.304 120.238C287.46 120.041 287.569 119.875 287.631 119.74C287.693 119.605 287.771 119.455 287.864 119.289C287.958 119.123 288.025 118.957 288.067 118.791C288.108 118.625 288.145 118.469 288.176 118.324C288.207 118.179 288.222 118.007 288.222 117.81C288.222 117.157 288.046 116.591 287.693 116.114C287.34 115.637 286.837 115.398 286.184 115.398C285.841 115.398 285.54 115.486 285.281 115.663C285.021 115.839 284.84 116.01 284.736 116.176C284.632 116.342 284.58 116.441 284.58 116.472C284.58 116.482 284.606 116.487 284.658 116.487C284.845 116.487 285.037 116.56 285.234 116.705C285.431 116.851 285.53 117.089 285.53 117.421C285.53 117.681 285.447 117.899 285.281 118.075C285.115 118.251 284.881 118.345 284.58 118.355Z" fill="#0BB7EE"/>
<path d="M256 118.988C256 118.988 256 118.9 256 118.725C256 118.55 256.094 118.415 256.283 118.321H262.321V115.292L262.341 112.262C262.476 112.087 262.604 112 262.725 112C262.9 112 263.035 112.101 263.129 112.303V118.321H269.147C269.349 118.429 269.45 118.563 269.45 118.725C269.45 118.887 269.349 119.021 269.147 119.129H263.129V125.147C263.021 125.336 262.9 125.43 262.765 125.43H262.725H262.685C262.523 125.43 262.402 125.336 262.321 125.147V119.129H256.283C256.094 119.035 256 118.9 256 118.725V118.988Z" fill="#0BB7EE" stroke="#0BB7EE"/>
<path d="M354.615 25.819L338.381 18.1795C338.216 18.1017 338.133 18.0628 338.085 18.103C338.036 18.1431 338.058 18.2317 338.102 18.409L340 26L338.102 33.591C338.058 33.7683 338.036 33.8569 338.085 33.897C338.133 33.9372 338.216 33.8983 338.381 33.8205L354.615 26.181C354.782 26.1026 354.865 26.0635 354.865 26C354.865 25.9365 354.782 25.8974 354.615 25.819Z" fill="#132AF4"/>
<path d="M340 26L338.102 33.591C338.058 33.7683 338.036 33.8569 338.085 33.897C338.133 33.9372 338.216 33.8983 338.381 33.8205L354.615 26.181C354.782 26.1026 354.865 26.0635 354.865 26C354.865 25.9365 354.782 25.8974 354.615 25.819L338.381 18.1795C338.216 18.1017 338.133 18.0628 338.085 18.103C338.036 18.1431 338.058 18.2317 338.102 18.409L340 26ZM340 26H308" stroke="#132AF4" stroke-width="5"/>
<path d="M3.38455 26.181L19.6186 33.8205C19.7839 33.8983 19.8665 33.9372 19.9154 33.897C19.9642 33.8569 19.9421 33.7683 19.8978 33.591L18 26L19.8978 18.409C19.9421 18.2317 19.9642 18.1431 19.9154 18.103C19.8665 18.0628 19.7839 18.1017 19.6186 18.1795L3.38455 25.819C3.21809 25.8974 3.13485 25.9365 3.13485 26C3.13485 26.0635 3.21809 26.1026 3.38455 26.181Z" fill="#132AF4"/>
<path d="M18 26L19.8978 18.409C19.9421 18.2317 19.9642 18.1431 19.9154 18.103C19.8665 18.0628 19.7839 18.1017 19.6186 18.1795L3.38455 25.819C3.21809 25.8974 3.13485 25.9365 3.13485 26C3.13485 26.0635 3.21808 26.1026 3.38455 26.181L19.6186 33.8205C19.7839 33.8983 19.8665 33.9372 19.9154 33.897C19.9642 33.8569 19.9421 33.7683 19.8978 33.591L18 26ZM18 26H50" stroke="#132AF4" stroke-width="5"/>
<path d="M166.615 213.819L150.381 206.179C150.216 206.102 150.133 206.063 150.085 206.103C150.036 206.143 150.058 206.232 150.102 206.409L152 214L150.102 221.591C150.058 221.768 150.036 221.857 150.085 221.897C150.133 221.937 150.216 221.898 150.381 221.821L166.615 214.181C166.782 214.103 166.865 214.063 166.865 214C166.865 213.937 166.782 213.897 166.615 213.819Z" fill="#132AF4"/>
<path d="M152 214L150.102 221.591C150.058 221.768 150.036 221.857 150.085 221.897C150.133 221.937 150.216 221.898 150.381 221.821L166.615 214.181C166.782 214.103 166.865 214.063 166.865 214C166.865 213.937 166.782 213.897 166.615 213.819L150.381 206.179C150.216 206.102 150.133 206.063 150.085 206.103C150.036 206.143 150.058 206.232 150.102 206.409L152 214ZM152 214H120" stroke="#132AF4" stroke-width="5"/>
<path d="M354.615 118.819L338.381 111.179C338.216 111.102 338.133 111.063 338.085 111.103C338.036 111.143 338.058 111.232 338.102 111.409L340 119L338.102 126.591C338.058 126.768 338.036 126.857 338.085 126.897C338.133 126.937 338.216 126.898 338.381 126.821L354.615 119.181C354.782 119.103 354.865 119.063 354.865 119C354.865 118.937 354.782 118.897 354.615 118.819Z" fill="#EF2F2F"/>
<path d="M340 119L338.102 126.591C338.058 126.768 338.036 126.857 338.085 126.897C338.133 126.937 338.216 126.898 338.381 126.821L354.615 119.181C354.782 119.103 354.865 119.063 354.865 119C354.865 118.937 354.782 118.897 354.615 118.819L338.381 111.179C338.216 111.102 338.133 111.063 338.085 111.103C338.036 111.143 338.058 111.232 338.102 111.409L340 119ZM340 119H308" stroke="#EF2F2F" stroke-width="5"/>
<path d="M191.385 213.181L207.619 220.821C207.784 220.898 207.867 220.937 207.915 220.897C207.964 220.857 207.942 220.768 207.898 220.591L206 213L207.898 205.409C207.942 205.232 207.964 205.143 207.915 205.103C207.867 205.063 207.784 205.102 207.619 205.179L191.385 212.819C191.218 212.897 191.135 212.937 191.135 213C191.135 213.063 191.218 213.103 191.385 213.181Z" fill="#EF2F2F"/>
<path d="M206 213L207.898 205.409C207.942 205.232 207.964 205.143 207.915 205.103C207.867 205.063 207.784 205.102 207.619 205.179L191.385 212.819C191.218 212.897 191.135 212.937 191.135 213C191.135 213.063 191.218 213.103 191.385 213.181L207.619 220.821C207.784 220.898 207.867 220.937 207.915 220.897C207.964 220.857 207.942 220.768 207.898 220.591L206 213ZM206 213H238" stroke="#EF2F2F" stroke-width="5"/>
<path d="M3.38455 119.181L19.6186 126.821C19.7839 126.898 19.8665 126.937 19.9154 126.897C19.9642 126.857 19.9421 126.768 19.8978 126.591L18 119L19.8978 111.409C19.9421 111.232 19.9642 111.143 19.9154 111.103C19.8665 111.063 19.7839 111.102 19.6186 111.179L3.38455 118.819C3.21809 118.897 3.13485 118.937 3.13485 119C3.13485 119.063 3.21809 119.103 3.38455 119.181Z" fill="#EF2F2F"/>
<path d="M18 119L19.8978 111.409C19.9421 111.232 19.9642 111.143 19.9154 111.103C19.8665 111.063 19.7839 111.102 19.6186 111.179L3.38455 118.819C3.21809 118.897 3.13485 118.937 3.13485 119C3.13485 119.063 3.21808 119.103 3.38455 119.181L19.6186 126.821C19.7839 126.898 19.8665 126.937 19.9154 126.897C19.9642 126.857 19.9421 126.768 19.8978 126.591L18 119ZM18 119H50" stroke="#EF2F2F" stroke-width="5"/>
<path d="M85 52V93" stroke="#0BB7EE" stroke-width="3" stroke-dasharray="6 6"/>
<path d="M273 52V93" stroke="#0BB7EE" stroke-width="3" stroke-dasharray="6 6"/>
<path d="M273 145V186" stroke="#0BB7EE" stroke-width="3" stroke-dasharray="6 6"/>
<path d="M85 145V186" stroke="#0BB7EE" stroke-width="3" stroke-dasharray="6 6"/>
<path d="M85 171H273" stroke="#0BB7EE" stroke-width="3" stroke-dasharray="6 6"/>
<path d="M104.375 76.1349C104.125 76.1349 104 76.0615 104 75.9145C104 75.8852 104.022 75.7823 104.066 75.606C104.125 75.3709 104.184 75.2386 104.242 75.2092C104.301 75.1799 104.47 75.1578 104.749 75.1431C105.146 75.1431 105.587 75.1211 106.072 75.077C106.277 75.0329 106.417 74.9448 106.491 74.8125C106.52 74.7391 107.042 72.6746 108.055 68.6192C109.069 64.5638 109.584 62.5067 109.598 62.4479C109.598 62.3451 109.569 62.2936 109.51 62.2936C109.393 62.2495 109.003 62.2128 108.342 62.1834H107.659C107.571 62.0953 107.526 62.0365 107.526 62.0071C107.526 61.9777 107.541 61.8528 107.571 61.6324C107.629 61.3826 107.703 61.2283 107.791 61.1696H119.671C119.774 61.2283 119.825 61.3092 119.825 61.412C119.825 61.4855 119.729 62.3083 119.538 63.8805C119.347 65.4527 119.245 66.2609 119.23 66.305C119.2 66.4078 119.054 66.4592 118.789 66.4592H118.525C118.422 66.3858 118.37 66.2903 118.37 66.1727C118.37 66.158 118.392 65.9817 118.436 65.6438C118.48 65.3058 118.503 64.9164 118.503 64.4756C118.503 64.0348 118.451 63.6748 118.348 63.3956C118.245 63.1165 118.106 62.8887 117.929 62.7124C117.753 62.5361 117.481 62.4185 117.114 62.3597C116.747 62.301 116.372 62.2495 115.99 62.2055C115.608 62.1614 115.079 62.154 114.403 62.1834H113.896C112.691 62.1981 112.052 62.2202 111.979 62.2495C111.905 62.2789 111.854 62.3377 111.824 62.4259C111.81 62.4406 111.56 63.403 111.075 65.3131L110.37 68.1563H111.582C111.626 68.1563 111.795 68.1563 112.089 68.1563C112.383 68.1563 112.588 68.149 112.706 68.1343C112.823 68.1196 112.985 68.0976 113.191 68.0682C113.397 68.0388 113.573 67.9874 113.72 67.9139C113.867 67.8404 113.992 67.7523 114.094 67.6494C114.285 67.4731 114.447 67.2307 114.579 66.9221C114.712 66.6135 114.807 66.3343 114.866 66.0846C114.925 65.8348 114.961 65.7025 114.976 65.6878C115.02 65.6144 115.16 65.5776 115.395 65.5776H115.659C115.762 65.6511 115.814 65.7246 115.814 65.798C115.814 65.8421 115.586 66.8045 115.13 68.6853C114.675 70.5661 114.425 71.5359 114.381 71.5946C114.352 71.6975 114.205 71.7489 113.94 71.7489H113.676C113.573 71.6608 113.521 71.5726 113.521 71.4844C113.521 71.4404 113.558 71.2787 113.632 70.9995C113.705 70.7204 113.742 70.4265 113.742 70.1179C113.742 69.6918 113.595 69.4273 113.301 69.3245C113.007 69.2216 112.353 69.1702 111.339 69.1702H110.127L109.422 71.9693C108.952 73.7913 108.717 74.7464 108.717 74.8346C108.717 75.0403 109.37 75.1431 110.678 75.1431H111.229C111.317 75.2313 111.361 75.2827 111.361 75.2974C111.361 75.3121 111.347 75.459 111.317 75.7382C111.259 75.9292 111.185 76.0688 111.097 76.157H110.722C110.12 76.1276 109.01 76.1129 107.394 76.1129C106.439 76.1129 105.712 76.1129 105.212 76.1129C104.713 76.1129 104.433 76.1202 104.375 76.1349Z" fill="#132AF4" stroke="#132AF4" stroke-width="0.5"/>
<path d="M132.07 68.5087C132.07 68.3177 132.173 68.1708 132.379 68.0679H146.419C146.639 68.1855 146.749 68.3324 146.749 68.5087C146.749 68.6703 146.646 68.8099 146.441 68.9275L139.432 68.9495H132.423C132.188 68.8761 132.07 68.7291 132.07 68.5087ZM132.07 72.7845C132.07 72.5641 132.188 72.4172 132.423 72.3437H146.441C146.646 72.4907 146.749 72.6376 146.749 72.7845C146.749 72.9756 146.639 73.1225 146.419 73.2253H132.379C132.173 73.1225 132.07 72.9756 132.07 72.7845Z" fill="#132AF4" stroke="#132AF4" stroke-width="0.5"/>
<path d="M161.671 61.8969C161.671 61.75 161.701 61.581 161.76 61.39C161.818 61.1989 161.907 61.1034 162.024 61.1034C162.039 61.1034 162.568 61.0667 163.611 60.9932C164.654 60.9198 165.191 60.8757 165.22 60.861C165.396 60.861 165.484 60.9198 165.484 61.0373C165.484 61.1402 165.117 62.6756 164.382 65.6437C163.648 68.5531 163.28 70.0592 163.28 70.162C163.56 70.0151 163.773 69.8755 163.92 69.7432C164.272 69.4788 164.779 69.0159 165.44 68.3547C166.102 67.6935 166.616 67.2453 166.983 67.0102C167.571 66.6135 168.129 66.4152 168.658 66.4152C169.099 66.4152 169.444 66.5547 169.694 66.8339C169.944 67.1131 170.076 67.5098 170.091 68.0241C170.091 68.3914 170.039 68.7 169.937 68.9498C169.834 69.1996 169.694 69.3832 169.518 69.5008C169.341 69.6183 169.187 69.6992 169.055 69.7432C168.923 69.7873 168.79 69.8094 168.658 69.8094C168.364 69.8094 168.129 69.7285 167.953 69.5669C167.777 69.4053 167.688 69.1922 167.688 68.9277C167.688 68.5604 167.806 68.2592 168.041 68.0241C168.276 67.789 168.511 67.6347 168.746 67.5612L169.099 67.4951C168.923 67.3188 168.746 67.2306 168.57 67.2306H168.482C168.012 67.2747 167.549 67.4584 167.093 67.7817C166.638 68.1049 166.102 68.5751 165.484 69.1922C164.867 69.8094 164.382 70.2575 164.03 70.5367C164.059 70.5514 164.169 70.5734 164.36 70.6028C164.551 70.6322 164.728 70.6763 164.889 70.7351C165.051 70.7938 165.242 70.8526 165.462 70.9114C165.683 70.9702 165.881 71.073 166.057 71.2199C166.234 71.3669 166.395 71.4991 166.542 71.6167C166.689 71.7342 166.814 71.9252 166.917 72.1897C167.02 72.4542 167.064 72.6966 167.049 72.917C167.049 73.1668 167.013 73.4681 166.939 73.8207C166.866 74.1733 166.822 74.4672 166.807 74.7023C166.807 75.2901 167.005 75.5839 167.402 75.5839C168.107 75.5839 168.68 74.7097 169.121 72.9611C169.15 72.8436 169.297 72.7848 169.562 72.7848H169.65C169.885 72.7848 170.003 72.8509 170.003 72.9832C170.003 73.0566 169.981 73.1595 169.937 73.2917C169.334 75.3635 168.467 76.3994 167.336 76.3994C166.675 76.3994 166.138 76.2084 165.727 75.8264C165.315 75.4443 165.11 74.8933 165.11 74.1733C165.11 73.9089 165.132 73.6811 165.176 73.4901C165.22 73.2991 165.242 73.1228 165.242 72.9611C165.242 72.6379 165.139 72.3587 164.933 72.1236C164.728 71.8885 164.471 71.7195 164.162 71.6167C163.853 71.5138 163.604 71.433 163.413 71.3742C163.222 71.3154 163.089 71.2934 163.016 71.3081H162.972C162.795 71.9252 162.641 72.5203 162.509 73.0934C162.377 73.6664 162.274 74.0925 162.2 74.3717C162.127 74.6509 162.061 74.9227 162.002 75.1872C161.943 75.4517 161.892 75.628 161.848 75.7162C161.804 75.8043 161.752 75.8998 161.693 76.0027C161.635 76.1055 161.554 76.1717 161.451 76.2011C161.26 76.3333 161.054 76.3994 160.834 76.3994C160.584 76.3994 160.393 76.3259 160.261 76.179C160.129 76.0321 160.062 75.9072 160.062 75.8043C160.062 75.6574 160.334 74.4819 160.878 72.2779C161.422 70.0738 161.958 67.9065 162.487 65.776L163.302 62.5801C163.317 62.3891 163.266 62.2716 163.148 62.2275C163.031 62.1834 162.744 62.1467 162.289 62.1173H162.178C162.031 62.1173 161.936 62.1173 161.892 62.1173C161.848 62.1173 161.796 62.0953 161.738 62.0512C161.679 62.0071 161.657 61.9557 161.671 61.8969Z" fill="#132AF4" stroke="#132AF4" stroke-width="0.5"/>
<path d="M171.818 76.8448C171.818 76.2526 171.917 75.7124 172.114 75.2242C172.312 74.7359 172.566 74.3308 172.878 74.0088C173.19 73.6867 173.538 73.4166 173.922 73.1985C174.306 72.9803 174.67 72.8193 175.013 72.7154C175.356 72.6115 175.683 72.5648 175.994 72.5752H176.041C176.509 72.5752 176.914 72.6894 177.257 72.918C177.599 73.1465 177.771 73.4841 177.771 73.9308C177.771 74.8658 177.194 75.4787 176.041 75.7696C175.532 75.9046 174.836 75.9773 173.953 75.9877C173.569 75.9877 173.371 75.9981 173.361 76.0189C173.361 76.0397 173.33 76.2215 173.268 76.5643C173.205 76.9071 173.169 77.2084 173.158 77.4681C173.158 77.9563 173.268 78.3407 173.486 78.6212C173.704 78.9017 174.031 79.0471 174.467 79.0575C174.904 79.0679 175.387 78.9692 175.917 78.7614C176.446 78.5536 176.924 78.2108 177.35 77.733C177.444 77.6291 177.506 77.5771 177.537 77.5771C177.579 77.5771 177.646 77.6239 177.74 77.7174C177.833 77.8109 177.885 77.8836 177.896 77.9355C177.906 77.9875 177.859 78.0706 177.755 78.1849C177.651 78.2991 177.496 78.4394 177.288 78.6056C177.08 78.7718 176.841 78.9328 176.571 79.0886C176.301 79.2445 175.974 79.3743 175.589 79.4782C175.205 79.5821 174.81 79.634 174.405 79.634C173.584 79.634 172.951 79.3587 172.504 78.8082C172.057 78.2576 171.829 77.6031 171.818 76.8448ZM177.023 73.962C176.961 73.4218 176.607 73.1517 175.963 73.1517C175.62 73.1517 175.304 73.2244 175.013 73.3699C174.722 73.5153 174.488 73.6919 174.312 73.8997C174.135 74.1074 173.984 74.3204 173.86 74.5386C173.735 74.7567 173.652 74.9437 173.61 75.0995C173.569 75.2554 173.543 75.354 173.532 75.3956C173.532 75.406 173.636 75.4112 173.844 75.4112C175.018 75.4112 175.839 75.2865 176.306 75.0372C176.774 74.7879 177.013 74.4295 177.023 73.962Z" fill="#132AF4" stroke="#132AF4" stroke-width="0.5"/>
<path d="M187.488 66.0181H187.444C187.267 66.0181 187.135 65.9152 187.047 65.7095V54.9979L187.069 44.2863C187.216 44.0953 187.355 43.9998 187.488 43.9998C187.679 43.9998 187.826 44.11 187.928 44.3304V65.7095C187.811 65.9152 187.679 66.0181 187.532 66.0181H187.488Z" fill="#132AF4" stroke="#132AF4" stroke-width="0.5"/>
<path d="M191.275 57.0585C191.275 55.5745 191.834 54.1639 192.95 52.8268C194.067 51.4897 195.323 50.8138 196.719 50.7991C197.601 50.7991 198.277 51.1811 198.747 51.9452C198.762 51.9305 198.798 51.8864 198.857 51.8129C198.916 51.7395 198.997 51.6587 199.1 51.5705C199.203 51.4823 199.32 51.3942 199.452 51.306C199.952 50.9534 200.29 50.777 200.466 50.777C200.525 50.777 200.576 50.7991 200.62 50.8432C200.665 50.8872 200.687 50.924 200.687 50.9534C200.687 51.0856 200.18 53.1794 199.166 57.2349C198.123 61.4078 197.601 63.5237 197.601 63.5825C197.601 63.7 197.932 63.7661 198.593 63.7808H199.144C199.232 63.8984 199.276 63.9645 199.276 63.9792C199.276 63.9939 199.254 64.1261 199.21 64.3759C199.151 64.5669 199.078 64.7065 198.989 64.7947H198.703C198.247 64.7653 197.454 64.7506 196.323 64.7506C195.911 64.7506 195.537 64.7506 195.199 64.7506C194.861 64.7506 194.589 64.7506 194.383 64.7506C194.177 64.7506 194.052 64.7579 194.008 64.7726C193.803 64.7726 193.7 64.7139 193.7 64.5963C193.7 64.5522 193.715 64.442 193.744 64.2657C193.803 64.0306 193.854 63.891 193.898 63.8469C193.942 63.8029 194.089 63.7808 194.339 63.7808C195.044 63.7808 195.47 63.7294 195.617 63.6265C195.735 63.5531 195.941 62.9066 196.234 61.687C196.528 60.4674 196.683 59.843 196.697 59.8136C196.697 59.7989 196.646 59.8209 196.543 59.8797C195.838 60.4527 195.103 60.7393 194.339 60.7393C193.531 60.7393 192.818 60.4454 192.201 59.8576C191.584 59.2699 191.275 58.3369 191.275 57.0585ZM198.306 53.3337C197.968 52.1729 197.417 51.5925 196.653 51.5925C196.139 51.5925 195.647 51.8203 195.177 52.2758C194.706 52.7313 194.339 53.3264 194.075 54.061C193.648 55.2218 193.347 56.4267 193.171 57.6757C193.171 57.7197 193.171 57.8006 193.171 57.9181C193.171 58.0356 193.164 58.1238 193.149 58.1826C193.149 58.8438 193.281 59.2993 193.546 59.5491C193.81 59.7989 194.126 59.9311 194.493 59.9458C195.287 59.9458 196.102 59.4168 196.94 58.3589L197.116 58.1165L198.306 53.3337Z" fill="#132AF4" stroke="#132AF4" stroke-width="0.5"/>
<path d="M204.426 54.8183L204.224 54.8962C204.078 54.9481 203.87 55.0001 203.6 55.052C203.33 55.1039 203.029 55.1403 202.696 55.1611H202.4V54.4443H202.696C203.185 54.4235 203.637 54.3456 204.052 54.2105C204.468 54.0755 204.759 53.9508 204.925 53.8366C205.091 53.7223 205.236 53.608 205.361 53.4938C205.382 53.4626 205.444 53.447 205.548 53.447C205.642 53.447 205.73 53.4782 205.813 53.5405V58.1997L205.829 62.8744C205.901 62.9471 205.964 62.9939 206.016 63.0147C206.067 63.0354 206.192 63.0562 206.39 63.077C206.587 63.0978 206.909 63.1082 207.356 63.1082H207.761V63.825H207.589C207.371 63.7938 206.545 63.7782 205.112 63.7782C203.699 63.7782 202.883 63.7938 202.665 63.825H202.478V63.1082H202.883C203.112 63.1082 203.309 63.1082 203.476 63.1082C203.642 63.1082 203.772 63.103 203.865 63.0926C203.959 63.0822 204.042 63.0666 204.114 63.0458C204.187 63.025 204.229 63.0147 204.239 63.0147C204.25 63.0147 204.281 62.9887 204.333 62.9367C204.385 62.8848 204.416 62.864 204.426 62.8744V54.8183Z" fill="#132AF4" stroke="#132AF4" stroke-width="0.5"/>
<path d="M213.072 66.0181H213.028C212.851 66.0181 212.719 65.9152 212.631 65.7095V54.9979L212.653 44.2863C212.8 44.0953 212.939 43.9998 213.072 43.9998C213.263 43.9998 213.41 44.11 213.512 44.3304V65.7095C213.395 65.9152 213.263 66.0181 213.116 66.0181H213.072Z" fill="#132AF4" stroke="#132AF4" stroke-width="0.5"/>
<path d="M224.087 66.0181H224.043C223.867 66.0181 223.735 65.9152 223.646 65.7095V54.9979L223.669 44.2863C223.815 44.0953 223.955 43.9998 224.087 43.9998C224.278 43.9998 224.425 44.11 224.528 44.3304V65.7095C224.411 65.9152 224.278 66.0181 224.131 66.0181H224.087Z" fill="#132AF4" stroke="#132AF4" stroke-width="0.5"/>
<path d="M227.883 57.0585C227.883 55.5745 228.441 54.1639 229.558 52.8268C230.675 51.4897 231.931 50.8138 233.327 50.7991C234.208 50.7991 234.884 51.1811 235.354 51.9452C235.369 51.9305 235.406 51.8864 235.465 51.8129C235.523 51.7395 235.604 51.6587 235.707 51.5705C235.81 51.4823 235.928 51.3942 236.06 51.306C236.559 50.9534 236.897 50.777 237.074 50.777C237.132 50.777 237.184 50.7991 237.228 50.8432C237.272 50.8872 237.294 50.924 237.294 50.9534C237.294 51.0856 236.787 53.1794 235.773 57.2349C234.73 61.4078 234.208 63.5237 234.208 63.5825C234.208 63.7 234.539 63.7661 235.2 63.7808H235.751C235.839 63.8984 235.883 63.9645 235.883 63.9792C235.883 63.9939 235.861 64.1261 235.817 64.3759C235.759 64.5669 235.685 64.7065 235.597 64.7947H235.31C234.855 64.7653 234.061 64.7506 232.93 64.7506C232.519 64.7506 232.144 64.7506 231.806 64.7506C231.468 64.7506 231.196 64.7506 230.99 64.7506C230.785 64.7506 230.66 64.7579 230.616 64.7726C230.41 64.7726 230.307 64.7139 230.307 64.5963C230.307 64.5522 230.322 64.442 230.351 64.2657C230.41 64.0306 230.462 63.891 230.506 63.8469C230.55 63.8029 230.697 63.7808 230.946 63.7808C231.652 63.7808 232.078 63.7294 232.225 63.6265C232.342 63.5531 232.548 62.9066 232.842 61.687C233.136 60.4674 233.29 59.843 233.305 59.8136C233.305 59.7989 233.253 59.8209 233.15 59.8797C232.445 60.4527 231.71 60.7393 230.946 60.7393C230.138 60.7393 229.426 60.4454 228.809 59.8576C228.191 59.2699 227.883 58.3369 227.883 57.0585ZM234.914 53.3337C234.576 52.1729 234.025 51.5925 233.261 51.5925C232.746 51.5925 232.254 51.8203 231.784 52.2758C231.314 52.7313 230.946 53.3264 230.682 54.061C230.256 55.2218 229.955 56.4267 229.778 57.6757C229.778 57.7197 229.778 57.8006 229.778 57.9181C229.778 58.0356 229.771 58.1238 229.756 58.1826C229.756 58.8438 229.888 59.2993 230.153 59.5491C230.417 59.7989 230.733 59.9311 231.101 59.9458C231.894 59.9458 232.71 59.4168 233.547 58.3589L233.723 58.1165L234.914 53.3337Z" fill="#132AF4" stroke="#132AF4" stroke-width="0.5"/>
<path d="M239.41 57.1401C239.129 57.1401 238.906 57.0466 238.74 56.8596C238.573 56.6726 238.49 56.444 238.49 56.1739C238.49 55.4364 238.766 54.7975 239.316 54.2573C239.867 53.7171 240.552 53.447 241.373 53.447C242.318 53.447 243.108 53.7379 243.742 54.3196C244.375 54.9014 244.697 55.6545 244.708 56.5791C244.708 57.0258 244.604 57.4517 244.396 57.8569C244.188 58.262 243.939 58.6152 243.648 58.9165C243.357 59.2177 242.942 59.6021 242.401 60.0696C242.027 60.3916 241.508 60.8695 240.843 61.5032L239.924 62.3758L241.108 62.3914C242.739 62.3914 243.606 62.3654 243.71 62.3134C243.783 62.2927 243.908 61.8304 244.084 60.9266V60.8799H244.708V60.9266C244.697 60.9578 244.63 61.4304 244.505 62.3446C244.38 63.2588 244.303 63.7367 244.271 63.7782V63.825H238.49V63.5289V63.3419C238.49 63.2692 238.521 63.1913 238.584 63.1082C238.646 63.025 238.802 62.8433 239.051 62.5628C239.352 62.2303 239.612 61.9395 239.83 61.6901C239.924 61.5863 240.1 61.3941 240.36 61.1136C240.62 60.8331 240.796 60.6409 240.89 60.537C240.983 60.4332 241.134 60.2618 241.342 60.0228C241.55 59.7839 241.695 59.6073 241.778 59.493C241.861 59.3787 241.981 59.2229 242.137 59.0255C242.292 58.8282 242.401 58.6619 242.464 58.5269C242.526 58.3919 242.604 58.2412 242.698 58.075C242.791 57.9088 242.859 57.7426 242.9 57.5764C242.942 57.4102 242.978 57.2543 243.009 57.1089C243.04 56.9635 243.056 56.792 243.056 56.5947C243.056 55.9402 242.879 55.374 242.526 54.8962C242.173 54.4183 241.669 54.1794 241.015 54.1794C240.672 54.1794 240.371 54.2677 240.111 54.4443C239.851 54.6209 239.669 54.7923 239.565 54.9585C239.462 55.1247 239.41 55.2234 239.41 55.2546C239.41 55.265 239.436 55.2702 239.488 55.2702C239.675 55.2702 239.867 55.3429 240.064 55.4883C240.261 55.6338 240.36 55.8727 240.36 56.2051C240.36 56.4648 240.277 56.683 240.111 56.8596C239.945 57.0362 239.711 57.1297 239.41 57.1401Z" fill="#132AF4" stroke="#132AF4" stroke-width="0.5"/>
<path d="M249.667 66.0181H249.623C249.447 66.0181 249.315 65.9152 249.227 65.7095V54.9979L249.249 44.2863C249.396 44.0953 249.535 43.9998 249.667 43.9998C249.858 43.9998 250.005 44.11 250.108 44.3304V65.7095C249.991 65.9152 249.858 66.0181 249.711 66.0181H249.667Z" fill="#132AF4" stroke="#132AF4" stroke-width="0.5"/>
<path d="M205.367 87.1219C205.382 87.0778 205.397 87.0191 205.411 86.9456C205.426 86.8721 205.463 86.7105 205.521 86.4607C205.58 86.2109 205.654 85.9832 205.742 85.7775C205.83 85.5718 205.94 85.3293 206.072 85.0501C206.205 84.771 206.352 84.5506 206.513 84.3889C206.675 84.2273 206.866 84.0657 207.086 83.904C207.307 83.7424 207.549 83.6763 207.814 83.7057C208.24 83.7057 208.614 83.7938 208.938 83.9702C209.261 84.1465 209.489 84.3081 209.621 84.4551C209.753 84.602 209.834 84.7489 209.863 84.8959C209.893 84.984 209.915 85.0281 209.93 85.0281C209.944 85.0281 210.003 84.9767 210.106 84.8738C210.811 84.1098 211.627 83.7277 212.552 83.7277H212.618C213.324 83.7277 213.853 84.0289 214.205 84.6314C214.323 84.9106 214.382 85.1824 214.382 85.4469C214.382 85.8877 214.286 86.2403 214.095 86.5048C213.904 86.7693 213.713 86.9383 213.522 87.0117C213.331 87.0852 213.147 87.1146 212.971 87.0999C212.677 87.0999 212.442 87.0191 212.266 86.8574C212.089 86.6958 212.001 86.4828 212.001 86.2183C212.001 85.513 212.413 85.0428 213.236 84.8077C212.912 84.6167 212.648 84.5212 212.442 84.5212C211.619 84.5212 210.863 85.0648 210.172 86.1522C210.025 86.3873 209.915 86.6297 209.841 86.8795C209.768 87.1293 209.518 88.1064 209.092 89.8108C208.592 91.8679 208.306 92.9626 208.232 93.0949C208.041 93.4916 207.726 93.6899 207.285 93.6899C207.094 93.6899 206.939 93.6459 206.822 93.5577C206.704 93.4695 206.623 93.3814 206.579 93.2932C206.535 93.2051 206.521 93.1316 206.535 93.0728C206.535 92.8818 206.829 91.6182 207.417 89.2819C208.005 86.9456 208.299 85.6452 208.299 85.3807C208.299 84.8077 208.108 84.5212 207.726 84.5212C207.417 84.5212 207.152 84.7269 206.932 85.1383C206.712 85.5497 206.535 85.9979 206.403 86.4828C206.271 86.9676 206.19 87.2321 206.161 87.2762C206.131 87.3056 206.014 87.3203 205.808 87.3203H205.499C205.411 87.2321 205.367 87.166 205.367 87.1219Z" fill="#132AF4" stroke="#132AF4" stroke-width="0.5"/>
<path d="M217.271 78.9692C216.99 78.9692 216.767 78.8757 216.601 78.6887C216.435 78.5017 216.352 78.2731 216.352 78.003C216.352 77.2655 216.627 76.6266 217.177 76.0864C217.728 75.5462 218.414 75.2761 219.234 75.2761C220.18 75.2761 220.969 75.567 221.603 76.1487C222.237 76.7305 222.559 77.4836 222.569 78.4082C222.569 78.8549 222.465 79.2808 222.257 79.686C222.05 80.0911 221.8 80.4443 221.509 80.7456C221.218 81.0468 220.803 81.4312 220.263 81.8987C219.889 82.2207 219.369 82.6986 218.705 83.3323L217.785 84.2049L218.969 84.2205C220.6 84.2205 221.468 84.1945 221.572 84.1426C221.644 84.1218 221.769 83.6595 221.946 82.7557V82.709H222.569V82.7557C222.559 82.7869 222.491 83.2595 222.366 84.1737C222.242 85.0879 222.164 85.5658 222.133 85.6073V85.6541H216.352V85.358V85.171C216.352 85.0983 216.383 85.0204 216.445 84.9373C216.507 84.8542 216.663 84.6724 216.913 84.3919C217.214 84.0594 217.474 83.7686 217.692 83.5193C217.785 83.4154 217.962 83.2232 218.221 82.9427C218.481 82.6622 218.658 82.47 218.751 82.3661C218.845 82.2623 218.995 82.0909 219.203 81.8519C219.411 81.613 219.556 81.4364 219.639 81.3221C219.723 81.2078 219.842 81.052 219.998 80.8546C220.154 80.6573 220.263 80.4911 220.325 80.356C220.387 80.221 220.465 80.0703 220.559 79.9041C220.652 79.7379 220.72 79.5717 220.761 79.4055C220.803 79.2393 220.839 79.0834 220.87 78.938C220.902 78.7926 220.917 78.6212 220.917 78.4238C220.917 77.7693 220.741 77.2031 220.387 76.7253C220.034 76.2474 219.53 76.0085 218.876 76.0085C218.533 76.0085 218.232 76.0968 217.972 76.2734C217.712 76.45 217.531 76.6214 217.427 76.7876C217.323 76.9538 217.271 77.0525 217.271 77.0837C217.271 77.0941 217.297 77.0993 217.349 77.0993C217.536 77.0993 217.728 77.172 217.925 77.3174C218.123 77.4629 218.221 77.7018 218.221 78.0342C218.221 78.2939 218.138 78.5121 217.972 78.6887C217.806 78.8653 217.572 78.9588 217.271 78.9692Z" fill="#132AF4" stroke="#132AF4" stroke-width="0.5"/>
<path d="M218.891 90.9933L218.688 91.0712C218.543 91.1232 218.335 91.1751 218.065 91.2271C217.795 91.279 217.494 91.3154 217.161 91.3361H216.865V90.6193H217.161C217.65 90.5986 218.101 90.5206 218.517 90.3856C218.933 90.2505 219.223 90.1259 219.39 90.0116C219.556 89.8973 219.701 89.7831 219.826 89.6688C219.847 89.6376 219.909 89.6221 220.013 89.6221C220.106 89.6221 220.195 89.6532 220.278 89.7155V94.3747L220.293 99.0495C220.366 99.1222 220.428 99.1689 220.48 99.1897C220.532 99.2105 220.657 99.2313 220.854 99.252C221.052 99.2728 221.374 99.2832 221.82 99.2832H222.226V100H222.054C221.836 99.9688 221.01 99.9533 219.577 99.9533C218.164 99.9533 217.348 99.9688 217.13 100H216.943V99.2832H217.348C217.577 99.2832 217.774 99.2832 217.94 99.2832C218.107 99.2832 218.236 99.278 218.33 99.2676C218.423 99.2572 218.507 99.2417 218.579 99.2209C218.652 99.2001 218.694 99.1897 218.704 99.1897C218.714 99.1897 218.746 99.1637 218.797 99.1118C218.849 99.0599 218.881 99.0391 218.891 99.0495V90.9933Z" fill="#132AF4" stroke="#132AF4" stroke-width="0.5"/>
<path d="M225.064 93.3151C224.783 93.3151 224.56 93.2216 224.394 93.0346C224.228 92.8476 224.145 92.6191 224.145 92.349C224.145 91.6114 224.42 90.9725 224.97 90.4323C225.521 89.8922 226.207 89.6221 227.027 89.6221C227.973 89.6221 228.762 89.9129 229.396 90.4947C230.03 91.0764 230.352 91.8296 230.362 92.7541C230.362 93.2008 230.258 93.6268 230.05 94.0319C229.843 94.437 229.593 94.7903 229.302 95.0915C229.011 95.3928 228.596 95.7771 228.056 96.2446C227.682 96.5667 227.162 97.0445 226.497 97.6782L225.578 98.5508L226.762 98.5664C228.393 98.5664 229.261 98.5404 229.365 98.4885C229.437 98.4677 229.562 98.0054 229.739 97.1017V97.0549H230.362V97.1017C230.352 97.1328 230.284 97.6055 230.159 98.5197C230.035 99.4338 229.957 99.9117 229.926 99.9533V100H224.145V99.7039V99.5169C224.145 99.4442 224.176 99.3663 224.238 99.2832C224.3 99.2001 224.456 99.0183 224.706 98.7378C225.007 98.4054 225.266 98.1145 225.485 97.8652C225.578 97.7613 225.755 97.5691 226.014 97.2886C226.274 97.0082 226.451 96.816 226.544 96.7121C226.638 96.6082 226.788 96.4368 226.996 96.1979C227.204 95.9589 227.349 95.7823 227.432 95.6681C227.516 95.5538 227.635 95.398 227.791 95.2006C227.947 95.0032 228.056 94.837 228.118 94.7019C228.18 94.5669 228.258 94.4163 228.352 94.2501C228.445 94.0838 228.513 93.9176 228.554 93.7514C228.596 93.5852 228.632 93.4294 228.663 93.2839C228.695 93.1385 228.71 92.9671 228.71 92.7697C228.71 92.1153 228.534 91.5491 228.18 91.0712C227.827 90.5934 227.323 90.3544 226.669 90.3544C226.326 90.3544 226.025 90.4427 225.765 90.6193C225.505 90.7959 225.324 90.9673 225.22 91.1336C225.116 91.2998 225.064 91.3985 225.064 91.4296C225.064 91.44 225.09 91.4452 225.142 91.4452C225.329 91.4452 225.521 91.5179 225.718 91.6634C225.916 91.8088 226.014 92.0477 226.014 92.3802C226.014 92.6399 225.931 92.858 225.765 93.0346C225.599 93.2112 225.365 93.3047 225.064 93.3151Z" fill="#132AF4" stroke="#132AF4" stroke-width="0.5"/>
<path d="M254.936 71.3079H182.223V69.9854H254.936V71.3079Z" fill="#132AF4" stroke="#132AF4" stroke-width="0.5"/>
<path d="M169 146.974C169.034 146.871 169.068 146.735 169.103 146.563C169.137 146.392 169.222 146.016 169.359 145.434C169.496 144.852 169.667 144.321 169.873 143.842C170.078 143.363 170.335 142.798 170.643 142.148C170.951 141.497 171.293 140.984 171.67 140.607C172.046 140.231 172.491 139.854 173.005 139.478C173.518 139.101 174.083 138.947 174.699 139.016C175.692 139.016 176.565 139.221 177.318 139.632C178.071 140.043 178.601 140.419 178.91 140.761C179.218 141.104 179.406 141.446 179.474 141.788C179.543 141.994 179.594 142.096 179.628 142.096C179.663 142.096 179.8 141.977 180.039 141.737C181.682 139.957 183.582 139.067 185.738 139.067H185.892C187.535 139.067 188.768 139.769 189.589 141.172C189.863 141.823 190 142.456 190 143.072C190 144.099 189.778 144.92 189.333 145.537C188.888 146.153 188.443 146.546 187.998 146.717C187.553 146.889 187.125 146.957 186.714 146.923C186.029 146.923 185.482 146.735 185.071 146.358C184.66 145.982 184.455 145.485 184.455 144.869C184.455 143.226 185.413 142.131 187.33 141.583C186.577 141.138 185.961 140.915 185.482 140.915C183.565 140.915 181.802 142.182 180.193 144.715C179.851 145.263 179.594 145.827 179.423 146.409C179.252 146.991 178.67 149.268 177.677 153.238C176.513 158.03 175.846 160.581 175.675 160.889C175.23 161.813 174.494 162.275 173.467 162.275C173.022 162.275 172.663 162.172 172.389 161.967C172.115 161.761 171.927 161.556 171.824 161.351C171.721 161.145 171.687 160.974 171.721 160.837C171.721 160.392 172.406 157.448 173.775 152.006C175.144 146.563 175.829 143.534 175.829 142.918C175.829 141.583 175.384 140.915 174.494 140.915C173.775 140.915 173.159 141.395 172.645 142.353C172.132 143.312 171.721 144.356 171.413 145.485C171.105 146.615 170.917 147.231 170.848 147.334C170.78 147.402 170.506 147.436 170.027 147.436H169.308C169.103 147.231 169 147.077 169 146.974Z" fill="#132AF4"/>
</svg>
