<svg width="1344" height="725" viewBox="0 0 1344 725" fill="none" xmlns="http://www.w3.org/2000/svg">
<circle cx="874" cy="140" r="40" transform="rotate(-180 874 140)" fill="url(#paint0_radial_330_5736)"/>
<path d="M872.408 133.538C872.289 132.236 871.763 131.224 870.827 130.502C869.904 129.768 868.584 129.401 866.868 129.401C865.732 129.401 864.785 129.549 864.027 129.845C863.269 130.141 862.701 130.549 862.322 131.07C861.944 131.579 861.748 132.165 861.737 132.828C861.713 133.373 861.819 133.852 862.056 134.266C862.305 134.681 862.66 135.048 863.121 135.367C863.595 135.675 864.163 135.947 864.826 136.184C865.489 136.421 866.235 136.628 867.063 136.805L870.188 137.516C871.987 137.906 873.574 138.427 874.947 139.078C876.332 139.729 877.492 140.504 878.427 141.404C879.374 142.304 880.09 143.339 880.575 144.511C881.061 145.683 881.309 146.997 881.321 148.453C881.309 150.75 880.729 152.72 879.581 154.366C878.433 156.011 876.781 157.272 874.627 158.148C872.485 159.024 869.898 159.462 866.868 159.462C863.826 159.462 861.174 159.006 858.913 158.094C856.652 157.183 854.895 155.798 853.64 153.94C852.385 152.081 851.74 149.732 851.705 146.891H860.121C860.192 148.062 860.505 149.039 861.062 149.82C861.618 150.602 862.382 151.193 863.352 151.596C864.335 151.998 865.471 152.2 866.761 152.2C867.945 152.2 868.951 152.04 869.78 151.72C870.62 151.401 871.265 150.957 871.715 150.388C872.165 149.82 872.396 149.169 872.408 148.435C872.396 147.749 872.183 147.163 871.768 146.678C871.354 146.18 870.715 145.754 869.851 145.399C868.999 145.032 867.91 144.695 866.584 144.387L862.784 143.499C859.635 142.777 857.156 141.611 855.344 140.001C853.533 138.38 852.634 136.19 852.646 133.432C852.634 131.183 853.237 129.212 854.457 127.519C855.676 125.826 857.363 124.507 859.517 123.56C861.671 122.613 864.128 122.139 866.886 122.139C869.703 122.139 872.147 122.619 874.219 123.577C876.302 124.524 877.918 125.856 879.066 127.572C880.214 129.289 880.8 131.277 880.824 133.538H872.408ZM885.76 159V131.727H894.442V159H885.76ZM890.11 128.549C888.891 128.549 887.843 128.147 886.967 127.342C886.091 126.525 885.653 125.542 885.653 124.394C885.653 123.258 886.091 122.287 886.967 121.482C887.843 120.665 888.891 120.257 890.11 120.257C891.341 120.257 892.389 120.665 893.253 121.482C894.129 122.287 894.567 123.258 894.567 124.394C894.567 125.542 894.129 126.525 893.253 127.342C892.389 128.147 891.341 128.549 890.11 128.549Z" fill="#132AF4"/>
<circle cx="1089" cy="140" r="40" transform="rotate(-180 1089 140)" fill="url(#paint1_radial_330_5736)"/>
<path d="M1087.41 133.538C1087.29 132.236 1086.76 131.224 1085.83 130.502C1084.9 129.768 1083.58 129.401 1081.87 129.401C1080.73 129.401 1079.78 129.549 1079.03 129.845C1078.27 130.141 1077.7 130.549 1077.32 131.07C1076.94 131.579 1076.75 132.165 1076.74 132.828C1076.71 133.373 1076.82 133.852 1077.06 134.266C1077.3 134.681 1077.66 135.048 1078.12 135.367C1078.59 135.675 1079.16 135.947 1079.83 136.184C1080.49 136.421 1081.23 136.628 1082.06 136.805L1085.19 137.516C1086.99 137.906 1088.57 138.427 1089.95 139.078C1091.33 139.729 1092.49 140.504 1093.43 141.404C1094.37 142.304 1095.09 143.339 1095.58 144.511C1096.06 145.683 1096.31 146.997 1096.32 148.453C1096.31 150.75 1095.73 152.72 1094.58 154.366C1093.43 156.011 1091.78 157.272 1089.63 158.148C1087.48 159.024 1084.9 159.462 1081.87 159.462C1078.83 159.462 1076.17 159.006 1073.91 158.094C1071.65 157.183 1069.89 155.798 1068.64 153.94C1067.39 152.081 1066.74 149.732 1066.7 146.891H1075.12C1075.19 148.062 1075.51 149.039 1076.06 149.82C1076.62 150.602 1077.38 151.193 1078.35 151.596C1079.33 151.998 1080.47 152.2 1081.76 152.2C1082.95 152.2 1083.95 152.04 1084.78 151.72C1085.62 151.401 1086.27 150.957 1086.72 150.388C1087.17 149.82 1087.4 149.169 1087.41 148.435C1087.4 147.749 1087.18 147.163 1086.77 146.678C1086.35 146.18 1085.71 145.754 1084.85 145.399C1084 145.032 1082.91 144.695 1081.58 144.387L1077.78 143.499C1074.64 142.777 1072.16 141.611 1070.34 140.001C1068.53 138.38 1067.63 136.19 1067.65 133.432C1067.63 131.183 1068.24 129.212 1069.46 127.519C1070.68 125.826 1072.36 124.507 1074.52 123.56C1076.67 122.613 1079.13 122.139 1081.89 122.139C1084.7 122.139 1087.15 122.619 1089.22 123.577C1091.3 124.524 1092.92 125.856 1094.07 127.572C1095.21 129.289 1095.8 131.277 1095.82 133.538H1087.41ZM1100.76 159V131.727H1109.44V159H1100.76ZM1105.11 128.549C1103.89 128.549 1102.84 128.147 1101.97 127.342C1101.09 126.525 1100.65 125.542 1100.65 124.394C1100.65 123.258 1101.09 122.287 1101.97 121.482C1102.84 120.665 1103.89 120.257 1105.11 120.257C1106.34 120.257 1107.39 120.665 1108.25 121.482C1109.13 122.287 1109.57 123.258 1109.57 124.394C1109.57 125.542 1109.13 126.525 1108.25 127.342C1107.39 128.147 1106.34 128.549 1105.11 128.549Z" fill="#132AF4"/>
<circle cx="1304" cy="140" r="40" transform="rotate(-180 1304 140)" fill="url(#paint2_radial_330_5736)"/>
<path d="M1302.41 133.538C1302.29 132.236 1301.76 131.224 1300.83 130.502C1299.9 129.768 1298.58 129.401 1296.87 129.401C1295.73 129.401 1294.78 129.549 1294.03 129.845C1293.27 130.141 1292.7 130.549 1292.32 131.07C1291.94 131.579 1291.75 132.165 1291.74 132.828C1291.71 133.373 1291.82 133.852 1292.06 134.266C1292.3 134.681 1292.66 135.048 1293.12 135.367C1293.59 135.675 1294.16 135.947 1294.83 136.184C1295.49 136.421 1296.23 136.628 1297.06 136.805L1300.19 137.516C1301.99 137.906 1303.57 138.427 1304.95 139.078C1306.33 139.729 1307.49 140.504 1308.43 141.404C1309.37 142.304 1310.09 143.339 1310.58 144.511C1311.06 145.683 1311.31 146.997 1311.32 148.453C1311.31 150.75 1310.73 152.72 1309.58 154.366C1308.43 156.011 1306.78 157.272 1304.63 158.148C1302.48 159.024 1299.9 159.462 1296.87 159.462C1293.83 159.462 1291.17 159.006 1288.91 158.094C1286.65 157.183 1284.89 155.798 1283.64 153.94C1282.39 152.081 1281.74 149.732 1281.7 146.891H1290.12C1290.19 148.062 1290.51 149.039 1291.06 149.82C1291.62 150.602 1292.38 151.193 1293.35 151.596C1294.33 151.998 1295.47 152.2 1296.76 152.2C1297.95 152.2 1298.95 152.04 1299.78 151.72C1300.62 151.401 1301.27 150.957 1301.72 150.388C1302.17 149.82 1302.4 149.169 1302.41 148.435C1302.4 147.749 1302.18 147.163 1301.77 146.678C1301.35 146.18 1300.71 145.754 1299.85 145.399C1299 145.032 1297.91 144.695 1296.58 144.387L1292.78 143.499C1289.64 142.777 1287.16 141.611 1285.34 140.001C1283.53 138.38 1282.63 136.19 1282.65 133.432C1282.63 131.183 1283.24 129.212 1284.46 127.519C1285.68 125.826 1287.36 124.507 1289.52 123.56C1291.67 122.613 1294.13 122.139 1296.89 122.139C1299.7 122.139 1302.15 122.619 1304.22 123.577C1306.3 124.524 1307.92 125.856 1309.07 127.572C1310.21 129.289 1310.8 131.277 1310.82 133.538H1302.41ZM1315.76 159V131.727H1324.44V159H1315.76ZM1320.11 128.549C1318.89 128.549 1317.84 128.147 1316.97 127.342C1316.09 126.525 1315.65 125.542 1315.65 124.394C1315.65 123.258 1316.09 122.287 1316.97 121.482C1317.84 120.665 1318.89 120.257 1320.11 120.257C1321.34 120.257 1322.39 120.665 1323.25 121.482C1324.13 122.287 1324.57 123.258 1324.57 124.394C1324.57 125.542 1324.13 126.525 1323.25 127.342C1322.39 128.147 1321.34 128.549 1320.11 128.549Z" fill="#132AF4"/>
<circle cx="874" cy="355" r="40" transform="rotate(-180 874 355)" fill="url(#paint3_radial_330_5736)"/>
<path d="M872.408 348.538C872.289 347.236 871.763 346.224 870.827 345.502C869.904 344.768 868.584 344.401 866.868 344.401C865.732 344.401 864.785 344.549 864.027 344.845C863.269 345.141 862.701 345.549 862.322 346.07C861.944 346.579 861.748 347.165 861.737 347.828C861.713 348.373 861.819 348.852 862.056 349.266C862.305 349.681 862.66 350.048 863.121 350.367C863.595 350.675 864.163 350.947 864.826 351.184C865.489 351.421 866.235 351.628 867.063 351.805L870.188 352.516C871.987 352.906 873.574 353.427 874.947 354.078C876.332 354.729 877.492 355.504 878.427 356.404C879.374 357.304 880.09 358.339 880.575 359.511C881.061 360.683 881.309 361.997 881.321 363.453C881.309 365.75 880.729 367.72 879.581 369.366C878.433 371.011 876.781 372.272 874.627 373.148C872.485 374.024 869.898 374.462 866.868 374.462C863.826 374.462 861.174 374.006 858.913 373.094C856.652 372.183 854.895 370.798 853.64 368.94C852.385 367.081 851.74 364.732 851.705 361.891H860.121C860.192 363.062 860.505 364.039 861.062 364.82C861.618 365.602 862.382 366.193 863.352 366.596C864.335 366.998 865.471 367.2 866.761 367.2C867.945 367.2 868.951 367.04 869.78 366.72C870.62 366.401 871.265 365.957 871.715 365.388C872.165 364.82 872.396 364.169 872.408 363.435C872.396 362.749 872.183 362.163 871.768 361.678C871.354 361.18 870.715 360.754 869.851 360.399C868.999 360.032 867.91 359.695 866.584 359.387L862.784 358.499C859.635 357.777 857.156 356.611 855.344 355.001C853.533 353.38 852.634 351.19 852.646 348.432C852.634 346.183 853.237 344.212 854.457 342.519C855.676 340.826 857.363 339.507 859.517 338.56C861.671 337.613 864.128 337.139 866.886 337.139C869.703 337.139 872.147 337.619 874.219 338.577C876.302 339.524 877.918 340.856 879.066 342.572C880.214 344.289 880.8 346.277 880.824 348.538H872.408ZM885.76 374V346.727H894.442V374H885.76ZM890.11 343.549C888.891 343.549 887.843 343.147 886.967 342.342C886.091 341.525 885.653 340.542 885.653 339.394C885.653 338.258 886.091 337.287 886.967 336.482C887.843 335.665 888.891 335.257 890.11 335.257C891.341 335.257 892.389 335.665 893.253 336.482C894.129 337.287 894.567 338.258 894.567 339.394C894.567 340.542 894.129 341.525 893.253 342.342C892.389 343.147 891.341 343.549 890.11 343.549Z" fill="#132AF4"/>
<circle cx="1089" cy="355" r="40" transform="rotate(-180 1089 355)" fill="url(#paint4_radial_330_5736)"/>
<path d="M1087.41 348.538C1087.29 347.236 1086.76 346.224 1085.83 345.502C1084.9 344.768 1083.58 344.401 1081.87 344.401C1080.73 344.401 1079.78 344.549 1079.03 344.845C1078.27 345.141 1077.7 345.549 1077.32 346.07C1076.94 346.579 1076.75 347.165 1076.74 347.828C1076.71 348.373 1076.82 348.852 1077.06 349.266C1077.3 349.681 1077.66 350.048 1078.12 350.367C1078.59 350.675 1079.16 350.947 1079.83 351.184C1080.49 351.421 1081.23 351.628 1082.06 351.805L1085.19 352.516C1086.99 352.906 1088.57 353.427 1089.95 354.078C1091.33 354.729 1092.49 355.504 1093.43 356.404C1094.37 357.304 1095.09 358.339 1095.58 359.511C1096.06 360.683 1096.31 361.997 1096.32 363.453C1096.31 365.75 1095.73 367.72 1094.58 369.366C1093.43 371.011 1091.78 372.272 1089.63 373.148C1087.48 374.024 1084.9 374.462 1081.87 374.462C1078.83 374.462 1076.17 374.006 1073.91 373.094C1071.65 372.183 1069.89 370.798 1068.64 368.94C1067.39 367.081 1066.74 364.732 1066.7 361.891H1075.12C1075.19 363.062 1075.51 364.039 1076.06 364.82C1076.62 365.602 1077.38 366.193 1078.35 366.596C1079.33 366.998 1080.47 367.2 1081.76 367.2C1082.95 367.2 1083.95 367.04 1084.78 366.72C1085.62 366.401 1086.27 365.957 1086.72 365.388C1087.17 364.82 1087.4 364.169 1087.41 363.435C1087.4 362.749 1087.18 362.163 1086.77 361.678C1086.35 361.18 1085.71 360.754 1084.85 360.399C1084 360.032 1082.91 359.695 1081.58 359.387L1077.78 358.499C1074.64 357.777 1072.16 356.611 1070.34 355.001C1068.53 353.38 1067.63 351.19 1067.65 348.432C1067.63 346.183 1068.24 344.212 1069.46 342.519C1070.68 340.826 1072.36 339.507 1074.52 338.56C1076.67 337.613 1079.13 337.139 1081.89 337.139C1084.7 337.139 1087.15 337.619 1089.22 338.577C1091.3 339.524 1092.92 340.856 1094.07 342.572C1095.21 344.289 1095.8 346.277 1095.82 348.538H1087.41ZM1100.76 374V346.727H1109.44V374H1100.76ZM1105.11 343.549C1103.89 343.549 1102.84 343.147 1101.97 342.342C1101.09 341.525 1100.65 340.542 1100.65 339.394C1100.65 338.258 1101.09 337.287 1101.97 336.482C1102.84 335.665 1103.89 335.257 1105.11 335.257C1106.34 335.257 1107.39 335.665 1108.25 336.482C1109.13 337.287 1109.57 338.258 1109.57 339.394C1109.57 340.542 1109.13 341.525 1108.25 342.342C1107.39 343.147 1106.34 343.549 1105.11 343.549Z" fill="#132AF4"/>
<circle cx="1304" cy="355" r="40" transform="rotate(-180 1304 355)" fill="url(#paint5_radial_330_5736)"/>
<path d="M1302.41 348.538C1302.29 347.236 1301.76 346.224 1300.83 345.502C1299.9 344.768 1298.58 344.401 1296.87 344.401C1295.73 344.401 1294.78 344.549 1294.03 344.845C1293.27 345.141 1292.7 345.549 1292.32 346.07C1291.94 346.579 1291.75 347.165 1291.74 347.828C1291.71 348.373 1291.82 348.852 1292.06 349.266C1292.3 349.681 1292.66 350.048 1293.12 350.367C1293.59 350.675 1294.16 350.947 1294.83 351.184C1295.49 351.421 1296.23 351.628 1297.06 351.805L1300.19 352.516C1301.99 352.906 1303.57 353.427 1304.95 354.078C1306.33 354.729 1307.49 355.504 1308.43 356.404C1309.37 357.304 1310.09 358.339 1310.58 359.511C1311.06 360.683 1311.31 361.997 1311.32 363.453C1311.31 365.75 1310.73 367.72 1309.58 369.366C1308.43 371.011 1306.78 372.272 1304.63 373.148C1302.48 374.024 1299.9 374.462 1296.87 374.462C1293.83 374.462 1291.17 374.006 1288.91 373.094C1286.65 372.183 1284.89 370.798 1283.64 368.94C1282.39 367.081 1281.74 364.732 1281.7 361.891H1290.12C1290.19 363.062 1290.51 364.039 1291.06 364.82C1291.62 365.602 1292.38 366.193 1293.35 366.596C1294.33 366.998 1295.47 367.2 1296.76 367.2C1297.95 367.2 1298.95 367.04 1299.78 366.72C1300.62 366.401 1301.27 365.957 1301.72 365.388C1302.17 364.82 1302.4 364.169 1302.41 363.435C1302.4 362.749 1302.18 362.163 1301.77 361.678C1301.35 361.18 1300.71 360.754 1299.85 360.399C1299 360.032 1297.91 359.695 1296.58 359.387L1292.78 358.499C1289.64 357.777 1287.16 356.611 1285.34 355.001C1283.53 353.38 1282.63 351.19 1282.65 348.432C1282.63 346.183 1283.24 344.212 1284.46 342.519C1285.68 340.826 1287.36 339.507 1289.52 338.56C1291.67 337.613 1294.13 337.139 1296.89 337.139C1299.7 337.139 1302.15 337.619 1304.22 338.577C1306.3 339.524 1307.92 340.856 1309.07 342.572C1310.21 344.289 1310.8 346.277 1310.82 348.538H1302.41ZM1315.76 374V346.727H1324.44V374H1315.76ZM1320.11 343.549C1318.89 343.549 1317.84 343.147 1316.97 342.342C1316.09 341.525 1315.65 340.542 1315.65 339.394C1315.65 338.258 1316.09 337.287 1316.97 336.482C1317.84 335.665 1318.89 335.257 1320.11 335.257C1321.34 335.257 1322.39 335.665 1323.25 336.482C1324.13 337.287 1324.57 338.258 1324.57 339.394C1324.57 340.542 1324.13 341.525 1323.25 342.342C1322.39 343.147 1321.34 343.549 1320.11 343.549Z" fill="#132AF4"/>
<circle cx="874" cy="570" r="40" transform="rotate(-180 874 570)" fill="url(#paint6_radial_330_5736)"/>
<path d="M872.408 563.538C872.289 562.236 871.763 561.224 870.827 560.502C869.904 559.768 868.584 559.401 866.868 559.401C865.732 559.401 864.785 559.549 864.027 559.845C863.269 560.141 862.701 560.549 862.322 561.07C861.944 561.579 861.748 562.165 861.737 562.828C861.713 563.373 861.819 563.852 862.056 564.266C862.305 564.681 862.66 565.048 863.121 565.367C863.595 565.675 864.163 565.947 864.826 566.184C865.489 566.421 866.235 566.628 867.063 566.805L870.188 567.516C871.987 567.906 873.574 568.427 874.947 569.078C876.332 569.729 877.492 570.504 878.427 571.404C879.374 572.304 880.09 573.339 880.575 574.511C881.061 575.683 881.309 576.997 881.321 578.453C881.309 580.75 880.729 582.72 879.581 584.366C878.433 586.011 876.781 587.272 874.627 588.148C872.485 589.024 869.898 589.462 866.868 589.462C863.826 589.462 861.174 589.006 858.913 588.094C856.652 587.183 854.895 585.798 853.64 583.94C852.385 582.081 851.74 579.732 851.705 576.891H860.121C860.192 578.062 860.505 579.039 861.062 579.82C861.618 580.602 862.382 581.193 863.352 581.596C864.335 581.998 865.471 582.2 866.761 582.2C867.945 582.2 868.951 582.04 869.78 581.72C870.62 581.401 871.265 580.957 871.715 580.388C872.165 579.82 872.396 579.169 872.408 578.435C872.396 577.749 872.183 577.163 871.768 576.678C871.354 576.18 870.715 575.754 869.851 575.399C868.999 575.032 867.91 574.695 866.584 574.387L862.784 573.499C859.635 572.777 857.156 571.611 855.344 570.001C853.533 568.38 852.634 566.19 852.646 563.432C852.634 561.183 853.237 559.212 854.457 557.519C855.676 555.826 857.363 554.507 859.517 553.56C861.671 552.613 864.128 552.139 866.886 552.139C869.703 552.139 872.147 552.619 874.219 553.577C876.302 554.524 877.918 555.856 879.066 557.572C880.214 559.289 880.8 561.277 880.824 563.538H872.408ZM885.76 589V561.727H894.442V589H885.76ZM890.11 558.549C888.891 558.549 887.843 558.147 886.967 557.342C886.091 556.525 885.653 555.542 885.653 554.394C885.653 553.258 886.091 552.287 886.967 551.482C887.843 550.665 888.891 550.257 890.11 550.257C891.341 550.257 892.389 550.665 893.253 551.482C894.129 552.287 894.567 553.258 894.567 554.394C894.567 555.542 894.129 556.525 893.253 557.342C892.389 558.147 891.341 558.549 890.11 558.549Z" fill="#132AF4"/>
<circle cx="1089" cy="570" r="40" transform="rotate(-180 1089 570)" fill="url(#paint7_radial_330_5736)"/>
<path d="M1087.41 563.538C1087.29 562.236 1086.76 561.224 1085.83 560.502C1084.9 559.768 1083.58 559.401 1081.87 559.401C1080.73 559.401 1079.78 559.549 1079.03 559.845C1078.27 560.141 1077.7 560.549 1077.32 561.07C1076.94 561.579 1076.75 562.165 1076.74 562.828C1076.71 563.373 1076.82 563.852 1077.06 564.266C1077.3 564.681 1077.66 565.048 1078.12 565.367C1078.59 565.675 1079.16 565.947 1079.83 566.184C1080.49 566.421 1081.23 566.628 1082.06 566.805L1085.19 567.516C1086.99 567.906 1088.57 568.427 1089.95 569.078C1091.33 569.729 1092.49 570.504 1093.43 571.404C1094.37 572.304 1095.09 573.339 1095.58 574.511C1096.06 575.683 1096.31 576.997 1096.32 578.453C1096.31 580.75 1095.73 582.72 1094.58 584.366C1093.43 586.011 1091.78 587.272 1089.63 588.148C1087.48 589.024 1084.9 589.462 1081.87 589.462C1078.83 589.462 1076.17 589.006 1073.91 588.094C1071.65 587.183 1069.89 585.798 1068.64 583.94C1067.39 582.081 1066.74 579.732 1066.7 576.891H1075.12C1075.19 578.062 1075.51 579.039 1076.06 579.82C1076.62 580.602 1077.38 581.193 1078.35 581.596C1079.33 581.998 1080.47 582.2 1081.76 582.2C1082.95 582.2 1083.95 582.04 1084.78 581.72C1085.62 581.401 1086.27 580.957 1086.72 580.388C1087.17 579.82 1087.4 579.169 1087.41 578.435C1087.4 577.749 1087.18 577.163 1086.77 576.678C1086.35 576.18 1085.71 575.754 1084.85 575.399C1084 575.032 1082.91 574.695 1081.58 574.387L1077.78 573.499C1074.64 572.777 1072.16 571.611 1070.34 570.001C1068.53 568.38 1067.63 566.19 1067.65 563.432C1067.63 561.183 1068.24 559.212 1069.46 557.519C1070.68 555.826 1072.36 554.507 1074.52 553.56C1076.67 552.613 1079.13 552.139 1081.89 552.139C1084.7 552.139 1087.15 552.619 1089.22 553.577C1091.3 554.524 1092.92 555.856 1094.07 557.572C1095.21 559.289 1095.8 561.277 1095.82 563.538H1087.41ZM1100.76 589V561.727H1109.44V589H1100.76ZM1105.11 558.549C1103.89 558.549 1102.84 558.147 1101.97 557.342C1101.09 556.525 1100.65 555.542 1100.65 554.394C1100.65 553.258 1101.09 552.287 1101.97 551.482C1102.84 550.665 1103.89 550.257 1105.11 550.257C1106.34 550.257 1107.39 550.665 1108.25 551.482C1109.13 552.287 1109.57 553.258 1109.57 554.394C1109.57 555.542 1109.13 556.525 1108.25 557.342C1107.39 558.147 1106.34 558.549 1105.11 558.549Z" fill="#132AF4"/>
<circle cx="1304" cy="570" r="40" transform="rotate(-180 1304 570)" fill="url(#paint8_radial_330_5736)"/>
<path d="M1302.41 563.538C1302.29 562.236 1301.76 561.224 1300.83 560.502C1299.9 559.768 1298.58 559.401 1296.87 559.401C1295.73 559.401 1294.78 559.549 1294.03 559.845C1293.27 560.141 1292.7 560.549 1292.32 561.07C1291.94 561.579 1291.75 562.165 1291.74 562.828C1291.71 563.373 1291.82 563.852 1292.06 564.266C1292.3 564.681 1292.66 565.048 1293.12 565.367C1293.59 565.675 1294.16 565.947 1294.83 566.184C1295.49 566.421 1296.23 566.628 1297.06 566.805L1300.19 567.516C1301.99 567.906 1303.57 568.427 1304.95 569.078C1306.33 569.729 1307.49 570.504 1308.43 571.404C1309.37 572.304 1310.09 573.339 1310.58 574.511C1311.06 575.683 1311.31 576.997 1311.32 578.453C1311.31 580.75 1310.73 582.72 1309.58 584.366C1308.43 586.011 1306.78 587.272 1304.63 588.148C1302.48 589.024 1299.9 589.462 1296.87 589.462C1293.83 589.462 1291.17 589.006 1288.91 588.094C1286.65 587.183 1284.89 585.798 1283.64 583.94C1282.39 582.081 1281.74 579.732 1281.7 576.891H1290.12C1290.19 578.062 1290.51 579.039 1291.06 579.82C1291.62 580.602 1292.38 581.193 1293.35 581.596C1294.33 581.998 1295.47 582.2 1296.76 582.2C1297.95 582.2 1298.95 582.04 1299.78 581.72C1300.62 581.401 1301.27 580.957 1301.72 580.388C1302.17 579.82 1302.4 579.169 1302.41 578.435C1302.4 577.749 1302.18 577.163 1301.77 576.678C1301.35 576.18 1300.71 575.754 1299.85 575.399C1299 575.032 1297.91 574.695 1296.58 574.387L1292.78 573.499C1289.64 572.777 1287.16 571.611 1285.34 570.001C1283.53 568.38 1282.63 566.19 1282.65 563.432C1282.63 561.183 1283.24 559.212 1284.46 557.519C1285.68 555.826 1287.36 554.507 1289.52 553.56C1291.67 552.613 1294.13 552.139 1296.89 552.139C1299.7 552.139 1302.15 552.619 1304.22 553.577C1306.3 554.524 1307.92 555.856 1309.07 557.572C1310.21 559.289 1310.8 561.277 1310.82 563.538H1302.41ZM1315.76 589V561.727H1324.44V589H1315.76ZM1320.11 558.549C1318.89 558.549 1317.84 558.147 1316.97 557.342C1316.09 556.525 1315.65 555.542 1315.65 554.394C1315.65 553.258 1316.09 552.287 1316.97 551.482C1317.84 550.665 1318.89 550.257 1320.11 550.257C1321.34 550.257 1322.39 550.665 1323.25 551.482C1324.13 552.287 1324.57 553.258 1324.57 554.394C1324.57 555.542 1324.13 556.525 1323.25 557.342C1322.39 558.147 1321.34 558.549 1320.11 558.549Z" fill="#132AF4"/>
<path fill-rule="evenodd" clip-rule="evenodd" d="M913.87 136.544C917.051 134.244 921.215 132.012 926.321 129.985C940.094 124.516 959.532 121 981.307 121C1003.08 121 1022.52 124.516 1036.29 129.985C1041.4 132.012 1045.56 134.244 1048.75 136.544C1048.92 134.315 1049.28 132.138 1049.81 130.027C1035.49 120.999 1010.16 115 981.307 115C952.454 115 927.128 120.999 912.809 130.026C913.335 132.137 913.693 134.315 913.87 136.544Z" fill="#BD9400"/>
<path fill-rule="evenodd" clip-rule="evenodd" d="M913.872 142.961C917.053 145.261 921.217 147.493 926.323 149.52C940.097 154.989 959.535 158.505 981.31 158.505C1003.08 158.505 1022.52 154.989 1036.3 149.52C1041.4 147.493 1045.57 145.261 1048.75 142.961C1048.92 145.19 1049.28 147.368 1049.81 149.479C1035.49 158.506 1010.16 164.505 981.31 164.505C952.456 164.505 927.13 158.506 912.811 149.478C913.337 147.367 913.695 145.19 913.872 142.961Z" fill="#BD9400"/>
<path d="M966.777 140H939" stroke="#0BB7EE" stroke-width="6" stroke-linecap="round"/>
<path d="M1023.78 140H996" stroke="#0BB7EE" stroke-width="6" stroke-linecap="round"/>
<path fill-rule="evenodd" clip-rule="evenodd" d="M913.87 351.544C917.051 349.244 921.215 347.012 926.321 344.985C940.094 339.516 959.532 336 981.307 336C1003.08 336 1022.52 339.516 1036.29 344.985C1041.4 347.012 1045.56 349.244 1048.75 351.544C1048.92 349.315 1049.28 347.138 1049.81 345.027C1035.49 335.999 1010.16 330 981.307 330C952.454 330 927.128 335.999 912.809 345.026C913.335 347.137 913.693 349.315 913.87 351.544Z" fill="#BD9400"/>
<path fill-rule="evenodd" clip-rule="evenodd" d="M913.872 357.961C917.053 360.261 921.217 362.493 926.323 364.52C940.097 369.989 959.535 373.505 981.31 373.505C1003.08 373.505 1022.52 369.989 1036.3 364.52C1041.4 362.493 1045.57 360.261 1048.75 357.961C1048.92 360.19 1049.28 362.368 1049.81 364.479C1035.49 373.506 1010.16 379.505 981.31 379.505C952.456 379.505 927.13 373.506 912.811 364.478C913.337 362.367 913.695 360.19 913.872 357.961Z" fill="#BD9400"/>
<path d="M966.777 355H939" stroke="#0BB7EE" stroke-width="6" stroke-linecap="round"/>
<path d="M1023.78 355H996" stroke="#0BB7EE" stroke-width="6" stroke-linecap="round"/>
<path fill-rule="evenodd" clip-rule="evenodd" d="M913.87 566.544C917.051 564.244 921.215 562.012 926.321 559.985C940.094 554.516 959.532 551 981.307 551C1003.08 551 1022.52 554.516 1036.29 559.985C1041.4 562.012 1045.56 564.244 1048.75 566.544C1048.92 564.315 1049.28 562.138 1049.81 560.027C1035.49 550.999 1010.16 545 981.307 545C952.454 545 927.128 550.999 912.809 560.026C913.335 562.137 913.693 564.315 913.87 566.544Z" fill="#BD9400"/>
<path fill-rule="evenodd" clip-rule="evenodd" d="M913.872 572.961C917.053 575.261 921.217 577.493 926.323 579.52C940.097 584.989 959.535 588.505 981.31 588.505C1003.08 588.505 1022.52 584.989 1036.3 579.52C1041.4 577.493 1045.57 575.261 1048.75 572.961C1048.92 575.19 1049.28 577.368 1049.81 579.479C1035.49 588.506 1010.16 594.505 981.31 594.505C952.456 594.505 927.13 588.506 912.811 579.478C913.337 577.367 913.695 575.19 913.872 572.961Z" fill="#BD9400"/>
<path d="M966.777 570H939" stroke="#0BB7EE" stroke-width="6" stroke-linecap="round"/>
<path d="M1023.78 570H996" stroke="#0BB7EE" stroke-width="6" stroke-linecap="round"/>
<path fill-rule="evenodd" clip-rule="evenodd" d="M1129.06 566.544C1132.24 564.244 1136.41 562.012 1141.51 559.985C1155.29 554.516 1174.72 551 1196.5 551C1218.27 551 1237.71 554.516 1251.49 559.985C1256.59 562.012 1260.76 564.244 1263.94 566.544C1264.11 564.315 1264.47 562.138 1265 560.027C1250.68 550.999 1225.35 545 1196.5 545C1167.65 545 1142.32 550.999 1128 560.026C1128.53 562.137 1128.88 564.315 1129.06 566.544Z" fill="#BD9400"/>
<path fill-rule="evenodd" clip-rule="evenodd" d="M1129.06 572.961C1132.24 575.261 1136.41 577.493 1141.51 579.52C1155.29 584.989 1174.73 588.505 1196.5 588.505C1218.28 588.505 1237.71 584.989 1251.49 579.52C1256.59 577.493 1260.76 575.261 1263.94 572.961C1264.12 575.19 1264.47 577.368 1265 579.479C1250.68 588.506 1225.36 594.505 1196.5 594.505C1167.65 594.505 1142.32 588.506 1128 579.478C1128.53 577.367 1128.89 575.19 1129.06 572.961Z" fill="#BD9400"/>
<path d="M1181.97 570H1154.19" stroke="#0BB7EE" stroke-width="6" stroke-linecap="round"/>
<path d="M1238.97 570H1211.19" stroke="#0BB7EE" stroke-width="6" stroke-linecap="round"/>
<path fill-rule="evenodd" clip-rule="evenodd" d="M1129.06 351.544C1132.24 349.244 1136.41 347.012 1141.51 344.985C1155.29 339.516 1174.72 336 1196.5 336C1218.27 336 1237.71 339.516 1251.49 344.985C1256.59 347.012 1260.76 349.244 1263.94 351.544C1264.11 349.315 1264.47 347.138 1265 345.027C1250.68 335.999 1225.35 330 1196.5 330C1167.65 330 1142.32 335.999 1128 345.026C1128.53 347.137 1128.88 349.315 1129.06 351.544Z" fill="#BD9400"/>
<path fill-rule="evenodd" clip-rule="evenodd" d="M1129.06 357.961C1132.24 360.261 1136.41 362.493 1141.51 364.52C1155.29 369.989 1174.73 373.505 1196.5 373.505C1218.28 373.505 1237.71 369.989 1251.49 364.52C1256.59 362.493 1260.76 360.261 1263.94 357.961C1264.12 360.19 1264.47 362.368 1265 364.479C1250.68 373.506 1225.36 379.505 1196.5 379.505C1167.65 379.505 1142.32 373.506 1128 364.478C1128.53 362.367 1128.89 360.19 1129.06 357.961Z" fill="#BD9400"/>
<path d="M1181.97 355H1154.19" stroke="#0BB7EE" stroke-width="6" stroke-linecap="round"/>
<path d="M1238.97 355H1211.19" stroke="#0BB7EE" stroke-width="6" stroke-linecap="round"/>
<path fill-rule="evenodd" clip-rule="evenodd" d="M1128.87 136.544C1132.05 134.244 1136.22 132.012 1141.32 129.985C1155.09 124.516 1174.53 121 1196.31 121C1218.08 121 1237.52 124.516 1251.29 129.985C1256.4 132.012 1260.56 134.244 1263.75 136.544C1263.92 134.315 1264.28 132.138 1264.81 130.027C1250.49 120.999 1225.16 115 1196.31 115C1167.45 115 1142.13 120.999 1127.81 130.026C1128.33 132.137 1128.69 134.315 1128.87 136.544Z" fill="#BD9400"/>
<path fill-rule="evenodd" clip-rule="evenodd" d="M1128.87 142.961C1132.05 145.261 1136.22 147.493 1141.32 149.52C1155.1 154.989 1174.53 158.505 1196.31 158.505C1218.08 158.505 1237.52 154.989 1251.3 149.52C1256.4 147.493 1260.57 145.261 1263.75 142.961C1263.92 145.19 1264.28 147.368 1264.81 149.479C1250.49 158.506 1225.16 164.505 1196.31 164.505C1167.46 164.505 1142.13 158.506 1127.81 149.478C1128.34 147.367 1128.7 145.19 1128.87 142.961Z" fill="#BD9400"/>
<path d="M1181.78 140H1154" stroke="#0BB7EE" stroke-width="6" stroke-linecap="round"/>
<path d="M1238.78 140H1211" stroke="#0BB7EE" stroke-width="6" stroke-linecap="round"/>
<path fill-rule="evenodd" clip-rule="evenodd" d="M1300.54 315.323C1298.24 312.143 1296.01 307.978 1293.98 302.872C1288.52 289.099 1285 269.661 1285 247.886C1285 226.111 1288.52 206.673 1293.98 192.899C1296.01 187.793 1298.24 183.629 1300.54 180.448C1298.32 180.271 1296.14 179.913 1294.03 179.387C1285 193.706 1279 219.032 1279 247.886C1279 276.74 1285 302.065 1294.03 316.385C1296.14 315.859 1298.31 315.5 1300.54 315.323Z" fill="#BD9400"/>
<path fill-rule="evenodd" clip-rule="evenodd" d="M1306.96 315.322C1309.26 312.141 1311.49 307.976 1313.52 302.87C1318.99 289.097 1322.5 269.659 1322.5 247.884C1322.5 226.109 1318.99 206.67 1313.52 192.897C1311.49 187.791 1309.26 183.627 1306.96 180.446C1309.19 180.269 1311.37 179.911 1313.48 179.385C1322.51 193.704 1328.5 219.03 1328.5 247.884C1328.5 276.738 1322.51 302.063 1313.48 316.383C1311.37 315.857 1309.19 315.498 1306.96 315.322Z" fill="#BD9400"/>
<path d="M1304 262.416V290.194" stroke="#0BB7EE" stroke-width="6" stroke-linecap="round"/>
<path d="M1304 205.416V233.194" stroke="#0BB7EE" stroke-width="6" stroke-linecap="round"/>
<path fill-rule="evenodd" clip-rule="evenodd" d="M1085.54 315.323C1083.24 312.143 1081.01 307.978 1078.98 302.872C1073.52 289.099 1070 269.661 1070 247.886C1070 226.111 1073.52 206.673 1078.98 192.899C1081.01 187.793 1083.24 183.629 1085.54 180.448C1083.32 180.271 1081.14 179.913 1079.03 179.387C1070 193.706 1064 219.032 1064 247.886C1064 276.74 1070 302.065 1079.03 316.385C1081.14 315.859 1083.31 315.5 1085.54 315.323Z" fill="#BD9400"/>
<path fill-rule="evenodd" clip-rule="evenodd" d="M1091.96 315.322C1094.26 312.141 1096.49 307.976 1098.52 302.87C1103.99 289.097 1107.5 269.659 1107.5 247.884C1107.5 226.109 1103.99 206.67 1098.52 192.897C1096.49 187.791 1094.26 183.627 1091.96 180.446C1094.19 180.269 1096.37 179.911 1098.48 179.385C1107.51 193.704 1113.5 219.03 1113.5 247.884C1113.5 276.738 1107.51 302.063 1098.48 316.383C1096.37 315.857 1094.19 315.498 1091.96 315.322Z" fill="#BD9400"/>
<path d="M1089 262.416V290.194" stroke="#0BB7EE" stroke-width="6" stroke-linecap="round"/>
<path d="M1089 205.416V233.194" stroke="#0BB7EE" stroke-width="6" stroke-linecap="round"/>
<path fill-rule="evenodd" clip-rule="evenodd" d="M870.544 315.323C868.244 312.143 866.012 307.978 863.985 302.872C858.516 289.099 855 269.661 855 247.886C855 226.111 858.516 206.673 863.985 192.899C866.012 187.793 868.244 183.629 870.544 180.448C868.315 180.271 866.138 179.913 864.027 179.387C854.999 193.706 849 219.032 849 247.886C849 276.74 854.999 302.065 864.026 316.385C866.137 315.859 868.315 315.5 870.544 315.323Z" fill="#BD9400"/>
<path fill-rule="evenodd" clip-rule="evenodd" d="M876.96 315.322C879.26 312.141 881.492 307.976 883.519 302.87C888.988 289.097 892.504 269.659 892.504 247.884C892.504 226.109 888.988 206.67 883.519 192.897C881.492 187.791 879.26 183.627 876.961 180.446C879.189 180.269 881.367 179.911 883.478 179.385C892.505 193.704 898.504 219.03 898.504 247.884C898.504 276.738 892.505 302.063 883.477 316.383C881.366 315.857 879.189 315.498 876.96 315.322Z" fill="#BD9400"/>
<path d="M874 262.416V290.194" stroke="#0BB7EE" stroke-width="6" stroke-linecap="round"/>
<path d="M874 205.416V233.194" stroke="#0BB7EE" stroke-width="6" stroke-linecap="round"/>
<path fill-rule="evenodd" clip-rule="evenodd" d="M870.544 530.323C868.244 527.143 866.012 522.978 863.985 517.872C858.516 504.099 855 484.661 855 462.886C855 441.111 858.516 421.673 863.985 407.899C866.012 402.793 868.244 398.629 870.544 395.448C868.315 395.271 866.138 394.913 864.027 394.387C854.999 408.706 849 434.032 849 462.886C849 491.74 854.999 517.065 864.026 531.385C866.137 530.859 868.315 530.5 870.544 530.323Z" fill="#BD9400"/>
<path fill-rule="evenodd" clip-rule="evenodd" d="M876.96 530.322C879.26 527.141 881.492 522.976 883.519 517.87C888.988 504.097 892.504 484.659 892.504 462.884C892.504 441.109 888.988 421.67 883.519 407.897C881.492 402.791 879.26 398.627 876.961 395.446C879.189 395.269 881.367 394.911 883.478 394.385C892.505 408.704 898.504 434.03 898.504 462.884C898.504 491.738 892.505 517.063 883.477 531.383C881.366 530.857 879.189 530.498 876.96 530.322Z" fill="#BD9400"/>
<path d="M874 477.416V505.194" stroke="#0BB7EE" stroke-width="6" stroke-linecap="round"/>
<path d="M874 420.416V448.194" stroke="#0BB7EE" stroke-width="6" stroke-linecap="round"/>
<path fill-rule="evenodd" clip-rule="evenodd" d="M1085.54 530.323C1083.24 527.143 1081.01 522.978 1078.98 517.872C1073.52 504.099 1070 484.661 1070 462.886C1070 441.111 1073.52 421.673 1078.98 407.899C1081.01 402.793 1083.24 398.629 1085.54 395.448C1083.32 395.271 1081.14 394.913 1079.03 394.387C1070 408.706 1064 434.032 1064 462.886C1064 491.74 1070 517.065 1079.03 531.385C1081.14 530.859 1083.31 530.5 1085.54 530.323Z" fill="#BD9400"/>
<path fill-rule="evenodd" clip-rule="evenodd" d="M1091.96 530.322C1094.26 527.141 1096.49 522.976 1098.52 517.87C1103.99 504.097 1107.5 484.659 1107.5 462.884C1107.5 441.109 1103.99 421.67 1098.52 407.897C1096.49 402.791 1094.26 398.627 1091.96 395.446C1094.19 395.269 1096.37 394.911 1098.48 394.385C1107.51 408.704 1113.5 434.03 1113.5 462.884C1113.5 491.738 1107.51 517.063 1098.48 531.383C1096.37 530.857 1094.19 530.498 1091.96 530.322Z" fill="#BD9400"/>
<path d="M1089 477.416V505.194" stroke="#0BB7EE" stroke-width="6" stroke-linecap="round"/>
<path d="M1089 420.416V448.194" stroke="#0BB7EE" stroke-width="6" stroke-linecap="round"/>
<path fill-rule="evenodd" clip-rule="evenodd" d="M1300.54 530.323C1298.24 527.143 1296.01 522.978 1293.98 517.872C1288.52 504.099 1285 484.661 1285 462.886C1285 441.111 1288.52 421.673 1293.98 407.899C1296.01 402.793 1298.24 398.629 1300.54 395.448C1298.32 395.271 1296.14 394.913 1294.03 394.387C1285 408.706 1279 434.032 1279 462.886C1279 491.74 1285 517.065 1294.03 531.385C1296.14 530.859 1298.31 530.5 1300.54 530.323Z" fill="#BD9400"/>
<path fill-rule="evenodd" clip-rule="evenodd" d="M1306.96 530.322C1309.26 527.141 1311.49 522.976 1313.52 517.87C1318.99 504.097 1322.5 484.659 1322.5 462.884C1322.5 441.109 1318.99 421.67 1313.52 407.897C1311.49 402.791 1309.26 398.627 1306.96 395.446C1309.19 395.269 1311.37 394.911 1313.48 394.385C1322.51 408.704 1328.5 434.03 1328.5 462.884C1328.5 491.738 1322.51 517.063 1313.48 531.383C1311.37 530.857 1309.19 530.498 1306.96 530.322Z" fill="#BD9400"/>
<path d="M1304 477.416V505.194" stroke="#0BB7EE" stroke-width="6" stroke-linecap="round"/>
<path d="M1304 420.416V448.194" stroke="#0BB7EE" stroke-width="6" stroke-linecap="round"/>
<circle cx="147.5" cy="577.5" r="118.5" transform="rotate(-180 147.5 577.5)" stroke="#BD9400" stroke-width="6"/>
<circle cx="148" cy="699" r="25" transform="rotate(-180 148 699)" fill="#1B00C4" stroke="#132AF4"/>
<path d="M161.889 699H134.111" stroke="#0BB7EE" stroke-width="6" stroke-linecap="round"/>
<circle cx="26" cy="577" r="25" transform="rotate(-180 26 577)" fill="#1B00C4" stroke="#132AF4"/>
<path d="M39.8887 577H12.1109" stroke="#0BB7EE" stroke-width="6" stroke-linecap="round"/>
<circle cx="148" cy="577" r="25" transform="rotate(-180 148 577)" fill="#EF2F2F"/>
<path d="M128 577.913C128 577.913 128 577.776 128 577.502C128 577.228 128.148 577.017 128.443 576.87H137.897V572.126L137.929 567.383C138.14 567.109 138.34 566.972 138.53 566.972C138.804 566.972 139.015 567.13 139.162 567.447V576.87H148.585C148.901 577.038 149.059 577.249 149.059 577.502C149.059 577.755 148.901 577.966 148.585 578.134H139.162V587.557C138.993 587.852 138.804 588 138.593 588H138.53H138.466C138.213 588 138.024 587.852 137.897 587.557V578.134H128.443C128.148 577.987 128 577.776 128 577.502V577.913Z" fill="#0BB7EE" stroke="#0BB7EE" stroke-width="2"/>
<path d="M166.436 588C166.057 587.937 164.697 587.905 162.357 587.905C159.912 587.905 158.499 587.937 158.12 588H157.835V586.545H158.816C159.237 586.545 159.522 586.545 159.669 586.545C159.817 586.545 159.996 586.524 160.207 586.482C160.418 586.44 160.565 586.387 160.65 586.324C160.734 586.261 160.808 586.177 160.871 586.071C160.892 586.029 160.903 585.46 160.903 584.364V582.783H152.713V581.328L157.488 574.024C160.713 569.133 162.347 566.677 162.389 566.656C162.431 566.614 162.652 566.593 163.053 566.593H163.622L163.812 566.783V581.328H166.721V582.783H163.812V584.395C163.812 585.26 163.812 585.765 163.812 585.913C163.812 586.061 163.875 586.187 164.001 586.292C164.17 586.44 164.771 586.524 165.804 586.545H166.721V588H166.436ZM161.092 581.328V570.767L154.167 581.296L157.614 581.328H161.092Z" fill="#0BB7EE" stroke="#0BB7EE" stroke-width="2"/>
<circle cx="147.5" cy="362.5" r="118.5" transform="rotate(-180 147.5 362.5)" stroke="#BD9400" stroke-width="6"/>
<circle cx="201" cy="470" r="25" transform="rotate(-180 201 470)" fill="#1B00C4" stroke="#132AF4"/>
<path d="M214.891 470H187.113" stroke="#0BB7EE" stroke-width="6" stroke-linecap="round"/>
<circle cx="94" cy="470" r="25" transform="rotate(-180 94 470)" fill="#1B00C4" stroke="#132AF4"/>
<path d="M107.889 470H80.1109" stroke="#0BB7EE" stroke-width="6" stroke-linecap="round"/>
<circle cx="26" cy="362" r="25" transform="rotate(-180 26 362)" fill="#1B00C4" stroke="#132AF4"/>
<path d="M39.8887 362H12.1109" stroke="#0BB7EE" stroke-width="6" stroke-linecap="round"/>
<circle cx="148" cy="362" r="25" transform="rotate(-180 148 362)" fill="#EF2F2F"/>
<path d="M128 362.913C128 362.913 128 362.776 128 362.502C128 362.228 128.148 362.017 128.443 361.87H137.897V357.126L137.929 352.383C138.14 352.109 138.34 351.972 138.53 351.972C138.804 351.972 139.015 352.13 139.162 352.447V361.87H148.585C148.901 362.038 149.059 362.249 149.059 362.502C149.059 362.755 148.901 362.966 148.585 363.134H139.162V372.557C138.993 372.852 138.804 373 138.593 373H138.53H138.466C138.213 373 138.024 372.852 137.897 372.557V363.134H128.443C128.148 362.987 128 362.776 128 362.502V362.913Z" fill="#0BB7EE" stroke="#0BB7EE" stroke-width="2"/>
<path d="M166.436 373C166.057 372.937 164.697 372.905 162.357 372.905C159.912 372.905 158.499 372.937 158.12 373H157.835V371.545H158.816C159.237 371.545 159.522 371.545 159.669 371.545C159.817 371.545 159.996 371.524 160.207 371.482C160.418 371.44 160.565 371.387 160.65 371.324C160.734 371.261 160.808 371.177 160.871 371.071C160.892 371.029 160.903 370.46 160.903 369.364V367.783H152.713V366.328L157.488 359.024C160.713 354.133 162.347 351.677 162.389 351.656C162.431 351.614 162.652 351.593 163.053 351.593H163.622L163.812 351.783V366.328H166.721V367.783H163.812V369.395C163.812 370.26 163.812 370.765 163.812 370.913C163.812 371.061 163.875 371.187 164.001 371.292C164.17 371.44 164.771 371.524 165.804 371.545H166.721V373H166.436ZM161.092 366.328V355.767L154.167 366.296L157.614 366.328H161.092Z" fill="#0BB7EE" stroke="#0BB7EE" stroke-width="2"/>
<circle cx="147.5" cy="147.5" r="118.5" transform="rotate(-180 147.5 147.5)" stroke="#BD9400" stroke-width="6"/>
<circle cx="201" cy="255" r="25" transform="rotate(-180 201 255)" fill="#1B00C4" stroke="#132AF4"/>
<path d="M214.891 255H187.113" stroke="#0BB7EE" stroke-width="6" stroke-linecap="round"/>
<circle cx="94" cy="255" r="25" transform="rotate(-180 94 255)" fill="#1B00C4" stroke="#132AF4"/>
<path d="M107.889 255H80.1109" stroke="#0BB7EE" stroke-width="6" stroke-linecap="round"/>
<circle cx="148" cy="26" r="25" transform="rotate(-180 148 26)" fill="#1B00C4" stroke="#132AF4"/>
<path d="M161.889 26L134.111 26" stroke="#0BB7EE" stroke-width="6" stroke-linecap="round"/>
<circle cx="26" cy="147" r="25" transform="rotate(-180 26 147)" fill="#1B00C4" stroke="#132AF4"/>
<path d="M39.8887 147H12.1109" stroke="#0BB7EE" stroke-width="6" stroke-linecap="round"/>
<circle cx="148" cy="147" r="25" transform="rotate(-180 148 147)" fill="#EF2F2F"/>
<path d="M128 147.913C128 147.913 128 147.776 128 147.502C128 147.228 128.148 147.017 128.443 146.87H137.897V142.126L137.929 137.383C138.14 137.109 138.34 136.972 138.53 136.972C138.804 136.972 139.015 137.13 139.162 137.447V146.87H148.585C148.901 147.038 149.059 147.249 149.059 147.502C149.059 147.755 148.901 147.966 148.585 148.134H139.162V157.557C138.993 157.852 138.804 158 138.593 158H138.53H138.466C138.213 158 138.024 157.852 137.897 157.557V148.134H128.443C128.148 147.987 128 147.776 128 147.502V147.913Z" fill="#0BB7EE" stroke="#0BB7EE" stroke-width="2"/>
<path d="M166.436 158C166.057 157.937 164.697 157.905 162.357 157.905C159.912 157.905 158.499 157.937 158.12 158H157.835V156.545H158.816C159.237 156.545 159.522 156.545 159.669 156.545C159.817 156.545 159.996 156.524 160.207 156.482C160.418 156.44 160.565 156.387 160.65 156.324C160.734 156.261 160.808 156.177 160.871 156.071C160.892 156.029 160.903 155.46 160.903 154.364V152.783H152.713V151.328L157.488 144.024C160.713 139.133 162.347 136.677 162.389 136.656C162.431 136.614 162.652 136.593 163.053 136.593H163.622L163.812 136.783V151.328H166.721V152.783H163.812V154.395C163.812 155.26 163.812 155.765 163.812 155.913C163.812 156.061 163.875 156.187 164.001 156.292C164.17 156.44 164.771 156.524 165.804 156.545H166.721V158H166.436ZM161.092 151.328V140.767L154.167 151.296L157.614 151.328H161.092Z" fill="#0BB7EE" stroke="#0BB7EE" stroke-width="2"/>
<circle cx="362.5" cy="577.5" r="118.5" transform="rotate(-180 362.5 577.5)" stroke="#BD9400" stroke-width="6"/>
<circle cx="255" cy="631" r="25" transform="rotate(-180 255 631)" fill="#1B00C4" stroke="#132AF4"/>
<path d="M268.889 631H241.111" stroke="#0BB7EE" stroke-width="6" stroke-linecap="round"/>
<circle cx="255" cy="524" r="25" transform="rotate(-180 255 524)" fill="#1B00C4" stroke="#132AF4"/>
<path d="M268.889 524H241.111" stroke="#0BB7EE" stroke-width="6" stroke-linecap="round"/>
<circle cx="363" cy="699" r="25" transform="rotate(-180 363 699)" fill="#1B00C4" stroke="#132AF4"/>
<path d="M376.889 699H349.111" stroke="#0BB7EE" stroke-width="6" stroke-linecap="round"/>
<circle cx="363" cy="577" r="25" transform="rotate(-180 363 577)" fill="#EF2F2F"/>
<path d="M343 577.913C343 577.913 343 577.776 343 577.502C343 577.228 343.148 577.017 343.443 576.87H352.897V572.126L352.929 567.383C353.14 567.109 353.34 566.972 353.53 566.972C353.804 566.972 354.015 567.13 354.162 567.447V576.87H363.585C363.901 577.038 364.059 577.249 364.059 577.502C364.059 577.755 363.901 577.966 363.585 578.134H354.162V587.557C353.993 587.852 353.804 588 353.593 588H353.53H353.466C353.213 588 353.024 587.852 352.897 587.557V578.134H343.443C343.148 577.987 343 577.776 343 577.502V577.913Z" fill="#0BB7EE" stroke="#0BB7EE" stroke-width="2"/>
<path d="M381.436 588C381.057 587.937 379.697 587.905 377.357 587.905C374.912 587.905 373.499 587.937 373.12 588H372.835V586.545H373.816C374.237 586.545 374.522 586.545 374.669 586.545C374.817 586.545 374.996 586.524 375.207 586.482C375.418 586.44 375.565 586.387 375.65 586.324C375.734 586.261 375.808 586.177 375.871 586.071C375.892 586.029 375.903 585.46 375.903 584.364V582.783H367.713V581.328L372.488 574.024C375.713 569.133 377.347 566.677 377.389 566.656C377.431 566.614 377.652 566.593 378.053 566.593H378.622L378.812 566.783V581.328H381.721V582.783H378.812V584.395C378.812 585.26 378.812 585.765 378.812 585.913C378.812 586.061 378.875 586.187 379.001 586.292C379.17 586.44 379.771 586.524 380.804 586.545H381.721V588H381.436ZM376.092 581.328V570.767L369.167 581.296L372.614 581.328H376.092Z" fill="#0BB7EE" stroke="#0BB7EE" stroke-width="2"/>
<circle cx="362.5" cy="362.5" r="118.5" transform="rotate(-180 362.5 362.5)" stroke="#BD9400" stroke-width="6"/>
<circle cx="416" cy="470" r="25" transform="rotate(-180 416 470)" fill="#1B00C4" stroke="#132AF4"/>
<path d="M429.891 470H402.113" stroke="#0BB7EE" stroke-width="6" stroke-linecap="round"/>
<circle cx="309" cy="470" r="25" transform="rotate(-180 309 470)" fill="#1B00C4" stroke="#132AF4"/>
<path d="M322.889 470H295.111" stroke="#0BB7EE" stroke-width="6" stroke-linecap="round"/>
<circle cx="255" cy="416" r="25" transform="rotate(-180 255 416)" fill="#1B00C4" stroke="#132AF4"/>
<path d="M268.889 416H241.111" stroke="#0BB7EE" stroke-width="6" stroke-linecap="round"/>
<circle cx="255" cy="309" r="25" transform="rotate(-180 255 309)" fill="#1B00C4" stroke="#132AF4"/>
<path d="M268.889 309H241.111" stroke="#0BB7EE" stroke-width="6" stroke-linecap="round"/>
<circle cx="363" cy="362" r="25" transform="rotate(-180 363 362)" fill="#EF2F2F"/>
<path d="M343 362.913C343 362.913 343 362.776 343 362.502C343 362.228 343.148 362.017 343.443 361.87H352.897V357.126L352.929 352.383C353.14 352.109 353.34 351.972 353.53 351.972C353.804 351.972 354.015 352.13 354.162 352.447V361.87H363.585C363.901 362.038 364.059 362.249 364.059 362.502C364.059 362.755 363.901 362.966 363.585 363.134H354.162V372.557C353.993 372.852 353.804 373 353.593 373H353.53H353.466C353.213 373 353.024 372.852 352.897 372.557V363.134H343.443C343.148 362.987 343 362.776 343 362.502V362.913Z" fill="#0BB7EE" stroke="#0BB7EE" stroke-width="2"/>
<path d="M381.436 373C381.057 372.937 379.697 372.905 377.357 372.905C374.912 372.905 373.499 372.937 373.12 373H372.835V371.545H373.816C374.237 371.545 374.522 371.545 374.669 371.545C374.817 371.545 374.996 371.524 375.207 371.482C375.418 371.44 375.565 371.387 375.65 371.324C375.734 371.261 375.808 371.177 375.871 371.071C375.892 371.029 375.903 370.46 375.903 369.364V367.783H367.713V366.328L372.488 359.024C375.713 354.133 377.347 351.677 377.389 351.656C377.431 351.614 377.652 351.593 378.053 351.593H378.622L378.812 351.783V366.328H381.721V367.783H378.812V369.395C378.812 370.26 378.812 370.765 378.812 370.913C378.812 371.061 378.875 371.187 379.001 371.292C379.17 371.44 379.771 371.524 380.804 371.545H381.721V373H381.436ZM376.092 366.328V355.767L369.167 366.296L372.614 366.328H376.092Z" fill="#0BB7EE" stroke="#0BB7EE" stroke-width="2"/>
<circle cx="362.5" cy="147.5" r="118.5" transform="rotate(-180 362.5 147.5)" stroke="#BD9400" stroke-width="6"/>
<circle cx="416" cy="255" r="25" transform="rotate(-180 416 255)" fill="#1B00C4" stroke="#132AF4"/>
<path d="M429.891 255H402.113" stroke="#0BB7EE" stroke-width="6" stroke-linecap="round"/>
<circle cx="309" cy="255" r="25" transform="rotate(-180 309 255)" fill="#1B00C4" stroke="#132AF4"/>
<path d="M322.889 255H295.111" stroke="#0BB7EE" stroke-width="6" stroke-linecap="round"/>
<circle cx="255" cy="201" r="25" transform="rotate(-180 255 201)" fill="#1B00C4" stroke="#132AF4"/>
<path d="M268.889 201H241.111" stroke="#0BB7EE" stroke-width="6" stroke-linecap="round"/>
<circle cx="363" cy="26" r="25" transform="rotate(-180 363 26)" fill="#1B00C4" stroke="#132AF4"/>
<path d="M376.889 26L349.111 26" stroke="#0BB7EE" stroke-width="6" stroke-linecap="round"/>
<circle cx="255" cy="94" r="25" transform="rotate(-180 255 94)" fill="#1B00C4" stroke="#132AF4"/>
<path d="M268.889 94H241.111" stroke="#0BB7EE" stroke-width="6" stroke-linecap="round"/>
<circle cx="363" cy="147" r="25" transform="rotate(-180 363 147)" fill="#EF2F2F"/>
<path d="M343 147.913C343 147.913 343 147.776 343 147.502C343 147.228 343.148 147.017 343.443 146.87H352.897V142.126L352.929 137.383C353.14 137.109 353.34 136.972 353.53 136.972C353.804 136.972 354.015 137.13 354.162 137.447V146.87H363.585C363.901 147.038 364.059 147.249 364.059 147.502C364.059 147.755 363.901 147.966 363.585 148.134H354.162V157.557C353.993 157.852 353.804 158 353.593 158H353.53H353.466C353.213 158 353.024 157.852 352.897 157.557V148.134H343.443C343.148 147.987 343 147.776 343 147.502V147.913Z" fill="#0BB7EE" stroke="#0BB7EE" stroke-width="2"/>
<path d="M381.436 158C381.057 157.937 379.697 157.905 377.357 157.905C374.912 157.905 373.499 157.937 373.12 158H372.835V156.545H373.816C374.237 156.545 374.522 156.545 374.669 156.545C374.817 156.545 374.996 156.524 375.207 156.482C375.418 156.44 375.565 156.387 375.65 156.324C375.734 156.261 375.808 156.177 375.871 156.071C375.892 156.029 375.903 155.46 375.903 154.364V152.783H367.713V151.328L372.488 144.024C375.713 139.133 377.347 136.677 377.389 136.656C377.431 136.614 377.652 136.593 378.053 136.593H378.622L378.812 136.783V151.328H381.721V152.783H378.812V154.395C378.812 155.26 378.812 155.765 378.812 155.913C378.812 156.061 378.875 156.187 379.001 156.292C379.17 156.44 379.771 156.524 380.804 156.545H381.721V158H381.436ZM376.092 151.328V140.767L369.167 151.296L372.614 151.328H376.092Z" fill="#0BB7EE" stroke="#0BB7EE" stroke-width="2"/>
<circle cx="577.5" cy="577.5" r="118.5" transform="rotate(-180 577.5 577.5)" stroke="#BD9400" stroke-width="6"/>
<circle cx="470" cy="631" r="25" transform="rotate(-180 470 631)" fill="#1B00C4" stroke="#132AF4"/>
<path d="M483.889 631H456.111" stroke="#0BB7EE" stroke-width="6" stroke-linecap="round"/>
<circle cx="470" cy="524" r="25" transform="rotate(-180 470 524)" fill="#1B00C4" stroke="#132AF4"/>
<path d="M483.889 524H456.111" stroke="#0BB7EE" stroke-width="6" stroke-linecap="round"/>
<circle cx="578" cy="699" r="25" transform="rotate(-180 578 699)" fill="#1B00C4" stroke="#132AF4"/>
<path d="M591.889 699H564.111" stroke="#0BB7EE" stroke-width="6" stroke-linecap="round"/>
<circle cx="699" cy="577" r="25" transform="rotate(-180 699 577)" fill="#1B00C4" stroke="#132AF4"/>
<path d="M712.889 577H685.111" stroke="#0BB7EE" stroke-width="6" stroke-linecap="round"/>
<circle cx="578" cy="577" r="25" transform="rotate(-180 578 577)" fill="#EF2F2F"/>
<path d="M558 577.913C558 577.913 558 577.776 558 577.502C558 577.228 558.148 577.017 558.443 576.87H567.897V572.126L567.929 567.383C568.14 567.109 568.34 566.972 568.53 566.972C568.804 566.972 569.015 567.13 569.162 567.447V576.87H578.585C578.901 577.038 579.059 577.249 579.059 577.502C579.059 577.755 578.901 577.966 578.585 578.134H569.162V587.557C568.993 587.852 568.804 588 568.593 588H568.53H568.466C568.213 588 568.024 587.852 567.897 587.557V578.134H558.443C558.148 577.987 558 577.776 558 577.502V577.913Z" fill="#0BB7EE" stroke="#0BB7EE" stroke-width="2"/>
<path d="M596.436 588C596.057 587.937 594.697 587.905 592.357 587.905C589.912 587.905 588.499 587.937 588.12 588H587.835V586.545H588.816C589.237 586.545 589.522 586.545 589.669 586.545C589.817 586.545 589.996 586.524 590.207 586.482C590.418 586.44 590.565 586.387 590.65 586.324C590.734 586.261 590.808 586.177 590.871 586.071C590.892 586.029 590.903 585.46 590.903 584.364V582.783H582.713V581.328L587.488 574.024C590.713 569.133 592.347 566.677 592.389 566.656C592.431 566.614 592.652 566.593 593.053 566.593H593.622L593.812 566.783V581.328H596.721V582.783H593.812V584.395C593.812 585.26 593.812 585.765 593.812 585.913C593.812 586.061 593.875 586.187 594.001 586.292C594.17 586.44 594.771 586.524 595.804 586.545H596.721V588H596.436ZM591.092 581.328V570.767L584.167 581.296L587.614 581.328H591.092Z" fill="#0BB7EE" stroke="#0BB7EE" stroke-width="2"/>
<circle cx="577.5" cy="362.5" r="118.5" transform="rotate(-180 577.5 362.5)" stroke="#BD9400" stroke-width="6"/>
<circle cx="631" cy="470" r="25" transform="rotate(-180 631 470)" fill="#1B00C4" stroke="#132AF4"/>
<path d="M644.891 470H617.113" stroke="#0BB7EE" stroke-width="6" stroke-linecap="round"/>
<circle cx="524" cy="470" r="25" transform="rotate(-180 524 470)" fill="#1B00C4" stroke="#132AF4"/>
<path d="M537.889 470H510.111" stroke="#0BB7EE" stroke-width="6" stroke-linecap="round"/>
<circle cx="470" cy="416" r="25" transform="rotate(-180 470 416)" fill="#1B00C4" stroke="#132AF4"/>
<path d="M483.889 416H456.111" stroke="#0BB7EE" stroke-width="6" stroke-linecap="round"/>
<circle cx="470" cy="309" r="25" transform="rotate(-180 470 309)" fill="#1B00C4" stroke="#132AF4"/>
<path d="M483.889 309H456.111" stroke="#0BB7EE" stroke-width="6" stroke-linecap="round"/>
<circle cx="699" cy="362" r="25" transform="rotate(-180 699 362)" fill="#1B00C4" stroke="#132AF4"/>
<path d="M712.889 362H685.111" stroke="#0BB7EE" stroke-width="6" stroke-linecap="round"/>
<circle cx="578" cy="362" r="25" transform="rotate(-180 578 362)" fill="#EF2F2F"/>
<path d="M558 362.913C558 362.913 558 362.776 558 362.502C558 362.228 558.148 362.017 558.443 361.87H567.897V357.126L567.929 352.383C568.14 352.109 568.34 351.972 568.53 351.972C568.804 351.972 569.015 352.13 569.162 352.447V361.87H578.585C578.901 362.038 579.059 362.249 579.059 362.502C579.059 362.755 578.901 362.966 578.585 363.134H569.162V372.557C568.993 372.852 568.804 373 568.593 373H568.53H568.466C568.213 373 568.024 372.852 567.897 372.557V363.134H558.443C558.148 362.987 558 362.776 558 362.502V362.913Z" fill="#0BB7EE" stroke="#0BB7EE" stroke-width="2"/>
<path d="M596.436 373C596.057 372.937 594.697 372.905 592.357 372.905C589.912 372.905 588.499 372.937 588.12 373H587.835V371.545H588.816C589.237 371.545 589.522 371.545 589.669 371.545C589.817 371.545 589.996 371.524 590.207 371.482C590.418 371.44 590.565 371.387 590.65 371.324C590.734 371.261 590.808 371.177 590.871 371.071C590.892 371.029 590.903 370.46 590.903 369.364V367.783H582.713V366.328L587.488 359.024C590.713 354.133 592.347 351.677 592.389 351.656C592.431 351.614 592.652 351.593 593.053 351.593H593.622L593.812 351.783V366.328H596.721V367.783H593.812V369.395C593.812 370.26 593.812 370.765 593.812 370.913C593.812 371.061 593.875 371.187 594.001 371.292C594.17 371.44 594.771 371.524 595.804 371.545H596.721V373H596.436ZM591.092 366.328V355.767L584.167 366.296L587.614 366.328H591.092Z" fill="#0BB7EE" stroke="#0BB7EE" stroke-width="2"/>
<circle cx="577.5" cy="147.5" r="118.5" transform="rotate(-180 577.5 147.5)" stroke="#BD9400" stroke-width="6"/>
<circle cx="631" cy="255" r="25" transform="rotate(-180 631 255)" fill="#1B00C4" stroke="#132AF4"/>
<path d="M644.891 255H617.113" stroke="#0BB7EE" stroke-width="6" stroke-linecap="round"/>
<circle cx="524" cy="255" r="25" transform="rotate(-180 524 255)" fill="#1B00C4" stroke="#132AF4"/>
<path d="M537.889 255H510.111" stroke="#0BB7EE" stroke-width="6" stroke-linecap="round"/>
<circle cx="470" cy="201" r="25" transform="rotate(-180 470 201)" fill="#1B00C4" stroke="#132AF4"/>
<path d="M483.889 201H456.111" stroke="#0BB7EE" stroke-width="6" stroke-linecap="round"/>
<circle cx="578" cy="26" r="25" transform="rotate(-180 578 26)" fill="#1B00C4" stroke="#132AF4"/>
<path d="M591.889 26L564.111 26" stroke="#0BB7EE" stroke-width="6" stroke-linecap="round"/>
<circle cx="470" cy="94" r="25" transform="rotate(-180 470 94)" fill="#1B00C4" stroke="#132AF4"/>
<path d="M483.889 94H456.111" stroke="#0BB7EE" stroke-width="6" stroke-linecap="round"/>
<circle cx="699" cy="147" r="25" transform="rotate(-180 699 147)" fill="#1B00C4" stroke="#132AF4"/>
<path d="M712.889 147H685.111" stroke="#0BB7EE" stroke-width="6" stroke-linecap="round"/>
<circle cx="578" cy="147" r="25" transform="rotate(-180 578 147)" fill="#EF2F2F"/>
<path d="M558 147.913C558 147.913 558 147.776 558 147.502C558 147.228 558.148 147.017 558.443 146.87H567.897V142.126L567.929 137.383C568.14 137.109 568.34 136.972 568.53 136.972C568.804 136.972 569.015 137.13 569.162 137.447V146.87H578.585C578.901 147.038 579.059 147.249 579.059 147.502C579.059 147.755 578.901 147.966 578.585 148.134H569.162V157.557C568.993 157.852 568.804 158 568.593 158H568.53H568.466C568.213 158 568.024 157.852 567.897 157.557V148.134H558.443C558.148 147.987 558 147.776 558 147.502V147.913Z" fill="#0BB7EE" stroke="#0BB7EE" stroke-width="2"/>
<path d="M596.436 158C596.057 157.937 594.697 157.905 592.357 157.905C589.912 157.905 588.499 157.937 588.12 158H587.835V156.545H588.816C589.237 156.545 589.522 156.545 589.669 156.545C589.817 156.545 589.996 156.524 590.207 156.482C590.418 156.44 590.565 156.387 590.65 156.324C590.734 156.261 590.808 156.177 590.871 156.071C590.892 156.029 590.903 155.46 590.903 154.364V152.783H582.713V151.328L587.488 144.024C590.713 139.133 592.347 136.677 592.389 136.656C592.431 136.614 592.652 136.593 593.053 136.593H593.622L593.812 136.783V151.328H596.721V152.783H593.812V154.395C593.812 155.26 593.812 155.765 593.812 155.913C593.812 156.061 593.875 156.187 594.001 156.292C594.17 156.44 594.771 156.524 595.804 156.545H596.721V158H596.436ZM591.092 151.328V140.767L584.167 151.296L587.614 151.328H591.092Z" fill="#0BB7EE" stroke="#0BB7EE" stroke-width="2"/>
<defs>
<radialGradient id="paint0_radial_330_5736" cx="0" cy="0" r="1" gradientUnits="userSpaceOnUse" gradientTransform="translate(894 172.5) rotate(-115.448) scale(80.2901)">
<stop stop-color="#576762"/>
<stop offset="0.308761" stop-color="#687A74"/>
<stop offset="1" stop-color="#5C6D68"/>
</radialGradient>
<radialGradient id="paint1_radial_330_5736" cx="0" cy="0" r="1" gradientUnits="userSpaceOnUse" gradientTransform="translate(1109 172.5) rotate(-115.448) scale(80.2901)">
<stop stop-color="#576762"/>
<stop offset="0.308761" stop-color="#687A74"/>
<stop offset="1" stop-color="#5C6D68"/>
</radialGradient>
<radialGradient id="paint2_radial_330_5736" cx="0" cy="0" r="1" gradientUnits="userSpaceOnUse" gradientTransform="translate(1324 172.5) rotate(-115.448) scale(80.2901)">
<stop stop-color="#576762"/>
<stop offset="0.308761" stop-color="#687A74"/>
<stop offset="1" stop-color="#5C6D68"/>
</radialGradient>
<radialGradient id="paint3_radial_330_5736" cx="0" cy="0" r="1" gradientUnits="userSpaceOnUse" gradientTransform="translate(894 387.5) rotate(-115.448) scale(80.2901)">
<stop stop-color="#576762"/>
<stop offset="0.308761" stop-color="#687A74"/>
<stop offset="1" stop-color="#5C6D68"/>
</radialGradient>
<radialGradient id="paint4_radial_330_5736" cx="0" cy="0" r="1" gradientUnits="userSpaceOnUse" gradientTransform="translate(1109 387.5) rotate(-115.448) scale(80.2901)">
<stop stop-color="#576762"/>
<stop offset="0.308761" stop-color="#687A74"/>
<stop offset="1" stop-color="#5C6D68"/>
</radialGradient>
<radialGradient id="paint5_radial_330_5736" cx="0" cy="0" r="1" gradientUnits="userSpaceOnUse" gradientTransform="translate(1324 387.5) rotate(-115.448) scale(80.2901)">
<stop stop-color="#576762"/>
<stop offset="0.308761" stop-color="#687A74"/>
<stop offset="1" stop-color="#5C6D68"/>
</radialGradient>
<radialGradient id="paint6_radial_330_5736" cx="0" cy="0" r="1" gradientUnits="userSpaceOnUse" gradientTransform="translate(894 602.5) rotate(-115.448) scale(80.2901)">
<stop stop-color="#576762"/>
<stop offset="0.308761" stop-color="#687A74"/>
<stop offset="1" stop-color="#5C6D68"/>
</radialGradient>
<radialGradient id="paint7_radial_330_5736" cx="0" cy="0" r="1" gradientUnits="userSpaceOnUse" gradientTransform="translate(1109 602.5) rotate(-115.448) scale(80.2901)">
<stop stop-color="#576762"/>
<stop offset="0.308761" stop-color="#687A74"/>
<stop offset="1" stop-color="#5C6D68"/>
</radialGradient>
<radialGradient id="paint8_radial_330_5736" cx="0" cy="0" r="1" gradientUnits="userSpaceOnUse" gradientTransform="translate(1324 602.5) rotate(-115.448) scale(80.2901)">
<stop stop-color="#576762"/>
<stop offset="0.308761" stop-color="#687A74"/>
<stop offset="1" stop-color="#5C6D68"/>
</radialGradient>
</defs>
</svg>
