<svg width="414" height="331" viewBox="0 0 414 331" fill="none" xmlns="http://www.w3.org/2000/svg">
<g clip-path="url(#clip0_399_1006)">
<circle cx="34.6535" cy="131.429" r="25" transform="rotate(-38.6699 34.6535 131.429)" fill="url(#paint0_radial_399_1006)"/>
<circle cx="143.179" cy="44.5772" r="25" transform="rotate(-38.6699 143.179 44.5772)" fill="url(#paint1_radial_399_1006)"/>
<path d="M183.352 12.1941L172.403 14.9699C172.253 15.0079 172.178 15.0268 172.163 15.0825C172.147 15.1382 172.201 15.1934 172.309 15.3037L175.58 18.6467L178.125 22.5714C178.209 22.7009 178.251 22.7657 178.309 22.7626C178.367 22.7595 178.401 22.6907 178.471 22.553L183.579 12.4784C183.665 12.3093 183.708 12.2248 183.668 12.1745C183.627 12.1242 183.536 12.1475 183.352 12.1941Z" fill="#0BB7EE"/>
<path d="M175.58 18.6467L178.125 22.5714C178.209 22.7009 178.251 22.7657 178.309 22.7626C178.367 22.7595 178.401 22.6907 178.471 22.553L183.579 12.4784C183.665 12.3093 183.708 12.2248 183.668 12.1745C183.627 12.1242 183.536 12.1475 183.352 12.1941L172.403 14.9699C172.253 15.0079 172.178 15.0268 172.163 15.0825C172.147 15.1382 172.201 15.1934 172.309 15.3037L175.58 18.6467ZM175.58 18.6467L143.179 44.5773" stroke="#0BB7EE" stroke-width="4" stroke-linecap="round" stroke-linejoin="round"/>
<path d="M74.8264 99.0458L63.8772 101.822C63.7276 101.86 63.6528 101.879 63.6371 101.934C63.6215 101.99 63.6755 102.045 63.7835 102.155L67.055 105.498L69.5997 109.423C69.6837 109.553 69.7257 109.617 69.7834 109.614C69.8412 109.611 69.8761 109.542 69.9459 109.405L75.0539 99.3301C75.1397 99.161 75.1826 99.0764 75.1423 99.0262C75.1021 98.9759 75.0102 98.9992 74.8264 99.0458Z" fill="#0BB7EE"/>
<path d="M67.055 105.498L69.5997 109.423C69.6837 109.553 69.7257 109.617 69.7834 109.614C69.8412 109.611 69.8761 109.542 69.9459 109.405L75.0539 99.3301C75.1397 99.161 75.1826 99.0764 75.1423 99.0262C75.1021 98.9759 75.0102 98.9992 74.8264 99.0458L63.8772 101.822C63.7276 101.86 63.6528 101.879 63.6371 101.934C63.6215 101.99 63.6755 102.045 63.7835 102.155L67.055 105.498ZM67.055 105.498L34.6535 131.429" stroke="#0BB7EE" stroke-width="4" stroke-linecap="round" stroke-linejoin="round"/>
<path d="M34.6543 131.429L143.18 44.5773" stroke="#0BB7EE" stroke-width="4" stroke-dasharray="8 8"/>
<path d="M61.457 134.414C61.457 134.414 61.457 134.319 61.457 134.128C61.457 133.937 61.4986 133.79 61.5816 133.688H66.7512C66.8402 133.805 66.8847 133.952 66.8847 134.128C66.8847 134.304 66.8402 134.451 66.7512 134.568H61.5816C61.4986 134.465 61.457 134.319 61.457 134.128V134.414Z" fill="#132AF4" stroke="#132AF4"/>
<path d="M68.3496 133.842C68.3496 132.36 68.9073 130.951 70.0226 129.615C71.1379 128.28 72.3926 127.605 73.7867 127.59C74.6672 127.59 75.3423 127.972 75.8119 128.735C75.8265 128.72 75.8632 128.676 75.9219 128.603C75.9806 128.529 76.0613 128.449 76.1641 128.361C76.2668 128.273 76.3842 128.185 76.5163 128.096C77.0152 127.744 77.3527 127.568 77.5288 127.568C77.5875 127.568 77.6389 127.59 77.6829 127.634C77.7269 127.678 77.749 127.715 77.749 127.744C77.749 127.876 77.2427 129.968 76.2301 134.018C75.1882 138.186 74.6672 140.299 74.6672 140.357C74.6672 140.475 74.9974 140.541 75.6578 140.556H76.2081C76.2961 140.673 76.3402 140.739 76.3402 140.754C76.3402 140.768 76.3181 140.9 76.2741 141.15C76.2154 141.341 76.142 141.48 76.054 141.568H75.7678C75.3129 141.539 74.5205 141.524 73.3905 141.524C72.9796 141.524 72.6054 141.524 72.2678 141.524C71.9303 141.524 71.6588 141.524 71.4534 141.524C71.2479 141.524 71.1232 141.531 71.0792 141.546C70.8737 141.546 70.771 141.487 70.771 141.37C70.771 141.326 70.7857 141.216 70.815 141.04C70.8737 140.805 70.9251 140.666 70.9691 140.622C71.0131 140.578 71.1599 140.556 71.4093 140.556C72.1137 140.556 72.5393 140.504 72.6861 140.401C72.8035 140.328 73.0089 139.682 73.3024 138.464C73.5959 137.246 73.75 136.623 73.7647 136.593C73.7647 136.579 73.7133 136.601 73.6106 136.659C72.9062 137.232 72.1724 137.518 71.4093 137.518C70.6022 137.518 69.8905 137.224 69.2741 136.637C68.6578 136.05 68.3496 135.118 68.3496 133.842ZM75.3716 130.122C75.0341 128.962 74.4838 128.383 73.7207 128.383C73.207 128.383 72.7154 128.61 72.2458 129.065C71.7762 129.52 71.4093 130.114 71.1452 130.848C70.7196 132.007 70.4188 133.211 70.2427 134.458C70.2427 134.502 70.2427 134.583 70.2427 134.7C70.2427 134.818 70.2353 134.906 70.2207 134.964C70.2207 135.625 70.3527 136.08 70.6169 136.329C70.881 136.579 71.1966 136.711 71.5634 136.725C72.3559 136.725 73.1703 136.197 74.0068 135.14L74.1829 134.898L75.3716 130.122Z" fill="#132AF4"/>
<path d="M156.457 71.8415C156.457 70.3593 157.015 68.9505 158.13 67.615C159.245 66.2796 160.5 65.6046 161.894 65.5899C162.775 65.5899 163.45 65.9714 163.92 66.7345C163.934 66.7199 163.971 66.6758 164.03 66.6025C164.088 66.5291 164.169 66.4484 164.272 66.3603C164.375 66.2723 164.492 66.1842 164.624 66.0962C165.123 65.744 165.461 65.5679 165.637 65.5679C165.695 65.5679 165.747 65.5899 165.791 65.6339C165.835 65.6779 165.857 65.7146 165.857 65.744C165.857 65.876 165.351 67.9672 164.338 72.0176C163.296 76.1853 162.775 78.2985 162.775 78.3572C162.775 78.4746 163.105 78.5406 163.766 78.5553H164.316C164.404 78.6727 164.448 78.7387 164.448 78.7534C164.448 78.7681 164.426 78.9002 164.382 79.1496C164.323 79.3404 164.25 79.4798 164.162 79.5679H163.876C163.421 79.5385 162.628 79.5238 161.498 79.5238C161.087 79.5238 160.713 79.5238 160.375 79.5238C160.038 79.5238 159.766 79.5238 159.561 79.5238C159.356 79.5238 159.231 79.5312 159.187 79.5459C158.981 79.5459 158.879 79.4872 158.879 79.3698C158.879 79.3257 158.893 79.2157 158.923 79.0396C158.981 78.8048 159.033 78.6654 159.077 78.6213C159.121 78.5773 159.267 78.5553 159.517 78.5553C160.221 78.5553 160.647 78.5039 160.794 78.4012C160.911 78.3278 161.117 77.6821 161.41 76.4641C161.704 75.2461 161.858 74.6224 161.872 74.593C161.872 74.5784 161.821 74.6004 161.718 74.6591C161.014 75.2314 160.28 75.5176 159.517 75.5176C158.71 75.5176 157.998 75.2241 157.382 74.6371C156.765 74.0501 156.457 73.1182 156.457 71.8415ZM163.479 68.1213C163.142 66.962 162.592 66.3823 161.828 66.3823C161.315 66.3823 160.823 66.6098 160.353 67.0647C159.884 67.5197 159.517 68.114 159.253 68.8477C158.827 70.0071 158.526 71.2104 158.35 72.4578C158.35 72.5018 158.35 72.5825 158.35 72.6999C158.35 72.8173 158.343 72.9054 158.328 72.9641C158.328 73.6245 158.46 74.0794 158.724 74.3289C158.989 74.5784 159.304 74.7104 159.671 74.7251C160.464 74.7251 161.278 74.1968 162.115 73.1402L162.291 72.8981L163.479 68.1213Z" fill="#132AF4"/>
<path d="M167.768 69.495C168.349 68.6546 169.143 68.2344 170.149 68.2344C170.647 68.2344 171.145 68.3693 171.643 68.639C172.141 68.9088 172.546 69.386 172.857 70.0708C173.241 70.9319 173.433 72.1147 173.433 73.6191C173.433 75.2273 173.21 76.4568 172.764 77.3075C172.556 77.7433 172.271 78.0909 171.908 78.3503C171.545 78.6096 171.228 78.7705 170.959 78.8327C170.689 78.895 170.424 78.9313 170.165 78.9417C169.895 78.9417 169.625 78.9105 169.355 78.8483C169.086 78.786 168.769 78.62 168.406 78.3503C168.043 78.0805 167.758 77.7329 167.55 77.3075C167.104 76.4568 166.881 75.2273 166.881 73.6191C166.881 71.8138 167.177 70.4391 167.768 69.495ZM171.27 69.3082C170.959 68.9762 170.59 68.8102 170.165 68.8102C169.729 68.8102 169.355 68.9762 169.044 69.3082C168.785 69.578 168.614 69.9515 168.531 70.4287C168.448 70.906 168.406 71.902 168.406 73.4168C168.406 75.0561 168.448 76.1351 168.531 76.6539C168.614 77.1727 168.8 77.5825 169.091 77.8834C169.381 78.1946 169.739 78.3503 170.165 78.3503C170.58 78.3503 170.933 78.1946 171.223 77.8834C171.524 77.5721 171.711 77.1364 171.783 76.5761C171.856 76.0158 171.898 74.9627 171.908 73.4168C171.908 71.9124 171.866 70.9216 171.783 70.4443C171.7 69.967 171.529 69.5884 171.27 69.3082Z" fill="#132AF4"/>
<path d="M178.768 38.5496C178.561 38.5496 178.457 38.4885 178.457 38.3664C178.457 38.342 178.475 38.2566 178.512 38.1101C178.561 37.9148 178.61 37.8049 178.658 37.7805C178.707 37.7561 178.848 37.7378 179.08 37.7256C179.409 37.7256 179.775 37.7072 180.178 37.6706C180.349 37.634 180.465 37.5608 180.526 37.4509C180.551 37.3898 180.984 35.6747 181.826 32.3054C182.669 28.9361 183.096 27.2271 183.108 27.1782C183.108 27.0928 183.084 27.0501 183.035 27.0501C182.937 27.0134 182.614 26.9829 182.064 26.9585H181.497C181.423 26.8853 181.387 26.8364 181.387 26.812C181.387 26.7876 181.399 26.6838 181.423 26.5007C181.472 26.2932 181.533 26.165 181.607 26.1162H191.476C191.562 26.165 191.605 26.2322 191.605 26.3176C191.605 26.3787 191.525 27.0623 191.366 28.3685C191.208 29.6747 191.122 30.3461 191.11 30.3827C191.086 30.4682 190.964 30.5109 190.744 30.5109H190.524C190.439 30.4499 190.396 30.3705 190.396 30.2729C190.396 30.2606 190.414 30.1142 190.451 29.8334C190.488 29.5526 190.506 29.2291 190.506 28.8629C190.506 28.4967 190.463 28.1976 190.378 27.9656C190.292 27.7337 190.176 27.5445 190.03 27.398C189.883 27.2515 189.657 27.1538 189.352 27.105C189.047 27.0562 188.736 27.0134 188.418 26.9768C188.101 26.9402 187.662 26.9341 187.1 26.9585H186.679C185.678 26.9707 185.147 26.989 185.086 27.0134C185.025 27.0379 184.982 27.0867 184.958 27.1599C184.945 27.1721 184.738 27.9717 184.335 29.5587L183.749 31.9209H184.756C184.793 31.9209 184.933 31.9209 185.177 31.9209C185.421 31.9209 185.592 31.9148 185.69 31.9026C185.788 31.8904 185.922 31.872 186.093 31.8476C186.264 31.8232 186.41 31.7805 186.532 31.7194C186.654 31.6584 186.758 31.5852 186.844 31.4997C187.002 31.3532 187.137 31.1518 187.246 30.8954C187.356 30.6391 187.436 30.4071 187.484 30.1996C187.533 29.9921 187.564 29.8822 187.576 29.87C187.613 29.809 187.729 29.7785 187.924 29.7785H188.144C188.229 29.8395 188.272 29.9005 188.272 29.9616C188.272 29.9982 188.083 30.7978 187.704 32.3603C187.326 33.9229 187.118 34.7286 187.082 34.7774C187.057 34.8629 186.935 34.9056 186.715 34.9056H186.496C186.41 34.8324 186.368 34.7591 186.368 34.6859C186.368 34.6493 186.398 34.515 186.459 34.283C186.52 34.0511 186.551 33.8069 186.551 33.5506C186.551 33.1966 186.429 32.9768 186.184 32.8914C185.94 32.8059 185.397 32.7632 184.555 32.7632H183.548L182.962 35.0887C182.571 36.6025 182.376 37.3959 182.376 37.4692C182.376 37.6401 182.919 37.7256 184.005 37.7256H184.463C184.536 37.7988 184.573 37.8415 184.573 37.8537C184.573 37.8659 184.561 37.988 184.536 38.22C184.488 38.3787 184.427 38.4946 184.353 38.5679H184.042C183.541 38.5435 182.62 38.5312 181.277 38.5312C180.483 38.5312 179.879 38.5312 179.464 38.5312C179.049 38.5312 178.817 38.5374 178.768 38.5496Z" fill="#132AF4"/>
<path d="M189.083 20.9339C189.083 20.8363 189.114 20.7508 189.175 20.6776C189.236 20.6043 189.327 20.5677 189.449 20.5677C189.535 20.5677 189.608 20.5982 189.669 20.6593C189.73 20.7081 189.791 20.8241 189.852 21.0072C189.974 21.4589 190.225 21.8068 190.603 22.0509C190.737 22.1364 190.805 22.2463 190.805 22.3805C190.805 22.4904 190.786 22.5637 190.75 22.6003C190.713 22.6369 190.628 22.6918 190.493 22.7651C189.968 23.0336 189.511 23.4182 189.12 23.9187C189.095 23.9431 189.065 23.9797 189.028 24.0286C188.992 24.0774 188.961 24.114 188.937 24.1384C188.912 24.1628 188.882 24.175 188.845 24.175C188.809 24.175 188.766 24.1812 188.717 24.1934C188.632 24.1934 188.552 24.1628 188.479 24.1018C188.406 24.0408 188.363 23.9492 188.351 23.8271C188.351 23.5952 188.638 23.2351 189.211 22.7468H186.08L182.949 22.7285C182.79 22.6186 182.711 22.5026 182.711 22.3805C182.711 22.2951 182.79 22.173 182.949 22.0143H189.523C189.23 21.5504 189.083 21.1903 189.083 20.9339Z" fill="#132AF4"/>
<rect x="0.998047" y="1.00012" width="197" height="164" rx="19" stroke="#132AF4" stroke-width="2" stroke-linecap="round" stroke-dasharray="7 7"/>
<path d="M74.4707 113.05C74.483 113.013 74.4954 112.964 74.5077 112.902C74.5201 112.84 74.5509 112.705 74.6003 112.495C74.6497 112.285 74.7114 112.094 74.7855 111.921C74.8596 111.748 74.9521 111.544 75.0632 111.31C75.1744 111.075 75.2978 110.89 75.4336 110.754C75.5694 110.618 75.7299 110.482 75.915 110.347C76.1002 110.211 76.3039 110.155 76.5261 110.18C76.8841 110.18 77.1989 110.254 77.4705 110.402C77.7421 110.55 77.9334 110.686 78.0445 110.81C78.1556 110.933 78.2235 111.057 78.2482 111.18C78.2729 111.254 78.2914 111.291 78.3037 111.291C78.3161 111.291 78.3655 111.248 78.4519 111.161C79.0444 110.52 79.7296 110.199 80.5073 110.199H80.5628C81.1554 110.199 81.5998 110.452 81.8961 110.958C81.9948 111.192 82.0442 111.421 82.0442 111.643C82.0442 112.013 81.9639 112.31 81.8035 112.532C81.643 112.754 81.4825 112.896 81.322 112.958C81.1615 113.019 81.0072 113.044 80.8591 113.032C80.6122 113.032 80.4147 112.964 80.2665 112.828C80.1184 112.692 80.0443 112.513 80.0443 112.291C80.0443 111.699 80.39 111.303 81.0813 111.106C80.8097 110.945 80.5875 110.865 80.4147 110.865C79.7234 110.865 79.0876 111.322 78.5074 112.236C78.384 112.433 78.2914 112.637 78.2297 112.847C78.1679 113.057 77.9581 113.878 77.6001 115.31C77.1804 117.038 76.9396 117.958 76.8779 118.069C76.7174 118.402 76.452 118.569 76.0817 118.569C75.9212 118.569 75.7916 118.532 75.6928 118.458C75.5941 118.384 75.5262 118.31 75.4891 118.236C75.4521 118.161 75.4398 118.1 75.4521 118.05C75.4521 117.89 75.699 116.828 76.1928 114.865C76.6866 112.902 76.9335 111.81 76.9335 111.587C76.9335 111.106 76.773 110.865 76.452 110.865C76.1928 110.865 75.9706 111.038 75.7854 111.384C75.6002 111.729 75.4521 112.106 75.341 112.513C75.2299 112.921 75.162 113.143 75.1373 113.18C75.1126 113.205 75.0139 113.217 74.841 113.217H74.5818C74.5077 113.143 74.4707 113.087 74.4707 113.05Z" fill="#132AF4"/>
<path d="M81.6393 104.939C81.6393 104.841 81.6701 104.754 81.7318 104.68C81.7936 104.606 81.8862 104.569 82.0096 104.569C82.096 104.569 82.1701 104.6 82.2318 104.662C82.2935 104.711 82.3553 104.828 82.417 105.013C82.5404 105.47 82.7935 105.822 83.1762 106.069C83.312 106.155 83.3799 106.266 83.3799 106.402C83.3799 106.513 83.3613 106.587 83.3243 106.624C83.2873 106.662 83.2009 106.717 83.0651 106.791C82.5342 107.063 82.0713 107.452 81.6763 107.958C81.6516 107.983 81.6207 108.02 81.5837 108.069C81.5467 108.118 81.5158 108.155 81.4911 108.18C81.4664 108.205 81.4356 108.217 81.3985 108.217C81.3615 108.217 81.3183 108.223 81.2689 108.236C81.1825 108.236 81.1023 108.205 81.0282 108.143C80.9541 108.081 80.9109 107.989 80.8986 107.865C80.8986 107.631 81.1887 107.266 81.7689 106.773H78.6025L75.436 106.754C75.2756 106.643 75.1953 106.526 75.1953 106.402C75.1953 106.316 75.2756 106.192 75.436 106.032H82.0837C81.7874 105.563 81.6393 105.199 81.6393 104.939Z" fill="#132AF4"/>
<circle cx="34.632" cy="295.997" r="25" transform="rotate(-38.6699 34.632 295.997)" fill="url(#paint2_radial_399_1006)"/>
<circle cx="141.593" cy="210.694" r="6.49257" transform="rotate(-38.6699 141.593 210.694)" fill="#0BB7EE"/>
<path d="M183.33 176.762L172.381 179.538C172.232 179.576 172.157 179.595 172.141 179.651C172.125 179.706 172.179 179.762 172.287 179.872L175.559 183.215L178.104 187.14C178.188 187.269 178.23 187.334 178.287 187.331C178.345 187.328 178.38 187.259 178.45 187.121L183.558 177.047C183.644 176.878 183.686 176.793 183.646 176.743C183.606 176.692 183.514 176.716 183.33 176.762Z" fill="#0BB7EE"/>
<path d="M175.559 183.215L178.104 187.14C178.188 187.269 178.23 187.334 178.287 187.331C178.345 187.328 178.38 187.259 178.45 187.121L183.558 177.047C183.644 176.878 183.686 176.793 183.646 176.743C183.606 176.692 183.514 176.716 183.33 176.762L172.381 179.538C172.232 179.576 172.157 179.595 172.141 179.651C172.125 179.706 172.179 179.762 172.287 179.872L175.559 183.215ZM175.559 183.215L143.157 209.145" stroke="#0BB7EE" stroke-width="4" stroke-linecap="round" stroke-linejoin="round"/>
<path d="M74.8049 263.614L63.8558 266.39C63.7061 266.428 63.6313 266.447 63.6156 266.503C63.6 266.558 63.654 266.613 63.762 266.724L67.0335 270.067L69.5782 273.991C69.6622 274.121 69.7042 274.186 69.7619 274.183C69.8197 274.18 69.8546 274.111 69.9244 273.973L75.0325 263.898C75.1182 263.729 75.1611 263.645 75.1208 263.595C75.0806 263.544 74.9887 263.568 74.8049 263.614Z" fill="#0BB7EE"/>
<path d="M67.0335 270.067L69.5782 273.991C69.6622 274.121 69.7042 274.186 69.7619 274.183C69.8197 274.18 69.8546 274.111 69.9244 273.973L75.0325 263.898C75.1182 263.729 75.1611 263.645 75.1208 263.595C75.0806 263.544 74.9887 263.568 74.8049 263.614L63.8558 266.39C63.7061 266.428 63.6313 266.447 63.6156 266.503C63.6 266.558 63.654 266.613 63.762 266.724L67.0335 270.067ZM67.0335 270.067L34.632 295.997" stroke="#0BB7EE" stroke-width="4" stroke-linecap="round" stroke-linejoin="round"/>
<path d="M34.6328 295.997L143.158 209.146" stroke="#0BB7EE" stroke-width="4" stroke-dasharray="8 8"/>
<path d="M61.4355 298.982C61.4355 298.982 61.4355 298.887 61.4355 298.696C61.4355 298.505 61.4771 298.358 61.5601 298.256H66.7297C66.8187 298.373 66.8632 298.52 66.8632 298.696C66.8632 298.872 66.8187 299.019 66.7297 299.136H61.5601C61.4771 299.034 61.4355 298.887 61.4355 298.696V298.982Z" fill="#132AF4" stroke="#132AF4"/>
<path d="M68.3281 298.41C68.3281 296.928 68.8858 295.519 70.0011 294.183C71.1164 292.848 72.3711 292.173 73.7652 292.158C74.6457 292.158 75.3208 292.54 75.7904 293.303C75.805 293.288 75.8417 293.244 75.9004 293.171C75.9591 293.097 76.0398 293.017 76.1426 292.929C76.2453 292.841 76.3627 292.753 76.4948 292.665C76.9937 292.312 77.3312 292.136 77.5073 292.136C77.566 292.136 77.6174 292.158 77.6614 292.202C77.7055 292.246 77.7275 292.283 77.7275 292.312C77.7275 292.444 77.2212 294.536 76.2086 298.586C75.1667 302.754 74.6457 304.867 74.6457 304.926C74.6457 305.043 74.9759 305.109 75.6363 305.124H76.1866C76.2746 305.241 76.3187 305.307 76.3187 305.322C76.3187 305.336 76.2967 305.469 76.2526 305.718C76.1939 305.909 76.1206 306.048 76.0325 306.136H75.7463C75.2914 306.107 74.499 306.092 73.369 306.092C72.9581 306.092 72.5839 306.092 72.2464 306.092C71.9088 306.092 71.6373 306.092 71.4319 306.092C71.2264 306.092 71.1017 306.1 71.0577 306.114C70.8522 306.114 70.7495 306.056 70.7495 305.938C70.7495 305.894 70.7642 305.784 70.7935 305.608C70.8522 305.373 70.9036 305.234 70.9476 305.19C70.9916 305.146 71.1384 305.124 71.3879 305.124C72.0923 305.124 72.5178 305.072 72.6646 304.97C72.782 304.896 72.9874 304.25 73.2809 303.032C73.5744 301.814 73.7285 301.191 73.7432 301.161C73.7432 301.147 73.6918 301.169 73.5891 301.227C72.8847 301.8 72.151 302.086 71.3879 302.086C70.5807 302.086 69.869 301.792 69.2527 301.205C68.6363 300.618 68.3281 299.687 68.3281 298.41ZM75.3501 294.69C75.0126 293.53 74.4623 292.951 73.6992 292.951C73.1856 292.951 72.6939 293.178 72.2243 293.633C71.7547 294.088 71.3879 294.682 71.1237 295.416C70.6981 296.575 70.3973 297.779 70.2212 299.026C70.2212 299.07 70.2212 299.151 70.2212 299.268C70.2212 299.386 70.2139 299.474 70.1992 299.532C70.1992 300.193 70.3313 300.648 70.5954 300.897C70.8596 301.147 71.1751 301.279 71.542 301.293C72.3344 301.293 73.1489 300.765 73.9853 299.709L74.1614 299.466L75.3501 294.69Z" fill="#132AF4"/>
<rect x="1.00195" y="165" width="197" height="165" rx="19" stroke="#132AF4" stroke-width="2" stroke-linecap="round" stroke-dasharray="7 7"/>
<path d="M74.4492 277.619C74.4616 277.582 74.4739 277.532 74.4863 277.471C74.4986 277.409 74.5295 277.273 74.5788 277.063C74.6282 276.853 74.6899 276.662 74.764 276.489C74.8381 276.316 74.9307 276.113 75.0418 275.878C75.1529 275.643 75.2763 275.458 75.4121 275.322C75.5479 275.187 75.7084 275.051 75.8936 274.915C76.0787 274.779 76.2824 274.724 76.5046 274.748C76.8626 274.748 77.1774 274.822 77.449 274.971C77.7206 275.119 77.9119 275.255 78.023 275.378C78.1341 275.501 78.202 275.625 78.2267 275.748C78.2514 275.822 78.2699 275.859 78.2823 275.859C78.2946 275.859 78.344 275.816 78.4304 275.73C79.0229 275.088 79.7081 274.767 80.4858 274.767H80.5413C81.1339 274.767 81.5783 275.02 81.8746 275.526C81.9733 275.761 82.0227 275.989 82.0227 276.211C82.0227 276.582 81.9425 276.878 81.782 277.1C81.6215 277.322 81.461 277.464 81.3005 277.526C81.1401 277.588 80.9857 277.613 80.8376 277.6C80.5907 277.6 80.3932 277.532 80.2451 277.396C80.0969 277.261 80.0229 277.082 80.0229 276.859C80.0229 276.267 80.3685 275.872 81.0598 275.674C80.7882 275.514 80.566 275.434 80.3932 275.434C79.7019 275.434 79.0661 275.89 78.4859 276.804C78.3625 277.001 78.2699 277.205 78.2082 277.415C78.1465 277.625 77.9366 278.446 77.5786 279.878C77.1589 281.606 76.9182 282.526 76.8564 282.637C76.696 282.971 76.4305 283.137 76.0602 283.137C75.8997 283.137 75.7701 283.1 75.6713 283.026C75.5726 282.952 75.5047 282.878 75.4677 282.804C75.4306 282.73 75.4183 282.668 75.4306 282.619C75.4306 282.458 75.6775 281.396 76.1713 279.434C76.6651 277.471 76.912 276.378 76.912 276.156C76.912 275.674 76.7515 275.434 76.4305 275.434C76.1713 275.434 75.9491 275.606 75.7639 275.952C75.5788 276.298 75.4306 276.674 75.3195 277.082C75.2084 277.489 75.1405 277.711 75.1158 277.748C75.0911 277.773 74.9924 277.785 74.8196 277.785H74.5603C74.4863 277.711 74.4492 277.656 74.4492 277.619Z" fill="#132AF4"/>
<path d="M81.6178 269.508C81.6178 269.409 81.6486 269.322 81.7104 269.248C81.7721 269.174 81.8647 269.137 81.9881 269.137C82.0745 269.137 82.1486 269.168 82.2103 269.23C82.272 269.279 82.3338 269.397 82.3955 269.582C82.5189 270.039 82.772 270.39 83.1547 270.637C83.2905 270.724 83.3584 270.835 83.3584 270.971C83.3584 271.082 83.3399 271.156 83.3028 271.193C83.2658 271.23 83.1794 271.285 83.0436 271.36C82.5128 271.631 82.0498 272.02 81.6548 272.526C81.6301 272.551 81.5993 272.588 81.5622 272.637C81.5252 272.687 81.4943 272.724 81.4696 272.748C81.4449 272.773 81.4141 272.785 81.3771 272.785C81.34 272.785 81.2968 272.792 81.2474 272.804C81.161 272.804 81.0808 272.773 81.0067 272.711C80.9326 272.65 80.8894 272.557 80.8771 272.434C80.8771 272.199 81.1672 271.835 81.7474 271.341H78.581L75.4146 271.322C75.2541 271.211 75.1738 271.094 75.1738 270.971C75.1738 270.884 75.2541 270.761 75.4146 270.6H82.0622C81.7659 270.131 81.6178 269.767 81.6178 269.508Z" fill="#132AF4"/>
<path d="M186.908 199.668C186.664 199.668 186.542 199.589 186.542 199.43C186.542 199.381 186.573 199.235 186.634 198.991C186.695 198.746 186.725 198.533 186.725 198.35C186.725 197.971 186.597 197.739 186.341 197.654C186.084 197.568 185.492 197.526 184.564 197.526H183.612C183.6 197.55 183.386 198.392 182.971 200.053C182.556 201.713 182.349 202.567 182.349 202.616C182.349 202.665 182.416 202.689 182.55 202.689C182.684 202.689 183.173 202.702 184.015 202.726C185.163 202.726 185.919 202.714 186.286 202.689C186.652 202.665 187.018 202.586 187.384 202.451C187.983 202.256 188.477 201.914 188.868 201.426C189.258 200.938 189.692 200.138 190.168 199.027C190.29 198.759 190.369 198.612 190.406 198.588C190.491 198.563 190.583 198.551 190.68 198.551C190.925 198.551 191.047 198.63 191.047 198.789C189.765 201.89 189.093 203.471 189.032 203.532C188.996 203.556 187.25 203.568 183.795 203.568H180.335C179.089 203.568 178.467 203.501 178.467 203.367C178.467 203.343 178.485 203.257 178.522 203.111C178.571 202.915 178.619 202.805 178.668 202.781C178.717 202.757 178.857 202.738 179.089 202.726C179.419 202.726 179.785 202.708 180.188 202.671C180.359 202.634 180.475 202.561 180.536 202.451C180.56 202.39 180.994 200.675 181.836 197.306C182.678 193.937 183.106 192.228 183.118 192.179C183.118 192.093 183.093 192.051 183.045 192.051C182.947 192.014 182.623 191.983 182.074 191.959H181.506C181.433 191.886 181.397 191.837 181.397 191.813C181.397 191.788 181.409 191.684 181.433 191.501C181.482 191.294 181.543 191.166 181.616 191.117H191.761C191.846 191.166 191.889 191.233 191.889 191.318C191.889 191.379 191.81 192.063 191.651 193.369C191.492 194.675 191.407 195.347 191.395 195.383C191.37 195.469 191.248 195.511 191.028 195.511H190.809C190.723 195.45 190.68 195.371 190.68 195.273L190.735 194.852C190.772 194.559 190.79 194.242 190.79 193.9C190.79 193.534 190.748 193.229 190.662 192.984C190.577 192.74 190.461 192.551 190.314 192.417C190.168 192.282 189.954 192.185 189.673 192.124C189.393 192.063 189.106 192.02 188.813 191.996C188.52 191.971 188.129 191.959 187.641 191.959H186.78C185.706 191.971 185.138 191.99 185.077 192.014C185.028 192.038 184.992 192.093 184.967 192.179C184.955 192.215 184.766 192.966 184.4 194.431C184.033 195.896 183.844 196.641 183.832 196.665C184.113 196.677 184.406 196.683 184.711 196.683H185.187C185.993 196.683 186.548 196.592 186.853 196.409C187.159 196.226 187.433 195.731 187.677 194.925C187.726 194.73 187.763 194.62 187.787 194.596C187.812 194.571 187.915 194.553 188.099 194.541C188.16 194.541 188.208 194.541 188.245 194.541C188.282 194.541 188.312 194.547 188.337 194.559C188.361 194.571 188.373 194.578 188.373 194.578C188.373 194.578 188.385 194.602 188.41 194.651C188.434 194.7 188.453 194.724 188.465 194.724L187.86 197.141C187.458 198.765 187.238 199.589 187.201 199.613C187.165 199.65 187.067 199.668 186.908 199.668Z" fill="#132AF4"/>
<path d="M188.866 185.934C188.866 185.837 188.897 185.751 188.958 185.678C189.019 185.605 189.111 185.568 189.233 185.568C189.318 185.568 189.391 185.599 189.452 185.66C189.513 185.709 189.575 185.825 189.636 186.008C189.758 186.459 190.008 186.807 190.386 187.051C190.521 187.137 190.588 187.247 190.588 187.381C190.588 187.491 190.569 187.564 190.533 187.601C190.496 187.637 190.411 187.692 190.276 187.766C189.752 188.034 189.294 188.419 188.903 188.919C188.879 188.944 188.848 188.98 188.812 189.029C188.775 189.078 188.744 189.114 188.72 189.139C188.696 189.163 188.665 189.176 188.628 189.176C188.592 189.176 188.549 189.182 188.5 189.194C188.415 189.194 188.335 189.163 188.262 189.102C188.189 189.041 188.146 188.95 188.134 188.828C188.134 188.596 188.421 188.236 188.995 187.747H185.863L182.732 187.729C182.573 187.619 182.494 187.503 182.494 187.381C182.494 187.296 182.573 187.174 182.732 187.015H189.306C189.013 186.551 188.866 186.191 188.866 185.934Z" fill="#132AF4"/>
<path d="M153.045 211.776C153.045 211.674 152.628 211.608 151.793 211.579C151.442 211.579 151.215 211.571 151.112 211.557C151.01 211.542 150.959 211.469 150.959 211.337C150.959 211.322 150.973 211.242 151.003 211.095C151.091 210.803 151.156 210.642 151.2 210.612C151.244 210.583 152.664 210.568 155.461 210.568C158.243 210.583 159.729 210.605 159.919 210.634C160.856 210.795 161.64 211.154 162.269 211.71C162.899 212.267 163.221 213.006 163.235 213.929C163.235 215.056 162.752 216.088 161.786 217.025C160.776 218.021 159.473 218.65 157.877 218.914C157.774 218.929 157.006 218.943 155.571 218.958H153.484L152.826 221.571C152.386 223.27 152.167 224.17 152.167 224.273C152.167 224.331 152.174 224.368 152.189 224.382C152.203 224.397 152.254 224.426 152.342 224.47C152.43 224.514 152.555 224.529 152.716 224.514C152.877 224.5 153.118 224.514 153.44 224.558H154.121C154.209 224.69 154.253 224.77 154.253 224.8C154.253 225.034 154.202 225.254 154.099 225.459C154.026 225.532 153.909 225.568 153.748 225.568C153.704 225.568 153.433 225.561 152.935 225.546C152.438 225.532 151.705 225.524 150.739 225.524C149.831 225.524 149.136 225.524 148.653 225.524C148.17 225.524 147.906 225.532 147.862 225.546C147.599 225.546 147.467 225.473 147.467 225.327C147.467 225.297 147.489 225.195 147.533 225.019C147.591 224.785 147.65 224.653 147.708 224.624C147.767 224.595 147.935 224.573 148.214 224.558C148.609 224.558 149.048 224.536 149.531 224.492C149.736 224.448 149.875 224.36 149.948 224.229C149.992 224.17 150.52 222.135 151.53 218.123C152.54 214.112 153.045 211.996 153.045 211.776ZM160.907 213.401C160.907 213.211 160.893 213.057 160.864 212.94C160.834 212.823 160.768 212.662 160.666 212.457C160.563 212.252 160.38 212.091 160.117 211.974C159.853 211.857 159.495 211.74 159.041 211.623C158.938 211.608 158.353 211.593 157.284 211.579C157.035 211.579 156.779 211.579 156.515 211.579C156.252 211.579 156.039 211.586 155.878 211.601C155.717 211.615 155.629 211.615 155.615 211.601C155.424 211.615 155.293 211.681 155.219 211.798C155.19 211.886 155.051 212.45 154.802 213.489C154.553 214.529 154.297 215.539 154.033 216.52C153.77 217.501 153.638 217.999 153.638 218.013C153.638 218.043 154.231 218.057 155.417 218.057H155.681H156.186C157.826 218.057 158.997 217.691 159.7 216.959C160.095 216.564 160.395 215.986 160.6 215.224C160.805 214.463 160.907 213.855 160.907 213.401Z" fill="#132AF4"/>
<circle cx="249.634" cy="131.998" r="25" transform="rotate(-38.6699 249.634 131.998)" fill="url(#paint3_radial_399_1006)"/>
<circle cx="358.159" cy="45.1458" r="25" transform="rotate(-38.6699 358.159 45.1458)" fill="url(#paint4_radial_399_1006)"/>
<path d="M319.019 76.8558L329.969 74.0799C330.118 74.042 330.193 74.023 330.209 73.9674C330.224 73.9117 330.17 73.8565 330.062 73.7462L326.791 70.4032L324.246 66.4785C324.162 66.349 324.12 66.2842 324.062 66.2873C324.005 66.2903 323.97 66.3592 323.9 66.4969L318.792 76.5715C318.706 76.7406 318.663 76.8251 318.703 76.8754C318.744 76.9257 318.836 76.9024 319.019 76.8558Z" fill="#0BB7EE"/>
<path d="M326.791 70.4032L324.246 66.4785C324.162 66.349 324.12 66.2842 324.062 66.2873C324.005 66.2903 323.97 66.3592 323.9 66.4969L318.792 76.5715C318.706 76.7406 318.663 76.8251 318.703 76.8754C318.744 76.9257 318.836 76.9024 319.019 76.8558L329.969 74.0799C330.118 74.042 330.193 74.023 330.209 73.9674C330.224 73.9117 330.17 73.8565 330.062 73.7462L326.791 70.4032ZM326.791 70.4032L359.192 44.4726" stroke="#0BB7EE" stroke-width="4" stroke-linecap="round" stroke-linejoin="round"/>
<path d="M289.807 99.6146L278.858 102.39C278.708 102.428 278.633 102.447 278.618 102.503C278.602 102.559 278.656 102.614 278.764 102.724L282.035 106.067L284.58 109.992C284.664 110.121 284.706 110.186 284.764 110.183C284.822 110.18 284.857 110.111 284.926 109.974L290.034 99.8989C290.12 99.7298 290.163 99.6453 290.123 99.595C290.083 99.5447 289.991 99.568 289.807 99.6146Z" fill="#0BB7EE"/>
<path d="M282.035 106.067L284.58 109.992C284.664 110.121 284.706 110.186 284.764 110.183C284.822 110.18 284.857 110.111 284.926 109.974L290.034 99.8989C290.12 99.7298 290.163 99.6453 290.123 99.595C290.083 99.5447 289.991 99.568 289.807 99.6146L278.858 102.39C278.708 102.428 278.633 102.447 278.618 102.503C278.602 102.559 278.656 102.614 278.764 102.724L282.035 106.067ZM282.035 106.067L249.634 131.998" stroke="#0BB7EE" stroke-width="4" stroke-linecap="round" stroke-linejoin="round"/>
<path d="M249.635 131.998L358.16 45.1461" stroke="#0BB7EE" stroke-width="4" stroke-dasharray="8 8"/>
<path d="M276.33 134.411C276.33 132.928 276.888 131.52 278.003 130.184C279.118 128.849 280.373 128.174 281.767 128.159C282.648 128.159 283.323 128.541 283.792 129.304C283.807 129.289 283.844 129.245 283.902 129.172C283.961 129.098 284.042 129.018 284.145 128.929C284.247 128.841 284.365 128.753 284.497 128.665C284.996 128.313 285.333 128.137 285.509 128.137C285.568 128.137 285.619 128.159 285.663 128.203C285.707 128.247 285.729 128.284 285.729 128.313C285.729 128.445 285.223 130.536 284.211 134.587C283.169 138.754 282.648 140.868 282.648 140.926C282.648 141.044 282.978 141.11 283.638 141.124H284.189C284.277 141.242 284.321 141.308 284.321 141.322C284.321 141.337 284.299 141.469 284.255 141.719C284.196 141.91 284.123 142.049 284.034 142.137H283.748C283.293 142.108 282.501 142.093 281.371 142.093C280.96 142.093 280.586 142.093 280.248 142.093C279.911 142.093 279.639 142.093 279.434 142.093C279.228 142.093 279.104 142.1 279.06 142.115C278.854 142.115 278.751 142.056 278.751 141.939C278.751 141.895 278.766 141.785 278.795 141.609C278.854 141.374 278.906 141.234 278.95 141.19C278.994 141.146 279.14 141.124 279.39 141.124C280.094 141.124 280.52 141.073 280.667 140.97C280.784 140.897 280.989 140.251 281.283 139.033C281.576 137.815 281.73 137.191 281.745 137.162C281.745 137.147 281.694 137.169 281.591 137.228C280.887 137.8 280.153 138.087 279.39 138.087C278.583 138.087 277.871 137.793 277.255 137.206C276.638 136.619 276.33 135.687 276.33 134.411ZM283.352 130.69C283.015 129.531 282.464 128.951 281.701 128.951C281.188 128.951 280.696 129.179 280.226 129.634C279.757 130.089 279.39 130.683 279.126 131.417C278.7 132.576 278.399 133.78 278.223 135.027C278.223 135.071 278.223 135.152 278.223 135.269C278.223 135.386 278.216 135.475 278.201 135.533C278.201 136.194 278.333 136.649 278.597 136.898C278.862 137.147 279.177 137.28 279.544 137.294C280.336 137.294 281.151 136.766 281.987 135.709L282.163 135.467L283.352 130.69Z" fill="#132AF4"/>
<path d="M371.438 72.4101C371.438 70.9279 371.995 69.5191 373.111 68.1836C374.226 66.8482 375.481 66.1732 376.875 66.1585C377.755 66.1585 378.431 66.54 378.9 67.3031C378.915 67.2885 378.952 67.2444 379.01 67.1711C379.069 67.0977 379.15 67.017 379.252 66.9289C379.355 66.8409 379.473 66.7528 379.605 66.6648C380.104 66.3126 380.441 66.1365 380.617 66.1365C380.676 66.1365 380.727 66.1585 380.771 66.2025C380.815 66.2465 380.837 66.2832 380.837 66.3126C380.837 66.4447 380.331 68.5358 379.318 72.5862C378.276 76.7539 377.755 78.8671 377.755 78.9258C377.755 79.0432 378.086 79.1092 378.746 79.1239H379.296C379.384 79.2413 379.428 79.3073 379.428 79.322C379.428 79.3367 379.406 79.4688 379.362 79.7182C379.304 79.909 379.23 80.0484 379.142 80.1365H378.856C378.401 80.1071 377.609 80.0924 376.479 80.0924C376.068 80.0924 375.693 80.0924 375.356 80.0924C375.018 80.0924 374.747 80.0924 374.541 80.0924C374.336 80.0924 374.211 80.0998 374.167 80.1145C373.962 80.1145 373.859 80.0558 373.859 79.9384C373.859 79.8943 373.874 79.7843 373.903 79.6082C373.962 79.3734 374.013 79.234 374.057 79.1899C374.101 79.1459 374.248 79.1239 374.497 79.1239C375.202 79.1239 375.627 79.0725 375.774 78.9698C375.892 78.8964 376.097 78.2507 376.391 77.0327C376.684 75.8147 376.838 75.191 376.853 75.1616C376.853 75.147 376.802 75.169 376.699 75.2277C375.994 75.8 375.261 76.0862 374.497 76.0862C373.69 76.0862 372.978 75.7927 372.362 75.2057C371.746 74.6187 371.438 73.6868 371.438 72.4101ZM378.46 68.6899C378.122 67.5306 377.572 66.9509 376.809 66.9509C376.295 66.9509 375.804 67.1784 375.334 67.6333C374.864 68.0883 374.497 68.6826 374.233 69.4163C373.808 70.5757 373.507 71.779 373.331 73.0264C373.331 73.0704 373.331 73.1511 373.331 73.2686C373.331 73.386 373.323 73.474 373.309 73.5327C373.309 74.1931 373.441 74.648 373.705 74.8975C373.969 75.147 374.285 75.279 374.652 75.2937C375.444 75.2937 376.259 74.7654 377.095 73.7088L377.271 73.4667L378.46 68.6899Z" fill="#132AF4"/>
<path d="M382.748 70.0636C383.33 69.2232 384.123 68.803 385.13 68.803C385.628 68.803 386.126 68.9379 386.624 69.2076C387.122 69.4774 387.527 69.9546 387.838 70.6394C388.222 71.5006 388.414 72.6833 388.414 74.1877C388.414 75.7959 388.191 77.0254 387.744 77.8762C387.537 78.3119 387.252 78.6595 386.888 78.9189C386.525 79.1782 386.209 79.3391 385.939 79.4013C385.669 79.4636 385.405 79.4999 385.145 79.5103C384.875 79.5103 384.606 79.4791 384.336 79.4169C384.066 79.3546 383.75 79.1886 383.387 78.9189C383.023 78.6491 382.738 78.3015 382.531 77.8762C382.084 77.0254 381.861 75.7959 381.861 74.1877C381.861 72.3824 382.157 71.0077 382.748 70.0636ZM386.25 69.8768C385.939 69.5448 385.571 69.3788 385.145 69.3788C384.709 69.3788 384.336 69.5448 384.025 69.8768C383.765 70.1466 383.594 70.5201 383.511 70.9974C383.428 71.4746 383.387 72.4706 383.387 73.9854C383.387 75.6247 383.428 76.7037 383.511 77.2225C383.594 77.7413 383.781 78.1511 384.071 78.452C384.362 78.7632 384.72 78.9189 385.145 78.9189C385.56 78.9189 385.913 78.7632 386.204 78.452C386.504 78.1407 386.691 77.705 386.764 77.1447C386.837 76.5844 386.878 75.5313 386.888 73.9854C386.888 72.481 386.847 71.4902 386.764 71.0129C386.681 70.5357 386.51 70.157 386.25 69.8768Z" fill="#132AF4"/>
<path d="M329.78 89.5505C329.573 89.5505 329.469 89.4895 329.469 89.3674C329.469 89.343 329.487 89.2576 329.524 89.1111C329.573 88.9157 329.621 88.8059 329.67 88.7815C329.719 88.757 329.859 88.7387 330.091 88.7265C330.421 88.7265 330.787 88.7082 331.19 88.6716C331.361 88.635 331.477 88.5617 331.538 88.4519C331.562 88.3908 331.996 86.6757 332.838 83.3064C333.68 79.9371 334.108 78.2281 334.12 78.1792C334.12 78.0938 334.095 78.051 334.047 78.051C333.949 78.0144 333.625 77.9839 333.076 77.9595H332.508C332.435 77.8862 332.399 77.8374 332.399 77.813C332.399 77.7886 332.411 77.6848 332.435 77.5017C332.484 77.2942 332.545 77.166 332.618 77.1172H342.488C342.574 77.166 342.616 77.2331 342.616 77.3186C342.616 77.3796 342.537 78.0633 342.378 79.3695C342.22 80.6757 342.134 81.3471 342.122 81.3837C342.097 81.4692 341.975 81.5119 341.756 81.5119H341.536C341.45 81.4508 341.408 81.3715 341.408 81.2738C341.408 81.2616 341.426 81.1151 341.463 80.8344C341.499 80.5536 341.518 80.2301 341.518 79.8639C341.518 79.4976 341.475 79.1986 341.389 78.9666C341.304 78.7347 341.188 78.5454 341.041 78.399C340.895 78.2525 340.669 78.1548 340.364 78.106C340.059 78.0571 339.747 78.0144 339.43 77.9778C339.113 77.9412 338.673 77.9351 338.112 77.9595H337.691C336.69 77.9717 336.158 77.99 336.097 78.0144C336.036 78.0388 335.994 78.0877 335.969 78.1609C335.957 78.1731 335.75 78.9727 335.347 80.5597L334.761 82.9218H335.768C335.804 82.9218 335.945 82.9218 336.189 82.9218C336.433 82.9218 336.604 82.9157 336.702 82.9035C336.799 82.8913 336.934 82.873 337.105 82.8486C337.275 82.8242 337.422 82.7815 337.544 82.7204C337.666 82.6594 337.77 82.5861 337.855 82.5007C338.014 82.3542 338.148 82.1528 338.258 81.8964C338.368 81.6401 338.447 81.4081 338.496 81.2006C338.545 80.9931 338.576 80.8832 338.588 80.871C338.624 80.8099 338.74 80.7794 338.936 80.7794H339.155C339.241 80.8405 339.284 80.9015 339.284 80.9625C339.284 80.9992 339.094 81.7988 338.716 83.3613C338.338 84.9239 338.13 85.7296 338.093 85.7784C338.069 85.8639 337.947 85.9066 337.727 85.9066H337.507C337.422 85.8333 337.379 85.7601 337.379 85.6869C337.379 85.6502 337.41 85.5159 337.471 85.284C337.532 85.0521 337.562 84.8079 337.562 84.5516C337.562 84.1975 337.44 83.9778 337.196 83.8923C336.952 83.8069 336.409 83.7642 335.566 83.7642H334.559L333.973 86.0897C333.583 87.6034 333.387 88.3969 333.387 88.4702C333.387 88.6411 333.931 88.7265 335.017 88.7265H335.475C335.548 88.7998 335.585 88.8425 335.585 88.8547C335.585 88.8669 335.573 88.989 335.548 89.2209C335.499 89.3796 335.438 89.4956 335.365 89.5688H335.054C334.553 89.5444 333.632 89.5322 332.289 89.5322C331.495 89.5322 330.891 89.5322 330.476 89.5322C330.061 89.5322 329.829 89.5383 329.78 89.5505Z" fill="#132AF4"/>
<path d="M340.095 71.9349C340.095 71.8373 340.126 71.7518 340.187 71.6786C340.248 71.6053 340.339 71.5687 340.461 71.5687C340.547 71.5687 340.62 71.5992 340.681 71.6603C340.742 71.7091 340.803 71.8251 340.864 72.0082C340.986 72.4598 341.236 72.8078 341.615 73.0519C341.749 73.1374 341.816 73.2472 341.816 73.3815C341.816 73.4914 341.798 73.5646 341.761 73.6013C341.725 73.6379 341.639 73.6928 341.505 73.7661C340.98 74.0346 340.522 74.4192 340.132 74.9197C340.107 74.9441 340.077 74.9807 340.04 75.0295C340.003 75.0784 339.973 75.115 339.948 75.1394C339.924 75.1638 339.894 75.176 339.857 75.176C339.82 75.176 339.778 75.1821 339.729 75.1943C339.643 75.1943 339.564 75.1638 339.491 75.1028C339.417 75.0417 339.375 74.9502 339.363 74.8281C339.363 74.5962 339.649 74.236 340.223 73.7477H337.092L333.961 73.7294C333.802 73.6196 333.723 73.5036 333.723 73.3815C333.723 73.2961 333.802 73.174 333.961 73.0153H340.534C340.241 72.5514 340.095 72.1913 340.095 71.9349Z" fill="#132AF4"/>
<rect x="214.998" y="1.00012" width="198" height="164" rx="19" stroke="#132AF4" stroke-width="2" stroke-linecap="round" stroke-dasharray="7 7"/>
<path d="M289.469 114.05C289.481 114.013 289.493 113.964 289.506 113.902C289.518 113.84 289.549 113.705 289.598 113.495C289.648 113.285 289.709 113.094 289.784 112.921C289.858 112.748 289.95 112.544 290.061 112.31C290.172 112.075 290.296 111.89 290.432 111.754C290.567 111.618 290.728 111.482 290.913 111.347C291.098 111.211 291.302 111.155 291.524 111.18C291.882 111.18 292.197 111.254 292.469 111.402C292.74 111.55 292.931 111.686 293.043 111.81C293.154 111.933 293.222 112.057 293.246 112.18C293.271 112.254 293.289 112.291 293.302 112.291C293.314 112.291 293.364 112.248 293.45 112.161C294.042 111.52 294.728 111.199 295.505 111.199H295.561C296.153 111.199 296.598 111.452 296.894 111.958C296.993 112.192 297.042 112.421 297.042 112.643C297.042 113.013 296.962 113.31 296.802 113.532C296.641 113.754 296.481 113.896 296.32 113.958C296.16 114.019 296.005 114.044 295.857 114.032C295.61 114.032 295.413 113.964 295.265 113.828C295.116 113.692 295.042 113.513 295.042 113.291C295.042 112.699 295.388 112.303 296.079 112.106C295.808 111.945 295.586 111.865 295.413 111.865C294.721 111.865 294.086 112.322 293.505 113.236C293.382 113.433 293.289 113.637 293.228 113.847C293.166 114.057 292.956 114.878 292.598 116.31C292.178 118.038 291.938 118.958 291.876 119.069C291.715 119.402 291.45 119.569 291.08 119.569C290.919 119.569 290.79 119.532 290.691 119.458C290.592 119.384 290.524 119.31 290.487 119.236C290.45 119.161 290.438 119.1 290.45 119.05C290.45 118.89 290.697 117.828 291.191 115.865C291.685 113.902 291.932 112.81 291.932 112.587C291.932 112.106 291.771 111.865 291.45 111.865C291.191 111.865 290.969 112.038 290.783 112.384C290.598 112.729 290.45 113.106 290.339 113.513C290.228 113.921 290.16 114.143 290.135 114.18C290.111 114.205 290.012 114.217 289.839 114.217H289.58C289.506 114.143 289.469 114.087 289.469 114.05Z" fill="#132AF4"/>
<path d="M296.637 105.939C296.637 105.841 296.668 105.754 296.73 105.68C296.792 105.606 296.884 105.569 297.008 105.569C297.094 105.569 297.168 105.6 297.23 105.662C297.292 105.711 297.353 105.828 297.415 106.013C297.538 106.47 297.792 106.822 298.174 107.069C298.31 107.155 298.378 107.266 298.378 107.402C298.378 107.513 298.359 107.587 298.322 107.624C298.285 107.662 298.199 107.717 298.063 107.791C297.532 108.063 297.069 108.452 296.674 108.958C296.65 108.983 296.619 109.02 296.582 109.069C296.545 109.118 296.514 109.155 296.489 109.18C296.464 109.205 296.434 109.217 296.397 109.217C296.36 109.217 296.316 109.223 296.267 109.236C296.181 109.236 296.1 109.205 296.026 109.143C295.952 109.081 295.909 108.989 295.897 108.865C295.897 108.631 296.187 108.266 296.767 107.773H293.601L290.434 107.754C290.274 107.643 290.193 107.526 290.193 107.402C290.193 107.316 290.274 107.192 290.434 107.032H297.082C296.785 106.563 296.637 106.199 296.637 105.939Z" fill="#132AF4"/>
<circle cx="249.634" cy="295.998" r="25" transform="rotate(-38.6699 249.634 295.998)" fill="url(#paint5_radial_399_1006)"/>
<circle cx="357.598" cy="209.698" r="6.495" transform="rotate(-38.6699 357.598 209.698)" fill="#0BB7EE"/>
<path d="M319.019 240.856L329.969 238.08C330.118 238.042 330.193 238.023 330.209 237.967C330.224 237.912 330.17 237.857 330.062 237.746L326.791 234.403L324.246 230.479C324.162 230.349 324.12 230.284 324.062 230.287C324.005 230.29 323.97 230.359 323.9 230.497L318.792 240.572C318.706 240.741 318.663 240.825 318.703 240.876C318.744 240.926 318.836 240.903 319.019 240.856Z" fill="#0BB7EE"/>
<path d="M326.791 234.403L324.246 230.479C324.162 230.349 324.12 230.284 324.062 230.287C324.005 230.29 323.97 230.359 323.9 230.497L318.792 240.572C318.706 240.741 318.663 240.825 318.703 240.876C318.744 240.926 318.836 240.903 319.019 240.856L329.969 238.08C330.118 238.042 330.193 238.023 330.209 237.967C330.224 237.912 330.17 237.857 330.062 237.746L326.791 234.403ZM326.791 234.403L359.192 208.473" stroke="#0BB7EE" stroke-width="4" stroke-linecap="round" stroke-linejoin="round"/>
<path d="M289.807 263.615L278.858 266.391C278.708 266.429 278.633 266.448 278.618 266.503C278.602 266.559 278.656 266.614 278.764 266.724L282.035 270.067L284.58 273.992C284.664 274.122 284.706 274.186 284.764 274.183C284.822 274.18 284.857 274.111 284.926 273.974L290.034 263.899C290.12 263.73 290.163 263.646 290.123 263.595C290.083 263.545 289.991 263.568 289.807 263.615Z" fill="#0BB7EE"/>
<path d="M282.035 270.067L284.58 273.992C284.664 274.122 284.706 274.186 284.764 274.183C284.822 274.18 284.857 274.111 284.926 273.974L290.034 263.899C290.12 263.73 290.163 263.646 290.123 263.595C290.083 263.545 289.991 263.568 289.807 263.615L278.858 266.391C278.708 266.429 278.633 266.448 278.618 266.503C278.602 266.559 278.656 266.614 278.764 266.724L282.035 270.067ZM282.035 270.067L249.634 295.998" stroke="#0BB7EE" stroke-width="4" stroke-linecap="round" stroke-linejoin="round"/>
<path d="M249.635 295.998L358.16 209.146" stroke="#0BB7EE" stroke-width="4" stroke-dasharray="8 8"/>
<path d="M276.33 298.411C276.33 296.928 276.888 295.52 278.003 294.184C279.118 292.849 280.373 292.174 281.767 292.159C282.648 292.159 283.323 292.541 283.792 293.304C283.807 293.289 283.844 293.245 283.902 293.172C283.961 293.098 284.042 293.018 284.145 292.929C284.247 292.841 284.365 292.753 284.497 292.665C284.996 292.313 285.333 292.137 285.509 292.137C285.568 292.137 285.619 292.159 285.663 292.203C285.707 292.247 285.729 292.284 285.729 292.313C285.729 292.445 285.223 294.536 284.211 298.587C283.169 302.754 282.648 304.868 282.648 304.926C282.648 305.044 282.978 305.11 283.638 305.124H284.189C284.277 305.242 284.321 305.308 284.321 305.322C284.321 305.337 284.299 305.469 284.255 305.719C284.196 305.91 284.123 306.049 284.034 306.137H283.748C283.293 306.108 282.501 306.093 281.371 306.093C280.96 306.093 280.586 306.093 280.248 306.093C279.911 306.093 279.639 306.093 279.434 306.093C279.228 306.093 279.104 306.1 279.06 306.115C278.854 306.115 278.751 306.056 278.751 305.939C278.751 305.895 278.766 305.785 278.795 305.609C278.854 305.374 278.906 305.234 278.95 305.19C278.994 305.146 279.14 305.124 279.39 305.124C280.094 305.124 280.52 305.073 280.667 304.97C280.784 304.897 280.989 304.251 281.283 303.033C281.576 301.815 281.73 301.191 281.745 301.162C281.745 301.147 281.694 301.169 281.591 301.228C280.887 301.8 280.153 302.087 279.39 302.087C278.583 302.087 277.871 301.793 277.255 301.206C276.638 300.619 276.33 299.687 276.33 298.411ZM283.352 294.69C283.015 293.531 282.464 292.951 281.701 292.951C281.188 292.951 280.696 293.179 280.226 293.634C279.757 294.089 279.39 294.683 279.126 295.417C278.7 296.576 278.399 297.78 278.223 299.027C278.223 299.071 278.223 299.152 278.223 299.269C278.223 299.386 278.216 299.475 278.201 299.533C278.201 300.194 278.333 300.649 278.597 300.898C278.862 301.147 279.177 301.28 279.544 301.294C280.336 301.294 281.151 300.766 281.987 299.709L282.163 299.467L283.352 294.69Z" fill="#132AF4"/>
<path d="M230.293 329.638C229.759 329.533 229.241 329.873 229.123 330.401C227.201 329.919 225.39 329.159 223.734 328.167C224.024 327.71 223.898 327.103 223.446 326.8C221.374 325.413 219.589 323.628 218.202 321.556C217.899 321.104 217.292 320.978 216.835 321.268C215.843 319.612 215.083 317.801 214.601 315.879C215.129 315.761 215.469 315.243 215.364 314.709C215.126 313.51 215.002 312.27 215.002 311L215.002 307.472C215.002 306.92 214.554 306.472 214.002 306.472L214.002 301.417C214.554 301.417 215.002 300.969 215.002 300.417L215.002 293.361C215.002 292.809 214.554 292.361 214.002 292.361L214.002 287.306C214.554 287.306 215.002 286.858 215.002 286.306L215.002 279.25C215.002 278.698 214.554 278.25 214.002 278.25L214.002 273.194C214.554 273.194 215.002 272.747 215.002 272.194L215.002 265.139C215.002 264.587 214.554 264.139 214.002 264.139L214.002 259.083C214.554 259.083 215.002 258.636 215.002 258.083L215.002 251.028C215.002 250.475 214.554 250.028 214.002 250.028L214.002 244.972C214.554 244.972 215.002 244.524 215.002 243.972L215.002 236.917C215.002 236.364 214.554 235.917 214.002 235.917L214.002 230.861C214.554 230.861 215.002 230.413 215.002 229.861L215.002 222.806C215.002 222.253 214.554 221.806 214.002 221.806L214.002 216.75C214.554 216.75 215.002 216.302 215.002 215.75L215.002 208.694C215.002 208.142 214.554 207.694 214.002 207.694L214.002 202.639C214.554 202.639 215.002 202.191 215.002 201.639L215.002 194.583C215.002 194.031 214.554 193.583 214.002 193.583L214.002 188.528C214.554 188.528 215.002 188.08 215.002 187.528L215.002 184C215.002 182.73 215.126 181.49 215.364 180.291C215.469 179.757 215.129 179.239 214.601 179.121C215.083 177.199 215.843 175.388 216.835 173.732C217.292 174.022 217.899 173.896 218.202 173.444C219.589 171.372 221.374 169.587 223.446 168.2C223.898 167.897 224.024 167.29 223.734 166.833C225.39 165.841 227.201 165.081 229.123 164.599C229.241 165.127 229.759 165.467 230.293 165.362C231.492 165.125 232.732 165 234.002 165L237.638 165C238.191 165 238.638 164.552 238.638 164L243.911 164C243.911 164.552 244.359 165 244.911 165L252.184 165C252.736 165 253.184 164.552 253.184 164L258.456 164C258.456 164.552 258.904 165 259.456 165L266.729 165C267.281 165 267.729 164.552 267.729 164L273.002 164C273.002 164.552 273.45 165 274.002 165L281.275 165C281.827 165 282.275 164.552 282.275 164L287.547 164C287.547 164.552 287.995 165 288.547 165L295.82 165C296.372 165 296.82 164.552 296.82 164L302.093 164C302.093 164.552 302.541 165 303.093 165L310.366 165C310.918 165 311.366 164.552 311.366 164L316.638 164C316.638 164.552 317.086 165 317.638 165L324.911 165C325.463 165 325.911 164.552 325.911 164L331.184 164C331.184 164.552 331.631 165 332.184 165L339.456 165C340.009 165 340.456 164.552 340.456 164L345.729 164C345.729 164.552 346.177 165 346.729 165L354.002 165C354.554 165 355.002 164.552 355.002 164L360.275 164C360.275 164.552 360.722 165 361.275 165L368.547 165C369.1 165 369.547 164.552 369.547 164L374.82 164C374.82 164.552 375.268 165 375.82 165L383.093 165C383.645 165 384.093 164.552 384.093 164L389.366 164C389.366 164.552 389.813 165 390.366 165L394.002 165C395.272 165 396.512 165.124 397.711 165.362C398.245 165.467 398.763 165.127 398.881 164.599C400.803 165.081 402.614 165.841 404.27 166.833C403.98 167.29 404.106 167.897 404.558 168.2C406.63 169.587 408.415 171.372 409.802 173.444C410.105 173.896 410.712 174.022 411.169 173.732C412.161 175.388 412.921 177.199 413.403 179.121C412.875 179.239 412.535 179.757 412.64 180.291C412.877 181.49 413.002 182.73 413.002 184L413.002 187.528C413.002 188.08 413.45 188.528 414.002 188.528L414.002 193.583C413.45 193.583 413.002 194.031 413.002 194.583L413.002 201.639C413.002 202.191 413.45 202.639 414.002 202.639L414.002 207.694C413.45 207.694 413.002 208.142 413.002 208.694L413.002 215.75C413.002 216.302 413.45 216.75 414.002 216.75L414.002 221.806C413.45 221.806 413.002 222.253 413.002 222.806L413.002 229.861C413.002 230.413 413.45 230.861 414.002 230.861L414.002 235.917C413.45 235.917 413.002 236.364 413.002 236.917L413.002 243.972C413.002 244.524 413.45 244.972 414.002 244.972L414.002 250.028C413.45 250.028 413.002 250.475 413.002 251.028L413.002 258.083C413.002 258.636 413.45 259.083 414.002 259.083L414.002 264.139C413.45 264.139 413.002 264.587 413.002 265.139L413.002 272.194C413.002 272.747 413.45 273.194 414.002 273.194L414.002 278.25C413.45 278.25 413.002 278.698 413.002 279.25L413.002 286.306C413.002 286.858 413.45 287.306 414.002 287.306L414.002 292.361C413.45 292.361 413.002 292.809 413.002 293.361L413.002 300.417C413.002 300.969 413.45 301.417 414.002 301.417L414.002 306.472C413.45 306.472 413.002 306.92 413.002 307.472L413.002 311C413.002 312.27 412.877 313.51 412.64 314.709C412.535 315.243 412.875 315.761 413.403 315.879C412.921 317.801 412.161 319.612 411.169 321.268C410.712 320.978 410.105 321.104 409.802 321.556C408.415 323.628 406.63 325.413 404.558 326.8C404.106 327.103 403.98 327.71 404.27 328.167C402.614 329.159 400.803 329.919 398.881 330.401C398.763 329.873 398.245 329.533 397.711 329.638C396.512 329.875 395.272 330 394.002 330L390.366 330C389.813 330 389.366 330.448 389.366 331L384.093 331C384.093 330.448 383.645 330 383.093 330L375.82 330C375.268 330 374.82 330.448 374.82 331L369.547 331C369.547 330.448 369.1 330 368.547 330L361.275 330C360.722 330 360.275 330.448 360.275 331L355.002 331C355.002 330.448 354.554 330 354.002 330L346.729 330C346.177 330 345.729 330.448 345.729 331L340.456 331C340.456 330.448 340.009 330 339.456 330L332.184 330C331.631 330 331.184 330.448 331.184 331L325.911 331C325.911 330.448 325.463 330 324.911 330L317.638 330C317.086 330 316.638 330.448 316.638 331L311.366 331C311.366 330.448 310.918 330 310.366 330L303.093 330C302.541 330 302.093 330.448 302.093 331L296.82 331C296.82 330.448 296.372 330 295.82 330L288.547 330C287.995 330 287.547 330.448 287.547 331L282.275 331C282.275 330.448 281.827 330 281.275 330L274.002 330C273.45 330 273.002 330.448 273.002 331L267.729 331C267.729 330.448 267.281 330 266.729 330L259.456 330C258.904 330 258.456 330.448 258.456 331L253.184 331C253.184 330.448 252.736 330 252.184 330L244.911 330C244.359 330 243.911 330.448 243.911 331L238.638 331C238.638 330.448 238.191 330 237.638 330L234.002 330C232.732 330 231.492 329.875 230.293 329.638Z" stroke="#132AF4" stroke-width="2" stroke-linecap="round" stroke-dasharray="7 7"/>
<path d="M289.469 278.05C289.481 278.013 289.493 277.964 289.506 277.902C289.518 277.84 289.549 277.705 289.598 277.495C289.648 277.285 289.709 277.094 289.784 276.921C289.858 276.748 289.95 276.544 290.061 276.31C290.172 276.075 290.296 275.89 290.432 275.754C290.567 275.618 290.728 275.482 290.913 275.347C291.098 275.211 291.302 275.155 291.524 275.18C291.882 275.18 292.197 275.254 292.469 275.402C292.74 275.55 292.931 275.686 293.043 275.81C293.154 275.933 293.222 276.057 293.246 276.18C293.271 276.254 293.289 276.291 293.302 276.291C293.314 276.291 293.364 276.248 293.45 276.161C294.042 275.52 294.728 275.199 295.505 275.199H295.561C296.153 275.199 296.598 275.452 296.894 275.958C296.993 276.192 297.042 276.421 297.042 276.643C297.042 277.013 296.962 277.31 296.802 277.532C296.641 277.754 296.481 277.896 296.32 277.958C296.16 278.019 296.005 278.044 295.857 278.032C295.61 278.032 295.413 277.964 295.265 277.828C295.116 277.692 295.042 277.513 295.042 277.291C295.042 276.699 295.388 276.303 296.079 276.106C295.808 275.945 295.586 275.865 295.413 275.865C294.721 275.865 294.086 276.322 293.505 277.236C293.382 277.433 293.289 277.637 293.228 277.847C293.166 278.057 292.956 278.878 292.598 280.31C292.178 282.038 291.938 282.958 291.876 283.069C291.715 283.402 291.45 283.569 291.08 283.569C290.919 283.569 290.79 283.532 290.691 283.458C290.592 283.384 290.524 283.31 290.487 283.236C290.45 283.161 290.438 283.1 290.45 283.05C290.45 282.89 290.697 281.828 291.191 279.865C291.685 277.902 291.932 276.81 291.932 276.587C291.932 276.106 291.771 275.865 291.45 275.865C291.191 275.865 290.969 276.038 290.783 276.384C290.598 276.729 290.45 277.106 290.339 277.513C290.228 277.921 290.16 278.143 290.135 278.18C290.111 278.205 290.012 278.217 289.839 278.217H289.58C289.506 278.143 289.469 278.087 289.469 278.05Z" fill="#132AF4"/>
<path d="M296.637 269.939C296.637 269.841 296.668 269.754 296.73 269.68C296.792 269.606 296.884 269.569 297.008 269.569C297.094 269.569 297.168 269.6 297.23 269.662C297.292 269.711 297.353 269.828 297.415 270.013C297.538 270.47 297.792 270.822 298.174 271.069C298.31 271.155 298.378 271.266 298.378 271.402C298.378 271.513 298.359 271.587 298.322 271.624C298.285 271.662 298.199 271.717 298.063 271.791C297.532 272.063 297.069 272.452 296.674 272.958C296.65 272.983 296.619 273.02 296.582 273.069C296.545 273.118 296.514 273.155 296.489 273.18C296.464 273.205 296.434 273.217 296.397 273.217C296.36 273.217 296.316 273.223 296.267 273.236C296.181 273.236 296.1 273.205 296.026 273.143C295.952 273.081 295.909 272.989 295.897 272.865C295.897 272.631 296.187 272.266 296.767 271.773H293.601L290.434 271.754C290.274 271.643 290.193 271.526 290.193 271.402C290.193 271.316 290.274 271.192 290.434 271.032H297.082C296.785 270.563 296.637 270.199 296.637 269.939Z" fill="#132AF4"/>
<path d="M337.91 249.669C337.666 249.669 337.544 249.589 337.544 249.43C337.544 249.382 337.575 249.235 337.636 248.991C337.697 248.747 337.727 248.533 337.727 248.35C337.727 247.972 337.599 247.74 337.343 247.654C337.086 247.569 336.494 247.526 335.566 247.526H334.614C334.602 247.551 334.388 248.393 333.973 250.053C333.558 251.713 333.351 252.568 333.351 252.617C333.351 252.665 333.418 252.69 333.552 252.69C333.686 252.69 334.175 252.702 335.017 252.727C336.165 252.727 336.921 252.714 337.288 252.69C337.654 252.665 338.02 252.586 338.386 252.452C338.985 252.257 339.479 251.915 339.87 251.426C340.26 250.938 340.694 250.139 341.17 249.028C341.292 248.759 341.371 248.613 341.408 248.588C341.493 248.564 341.585 248.552 341.682 248.552C341.927 248.552 342.049 248.631 342.049 248.79C340.767 251.89 340.095 253.471 340.034 253.532C339.998 253.557 338.252 253.569 334.797 253.569H331.337C330.091 253.569 329.469 253.502 329.469 253.367C329.469 253.343 329.487 253.258 329.524 253.111C329.573 252.916 329.621 252.806 329.67 252.781C329.719 252.757 329.859 252.739 330.091 252.727C330.421 252.727 330.787 252.708 331.19 252.672C331.361 252.635 331.477 252.562 331.538 252.452C331.562 252.391 331.996 250.676 332.838 247.306C333.68 243.937 334.108 242.228 334.12 242.179C334.12 242.094 334.095 242.051 334.047 242.051C333.949 242.014 333.625 241.984 333.076 241.959H332.508C332.435 241.886 332.399 241.837 332.399 241.813C332.399 241.789 332.411 241.685 332.435 241.502C332.484 241.294 332.545 241.166 332.618 241.117H342.763C342.848 241.166 342.891 241.233 342.891 241.319C342.891 241.38 342.812 242.063 342.653 243.369C342.494 244.676 342.409 245.347 342.397 245.384C342.372 245.469 342.25 245.512 342.03 245.512H341.811C341.725 245.451 341.682 245.371 341.682 245.274L341.737 244.853C341.774 244.56 341.792 244.242 341.792 243.9C341.792 243.534 341.75 243.229 341.664 242.985C341.579 242.741 341.463 242.552 341.316 242.417C341.17 242.283 340.956 242.185 340.675 242.124C340.394 242.063 340.108 242.021 339.815 241.996C339.522 241.972 339.131 241.959 338.643 241.959H337.782C336.708 241.972 336.14 241.99 336.079 242.014C336.03 242.039 335.994 242.094 335.969 242.179C335.957 242.216 335.768 242.967 335.402 244.432C335.035 245.896 334.846 246.641 334.834 246.665C335.115 246.678 335.408 246.684 335.713 246.684H336.189C336.995 246.684 337.55 246.592 337.855 246.409C338.161 246.226 338.435 245.732 338.679 244.926C338.728 244.731 338.765 244.621 338.789 244.596C338.814 244.572 338.917 244.554 339.1 244.541C339.162 244.541 339.21 244.541 339.247 244.541C339.284 244.541 339.314 244.547 339.339 244.56C339.363 244.572 339.375 244.578 339.375 244.578C339.375 244.578 339.387 244.602 339.412 244.651C339.436 244.7 339.455 244.724 339.467 244.724L338.862 247.142C338.46 248.765 338.24 249.589 338.203 249.614C338.167 249.65 338.069 249.669 337.91 249.669Z" fill="#132AF4"/>
<path d="M339.868 235.935C339.868 235.837 339.899 235.752 339.96 235.679C340.021 235.605 340.113 235.569 340.235 235.569C340.32 235.569 340.393 235.599 340.454 235.66C340.515 235.709 340.576 235.825 340.637 236.008C340.76 236.46 341.01 236.808 341.388 237.052C341.523 237.137 341.59 237.247 341.59 237.382C341.59 237.491 341.571 237.565 341.535 237.601C341.498 237.638 341.413 237.693 341.278 237.766C340.753 238.035 340.296 238.419 339.905 238.92C339.881 238.944 339.85 238.981 339.813 239.03C339.777 239.078 339.746 239.115 339.722 239.139C339.698 239.164 339.667 239.176 339.63 239.176C339.594 239.176 339.551 239.182 339.502 239.194C339.417 239.194 339.337 239.164 339.264 239.103C339.191 239.042 339.148 238.95 339.136 238.828C339.136 238.596 339.423 238.236 339.997 237.748H336.865L333.734 237.729C333.575 237.62 333.496 237.504 333.496 237.382C333.496 237.296 333.575 237.174 333.734 237.015H340.308C340.015 236.551 339.868 236.191 339.868 235.935Z" fill="#132AF4"/>
<path d="M372.047 214.777C372.047 214.674 371.63 214.608 370.795 214.579C370.444 214.579 370.217 214.572 370.114 214.557C370.012 214.542 369.961 214.469 369.961 214.338C369.961 214.323 369.975 214.242 370.005 214.096C370.092 213.803 370.158 213.642 370.202 213.613C370.246 213.583 371.666 213.569 374.463 213.569C377.245 213.583 378.731 213.605 378.921 213.635C379.858 213.796 380.642 214.154 381.271 214.711C381.901 215.267 382.223 216.007 382.237 216.929C382.237 218.056 381.754 219.089 380.788 220.026C379.778 221.021 378.475 221.651 376.879 221.914C376.776 221.929 376.008 221.944 374.573 221.958H372.486L371.827 224.572C371.388 226.27 371.169 227.171 371.169 227.273C371.169 227.332 371.176 227.368 371.191 227.383C371.205 227.398 371.256 227.427 371.344 227.471C371.432 227.515 371.557 227.529 371.718 227.515C371.879 227.5 372.12 227.515 372.442 227.559H373.123C373.211 227.69 373.255 227.771 373.255 227.8C373.255 228.034 373.204 228.254 373.101 228.459C373.028 228.532 372.911 228.569 372.75 228.569C372.706 228.569 372.435 228.562 371.937 228.547C371.439 228.532 370.707 228.525 369.741 228.525C368.833 228.525 368.138 228.525 367.655 228.525C367.172 228.525 366.908 228.532 366.864 228.547C366.601 228.547 366.469 228.474 366.469 228.327C366.469 228.298 366.491 228.195 366.535 228.02C366.593 227.786 366.652 227.654 366.71 227.624C366.769 227.595 366.937 227.573 367.215 227.559C367.611 227.559 368.05 227.537 368.533 227.493C368.738 227.449 368.877 227.361 368.95 227.229C368.994 227.171 369.521 225.135 370.532 221.124C371.542 217.112 372.047 214.996 372.047 214.777ZM379.909 216.402C379.909 216.212 379.895 216.058 379.866 215.941C379.836 215.824 379.77 215.663 379.668 215.458C379.565 215.253 379.382 215.092 379.119 214.974C378.855 214.857 378.497 214.74 378.043 214.623C377.94 214.608 377.355 214.594 376.286 214.579C376.037 214.579 375.781 214.579 375.517 214.579C375.254 214.579 375.041 214.586 374.88 214.601C374.719 214.616 374.631 214.616 374.617 214.601C374.426 214.616 374.295 214.682 374.221 214.799C374.192 214.887 374.053 215.45 373.804 216.49C373.555 217.529 373.299 218.54 373.035 219.521C372.772 220.501 372.64 220.999 372.64 221.014C372.64 221.043 373.233 221.058 374.419 221.058H374.683H375.188C376.827 221.058 377.999 220.692 378.702 219.96C379.097 219.564 379.397 218.986 379.602 218.225C379.807 217.463 379.909 216.856 379.909 216.402Z" fill="#132AF4"/>
</g>
<defs>
<radialGradient id="paint0_radial_399_1006" cx="0" cy="0" r="1" gradientUnits="userSpaceOnUse" gradientTransform="translate(34.6535 131.429) rotate(90) scale(25)">
<stop stop-color="#2400FF"/>
<stop offset="1" stop-color="#0D005D"/>
</radialGradient>
<radialGradient id="paint1_radial_399_1006" cx="0" cy="0" r="1" gradientUnits="userSpaceOnUse" gradientTransform="translate(143.179 44.5772) rotate(90) scale(25)">
<stop stop-color="#E35252"/>
<stop offset="1" stop-color="#7D0606"/>
</radialGradient>
<radialGradient id="paint2_radial_399_1006" cx="0" cy="0" r="1" gradientUnits="userSpaceOnUse" gradientTransform="translate(34.632 295.997) rotate(90) scale(25)">
<stop stop-color="#2400FF"/>
<stop offset="1" stop-color="#0D005D"/>
</radialGradient>
<radialGradient id="paint3_radial_399_1006" cx="0" cy="0" r="1" gradientUnits="userSpaceOnUse" gradientTransform="translate(249.634 131.998) rotate(90) scale(25)">
<stop stop-color="#E35252"/>
<stop offset="1" stop-color="#7D0606"/>
</radialGradient>
<radialGradient id="paint4_radial_399_1006" cx="0" cy="0" r="1" gradientUnits="userSpaceOnUse" gradientTransform="translate(358.159 45.1458) rotate(90) scale(25)">
<stop stop-color="#E35252"/>
<stop offset="1" stop-color="#7D0606"/>
</radialGradient>
<radialGradient id="paint5_radial_399_1006" cx="0" cy="0" r="1" gradientUnits="userSpaceOnUse" gradientTransform="translate(249.634 295.998) rotate(90) scale(25)">
<stop stop-color="#E35252"/>
<stop offset="1" stop-color="#7D0606"/>
</radialGradient>
<clipPath id="clip0_399_1006">
<rect width="414" height="331" fill="white"/>
</clipPath>
</defs>
</svg>
