<svg width="735" height="463" viewBox="0 0 735 463" fill="none" xmlns="http://www.w3.org/2000/svg">
<circle cx="125" cy="271" r="117.5" stroke="#132AF4" stroke-width="15"/>
<path d="M41.668 272.931C41.668 272.931 55.2096 227.435 88.543 235.583C121.876 243.732 129.168 298.666 159.376 306.938C189.585 315.209 210.418 271 210.418 271" stroke="#132AF4" stroke-width="15"/>
<path d="M641.995 229V82.5L125 82.5L125 147" stroke="#132AF4" stroke-width="6"/>
<path d="M642 313V459.5L125 459.5L125 395" stroke="#132AF4" stroke-width="6"/>
<path d="M549.996 237L734.259 237" stroke="#132AF4" stroke-width="16"/>
<path d="M549.996 305.923L734.259 305.923" stroke="#132AF4" stroke-width="16"/>
<path d="M125 7.63099C125 6.67766 125.282 5.91932 125.845 5.35599H126.56C128.38 5.48599 130.655 5.55099 133.385 5.55099C138.498 5.55099 141.51 5.48599 142.42 5.35599H143.07C143.33 5.61599 143.46 5.81099 143.46 5.94099C143.46 6.07099 143.417 6.46099 143.33 7.11099C143.113 7.76099 142.918 8.17266 142.745 8.346H141.38C140.427 8.43266 139.777 8.476 139.43 8.476C138.173 8.69266 137.48 9.01767 137.35 9.451C137.35 9.53767 137.978 14.976 139.235 25.7661C140.492 36.5561 141.142 41.9945 141.185 42.0811L145.93 34.4761C149.093 29.4061 152.257 24.2927 155.42 19.136C158.583 13.9794 160.208 11.3143 160.295 11.141C160.468 10.8377 160.555 10.5127 160.555 10.166C160.555 9.126 159.602 8.51933 157.695 8.346C156.915 8.346 156.525 8.10766 156.525 7.63099C156.525 7.58766 156.568 7.30599 156.655 6.78599C156.785 6.17932 156.915 5.78932 157.045 5.61599C157.175 5.44265 157.457 5.35599 157.89 5.35599C157.977 5.35599 158.237 5.35599 158.67 5.35599C159.103 5.35599 159.84 5.37765 160.88 5.42099C161.92 5.46432 163.307 5.48599 165.04 5.48599C168.03 5.48599 169.915 5.44265 170.695 5.35599H171.15C171.453 5.65932 171.605 5.89765 171.605 6.07099C171.605 6.80766 171.41 7.50099 171.02 8.151C170.89 8.281 170.522 8.346 169.915 8.346C169.352 8.38933 168.832 8.43266 168.355 8.476C167.878 8.51933 167.423 8.62766 166.99 8.801C166.557 8.97433 166.21 9.126 165.95 9.256C165.69 9.386 165.43 9.55933 165.17 9.776C164.91 9.99267 164.693 10.1443 164.52 10.231C164.347 10.3177 164.173 10.5127 164 10.816C163.827 11.1193 163.675 11.271 163.545 11.271L151 31.4211C143.2 44.0311 139.17 50.4878 138.91 50.7912C138.78 50.8778 138.628 50.9862 138.455 51.1162L137.285 51.1812H136.83C136.05 51.1812 135.66 51.0295 135.66 50.7262C135.53 50.4661 134.685 43.5328 133.125 29.9261C131.478 16.146 130.633 9.191 130.59 9.061C130.373 8.58433 129.03 8.346 126.56 8.346H125.455C125.152 8.12933 125 7.891 125 7.63099Z" fill="#132AF4" stroke="#132AF4" stroke-width="2"/>
<path d="M177.721 33.4999C177.721 30.5099 177.937 27.6715 178.371 24.9849C178.804 22.2982 179.302 19.9798 179.866 18.0298C180.429 16.0798 181.231 14.1732 182.271 12.3098C183.311 10.4465 184.134 8.99481 184.741 7.9548C185.347 6.9148 186.257 5.78813 187.471 4.57479C188.684 3.36145 189.399 2.62478 189.616 2.36478C189.832 2.10478 190.374 1.64978 191.241 0.999779H192.086H192.346C192.952 0.999779 193.256 1.19478 193.256 1.58478C193.256 1.71478 192.887 2.16978 192.151 2.94979C191.414 3.72979 190.526 4.87813 189.486 6.3948C188.446 7.91147 187.384 9.77481 186.301 11.9848C185.217 14.1948 184.307 17.1848 183.571 20.9548C182.834 24.7249 182.466 28.9065 182.466 33.4999C182.466 38.0932 182.834 42.2533 183.571 45.9799C184.307 49.7066 185.196 52.7183 186.236 55.015C187.276 57.3116 188.337 59.175 189.421 60.605C190.504 62.035 191.414 63.1833 192.151 64.05C192.887 64.9167 193.256 65.3717 193.256 65.415C193.256 65.805 192.931 66 192.281 66H192.086H191.241L189.421 64.44C185.347 60.7566 182.379 56.1633 180.516 50.6599C178.652 45.1566 177.721 39.4366 177.721 33.4999Z" fill="#132AF4" stroke="#132AF4" stroke-width="2"/>
<path d="M198.58 24.7262C198.277 24.4229 198.125 24.2062 198.125 24.0762C198.125 23.9029 198.19 23.5562 198.32 23.0362C198.45 22.5162 198.558 22.2129 198.645 22.1262C198.732 21.9095 198.927 21.8012 199.23 21.8012C199.533 21.8012 200.638 21.7795 202.545 21.7362H205.99L207.225 16.5362C207.355 16.0595 207.507 15.4312 207.68 14.6512C207.853 13.8712 208.005 13.3078 208.135 12.9612C208.265 12.6145 208.395 12.1812 208.525 11.6612C208.655 11.1412 208.828 10.7728 209.045 10.5562C209.262 10.3395 209.478 10.0795 209.695 9.77617C209.912 9.47284 210.215 9.27784 210.605 9.19117C210.995 9.1045 211.385 9.06117 211.775 9.06117C212.555 9.1045 213.097 9.34284 213.4 9.77617C213.703 10.2095 213.855 10.6212 213.855 11.0112C213.855 11.3145 213.66 12.3328 213.27 14.0662C212.88 15.7995 212.447 17.5112 211.97 19.2012L211.32 21.6062C211.32 21.6929 212.403 21.7362 214.57 21.7362H217.885C218.188 22.0395 218.34 22.2779 218.34 22.4512C218.34 23.4045 218.058 24.1629 217.495 24.7262H210.54L208.2 34.1513C206.51 41.0846 205.665 44.8113 205.665 45.3313C205.665 47.1513 206.25 48.0613 207.42 48.0613C208.937 48.0613 210.41 47.3246 211.84 45.8513C213.27 44.378 214.418 42.5579 215.285 40.3913C215.372 40.1313 215.48 39.9796 215.61 39.9363C215.74 39.8929 216.065 39.8496 216.585 39.8063H216.845C217.495 39.8063 217.82 39.9796 217.82 40.3263C217.82 40.4563 217.755 40.7163 217.625 41.1063C217.408 41.7996 217.018 42.6229 216.455 43.5763C215.892 44.5296 215.155 45.548 214.245 46.6313C213.335 47.7146 212.23 48.6246 210.93 49.3613C209.63 50.098 208.308 50.4663 206.965 50.4663C205.665 50.4663 204.43 50.1413 203.26 49.4913C202.09 48.8413 201.245 47.7146 200.725 46.1113C200.638 45.7646 200.595 45.1796 200.595 44.3563V43.1863L202.87 34.0863C204.387 27.9762 205.167 24.8996 205.21 24.8562C205.21 24.7696 204.105 24.7262 201.895 24.7262H198.58Z" fill="#132AF4" stroke="#132AF4" stroke-width="2"/>
<path d="M224.257 1.06478L224.517 0.999779C224.733 0.999779 224.95 0.999779 225.167 0.999779H225.947L227.767 2.55978C231.84 6.24313 234.808 10.8365 236.672 16.3398C238.535 21.8432 239.467 27.5632 239.467 33.4999C239.467 36.4466 239.25 39.2849 238.817 42.0149C238.383 44.7449 237.885 47.0633 237.322 48.9699C236.758 50.8766 235.957 52.7833 234.917 54.69C233.877 56.5966 233.053 58.0483 232.447 59.045C231.84 60.0416 230.952 61.1467 229.782 62.36C228.612 63.5733 227.918 64.2883 227.702 64.505C227.485 64.7217 226.987 65.1333 226.207 65.74C226.077 65.87 225.99 65.9567 225.947 66H225.167C224.82 66 224.582 66 224.452 66C224.322 66 224.213 65.935 224.127 65.805C224.04 65.675 223.975 65.48 223.932 65.22C223.975 65.1767 224.213 64.895 224.647 64.375C231.363 57.3983 234.722 47.1066 234.722 33.4999C234.722 19.8932 231.363 9.60147 224.647 2.62478C224.213 2.10478 223.975 1.82312 223.932 1.77978C223.932 1.43311 224.04 1.19478 224.257 1.06478Z" fill="#132AF4" stroke="#132AF4" stroke-width="2"/>
<path d="M281.768 27.193C281.768 26.6296 282.071 26.1963 282.678 25.893H324.083C324.733 26.2396 325.058 26.673 325.058 27.193C325.058 27.6696 324.754 28.0813 324.148 28.428L303.478 28.493H282.808C282.114 28.2763 281.768 27.843 281.768 27.193ZM281.768 39.803C281.768 39.153 282.114 38.7197 282.808 38.503H324.148C324.754 38.9364 325.058 39.3697 325.058 39.803C325.058 40.3664 324.733 40.7997 324.083 41.103H282.678C282.071 40.7997 281.768 40.3664 281.768 39.803Z" fill="#132AF4" stroke="#132AF4" stroke-width="2"/>
<path d="M364.564 7.62904C364.564 6.6757 364.846 5.91737 365.409 5.35403H366.124C367.944 5.48403 370.219 5.54903 372.949 5.54903C378.063 5.54903 381.075 5.48403 381.985 5.35403H382.635C382.895 5.61403 383.025 5.80903 383.025 5.93903C383.025 6.06904 382.981 6.45904 382.895 7.10904C382.678 7.75904 382.483 8.17071 382.31 8.34404H380.945C379.991 8.43071 379.341 8.47404 378.995 8.47404C377.738 8.69071 377.044 9.01571 376.914 9.44905C376.914 9.53571 377.543 14.9741 378.8 25.7641C380.056 36.5541 380.706 41.9925 380.75 42.0792L385.495 34.4741C388.658 29.4041 391.821 24.2908 394.985 19.1341C398.148 13.9774 399.773 11.3124 399.86 11.1391C400.033 10.8357 400.12 10.5107 400.12 10.1641C400.12 9.12405 399.166 8.51738 397.26 8.34404C396.48 8.34404 396.09 8.10571 396.09 7.62904C396.09 7.58571 396.133 7.30404 396.22 6.78404C396.35 6.17737 396.48 5.78737 396.61 5.61403C396.74 5.4407 397.021 5.35403 397.455 5.35403C397.541 5.35403 397.801 5.35403 398.235 5.35403C398.668 5.35403 399.405 5.3757 400.445 5.41903C401.485 5.46237 402.871 5.48403 404.605 5.48403C407.595 5.48403 409.48 5.4407 410.26 5.35403H410.715C411.018 5.65737 411.17 5.8957 411.17 6.06904C411.17 6.8057 410.975 7.49904 410.585 8.14904C410.455 8.27904 410.086 8.34404 409.48 8.34404C408.916 8.38738 408.396 8.43071 407.92 8.47404C407.443 8.51738 406.988 8.62571 406.555 8.79905C406.121 8.97238 405.775 9.12405 405.515 9.25405C405.255 9.38405 404.995 9.55738 404.735 9.77405C404.475 9.99072 404.258 10.1424 404.085 10.2291C403.911 10.3157 403.738 10.5107 403.565 10.8141C403.391 11.1174 403.24 11.2691 403.11 11.2691L390.565 31.4191C382.765 44.0292 378.735 50.4859 378.475 50.7892C378.345 50.8759 378.193 50.9842 378.02 51.1142L376.849 51.1792H376.394C375.614 51.1792 375.224 51.0275 375.224 50.7242C375.094 50.4642 374.249 43.5308 372.689 29.9241C371.043 16.1441 370.198 9.18905 370.154 9.05905C369.938 8.58238 368.594 8.34404 366.124 8.34404H365.019C364.716 8.12738 364.564 7.88904 364.564 7.62904Z" fill="#132AF4" stroke="#132AF4" stroke-width="2"/>
<path d="M405.641 32.6155C407.357 30.1339 409.7 28.8931 412.672 28.8931C414.143 28.8931 415.613 29.2914 417.084 30.0879C418.554 30.8845 419.749 32.2938 420.668 34.3158C421.802 36.8587 422.369 40.3513 422.369 44.7936C422.369 49.5423 421.71 53.1727 420.393 55.685C419.78 56.9717 418.937 57.998 417.865 58.764C416.793 59.5299 415.858 60.0047 415.062 60.1886C414.265 60.3724 413.484 60.4796 412.718 60.5103C411.921 60.5103 411.125 60.4183 410.328 60.2345C409.532 60.0507 408.597 59.5605 407.525 58.764C406.453 57.9674 405.61 56.9411 404.998 55.685C403.68 53.1727 403.021 49.5423 403.021 44.7936C403.021 39.4628 403.895 35.4034 405.641 32.6155ZM415.981 32.064C415.062 31.0836 413.974 30.5934 412.718 30.5934C411.431 30.5934 410.328 31.0836 409.409 32.064C408.643 32.8606 408.138 33.9635 407.893 35.3728C407.648 36.7821 407.525 39.7232 407.525 44.1962C407.525 49.0368 407.648 52.223 407.893 53.7548C408.138 55.2867 408.689 56.4968 409.547 57.3853C410.405 58.3044 411.462 58.764 412.718 58.764C413.943 58.764 414.985 58.3044 415.843 57.3853C416.731 56.4662 417.283 55.1795 417.497 53.5251C417.712 51.8707 417.834 48.7611 417.865 44.1962C417.865 39.7538 417.742 36.828 417.497 35.4187C417.252 34.0094 416.747 32.8912 415.981 32.064Z" fill="#132AF4" stroke="#132AF4" stroke-width="2"/>
<path d="M471.891 29.2103C471.891 27.4769 471.306 25.9819 470.136 24.7252C468.966 23.4686 467.276 22.8402 465.066 22.8402C463.506 22.8402 462.163 23.1219 461.036 23.6852C459.736 24.5086 459.086 25.6352 459.086 27.0652C459.043 27.2819 459.043 27.5636 459.086 27.9103C459.13 28.2569 459.476 28.7769 460.126 29.4703C460.776 30.1636 461.708 30.7053 462.921 31.0953C463.701 31.3119 464.655 31.5069 465.781 31.6803C466.908 31.8536 467.861 32.0486 468.641 32.2653C469.421 32.4819 470.115 32.7636 470.721 33.1103C471.458 33.4569 472.173 33.8903 472.866 34.4103C473.56 34.9303 474.253 35.8186 474.946 37.0753C475.64 38.332 476.008 39.6753 476.051 41.1053C476.051 43.792 475.228 46.002 473.581 47.7353C471.935 49.4687 469.27 50.357 465.586 50.4003H465.066C462.813 50.4003 460.733 49.6203 458.826 48.0603L458.306 48.5153L457.721 49.1003C457.461 49.3603 457.201 49.5987 456.941 49.8153L456.226 50.4653H455.706H455.446C455.316 50.4653 455.121 50.3353 454.861 50.0753V44.9403V41.1703C454.861 40.2603 454.905 39.7186 454.991 39.5453C455.078 39.372 455.295 39.2636 455.641 39.2203H456.226C456.746 39.2203 457.093 39.307 457.266 39.4803C457.44 39.6536 457.548 39.9136 457.591 40.2603C457.635 40.607 457.786 41.192 458.046 42.0153C458.306 42.8386 458.718 43.7486 459.281 44.7453C460.798 46.9553 462.9 48.0603 465.586 48.0603C469.79 48.0603 471.891 46.3703 471.891 42.9903C471.891 41.7336 471.501 40.7153 470.721 39.9353C469.855 38.8953 468.056 38.1153 465.326 37.5953C462.596 37.0753 460.798 36.5769 459.931 36.1003C458.371 35.3636 457.136 34.3669 456.226 33.1103C455.316 31.8536 454.861 30.5103 454.861 29.0803C454.861 27.3903 455.23 25.9602 455.966 24.7902C456.703 23.6202 457.635 22.7536 458.761 22.1902C459.888 21.6269 460.971 21.2369 462.011 21.0202C463.051 20.8036 464.005 20.6952 464.871 20.6952H465.586C467.32 20.6952 468.836 21.0202 470.136 21.6702L471.111 22.1902L471.696 21.7352C472.13 21.3452 472.606 20.9769 473.126 20.6302H473.646H473.906C474.036 20.6302 474.231 20.7602 474.491 21.0202V29.6003L474.101 29.9903H472.281C472.021 29.7303 471.891 29.4703 471.891 29.2103Z" fill="#132AF4" stroke="#132AF4" stroke-width="2"/>
<path d="M482.807 10.1639C482.807 8.95055 483.197 7.99721 483.977 7.30388C484.757 6.61054 485.71 6.26388 486.837 6.26388C487.833 6.35054 488.7 6.71888 489.437 7.36888C490.173 8.01888 490.542 8.95055 490.542 10.1639C490.542 11.4639 490.173 12.4389 489.437 13.0889C488.7 13.7389 487.79 14.0639 486.707 14.0639C485.623 14.0639 484.713 13.7389 483.977 13.0889C483.24 12.4389 482.85 11.4639 482.807 10.1639ZM494.377 49.749C493.727 49.619 491.473 49.554 487.617 49.554C487.14 49.554 486.338 49.554 485.212 49.554C484.085 49.554 483.002 49.5974 481.962 49.684L480.532 49.749H480.012V46.759H481.052C482.265 46.759 483.327 46.694 484.237 46.564C484.627 46.3907 484.865 46.1523 484.952 45.849C485.038 45.5457 485.082 44.6357 485.082 43.119V36.424V30.704C485.082 28.4506 485.038 27.0206 484.952 26.4139C484.865 25.8073 484.562 25.3956 484.042 25.1789C483.435 24.8756 482.417 24.7239 480.987 24.7239H480.272V23.2289C480.272 22.2323 480.315 21.7339 480.402 21.7339L481.052 21.6689C481.485 21.6256 482.092 21.5823 482.872 21.5389C483.652 21.4956 484.432 21.4523 485.212 21.4089C485.948 21.3656 486.728 21.3223 487.552 21.2789C488.375 21.2356 489.003 21.1706 489.437 21.0839C489.87 20.9973 490.108 20.9756 490.152 21.0189H490.347V45.719C490.563 46.1523 490.823 46.4123 491.127 46.499C491.43 46.5857 492.188 46.6723 493.402 46.759H494.897V49.749H494.377Z" fill="#132AF4" stroke="#132AF4" stroke-width="2"/>
<path d="M499.06 46.759H499.97C501.66 46.759 502.678 46.4557 503.025 45.849V45.329C503.025 44.939 503.025 44.4407 503.025 43.834C503.025 43.2273 503.025 42.5557 503.025 41.819C503.025 41.0823 503.046 40.2373 503.09 39.284C503.133 38.3306 503.133 37.4206 503.09 36.554C503.09 35.2106 503.09 33.7806 503.09 32.264C503.09 30.7473 503.068 29.469 503.025 28.4289V26.9339C502.895 26.1106 502.591 25.5689 502.115 25.3089C501.638 25.0489 500.663 24.8539 499.19 24.7239H498.02V23.2289C498.02 22.2323 498.063 21.7339 498.15 21.7339L498.8 21.6689C499.233 21.6256 499.84 21.5823 500.62 21.5389C501.4 21.4956 502.201 21.4523 503.025 21.4089C503.761 21.3656 504.541 21.3223 505.365 21.2789C506.188 21.2356 506.816 21.1706 507.25 21.0839C507.683 20.9973 507.921 20.9756 507.965 21.0189H508.16V23.6189C508.16 25.2656 508.181 26.0889 508.225 26.0889C508.268 26.0889 508.376 25.9806 508.55 25.7639C508.723 25.5473 508.983 25.2223 509.33 24.7889C509.676 24.3556 510.088 23.9656 510.565 23.6189C511.041 23.2723 511.67 22.8606 512.45 22.3839C513.23 21.9073 514.053 21.5606 514.92 21.3439C515.786 21.1273 516.891 21.0189 518.235 21.0189C523.175 21.1923 525.926 23.6406 526.49 28.3639C526.533 28.6673 526.555 31.679 526.555 37.399V42.989C526.555 44.6357 526.598 45.6107 526.685 45.914C526.771 46.2173 527.01 46.434 527.4 46.564C528.31 46.694 529.371 46.759 530.585 46.759H531.625V49.749H531.105L529.545 49.684C528.548 49.6407 527.465 49.619 526.295 49.619C525.125 49.619 524.301 49.5974 523.825 49.554C519.361 49.554 516.935 49.619 516.545 49.749H516.025V46.759H517.065C519.708 46.759 521.03 46.4123 521.03 45.719C521.073 45.6323 521.095 42.6423 521.095 36.749C521.051 30.899 521.008 27.8006 520.965 27.4539C520.705 26.2406 520.271 25.3306 519.665 24.7239C519.058 24.1173 518.538 23.7489 518.105 23.6189C517.671 23.4889 517.108 23.4456 516.415 23.4889C514.465 23.4889 512.753 24.2256 511.28 25.6989C510.11 26.8689 509.373 28.0606 509.07 29.274C508.766 30.4873 508.593 32.2856 508.55 34.669V38.829V42.729C508.55 44.029 508.571 44.8957 508.615 45.329C508.658 45.7623 508.723 46.044 508.81 46.174C508.896 46.304 509.091 46.434 509.395 46.564C510.305 46.694 511.366 46.759 512.58 46.759H513.62V49.749H513.1L511.605 49.684C510.565 49.6407 509.46 49.619 508.29 49.619C507.12 49.619 506.296 49.5974 505.82 49.554C501.356 49.554 498.93 49.619 498.54 49.749H498.02V46.759H499.06Z" fill="#132AF4" stroke="#132AF4" stroke-width="2"/>
<path d="M538.645 33.4999C538.645 30.5099 538.861 27.6715 539.295 24.9849C539.728 22.2982 540.226 19.9798 540.79 18.0298C541.353 16.0798 542.155 14.1732 543.195 12.3098C544.235 10.4465 545.058 8.99481 545.665 7.9548C546.271 6.9148 547.181 5.78813 548.395 4.57479C549.608 3.36145 550.323 2.62478 550.54 2.36478C550.756 2.10478 551.298 1.64978 552.165 0.999779H553.01H553.27C553.876 0.999779 554.18 1.19478 554.18 1.58478C554.18 1.71478 553.811 2.16978 553.075 2.94979C552.338 3.72979 551.45 4.87813 550.41 6.3948C549.37 7.91147 548.308 9.77481 547.225 11.9848C546.141 14.1948 545.231 17.1848 544.495 20.9548C543.758 24.7249 543.39 28.9065 543.39 33.4999C543.39 38.0932 543.758 42.2533 544.495 45.9799C545.231 49.7066 546.12 52.7183 547.16 55.015C548.2 57.3116 549.261 59.175 550.345 60.605C551.428 62.035 552.338 63.1833 553.075 64.05C553.811 64.9167 554.18 65.3717 554.18 65.415C554.18 65.805 553.855 66 553.205 66H553.01H552.165L550.345 64.44C546.271 60.7566 543.303 56.1633 541.44 50.6599C539.576 45.1566 538.645 39.4366 538.645 33.4999Z" fill="#132AF4" stroke="#132AF4" stroke-width="2"/>
<path d="M589.997 24.7895C589.997 23.8361 590.409 22.9695 591.232 22.1894C592.055 21.4094 592.944 20.9978 593.897 20.9544C594.72 20.9544 595.457 21.3444 596.107 22.1244C596.757 22.9045 597.082 24.2261 597.082 26.0895C597.082 27.3895 596.822 29.2528 596.302 31.6795C595.782 34.1062 594.98 36.7712 593.897 39.6745C592.814 42.5779 591.254 45.1129 589.217 47.2795C587.18 49.4462 584.884 50.5079 582.327 50.4645C578.86 50.4645 576.477 48.7962 575.177 45.4595C575.134 45.3729 574.982 45.4812 574.722 45.7845C572.165 48.9045 569.24 50.4645 565.947 50.4645C561.18 50.4645 558.797 47.2145 558.797 40.7145C558.797 36.7712 559.685 32.7412 561.462 28.6245C563.239 24.5078 564.69 22.1461 565.817 21.5394C566.337 21.2361 566.857 21.1928 567.377 21.4094C567.94 21.7128 568.222 22.1028 568.222 22.5794C568.222 23.0995 567.789 23.9445 566.922 25.1145C566.055 26.2845 565.059 27.8661 563.932 29.8595C562.805 31.8528 562.112 33.9762 561.852 36.2295C561.809 36.4895 561.787 36.9445 561.787 37.5945C561.787 40.3245 562.307 42.2095 563.347 43.2495C564.387 44.2895 565.644 44.8095 567.117 44.8095C569.63 44.8095 571.84 43.6612 573.747 41.3645L574.267 40.8445V39.6095C574.484 33.4995 575.87 30.4445 578.427 30.4445C579.77 30.4445 580.442 31.2245 580.442 32.7845C580.442 33.5645 580.225 34.6045 579.792 35.9045C579.359 37.2045 578.925 38.3962 578.492 39.4795L577.842 40.9745C577.885 41.0612 577.929 41.1912 577.972 41.3645C578.015 41.5378 578.189 41.8412 578.492 42.2745C578.795 42.7079 579.142 43.0979 579.532 43.4445C579.922 43.7912 580.442 44.0945 581.092 44.3545C581.742 44.6145 582.5 44.7662 583.367 44.8095C586.097 44.8095 588.437 43.2495 590.387 40.1295C592.337 37.0095 593.312 34.2795 593.312 31.9395C593.312 30.5961 593.03 29.4911 592.467 28.6245C591.904 27.7578 591.362 27.0645 590.842 26.5445C590.322 26.0245 590.04 25.4395 589.997 24.7895Z" fill="#132AF4" stroke="#132AF4" stroke-width="2"/>
<path d="M614.375 24.7243C614.072 24.4209 613.92 24.2043 613.92 24.0743C613.92 23.9009 613.985 23.5543 614.115 23.0343C614.245 22.5143 614.353 22.2109 614.44 22.1243C614.527 21.9076 614.722 21.7993 615.025 21.7993C615.328 21.7993 616.433 21.7776 618.34 21.7343H621.785L623.02 16.5342C623.15 16.0576 623.302 15.4292 623.475 14.6492C623.648 13.8692 623.8 13.3059 623.93 12.9592C624.06 12.6126 624.19 12.1792 624.32 11.6592C624.45 11.1392 624.623 10.7709 624.84 10.5542C625.057 10.3376 625.273 10.0776 625.49 9.77422C625.707 9.47088 626.01 9.27588 626.4 9.18922C626.79 9.10255 627.18 9.05921 627.57 9.05921C628.35 9.10255 628.892 9.34088 629.195 9.77422C629.498 10.2076 629.65 10.6192 629.65 11.0092C629.65 11.3126 629.455 12.3309 629.065 14.0642C628.675 15.7976 628.242 17.5092 627.765 19.1992L627.115 21.6043C627.115 21.6909 628.198 21.7343 630.365 21.7343H633.68C633.983 22.0376 634.135 22.2759 634.135 22.4493C634.135 23.4026 633.853 24.1609 633.29 24.7243H626.335L623.995 34.1493C622.305 41.0827 621.46 44.8093 621.46 45.3293C621.46 47.1493 622.045 48.0593 623.215 48.0593C624.732 48.0593 626.205 47.3227 627.635 45.8493C629.065 44.376 630.213 42.556 631.08 40.3893C631.167 40.1293 631.275 39.9777 631.405 39.9343C631.535 39.891 631.86 39.8477 632.38 39.8043H632.64C633.29 39.8043 633.615 39.9777 633.615 40.3243C633.615 40.4543 633.55 40.7143 633.42 41.1043C633.203 41.7977 632.813 42.621 632.25 43.5743C631.687 44.5277 630.95 45.546 630.04 46.6293C629.13 47.7127 628.025 48.6227 626.725 49.3594C625.425 50.096 624.103 50.4644 622.76 50.4644C621.46 50.4644 620.225 50.1394 619.055 49.4894C617.885 48.8393 617.04 47.7127 616.52 46.1093C616.433 45.7627 616.39 45.1777 616.39 44.3543V43.1843L618.665 34.0843C620.182 27.9743 620.962 24.8976 621.005 24.8543C621.005 24.7676 619.9 24.7243 617.69 24.7243H614.375Z" fill="#132AF4" stroke="#132AF4" stroke-width="2"/>
<path d="M640.054 1.06478L640.314 0.999779C640.53 0.999779 640.747 0.999779 640.964 0.999779H641.744L643.564 2.55978C647.637 6.24313 650.605 10.8365 652.469 16.3398C654.332 21.8432 655.264 27.5632 655.264 33.4999C655.264 36.4466 655.047 39.2849 654.614 42.0149C654.18 44.7449 653.682 47.0633 653.119 48.9699C652.555 50.8766 651.754 52.7833 650.714 54.69C649.674 56.5966 648.85 58.0483 648.244 59.045C647.637 60.0416 646.749 61.1467 645.579 62.36C644.409 63.5733 643.715 64.2883 643.499 64.505C643.282 64.7217 642.784 65.1333 642.004 65.74C641.874 65.87 641.787 65.9567 641.744 66H640.964C640.617 66 640.379 66 640.249 66C640.119 66 640.01 65.935 639.924 65.805C639.837 65.675 639.772 65.48 639.729 65.22C639.772 65.1767 640.01 64.895 640.444 64.375C647.16 57.3983 650.519 47.1066 650.519 33.4999C650.519 19.8932 647.16 9.60147 640.444 2.62478C640.01 2.10478 639.772 1.82312 639.729 1.77978C639.729 1.43311 639.837 1.19478 640.054 1.06478Z" fill="#132AF4" stroke="#132AF4" stroke-width="2"/>
</svg>
