<svg width="350" height="206" viewBox="0 0 350 206" fill="none" xmlns="http://www.w3.org/2000/svg">
<path d="M341.301 173.81L313.33 166.094C313.183 166.053 313.11 166.033 313.069 166.073C313.028 166.113 313.046 166.187 313.083 166.335L315 174.003L313.083 181.67C313.046 181.818 313.028 181.892 313.069 181.933C313.11 181.973 313.183 181.952 313.33 181.912L341.301 174.196C341.583 174.118 341.724 174.079 341.724 174.003C341.724 173.927 341.583 173.888 341.301 173.81Z" fill="#132AF4"/>
<path d="M315 174.003L313.083 181.67C313.046 181.818 313.028 181.892 313.069 181.933C313.11 181.973 313.183 181.952 313.33 181.912L341.301 174.196C341.583 174.118 341.724 174.079 341.724 174.003C341.724 173.927 341.583 173.888 341.301 173.81L313.33 166.094C313.183 166.053 313.11 166.033 313.069 166.073C313.028 166.113 313.046 166.187 313.083 166.335L315 174.003ZM315 174.003H14" stroke="#132AF4" stroke-width="3"/>
<path d="M251.036 92.0242L243.018 92.3403C242.893 92.3453 242.83 92.3477 242.802 92.3899C242.774 92.4321 242.795 92.4909 242.838 92.6086L243.673 94.9041L244.531 97.2601C244.574 97.3785 244.596 97.4377 244.645 97.4517C244.694 97.4657 244.743 97.4268 244.842 97.3489L251.167 92.3813C251.367 92.2242 251.467 92.1457 251.442 92.0774C251.417 92.0091 251.29 92.0142 251.036 92.0242Z" fill="#132AF4"/>
<path d="M243.673 94.9041L244.531 97.2601C244.574 97.3785 244.596 97.4377 244.645 97.4517C244.694 97.4657 244.743 97.4268 244.842 97.3489L251.167 92.3813C251.367 92.2242 251.467 92.1457 251.442 92.0774C251.417 92.0091 251.29 92.0142 251.036 92.0242L243.018 92.3403C242.893 92.3453 242.83 92.3477 242.802 92.3899C242.774 92.4321 242.795 92.4909 242.838 92.6086L243.673 94.9041ZM243.673 94.9041L33.5007 173.003" stroke="#132AF4" stroke-width="3"/>
<path d="M248.431 173.813L240.263 171.091C240.143 171.051 240.083 171.031 240.042 171.061C240 171.09 240 171.154 240 171.28V174.003V176.725C240 176.852 240 176.915 240.042 176.945C240.083 176.975 240.143 176.955 240.263 176.915L248.431 174.193C248.666 174.114 248.784 174.075 248.784 174.003C248.784 173.931 248.666 173.892 248.431 173.813Z" fill="#132AF4" stroke="#132AF4" stroke-width="3"/>
<path d="M32.8103 95.5721L30.0877 103.74C30.0477 103.86 30.0277 103.92 30.0576 103.961C30.0876 104.003 30.1509 104.003 30.2775 104.003H33H35.7225C35.8491 104.003 35.9124 104.003 35.9424 103.961C35.9723 103.92 35.9523 103.86 35.9123 103.74L33.1897 95.5721C33.1113 95.3368 33.0721 95.2192 33 95.2192C32.9279 95.2192 32.8887 95.3368 32.8103 95.5721Z" fill="#132AF4" stroke="#132AF4" stroke-width="3"/>
<path d="M32.8072 2.70183L25.0911 30.6726C25.0506 30.8196 25.0303 30.8931 25.0704 30.9342C25.1105 30.9753 25.1845 30.9568 25.3324 30.9198L33 29.0029L40.6676 30.9198C40.8155 30.9568 40.8895 30.9753 40.9296 30.9342C40.9697 30.8931 40.9494 30.8196 40.9089 30.6726L33.1928 2.70183C33.115 2.41992 33.0761 2.27898 33 2.27898C32.9239 2.27898 32.885 2.41992 32.8072 2.70183Z" fill="#132AF4"/>
<path d="M33 29.0029L40.6676 30.9198C40.8155 30.9568 40.8895 30.9753 40.9296 30.9342C40.9697 30.8931 40.9494 30.8196 40.9089 30.6726L33.1928 2.70182C33.115 2.41992 33.0761 2.27897 33 2.27897C32.9239 2.27897 32.885 2.41992 32.8072 2.70182L25.0911 30.6726C25.0506 30.8196 25.0303 30.8931 25.0704 30.9342C25.1105 30.9753 25.1845 30.9568 25.3324 30.9198L33 29.0029ZM33 29.0029L33 195.503" stroke="#132AF4" stroke-width="3"/>
<path d="M251.625 173.006L251.625 92.0029" stroke="#132AF4" stroke-width="3" stroke-dasharray="6 6"/>
<path d="M34.5 92.7539H252.876" stroke="#132AF4" stroke-width="3" stroke-dasharray="6 6"/>
<path d="M2.31169 3.2842C1.6791 3.2842 1.3442 3.24699 1.30699 3.17257C1.28839 3.13536 1.27908 3.06094 1.27908 2.9493C1.27908 2.50277 1.38141 2.19578 1.58607 2.02833C1.62329 2.00972 1.78143 2.00042 2.06052 2.00042C2.82334 2.03763 4.08852 2.05624 5.85605 2.05624C6.48864 2.05624 7.07471 2.05624 7.61427 2.05624C8.15383 2.05624 8.57246 2.04694 8.87015 2.02833C9.16784 2.00972 9.35389 2.00972 9.42831 2.02833C9.726 2.02833 9.87485 2.12136 9.87485 2.30741C9.87485 2.34462 9.85624 2.47486 9.81903 2.69813C9.726 3.01442 9.63297 3.20048 9.53995 3.2563H9.48413C9.44692 3.2563 9.40041 3.2563 9.34459 3.2563C9.28877 3.2563 9.22365 3.2563 9.14923 3.2563C9.07481 3.2563 8.99108 3.2656 8.89806 3.2842C8.80503 3.30281 8.7213 3.30281 8.64688 3.2842C7.92126 3.30281 7.45613 3.33072 7.25146 3.36793C7.0468 3.40514 6.87935 3.50747 6.74911 3.67492C6.73051 3.71213 6.47003 4.68892 5.96768 6.60529C5.46533 8.52166 4.96298 10.5311 4.46063 12.6335C3.95828 14.7359 3.6792 15.9732 3.62338 16.3453C3.58617 16.6058 3.56757 16.8756 3.56757 17.1546C3.56757 18.1593 3.85595 18.9501 4.43272 19.5268C5.0095 20.1036 5.80953 20.392 6.83284 20.392C8.07941 20.392 9.32598 19.9734 10.5726 19.1361C11.8191 18.2989 12.7308 17.0337 13.3076 15.3406L14.7309 9.73102C15.6054 6.15876 16.0426 4.29821 16.0426 4.14936C16.0426 3.64701 15.4472 3.35863 14.2565 3.2842C13.8099 3.2842 13.5867 3.18187 13.5867 2.97721C13.5867 2.94 13.6053 2.82837 13.6425 2.64231C13.7169 2.34462 13.7727 2.16787 13.8099 2.11205C13.8471 2.05624 13.9402 2.01903 14.089 2.00042C14.1448 2.00042 14.4425 2.00972 14.9821 2.02833C15.5216 2.04694 16.3031 2.06554 17.3264 2.08415C18.2753 2.08415 19.0009 2.07484 19.5032 2.05624C20.0056 2.03763 20.2753 2.02833 20.3126 2.02833C20.5916 2.02833 20.7312 2.12136 20.7312 2.30741C20.7312 2.71673 20.6568 2.99582 20.5079 3.14466C20.4521 3.23769 20.2474 3.2842 19.8939 3.2842C18.5729 3.35863 17.745 3.73074 17.4101 4.40054C17.3729 4.49356 16.9077 6.289 16.0147 9.78684C15.2519 12.9312 14.7867 14.7824 14.6193 15.3406C14.0053 17.2011 12.9355 18.7175 11.4098 19.8896C9.88415 21.0618 8.30268 21.6572 6.66539 21.6758C4.95368 21.6758 3.58617 21.1548 2.56287 20.1129C1.53956 19.071 1.01861 17.8337 1 16.4011V15.9546C1 15.6197 1.51165 13.4056 2.53496 9.3124C3.44663 5.57269 3.90247 3.64701 3.90247 3.53538C3.90247 3.40514 3.37221 3.32141 2.31169 3.2842Z" fill="#132AF4" stroke="#132AF4" stroke-width="2"/>
<path d="M335.474 204.034C335.158 204.034 335 203.95 335 203.782C335 203.745 335.028 203.615 335.084 203.392C335.177 203.038 335.27 202.843 335.363 202.806C335.419 202.787 335.558 202.778 335.781 202.778H335.949C337.065 202.778 337.772 202.713 338.07 202.582C338.089 202.582 338.107 202.573 338.126 202.554C338.219 202.517 338.321 202.303 338.433 201.913C338.544 201.522 339 199.699 339.8 196.443C340.023 195.605 340.191 194.945 340.303 194.461C341.605 189.252 342.256 186.628 342.256 186.591C342.219 186.516 342.2 186.47 342.2 186.451C342.014 186.34 341.354 186.284 340.219 186.284H339.661C339.493 186.172 339.456 185.94 339.549 185.586C339.623 185.307 339.679 185.14 339.717 185.084C339.754 185.028 339.884 185 340.107 185H340.219C341.558 185.037 342.917 185.056 344.293 185.056C346.563 185.056 347.754 185.037 347.866 185H348.145C348.275 185.13 348.34 185.233 348.34 185.307C348.34 185.382 348.312 185.54 348.256 185.782C348.201 186.023 348.136 186.172 348.061 186.228C348.005 186.265 347.791 186.284 347.419 186.284C346.842 186.284 346.247 186.312 345.633 186.368C345.373 186.423 345.196 186.526 345.103 186.675C344.973 186.935 344.498 188.712 343.679 192.005C343.475 192.88 343.27 193.726 343.066 194.545C341.763 199.68 341.112 202.303 341.112 202.415C341.112 202.545 341.205 202.629 341.391 202.666C341.577 202.703 342.061 202.741 342.842 202.778H343.735C343.847 202.927 343.903 203.01 343.903 203.029C343.903 203.048 343.875 203.215 343.819 203.531C343.745 203.773 343.652 203.95 343.54 204.062H343.093C342.405 204.024 341.131 204.006 339.27 204.006C338.6 204.006 337.986 204.006 337.428 204.006C336.87 204.006 336.423 204.006 336.088 204.006C335.754 204.006 335.549 204.015 335.474 204.034Z" fill="#132AF4" stroke="#132AF4" stroke-width="2"/>
<path d="M5.97903 84.9583C5.50687 84.9583 5.25691 84.9305 5.22913 84.875C5.21525 84.8472 5.2083 84.7917 5.2083 84.7083C5.2083 84.3751 5.28468 84.1459 5.43744 84.0209C5.46521 84.0071 5.58325 84.0001 5.79156 84.0001C6.36092 84.0279 7.30523 84.0418 8.62449 84.0418C9.09665 84.0418 9.53409 84.0418 9.93681 84.0418C10.3395 84.0418 10.652 84.0348 10.8742 84.0209C11.0964 84.0071 11.2352 84.0071 11.2908 84.0209C11.513 84.0209 11.6241 84.0904 11.6241 84.2292C11.6241 84.257 11.6102 84.3542 11.5824 84.5209C11.513 84.7569 11.4435 84.8958 11.3741 84.9375H11.3324C11.3047 84.9375 11.27 84.9375 11.2283 84.9375C11.1866 84.9375 11.138 84.9375 11.0825 84.9375C11.0269 84.9375 10.9644 84.9444 10.895 84.9583C10.8256 84.9722 10.7631 84.9722 10.7075 84.9583C10.1659 84.9722 9.81877 84.993 9.66601 85.0208C9.51326 85.0486 9.38827 85.125 9.29106 85.2499C9.27718 85.2777 9.08276 86.0068 8.70781 87.4371C8.33287 88.8675 7.95792 90.3673 7.58297 91.9365C7.20802 93.5057 6.99972 94.4292 6.95806 94.7069C6.93028 94.9014 6.9164 95.1027 6.9164 95.311C6.9164 96.0609 7.13165 96.6511 7.56214 97.0816C7.99264 97.5121 8.58977 97.7273 9.35356 97.7273C10.284 97.7273 11.2144 97.4149 12.1448 96.79C13.0753 96.1651 13.7557 95.2208 14.1862 93.957L15.2486 89.7701C15.9012 87.1038 16.2276 85.7151 16.2276 85.604C16.2276 85.2291 15.7832 85.0139 14.8944 84.9583C14.5612 84.9583 14.3945 84.8819 14.3945 84.7292C14.3945 84.7014 14.4084 84.6181 14.4362 84.4792C14.4917 84.257 14.5334 84.1251 14.5612 84.0834C14.5889 84.0418 14.6584 84.014 14.7695 84.0001C14.8111 84.0001 15.0333 84.0071 15.436 84.0209C15.8388 84.0348 16.422 84.0487 17.1858 84.0626C17.894 84.0626 18.4356 84.0557 18.8106 84.0418C19.1855 84.0279 19.3869 84.0209 19.4146 84.0209C19.6229 84.0209 19.7271 84.0904 19.7271 84.2292C19.7271 84.5348 19.6716 84.7431 19.5605 84.8542C19.5188 84.9236 19.366 84.9583 19.1022 84.9583C18.1162 85.0139 17.4982 85.2916 17.2483 85.7915C17.2205 85.861 16.8733 87.201 16.2068 89.8118C15.6374 92.1587 15.2902 93.5404 15.1652 93.957C14.707 95.3457 13.9085 96.4775 12.7697 97.3524C11.631 98.2273 10.4506 98.6717 9.22857 98.6855C7.95097 98.6855 6.93028 98.2967 6.1665 97.519C5.40272 96.7414 5.01389 95.8179 5 94.7486V94.4153C5 94.1653 5.38189 92.5128 6.14567 89.4577C6.82613 86.6664 7.16636 85.2291 7.16636 85.1458C7.16636 85.0486 6.77058 84.9861 5.97903 84.9583Z" fill="#132AF4" stroke="#132AF4"/>
<path d="M18.9766 97.125C18.9864 97.0955 18.9962 97.0563 19.006 97.0072C19.0158 96.9581 19.0404 96.8501 19.0797 96.6832C19.1189 96.5163 19.168 96.3641 19.2269 96.2266C19.2858 96.0892 19.3595 95.9272 19.4478 95.7406C19.5362 95.5541 19.6344 95.4068 19.7424 95.2988C19.8504 95.1908 19.978 95.0828 20.1253 94.9748C20.2725 94.8668 20.4345 94.8227 20.6113 94.8423C20.896 94.8423 21.1464 94.9012 21.3624 95.019C21.5784 95.1368 21.7305 95.2448 21.8189 95.343C21.9073 95.4412 21.9613 95.5394 21.9809 95.6376C22.0005 95.6965 22.0153 95.7259 22.0251 95.7259C22.0349 95.7259 22.0742 95.6916 22.1429 95.6228C22.6142 95.1123 23.1591 94.857 23.7776 94.857H23.8218C24.293 94.857 24.6465 95.0583 24.8821 95.4608C24.9607 95.6474 24.9999 95.829 24.9999 96.0057C24.9999 96.3003 24.9361 96.5359 24.8085 96.7126C24.6809 96.8894 24.5532 97.0023 24.4256 97.0514C24.298 97.1005 24.1752 97.1201 24.0574 97.1103C23.8611 97.1103 23.704 97.0563 23.5861 96.9483C23.4683 96.8403 23.4094 96.6979 23.4094 96.5212C23.4094 96.0499 23.6843 95.7357 24.2341 95.5787C24.0181 95.451 23.8414 95.3872 23.704 95.3872C23.1542 95.3872 22.6485 95.7505 22.1871 96.477C22.0889 96.6341 22.0153 96.7961 21.9662 96.963C21.9171 97.1299 21.7502 97.7828 21.4654 98.9217C21.1316 100.296 20.9402 101.028 20.8911 101.116C20.7635 101.381 20.5524 101.514 20.2578 101.514C20.1302 101.514 20.0271 101.484 19.9486 101.425C19.87 101.366 19.816 101.307 19.7866 101.249C19.7571 101.19 19.7473 101.141 19.7571 101.101C19.7571 100.974 19.9535 100.129 20.3462 98.5683C20.7389 97.0072 20.9353 96.1383 20.9353 95.9616C20.9353 95.5787 20.8076 95.3872 20.5524 95.3872C20.3462 95.3872 20.1695 95.5247 20.0222 95.7996C19.8749 96.0745 19.7571 96.3739 19.6687 96.6979C19.5804 97.0219 19.5264 97.1986 19.5067 97.2281C19.4871 97.2477 19.4086 97.2575 19.2711 97.2575H19.0649C19.006 97.1986 18.9766 97.1545 18.9766 97.125Z" fill="#132AF4" stroke="#132AF4"/>
<path d="M242.98 182.959C242.507 182.959 242.257 182.932 242.229 182.876C242.215 182.848 242.208 182.793 242.208 182.709C242.208 182.376 242.285 182.146 242.438 182.021C242.466 182.007 242.584 182 242.792 182C243.362 182.028 244.307 182.042 245.627 182.042C246.1 182.042 246.538 182.042 246.941 182.042C247.344 182.042 247.656 182.035 247.879 182.021C248.101 182.007 248.24 182.007 248.296 182.021C248.518 182.021 248.629 182.091 248.629 182.23C248.629 182.258 248.615 182.355 248.588 182.522C248.518 182.758 248.449 182.897 248.379 182.939H248.337C248.31 182.939 248.275 182.939 248.233 182.939C248.191 182.939 248.143 182.939 248.087 182.939C248.032 182.939 247.969 182.945 247.9 182.959C247.83 182.973 247.768 182.973 247.712 182.959C247.17 182.973 246.823 182.994 246.67 183.022C246.517 183.05 246.392 183.126 246.294 183.251C246.281 183.279 246.086 184.009 245.711 185.44C245.335 186.872 244.96 188.373 244.585 189.943C244.21 191.513 244.001 192.438 243.96 192.716C243.932 192.91 243.918 193.112 243.918 193.32C243.918 194.071 244.133 194.661 244.564 195.092C244.995 195.523 245.593 195.738 246.357 195.738C247.288 195.738 248.219 195.426 249.15 194.8C250.082 194.175 250.763 193.23 251.193 191.965L252.257 187.775C252.91 185.107 253.236 183.717 253.236 183.606C253.236 183.23 252.792 183.015 251.902 182.959C251.569 182.959 251.402 182.883 251.402 182.73C251.402 182.702 251.416 182.619 251.444 182.48C251.499 182.258 251.541 182.125 251.569 182.084C251.596 182.042 251.666 182.014 251.777 182C251.819 182 252.041 182.007 252.444 182.021C252.847 182.035 253.431 182.049 254.195 182.063C254.904 182.063 255.446 182.056 255.821 182.042C256.197 182.028 256.398 182.021 256.426 182.021C256.634 182.021 256.739 182.091 256.739 182.23C256.739 182.535 256.683 182.744 256.572 182.855C256.53 182.925 256.377 182.959 256.113 182.959C255.126 183.015 254.508 183.293 254.258 183.793C254.23 183.863 253.883 185.204 253.215 187.817C252.646 190.165 252.298 191.548 252.173 191.965C251.715 193.355 250.915 194.488 249.776 195.363C248.636 196.239 247.455 196.683 246.232 196.697C244.953 196.697 243.932 196.308 243.167 195.53C242.403 194.752 242.014 193.827 242 192.757V192.424C242 192.174 242.382 190.52 243.147 187.462C243.828 184.669 244.168 183.23 244.168 183.147C244.168 183.05 243.772 182.987 242.98 182.959Z" fill="#132AF4" stroke="#132AF4"/>
<path d="M256.178 197.023C256.178 195.952 256.6 194.989 257.445 194.134C258.29 193.279 259.204 192.852 260.187 192.852C260.737 192.852 261.169 192.97 261.484 193.205C261.798 193.441 261.96 193.751 261.97 194.134C261.97 194.419 261.877 194.66 261.69 194.856C261.503 195.053 261.267 195.156 260.983 195.166C260.796 195.166 260.648 195.117 260.54 195.018C260.432 194.92 260.378 194.773 260.378 194.576C260.378 194.38 260.432 194.213 260.54 194.075C260.648 193.937 260.757 193.834 260.865 193.766C260.973 193.697 261.041 193.667 261.071 193.677H261.086C261.086 193.657 261.056 193.628 260.997 193.589C260.938 193.549 260.835 193.51 260.688 193.471C260.54 193.431 260.373 193.412 260.187 193.412C259.892 193.412 259.612 193.481 259.347 193.618C259.14 193.707 258.929 193.859 258.713 194.075C258.28 194.507 257.966 195.117 257.769 195.903C257.573 196.689 257.47 197.259 257.46 197.612C257.46 198.064 257.588 198.403 257.843 198.629C258.059 198.865 258.344 198.983 258.698 198.983H258.757C259.857 198.983 260.766 198.565 261.484 197.73C261.572 197.632 261.631 197.583 261.66 197.583C261.7 197.583 261.764 197.627 261.852 197.715C261.941 197.804 261.99 197.873 261.999 197.922C262.009 197.971 261.965 198.045 261.867 198.143C261.769 198.241 261.626 198.379 261.439 198.556C261.253 198.732 261.032 198.88 260.776 198.998C260.521 199.116 260.206 199.238 259.833 199.366C259.46 199.494 259.066 199.548 258.654 199.528C257.917 199.528 257.322 199.292 256.87 198.821C256.418 198.349 256.188 197.75 256.178 197.023Z" fill="#132AF4" stroke="#132AF4"/>
<path d="M226.788 106.772C226.408 106.772 226.207 106.749 226.184 106.704C226.173 106.682 226.168 106.637 226.168 106.57C226.168 106.302 226.229 106.118 226.352 106.017C226.374 106.006 226.469 106 226.637 106C227.095 106.023 227.855 106.034 228.917 106.034C229.296 106.034 229.648 106.034 229.972 106.034C230.297 106.034 230.548 106.028 230.727 106.017C230.906 106.006 231.017 106.006 231.062 106.017C231.241 106.017 231.33 106.073 231.33 106.185C231.33 106.207 231.319 106.285 231.297 106.42C231.241 106.609 231.185 106.721 231.129 106.755H231.096C231.073 106.755 231.045 106.755 231.012 106.755C230.978 106.755 230.939 106.755 230.894 106.755C230.85 106.755 230.799 106.76 230.744 106.772C230.688 106.783 230.637 106.783 230.593 106.772C230.157 106.783 229.878 106.799 229.755 106.822C229.632 106.844 229.531 106.906 229.453 107.006C229.442 107.029 229.285 107.615 228.984 108.766C228.682 109.917 228.38 111.124 228.078 112.387C227.777 113.649 227.609 114.392 227.576 114.616C227.553 114.772 227.542 114.934 227.542 115.102C227.542 115.705 227.715 116.18 228.062 116.527C228.408 116.873 228.889 117.046 229.503 117.046C230.252 117.046 231.001 116.795 231.749 116.292C232.498 115.789 233.045 115.029 233.392 114.013L234.247 110.643C234.772 108.498 235.034 107.381 235.034 107.291C235.034 106.989 234.677 106.816 233.962 106.772C233.694 106.772 233.559 106.71 233.559 106.587C233.559 106.565 233.571 106.498 233.593 106.386C233.638 106.207 233.671 106.101 233.694 106.068C233.716 106.034 233.772 106.012 233.861 106C233.895 106 234.073 106.006 234.398 106.017C234.722 106.028 235.191 106.04 235.806 106.051C236.375 106.051 236.811 106.045 237.113 106.034C237.415 106.023 237.577 106.017 237.599 106.017C237.767 106.017 237.85 106.073 237.85 106.185C237.85 106.431 237.806 106.598 237.716 106.688C237.683 106.744 237.56 106.772 237.348 106.772C236.554 106.816 236.057 107.04 235.856 107.442C235.833 107.498 235.554 108.576 235.018 110.677C234.56 112.565 234.28 113.677 234.18 114.013C233.811 115.13 233.168 116.041 232.252 116.745C231.336 117.449 230.386 117.806 229.403 117.817C228.375 117.817 227.553 117.505 226.939 116.879C226.324 116.253 226.011 115.51 226 114.649V114.381C226 114.18 226.307 112.85 226.922 110.392C227.469 108.146 227.743 106.989 227.743 106.922C227.743 106.844 227.425 106.794 226.788 106.772Z" fill="#132AF4" stroke="#132AF4"/>
<path d="M237.586 116.977C237.586 116.068 237.851 115.195 238.38 114.358C238.909 113.52 239.577 112.857 240.383 112.367C241.188 111.877 241.994 111.628 242.8 111.62C243.511 111.62 244.076 111.822 244.495 112.225C244.566 112.304 244.625 112.371 244.672 112.426C244.72 112.481 244.751 112.521 244.767 112.545L244.779 112.58C244.803 112.58 244.909 112.477 245.099 112.272C245.154 112.225 245.214 112.169 245.277 112.106C245.34 112.043 245.403 111.98 245.466 111.916C245.53 111.853 245.569 111.81 245.585 111.786L245.763 111.608H245.834C245.944 111.608 246 111.636 246 111.691C246 111.723 245.873 112.264 245.621 113.315C245.336 114.413 245.194 114.966 245.194 114.974C245.178 115.013 245.158 115.037 245.135 115.045C245.111 115.053 245.04 115.061 244.921 115.069H244.732C244.684 115.021 244.661 114.986 244.661 114.962C244.661 114.954 244.665 114.926 244.672 114.879C244.68 114.832 244.688 114.753 244.696 114.642C244.704 114.531 244.708 114.405 244.708 114.263C244.708 113.702 244.582 113.212 244.329 112.793C244.076 112.375 243.645 112.161 243.037 112.154C242.832 112.154 242.611 112.181 242.374 112.236C242.136 112.292 241.852 112.387 241.52 112.521C241.188 112.655 240.861 112.876 240.537 113.184C240.213 113.493 239.924 113.86 239.672 114.287C239.419 114.737 239.217 115.262 239.067 115.863C238.917 116.463 238.842 116.953 238.842 117.332C238.842 118.233 239.142 118.881 239.743 119.276C240.122 119.544 240.588 119.679 241.141 119.679C241.86 119.679 242.5 119.41 243.061 118.873C243.622 118.335 243.993 117.751 244.175 117.119C244.206 117.016 244.23 116.957 244.246 116.941C244.262 116.925 244.325 116.917 244.435 116.917C244.593 116.917 244.672 116.953 244.672 117.024C244.672 117.064 244.669 117.099 244.661 117.131C244.432 117.976 243.942 118.703 243.191 119.311C242.441 119.919 241.635 120.224 240.774 120.224C239.881 120.224 239.126 119.927 238.51 119.335C237.894 118.742 237.586 117.956 237.586 116.977Z" fill="#132AF4" stroke="#132AF4"/>
</svg>
