<svg width="693" height="866" viewBox="0 0 693 866" fill="none" xmlns="http://www.w3.org/2000/svg">
<path d="M410 349.952H600" stroke="#132AF4" stroke-width="6"/>
<path d="M409 688.952V759.452" stroke="#132AF4" stroke-width="6"/>
<path d="M409 686.174V653.674L344 642.841L474 621.174L344 599.508L474 577.841L344 556.174L474 534.508L344 512.841L474 491.174L344 469.508L474 447.841L409 437.008V404.508" stroke="#132AF4" stroke-width="6"/>
<circle cx="409.389" cy="689.341" r="9.38889" transform="rotate(-90 409.389 689.341)" fill="#132AF4"/>
<circle cx="409" cy="404.119" r="9.38889" transform="rotate(-90 409 404.119)" fill="#132AF4"/>
<path d="M409 291.055V258.555L344 247.722L474 226.055L344 204.389L474 182.722L344 161.055L474 139.389L344 117.722L474 96.0554L344 74.3888L474 52.7221L409 41.8888V9.38876" stroke="#132AF4" stroke-width="6"/>
<circle cx="409.722" cy="291.055" r="9.38889" transform="rotate(-90 409.722 291.055)" fill="#132AF4"/>
<circle cx="409" cy="9.38882" r="9.38889" transform="rotate(-90 409 9.38882)" fill="#132AF4"/>
<path d="M410 403.952L409 290.952" stroke="#132AF4" stroke-width="6"/>
<path d="M294.405 137.448C293.82 137.448 293.473 137.437 293.365 137.415C293.257 137.394 293.202 137.274 293.202 137.058C293.202 136.472 293.322 136.115 293.56 135.985C293.603 135.963 295.489 135.952 299.218 135.952C302.946 135.974 304.962 136.006 305.265 136.05C306.479 136.223 307.498 136.527 308.322 136.96C309.145 137.394 309.731 137.892 310.077 138.456C310.424 139.019 310.652 139.485 310.76 139.854C310.869 140.222 310.934 140.591 310.955 140.959C310.955 141.935 310.641 142.845 310.012 143.691C309.384 144.536 308.658 145.186 307.834 145.641C307.01 146.097 306.284 146.465 305.655 146.747C305.027 147.029 304.615 147.17 304.42 147.17L304.647 147.332C306.1 148.156 306.826 149.348 306.826 150.909C306.826 151.147 306.772 151.808 306.663 152.892C306.555 153.976 306.501 154.865 306.501 155.558V155.851C306.501 156.241 306.512 156.545 306.533 156.761C306.555 156.978 306.674 157.173 306.891 157.347C307.108 157.52 307.389 157.618 307.736 157.639C308.343 157.639 308.842 157.401 309.232 156.924C309.622 156.447 309.904 155.938 310.077 155.396C310.186 155.092 310.272 154.908 310.337 154.843C310.402 154.778 310.565 154.745 310.825 154.745C311.259 154.745 311.475 154.876 311.475 155.136C311.475 155.526 311.215 156.144 310.695 156.989C309.871 158.225 308.896 158.842 307.769 158.842H307.476C306.154 158.842 305.059 158.571 304.192 158.029C303.325 157.488 302.848 156.642 302.762 155.493C302.762 154.908 302.924 153.998 303.249 152.762C303.574 151.527 303.737 150.735 303.737 150.389C303.737 149.283 303.271 148.481 302.339 147.982C302.014 147.831 301.743 147.744 301.526 147.722C301.309 147.701 300.54 147.679 299.218 147.657H296.974L295.934 151.884C295.218 154.745 294.861 156.198 294.861 156.241C294.861 156.328 294.871 156.382 294.893 156.404C294.915 156.425 294.991 156.469 295.121 156.534C295.251 156.599 295.435 156.62 295.673 156.599C295.912 156.577 296.27 156.599 296.746 156.664H297.754C297.884 156.837 297.949 156.935 297.949 156.956C297.949 156.978 297.917 157.173 297.852 157.542C297.765 157.823 297.657 158.029 297.527 158.159H297.039C296.259 158.116 294.839 158.094 292.78 158.094C292.043 158.094 291.36 158.094 290.731 158.094C290.103 158.094 289.604 158.094 289.236 158.094C288.867 158.094 288.639 158.105 288.553 158.127C288.184 158.127 288 158.029 288 157.834C288 157.791 288.033 157.639 288.098 157.379C288.206 156.967 288.314 156.74 288.423 156.696C288.509 156.675 288.672 156.664 288.91 156.664H289.105C289.691 156.664 290.341 156.631 291.056 156.566C291.36 156.501 291.566 156.371 291.674 156.176C291.739 156.089 292.52 153.076 294.015 147.137C295.511 141.198 296.259 138.066 296.259 137.74C296.259 137.589 295.641 137.491 294.405 137.448ZM307.411 140.146C307.411 139.453 307.184 138.868 306.728 138.391C306.273 137.914 305.341 137.61 303.932 137.48C303.889 137.48 303.639 137.48 303.184 137.48C302.729 137.48 302.317 137.469 301.949 137.448H301.233C300.215 137.448 299.629 137.556 299.478 137.773C299.456 137.838 299.087 139.279 298.372 142.097C297.657 144.915 297.299 146.357 297.299 146.422C297.299 146.443 298.047 146.454 299.543 146.454C301.233 146.433 302.361 146.357 302.924 146.227C304.311 146.01 305.395 145.37 306.176 144.308C306.522 143.81 306.815 143.159 307.053 142.357C307.292 141.555 307.411 140.818 307.411 140.146Z" fill="#132AF4" stroke="#132AF4" stroke-width="2"/>
<path d="M315.184 153.175C314.77 153.175 314.441 153.037 314.196 152.761C313.95 152.485 313.828 152.148 313.828 151.75C313.828 150.662 314.234 149.719 315.046 148.922C315.858 148.125 316.87 147.727 318.081 147.727C319.475 147.727 320.64 148.156 321.575 149.014C322.51 149.873 322.985 150.984 323 152.348C323 153.007 322.847 153.635 322.54 154.233C322.234 154.83 321.866 155.351 321.437 155.796C321.008 156.24 320.395 156.807 319.598 157.497C319.046 157.972 318.28 158.677 317.299 159.612L315.943 160.899L317.69 160.922C320.096 160.922 321.376 160.884 321.529 160.807C321.636 160.776 321.82 160.094 322.08 158.761V158.692H323V158.761C322.985 158.807 322.885 159.504 322.701 160.853C322.517 162.202 322.402 162.907 322.356 162.968V163.037H313.828V162.6V162.324C313.828 162.217 313.874 162.102 313.966 161.979C314.058 161.857 314.288 161.589 314.655 161.175C315.1 160.684 315.483 160.255 315.805 159.888C315.943 159.734 316.203 159.451 316.586 159.037C316.97 158.623 317.23 158.34 317.368 158.186C317.506 158.033 317.728 157.78 318.035 157.428C318.341 157.075 318.556 156.815 318.678 156.646C318.801 156.478 318.977 156.248 319.207 155.957C319.437 155.665 319.598 155.42 319.69 155.221C319.782 155.022 319.897 154.8 320.035 154.554C320.172 154.309 320.272 154.064 320.333 153.819C320.395 153.574 320.448 153.344 320.494 153.129C320.54 152.915 320.563 152.662 320.563 152.371C320.563 151.405 320.303 150.57 319.782 149.865C319.261 149.16 318.517 148.807 317.552 148.807C317.046 148.807 316.602 148.938 316.219 149.198C315.835 149.459 315.567 149.712 315.414 149.957C315.261 150.202 315.184 150.348 315.184 150.394C315.184 150.409 315.222 150.417 315.299 150.417C315.575 150.417 315.858 150.524 316.15 150.738C316.441 150.953 316.586 151.305 316.586 151.796C316.586 152.179 316.464 152.501 316.219 152.761C315.973 153.022 315.629 153.16 315.184 153.175Z" fill="#132AF4" stroke="#132AF4" stroke-width="2"/>
<path d="M294.499 532.446C293.905 532.446 293.554 532.435 293.444 532.413C293.334 532.391 293.279 532.272 293.279 532.056C293.279 531.472 293.4 531.115 293.641 530.985C293.685 530.963 295.599 530.952 299.382 530.952C303.165 530.974 305.21 531.006 305.518 531.05C306.75 531.223 307.784 531.526 308.62 531.959C309.455 532.391 310.049 532.889 310.401 533.452C310.753 534.015 310.984 534.48 311.094 534.848C311.204 535.216 311.27 535.584 311.292 535.952C311.292 536.926 310.973 537.835 310.335 538.679C309.697 539.523 308.96 540.172 308.125 540.626C307.289 541.081 306.552 541.449 305.914 541.73C305.276 542.012 304.859 542.152 304.661 542.152L304.891 542.315C306.365 543.137 307.102 544.327 307.102 545.886C307.102 546.124 307.047 546.784 306.937 547.866C306.827 548.948 306.772 549.835 306.772 550.528V550.82C306.772 551.21 306.783 551.513 306.805 551.729C306.827 551.945 306.948 552.14 307.168 552.313C307.388 552.486 307.674 552.584 308.026 552.605C308.641 552.605 309.147 552.367 309.543 551.891C309.939 551.415 310.225 550.907 310.401 550.365C310.511 550.063 310.599 549.879 310.665 549.814C310.731 549.749 310.896 549.716 311.16 549.716C311.6 549.716 311.82 549.846 311.82 550.106C311.82 550.495 311.556 551.112 311.028 551.956C310.192 553.19 309.202 553.807 308.059 553.807H307.762C306.42 553.807 305.309 553.536 304.43 552.995C303.55 552.454 303.066 551.61 302.978 550.463C302.978 549.879 303.143 548.97 303.473 547.736C303.803 546.502 303.968 545.712 303.968 545.366C303.968 544.262 303.495 543.462 302.549 542.964C302.219 542.812 301.944 542.726 301.724 542.704C301.504 542.682 300.724 542.661 299.382 542.639H297.106L296.05 546.859C295.324 549.716 294.961 551.166 294.961 551.21C294.961 551.296 294.972 551.35 294.994 551.372C295.016 551.394 295.093 551.437 295.225 551.502C295.357 551.567 295.544 551.588 295.786 551.567C296.028 551.545 296.391 551.567 296.875 551.632H297.897C298.029 551.805 298.095 551.902 298.095 551.924C298.095 551.945 298.062 552.14 297.996 552.508C297.908 552.789 297.798 552.995 297.666 553.125H297.172C296.38 553.082 294.939 553.06 292.85 553.06C292.102 553.06 291.409 553.06 290.771 553.06C290.133 553.06 289.628 553.06 289.254 553.06C288.88 553.06 288.649 553.071 288.561 553.092C288.187 553.092 288 552.995 288 552.8C288 552.757 288.033 552.605 288.099 552.346C288.209 551.935 288.319 551.707 288.429 551.664C288.517 551.642 288.682 551.632 288.924 551.632H289.122C289.716 551.632 290.375 551.599 291.101 551.534C291.409 551.469 291.618 551.339 291.728 551.145C291.794 551.058 292.586 548.05 294.103 542.12C295.621 536.19 296.38 533.062 296.38 532.738C296.38 532.586 295.753 532.489 294.499 532.446ZM307.696 535.14C307.696 534.447 307.465 533.863 307.003 533.387C306.541 532.911 305.595 532.608 304.166 532.478C304.122 532.478 303.869 532.478 303.407 532.478C302.945 532.478 302.527 532.467 302.153 532.446H301.427C300.394 532.446 299.8 532.554 299.646 532.77C299.624 532.835 299.25 534.274 298.524 537.088C297.798 539.901 297.435 541.341 297.435 541.406C297.435 541.427 298.194 541.438 299.712 541.438C301.427 541.416 302.571 541.341 303.143 541.211C304.551 540.994 305.65 540.356 306.442 539.295C306.794 538.798 307.091 538.148 307.333 537.348C307.575 536.547 307.696 535.811 307.696 535.14Z" fill="#132AF4" stroke="#132AF4" stroke-width="2"/>
<path d="M318.009 544.728L317.705 544.843C317.488 544.92 317.177 544.996 316.772 545.073C316.368 545.149 315.917 545.203 315.419 545.233H314.976V544.178H315.419C316.15 544.147 316.827 544.032 317.449 543.833C318.071 543.634 318.506 543.451 318.755 543.283C319.004 543.114 319.221 542.946 319.408 542.778C319.439 542.732 319.532 542.709 319.688 542.709C319.828 542.709 319.96 542.755 320.084 542.846V549.709L320.108 556.595C320.217 556.702 320.31 556.771 320.388 556.801C320.465 556.832 320.652 556.862 320.947 556.893C321.243 556.924 321.725 556.939 322.394 556.939H323V557.995H322.743C322.417 557.949 321.181 557.926 319.035 557.926C316.92 557.926 315.699 557.949 315.373 557.995H315.093V556.939H315.699C316.041 556.939 316.337 556.939 316.586 556.939C316.835 556.939 317.029 556.931 317.169 556.916C317.309 556.901 317.433 556.878 317.542 556.847C317.651 556.816 317.713 556.801 317.729 556.801C317.744 556.801 317.791 556.763 317.869 556.686C317.946 556.61 317.993 556.579 318.009 556.595V544.728Z" fill="#132AF4" stroke="#132AF4" stroke-width="2"/>
<path d="M347 802.952H467" stroke="#132AF4" stroke-width="6"/>
<path d="M362 832.952H452" stroke="#132AF4" stroke-width="6"/>
<path d="M377 862.952H437" stroke="#132AF4" stroke-width="6"/>
<path d="M409 802.952V757.452" stroke="#132AF4" stroke-width="6"/>
<circle cx="409.389" cy="758.341" r="9.38889" transform="rotate(-90 409.389 758.341)" fill="#132AF4"/>
<path d="M540 522.952H660" stroke="#132AF4" stroke-width="6"/>
<path d="M555 552.952H645" stroke="#132AF4" stroke-width="6"/>
<path d="M570 582.952H630" stroke="#132AF4" stroke-width="6"/>
<path d="M602 522.952V477.452" stroke="#132AF4" stroke-width="6"/>
<circle cx="602.389" cy="478.341" r="9.38889" transform="rotate(-90 602.389 478.341)" fill="#132AF4"/>
<circle cx="600.389" cy="350.341" r="9.38889" transform="rotate(-90 600.389 350.341)" fill="#132AF4"/>
<circle cx="62" cy="349.952" r="57" stroke="#132AF4" stroke-width="6"/>
<path d="M22 350.879C22 350.879 28.5 329.041 44.5 332.952C60.5 336.864 64 363.232 78.5 367.202C93 371.173 103 349.952 103 349.952" stroke="#132AF4" stroke-width="6"/>
<path d="M62 290.952V259.952" stroke="#132AF4" stroke-width="6"/>
<path d="M62 407.952V439.952" stroke="#132AF4" stroke-width="6"/>
<circle cx="62.3889" cy="260.341" r="9.38889" transform="rotate(-90 62.3889 260.341)" fill="#132AF4"/>
<circle cx="62.3889" cy="440.341" r="9.38889" transform="rotate(-90 62.3889 440.341)" fill="#132AF4"/>
<path d="M0 484.952H120" stroke="#132AF4" stroke-width="6"/>
<path d="M15 514.952H105" stroke="#132AF4" stroke-width="6"/>
<path d="M30 544.952H90" stroke="#132AF4" stroke-width="6"/>
<path d="M62 484.952V439.452" stroke="#132AF4" stroke-width="6"/>
<circle cx="62.3889" cy="440.341" r="9.38889" transform="rotate(-90 62.3889 440.341)" fill="#132AF4"/>
<path d="M134 334.8C134 334.026 134.229 333.41 134.686 332.952H135.267C136.745 333.058 138.592 333.111 140.809 333.111C144.962 333.111 147.408 333.058 148.147 332.952H148.674C148.886 333.164 148.991 333.322 148.991 333.427C148.991 333.533 148.956 333.85 148.886 334.378C148.71 334.905 148.551 335.24 148.41 335.381H147.302C146.528 335.451 146 335.486 145.718 335.486C144.698 335.662 144.135 335.926 144.029 336.278C144.029 336.348 144.54 340.765 145.56 349.527C146.581 358.289 147.108 362.706 147.144 362.776L150.997 356.6C153.566 352.483 156.135 348.331 158.704 344.143C161.273 339.955 162.592 337.791 162.663 337.65C162.803 337.404 162.874 337.14 162.874 336.859C162.874 336.014 162.1 335.521 160.551 335.381C159.918 335.381 159.601 335.187 159.601 334.8C159.601 334.765 159.636 334.536 159.707 334.114C159.812 333.621 159.918 333.304 160.023 333.164C160.129 333.023 160.358 332.952 160.71 332.952C160.78 332.952 160.991 332.952 161.343 332.952C161.695 332.952 162.293 332.97 163.138 333.005C163.982 333.04 165.108 333.058 166.516 333.058C168.944 333.058 170.475 333.023 171.108 332.952H171.478C171.724 333.199 171.847 333.392 171.847 333.533C171.847 334.131 171.689 334.694 171.372 335.222C171.267 335.328 170.968 335.381 170.475 335.381C170.017 335.416 169.595 335.451 169.208 335.486C168.821 335.521 168.451 335.609 168.1 335.75C167.748 335.891 167.466 336.014 167.255 336.12C167.044 336.225 166.833 336.366 166.622 336.542C166.41 336.718 166.234 336.841 166.094 336.911C165.953 336.982 165.812 337.14 165.671 337.386C165.531 337.633 165.407 337.756 165.302 337.756L155.114 354.119C148.78 364.36 145.507 369.603 145.296 369.85C145.191 369.92 145.067 370.008 144.927 370.113L143.976 370.166H143.607C142.974 370.166 142.657 370.043 142.657 369.797C142.551 369.586 141.865 363.955 140.598 352.905C139.261 341.715 138.575 336.067 138.54 335.961C138.364 335.574 137.273 335.381 135.267 335.381H134.369C134.123 335.205 134 335.011 134 334.8Z" fill="#132AF4" stroke="#132AF4" stroke-width="2"/>
<path d="M170.638 354.531C170.638 353.933 170.874 353.411 171.347 352.963C171.82 352.515 172.367 352.279 172.989 352.254C173.437 352.254 173.81 352.403 174.109 352.702C174.407 353 174.569 353.374 174.594 353.821C174.594 354.394 174.345 354.916 173.847 355.389C173.35 355.862 172.802 356.11 172.205 356.135C171.832 356.135 171.484 356.011 171.16 355.762C170.837 355.513 170.663 355.103 170.638 354.531ZM164.555 366.212C164.555 366.013 164.667 365.627 164.891 365.055C165.115 364.482 165.413 363.848 165.786 363.151C166.16 362.455 166.707 361.82 167.428 361.248C168.15 360.676 168.896 360.402 169.668 360.427C170.638 360.427 171.446 360.713 172.093 361.285C172.74 361.858 173.076 362.629 173.101 363.599C173.101 364.022 172.927 364.719 172.578 365.689C172.23 366.659 171.733 367.966 171.086 369.608C170.439 371.25 169.916 372.655 169.518 373.825C169.394 374.372 169.332 374.77 169.332 375.019C169.332 375.641 169.543 375.952 169.966 375.952C170.19 375.952 170.426 375.915 170.675 375.84C170.924 375.765 171.21 375.591 171.534 375.318C171.857 375.044 172.193 374.608 172.541 374.011C172.889 373.414 173.2 372.68 173.474 371.809C173.549 371.511 173.611 371.337 173.661 371.287C173.711 371.237 173.922 371.212 174.295 371.212C174.793 371.212 175.042 371.337 175.042 371.586C175.042 371.785 174.93 372.17 174.706 372.742C174.482 373.315 174.171 373.949 173.773 374.646C173.375 375.342 172.815 375.964 172.093 376.512C171.372 377.059 170.601 377.333 169.78 377.333C168.983 377.333 168.249 377.072 167.578 376.549C166.906 376.027 166.558 375.23 166.533 374.161C166.533 373.738 166.595 373.34 166.719 372.966C166.844 372.593 167.379 371.175 168.324 368.712C169.27 366.199 169.817 364.694 169.966 364.196C170.115 363.699 170.202 363.214 170.227 362.741C170.227 362.144 170.016 361.845 169.593 361.845H169.518C168.772 361.845 168.088 362.256 167.466 363.077C166.844 363.898 166.371 364.943 166.048 366.212C166.023 366.236 165.998 366.274 165.973 366.324C165.948 366.373 165.936 366.411 165.936 366.435C165.936 366.46 165.911 366.485 165.861 366.51C165.811 366.535 165.774 366.547 165.749 366.547C165.724 366.547 165.674 366.547 165.6 366.547C165.525 366.547 165.426 366.547 165.301 366.547H164.779C164.629 366.398 164.555 366.286 164.555 366.212Z" fill="#132AF4" stroke="#132AF4" stroke-width="2"/>
<path d="M177.43 366.212C177.455 366.062 177.492 365.863 177.542 365.614C177.592 365.366 177.741 364.893 177.99 364.196C178.239 363.5 178.487 362.915 178.736 362.442C178.985 361.97 179.396 361.509 179.968 361.061C180.54 360.614 181.112 360.402 181.684 360.427C182.58 360.427 183.327 360.651 183.924 361.099C184.521 361.547 184.894 361.97 185.043 362.368C185.193 362.766 185.267 363.027 185.267 363.151C185.267 363.201 185.28 363.226 185.304 363.226L185.715 362.815C187.233 361.223 188.962 360.427 190.902 360.427C192.246 360.427 193.328 360.763 194.149 361.435C194.97 362.106 195.393 363.089 195.418 364.383C195.443 365.677 194.97 367.63 194 370.242C193.03 372.854 192.557 374.434 192.582 374.982C192.582 375.629 192.793 375.952 193.216 375.952C193.365 375.952 193.477 375.94 193.552 375.915C194.274 375.79 194.92 375.318 195.493 374.496C196.065 373.675 196.5 372.68 196.799 371.511C196.849 371.312 197.097 371.212 197.545 371.212C198.043 371.212 198.292 371.312 198.292 371.511C198.292 371.536 198.242 371.722 198.142 372.071C197.943 372.792 197.67 373.501 197.321 374.198C196.973 374.895 196.401 375.591 195.605 376.288C194.808 376.984 193.95 377.32 193.03 377.295C191.86 377.295 191.014 376.96 190.492 376.288C189.969 375.616 189.708 374.919 189.708 374.198C189.708 373.725 190.156 372.232 191.052 369.72C191.947 367.207 192.408 365.316 192.432 364.047C192.432 362.579 191.885 361.845 190.79 361.845H190.604C188.464 361.845 186.66 363.102 185.193 365.614L184.931 366.062L183.7 371.063C182.879 374.322 182.406 376.076 182.282 376.325C181.958 376.997 181.423 377.333 180.677 377.333C180.353 377.333 180.092 377.258 179.893 377.109C179.694 376.96 179.557 376.81 179.483 376.661C179.408 376.512 179.383 376.387 179.408 376.288C179.408 375.964 179.881 373.937 180.826 370.205C181.772 366.473 182.269 364.445 182.319 364.122C182.344 363.997 182.356 363.711 182.356 363.263C182.356 362.293 182.058 361.808 181.461 361.808C180.515 361.808 179.731 363.052 179.109 365.54C178.96 366.037 178.886 366.299 178.886 366.324C178.836 366.473 178.599 366.547 178.176 366.547H177.654C177.505 366.398 177.43 366.286 177.43 366.212Z" fill="#132AF4" stroke="#132AF4" stroke-width="2"/>
<path d="M62 260.952V9.95239H409" stroke="#132AF4" stroke-width="6"/>
<path d="M610 396.8C610 396.026 610.229 395.41 610.686 394.952H611.267C612.745 395.058 614.592 395.111 616.809 395.111C620.962 395.111 623.407 395.058 624.146 394.952H624.674C624.885 395.164 624.991 395.322 624.991 395.428C624.991 395.533 624.956 395.85 624.885 396.378C624.709 396.905 624.551 397.24 624.41 397.381H623.302C622.528 397.451 622 397.486 621.718 397.486C620.698 397.662 620.135 397.926 620.029 398.278C620.029 398.348 620.539 402.765 621.56 411.527C622.58 420.289 623.108 424.705 623.143 424.776L626.997 418.6C629.565 414.483 632.134 410.33 634.703 406.143C637.272 401.955 638.592 399.791 638.662 399.65C638.803 399.404 638.873 399.14 638.873 398.859C638.873 398.014 638.099 397.521 636.551 397.381C635.917 397.381 635.6 397.187 635.6 396.8C635.6 396.765 635.636 396.536 635.706 396.114C635.812 395.621 635.917 395.304 636.023 395.164C636.128 395.023 636.357 394.952 636.709 394.952C636.779 394.952 636.99 394.952 637.342 394.952C637.694 394.952 638.292 394.97 639.137 395.005C639.982 395.04 641.108 395.058 642.515 395.058C644.943 395.058 646.474 395.023 647.108 394.952H647.477C647.723 395.199 647.846 395.392 647.846 395.533C647.846 396.131 647.688 396.694 647.371 397.222C647.266 397.328 646.967 397.381 646.474 397.381C646.017 397.416 645.594 397.451 645.207 397.486C644.82 397.521 644.451 397.609 644.099 397.75C643.747 397.891 643.465 398.014 643.254 398.12C643.043 398.225 642.832 398.366 642.621 398.542C642.41 398.718 642.234 398.841 642.093 398.911C641.952 398.982 641.811 399.14 641.671 399.386C641.53 399.633 641.407 399.756 641.301 399.756L631.114 416.119C624.78 426.359 621.507 431.602 621.296 431.849C621.19 431.919 621.067 432.007 620.926 432.113L619.976 432.166H619.607C618.973 432.166 618.657 432.042 618.657 431.796C618.551 431.585 617.865 425.955 616.598 414.905C615.261 403.715 614.575 398.067 614.539 397.961C614.364 397.574 613.273 397.381 611.267 397.381H610.369C610.123 397.205 610 397.011 610 396.8Z" fill="#132AF4" stroke="#132AF4" stroke-width="2"/>
<path d="M647.272 439.332C645.406 439.332 643.9 438.722 642.756 437.503C641.612 436.284 641.039 434.816 641.039 433.1C641.039 431.483 641.412 429.953 642.159 428.51C642.905 427.067 643.925 425.81 645.219 424.74C647.11 423.223 649.038 422.464 651.003 422.464C651.8 422.464 652.297 422.476 652.496 422.501C652.82 422.576 653.143 422.663 653.466 422.763C653.79 422.862 654.225 423.061 654.773 423.36C655.32 423.658 655.768 424.031 656.116 424.479C656.464 424.927 656.788 425.537 657.086 426.308C657.385 427.079 657.534 427.95 657.534 428.92C657.534 431.582 656.464 433.983 654.325 436.123C652.185 438.262 649.834 439.332 647.272 439.332ZM644.286 434.443C644.286 435.687 644.609 436.583 645.256 437.13C645.903 437.678 646.637 437.951 647.458 437.951C648.553 437.951 649.585 437.553 650.556 436.757C651.526 435.961 652.297 434.916 652.869 433.622C653.093 433.1 653.379 432.179 653.728 430.861C654.076 429.542 654.25 428.398 654.25 427.427C654.25 426.333 654.026 425.499 653.578 424.927C652.981 424.181 652.185 423.807 651.19 423.807C649.623 423.807 648.242 424.529 647.048 425.972C646.127 427.067 645.443 428.522 644.995 430.338C644.547 432.154 644.311 433.523 644.286 434.443Z" fill="#132AF4" stroke="#132AF4" stroke-width="2"/>
<path d="M658.654 428.211C658.654 428.012 658.766 427.626 658.99 427.054C659.214 426.482 659.525 425.835 659.923 425.114C660.321 424.392 660.868 423.77 661.565 423.248C662.261 422.725 662.995 422.452 663.766 422.427C664.911 422.427 665.769 422.738 666.341 423.36C666.914 423.982 667.2 424.716 667.2 425.561C667.2 426.009 666.777 427.403 665.931 429.741C665.085 432.08 664.662 433.834 664.662 435.003C664.662 436.073 664.836 436.819 665.185 437.242C665.533 437.665 666.055 437.889 666.752 437.914C667.449 437.939 668.108 437.727 668.73 437.28C669.352 436.832 669.812 436.409 670.111 436.011L670.521 435.376C670.571 435.277 671.044 433.386 671.939 429.704C672.686 426.718 673.133 424.977 673.283 424.479C673.432 423.982 673.606 423.621 673.805 423.397C674.228 423.024 674.676 422.837 675.149 422.837C675.572 422.837 675.883 422.962 676.082 423.21C676.281 423.459 676.38 423.696 676.38 423.919L673.544 435.787C673.519 435.911 673.507 436.11 673.507 436.384C673.507 437.006 673.594 437.416 673.768 437.615C673.942 437.814 674.203 437.926 674.552 437.951C675.099 437.877 675.534 437.491 675.858 436.794C676.181 436.098 676.554 435.003 676.977 433.51C677.027 433.311 677.276 433.212 677.724 433.212C678.196 433.212 678.433 433.324 678.433 433.548C678.408 433.672 678.383 433.846 678.358 434.07C678.333 434.294 678.221 434.692 678.022 435.264C677.823 435.837 677.612 436.371 677.388 436.869C677.164 437.367 676.853 437.839 676.455 438.287C676.057 438.735 675.609 439.046 675.111 439.22C674.912 439.27 674.614 439.295 674.216 439.295C672.574 439.295 671.442 438.598 670.82 437.205C670.77 437.23 670.633 437.354 670.409 437.578C670.185 437.802 669.961 437.989 669.737 438.138C669.514 438.287 669.24 438.474 668.916 438.698C668.593 438.922 668.232 439.071 667.834 439.145C667.436 439.22 667.013 439.282 666.565 439.332C665.471 439.332 664.5 439.108 663.655 438.66C662.361 437.889 661.714 436.57 661.714 434.705C661.714 433.286 662.149 431.433 663.02 429.144C663.891 426.855 664.326 425.4 664.326 424.778C664.326 424.753 664.326 424.728 664.326 424.703C664.326 424.479 664.326 424.33 664.326 424.255C664.326 424.181 664.276 424.094 664.177 423.994C664.077 423.895 663.941 423.845 663.766 423.845H663.617C663.045 423.845 662.523 424.081 662.05 424.554C661.577 425.027 661.204 425.537 660.93 426.084C660.657 426.631 660.445 427.154 660.296 427.651C660.147 428.149 660.047 428.423 659.997 428.472C659.948 428.522 659.748 428.547 659.4 428.547H658.878C658.728 428.398 658.654 428.286 658.654 428.211Z" fill="#132AF4" stroke="#132AF4" stroke-width="2"/>
<path d="M680.187 424.554C680.012 424.38 679.925 424.255 679.925 424.181C679.925 424.081 679.963 423.882 680.037 423.584C680.112 423.285 680.174 423.111 680.224 423.061C680.274 422.937 680.386 422.875 680.56 422.875C680.734 422.875 681.368 422.862 682.463 422.837H684.441L685.15 419.852C685.225 419.578 685.312 419.217 685.411 418.769C685.511 418.322 685.598 417.998 685.672 417.799C685.747 417.6 685.822 417.351 685.896 417.053C685.971 416.754 686.07 416.543 686.195 416.418C686.319 416.294 686.444 416.145 686.568 415.971C686.692 415.796 686.867 415.684 687.09 415.635C687.314 415.585 687.538 415.56 687.762 415.56C688.21 415.585 688.521 415.722 688.695 415.971C688.869 416.219 688.956 416.456 688.956 416.68C688.956 416.854 688.844 417.438 688.621 418.434C688.397 419.429 688.148 420.411 687.874 421.382L687.501 422.763C687.501 422.812 688.123 422.837 689.367 422.837H691.27C691.444 423.011 691.531 423.148 691.531 423.248C691.531 423.795 691.37 424.23 691.046 424.554H687.053L685.71 429.965C684.739 433.946 684.254 436.085 684.254 436.384C684.254 437.429 684.59 437.951 685.262 437.951C686.133 437.951 686.979 437.528 687.8 436.682C688.621 435.837 689.28 434.792 689.777 433.548C689.827 433.398 689.889 433.311 689.964 433.286C690.039 433.262 690.225 433.237 690.524 433.212H690.673C691.046 433.212 691.233 433.311 691.233 433.51C691.233 433.585 691.196 433.734 691.121 433.958C690.996 434.356 690.773 434.829 690.449 435.376C690.126 435.924 689.703 436.508 689.18 437.13C688.658 437.752 688.023 438.275 687.277 438.698C686.531 439.121 685.772 439.332 685.001 439.332C684.254 439.332 683.545 439.145 682.873 438.772C682.202 438.399 681.717 437.752 681.418 436.832C681.368 436.633 681.343 436.297 681.343 435.824V435.152L682.65 429.928C683.52 426.42 683.968 424.653 683.993 424.628C683.993 424.579 683.359 424.554 682.09 424.554H680.187Z" fill="#132AF4" stroke="#132AF4" stroke-width="2"/>
</svg>
