<svg width="1915" height="2181" viewBox="0 0 1915 2181" fill="none" xmlns="http://www.w3.org/2000/svg">
<path d="M923 1354V880.495" stroke="#132AF4" stroke-width="15"/>
<path d="M923 1801V1756L833 1741L1013 1711L833 1681L1013 1651L833 1621L1013 1591L833 1561L1013 1531L833 1501L1013 1471L923 1456V1411" stroke="#132AF4" stroke-width="15"/>
<path d="M923.374 1342C942.704 1342 958.374 1357.67 958.374 1377C958.374 1396.33 942.704 1412 923.374 1412C904.044 1412 888.374 1396.33 888.374 1377C888.374 1357.67 904.044 1342 923.374 1342Z" fill="#132AF4"/>
<circle cx="923" cy="1835" r="35" transform="rotate(-90 923 1835)" fill="#132AF4"/>
<path d="M923 124.495V253.495" stroke="#132AF4" stroke-width="15"/>
<path d="M753 106.995H1094" stroke="#132AF4" stroke-width="35"/>
<path d="M822 2014.99H1025" stroke="#132AF4" stroke-width="35"/>
<path d="M857 2093.99H988" stroke="#132AF4" stroke-width="35"/>
<path d="M880 2162.99H966" stroke="#132AF4" stroke-width="35"/>
<path d="M922.692 1997.99V1868.99" stroke="#132AF4" stroke-width="15"/>
<path d="M923 1799.99C942.33 1799.99 958 1815.66 958 1834.99C958 1854.32 942.33 1869.99 923 1869.99C903.67 1869.99 888 1854.32 888 1834.99C888 1815.66 903.67 1799.99 923 1799.99Z" fill="#132AF4"/>
<path d="M923 253.495V371.995" stroke="#132AF4" stroke-width="15"/>
<path d="M695.5 430V790" stroke="#132AF4" stroke-width="35"/>
<path d="M610 474V746" stroke="#132AF4" stroke-width="35"/>
<path d="M907 700H793.402H712.5" stroke="#132AF4" stroke-width="15"/>
<path d="M907 700H923V880" stroke="#132AF4" stroke-width="15"/>
<path d="M909.5 520H923V340" stroke="#132AF4" stroke-width="15"/>
<path d="M592.5 610H419" stroke="#132AF4" stroke-width="15"/>
<circle cx="385" cy="610" r="27.5" transform="rotate(-90 385 610)" stroke="#132AF4" stroke-width="15"/>
<path d="M721.574 520.19L841.679 559.894C841.822 559.941 841.894 559.965 841.937 559.927C841.98 559.89 841.966 559.816 841.938 559.668L834.598 520L841.938 480.332C841.966 480.184 841.98 480.11 841.937 480.073C841.894 480.035 841.822 480.059 841.679 480.106L721.574 519.81C721.337 519.889 721.219 519.928 721.219 520C721.219 520.072 721.337 520.111 721.574 520.19Z" fill="#132AF4"/>
<path d="M834.598 520L841.938 480.332C841.966 480.184 841.98 480.11 841.937 480.073C841.894 480.035 841.822 480.059 841.679 480.106L721.574 519.81C721.337 519.889 721.219 519.928 721.219 520C721.219 520.072 721.337 520.111 721.574 520.19L841.679 559.894C841.822 559.941 841.894 559.965 841.937 559.927C841.98 559.89 841.966 559.816 841.938 559.668L834.598 520ZM834.598 520H915.5" stroke="#132AF4" stroke-width="15"/>
<path d="M713 609.5H1001.5V217H925" stroke="#132AF4" stroke-width="15"/>
<path d="M923.5 1089.99H1374.5" stroke="#132AF4" stroke-width="15"/>
<circle cx="1408.5" cy="1089.99" r="27.5" transform="rotate(90 1408.5 1089.99)" stroke="#132AF4" stroke-width="15"/>
<path d="M923 1054.99C942.33 1054.99 958 1070.66 958 1089.99C958 1109.32 942.33 1124.99 923 1124.99C903.67 1124.99 888 1109.32 888 1089.99C888 1070.66 903.67 1054.99 923 1054.99Z" fill="#132AF4"/>
<path d="M1170 16.3158C1170 12.8311 1171.03 10.0591 1173.09 7.99997H1175.7C1182.36 8.47516 1190.67 8.71276 1200.65 8.71276C1219.34 8.71276 1230.35 8.47516 1233.68 7.99997H1236.05C1237 8.95035 1237.48 9.66314 1237.48 10.1383C1237.48 10.6135 1237.32 12.0391 1237 14.4151C1236.21 16.791 1235.5 18.2958 1234.87 18.9294H1229.88C1226.39 19.2462 1224.02 19.4046 1222.75 19.4046C1218.15 20.1965 1215.62 21.3845 1215.15 22.9685C1215.15 23.2853 1217.44 43.1641 1222.04 82.605C1226.63 122.046 1229 141.925 1229.16 142.241L1246.51 114.443C1258.07 95.9104 1269.63 77.2195 1281.2 58.3702C1292.76 39.521 1298.7 29.7796 1299.02 29.146C1299.65 28.0372 1299.97 26.8492 1299.97 25.582C1299.97 21.7805 1296.48 19.563 1289.51 18.9294C1286.66 18.9294 1285.24 18.0582 1285.24 16.3158C1285.24 16.1574 1285.39 15.1278 1285.71 13.2271C1286.19 11.0095 1286.66 9.58394 1287.14 8.95035C1287.61 8.31677 1288.64 7.99997 1290.23 7.99997C1290.54 7.99997 1291.49 7.99997 1293.08 7.99997C1294.66 7.99997 1297.35 8.07917 1301.15 8.23757C1304.96 8.39596 1310.02 8.47516 1316.36 8.47516C1327.29 8.47516 1334.18 8.31677 1337.03 7.99997H1338.69C1339.8 9.10875 1340.36 9.97994 1340.36 10.6135C1340.36 13.3063 1339.65 15.8406 1338.22 18.2166C1337.74 18.6918 1336.4 18.9294 1334.18 18.9294C1332.12 19.0878 1330.22 19.2462 1328.48 19.4046C1326.74 19.563 1325.07 19.959 1323.49 20.5925C1321.9 21.2261 1320.64 21.7805 1319.69 22.2557C1318.74 22.7309 1317.79 23.3645 1316.84 24.1565C1315.89 24.9485 1315.09 25.5028 1314.46 25.8196C1313.83 26.1364 1313.19 26.8492 1312.56 27.958C1311.93 29.0668 1311.37 29.6212 1310.9 29.6212L1265.04 103.276C1236.53 149.369 1221.8 172.971 1220.85 174.079C1220.37 174.396 1219.82 174.792 1219.18 175.267L1214.91 175.505H1213.24C1210.39 175.505 1208.97 174.95 1208.97 173.842C1208.49 172.891 1205.4 147.548 1199.7 97.8111C1193.68 47.4408 1190.59 22.0181 1190.44 21.5429C1189.64 19.8006 1184.73 18.9294 1175.7 18.9294H1171.67C1170.56 18.1374 1170 17.2662 1170 16.3158Z" fill="#132AF4" stroke="#132AF4" stroke-width="15"/>
<path d="M1352.22 100.426C1352.22 99.6425 1349.02 99.1386 1342.64 98.9146C1340.07 98.9146 1338.39 98.8586 1337.6 98.7467C1336.82 98.6347 1336.43 98.1307 1336.43 97.2348C1336.43 96.3389 1336.65 95.2191 1337.1 93.8752C1337.55 92.5314 1337.94 91.6915 1338.27 91.3555C1338.5 91.2435 1349.64 91.1875 1371.7 91.1875C1390.4 91.2995 1400.87 91.3555 1403.11 91.3555C1405.35 91.3555 1407.59 91.6915 1409.83 92.3634C1417.9 94.2672 1424.73 98.6907 1430.33 105.634C1435.93 112.577 1438.78 121.872 1438.89 133.519C1438.89 150.988 1432.9 166.667 1420.92 180.553C1408.94 194.439 1394.83 202.726 1378.59 205.414L1376.24 205.75L1343.65 205.918H1325H1316.1C1313.41 205.918 1311.68 205.806 1310.89 205.582C1310.11 205.358 1309.66 204.854 1309.55 204.07C1309.55 203.846 1309.72 203.062 1310.05 201.718C1310.5 199.927 1310.95 198.919 1311.4 198.695C1311.84 198.471 1313.13 198.303 1315.26 198.191C1318.28 198.191 1321.64 198.023 1325.34 197.687C1326.91 197.351 1327.97 196.679 1328.53 195.671C1328.87 195.223 1332.9 179.657 1340.63 148.973C1348.35 118.288 1352.22 102.106 1352.22 100.426ZM1422.1 127.135C1422.1 122.88 1421.48 119.072 1420.25 115.713C1419.02 112.353 1417.56 109.721 1415.88 107.818C1414.2 105.914 1412.13 104.29 1409.66 102.946C1407.2 101.602 1405.02 100.706 1403.11 100.258C1401.21 99.8105 1399.25 99.4186 1397.23 99.0826C1397.01 99.0826 1396.23 99.0826 1394.88 99.0826C1393.54 99.0826 1391.92 99.0826 1390.01 99.0826C1388.11 99.0826 1386.26 99.0266 1384.47 98.9146H1377.24C1372.32 98.9146 1369.52 99.4746 1368.85 100.594C1368.62 101.042 1364.53 117.168 1356.58 148.973C1348.63 180.777 1344.66 196.847 1344.66 197.183C1344.66 197.631 1345.27 197.855 1346.5 197.855C1347.74 197.855 1352.05 197.911 1359.44 198.023C1360 198.023 1361.06 198.023 1362.63 198.023C1364.2 198.023 1365.54 198.079 1366.66 198.191C1380.77 198.191 1392.42 193.599 1401.6 184.417C1405.63 180.385 1408.94 175.682 1411.51 170.306C1414.09 164.931 1416.5 157.82 1418.74 148.973C1420.98 140.126 1422.1 132.847 1422.1 127.135Z" fill="#132AF4" stroke="#132AF4" stroke-width="15"/>
<path d="M1491.3 100.426C1491.3 99.6425 1488.11 99.1386 1481.73 98.9146C1479.15 98.9146 1477.47 98.8586 1476.69 98.7467C1475.9 98.6347 1475.51 98.1307 1475.51 97.2348C1475.51 96.3389 1475.74 95.2191 1476.18 93.8752C1476.63 92.5314 1477.02 91.6915 1477.36 91.3555C1477.58 91.2435 1488.73 91.1875 1510.79 91.1875C1529.49 91.2995 1539.96 91.3555 1542.2 91.3555C1544.44 91.3555 1546.68 91.6915 1548.92 92.3634C1556.98 94.2672 1563.81 98.6907 1569.41 105.634C1575.01 112.577 1577.87 121.872 1577.98 133.519C1577.98 150.988 1571.99 166.667 1560.01 180.553C1548.02 194.439 1533.91 202.726 1517.67 205.414L1515.32 205.75L1482.73 205.918H1464.09H1455.19C1452.5 205.918 1450.76 205.806 1449.98 205.582C1449.19 205.358 1448.75 204.854 1448.63 204.07C1448.63 203.846 1448.8 203.062 1449.14 201.718C1449.59 199.927 1450.03 198.919 1450.48 198.695C1450.93 198.471 1452.22 198.303 1454.35 198.191C1457.37 198.191 1460.73 198.023 1464.42 197.687C1465.99 197.351 1467.06 196.679 1467.62 195.671C1467.95 195.223 1471.98 179.657 1479.71 148.973C1487.44 118.288 1491.3 102.106 1491.3 100.426ZM1561.18 127.135C1561.18 122.88 1560.57 119.072 1559.33 115.713C1558.1 112.353 1556.65 109.721 1554.97 107.818C1553.29 105.914 1551.21 104.29 1548.75 102.946C1546.29 101.602 1544.1 100.706 1542.2 100.258C1540.3 99.8105 1538.34 99.4186 1536.32 99.0826C1536.1 99.0826 1535.31 99.0826 1533.97 99.0826C1532.62 99.0826 1531 99.0826 1529.1 99.0826C1527.19 99.0826 1525.35 99.0266 1523.55 98.9146H1516.33C1511.4 98.9146 1508.6 99.4746 1507.93 100.594C1507.71 101.042 1503.62 117.168 1495.67 148.973C1487.72 180.777 1483.74 196.847 1483.74 197.183C1483.74 197.631 1484.36 197.855 1485.59 197.855C1486.82 197.855 1491.13 197.911 1498.52 198.023C1499.08 198.023 1500.15 198.023 1501.72 198.023C1503.28 198.023 1504.63 198.079 1505.75 198.191C1519.86 198.191 1531.5 193.599 1540.69 184.417C1544.72 180.385 1548.02 175.682 1550.6 170.306C1553.17 164.931 1555.58 157.82 1557.82 148.973C1560.06 140.126 1561.18 132.847 1561.18 127.135Z" fill="#132AF4" stroke="#132AF4" stroke-width="15"/>
<path d="M1105.81 1517.93C1101.53 1517.93 1099 1517.85 1098.2 1517.69C1097.41 1517.53 1097.02 1516.66 1097.02 1515.08C1097.02 1510.8 1097.89 1508.19 1099.63 1507.24C1099.95 1507.08 1113.73 1507 1140.97 1507C1168.21 1507.16 1182.95 1507.4 1185.16 1507.71C1194.03 1508.98 1201.48 1511.2 1207.5 1514.37C1213.52 1517.53 1217.79 1521.18 1220.33 1525.3C1222.86 1529.41 1224.52 1532.82 1225.32 1535.51C1226.11 1538.2 1226.58 1540.9 1226.74 1543.59C1226.74 1550.72 1224.45 1557.37 1219.85 1563.55C1215.26 1569.73 1209.95 1574.48 1203.93 1577.8C1197.91 1581.13 1192.61 1583.82 1188.01 1585.88C1183.42 1587.94 1180.41 1588.97 1178.99 1588.97L1180.65 1590.16C1191.26 1596.18 1196.57 1604.89 1196.57 1616.29C1196.57 1618.04 1196.17 1622.87 1195.38 1630.79C1194.59 1638.71 1194.19 1645.2 1194.19 1650.27V1652.41C1194.19 1655.26 1194.27 1657.48 1194.43 1659.06C1194.59 1660.65 1195.46 1662.07 1197.04 1663.34C1198.63 1664.61 1200.69 1665.32 1203.22 1665.48C1207.66 1665.48 1211.3 1663.73 1214.15 1660.25C1217 1656.76 1219.06 1653.04 1220.33 1649.08C1221.12 1646.86 1221.75 1645.52 1222.23 1645.04C1222.7 1644.57 1223.89 1644.33 1225.79 1644.33C1228.96 1644.33 1230.54 1645.28 1230.54 1647.18C1230.54 1650.03 1228.64 1654.55 1224.84 1660.72C1218.82 1669.75 1211.69 1674.27 1203.46 1674.27H1201.32C1191.66 1674.27 1183.66 1672.29 1177.32 1668.33C1170.99 1664.37 1167.5 1658.19 1166.87 1649.8C1166.87 1645.52 1168.06 1638.87 1170.43 1629.84C1172.81 1620.81 1174 1615.03 1174 1612.49C1174 1604.41 1170.59 1598.55 1163.78 1594.91C1161.4 1593.8 1159.42 1593.17 1157.84 1593.01C1156.26 1592.85 1150.63 1592.69 1140.97 1592.53H1124.58L1116.97 1623.42C1111.75 1644.33 1109.13 1654.94 1109.13 1655.26C1109.13 1655.89 1109.21 1656.29 1109.37 1656.45C1109.53 1656.61 1110.08 1656.92 1111.03 1657.4C1111.98 1657.87 1113.33 1658.03 1115.07 1657.87C1116.81 1657.72 1119.43 1657.87 1122.91 1658.35H1130.28C1131.23 1659.62 1131.7 1660.33 1131.7 1660.49C1131.7 1660.65 1131.47 1662.07 1130.99 1664.76C1130.36 1666.82 1129.57 1668.33 1128.62 1669.28H1125.05C1119.35 1668.96 1108.97 1668.8 1093.93 1668.8C1088.54 1668.8 1083.55 1668.8 1078.96 1668.8C1074.36 1668.8 1070.72 1668.8 1068.03 1668.8C1065.34 1668.8 1063.67 1668.88 1063.04 1669.04C1060.35 1669.04 1059 1668.33 1059 1666.9C1059 1666.59 1059.24 1665.48 1059.71 1663.58C1060.5 1660.57 1061.3 1658.9 1062.09 1658.59C1062.72 1658.43 1063.91 1658.35 1065.65 1658.35H1067.08C1071.35 1658.35 1076.11 1658.11 1081.33 1657.64C1083.55 1657.16 1085.06 1656.21 1085.85 1654.78C1086.32 1654.15 1092.03 1632.13 1102.96 1588.73C1113.88 1545.33 1119.35 1522.44 1119.35 1520.07C1119.35 1518.96 1114.83 1518.25 1105.81 1517.93ZM1200.84 1537.65C1200.84 1532.58 1199.18 1528.3 1195.86 1524.82C1192.53 1521.34 1185.72 1519.12 1175.42 1518.17C1175.11 1518.17 1173.28 1518.17 1169.96 1518.17C1166.63 1518.17 1163.62 1518.09 1160.93 1517.93H1155.7C1148.26 1517.93 1143.98 1518.72 1142.87 1520.31C1142.71 1520.78 1140.02 1531.31 1134.79 1551.91C1129.57 1572.5 1126.95 1583.03 1126.95 1583.51C1126.95 1583.66 1132.42 1583.74 1143.35 1583.74C1155.7 1583.59 1163.94 1583.03 1168.06 1582.08C1178.19 1580.5 1186.11 1575.82 1191.82 1568.06C1194.35 1564.42 1196.49 1559.67 1198.23 1553.81C1199.97 1547.95 1200.84 1542.56 1200.84 1537.65Z" fill="#132AF4" stroke="#132AF4" stroke-width="15"/>
<path d="M1287.54 1599.43C1287.54 1598.64 1284.35 1598.14 1277.97 1597.92C1275.39 1597.92 1273.71 1597.86 1272.93 1597.75C1272.14 1597.64 1271.75 1597.13 1271.75 1596.24C1271.75 1595.34 1271.98 1594.22 1272.42 1592.88C1272.87 1591.53 1273.26 1590.69 1273.6 1590.36C1273.82 1590.24 1284.97 1590.19 1307.03 1590.19C1325.73 1590.3 1336.2 1590.36 1338.44 1590.36C1340.68 1590.36 1342.92 1590.69 1345.16 1591.36C1353.22 1593.27 1360.05 1597.69 1365.65 1604.63C1371.25 1611.58 1374.11 1620.87 1374.22 1632.52C1374.22 1649.99 1368.23 1665.67 1356.25 1679.55C1344.26 1693.44 1330.15 1701.73 1313.91 1704.41L1311.56 1704.75L1278.97 1704.92H1260.33H1251.43C1248.74 1704.92 1247 1704.81 1246.22 1704.58C1245.43 1704.36 1244.99 1703.85 1244.88 1703.07C1244.88 1702.85 1245.04 1702.06 1245.38 1700.72C1245.83 1698.93 1246.27 1697.92 1246.72 1697.7C1247.17 1697.47 1248.46 1697.3 1250.59 1697.19C1253.61 1697.19 1256.97 1697.02 1260.67 1696.69C1262.23 1696.35 1263.3 1695.68 1263.86 1694.67C1264.19 1694.22 1268.22 1678.66 1275.95 1647.97C1283.68 1617.29 1287.54 1601.11 1287.54 1599.43ZM1357.42 1626.14C1357.42 1621.88 1356.81 1618.07 1355.57 1614.71C1354.34 1611.35 1352.89 1608.72 1351.21 1606.82C1349.53 1604.91 1347.45 1603.29 1344.99 1601.95C1342.53 1600.6 1340.34 1599.71 1338.44 1599.26C1336.54 1598.81 1334.58 1598.42 1332.56 1598.08C1332.34 1598.08 1331.55 1598.08 1330.21 1598.08C1328.87 1598.08 1327.24 1598.08 1325.34 1598.08C1323.43 1598.08 1321.59 1598.03 1319.79 1597.92H1312.57C1307.64 1597.92 1304.84 1598.48 1304.17 1599.59C1303.95 1600.04 1299.86 1616.17 1291.91 1647.97C1283.96 1679.78 1279.98 1695.85 1279.98 1696.18C1279.98 1696.63 1280.6 1696.86 1281.83 1696.86C1283.06 1696.86 1287.37 1696.91 1294.77 1697.02C1295.33 1697.02 1296.39 1697.02 1297.96 1697.02C1299.52 1697.02 1300.87 1697.08 1301.99 1697.19C1316.1 1697.19 1327.75 1692.6 1336.93 1683.42C1340.96 1679.39 1344.26 1674.68 1346.84 1669.31C1349.41 1663.93 1351.82 1656.82 1354.06 1647.97C1356.3 1639.13 1357.42 1631.85 1357.42 1626.14Z" fill="#132AF4" stroke="#132AF4" stroke-width="15"/>
<path d="M1132.35 511.068C1132.35 510.117 1127.83 509.484 1118.81 509.167C1115 509.167 1112.55 509.088 1111.44 508.929C1110.33 508.771 1109.78 507.979 1109.78 506.553C1109.78 506.395 1109.94 505.524 1110.25 503.94C1110.41 503.465 1110.57 502.91 1110.73 502.277C1110.89 501.643 1110.97 501.247 1110.97 501.089C1110.97 500.93 1111.12 500.534 1111.44 499.901C1111.76 499.267 1111.92 499.03 1111.92 499.188C1111.92 499.346 1112.23 499.188 1112.87 498.713C1113.5 498.238 1113.9 498.079 1114.05 498.238C1114.21 498.396 1114.85 498.396 1115.96 498.238C1117.06 498.079 1118.01 498 1118.81 498C1119.76 498 1122.13 498 1125.93 498C1129.74 498 1133.3 498.079 1136.63 498.238C1149.14 498.238 1156.35 498.238 1158.25 498.238C1160.15 498.238 1161.42 498.634 1162.05 499.426C1162.21 500.059 1165.14 522.393 1170.84 566.428L1179.39 632.717L1184.86 623.926C1188.66 618.223 1193.73 610.304 1200.06 600.166C1206.4 590.029 1213.37 578.941 1220.97 566.903C1248.69 522.71 1262.71 500.455 1263.03 500.138C1263.19 499.98 1263.42 499.742 1263.74 499.426C1264.06 499.109 1264.37 498.871 1264.69 498.713L1266.12 498.238H1288.92C1291.62 498.238 1294.79 498.238 1298.43 498.238C1302.07 498.238 1304.37 498.158 1305.32 498C1310.7 498 1313.4 498.871 1313.4 500.614C1313.4 501.406 1313.16 502.752 1312.68 504.653C1312.21 506.553 1311.97 507.583 1311.97 507.741C1311.34 508.692 1308.41 509.167 1303.18 509.167C1296.84 509.325 1292.81 509.563 1291.06 509.88C1289.32 510.197 1287.9 511.068 1286.79 512.493C1286.31 513.285 1280.61 535.698 1269.68 579.733C1258.75 623.767 1253.21 646.022 1253.05 646.497C1253.05 647.131 1253.13 647.527 1253.29 647.685C1253.44 647.844 1254 648.16 1254.95 648.636C1255.9 649.111 1257.25 649.269 1258.99 649.111C1260.73 648.952 1263.34 649.111 1266.83 649.586H1274.19C1275.14 651.012 1275.62 651.883 1275.62 652.2C1275.62 654.734 1275.07 657.11 1273.96 659.327C1273.16 660.119 1271.9 660.515 1270.15 660.515C1269.36 660.515 1266.12 660.436 1260.41 660.278C1254.71 660.119 1247.42 660.04 1238.55 660.04C1228.89 660.04 1221.61 660.04 1216.7 660.04C1211.79 660.04 1209.01 660.119 1208.38 660.278C1205.69 660.278 1204.34 659.486 1204.34 657.902C1204.34 657.585 1204.5 656.476 1204.82 654.575C1205.45 652.041 1206.08 650.616 1206.72 650.299C1207.35 649.982 1209.17 649.744 1212.18 649.586C1216.46 649.586 1221.21 649.348 1226.44 648.873C1228.65 648.398 1230.16 647.448 1230.95 646.022C1231.27 645.388 1234.28 633.825 1239.98 611.333C1245.68 588.841 1251.31 566.428 1256.85 544.094C1262.39 521.76 1265.17 510.593 1265.17 510.593L1219.07 584.01C1188.03 633.429 1172.11 658.535 1171.31 659.327C1171 659.486 1170.68 659.644 1170.36 659.803C1169.57 660.278 1168.31 660.515 1166.56 660.515C1164.19 660.515 1162.76 659.961 1162.29 658.852C1161.97 658.219 1158.72 633.667 1152.54 585.198L1143.28 512.256L1127.12 576.407C1116.51 618.54 1111.2 640.32 1111.2 641.745C1112.15 646.972 1117.86 649.586 1128.31 649.586H1130.69C1131.64 650.378 1132.19 651.091 1132.35 651.724C1132.51 652.358 1132.27 653.784 1131.64 656.001C1131 658.535 1130.37 659.961 1129.74 660.278C1129.1 660.436 1128.23 660.515 1127.12 660.515C1126.81 660.515 1125.86 660.515 1124.27 660.515C1122.69 660.515 1119.99 660.436 1116.19 660.278C1112.39 660.119 1107.32 660.04 1100.99 660.04C1096.23 660.04 1091.32 660.119 1086.26 660.278C1081.19 660.436 1078.26 660.515 1077.46 660.515C1075.09 660.515 1073.58 660.357 1072.95 660.04C1072.32 659.723 1072 659.011 1072 657.902C1072 657.585 1072.24 656.476 1072.71 654.575C1073.19 652.675 1073.58 651.487 1073.9 651.012C1074.22 650.061 1075.96 649.586 1079.13 649.586C1090.22 649.586 1097.26 646.418 1100.27 640.082C1100.91 639.132 1106.37 617.907 1116.67 576.407C1126.96 534.906 1132.19 513.127 1132.35 511.068Z" fill="#132AF4" stroke="#132AF4" stroke-width="15"/>
<path d="M1337.77 599.062L1335.58 599.902C1334.01 600.462 1331.77 601.022 1328.86 601.582C1325.95 602.142 1322.7 602.534 1319.12 602.758H1315.93V595.031H1319.12C1324.38 594.807 1329.25 593.967 1333.73 592.511C1338.21 591.055 1341.35 589.711 1343.14 588.479C1344.93 587.247 1346.5 586.016 1347.84 584.784C1348.07 584.448 1348.74 584.28 1349.86 584.28C1350.87 584.28 1351.82 584.616 1352.72 585.288V635.514L1352.88 685.908C1353.67 686.692 1354.34 687.196 1354.9 687.42C1355.46 687.644 1356.8 687.868 1358.93 688.091C1361.06 688.315 1364.53 688.427 1369.35 688.427H1373.71V696.155H1371.87C1369.51 695.819 1360.61 695.651 1345.16 695.651C1329.93 695.651 1321.14 695.819 1318.78 696.155H1316.77V688.427H1321.14C1323.6 688.427 1325.73 688.427 1327.52 688.427C1329.31 688.427 1330.71 688.371 1331.72 688.259C1332.73 688.147 1333.62 687.98 1334.41 687.756C1335.19 687.532 1335.64 687.42 1335.75 687.42C1335.86 687.42 1336.2 687.14 1336.76 686.58C1337.32 686.02 1337.65 685.796 1337.77 685.908V599.062Z" fill="#132AF4" stroke="#132AF4" stroke-width="15"/>
<path d="M1540 998.312C1540 994.827 1541.03 992.055 1543.09 989.996H1545.7C1552.36 990.471 1560.67 990.709 1570.65 990.709C1589.34 990.709 1600.35 990.471 1603.68 989.996H1606.05C1607 990.946 1607.48 991.659 1607.48 992.134C1607.48 992.61 1607.32 994.035 1607 996.411C1606.21 998.787 1605.5 1000.29 1604.87 1000.93H1599.88C1596.39 1001.24 1594.02 1001.4 1592.75 1001.4C1588.15 1002.19 1585.62 1003.38 1585.15 1004.96C1585.15 1005.28 1587.44 1025.16 1592.04 1064.6C1596.63 1104.04 1599 1123.92 1599.16 1124.24L1616.51 1096.44C1628.07 1077.91 1639.63 1059.22 1651.2 1040.37C1662.76 1021.52 1668.7 1011.78 1669.02 1011.14C1669.65 1010.03 1669.97 1008.85 1669.97 1007.58C1669.97 1003.78 1666.48 1001.56 1659.51 1000.93C1656.66 1000.93 1655.24 1000.05 1655.24 998.312C1655.24 998.154 1655.39 997.124 1655.71 995.223C1656.19 993.006 1656.66 991.58 1657.14 990.946C1657.61 990.313 1658.64 989.996 1660.23 989.996C1660.54 989.996 1661.49 989.996 1663.08 989.996C1664.66 989.996 1667.35 990.075 1671.15 990.234C1674.96 990.392 1680.02 990.471 1686.36 990.471C1697.29 990.471 1704.18 990.313 1707.03 989.996H1708.69C1709.8 991.105 1710.36 991.976 1710.36 992.61C1710.36 995.302 1709.65 997.837 1708.22 1000.21C1707.74 1000.69 1706.4 1000.93 1704.18 1000.93C1702.12 1001.08 1700.22 1001.24 1698.48 1001.4C1696.74 1001.56 1695.07 1001.96 1693.49 1002.59C1691.9 1003.22 1690.64 1003.78 1689.69 1004.25C1688.74 1004.73 1687.79 1005.36 1686.84 1006.15C1685.89 1006.94 1685.09 1007.5 1684.46 1007.82C1683.83 1008.13 1683.19 1008.85 1682.56 1009.95C1681.93 1011.06 1681.37 1011.62 1680.9 1011.62L1635.04 1085.27C1606.53 1131.37 1591.8 1154.97 1590.85 1156.08C1590.37 1156.39 1589.82 1156.79 1589.18 1157.26L1584.91 1157.5H1583.24C1580.39 1157.5 1578.97 1156.95 1578.97 1155.84C1578.49 1154.89 1575.4 1129.54 1569.7 1079.81C1563.68 1029.44 1560.59 1004.01 1560.44 1003.54C1559.64 1001.8 1554.73 1000.93 1545.7 1000.93H1541.67C1540.56 1000.13 1540 999.262 1540 998.312Z" fill="#132AF4" stroke="#132AF4" stroke-width="15"/>
<path d="M1707.77 1189.76C1699.37 1189.76 1692.59 1187.01 1687.44 1181.53C1682.29 1176.04 1679.71 1169.43 1679.71 1161.71C1679.71 1154.43 1681.39 1147.54 1684.75 1141.04C1688.11 1134.55 1692.71 1128.89 1698.53 1124.08C1707.04 1117.25 1715.72 1113.83 1724.57 1113.83C1728.15 1113.83 1730.39 1113.89 1731.28 1114C1732.74 1114.34 1734.2 1114.73 1735.65 1115.18C1737.11 1115.62 1739.07 1116.52 1741.53 1117.86C1744 1119.21 1746.01 1120.89 1747.58 1122.9C1749.15 1124.92 1750.6 1127.66 1751.95 1131.13C1753.29 1134.6 1753.96 1138.52 1753.96 1142.89C1753.96 1154.87 1749.15 1165.68 1739.52 1175.31C1729.88 1184.94 1719.3 1189.76 1707.77 1189.76ZM1694.33 1167.75C1694.33 1173.35 1695.78 1177.38 1698.7 1179.85C1701.61 1182.31 1704.91 1183.54 1708.61 1183.54C1713.53 1183.54 1718.18 1181.75 1722.55 1178.17C1726.92 1174.58 1730.39 1169.88 1732.96 1164.06C1733.97 1161.71 1735.26 1157.56 1736.83 1151.63C1738.4 1145.69 1739.18 1140.54 1739.18 1136.17C1739.18 1131.25 1738.17 1127.49 1736.16 1124.92C1733.47 1121.56 1729.88 1119.88 1725.41 1119.88C1718.35 1119.88 1712.14 1123.13 1706.76 1129.62C1702.62 1134.55 1699.54 1141.1 1697.52 1149.28C1695.5 1157.45 1694.44 1163.61 1694.33 1167.75Z" fill="#132AF4" stroke="#132AF4" stroke-width="15"/>
<path d="M1759 1139.7C1759 1138.8 1759.51 1137.07 1760.52 1134.49C1761.52 1131.92 1762.92 1129.01 1764.72 1125.76C1766.51 1122.51 1768.97 1119.71 1772.11 1117.36C1775.24 1115.01 1778.55 1113.78 1782.02 1113.66C1787.17 1113.66 1791.03 1115.06 1793.61 1117.86C1796.18 1120.66 1797.47 1123.97 1797.47 1127.77C1797.47 1129.79 1795.57 1136.06 1791.76 1146.59C1787.95 1157.11 1786.05 1165.01 1786.05 1170.27C1786.05 1175.09 1786.83 1178.45 1788.4 1180.35C1789.97 1182.26 1792.32 1183.26 1795.46 1183.38C1798.59 1183.49 1801.56 1182.54 1804.36 1180.52C1807.16 1178.5 1809.23 1176.6 1810.57 1174.81L1812.42 1171.95C1812.65 1171.5 1814.77 1162.99 1818.8 1146.42C1822.16 1132.98 1824.18 1125.14 1824.85 1122.9C1825.52 1120.66 1826.31 1119.04 1827.2 1118.03C1829.11 1116.35 1831.12 1115.51 1833.25 1115.51C1835.15 1115.51 1836.55 1116.07 1837.45 1117.19C1838.35 1118.31 1838.79 1119.37 1838.79 1120.38L1826.03 1173.8C1825.92 1174.36 1825.86 1175.26 1825.86 1176.49C1825.86 1179.29 1826.25 1181.14 1827.04 1182.03C1827.82 1182.93 1829 1183.43 1830.56 1183.54C1833.03 1183.21 1834.99 1181.47 1836.44 1178.34C1837.9 1175.2 1839.58 1170.27 1841.48 1163.55C1841.71 1162.66 1842.83 1162.21 1844.84 1162.21C1846.97 1162.21 1848.03 1162.71 1848.03 1163.72C1847.92 1164.28 1847.81 1165.07 1847.7 1166.07C1847.59 1167.08 1847.08 1168.87 1846.19 1171.45C1845.29 1174.02 1844.34 1176.43 1843.33 1178.67C1842.32 1180.91 1840.92 1183.04 1839.13 1185.05C1837.34 1187.07 1835.32 1188.47 1833.08 1189.25C1832.19 1189.48 1830.84 1189.59 1829.05 1189.59C1821.66 1189.59 1816.57 1186.45 1813.77 1180.18C1813.54 1180.3 1812.93 1180.86 1811.92 1181.86C1810.91 1182.87 1809.9 1183.71 1808.89 1184.38C1807.89 1185.05 1806.65 1185.89 1805.2 1186.9C1803.74 1187.91 1802.12 1188.58 1800.33 1188.92C1798.54 1189.25 1796.63 1189.53 1794.62 1189.76C1789.69 1189.76 1785.32 1188.75 1781.51 1186.73C1775.69 1183.26 1772.78 1177.33 1772.78 1168.93C1772.78 1162.55 1774.74 1154.2 1778.66 1143.9C1782.58 1133.6 1784.54 1127.05 1784.54 1124.25C1784.54 1124.13 1784.54 1124.02 1784.54 1123.91C1784.54 1122.9 1784.54 1122.23 1784.54 1121.89C1784.54 1121.56 1784.31 1121.17 1783.86 1120.72C1783.42 1120.27 1782.8 1120.05 1782.02 1120.05H1781.35C1778.77 1120.05 1776.42 1121.11 1774.29 1123.24C1772.16 1125.37 1770.48 1127.66 1769.25 1130.13C1768.02 1132.59 1767.07 1134.94 1766.4 1137.18C1765.72 1139.42 1765.28 1140.65 1765.05 1140.88C1764.83 1141.1 1763.93 1141.21 1762.36 1141.21H1760.01C1759.34 1140.54 1759 1140.04 1759 1139.7Z" fill="#132AF4" stroke="#132AF4" stroke-width="15"/>
<path d="M1855.93 1123.24C1855.15 1122.45 1854.76 1121.89 1854.76 1121.56C1854.76 1121.11 1854.93 1120.21 1855.26 1118.87C1855.6 1117.53 1855.88 1116.74 1856.1 1116.52C1856.33 1115.96 1856.83 1115.68 1857.61 1115.68C1858.4 1115.68 1861.25 1115.62 1866.18 1115.51H1875.08L1878.28 1102.07C1878.61 1100.84 1879 1099.22 1879.45 1097.2C1879.9 1095.19 1880.29 1093.73 1880.63 1092.83C1880.96 1091.94 1881.3 1090.82 1881.63 1089.47C1881.97 1088.13 1882.42 1087.18 1882.98 1086.62C1883.54 1086.06 1884.1 1085.39 1884.66 1084.6C1885.22 1083.82 1886 1083.31 1887.01 1083.09C1888.02 1082.87 1889.03 1082.75 1890.03 1082.75C1892.05 1082.87 1893.45 1083.48 1894.23 1084.6C1895.02 1085.72 1895.41 1086.79 1895.41 1087.79C1895.41 1088.58 1894.91 1091.21 1893.9 1095.69C1892.89 1100.17 1891.77 1104.59 1890.54 1108.96L1888.86 1115.18C1888.86 1115.4 1891.66 1115.51 1897.26 1115.51H1905.82C1906.61 1116.29 1907 1116.91 1907 1117.36C1907 1119.82 1906.27 1121.78 1904.82 1123.24H1886.84L1880.79 1147.6C1876.43 1165.51 1874.24 1175.14 1874.24 1176.49C1874.24 1181.19 1875.76 1183.54 1878.78 1183.54C1882.7 1183.54 1886.51 1181.64 1890.2 1177.83C1893.9 1174.02 1896.86 1169.32 1899.1 1163.72C1899.33 1163.05 1899.61 1162.66 1899.94 1162.55C1900.28 1162.43 1901.12 1162.32 1902.46 1162.21H1903.14C1904.82 1162.21 1905.66 1162.66 1905.66 1163.55C1905.66 1163.89 1905.49 1164.56 1905.15 1165.57C1904.59 1167.36 1903.58 1169.49 1902.13 1171.95C1900.67 1174.42 1898.77 1177.05 1896.42 1179.85C1894.07 1182.65 1891.21 1185 1887.85 1186.9C1884.49 1188.81 1881.07 1189.76 1877.6 1189.76C1874.24 1189.76 1871.05 1188.92 1868.03 1187.24C1865 1185.56 1862.82 1182.65 1861.48 1178.5C1861.25 1177.61 1861.14 1176.1 1861.14 1173.97V1170.94L1867.02 1147.43C1870.94 1131.64 1872.96 1123.69 1873.07 1123.57C1873.07 1123.35 1870.21 1123.24 1864.5 1123.24H1855.93Z" fill="#132AF4" stroke="#132AF4" stroke-width="15"/>
<path d="M8 518.316C8 514.831 9.02958 512.059 11.0887 510H13.7023C20.355 510.475 28.6708 510.713 38.6498 510.713C57.3407 510.713 68.3493 510.475 71.6756 510H74.0516C75.002 510.95 75.4771 511.663 75.4771 512.138C75.4771 512.614 75.3187 514.039 75.002 516.415C74.21 518.791 73.4972 520.296 72.8636 520.929H67.8741C64.3894 521.246 62.0134 521.405 60.7462 521.405C56.1527 522.197 53.6184 523.385 53.1432 524.968C53.1432 525.285 55.4399 545.164 60.0334 584.605C64.6269 624.046 67.0029 643.925 67.1613 644.241L84.5058 616.443C96.0688 597.91 107.632 579.219 119.195 560.37C130.758 541.521 136.698 531.78 137.014 531.146C137.648 530.037 137.965 528.849 137.965 527.582C137.965 523.781 134.48 521.563 127.511 520.929C124.659 520.929 123.234 520.058 123.234 518.316C123.234 518.157 123.392 517.128 123.709 515.227C124.184 513.01 124.659 511.584 125.135 510.95C125.61 510.317 126.639 510 128.223 510C128.54 510 129.491 510 131.075 510C132.658 510 135.351 510.079 139.153 510.238C142.954 510.396 148.023 510.475 154.359 510.475C165.288 510.475 172.179 510.317 175.03 510H176.693C177.802 511.109 178.356 511.98 178.356 512.614C178.356 515.306 177.643 517.841 176.218 520.217C175.742 520.692 174.396 520.929 172.179 520.929C170.119 521.088 168.219 521.246 166.476 521.405C164.734 521.563 163.071 521.959 161.487 522.593C159.903 523.226 158.636 523.781 157.685 524.256C156.735 524.731 155.784 525.364 154.834 526.156C153.884 526.948 153.092 527.503 152.458 527.82C151.825 528.136 151.191 528.849 150.557 529.958C149.924 531.067 149.369 531.621 148.894 531.621L103.038 605.276C74.5268 651.369 59.7958 674.971 58.8455 676.079C58.3703 676.396 57.8159 676.792 57.1823 677.267L52.9056 677.505H51.2424C48.3912 677.505 46.9657 676.95 46.9657 675.842C46.4905 674.891 43.4017 649.548 37.6994 599.811C31.6804 549.441 28.5916 524.018 28.4332 523.543C27.6412 521.801 22.7309 520.929 13.7023 520.929H9.66317C8.55439 520.137 8 519.266 8 518.316Z" fill="#132AF4" stroke="#132AF4" stroke-width="15"/>
<path d="M172.962 607.126C172.962 604.439 174.026 602.087 176.153 600.071C178.281 598.055 180.745 596.992 183.545 596.88C185.56 596.88 187.24 597.551 188.584 598.895C189.928 600.239 190.656 601.919 190.768 603.935C190.768 606.51 189.648 608.862 187.408 610.99C185.168 613.118 182.705 614.238 180.017 614.35C178.337 614.35 176.769 613.79 175.314 612.67C173.858 611.55 173.074 609.702 172.962 607.126ZM145.581 659.704C145.581 658.808 146.085 657.072 147.093 654.497C148.101 651.921 149.445 649.065 151.124 645.93C152.804 642.794 155.268 639.938 158.516 637.363C161.763 634.787 165.123 633.555 168.594 633.667C172.962 633.667 176.601 634.955 179.513 637.531C182.425 640.106 183.937 643.578 184.048 647.946C184.048 649.849 183.265 652.985 181.697 657.352C180.129 661.72 177.889 667.599 174.978 674.99C172.066 682.381 169.714 688.709 167.922 693.972C167.362 696.436 167.083 698.228 167.083 699.347C167.083 702.147 168.034 703.547 169.938 703.547C170.946 703.547 172.01 703.379 173.13 703.043C174.25 702.707 175.538 701.923 176.993 700.691C178.449 699.459 179.961 697.5 181.529 694.812C183.097 692.124 184.496 688.821 185.728 684.901C186.064 683.557 186.344 682.773 186.568 682.549C186.792 682.325 187.744 682.213 189.424 682.213C191.664 682.213 192.783 682.773 192.783 683.893C192.783 684.789 192.28 686.525 191.272 689.101C190.264 691.676 188.864 694.532 187.072 697.668C185.28 700.803 182.761 703.603 179.513 706.067C176.265 708.53 172.794 709.762 169.098 709.762C165.515 709.762 162.211 708.586 159.187 706.235C156.164 703.883 154.596 700.299 154.484 695.484C154.484 693.58 154.764 691.788 155.324 690.109C155.884 688.429 158.292 682.045 162.547 670.959C166.803 659.648 169.266 652.873 169.938 650.633C170.61 648.393 171.002 646.21 171.114 644.082C171.114 641.394 170.162 640.05 168.258 640.05H167.922C164.563 640.05 161.483 641.898 158.684 645.594C155.884 649.289 153.756 653.993 152.3 659.704C152.188 659.816 152.076 659.984 151.964 660.208C151.852 660.432 151.796 660.6 151.796 660.712C151.796 660.824 151.684 660.936 151.46 661.048C151.236 661.16 151.068 661.216 150.956 661.216C150.844 661.216 150.62 661.216 150.284 661.216C149.949 661.216 149.501 661.216 148.941 661.216H146.589C145.917 660.544 145.581 660.04 145.581 659.704Z" fill="#132AF4" stroke="#132AF4" stroke-width="15"/>
<path d="M203.529 659.704C203.641 659.032 203.809 658.136 204.033 657.016C204.257 655.897 204.929 653.769 206.049 650.633C207.169 647.498 208.289 644.866 209.409 642.738C210.528 640.61 212.376 638.539 214.952 636.523C217.528 634.507 220.103 633.555 222.679 633.667C226.711 633.667 230.07 634.675 232.758 636.691C235.446 638.707 237.125 640.61 237.797 642.402C238.469 644.194 238.805 645.37 238.805 645.93C238.805 646.154 238.861 646.266 238.973 646.266L240.821 644.418C247.652 637.251 255.435 633.667 264.17 633.667C270.217 633.667 275.089 635.179 278.784 638.203C282.48 641.226 284.384 645.65 284.496 651.473C284.608 657.296 282.48 666.087 278.112 677.846C273.745 689.605 271.617 696.716 271.729 699.179C271.729 702.091 272.681 703.547 274.585 703.547C275.257 703.547 275.761 703.491 276.097 703.379C279.344 702.819 282.256 700.691 284.832 696.996C287.407 693.3 289.367 688.821 290.711 683.557C290.935 682.661 292.055 682.213 294.071 682.213C296.31 682.213 297.43 682.661 297.43 683.557C297.43 683.669 297.206 684.509 296.758 686.077C295.862 689.325 294.631 692.516 293.063 695.652C291.495 698.788 288.919 701.923 285.336 705.059C281.752 708.194 277.888 709.706 273.745 709.594C268.482 709.594 264.674 708.082 262.322 705.059C259.971 702.035 258.795 698.899 258.795 695.652C258.795 693.524 260.811 686.805 264.842 675.494C268.874 664.184 270.945 655.673 271.057 649.961C271.057 643.354 268.594 640.05 263.666 640.05H262.826C253.195 640.05 245.076 645.706 238.469 657.016L237.293 659.032L231.75 681.542C228.054 696.212 225.927 704.107 225.367 705.227C223.911 708.25 221.503 709.762 218.144 709.762C216.688 709.762 215.512 709.426 214.616 708.754C213.72 708.082 213.104 707.41 212.768 706.739C212.432 706.067 212.32 705.507 212.432 705.059C212.432 703.603 214.56 694.476 218.815 677.678C223.071 660.88 225.311 651.753 225.535 650.297C225.647 649.737 225.703 648.449 225.703 646.434C225.703 642.066 224.359 639.882 221.671 639.882C217.416 639.882 213.888 645.482 211.088 656.68C210.416 658.92 210.081 660.096 210.081 660.208C209.857 660.88 208.793 661.216 206.889 661.216H204.537C203.865 660.544 203.529 660.04 203.529 659.704Z" fill="#132AF4" stroke="#132AF4" stroke-width="15"/>
<path d="M923 182C942.33 182 958 197.67 958 217C958 236.33 942.33 252 923 252C903.67 252 888 236.33 888 217C888 197.67 903.67 182 923 182Z" fill="#132AF4"/>
</svg>
