<svg width="2290" height="951" viewBox="0 0 2290 951" fill="none" xmlns="http://www.w3.org/2000/svg">
<path d="M494 39.5V168.5" stroke="#132AF4" stroke-width="15"/>
<path d="M324 22H665" stroke="#132AF4" stroke-width="35"/>
<path d="M1253 39.5V168.5" stroke="#132AF4" stroke-width="15"/>
<path d="M1083 22H1424" stroke="#132AF4" stroke-width="35"/>
<circle cx="494" cy="380" r="102.5" stroke="#132AF4" stroke-width="15"/>
<path d="M420.672 381.7C420.672 381.7 432.589 341.664 461.922 348.834C491.255 356.005 497.672 404.347 524.255 411.626C550.839 418.905 569.172 380.001 569.172 380.001" stroke="#132AF4" stroke-width="15"/>
<path d="M386 234.421C386 234.421 386 233.965 386 233.053C386 232.14 386.491 231.439 387.474 230.947H418.947V215.158L419.053 199.368C419.754 198.456 420.421 198 421.053 198C421.965 198 422.667 198.526 423.158 199.579V230.947H454.526C455.579 231.509 456.105 232.211 456.105 233.053C456.105 233.895 455.579 234.596 454.526 235.158H423.158V266.526C422.596 267.509 421.965 268 421.263 268H421.053H420.842C420 268 419.368 267.509 418.947 266.526V235.158H387.474C386.491 234.667 386 233.965 386 233.053V234.421Z" fill="#132AF4" stroke="#132AF4" stroke-width="15"/>
<path d="M389 543.475C389 543.475 389 543.019 389 542.107C389 541.194 389.491 540.493 390.474 540.001H451.632C452.684 540.563 453.211 541.265 453.211 542.107C453.211 542.949 452.684 543.651 451.632 544.212H390.474C389.491 543.721 389 543.019 389 542.107V543.475Z" fill="#132AF4" stroke="#132AF4" stroke-width="15"/>
<path d="M751 681H494V487" stroke="#132AF4" stroke-width="15"/>
<path d="M494 167.5V281" stroke="#132AF4" stroke-width="15"/>
<path d="M1775 35.5V164.5" stroke="#132AF4" stroke-width="15"/>
<path d="M1605 18H1946" stroke="#132AF4" stroke-width="35"/>
<circle cx="1775" cy="376" r="102.5" stroke="#132AF4" stroke-width="15"/>
<path d="M1701.67 377.7C1701.67 377.7 1713.59 337.664 1742.92 344.834C1772.26 352.005 1778.67 400.347 1805.26 407.626C1831.84 414.905 1850.17 376.001 1850.17 376.001" stroke="#132AF4" stroke-width="15"/>
<path d="M1667 230.421C1667 230.421 1667 229.965 1667 229.053C1667 228.14 1667.49 227.439 1668.47 226.947H1699.95V211.158L1700.05 195.368C1700.75 194.456 1701.42 194 1702.05 194C1702.96 194 1703.67 194.526 1704.16 195.579V226.947H1735.53C1736.58 227.509 1737.11 228.211 1737.11 229.053C1737.11 229.895 1736.58 230.596 1735.53 231.158H1704.16V262.526C1703.6 263.509 1702.96 264 1702.26 264H1702.05H1701.84C1701 264 1700.37 263.509 1699.95 262.526V231.158H1668.47C1667.49 230.667 1667 229.965 1667 229.053V230.421Z" fill="#132AF4" stroke="#132AF4" stroke-width="15"/>
<path d="M1670 539.475C1670 539.475 1670 539.019 1670 538.107C1670 537.194 1670.49 536.493 1671.47 536.001H1732.63C1733.68 536.563 1734.21 537.265 1734.21 538.107C1734.21 538.949 1733.68 539.651 1732.63 540.212H1671.47C1670.49 539.721 1670 539.019 1670 538.107V539.475Z" fill="#132AF4" stroke="#132AF4" stroke-width="15"/>
<path d="M1245.5 943H1775V483" stroke="#132AF4" stroke-width="15"/>
<path d="M1775 163.5V277" stroke="#132AF4" stroke-width="15"/>
<path d="M1025.5 500V860" stroke="#132AF4" stroke-width="35"/>
<path d="M940 544V816" stroke="#132AF4" stroke-width="35"/>
<path d="M1237 770H1123.4H1042.5" stroke="#132AF4" stroke-width="15"/>
<path d="M1237 770H1253V950" stroke="#132AF4" stroke-width="15"/>
<path d="M1240 590H1253V161" stroke="#132AF4" stroke-width="15"/>
<path d="M922.5 681H749" stroke="#132AF4" stroke-width="15"/>
<path d="M1051.57 590.19L1171.68 629.894C1171.82 629.941 1171.89 629.965 1171.94 629.927C1171.98 629.89 1171.97 629.816 1171.94 629.668L1164.6 590L1171.94 550.332C1171.97 550.184 1171.98 550.11 1171.94 550.073C1171.89 550.035 1171.82 550.059 1171.68 550.106L1051.57 589.81C1051.34 589.889 1051.22 589.928 1051.22 590C1051.22 590.072 1051.34 590.111 1051.57 590.19Z" fill="#132AF4"/>
<path d="M1164.6 590L1171.94 550.332C1171.97 550.184 1171.98 550.11 1171.94 550.073C1171.89 550.035 1171.82 550.059 1171.68 550.106L1051.57 589.81C1051.34 589.889 1051.22 589.928 1051.22 590C1051.22 590.072 1051.34 590.111 1051.57 590.19L1171.68 629.894C1171.82 629.941 1171.89 629.965 1171.94 629.927C1171.98 629.89 1171.97 629.816 1171.94 629.668L1164.6 590ZM1164.6 590H1245.5" stroke="#132AF4" stroke-width="15"/>
<path d="M1043 679.5H1331.5V287H1255" stroke="#132AF4" stroke-width="15"/>
<path d="M1943 310.424C1943 307.313 1943.92 304.839 1945.76 303H1948.09C1954.03 303.424 1961.45 303.636 1970.36 303.636C1987.05 303.636 1996.88 303.424 1999.85 303H2001.97C2002.82 303.849 2003.24 304.485 2003.24 304.909C2003.24 305.333 2003.1 306.606 2002.82 308.727C2002.11 310.849 2001.48 312.192 2000.91 312.758H1996.46C1993.34 313.041 1991.22 313.182 1990.09 313.182C1985.99 313.889 1983.73 314.95 1983.3 316.364C1983.3 316.647 1985.35 334.395 1989.46 369.607C1993.56 404.82 1995.68 422.568 1995.82 422.851L2011.3 398.032C2021.63 381.486 2031.95 364.799 2042.27 347.971C2052.6 331.142 2057.9 322.445 2058.18 321.879C2058.75 320.889 2059.03 319.829 2059.03 318.697C2059.03 315.303 2055.92 313.324 2049.7 312.758C2047.15 312.758 2045.88 311.98 2045.88 310.424C2045.88 310.283 2046.02 309.364 2046.3 307.667C2046.73 305.687 2047.15 304.414 2047.58 303.849C2048 303.283 2048.92 303 2050.34 303C2050.62 303 2051.47 303 2052.88 303C2054.3 303 2056.7 303.071 2060.09 303.212C2063.49 303.354 2068.01 303.424 2073.67 303.424C2083.43 303.424 2089.58 303.283 2092.12 303H2093.61C2094.6 303.99 2095.09 304.768 2095.09 305.333C2095.09 307.738 2094.46 310 2093.18 312.121C2092.76 312.546 2091.56 312.758 2089.58 312.758C2087.74 312.899 2086.04 313.041 2084.49 313.182C2082.93 313.324 2081.45 313.677 2080.03 314.243C2078.62 314.808 2077.49 315.303 2076.64 315.728C2075.79 316.152 2074.94 316.718 2074.09 317.425C2073.24 318.132 2072.54 318.627 2071.97 318.909C2071.41 319.192 2070.84 319.829 2070.28 320.819C2069.71 321.809 2069.21 322.303 2068.79 322.303L2027.85 388.062C2002.4 429.215 1989.24 450.286 1988.39 451.276C1987.97 451.558 1987.48 451.912 1986.91 452.336L1983.09 452.548H1981.61C1979.06 452.548 1977.79 452.053 1977.79 451.063C1977.36 450.215 1974.61 427.588 1969.52 383.183C1964.14 338.213 1961.38 315.515 1961.24 315.091C1960.54 313.536 1956.15 312.758 1948.09 312.758H1944.48C1943.49 312.051 1943 311.273 1943 310.424Z" fill="#132AF4" stroke="#132AF4" stroke-width="12"/>
<path d="M2105.68 385.517C2105.68 384.817 2102.83 384.367 2097.13 384.167C2094.83 384.167 2093.33 384.117 2092.63 384.017C2091.93 383.917 2091.58 383.467 2091.58 382.668C2091.58 381.868 2091.78 380.868 2092.18 379.668C2092.58 378.468 2092.93 377.718 2093.23 377.418C2093.43 377.318 2103.38 377.268 2123.08 377.268C2139.78 377.368 2149.12 377.418 2151.12 377.418C2153.12 377.418 2155.12 377.718 2157.12 378.318C2164.32 380.018 2170.42 383.967 2175.42 390.166C2180.42 396.365 2182.97 404.663 2183.07 415.062C2183.07 430.659 2177.72 444.656 2167.02 457.054C2156.32 469.452 2143.72 476.85 2129.23 479.25L2127.13 479.55L2098.03 479.7H2081.39H2073.44C2071.04 479.7 2069.49 479.6 2068.79 479.4C2068.09 479.2 2067.69 478.75 2067.59 478.05C2067.59 477.85 2067.74 477.15 2068.04 475.95C2068.44 474.351 2068.84 473.451 2069.24 473.251C2069.64 473.051 2070.79 472.901 2072.69 472.801C2075.39 472.801 2078.39 472.651 2081.69 472.351C2083.09 472.051 2084.04 471.451 2084.54 470.551C2084.84 470.151 2088.44 456.254 2095.33 428.859C2102.23 401.464 2105.68 387.017 2105.68 385.517ZM2168.07 409.363C2168.07 405.563 2167.52 402.164 2166.42 399.164C2165.32 396.165 2164.02 393.815 2162.52 392.116C2161.02 390.416 2159.17 388.966 2156.97 387.767C2154.77 386.567 2152.82 385.767 2151.12 385.367C2149.42 384.967 2147.67 384.617 2145.87 384.317C2145.67 384.317 2144.97 384.317 2143.77 384.317C2142.58 384.317 2141.13 384.317 2139.43 384.317C2137.73 384.317 2136.08 384.267 2134.48 384.167H2128.03C2123.63 384.167 2121.13 384.667 2120.53 385.667C2120.33 386.067 2116.68 400.464 2109.58 428.859C2102.48 457.254 2098.93 471.601 2098.93 471.901C2098.93 472.301 2099.48 472.501 2100.58 472.501C2101.68 472.501 2105.53 472.551 2112.13 472.651C2112.63 472.651 2113.58 472.651 2114.98 472.651C2116.38 472.651 2117.58 472.701 2118.58 472.801C2131.18 472.801 2141.58 468.702 2149.77 460.503C2153.37 456.904 2156.32 452.705 2158.62 447.906C2160.92 443.106 2163.07 436.758 2165.07 428.859C2167.07 420.96 2168.07 414.462 2168.07 409.363Z" fill="#132AF4" stroke="#132AF4" stroke-width="12"/>
<path d="M2233.01 476.101C2238.91 476.101 2244.31 473.502 2249.21 468.303C2254.1 463.104 2256.6 457.055 2256.7 450.156C2256.7 443.857 2254.1 439.508 2248.91 437.108C2238.31 434.409 2231.51 432.559 2228.51 431.559C2225.51 430.56 2223.41 429.56 2222.21 428.56C2216.21 424.361 2213.21 418.312 2213.21 410.413C2213.21 404.314 2214.81 398.765 2218.01 393.766C2221.21 388.767 2224.46 385.018 2227.76 382.518C2230.66 380.019 2234.16 378.019 2238.26 376.52C2242.36 375.02 2245.56 374.22 2247.86 374.12H2249.51H2250.55C2260.15 374.12 2267.1 377.319 2271.4 383.718C2271.5 383.718 2272.15 383.068 2273.35 381.769C2274.55 380.469 2275.85 379.019 2277.25 377.419C2278.65 375.82 2279.65 374.72 2280.25 374.12C2280.35 374.12 2280.55 374.12 2280.85 374.12C2281.15 374.12 2281.4 374.07 2281.6 373.97C2282.9 373.97 2283.55 374.32 2283.55 375.02C2283.55 375.72 2282.15 381.769 2279.35 393.166C2276.55 404.564 2274.95 410.463 2274.55 410.863C2274.15 411.263 2273.35 411.413 2272.15 411.313C2270.15 411.313 2269.15 410.863 2269.15 409.963C2269.15 409.364 2269.2 408.864 2269.3 408.464C2269.3 408.164 2269.35 407.214 2269.45 405.614C2269.55 404.014 2269.65 402.715 2269.75 401.715C2269.75 398.316 2269.3 395.366 2268.4 392.867C2267.5 390.367 2266.6 388.517 2265.7 387.318C2264.8 386.118 2263.55 384.868 2261.95 383.568C2258.35 381.469 2254.25 380.419 2249.66 380.419C2243.96 380.419 2238.66 382.718 2233.76 387.318C2228.86 391.917 2226.36 397.216 2226.26 403.215C2226.26 406.214 2227.01 408.814 2228.51 411.013C2230.01 413.213 2232.06 414.763 2234.66 415.662C2235.06 415.862 2238.56 416.812 2245.16 418.512C2251.75 420.212 2255.1 421.111 2255.2 421.211C2258.6 422.311 2261.9 424.711 2265.1 428.41C2268.3 432.109 2269.9 437.108 2269.9 443.407C2269.9 446.007 2269.5 448.806 2268.7 451.806C2268.2 454.005 2267.3 456.455 2266 459.154C2264.7 461.854 2262.9 464.803 2260.6 468.003C2258.3 471.202 2255 474.202 2250.7 477.001C2246.41 479.801 2241.71 481.7 2236.61 482.7C2235.41 482.9 2233.71 483 2231.51 483C2221.61 483 2213.91 480.251 2208.41 474.752L2206.91 473.102L2202.71 477.751C2200.41 480.45 2199.01 482 2198.51 482.4C2198.01 482.8 2197.36 483 2196.56 483C2195.27 483 2194.62 482.6 2194.62 481.8C2194.62 481.5 2197.51 469.752 2203.31 446.557C2203.51 445.957 2204.51 445.657 2206.31 445.657H2208.26C2208.86 446.257 2209.16 446.807 2209.16 447.307C2209.16 447.507 2209.11 447.956 2209.01 448.656C2208.91 449.356 2208.71 450.406 2208.41 451.806C2208.11 453.205 2208.01 454.855 2208.11 456.755C2208.31 460.654 2209.21 463.953 2210.81 466.653C2212.41 469.353 2214.56 471.352 2217.26 472.652C2219.96 473.952 2222.56 474.851 2225.06 475.351C2227.56 475.851 2230.21 476.101 2233.01 476.101Z" fill="#132AF4" stroke="#132AF4" stroke-width="12"/>
<path d="M6 297.424C6 294.313 6.9192 291.839 8.75761 290H11.091C17.0304 290.424 24.4548 290.636 33.364 290.636C50.051 290.636 59.8794 290.424 62.8492 290H64.9704C65.8189 290.849 66.2432 291.485 66.2432 291.909C66.2432 292.333 66.1017 293.606 65.8189 295.727C65.1118 297.849 64.4755 299.192 63.9098 299.758H59.4552C56.3441 300.041 54.2228 300.182 53.0915 300.182C48.9904 300.889 46.7278 301.95 46.3035 303.364C46.3035 303.647 48.3541 321.394 52.4551 356.607C56.5562 391.82 58.6774 409.567 58.8188 409.85L74.3039 385.032C84.6272 368.486 94.9506 351.799 105.274 334.97C115.597 318.142 120.9 309.445 121.183 308.879C121.749 307.889 122.032 306.829 122.032 305.697C122.032 302.303 118.921 300.323 112.698 299.758C110.153 299.758 108.88 298.98 108.88 297.424C108.88 297.283 109.021 296.364 109.304 294.667C109.729 292.687 110.153 291.414 110.577 290.849C111.001 290.283 111.92 290 113.335 290C113.617 290 114.466 290 115.88 290C117.294 290 119.698 290.071 123.092 290.212C126.486 290.354 131.012 290.424 136.668 290.424C146.426 290.424 152.578 290.283 155.123 290H156.608C157.598 290.99 158.093 291.768 158.093 292.333C158.093 294.738 157.456 297 156.184 299.121C155.759 299.546 154.557 299.758 152.578 299.758C150.739 299.899 149.042 300.041 147.487 300.182C145.931 300.323 144.446 300.677 143.032 301.243C141.618 301.808 140.486 302.303 139.638 302.728C138.79 303.152 137.941 303.717 137.093 304.425C136.244 305.132 135.537 305.627 134.971 305.909C134.406 306.192 133.84 306.829 133.274 307.819C132.709 308.808 132.214 309.303 131.789 309.303L90.8495 375.062C65.3947 416.214 52.243 437.285 51.3945 438.275C50.9702 438.557 50.4753 438.911 49.9096 439.335L46.0914 439.547H44.6065C42.061 439.547 40.7883 439.052 40.7883 438.062C40.3641 437.214 37.6064 414.587 32.5155 370.183C27.1417 325.213 24.3841 302.515 24.2426 302.091C23.5356 300.536 19.1517 299.758 11.091 299.758H7.48487C6.49496 299.051 6 298.273 6 297.424Z" fill="#132AF4" stroke="#132AF4" stroke-width="12"/>
<path d="M133.148 428.908C133.148 417.41 136.498 406.362 143.197 395.764C149.895 385.166 158.344 376.768 168.542 370.569C178.74 364.37 188.938 361.221 199.136 361.121C208.134 361.121 215.283 363.67 220.582 368.769C221.482 369.769 222.232 370.619 222.831 371.319C223.431 372.019 223.831 372.519 224.031 372.818L224.181 373.268C224.481 373.268 225.831 371.969 228.23 369.369C228.93 368.769 229.68 368.069 230.48 367.27C231.28 366.47 232.08 365.67 232.88 364.87C233.679 364.07 234.179 363.52 234.379 363.22L236.629 360.971H237.529C238.928 360.971 239.628 361.321 239.628 362.021C239.628 362.42 238.029 369.269 234.829 382.567C231.23 396.464 229.43 403.463 229.43 403.563C229.23 404.063 228.98 404.362 228.68 404.462C228.38 404.562 227.481 404.662 225.981 404.762H223.581C222.981 404.163 222.681 403.713 222.681 403.413C222.681 403.313 222.731 402.963 222.831 402.363C222.931 401.763 223.031 400.763 223.131 399.363C223.231 397.964 223.281 396.364 223.281 394.564C223.281 387.466 221.682 381.267 218.482 375.968C215.283 370.669 209.834 367.969 202.135 367.869C200.336 367.869 198.386 368.019 196.286 368.319C194.187 368.619 191.537 369.269 188.338 370.269C185.139 371.269 182.089 372.668 179.19 374.468C176.29 376.268 173.141 378.667 169.741 381.667C166.342 384.666 163.443 388.216 161.043 392.315C158.644 396.414 156.294 401.513 153.994 407.612C151.695 413.711 150.145 420.409 149.345 427.708C149.145 429.508 149.045 431.457 149.045 433.557C149.045 438.356 149.745 442.605 151.145 446.305C152.545 450.004 154.344 452.853 156.544 454.853C158.744 456.852 161.243 458.552 164.043 459.952C166.842 461.352 169.442 462.201 171.841 462.501C174.241 462.801 176.49 463.001 178.59 463.101C183.989 463.101 188.938 461.952 193.437 459.652C197.936 457.352 201.036 454.403 202.735 450.804C203.035 450.004 203.785 447.254 204.985 442.555C206.185 437.856 206.784 435.207 206.784 434.607C206.784 433.807 206.135 433.307 204.835 433.107C203.535 432.907 200.536 432.757 195.837 432.657H190.288C189.688 432.057 189.388 431.657 189.388 431.457C189.388 431.257 189.488 430.308 189.688 428.608C190.088 427.308 190.588 426.358 191.187 425.758H193.737C197.736 425.958 204.735 426.058 214.733 426.058C218.732 426.058 221.982 426.058 224.481 426.058C226.981 426.058 228.78 426.008 229.88 425.908C230.98 425.808 231.58 425.808 231.68 425.908C233.079 425.908 233.779 426.358 233.779 427.258C233.779 427.458 233.679 428.158 233.479 429.358C232.979 431.257 232.48 432.307 231.98 432.507C231.68 432.607 230.93 432.657 229.73 432.657C227.73 432.657 225.681 432.807 223.581 433.107C222.881 433.407 222.381 433.857 222.082 434.457C221.782 435.057 221.082 437.606 219.982 442.105C219.082 445.405 218.332 448.204 217.732 450.504C215.233 460.702 213.833 465.951 213.533 466.251C213.333 466.451 213.083 466.551 212.783 466.551C211.784 466.551 210.384 465.551 208.584 463.551C206.784 461.552 205.635 460.002 205.135 458.902C205.135 458.802 205.035 458.802 204.835 458.902C204.635 459.002 204.335 459.252 203.935 459.652C196.536 466.551 186.538 470 173.941 470C161.843 470 152.045 466.151 144.546 458.452C137.048 450.754 133.248 440.906 133.148 428.908Z" fill="#132AF4" stroke="#132AF4" stroke-width="12"/>
<path d="M289.719 463.101C295.618 463.101 301.017 460.502 305.916 455.303C310.815 450.104 313.314 444.055 313.414 437.156C313.414 430.857 310.815 426.508 305.616 424.109C295.018 421.409 288.219 419.56 285.22 418.56C282.22 417.56 280.121 416.56 278.921 415.56C272.922 411.361 269.923 405.312 269.923 397.414C269.923 391.315 271.522 385.766 274.722 380.767C277.921 375.768 281.171 372.019 284.47 369.519C287.369 367.02 290.869 365.02 294.968 363.52C299.067 362.021 302.267 361.221 304.566 361.121H306.216H307.266C316.864 361.121 323.812 364.32 328.112 370.719C328.212 370.719 328.861 370.069 330.061 368.769C331.261 367.469 332.561 366.02 333.96 364.42C335.36 362.82 336.36 361.721 336.96 361.121C337.06 361.121 337.26 361.121 337.56 361.121C337.86 361.121 338.11 361.071 338.31 360.971C339.609 360.971 340.259 361.321 340.259 362.021C340.259 362.72 338.86 368.769 336.06 380.167C333.261 391.565 331.661 397.464 331.261 397.864C330.861 398.264 330.061 398.414 328.861 398.314C326.862 398.314 325.862 397.864 325.862 396.964C325.862 396.364 325.912 395.864 326.012 395.464C326.012 395.164 326.062 394.214 326.162 392.615C326.262 391.015 326.362 389.715 326.462 388.715C326.462 385.316 326.012 382.367 325.112 379.867C324.212 377.368 323.313 375.518 322.413 374.318C321.513 373.118 320.263 371.869 318.663 370.569C315.064 368.469 310.965 367.419 306.366 367.419C300.667 367.419 295.368 369.719 290.469 374.318C285.57 378.917 283.07 384.216 282.97 390.215C282.97 393.215 283.72 395.814 285.22 398.014C286.719 400.213 288.769 401.763 291.369 402.663C291.768 402.863 295.268 403.813 301.867 405.512C308.465 407.212 311.815 408.112 311.915 408.212C315.314 409.312 318.613 411.711 321.813 415.41C325.012 419.11 326.612 424.109 326.612 430.408C326.612 433.007 326.212 435.806 325.412 438.806C324.912 441.006 324.012 443.455 322.713 446.155C321.413 448.854 319.613 451.803 317.314 455.003C315.014 458.202 311.715 461.202 307.416 464.001C303.116 466.801 298.417 468.7 293.318 469.7C292.118 469.9 290.419 470 288.219 470C278.321 470 270.623 467.251 265.124 461.752L263.624 460.102L259.425 464.751C257.125 467.45 255.725 469 255.225 469.4C254.726 469.8 254.076 470 253.276 470C251.976 470 251.326 469.6 251.326 468.8C251.326 468.5 254.226 456.753 260.025 433.557C260.224 432.957 261.224 432.657 263.024 432.657H264.974C265.573 433.257 265.873 433.807 265.873 434.307C265.873 434.507 265.823 434.957 265.723 435.657C265.623 436.356 265.423 437.406 265.124 438.806C264.824 440.206 264.724 441.855 264.824 443.755C265.024 447.654 265.923 450.954 267.523 453.653C269.123 456.353 271.272 458.352 273.972 459.652C276.671 460.952 279.271 461.852 281.77 462.351C284.27 462.851 286.919 463.101 289.719 463.101Z" fill="#132AF4" stroke="#132AF4" stroke-width="12"/>
</svg>
