<svg width="2281" height="1016" viewBox="0 0 2281 1016" fill="none" xmlns="http://www.w3.org/2000/svg">
<path d="M437 850H640" stroke="#132AF4" stroke-width="35"/>
<path d="M472 929H603" stroke="#132AF4" stroke-width="35"/>
<path d="M495 998H581" stroke="#132AF4" stroke-width="35"/>
<path d="M537.692 833V704" stroke="#132AF4" stroke-width="15"/>
<path d="M538 635C557.33 635 573 650.67 573 670C573 689.33 557.33 705 538 705C518.67 705 503 689.33 503 670C503 650.67 518.67 635 538 635Z" fill="#132AF4"/>
<path d="M1093 850H1296" stroke="#132AF4" stroke-width="35"/>
<path d="M1128 929H1259" stroke="#132AF4" stroke-width="35"/>
<path d="M1151 998H1237" stroke="#132AF4" stroke-width="35"/>
<path d="M1193.69 833V704" stroke="#132AF4" stroke-width="15"/>
<path d="M1194 635C1213.33 635 1229 650.67 1229 670C1229 689.33 1213.33 705 1194 705C1174.67 705 1159 689.33 1159 670C1159 650.67 1174.67 635 1194 635Z" fill="#132AF4"/>
<path d="M538 556.5V637" stroke="#132AF4" stroke-width="15"/>
<path d="M1661 850H1864" stroke="#132AF4" stroke-width="35"/>
<path d="M1696 929H1827" stroke="#132AF4" stroke-width="35"/>
<path d="M1719 998H1805" stroke="#132AF4" stroke-width="35"/>
<path d="M1761.69 833V704" stroke="#132AF4" stroke-width="15"/>
<path d="M1762 635C1781.33 635 1797 650.67 1797 670C1797 689.33 1781.33 705 1762 705C1742.67 705 1727 689.33 1727 670C1727 650.67 1742.67 635 1762 635Z" fill="#132AF4"/>
<path d="M1762 529V637" stroke="#132AF4" stroke-width="15"/>
<path d="M538 347.5V275H864" stroke="#132AF4" stroke-width="15"/>
<path d="M966.5 95V455" stroke="#132AF4" stroke-width="35"/>
<path d="M881 139V411" stroke="#132AF4" stroke-width="35"/>
<path d="M1177.43 364.81L1057.32 325.106C1057.18 325.059 1057.11 325.035 1057.06 325.073C1057.02 325.11 1057.03 325.184 1057.06 325.332L1064.4 365L1057.06 404.668C1057.03 404.816 1057.02 404.89 1057.06 404.927C1057.11 404.965 1057.18 404.941 1057.32 404.894L1177.43 365.19C1177.66 365.111 1177.78 365.072 1177.78 365C1177.78 364.928 1177.66 364.889 1177.43 364.81Z" fill="#132AF4"/>
<path d="M1064.4 365L1057.06 404.668C1057.03 404.816 1057.02 404.89 1057.06 404.927C1057.11 404.965 1057.18 404.941 1057.32 404.894L1177.43 365.19C1177.66 365.111 1177.78 365.072 1177.78 365C1177.78 364.928 1177.66 364.889 1177.43 364.81L1057.32 325.106C1057.18 325.059 1057.11 325.035 1057.06 325.073C1057.02 325.11 1057.03 325.184 1057.06 325.332L1064.4 365ZM1064.4 365H983.5" stroke="#132AF4" stroke-width="15"/>
<path d="M1178 365H1194V643" stroke="#132AF4" stroke-width="15"/>
<path d="M984 185H1194V5" stroke="#132AF4" stroke-width="15"/>
<path d="M863.5 275H690" stroke="#132AF4" stroke-width="15"/>
<path d="M984 275.005H1272.5V667.505H1196" stroke="#132AF4" stroke-width="15"/>
<path d="M1186.5 8H1762V316" stroke="#132AF4" stroke-width="15"/>
<path d="M1934 342.424C1934 339.313 1934.92 336.839 1936.76 335H1939.09C1945.03 335.424 1952.45 335.636 1961.36 335.636C1978.05 335.636 1987.88 335.424 1990.85 335H1992.97C1993.82 335.849 1994.24 336.485 1994.24 336.909C1994.24 337.333 1994.1 338.606 1993.82 340.727C1993.11 342.849 1992.48 344.192 1991.91 344.758H1987.46C1984.34 345.041 1982.22 345.182 1981.09 345.182C1976.99 345.889 1974.73 346.95 1974.3 348.364C1974.3 348.647 1976.35 366.395 1980.46 401.607C1984.56 436.82 1986.68 454.568 1986.82 454.851L2002.3 430.032C2012.63 413.486 2022.95 396.799 2033.27 379.971C2043.6 363.142 2048.9 354.445 2049.18 353.879C2049.75 352.889 2050.03 351.829 2050.03 350.697C2050.03 347.303 2046.92 345.324 2040.7 344.758C2038.15 344.758 2036.88 343.98 2036.88 342.424C2036.88 342.283 2037.02 341.364 2037.3 339.667C2037.73 337.687 2038.15 336.414 2038.58 335.849C2039 335.283 2039.92 335 2041.34 335C2041.62 335 2042.47 335 2043.88 335C2045.3 335 2047.7 335.071 2051.09 335.212C2054.49 335.354 2059.01 335.424 2064.67 335.424C2074.43 335.424 2080.58 335.283 2083.12 335H2084.61C2085.6 335.99 2086.09 336.768 2086.09 337.333C2086.09 339.738 2085.46 342 2084.18 344.121C2083.76 344.546 2082.56 344.758 2080.58 344.758C2078.74 344.899 2077.04 345.041 2075.49 345.182C2073.93 345.324 2072.45 345.677 2071.03 346.243C2069.62 346.808 2068.49 347.303 2067.64 347.728C2066.79 348.152 2065.94 348.718 2065.09 349.425C2064.24 350.132 2063.54 350.627 2062.97 350.909C2062.41 351.192 2061.84 351.829 2061.28 352.819C2060.71 353.809 2060.21 354.303 2059.79 354.303L2018.85 420.062C1993.4 461.215 1980.24 482.286 1979.39 483.276C1978.97 483.558 1978.48 483.912 1977.91 484.336L1974.09 484.548H1972.61C1970.06 484.548 1968.79 484.053 1968.79 483.063C1968.36 482.215 1965.61 459.588 1960.52 415.183C1955.14 370.213 1952.38 347.515 1952.24 347.091C1951.54 345.536 1947.15 344.758 1939.09 344.758H1935.48C1934.49 344.051 1934 343.273 1934 342.424Z" fill="#132AF4" stroke="#132AF4" stroke-width="12"/>
<path d="M2096.68 417.517C2096.68 416.817 2093.83 416.367 2088.13 416.167C2085.83 416.167 2084.33 416.117 2083.63 416.017C2082.93 415.917 2082.58 415.467 2082.58 414.668C2082.58 413.868 2082.78 412.868 2083.18 411.668C2083.58 410.468 2083.93 409.718 2084.23 409.418C2084.43 409.318 2094.38 409.268 2114.08 409.268C2130.78 409.368 2140.12 409.418 2142.12 409.418C2144.12 409.418 2146.12 409.718 2148.12 410.318C2155.32 412.018 2161.42 415.967 2166.42 422.166C2171.42 428.365 2173.97 436.663 2174.07 447.062C2174.07 462.659 2168.72 476.656 2158.02 489.054C2147.32 501.452 2134.72 508.85 2120.23 511.25L2118.13 511.55L2089.03 511.7H2072.39H2064.44C2062.04 511.7 2060.49 511.6 2059.79 511.4C2059.09 511.2 2058.69 510.75 2058.59 510.05C2058.59 509.85 2058.74 509.15 2059.04 507.95C2059.44 506.351 2059.84 505.451 2060.24 505.251C2060.64 505.051 2061.79 504.901 2063.69 504.801C2066.39 504.801 2069.39 504.651 2072.69 504.351C2074.09 504.051 2075.04 503.451 2075.54 502.551C2075.84 502.151 2079.44 488.254 2086.33 460.859C2093.23 433.464 2096.68 419.017 2096.68 417.517ZM2159.07 441.363C2159.07 437.563 2158.52 434.164 2157.42 431.164C2156.32 428.165 2155.02 425.815 2153.52 424.116C2152.02 422.416 2150.17 420.966 2147.97 419.767C2145.77 418.567 2143.82 417.767 2142.12 417.367C2140.42 416.967 2138.67 416.617 2136.87 416.317C2136.67 416.317 2135.97 416.317 2134.77 416.317C2133.58 416.317 2132.13 416.317 2130.43 416.317C2128.73 416.317 2127.08 416.267 2125.48 416.167H2119.03C2114.63 416.167 2112.13 416.667 2111.53 417.667C2111.33 418.067 2107.68 432.464 2100.58 460.859C2093.48 489.254 2089.93 503.601 2089.93 503.901C2089.93 504.301 2090.48 504.501 2091.58 504.501C2092.68 504.501 2096.53 504.551 2103.13 504.651C2103.63 504.651 2104.58 504.651 2105.98 504.651C2107.38 504.651 2108.58 504.701 2109.58 504.801C2122.18 504.801 2132.58 500.702 2140.77 492.503C2144.37 488.904 2147.32 484.705 2149.62 479.906C2151.92 475.106 2154.07 468.758 2156.07 460.859C2158.07 452.96 2159.07 446.462 2159.07 441.363Z" fill="#132AF4" stroke="#132AF4" stroke-width="12"/>
<path d="M2224.01 508.101C2229.91 508.101 2235.31 505.502 2240.21 500.303C2245.1 495.104 2247.6 489.055 2247.7 482.156C2247.7 475.857 2245.1 471.508 2239.91 469.108C2229.31 466.409 2222.51 464.559 2219.51 463.559C2216.51 462.56 2214.41 461.56 2213.21 460.56C2207.21 456.361 2204.21 450.312 2204.21 442.413C2204.21 436.314 2205.81 430.765 2209.01 425.766C2212.21 420.767 2215.46 417.018 2218.76 414.518C2221.66 412.019 2225.16 410.019 2229.26 408.52C2233.36 407.02 2236.56 406.22 2238.86 406.12H2240.51H2241.55C2251.15 406.12 2258.1 409.319 2262.4 415.718C2262.5 415.718 2263.15 415.068 2264.35 413.769C2265.55 412.469 2266.85 411.019 2268.25 409.419C2269.65 407.82 2270.65 406.72 2271.25 406.12C2271.35 406.12 2271.55 406.12 2271.85 406.12C2272.15 406.12 2272.4 406.07 2272.6 405.97C2273.9 405.97 2274.55 406.32 2274.55 407.02C2274.55 407.72 2273.15 413.769 2270.35 425.166C2267.55 436.564 2265.95 442.463 2265.55 442.863C2265.15 443.263 2264.35 443.413 2263.15 443.313C2261.15 443.313 2260.15 442.863 2260.15 441.963C2260.15 441.364 2260.2 440.864 2260.3 440.464C2260.3 440.164 2260.35 439.214 2260.45 437.614C2260.55 436.014 2260.65 434.715 2260.75 433.715C2260.75 430.316 2260.3 427.366 2259.4 424.867C2258.5 422.367 2257.6 420.517 2256.7 419.318C2255.8 418.118 2254.55 416.868 2252.95 415.568C2249.35 413.469 2245.25 412.419 2240.66 412.419C2234.96 412.419 2229.66 414.718 2224.76 419.318C2219.86 423.917 2217.36 429.216 2217.26 435.215C2217.26 438.214 2218.01 440.814 2219.51 443.013C2221.01 445.213 2223.06 446.763 2225.66 447.662C2226.06 447.862 2229.56 448.812 2236.16 450.512C2242.75 452.212 2246.1 453.111 2246.2 453.211C2249.6 454.311 2252.9 456.711 2256.1 460.41C2259.3 464.109 2260.9 469.108 2260.9 475.407C2260.9 478.007 2260.5 480.806 2259.7 483.806C2259.2 486.005 2258.3 488.455 2257 491.154C2255.7 493.854 2253.9 496.803 2251.6 500.003C2249.3 503.202 2246 506.202 2241.7 509.001C2237.41 511.801 2232.71 513.7 2227.61 514.7C2226.41 514.9 2224.71 515 2222.51 515C2212.61 515 2204.91 512.251 2199.41 506.752L2197.91 505.102L2193.71 509.751C2191.41 512.45 2190.01 514 2189.51 514.4C2189.01 514.8 2188.36 515 2187.56 515C2186.27 515 2185.62 514.6 2185.62 513.8C2185.62 513.5 2188.51 501.752 2194.31 478.557C2194.51 477.957 2195.51 477.657 2197.31 477.657H2199.26C2199.86 478.257 2200.16 478.807 2200.16 479.307C2200.16 479.507 2200.11 479.956 2200.01 480.656C2199.91 481.356 2199.71 482.406 2199.41 483.806C2199.11 485.205 2199.01 486.855 2199.11 488.755C2199.31 492.654 2200.21 495.953 2201.81 498.653C2203.41 501.353 2205.56 503.352 2208.26 504.652C2210.96 505.952 2213.56 506.851 2216.06 507.351C2218.56 507.851 2221.21 508.101 2224.01 508.101Z" fill="#132AF4" stroke="#132AF4" stroke-width="12"/>
<path d="M6 372.424C6 369.313 6.9192 366.839 8.75761 365H11.091C17.0304 365.424 24.4548 365.636 33.364 365.636C50.051 365.636 59.8794 365.424 62.8492 365H64.9704C65.8189 365.849 66.2432 366.485 66.2432 366.909C66.2432 367.333 66.1017 368.606 65.8189 370.727C65.1118 372.849 64.4755 374.192 63.9098 374.758H59.4552C56.3441 375.041 54.2228 375.182 53.0915 375.182C48.9904 375.889 46.7278 376.95 46.3035 378.364C46.3035 378.647 48.3541 396.394 52.4551 431.607C56.5562 466.82 58.6774 484.567 58.8188 484.85L74.3039 460.032C84.6272 443.486 94.9506 426.799 105.274 409.97C115.597 393.142 120.9 384.445 121.183 383.879C121.749 382.889 122.032 381.829 122.032 380.697C122.032 377.303 118.921 375.323 112.698 374.758C110.153 374.758 108.88 373.98 108.88 372.424C108.88 372.283 109.021 371.364 109.304 369.667C109.729 367.687 110.153 366.414 110.577 365.849C111.001 365.283 111.92 365 113.335 365C113.617 365 114.466 365 115.88 365C117.294 365 119.698 365.071 123.092 365.212C126.486 365.354 131.012 365.424 136.668 365.424C146.426 365.424 152.578 365.283 155.123 365H156.608C157.598 365.99 158.093 366.768 158.093 367.333C158.093 369.738 157.456 372 156.184 374.121C155.759 374.546 154.557 374.758 152.578 374.758C150.739 374.899 149.042 375.041 147.487 375.182C145.931 375.323 144.446 375.677 143.032 376.243C141.618 376.808 140.486 377.303 139.638 377.728C138.79 378.152 137.941 378.717 137.093 379.425C136.244 380.132 135.537 380.627 134.971 380.909C134.406 381.192 133.84 381.829 133.274 382.819C132.709 383.808 132.214 384.303 131.789 384.303L90.8495 450.062C65.3947 491.214 52.243 512.285 51.3945 513.275C50.9702 513.557 50.4753 513.911 49.9096 514.335L46.0914 514.547H44.6065C42.061 514.547 40.7883 514.052 40.7883 513.062C40.3641 512.214 37.6064 489.587 32.5155 445.183C27.1417 400.213 24.3841 377.515 24.2426 377.091C23.5356 375.536 19.1517 374.758 11.091 374.758H7.48487C6.49496 374.051 6 373.273 6 372.424Z" fill="#132AF4" stroke="#132AF4" stroke-width="12"/>
<path d="M133.148 503.908C133.148 492.41 136.498 481.362 143.197 470.764C149.895 460.166 158.344 451.768 168.542 445.569C178.74 439.37 188.938 436.221 199.136 436.121C208.134 436.121 215.283 438.67 220.582 443.769C221.482 444.769 222.232 445.619 222.831 446.319C223.431 447.019 223.831 447.519 224.031 447.818L224.181 448.268C224.481 448.268 225.831 446.969 228.23 444.369C228.93 443.769 229.68 443.069 230.48 442.27C231.28 441.47 232.08 440.67 232.88 439.87C233.679 439.07 234.179 438.52 234.379 438.22L236.629 435.971H237.529C238.928 435.971 239.628 436.321 239.628 437.021C239.628 437.42 238.029 444.269 234.829 457.567C231.23 471.464 229.43 478.463 229.43 478.563C229.23 479.063 228.98 479.362 228.68 479.462C228.38 479.562 227.481 479.662 225.981 479.762H223.581C222.981 479.163 222.681 478.713 222.681 478.413C222.681 478.313 222.731 477.963 222.831 477.363C222.931 476.763 223.031 475.763 223.131 474.363C223.231 472.964 223.281 471.364 223.281 469.564C223.281 462.466 221.682 456.267 218.482 450.968C215.283 445.669 209.834 442.969 202.135 442.869C200.336 442.869 198.386 443.019 196.286 443.319C194.187 443.619 191.537 444.269 188.338 445.269C185.139 446.269 182.089 447.668 179.19 449.468C176.29 451.268 173.141 453.667 169.741 456.667C166.342 459.666 163.443 463.216 161.043 467.315C158.644 471.414 156.294 476.513 153.994 482.612C151.695 488.711 150.145 495.409 149.345 502.708C149.145 504.508 149.045 506.457 149.045 508.557C149.045 513.356 149.745 517.605 151.145 521.305C152.545 525.004 154.344 527.853 156.544 529.853C158.744 531.852 161.243 533.552 164.043 534.952C166.842 536.352 169.442 537.201 171.841 537.501C174.241 537.801 176.49 538.001 178.59 538.101C183.989 538.101 188.938 536.952 193.437 534.652C197.936 532.352 201.036 529.403 202.735 525.804C203.035 525.004 203.785 522.254 204.985 517.555C206.185 512.856 206.784 510.207 206.784 509.607C206.784 508.807 206.135 508.307 204.835 508.107C203.535 507.907 200.536 507.757 195.837 507.657H190.288C189.688 507.057 189.388 506.657 189.388 506.457C189.388 506.257 189.488 505.308 189.688 503.608C190.088 502.308 190.588 501.358 191.187 500.758H193.737C197.736 500.958 204.735 501.058 214.733 501.058C218.732 501.058 221.982 501.058 224.481 501.058C226.981 501.058 228.78 501.008 229.88 500.908C230.98 500.808 231.58 500.808 231.68 500.908C233.079 500.908 233.779 501.358 233.779 502.258C233.779 502.458 233.679 503.158 233.479 504.358C232.979 506.257 232.48 507.307 231.98 507.507C231.68 507.607 230.93 507.657 229.73 507.657C227.73 507.657 225.681 507.807 223.581 508.107C222.881 508.407 222.381 508.857 222.082 509.457C221.782 510.057 221.082 512.606 219.982 517.105C219.082 520.405 218.332 523.204 217.732 525.504C215.233 535.702 213.833 540.951 213.533 541.251C213.333 541.451 213.083 541.551 212.783 541.551C211.784 541.551 210.384 540.551 208.584 538.551C206.784 536.552 205.635 535.002 205.135 533.902C205.135 533.802 205.035 533.802 204.835 533.902C204.635 534.002 204.335 534.252 203.935 534.652C196.536 541.551 186.538 545 173.941 545C161.843 545 152.045 541.151 144.546 533.452C137.048 525.754 133.248 515.906 133.148 503.908Z" fill="#132AF4" stroke="#132AF4" stroke-width="12"/>
<path d="M289.719 538.101C295.618 538.101 301.017 535.502 305.916 530.303C310.815 525.104 313.314 519.055 313.414 512.156C313.414 505.857 310.815 501.508 305.616 499.109C295.018 496.409 288.219 494.56 285.22 493.56C282.22 492.56 280.121 491.56 278.921 490.56C272.922 486.361 269.923 480.312 269.923 472.414C269.923 466.315 271.522 460.766 274.722 455.767C277.921 450.768 281.171 447.019 284.47 444.519C287.369 442.02 290.869 440.02 294.968 438.52C299.067 437.021 302.267 436.221 304.566 436.121H306.216H307.266C316.864 436.121 323.812 439.32 328.112 445.719C328.212 445.719 328.861 445.069 330.061 443.769C331.261 442.469 332.561 441.02 333.96 439.42C335.36 437.82 336.36 436.721 336.96 436.121C337.06 436.121 337.26 436.121 337.56 436.121C337.86 436.121 338.11 436.071 338.31 435.971C339.609 435.971 340.259 436.321 340.259 437.021C340.259 437.72 338.86 443.769 336.06 455.167C333.261 466.565 331.661 472.464 331.261 472.864C330.861 473.264 330.061 473.414 328.861 473.314C326.862 473.314 325.862 472.864 325.862 471.964C325.862 471.364 325.912 470.864 326.012 470.464C326.012 470.164 326.062 469.214 326.162 467.615C326.262 466.015 326.362 464.715 326.462 463.715C326.462 460.316 326.012 457.367 325.112 454.867C324.212 452.368 323.313 450.518 322.413 449.318C321.513 448.118 320.263 446.869 318.663 445.569C315.064 443.469 310.965 442.419 306.366 442.419C300.667 442.419 295.368 444.719 290.469 449.318C285.57 453.917 283.07 459.216 282.97 465.215C282.97 468.215 283.72 470.814 285.22 473.014C286.719 475.213 288.769 476.763 291.369 477.663C291.768 477.863 295.268 478.813 301.867 480.512C308.465 482.212 311.815 483.112 311.915 483.212C315.314 484.312 318.613 486.711 321.813 490.41C325.012 494.11 326.612 499.109 326.612 505.408C326.612 508.007 326.212 510.806 325.412 513.806C324.912 516.006 324.012 518.455 322.713 521.155C321.413 523.854 319.613 526.803 317.314 530.003C315.014 533.202 311.715 536.202 307.416 539.001C303.116 541.801 298.417 543.7 293.318 544.7C292.118 544.9 290.419 545 288.219 545C278.321 545 270.623 542.251 265.124 536.752L263.624 535.102L259.425 539.751C257.125 542.45 255.725 544 255.225 544.4C254.726 544.8 254.076 545 253.276 545C251.976 545 251.326 544.6 251.326 543.8C251.326 543.5 254.226 531.753 260.025 508.557C260.224 507.957 261.224 507.657 263.024 507.657H264.974C265.573 508.257 265.873 508.807 265.873 509.307C265.873 509.507 265.823 509.957 265.723 510.657C265.623 511.356 265.423 512.406 265.124 513.806C264.824 515.206 264.724 516.855 264.824 518.755C265.024 522.654 265.923 525.954 267.523 528.653C269.123 531.353 271.272 533.352 273.972 534.652C276.671 535.952 279.271 536.852 281.77 537.351C284.27 537.851 286.919 538.101 289.719 538.101Z" fill="#132AF4" stroke="#132AF4" stroke-width="12"/>
<circle cx="538" cy="455" r="102.5" stroke="#132AF4" stroke-width="15"/>
<path d="M464.672 456.7C464.672 456.7 476.589 416.664 505.922 423.834C535.255 431.005 541.672 479.347 568.255 486.626C594.839 493.905 613.172 455.001 613.172 455.001" stroke="#132AF4" stroke-width="15"/>
<path d="M430 291.42C430 291.42 430 290.963 430 290.051C430 289.139 430.491 288.437 431.474 287.946H462.947V272.156L463.053 256.367C463.754 255.455 464.421 254.999 465.053 254.999C465.965 254.999 466.667 255.525 467.158 256.577V287.946H498.526C499.579 288.507 500.105 289.209 500.105 290.051C500.105 290.893 499.579 291.595 498.526 292.156H467.158V323.525C466.596 324.507 465.965 324.999 465.263 324.999H465.053H464.842C464 324.999 463.368 324.507 462.947 323.525V292.156H431.474C430.491 291.665 430 290.963 430 290.051V291.42Z" fill="#132AF4" stroke="#132AF4" stroke-width="15"/>
<path d="M433 600.474C433 600.474 433 600.017 433 599.105C433 598.193 433.491 597.491 434.474 597H495.632C496.684 597.561 497.211 598.263 497.211 599.105C497.211 599.947 496.684 600.649 495.632 601.21H434.474C433.491 600.719 433 600.017 433 599.105V600.474Z" fill="#132AF4" stroke="#132AF4" stroke-width="15"/>
<circle cx="1762" cy="420" r="102.5" stroke="#132AF4" stroke-width="15"/>
<path d="M1688.67 421.7C1688.67 421.7 1700.59 381.664 1729.92 388.834C1759.26 396.005 1765.67 444.347 1792.26 451.626C1818.84 458.905 1837.17 420.001 1837.17 420.001" stroke="#132AF4" stroke-width="15"/>
<path d="M1654 274.421C1654 274.421 1654 273.965 1654 273.053C1654 272.14 1654.49 271.439 1655.47 270.947H1686.95V255.158L1687.05 239.368C1687.75 238.456 1688.42 238 1689.05 238C1689.96 238 1690.67 238.526 1691.16 239.579V270.947H1722.53C1723.58 271.509 1724.11 272.211 1724.11 273.053C1724.11 273.895 1723.58 274.596 1722.53 275.158H1691.16V306.526C1690.6 307.509 1689.96 308 1689.26 308H1689.05H1688.84C1688 308 1687.37 307.509 1686.95 306.526V275.158H1655.47C1654.49 274.667 1654 273.965 1654 273.053V274.421Z" fill="#132AF4" stroke="#132AF4" stroke-width="15"/>
<path d="M1657 583.475C1657 583.475 1657 583.019 1657 582.107C1657 581.194 1657.49 580.493 1658.47 580.001H1719.63C1720.68 580.563 1721.21 581.265 1721.21 582.107C1721.21 582.949 1720.68 583.651 1719.63 584.212H1658.47C1657.49 583.721 1657 583.019 1657 582.107V583.475Z" fill="#132AF4" stroke="#132AF4" stroke-width="15"/>
</svg>
