<svg width="2045" height="2181" viewBox="0 0 2045 2181" fill="none" xmlns="http://www.w3.org/2000/svg">
<path d="M1053 1712.99V1800.99" stroke="#132AF4" stroke-width="15"/>
<path d="M1053 1172.99V880.495" stroke="#132AF4" stroke-width="15"/>
<path d="M1053 812.995V767.995L963 752.995L1143 722.995L963 692.995L1143 662.995L963 632.995L1143 602.995L963 572.995L1143 542.995L963 512.995L1143 482.995L1053 467.995V422.995" stroke="#132AF4" stroke-width="15"/>
<path d="M1053.37 353.995C1072.7 353.995 1088.37 369.665 1088.37 388.995C1088.37 408.325 1072.7 423.995 1053.37 423.995C1034.04 423.995 1018.37 408.325 1018.37 388.995C1018.37 369.665 1034.04 353.995 1053.37 353.995Z" fill="#132AF4"/>
<circle cx="1053" cy="846.995" r="35" transform="rotate(-90 1053 846.995)" fill="#132AF4"/>
<path d="M1053 124.495V253.495" stroke="#132AF4" stroke-width="15"/>
<path d="M883 106.995H1224" stroke="#132AF4" stroke-width="35"/>
<path d="M951 2014.99H1154" stroke="#132AF4" stroke-width="35"/>
<path d="M986 2093.99H1117" stroke="#132AF4" stroke-width="35"/>
<path d="M1009 2162.99H1095" stroke="#132AF4" stroke-width="35"/>
<path d="M1051.69 1997.99V1868.99" stroke="#132AF4" stroke-width="15"/>
<path d="M1052 1799.99C1071.33 1799.99 1087 1815.66 1087 1834.99C1087 1854.32 1071.33 1869.99 1052 1869.99C1032.67 1869.99 1017 1854.32 1017 1834.99C1017 1815.66 1032.67 1799.99 1052 1799.99Z" fill="#132AF4"/>
<path d="M1053 253.495V371.995" stroke="#132AF4" stroke-width="15"/>
<path d="M825.5 1262.99V1622.99" stroke="#132AF4" stroke-width="35"/>
<path d="M740 1306.99V1578.99" stroke="#132AF4" stroke-width="35"/>
<path d="M1036.43 1532.8L916.321 1493.1C916.178 1493.05 916.106 1493.03 916.063 1493.07C916.02 1493.1 916.034 1493.18 916.062 1493.33L923.402 1532.99L916.062 1572.66C916.034 1572.81 916.02 1572.88 916.063 1572.92C916.106 1572.96 916.178 1572.94 916.321 1572.89L1036.43 1533.18C1036.66 1533.11 1036.78 1533.07 1036.78 1532.99C1036.78 1532.92 1036.66 1532.88 1036.43 1532.8Z" fill="#132AF4"/>
<path d="M923.402 1532.99L916.062 1572.66C916.034 1572.81 916.02 1572.88 916.063 1572.92C916.106 1572.96 916.178 1572.94 916.321 1572.89L1036.43 1533.18C1036.66 1533.11 1036.78 1533.07 1036.78 1532.99C1036.78 1532.92 1036.66 1532.88 1036.43 1532.8L916.321 1493.1C916.178 1493.05 916.106 1493.03 916.063 1493.07C916.02 1493.1 916.034 1493.18 916.062 1493.33L923.402 1532.99ZM923.402 1532.99H842.5" stroke="#132AF4" stroke-width="15"/>
<path d="M1037 1532.99H1053V1712.99" stroke="#132AF4" stroke-width="15"/>
<path d="M843 1352.99H1053V1172.99" stroke="#132AF4" stroke-width="15"/>
<path d="M722.5 1442.99H549" stroke="#132AF4" stroke-width="15"/>
<circle cx="515" cy="1442.99" r="27.5" transform="rotate(-90 515 1442.99)" stroke="#132AF4" stroke-width="15"/>
<path d="M1053.5 1089.99H1504.5" stroke="#132AF4" stroke-width="15"/>
<circle cx="1538.5" cy="1089.99" r="27.5" transform="rotate(90 1538.5 1089.99)" stroke="#132AF4" stroke-width="15"/>
<path d="M1053 1054.99C1072.33 1054.99 1088 1070.66 1088 1089.99C1088 1109.32 1072.33 1124.99 1053 1124.99C1033.67 1124.99 1018 1109.32 1018 1089.99C1018 1070.66 1033.67 1054.99 1053 1054.99Z" fill="#132AF4"/>
<path d="M1300 16.3158C1300 12.8311 1301.03 10.0591 1303.09 7.99997H1305.7C1312.36 8.47516 1320.67 8.71275 1330.65 8.71275C1349.34 8.71275 1360.35 8.47516 1363.68 7.99997H1366.05C1367 8.95035 1367.48 9.66315 1367.48 10.1383C1367.48 10.6135 1367.32 12.0391 1367 14.4151C1366.21 16.791 1365.5 18.2958 1364.87 18.9294H1359.88C1356.39 19.2462 1354.01 19.4046 1352.75 19.4046C1348.15 20.1965 1345.62 21.3845 1345.14 22.9685C1345.14 23.2853 1347.44 43.1641 1352.03 82.605C1356.63 122.046 1359 141.925 1359.16 142.241L1376.51 114.443C1388.07 95.9104 1399.63 77.2195 1411.2 58.3702C1422.76 39.521 1428.7 29.7796 1429.02 29.146C1429.65 28.0372 1429.97 26.8492 1429.97 25.582C1429.97 21.7805 1426.48 19.563 1419.51 18.9294C1416.66 18.9294 1415.24 18.0582 1415.24 16.3158C1415.24 16.1574 1415.39 15.1278 1415.71 13.2271C1416.19 11.0095 1416.66 9.58394 1417.14 8.95035C1417.61 8.31677 1418.64 7.99997 1420.22 7.99997C1420.54 7.99997 1421.49 7.99997 1423.08 7.99997C1424.66 7.99997 1427.35 8.07918 1431.15 8.23756C1434.96 8.39597 1440.02 8.47516 1446.36 8.47516C1457.29 8.47516 1464.18 8.31677 1467.03 7.99997H1468.69C1469.8 9.10875 1470.36 9.97993 1470.36 10.6135C1470.36 13.3063 1469.64 15.8406 1468.22 18.2166C1467.74 18.6918 1466.4 18.9294 1464.18 18.9294C1462.12 19.0878 1460.22 19.2462 1458.48 19.4046C1456.74 19.563 1455.07 19.959 1453.49 20.5925C1451.9 21.2261 1450.64 21.7805 1449.69 22.2557C1448.74 22.7309 1447.79 23.3645 1446.84 24.1565C1445.89 24.9485 1445.09 25.5029 1444.46 25.8196C1443.83 26.1364 1443.19 26.8492 1442.56 27.958C1441.93 29.0668 1441.37 29.6212 1440.9 29.6212L1395.04 103.276C1366.53 149.369 1351.8 172.971 1350.85 174.079C1350.37 174.396 1349.82 174.792 1349.18 175.267L1344.91 175.505H1343.24C1340.39 175.505 1338.97 174.95 1338.97 173.842C1338.49 172.891 1335.4 147.548 1329.7 97.8111C1323.68 47.4408 1320.59 22.0181 1320.43 21.5429C1319.64 19.8006 1314.73 18.9294 1305.7 18.9294H1301.66C1300.56 18.1374 1300 17.2662 1300 16.3158Z" fill="#132AF4" stroke="#132AF4" stroke-width="15"/>
<path d="M1482.22 100.426C1482.22 99.6425 1479.02 99.1386 1472.64 98.9146C1470.06 98.9146 1468.38 98.8586 1467.6 98.7467C1466.82 98.6347 1466.43 98.1307 1466.43 97.2348C1466.43 96.3389 1466.65 95.2191 1467.1 93.8752C1467.55 92.5314 1467.94 91.6915 1468.27 91.3555C1468.5 91.2435 1479.64 91.1875 1501.7 91.1875C1520.4 91.2995 1530.87 91.3555 1533.11 91.3555C1535.35 91.3555 1537.59 91.6915 1539.83 92.3634C1547.9 94.2672 1554.73 98.6907 1560.33 105.634C1565.93 112.577 1568.78 121.872 1568.89 133.519C1568.89 150.988 1562.9 166.667 1550.92 180.553C1538.94 194.439 1524.83 202.726 1508.59 205.414L1506.24 205.75L1473.65 205.918H1455H1446.1C1443.41 205.918 1441.68 205.806 1440.89 205.582C1440.11 205.358 1439.66 204.854 1439.55 204.07C1439.55 203.846 1439.72 203.062 1440.05 201.718C1440.5 199.927 1440.95 198.919 1441.4 198.695C1441.84 198.471 1443.13 198.303 1445.26 198.191C1448.28 198.191 1451.64 198.023 1455.34 197.687C1456.91 197.351 1457.97 196.679 1458.53 195.671C1458.87 195.223 1462.9 179.657 1470.62 148.973C1478.35 118.288 1482.22 102.106 1482.22 100.426ZM1552.1 127.135C1552.1 122.88 1551.48 119.072 1550.25 115.713C1549.02 112.353 1547.56 109.721 1545.88 107.818C1544.2 105.914 1542.13 104.29 1539.66 102.946C1537.2 101.602 1535.02 100.706 1533.11 100.258C1531.21 99.8105 1529.25 99.4186 1527.23 99.0826C1527.01 99.0826 1526.23 99.0826 1524.88 99.0826C1523.54 99.0826 1521.91 99.0826 1520.01 99.0826C1518.11 99.0826 1516.26 99.0266 1514.47 98.9146H1507.24C1502.32 98.9146 1499.52 99.4746 1498.85 100.594C1498.62 101.042 1494.53 117.168 1486.58 148.973C1478.63 180.777 1474.66 196.847 1474.66 197.183C1474.66 197.631 1475.27 197.855 1476.5 197.855C1477.74 197.855 1482.05 197.911 1489.44 198.023C1490 198.023 1491.06 198.023 1492.63 198.023C1494.2 198.023 1495.54 198.079 1496.66 198.191C1510.77 198.191 1522.42 193.599 1531.6 184.417C1535.63 180.385 1538.94 175.682 1541.51 170.306C1544.09 164.931 1546.5 157.82 1548.74 148.973C1550.98 140.126 1552.1 132.847 1552.1 127.135Z" fill="#132AF4" stroke="#132AF4" stroke-width="15"/>
<path d="M1621.3 100.426C1621.3 99.6425 1618.11 99.1386 1611.73 98.9146C1609.15 98.9146 1607.47 98.8586 1606.69 98.7467C1605.9 98.6347 1605.51 98.1307 1605.51 97.2348C1605.51 96.3389 1605.73 95.2191 1606.18 93.8752C1606.63 92.5314 1607.02 91.6915 1607.36 91.3555C1607.58 91.2435 1618.73 91.1875 1640.79 91.1875C1659.49 91.2995 1669.96 91.3555 1672.2 91.3555C1674.44 91.3555 1676.68 91.6915 1678.92 92.3634C1686.98 94.2672 1693.81 98.6907 1699.41 105.634C1705.01 112.577 1707.87 121.872 1707.98 133.519C1707.98 150.988 1701.99 166.667 1690 180.553C1678.02 194.439 1663.91 202.726 1647.67 205.414L1645.32 205.75L1612.73 205.918H1594.09H1585.19C1582.5 205.918 1580.76 205.806 1579.98 205.582C1579.19 205.358 1578.75 204.854 1578.63 204.07C1578.63 203.846 1578.8 203.062 1579.14 201.718C1579.59 199.927 1580.03 198.919 1580.48 198.695C1580.93 198.471 1582.22 198.303 1584.35 198.191C1587.37 198.191 1590.73 198.023 1594.42 197.687C1595.99 197.351 1597.06 196.679 1597.62 195.671C1597.95 195.223 1601.98 179.657 1609.71 148.973C1617.44 118.288 1621.3 102.106 1621.3 100.426ZM1691.18 127.135C1691.18 122.88 1690.56 119.072 1689.33 115.713C1688.1 112.353 1686.64 109.721 1684.97 107.818C1683.29 105.914 1681.21 104.29 1678.75 102.946C1676.29 101.602 1674.1 100.706 1672.2 100.258C1670.29 99.8105 1668.34 99.4186 1666.32 99.0826C1666.1 99.0826 1665.31 99.0826 1663.97 99.0826C1662.62 99.0826 1661 99.0826 1659.1 99.0826C1657.19 99.0826 1655.34 99.0266 1653.55 98.9146H1646.33C1641.4 98.9146 1638.6 99.4746 1637.93 100.594C1637.71 101.042 1633.62 117.168 1625.67 148.973C1617.72 180.777 1613.74 196.847 1613.74 197.183C1613.74 197.631 1614.36 197.855 1615.59 197.855C1616.82 197.855 1621.13 197.911 1628.52 198.023C1629.08 198.023 1630.15 198.023 1631.72 198.023C1633.28 198.023 1634.63 198.079 1635.75 198.191C1649.86 198.191 1661.5 193.599 1670.69 184.417C1674.72 180.385 1678.02 175.682 1680.6 170.306C1683.17 164.931 1685.58 157.82 1687.82 148.973C1690.06 140.126 1691.18 132.847 1691.18 127.135Z" fill="#132AF4" stroke="#132AF4" stroke-width="15"/>
<path d="M1239.81 529.927C1235.53 529.927 1233 529.848 1232.2 529.689C1231.41 529.531 1231.02 528.66 1231.02 527.076C1231.02 522.799 1231.89 520.186 1233.63 519.235C1233.95 519.077 1247.73 518.998 1274.97 518.998C1302.22 519.156 1316.95 519.394 1319.16 519.71C1328.03 520.978 1335.48 523.195 1341.5 526.363C1347.52 529.531 1351.79 533.174 1354.33 537.292C1356.86 541.411 1358.53 544.816 1359.32 547.509C1360.11 550.202 1360.59 552.895 1360.74 555.587C1360.74 562.715 1358.45 569.368 1353.85 575.545C1349.26 581.723 1343.95 586.475 1337.93 589.801C1331.92 593.127 1326.61 595.82 1322.02 597.879C1317.42 599.938 1314.41 600.968 1312.99 600.968L1314.65 602.156C1325.26 608.175 1330.57 616.887 1330.57 628.292C1330.57 630.034 1330.17 634.865 1329.38 642.785C1328.59 650.705 1328.19 657.199 1328.19 662.268V664.406C1328.19 667.257 1328.27 669.475 1328.43 671.059C1328.59 672.643 1329.46 674.068 1331.04 675.335C1332.63 676.603 1334.69 677.315 1337.22 677.474C1341.66 677.474 1345.3 675.731 1348.15 672.247C1351 668.762 1353.06 665.04 1354.33 661.08C1355.12 658.862 1355.75 657.516 1356.23 657.041C1356.7 656.565 1357.89 656.328 1359.79 656.328C1362.96 656.328 1364.55 657.278 1364.55 659.179C1364.55 662.03 1362.64 666.544 1358.84 672.722C1352.82 681.751 1345.7 686.265 1337.46 686.265H1335.32C1325.66 686.265 1317.66 684.285 1311.32 680.325C1304.99 676.365 1301.5 670.188 1300.87 661.793C1300.87 657.516 1302.06 650.863 1304.43 641.835C1306.81 632.806 1308 627.024 1308 624.49C1308 616.412 1304.59 610.551 1297.78 606.908C1295.41 605.799 1293.43 605.166 1291.84 605.007C1290.26 604.849 1284.63 604.69 1274.97 604.532H1258.58L1250.97 635.419C1245.75 656.328 1243.13 666.94 1243.13 667.257C1243.13 667.891 1243.21 668.287 1243.37 668.445C1243.53 668.604 1244.08 668.92 1245.03 669.396C1245.99 669.871 1247.33 670.029 1249.07 669.871C1250.82 669.712 1253.43 669.871 1256.91 670.346H1264.28C1265.23 671.613 1265.71 672.326 1265.71 672.484C1265.71 672.643 1265.47 674.068 1264.99 676.761C1264.36 678.82 1263.57 680.325 1262.62 681.275H1259.05C1253.35 680.959 1242.98 680.8 1227.93 680.8C1222.54 680.8 1217.55 680.8 1212.96 680.8C1208.37 680.8 1204.72 680.8 1202.03 680.8C1199.34 680.8 1197.67 680.879 1197.04 681.038C1194.35 681.038 1193 680.325 1193 678.899C1193 678.583 1193.24 677.474 1193.71 675.573C1194.51 672.564 1195.3 670.9 1196.09 670.584C1196.72 670.425 1197.91 670.346 1199.65 670.346H1201.08C1205.36 670.346 1210.11 670.108 1215.34 669.633C1217.55 669.158 1219.06 668.208 1219.85 666.782C1220.32 666.148 1226.03 644.131 1236.96 600.73C1247.89 557.33 1253.35 534.441 1253.35 532.065C1253.35 530.957 1248.84 530.244 1239.81 529.927ZM1334.85 549.647C1334.85 544.579 1333.18 540.302 1329.86 536.817C1326.53 533.333 1319.72 531.115 1309.42 530.165C1309.11 530.165 1307.28 530.165 1303.96 530.165C1300.63 530.165 1297.62 530.085 1294.93 529.927H1289.7C1282.26 529.927 1277.98 530.719 1276.87 532.303C1276.71 532.778 1274.02 543.312 1268.79 563.903C1263.57 584.495 1260.95 595.028 1260.95 595.503C1260.95 595.662 1266.42 595.741 1277.35 595.741C1289.7 595.583 1297.94 595.028 1302.06 594.078C1312.2 592.494 1320.12 587.821 1325.82 580.06C1328.35 576.417 1330.49 571.665 1332.23 565.804C1333.97 559.943 1334.85 554.558 1334.85 549.647Z" fill="#132AF4" stroke="#132AF4" stroke-width="15"/>
<path d="M1421.54 611.424C1421.54 610.641 1418.35 610.137 1411.97 609.913C1409.39 609.913 1407.71 609.857 1406.93 609.745C1406.15 609.633 1405.75 609.129 1405.75 608.233C1405.75 607.337 1405.98 606.217 1406.43 604.873C1406.87 603.529 1407.27 602.69 1407.6 602.354C1407.83 602.242 1418.97 602.186 1441.03 602.186C1459.73 602.298 1470.2 602.354 1472.44 602.354C1474.68 602.354 1476.92 602.69 1479.16 603.361C1487.22 605.265 1494.06 609.689 1499.65 616.632C1505.25 623.575 1508.11 632.87 1508.22 644.517C1508.22 661.987 1502.23 677.665 1490.25 691.551C1478.27 705.437 1464.15 713.724 1447.92 716.412L1445.57 716.748L1412.98 716.916H1394.33H1385.43C1382.74 716.916 1381 716.804 1380.22 716.58C1379.44 716.356 1378.99 715.852 1378.88 715.068C1378.88 714.844 1379.04 714.06 1379.38 712.717C1379.83 710.925 1380.28 709.917 1380.72 709.693C1381.17 709.469 1382.46 709.301 1384.59 709.189C1387.61 709.189 1390.97 709.021 1394.67 708.685C1396.23 708.349 1397.3 707.677 1397.86 706.669C1398.19 706.221 1402.23 690.655 1409.95 659.971C1417.68 629.286 1421.54 613.104 1421.54 611.424ZM1491.42 638.133C1491.42 633.878 1490.81 630.07 1489.58 626.711C1488.34 623.351 1486.89 620.719 1485.21 618.816C1483.53 616.912 1481.46 615.288 1478.99 613.944C1476.53 612.6 1474.35 611.704 1472.44 611.257C1470.54 610.809 1468.58 610.417 1466.56 610.081C1466.34 610.081 1465.55 610.081 1464.21 610.081C1462.87 610.081 1461.24 610.081 1459.34 610.081C1457.44 610.081 1455.59 610.025 1453.8 609.913H1446.57C1441.65 609.913 1438.85 610.473 1438.17 611.592C1437.95 612.04 1433.86 628.167 1425.91 659.971C1417.96 691.775 1413.98 707.845 1413.98 708.181C1413.98 708.629 1414.6 708.853 1415.83 708.853C1417.06 708.853 1421.38 708.909 1428.77 709.021C1429.33 709.021 1430.39 709.021 1431.96 709.021C1433.53 709.021 1434.87 709.077 1435.99 709.189C1450.1 709.189 1461.75 704.597 1470.93 695.415C1474.96 691.383 1478.27 686.68 1480.84 681.304C1483.42 675.929 1485.82 668.818 1488.06 659.971C1490.3 651.124 1491.42 643.845 1491.42 638.133Z" fill="#132AF4" stroke="#132AF4" stroke-width="15"/>
<path d="M1253.35 1357.06C1253.35 1356.11 1248.84 1355.48 1239.81 1355.16C1236.01 1355.16 1233.55 1355.08 1232.44 1354.93C1231.33 1354.77 1230.78 1353.97 1230.78 1352.55C1230.78 1352.39 1230.94 1351.52 1231.25 1349.94C1231.41 1349.46 1231.57 1348.91 1231.73 1348.27C1231.89 1347.64 1231.97 1347.24 1231.97 1347.08C1231.97 1346.93 1232.13 1346.53 1232.44 1345.9C1232.76 1345.26 1232.92 1345.03 1232.92 1345.18C1232.92 1345.34 1233.23 1345.18 1233.87 1344.71C1234.5 1344.23 1234.9 1344.08 1235.06 1344.23C1235.21 1344.39 1235.85 1344.39 1236.96 1344.23C1238.07 1344.08 1239.02 1344 1239.81 1344C1240.76 1344 1243.13 1344 1246.94 1344C1250.74 1344 1254.3 1344.08 1257.63 1344.23C1270.14 1344.23 1277.35 1344.23 1279.25 1344.23C1281.15 1344.23 1282.42 1344.63 1283.05 1345.42C1283.21 1346.05 1286.14 1368.39 1291.84 1412.42L1300.39 1478.71L1305.86 1469.92C1309.66 1464.22 1314.73 1456.3 1321.07 1446.16C1327.4 1436.02 1334.37 1424.94 1341.97 1412.9C1369.69 1368.71 1383.71 1346.45 1384.03 1346.13C1384.19 1345.98 1384.42 1345.74 1384.74 1345.42C1385.06 1345.1 1385.37 1344.87 1385.69 1344.71L1387.12 1344.23H1409.93C1412.62 1344.23 1415.79 1344.23 1419.43 1344.23C1423.07 1344.23 1425.37 1344.15 1426.32 1344C1431.71 1344 1434.4 1344.87 1434.4 1346.61C1434.4 1347.4 1434.16 1348.75 1433.69 1350.65C1433.21 1352.55 1432.97 1353.58 1432.97 1353.74C1432.34 1354.69 1429.41 1355.16 1424.18 1355.16C1417.85 1355.32 1413.81 1355.56 1412.06 1355.88C1410.32 1356.19 1408.9 1357.06 1407.79 1358.49C1407.31 1359.28 1401.61 1381.69 1390.68 1425.73C1379.75 1469.76 1374.21 1492.02 1374.05 1492.49C1374.05 1493.13 1374.13 1493.52 1374.29 1493.68C1374.45 1493.84 1375 1494.16 1375.95 1494.63C1376.9 1495.11 1378.25 1495.27 1379.99 1495.11C1381.73 1494.95 1384.35 1495.11 1387.83 1495.58H1395.2C1396.15 1497.01 1396.62 1497.88 1396.62 1498.2C1396.62 1500.73 1396.07 1503.11 1394.96 1505.32C1394.17 1506.12 1392.9 1506.51 1391.16 1506.51C1390.36 1506.51 1387.12 1506.43 1381.41 1506.27C1375.71 1506.12 1368.43 1506.04 1359.56 1506.04C1349.89 1506.04 1342.61 1506.04 1337.7 1506.04C1332.79 1506.04 1330.01 1506.12 1329.38 1506.27C1326.69 1506.27 1325.34 1505.48 1325.34 1503.9C1325.34 1503.58 1325.5 1502.47 1325.82 1500.57C1326.45 1498.04 1327.08 1496.61 1327.72 1496.29C1328.35 1495.98 1330.17 1495.74 1333.18 1495.58C1337.46 1495.58 1342.21 1495.34 1347.44 1494.87C1349.66 1494.39 1351.16 1493.44 1351.95 1492.02C1352.27 1491.38 1355.28 1479.82 1360.98 1457.33C1366.68 1434.84 1372.31 1412.42 1377.85 1390.09C1383.39 1367.76 1386.17 1356.59 1386.17 1356.59L1340.07 1430.01C1309.03 1479.43 1293.11 1504.53 1292.32 1505.32C1292 1505.48 1291.68 1505.64 1291.37 1505.8C1290.57 1506.27 1289.31 1506.51 1287.56 1506.51C1285.19 1506.51 1283.76 1505.96 1283.29 1504.85C1282.97 1504.21 1279.72 1479.66 1273.55 1431.19L1264.28 1358.25L1248.12 1422.4C1237.51 1464.54 1232.2 1486.32 1232.2 1487.74C1233.16 1492.97 1238.86 1495.58 1249.31 1495.58H1251.69C1252.64 1496.37 1253.19 1497.09 1253.35 1497.72C1253.51 1498.35 1253.27 1499.78 1252.64 1502C1252 1504.53 1251.37 1505.96 1250.74 1506.27C1250.1 1506.43 1249.23 1506.51 1248.12 1506.51C1247.81 1506.51 1246.86 1506.51 1245.27 1506.51C1243.69 1506.51 1241 1506.43 1237.19 1506.27C1233.39 1506.12 1228.32 1506.04 1221.99 1506.04C1217.24 1506.04 1212.33 1506.12 1207.26 1506.27C1202.19 1506.43 1199.26 1506.51 1198.47 1506.51C1196.09 1506.51 1194.59 1506.35 1193.95 1506.04C1193.32 1505.72 1193 1505.01 1193 1503.9C1193 1503.58 1193.24 1502.47 1193.71 1500.57C1194.19 1498.67 1194.59 1497.48 1194.9 1497.01C1195.22 1496.06 1196.96 1495.58 1200.13 1495.58C1211.22 1495.58 1218.27 1492.41 1221.28 1486.08C1221.91 1485.13 1227.37 1463.9 1237.67 1422.4C1247.97 1380.9 1253.19 1359.12 1253.35 1357.06Z" fill="#132AF4" stroke="#132AF4" stroke-width="15"/>
<path d="M1458.77 1445.06L1456.58 1445.9C1455.02 1446.46 1452.78 1447.02 1449.86 1447.58C1446.95 1448.14 1443.7 1448.53 1440.12 1448.75H1436.93V1441.03H1440.12C1445.38 1440.8 1450.26 1439.96 1454.74 1438.51C1459.22 1437.05 1462.35 1435.71 1464.14 1434.48C1465.93 1433.24 1467.5 1432.01 1468.85 1430.78C1469.07 1430.44 1469.74 1430.28 1470.86 1430.28C1471.87 1430.28 1472.82 1430.61 1473.72 1431.28V1481.51L1473.89 1531.9C1474.67 1532.69 1475.34 1533.19 1475.9 1533.42C1476.46 1533.64 1477.8 1533.86 1479.93 1534.09C1482.06 1534.31 1485.53 1534.42 1490.35 1534.42H1494.71V1542.15H1492.87C1490.52 1541.81 1481.61 1541.65 1466.16 1541.65C1450.93 1541.65 1442.14 1541.81 1439.79 1542.15H1437.77V1534.42H1442.14C1444.6 1534.42 1446.73 1534.42 1448.52 1534.42C1450.31 1534.42 1451.71 1534.37 1452.72 1534.26C1453.73 1534.14 1454.62 1533.98 1455.41 1533.75C1456.19 1533.53 1456.64 1533.42 1456.75 1533.42C1456.86 1533.42 1457.2 1533.14 1457.76 1532.58C1458.32 1532.02 1458.66 1531.79 1458.77 1531.9V1445.06Z" fill="#132AF4" stroke="#132AF4" stroke-width="15"/>
<path d="M1670 998.311C1670 994.827 1671.03 992.055 1673.09 989.996H1675.7C1682.36 990.471 1690.67 990.708 1700.65 990.708C1719.34 990.708 1730.35 990.471 1733.68 989.996H1736.05C1737 990.946 1737.48 991.659 1737.48 992.134C1737.48 992.609 1737.32 994.035 1737 996.411C1736.21 998.787 1735.5 1000.29 1734.87 1000.92H1729.88C1726.39 1001.24 1724.01 1001.4 1722.75 1001.4C1718.15 1002.19 1715.62 1003.38 1715.14 1004.96C1715.14 1005.28 1717.44 1025.16 1722.03 1064.6C1726.63 1104.04 1729 1123.92 1729.16 1124.24L1746.51 1096.44C1758.07 1077.91 1769.63 1059.22 1781.2 1040.37C1792.76 1021.52 1798.7 1011.78 1799.02 1011.14C1799.65 1010.03 1799.97 1008.84 1799.97 1007.58C1799.97 1003.78 1796.48 1001.56 1789.51 1000.92C1786.66 1000.92 1785.24 1000.05 1785.24 998.311C1785.24 998.153 1785.39 997.123 1785.71 995.223C1786.19 993.005 1786.66 991.58 1787.14 990.946C1787.61 990.312 1788.64 989.996 1790.22 989.996C1790.54 989.996 1791.49 989.996 1793.08 989.996C1794.66 989.996 1797.35 990.075 1801.15 990.233C1804.96 990.392 1810.02 990.471 1816.36 990.471C1827.29 990.471 1834.18 990.312 1837.03 989.996H1838.69C1839.8 991.104 1840.36 991.976 1840.36 992.609C1840.36 995.302 1839.64 997.836 1838.22 1000.21C1837.74 1000.69 1836.4 1000.92 1834.18 1000.92C1832.12 1001.08 1830.22 1001.24 1828.48 1001.4C1826.74 1001.56 1825.07 1001.95 1823.49 1002.59C1821.9 1003.22 1820.64 1003.78 1819.69 1004.25C1818.74 1004.73 1817.79 1005.36 1816.84 1006.15C1815.89 1006.94 1815.09 1007.5 1814.46 1007.82C1813.83 1008.13 1813.19 1008.84 1812.56 1009.95C1811.93 1011.06 1811.37 1011.62 1810.9 1011.62L1765.04 1085.27C1736.53 1131.36 1721.8 1154.97 1720.85 1156.07C1720.37 1156.39 1719.82 1156.79 1719.18 1157.26L1714.91 1157.5H1713.24C1710.39 1157.5 1708.97 1156.95 1708.97 1155.84C1708.49 1154.89 1705.4 1129.54 1699.7 1079.81C1693.68 1029.44 1690.59 1004.01 1690.43 1003.54C1689.64 1001.8 1684.73 1000.92 1675.7 1000.92H1671.66C1670.56 1000.13 1670 999.262 1670 998.311Z" fill="#132AF4" stroke="#132AF4" stroke-width="15"/>
<path d="M1837.77 1189.76C1829.37 1189.76 1822.59 1187.01 1817.44 1181.53C1812.29 1176.04 1809.71 1169.43 1809.71 1161.71C1809.71 1154.43 1811.39 1147.54 1814.75 1141.04C1818.11 1134.55 1822.7 1128.89 1828.53 1124.08C1837.04 1117.25 1845.72 1113.83 1854.56 1113.83C1858.15 1113.83 1860.39 1113.89 1861.28 1114C1862.74 1114.33 1864.2 1114.73 1865.65 1115.17C1867.11 1115.62 1869.07 1116.52 1871.53 1117.86C1873.99 1119.21 1876.01 1120.89 1877.58 1122.9C1879.15 1124.92 1880.6 1127.66 1881.95 1131.13C1883.29 1134.6 1883.96 1138.52 1883.96 1142.89C1883.96 1154.87 1879.15 1165.68 1869.51 1175.31C1859.88 1184.94 1849.3 1189.76 1837.77 1189.76ZM1824.33 1167.75C1824.33 1173.35 1825.78 1177.38 1828.7 1179.85C1831.61 1182.31 1834.91 1183.54 1838.61 1183.54C1843.53 1183.54 1848.18 1181.75 1852.55 1178.17C1856.92 1174.58 1860.39 1169.88 1862.96 1164.06C1863.97 1161.71 1865.26 1157.56 1866.83 1151.63C1868.39 1145.69 1869.18 1140.54 1869.18 1136.17C1869.18 1131.24 1868.17 1127.49 1866.16 1124.92C1863.47 1121.56 1859.88 1119.88 1855.4 1119.88C1848.35 1119.88 1842.13 1123.13 1836.76 1129.62C1832.62 1134.55 1829.54 1141.1 1827.52 1149.27C1825.5 1157.45 1824.44 1163.61 1824.33 1167.75Z" fill="#132AF4" stroke="#132AF4" stroke-width="15"/>
<path d="M1889 1139.7C1889 1138.8 1889.51 1137.07 1890.51 1134.49C1891.52 1131.92 1892.92 1129.01 1894.71 1125.76C1896.51 1122.51 1898.97 1119.71 1902.1 1117.36C1905.24 1115.01 1908.54 1113.77 1912.02 1113.66C1917.17 1113.66 1921.03 1115.06 1923.61 1117.86C1926.18 1120.66 1927.47 1123.97 1927.47 1127.77C1927.47 1129.79 1925.57 1136.06 1921.76 1146.59C1917.95 1157.11 1916.05 1165.01 1916.05 1170.27C1916.05 1175.09 1916.83 1178.45 1918.4 1180.35C1919.97 1182.25 1922.32 1183.26 1925.45 1183.37C1928.59 1183.49 1931.56 1182.53 1934.36 1180.52C1937.16 1178.5 1939.23 1176.6 1940.57 1174.81L1942.42 1171.95C1942.64 1171.5 1944.77 1162.99 1948.8 1146.42C1952.16 1132.98 1954.18 1125.14 1954.85 1122.9C1955.52 1120.66 1956.31 1119.04 1957.2 1118.03C1959.11 1116.35 1961.12 1115.51 1963.25 1115.51C1965.15 1115.51 1966.55 1116.07 1967.45 1117.19C1968.34 1118.31 1968.79 1119.37 1968.79 1120.38L1956.03 1173.8C1955.91 1174.36 1955.86 1175.26 1955.86 1176.49C1955.86 1179.29 1956.25 1181.13 1957.03 1182.03C1957.82 1182.93 1958.99 1183.43 1960.56 1183.54C1963.03 1183.21 1964.98 1181.47 1966.44 1178.34C1967.9 1175.2 1969.58 1170.27 1971.48 1163.55C1971.7 1162.66 1972.82 1162.21 1974.84 1162.21C1976.97 1162.21 1978.03 1162.71 1978.03 1163.72C1977.92 1164.28 1977.81 1165.06 1977.7 1166.07C1977.58 1167.08 1977.08 1168.87 1976.18 1171.45C1975.29 1174.02 1974.34 1176.43 1973.33 1178.67C1972.32 1180.91 1970.92 1183.04 1969.13 1185.05C1967.34 1187.07 1965.32 1188.47 1963.08 1189.25C1962.19 1189.48 1960.84 1189.59 1959.05 1189.59C1951.66 1189.59 1946.56 1186.45 1943.76 1180.18C1943.54 1180.29 1942.92 1180.85 1941.92 1181.86C1940.91 1182.87 1939.9 1183.71 1938.89 1184.38C1937.88 1185.05 1936.65 1185.89 1935.2 1186.9C1933.74 1187.91 1932.12 1188.58 1930.33 1188.92C1928.53 1189.25 1926.63 1189.53 1924.61 1189.76C1919.69 1189.76 1915.32 1188.75 1911.51 1186.73C1905.69 1183.26 1902.78 1177.33 1902.78 1168.93C1902.78 1162.55 1904.74 1154.2 1908.66 1143.9C1912.58 1133.6 1914.53 1127.05 1914.53 1124.25C1914.53 1124.13 1914.53 1124.02 1914.53 1123.91C1914.53 1122.9 1914.53 1122.23 1914.53 1121.89C1914.53 1121.56 1914.31 1121.17 1913.86 1120.72C1913.42 1120.27 1912.8 1120.05 1912.02 1120.05H1911.34C1908.77 1120.05 1906.42 1121.11 1904.29 1123.24C1902.16 1125.37 1900.48 1127.66 1899.25 1130.12C1898.02 1132.59 1897.06 1134.94 1896.39 1137.18C1895.72 1139.42 1895.27 1140.65 1895.05 1140.88C1894.83 1141.1 1893.93 1141.21 1892.36 1141.21H1890.01C1889.34 1140.54 1889 1140.04 1889 1139.7Z" fill="#132AF4" stroke="#132AF4" stroke-width="15"/>
<path d="M1985.93 1123.24C1985.15 1122.45 1984.76 1121.89 1984.76 1121.56C1984.76 1121.11 1984.93 1120.21 1985.26 1118.87C1985.6 1117.53 1985.88 1116.74 1986.1 1116.52C1986.33 1115.96 1986.83 1115.68 1987.61 1115.68C1988.4 1115.68 1991.25 1115.62 1996.18 1115.51H2005.08L2008.28 1102.07C2008.61 1100.84 2009 1099.22 2009.45 1097.2C2009.9 1095.19 2010.29 1093.73 2010.63 1092.83C2010.96 1091.94 2011.3 1090.82 2011.63 1089.47C2011.97 1088.13 2012.42 1087.18 2012.98 1086.62C2013.54 1086.06 2014.1 1085.39 2014.66 1084.6C2015.22 1083.82 2016 1083.31 2017.01 1083.09C2018.02 1082.87 2019.03 1082.75 2020.03 1082.75C2022.05 1082.87 2023.45 1083.48 2024.23 1084.6C2025.02 1085.72 2025.41 1086.79 2025.41 1087.79C2025.41 1088.58 2024.91 1091.21 2023.9 1095.69C2022.89 1100.17 2021.77 1104.59 2020.54 1108.96L2018.86 1115.17C2018.86 1115.4 2021.66 1115.51 2027.26 1115.51H2035.82C2036.61 1116.29 2037 1116.91 2037 1117.36C2037 1119.82 2036.27 1121.78 2034.82 1123.24H2016.84L2010.79 1147.59C2006.43 1165.51 2004.24 1175.14 2004.24 1176.49C2004.24 1181.19 2005.76 1183.54 2008.78 1183.54C2012.7 1183.54 2016.51 1181.64 2020.2 1177.83C2023.9 1174.02 2026.86 1169.32 2029.1 1163.72C2029.33 1163.05 2029.61 1162.66 2029.94 1162.55C2030.28 1162.43 2031.12 1162.32 2032.46 1162.21H2033.14C2034.82 1162.21 2035.66 1162.66 2035.66 1163.55C2035.66 1163.89 2035.49 1164.56 2035.15 1165.57C2034.59 1167.36 2033.58 1169.49 2032.13 1171.95C2030.67 1174.42 2028.77 1177.05 2026.42 1179.85C2024.07 1182.65 2021.21 1185 2017.85 1186.9C2014.49 1188.81 2011.07 1189.76 2007.6 1189.76C2004.24 1189.76 2001.05 1188.92 1998.03 1187.24C1995 1185.56 1992.82 1182.65 1991.48 1178.5C1991.25 1177.61 1991.14 1176.1 1991.14 1173.97V1170.94L1997.02 1147.43C2000.94 1131.64 2002.96 1123.69 2003.07 1123.57C2003.07 1123.35 2000.21 1123.24 1994.5 1123.24H1985.93Z" fill="#132AF4" stroke="#132AF4" stroke-width="15"/>
<path d="M8 1351.31C8 1347.83 9.02958 1345.05 11.0887 1342.99H13.7023C20.355 1343.47 28.6708 1343.71 38.6498 1343.71C57.3407 1343.71 68.3493 1343.47 71.6756 1342.99H74.0516C75.002 1343.94 75.4771 1344.66 75.4771 1345.13C75.4771 1345.61 75.3187 1347.03 75.002 1349.41C74.21 1351.79 73.4972 1353.29 72.8636 1353.92H67.8741C64.3894 1354.24 62.0134 1354.4 60.7462 1354.4C56.1527 1355.19 53.6184 1356.38 53.1432 1357.96C53.1432 1358.28 55.4399 1378.16 60.0334 1417.6C64.6269 1457.04 67.0029 1476.92 67.1613 1477.24L84.5058 1449.44C96.0688 1430.9 107.632 1412.21 119.195 1393.36C130.758 1374.52 136.698 1364.77 137.014 1364.14C137.648 1363.03 137.965 1361.84 137.965 1360.58C137.965 1356.78 134.48 1354.56 127.511 1353.92C124.659 1353.92 123.234 1353.05 123.234 1351.31C123.234 1351.15 123.392 1350.12 123.709 1348.22C124.184 1346 124.659 1344.58 125.135 1343.94C125.61 1343.31 126.639 1342.99 128.223 1342.99C128.54 1342.99 129.491 1342.99 131.075 1342.99C132.658 1342.99 135.351 1343.07 139.153 1343.23C142.954 1343.39 148.023 1343.47 154.359 1343.47C165.288 1343.47 172.179 1343.31 175.03 1342.99H176.693C177.802 1344.1 178.356 1344.97 178.356 1345.61C178.356 1348.3 177.643 1350.84 176.218 1353.21C175.742 1353.69 174.396 1353.92 172.179 1353.92C170.119 1354.08 168.219 1354.24 166.476 1354.4C164.734 1354.56 163.071 1354.95 161.487 1355.59C159.903 1356.22 158.636 1356.78 157.685 1357.25C156.735 1357.73 155.784 1358.36 154.834 1359.15C153.884 1359.94 153.092 1360.5 152.458 1360.81C151.825 1361.13 151.191 1361.84 150.557 1362.95C149.924 1364.06 149.369 1364.62 148.894 1364.62L103.038 1438.27C74.5268 1484.36 59.7958 1507.97 58.8455 1509.07C58.3703 1509.39 57.8159 1509.79 57.1823 1510.26L52.9056 1510.5H51.2424C48.3913 1510.5 46.9657 1509.95 46.9657 1508.84C46.4905 1507.89 43.4017 1482.54 37.6994 1432.81C31.6804 1382.44 28.5916 1357.01 28.4332 1356.54C27.6412 1354.8 22.7309 1353.92 13.7023 1353.92H9.66317C8.55439 1353.13 8 1352.26 8 1351.31Z" fill="#132AF4" stroke="#132AF4" stroke-width="15"/>
<path d="M172.927 1440.12C172.927 1437.43 173.991 1435.08 176.119 1433.07C178.247 1431.05 180.71 1429.99 183.51 1429.87C185.526 1429.87 187.205 1430.55 188.549 1431.89C189.893 1433.23 190.621 1434.91 190.733 1436.93C190.733 1439.51 189.613 1441.86 187.373 1443.98C185.134 1446.11 182.67 1447.23 179.982 1447.34C178.303 1447.34 176.735 1446.78 175.279 1445.66C173.823 1444.54 173.039 1442.7 172.927 1440.12ZM145.546 1492.7C145.546 1491.8 146.05 1490.07 147.058 1487.49C148.066 1484.92 149.41 1482.06 151.09 1478.92C152.77 1475.79 155.233 1472.93 158.481 1470.36C161.728 1467.78 165.088 1466.55 168.56 1466.66C172.927 1466.66 176.567 1467.95 179.478 1470.53C182.39 1473.1 183.902 1476.57 184.014 1480.94C184.014 1482.84 183.23 1485.98 181.662 1490.35C180.094 1494.71 177.855 1500.59 174.943 1507.98C172.031 1515.38 169.68 1521.7 167.888 1526.97C167.328 1529.43 167.048 1531.22 167.048 1532.34C167.048 1535.14 168 1536.54 169.904 1536.54C170.911 1536.54 171.975 1536.37 173.095 1536.04C174.215 1535.7 175.503 1534.92 176.959 1533.69C178.414 1532.45 179.926 1530.49 181.494 1527.81C183.062 1525.12 184.462 1521.82 185.694 1517.9C186.03 1516.55 186.31 1515.77 186.534 1515.54C186.758 1515.32 187.709 1515.21 189.389 1515.21C191.629 1515.21 192.749 1515.77 192.749 1516.89C192.749 1517.78 192.245 1519.52 191.237 1522.1C190.229 1524.67 188.829 1527.53 187.037 1530.66C185.246 1533.8 182.726 1536.6 179.478 1539.06C176.231 1541.52 172.759 1542.76 169.064 1542.76C165.48 1542.76 162.176 1541.58 159.153 1539.23C156.129 1536.88 154.561 1533.29 154.449 1528.48C154.449 1526.57 154.729 1524.78 155.289 1523.1C155.849 1521.42 158.257 1515.04 162.512 1503.95C166.768 1492.64 169.232 1485.87 169.904 1483.63C170.575 1481.39 170.967 1479.2 171.079 1477.08C171.079 1474.39 170.127 1473.05 168.224 1473.05H167.888C164.528 1473.05 161.449 1474.89 158.649 1478.59C155.849 1482.28 153.721 1486.99 152.266 1492.7C152.154 1492.81 152.042 1492.98 151.93 1493.2C151.818 1493.43 151.762 1493.59 151.762 1493.71C151.762 1493.82 151.65 1493.93 151.426 1494.04C151.202 1494.15 151.034 1494.21 150.922 1494.21C150.81 1494.21 150.586 1494.21 150.25 1494.21C149.914 1494.21 149.466 1494.21 148.906 1494.21H146.554C145.882 1493.54 145.546 1493.03 145.546 1492.7Z" fill="#132AF4" stroke="#132AF4" stroke-width="15"/>
<path d="M203.497 1492.7C203.609 1492.03 203.777 1491.13 204.001 1490.01C204.224 1488.89 204.896 1486.76 206.016 1483.63C207.136 1480.49 208.256 1477.86 209.376 1475.73C210.496 1473.61 212.344 1471.53 214.919 1469.52C217.495 1467.5 220.071 1466.55 222.646 1466.66C226.678 1466.66 230.037 1467.67 232.725 1469.69C235.413 1471.7 237.093 1473.61 237.765 1475.4C238.436 1477.19 238.772 1478.36 238.772 1478.92C238.772 1479.15 238.828 1479.26 238.94 1479.26L240.788 1477.41C247.619 1470.25 255.402 1466.66 264.137 1466.66C270.185 1466.66 275.056 1468.17 278.752 1471.2C282.447 1474.22 284.351 1478.64 284.463 1484.47C284.575 1490.29 282.447 1499.08 278.08 1510.84C273.712 1522.6 271.585 1529.71 271.697 1532.17C271.697 1535.09 272.648 1536.54 274.552 1536.54C275.224 1536.54 275.728 1536.49 276.064 1536.37C279.312 1535.81 282.223 1533.69 284.799 1529.99C287.375 1526.29 289.334 1521.82 290.678 1516.55C290.902 1515.66 292.022 1515.21 294.038 1515.21C296.278 1515.21 297.397 1515.66 297.397 1516.55C297.397 1516.66 297.173 1517.5 296.726 1519.07C295.83 1522.32 294.598 1525.51 293.03 1528.65C291.462 1531.78 288.886 1534.92 285.303 1538.05C281.719 1541.19 277.856 1542.7 273.712 1542.59C268.449 1542.59 264.641 1541.08 262.29 1538.05C259.938 1535.03 258.762 1531.89 258.762 1528.65C258.762 1526.52 260.778 1519.8 264.809 1508.49C268.841 1497.18 270.913 1488.67 271.025 1482.96C271.025 1476.35 268.561 1473.05 263.633 1473.05H262.794C253.163 1473.05 245.044 1478.7 238.436 1490.01L237.261 1492.03L231.717 1514.54C228.022 1529.21 225.894 1537.1 225.334 1538.22C223.878 1541.25 221.47 1542.76 218.111 1542.76C216.655 1542.76 215.479 1542.42 214.583 1541.75C213.687 1541.08 213.071 1540.41 212.735 1539.73C212.4 1539.06 212.288 1538.5 212.4 1538.05C212.4 1536.6 214.527 1527.47 218.783 1510.67C223.038 1493.87 225.278 1484.75 225.502 1483.29C225.614 1482.73 225.67 1481.44 225.67 1479.43C225.67 1475.06 224.326 1472.88 221.638 1472.88C217.383 1472.88 213.855 1478.48 211.056 1489.68C210.384 1491.91 210.048 1493.09 210.048 1493.2C209.824 1493.87 208.76 1494.21 206.856 1494.21H204.504C203.833 1493.54 203.497 1493.03 203.497 1492.7Z" fill="#132AF4" stroke="#132AF4" stroke-width="15"/>
</svg>
