<svg width="5354" height="1427" viewBox="0 0 5354 1427" fill="none" xmlns="http://www.w3.org/2000/svg">
<path d="M3492 35H2191V321.5" stroke="#132AF4" stroke-width="15"/>
<path d="M1587 1261H1790" stroke="#132AF4" stroke-width="35"/>
<path d="M1622 1340H1753" stroke="#132AF4" stroke-width="35"/>
<path d="M1645 1409H1731" stroke="#132AF4" stroke-width="35"/>
<path d="M1687.69 1248.5V899" stroke="#132AF4" stroke-width="15"/>
<path d="M1688 830C1707.33 830 1723 845.67 1723 865C1723 884.33 1707.33 900 1688 900C1668.67 900 1653 884.33 1653 865C1653 845.67 1668.67 830 1688 830Z" fill="#132AF4"/>
<path d="M420 1045H623" stroke="#132AF4" stroke-width="35"/>
<path d="M455 1124H586" stroke="#132AF4" stroke-width="35"/>
<path d="M478 1193H564" stroke="#132AF4" stroke-width="35"/>
<path d="M520.692 1028V899" stroke="#132AF4" stroke-width="15"/>
<path d="M521 830C540.33 830 556 845.67 556 865C556 884.33 540.33 900 521 900C501.67 900 486 884.33 486 865C486 845.67 501.67 830 521 830Z" fill="#132AF4"/>
<path d="M3526.5 35L5005 35" stroke="#132AF4" stroke-width="15"/>
<circle cx="5033" cy="35" r="27.5" transform="rotate(90 5033 35)" stroke="#132AF4" stroke-width="15"/>
<path d="M3526 69V315" stroke="#132AF4" stroke-width="15"/>
<path d="M3425 1109H3628" stroke="#132AF4" stroke-width="35"/>
<path d="M3460 1188H3591" stroke="#132AF4" stroke-width="35"/>
<path d="M3483 1257H3569" stroke="#132AF4" stroke-width="35"/>
<path d="M3525.69 1092V836" stroke="#132AF4" stroke-width="15"/>
<path d="M3526 772V727L3436 712L3616 682L3436 652L3616 622L3436 592L3616 562L3436 532L3616 502L3436 472L3616 442L3526 427V382" stroke="#132AF4" stroke-width="15"/>
<path d="M3526.37 313C3545.7 313 3561.37 328.67 3561.37 348C3561.37 367.33 3545.7 383 3526.37 383C3507.04 383 3491.37 367.33 3491.37 348C3491.37 328.67 3507.04 313 3526.37 313Z" fill="#132AF4"/>
<circle cx="3526" cy="806" r="35" transform="rotate(-90 3526 806)" fill="#132AF4"/>
<path d="M3526 0C3545.33 0 3561 15.67 3561 35C3561 54.33 3545.33 70 3526 70C3506.67 70 3491 54.33 3491 35C3491 15.67 3506.67 0 3526 0Z" fill="#132AF4"/>
<path d="M4255 69V315" stroke="#132AF4" stroke-width="15"/>
<path d="M4154 1109H4357" stroke="#132AF4" stroke-width="35"/>
<path d="M4189 1188H4320" stroke="#132AF4" stroke-width="35"/>
<path d="M4212 1257H4298" stroke="#132AF4" stroke-width="35"/>
<path d="M4254.69 1092V836" stroke="#132AF4" stroke-width="15"/>
<path d="M4255 772V727L4165 712L4345 682L4165 652L4345 622L4165 592L4345 562L4165 532L4345 502L4165 472L4345 442L4255 427V382" stroke="#132AF4" stroke-width="15"/>
<path d="M4255.37 313C4274.7 313 4290.37 328.67 4290.37 348C4290.37 367.33 4274.7 383 4255.37 383C4236.04 383 4220.37 367.33 4220.37 348C4220.37 328.67 4236.04 313 4255.37 313Z" fill="#132AF4"/>
<circle cx="4255" cy="806" r="35" transform="rotate(-90 4255 806)" fill="#132AF4"/>
<path d="M4255 0C4274.33 0 4290 15.67 4290 35C4290 54.33 4274.33 70 4255 70C4235.67 70 4220 54.33 4220 35C4220 15.67 4235.67 0 4255 0Z" fill="#132AF4"/>
<circle cx="2190.5" cy="493.5" r="165" stroke="#132AF4" stroke-width="15"/>
<path d="M2191.18 606.569L2250.86 466.82L2250.86 466.82C2250.92 466.678 2250.95 466.607 2250.92 466.56C2250.88 466.514 2250.81 466.524 2250.66 466.543L2191 473.902L2131.34 466.543C2131.19 466.524 2131.12 466.514 2131.08 466.56C2131.05 466.607 2131.08 466.678 2131.14 466.82L2190.82 606.569C2190.89 606.753 2190.93 606.845 2191 606.845C2191.07 606.845 2191.11 606.753 2191.18 606.569Z" fill="#132AF4"/>
<path d="M2191 473.902L2131.34 466.543C2131.19 466.524 2131.12 466.514 2131.08 466.56C2131.05 466.607 2131.08 466.678 2131.14 466.82L2190.82 606.569C2190.89 606.753 2190.93 606.845 2191 606.845C2191.07 606.845 2191.11 606.753 2191.18 606.569L2250.86 466.82C2250.92 466.678 2250.95 466.607 2250.92 466.56C2250.88 466.514 2250.81 466.524 2250.66 466.543L2191 473.902ZM2191 473.902V381" stroke="#132AF4" stroke-width="15"/>
<circle cx="521.5" cy="552.5" r="165" stroke="#132AF4" stroke-width="15"/>
<path d="M406.5 555.165C406.5 555.165 425.188 492.381 471.188 503.626C517.188 514.87 527.25 590.68 568.938 602.094C610.625 613.509 639.375 552.501 639.375 552.501" stroke="#132AF4" stroke-width="15"/>
<path d="M521 724V832" stroke="#132AF4" stroke-width="15"/>
<path d="M2191 663V865H1715" stroke="#132AF4" stroke-width="15"/>
<path d="M521 383V35H1349" stroke="#132AF4" stroke-width="15"/>
<path d="M1349 865H1665" stroke="#132AF4" stroke-width="15"/>
<path d="M8 465.938C8 462.634 8.97595 460.007 10.9279 458.055H13.4053C19.7114 458.505 27.5941 458.731 37.0534 458.731C54.7706 458.731 65.2058 458.505 68.3589 458.055H70.6111C71.512 458.956 71.9624 459.632 71.9624 460.082C71.9624 460.532 71.8123 461.884 71.512 464.136C70.7612 466.388 70.0856 467.815 69.485 468.415H64.7554C61.4522 468.715 59.2 468.866 57.9988 468.866C53.6445 469.616 51.2422 470.742 50.7918 472.244C50.7918 472.544 52.9689 491.388 57.3231 528.774C61.6774 566.161 63.9296 585.004 64.0797 585.304L80.5208 558.953C91.4815 541.386 102.442 523.669 113.403 505.802C124.364 487.934 129.994 478.7 130.294 478.1C130.895 477.049 131.195 475.922 131.195 474.721C131.195 471.118 127.892 469.016 121.286 468.415C118.583 468.415 117.232 467.589 117.232 465.938C117.232 465.788 117.382 464.812 117.682 463.01C118.132 460.908 118.583 459.556 119.033 458.956C119.484 458.355 120.46 458.055 121.961 458.055C122.262 458.055 123.162 458.055 124.664 458.055C126.165 458.055 128.718 458.13 132.321 458.28C135.925 458.43 140.73 458.505 146.735 458.505C157.095 458.505 163.627 458.355 166.33 458.055H167.906C168.957 459.106 169.483 459.932 169.483 460.532C169.483 463.085 168.807 465.487 167.456 467.739C167.005 468.19 165.729 468.415 163.627 468.415C161.675 468.565 159.873 468.715 158.222 468.866C156.57 469.016 154.993 469.391 153.492 469.992C151.991 470.592 150.789 471.118 149.888 471.568C148.988 472.019 148.087 472.619 147.186 473.37C146.285 474.121 145.534 474.646 144.934 474.946C144.333 475.247 143.732 475.922 143.132 476.973C142.531 478.024 142.006 478.55 141.555 478.55L98.0879 548.368C71.0615 592.061 57.0979 614.433 56.197 615.484C55.7466 615.784 55.2211 616.159 54.6205 616.61L50.5665 616.835H48.99C46.2874 616.835 44.936 616.309 44.936 615.258C44.4856 614.358 41.5577 590.334 36.1525 543.188C30.4469 495.441 27.519 471.343 27.3689 470.893C26.6182 469.241 21.9636 468.415 13.4053 468.415H9.57654C8.52551 467.664 8 466.839 8 465.938Z" fill="#132AF4" stroke="#132AF4" stroke-width="15"/>
<path d="M164.323 550.148C164.323 547.6 165.331 545.371 167.348 543.46C169.365 541.549 171.7 540.541 174.354 540.435C176.265 540.435 177.857 541.072 179.131 542.345C180.405 543.619 181.095 545.212 181.201 547.122C181.201 549.564 180.14 551.793 178.017 553.81C175.893 555.827 173.558 556.888 171.01 556.995C169.418 556.995 167.932 556.464 166.552 555.402C165.172 554.341 164.429 552.589 164.323 550.148ZM138.368 599.987C138.368 599.138 138.846 597.492 139.801 595.051C140.757 592.609 142.03 589.902 143.623 586.93C145.215 583.958 147.55 581.251 150.629 578.809C153.707 576.368 156.892 575.2 160.183 575.306C164.323 575.306 167.773 576.527 170.533 578.968C173.293 581.41 174.726 584.701 174.832 588.841C174.832 590.645 174.089 593.618 172.603 597.758C171.117 601.898 168.993 607.471 166.233 614.477C163.473 621.483 161.244 627.481 159.546 632.47C159.015 634.805 158.75 636.504 158.75 637.565C158.75 640.219 159.652 641.546 161.457 641.546C162.412 641.546 163.42 641.387 164.482 641.068C165.543 640.75 166.764 640.007 168.144 638.839C169.524 637.671 170.957 635.814 172.443 633.266C173.93 630.718 175.257 627.587 176.424 623.871C176.743 622.598 177.008 621.854 177.22 621.642C177.433 621.43 178.335 621.324 179.927 621.324C182.05 621.324 183.112 621.854 183.112 622.916C183.112 623.765 182.634 625.411 181.679 627.852C180.723 630.294 179.397 633.001 177.698 635.973C176 638.945 173.611 641.599 170.533 643.934C167.454 646.27 164.163 647.438 160.66 647.438C157.264 647.438 154.132 646.323 151.266 644.094C148.4 641.864 146.914 638.468 146.807 633.903C146.807 632.098 147.073 630.4 147.604 628.808C148.134 627.215 150.417 621.164 154.45 610.655C158.484 599.934 160.82 593.511 161.457 591.388C162.093 589.265 162.465 587.195 162.571 585.178C162.571 582.631 161.669 581.357 159.864 581.357H159.546C156.361 581.357 153.442 583.108 150.788 586.611C148.134 590.115 146.117 594.573 144.737 599.987C144.631 600.093 144.525 600.252 144.419 600.465C144.313 600.677 144.26 600.836 144.26 600.942C144.26 601.048 144.154 601.155 143.941 601.261C143.729 601.367 143.57 601.42 143.464 601.42C143.357 601.42 143.145 601.42 142.827 601.42C142.508 601.42 142.084 601.42 141.553 601.42H139.324C138.687 600.783 138.368 600.305 138.368 599.987Z" fill="#132AF4" stroke="#132AF4" stroke-width="15"/>
<path d="M193.302 599.987C193.408 599.35 193.568 598.501 193.78 597.439C193.992 596.378 194.629 594.361 195.691 591.388C196.752 588.416 197.814 585.921 198.875 583.905C199.937 581.888 201.688 579.924 204.13 578.013C206.571 576.102 209.013 575.2 211.455 575.306C215.276 575.306 218.461 576.262 221.008 578.172C223.556 580.083 225.148 581.888 225.785 583.586C226.422 585.285 226.741 586.399 226.741 586.93C226.741 587.142 226.794 587.248 226.9 587.248L228.651 585.497C235.127 578.703 242.504 575.306 250.784 575.306C256.517 575.306 261.134 576.739 264.637 579.605C268.141 582.471 269.945 586.665 270.051 592.185C270.157 597.705 268.141 606.038 264.001 617.184C259.861 628.33 257.844 635.071 257.95 637.406C257.95 640.166 258.852 641.546 260.657 641.546C261.294 641.546 261.771 641.493 262.09 641.387C265.168 640.856 267.928 638.839 270.37 635.336C272.811 631.833 274.669 627.587 275.943 622.598C276.155 621.748 277.217 621.324 279.127 621.324C281.251 621.324 282.312 621.748 282.312 622.598C282.312 622.704 282.1 623.5 281.675 624.986C280.826 628.064 279.658 631.09 278.172 634.062C276.686 637.034 274.244 640.007 270.847 642.979C267.451 645.951 263.788 647.384 259.861 647.278C254.871 647.278 251.262 645.845 249.033 642.979C246.804 640.113 245.689 637.141 245.689 634.062C245.689 632.045 247.6 625.676 251.421 614.954C255.243 604.233 257.207 596.165 257.313 590.751C257.313 584.488 254.977 581.357 250.307 581.357H249.511C240.381 581.357 232.685 586.718 226.422 597.439L225.308 599.35L220.053 620.687C216.55 634.593 214.533 642.077 214.002 643.138C212.622 646.004 210.34 647.438 207.155 647.438C205.775 647.438 204.661 647.119 203.811 646.482C202.962 645.845 202.378 645.208 202.06 644.571C201.741 643.934 201.635 643.404 201.741 642.979C201.741 641.599 203.758 632.948 207.792 617.024C211.826 601.101 213.949 592.45 214.161 591.07C214.268 590.539 214.321 589.318 214.321 587.408C214.321 583.268 213.047 581.198 210.499 581.198C206.465 581.198 203.121 586.505 200.468 597.121C199.831 599.244 199.512 600.358 199.512 600.465C199.3 601.101 198.291 601.42 196.487 601.42H194.258C193.621 600.783 193.302 600.305 193.302 599.987Z" fill="#132AF4" stroke="#132AF4" stroke-width="15"/>
<path d="M4474.37 493.36C4470.31 493.36 4467.91 493.285 4467.16 493.135C4466.41 492.985 4466.04 492.159 4466.04 490.657C4466.04 486.603 4466.86 484.126 4468.51 483.225C4468.81 483.075 4481.88 483 4507.7 483C4533.53 483.15 4547.49 483.375 4549.59 483.676C4558 484.877 4565.06 486.979 4570.76 489.982C4576.47 492.985 4580.52 496.438 4582.92 500.342C4585.33 504.246 4586.9 507.474 4587.65 510.026C4588.4 512.579 4588.86 515.131 4589.01 517.684C4589.01 524.44 4586.83 530.747 4582.47 536.602C4578.12 542.458 4573.09 546.962 4567.38 550.115C4561.68 553.269 4556.65 555.821 4552.29 557.773C4547.94 559.725 4545.09 560.701 4543.74 560.701L4545.31 561.827C4555.37 567.532 4560.4 575.791 4560.4 586.601C4560.4 588.253 4560.03 592.832 4559.28 600.339C4558.53 607.847 4558.15 614.003 4558.15 618.807V620.834C4558.15 623.537 4558.23 625.639 4558.38 627.141C4558.53 628.642 4559.35 629.993 4560.85 631.195C4562.35 632.396 4564.31 633.071 4566.71 633.222C4570.91 633.222 4574.37 631.57 4577.07 628.267C4579.77 624.963 4581.72 621.435 4582.92 617.681C4583.67 615.579 4584.28 614.303 4584.73 613.853C4585.18 613.402 4586.3 613.177 4588.1 613.177C4591.11 613.177 4592.61 614.078 4592.61 615.88C4592.61 618.582 4590.81 622.861 4587.2 628.717C4581.5 637.276 4574.74 641.555 4566.93 641.555H4564.91C4555.75 641.555 4548.17 639.678 4542.16 635.924C4536.15 632.171 4532.85 626.315 4532.25 618.357C4532.25 614.303 4533.38 607.997 4535.63 599.439C4537.88 590.88 4539.01 585.4 4539.01 582.998C4539.01 575.34 4535.78 569.785 4529.32 566.331C4527.07 565.28 4525.19 564.68 4523.69 564.53C4522.19 564.379 4516.86 564.229 4507.7 564.079H4492.16L4484.95 593.358C4480 613.177 4477.52 623.237 4477.52 623.537C4477.52 624.138 4477.6 624.513 4477.75 624.663C4477.9 624.813 4478.42 625.114 4479.32 625.564C4480.22 626.015 4481.5 626.165 4483.15 626.015C4484.8 625.864 4487.28 626.015 4490.58 626.465H4497.57C4498.47 627.666 4498.92 628.342 4498.92 628.492C4498.92 628.642 4498.69 629.993 4498.24 632.546C4497.64 634.498 4496.89 635.924 4495.99 636.825H4492.61C4487.21 636.525 4477.37 636.375 4463.11 636.375C4458 636.375 4453.27 636.375 4448.92 636.375C4444.56 636.375 4441.11 636.375 4438.56 636.375C4436.01 636.375 4434.43 636.45 4433.83 636.6C4431.28 636.6 4430 635.924 4430 634.573C4430 634.273 4430.23 633.222 4430.68 631.42C4431.43 628.567 4432.18 626.99 4432.93 626.69C4433.53 626.54 4434.65 626.465 4436.31 626.465H4437.66C4441.71 626.465 4446.22 626.24 4451.17 625.789C4453.27 625.339 4454.7 624.438 4455.45 623.087C4455.9 622.486 4461.31 601.616 4471.67 560.476C4482.03 519.335 4487.21 497.639 4487.21 495.387C4487.21 494.336 4482.93 493.66 4474.37 493.36ZM4564.46 512.053C4564.46 507.249 4562.88 503.195 4559.73 499.891C4556.57 496.588 4550.12 494.486 4540.36 493.585C4540.06 493.585 4538.33 493.585 4535.18 493.585C4532.02 493.585 4529.17 493.51 4526.62 493.36H4521.66C4514.61 493.36 4510.55 494.111 4509.5 495.612C4509.35 496.063 4506.8 506.047 4501.85 525.566C4496.89 545.086 4494.41 555.07 4494.41 555.521C4494.41 555.671 4499.59 555.746 4509.95 555.746C4521.66 555.596 4529.47 555.07 4533.38 554.169C4542.99 552.668 4550.49 548.239 4555.9 540.881C4558.3 537.428 4560.33 532.924 4561.98 527.368C4563.63 521.813 4564.46 516.708 4564.46 512.053Z" fill="#132AF4" stroke="#132AF4" stroke-width="15"/>
<path d="M4646.64 570.637C4646.64 569.894 4643.62 569.416 4637.56 569.204C4635.12 569.204 4633.53 569.151 4632.79 569.045C4632.04 568.939 4631.67 568.461 4631.67 567.612C4631.67 566.762 4631.89 565.701 4632.31 564.427C4632.73 563.153 4633.11 562.357 4633.42 562.039C4633.64 561.933 4644.2 561.879 4665.11 561.879C4682.84 561.986 4692.76 562.039 4694.89 562.039C4697.01 562.039 4699.13 562.357 4701.26 562.994C4708.9 564.799 4715.38 568.992 4720.68 575.573C4725.99 582.155 4728.7 590.966 4728.8 602.005C4728.8 618.565 4723.12 633.427 4711.77 646.59C4700.41 659.753 4687.03 667.608 4671.64 670.156L4669.41 670.475L4638.52 670.634H4620.85H4612.41C4609.86 670.634 4608.21 670.528 4607.47 670.315C4606.73 670.103 4606.3 669.625 4606.2 668.882C4606.2 668.67 4606.36 667.927 4606.67 666.653C4607.1 664.955 4607.52 663.999 4607.95 663.787C4608.37 663.575 4609.59 663.415 4611.61 663.309C4614.48 663.309 4617.66 663.15 4621.16 662.831C4622.65 662.513 4623.66 661.876 4624.19 660.921C4624.51 660.496 4628.33 645.741 4635.65 616.655C4642.98 587.569 4646.64 572.229 4646.64 570.637ZM4712.88 595.955C4712.88 591.921 4712.3 588.312 4711.13 585.127C4709.96 581.942 4708.58 579.448 4706.99 577.643C4705.4 575.839 4703.43 574.299 4701.1 573.026C4698.76 571.752 4696.69 570.902 4694.89 570.478C4693.08 570.053 4691.23 569.682 4689.31 569.363C4689.1 569.363 4688.36 569.363 4687.09 569.363C4685.81 569.363 4684.27 569.363 4682.47 569.363C4680.66 569.363 4678.91 569.31 4677.21 569.204H4670.37C4665.7 569.204 4663.04 569.735 4662.4 570.796C4662.19 571.221 4658.32 586.507 4650.78 616.655C4643.24 646.802 4639.48 662.035 4639.48 662.354C4639.48 662.778 4640.06 662.991 4641.23 662.991C4642.39 662.991 4646.48 663.044 4653.49 663.15C4654.02 663.15 4655.03 663.15 4656.51 663.15C4658 663.15 4659.27 663.203 4660.33 663.309C4673.71 663.309 4684.75 658.957 4693.45 650.252C4697.28 646.431 4700.41 641.972 4702.85 636.877C4705.29 631.782 4707.57 625.041 4709.7 616.655C4711.82 608.269 4712.88 601.369 4712.88 595.955Z" fill="#132AF4" stroke="#132AF4" stroke-width="15"/>
<path d="M4998 140.883C4998 137.579 4998.98 134.952 5000.93 133H5003.41C5009.71 133.45 5017.59 133.675 5027.05 133.675C5044.77 133.675 5055.21 133.45 5058.36 133H5060.61C5061.51 133.901 5061.96 134.576 5061.96 135.027C5061.96 135.477 5061.81 136.829 5061.51 139.081C5060.76 141.333 5060.09 142.759 5059.49 143.36H5054.76C5051.45 143.66 5049.2 143.81 5048 143.81C5043.64 144.561 5041.24 145.687 5040.79 147.189C5040.79 147.489 5042.97 166.332 5047.32 203.719C5051.68 241.105 5053.93 259.949 5054.08 260.249L5070.52 233.898C5081.48 216.331 5092.44 198.614 5103.4 180.746C5114.36 162.879 5119.99 153.645 5120.29 153.044C5120.89 151.993 5121.2 150.867 5121.2 149.666C5121.2 146.063 5117.89 143.961 5111.29 143.36C5108.58 143.36 5107.23 142.534 5107.23 140.883C5107.23 140.732 5107.38 139.756 5107.68 137.955C5108.13 135.853 5108.58 134.501 5109.03 133.901C5109.48 133.3 5110.46 133 5111.96 133C5112.26 133 5113.16 133 5114.66 133C5116.17 133 5118.72 133.075 5122.32 133.225C5125.92 133.375 5130.73 133.45 5136.74 133.45C5147.1 133.45 5153.63 133.3 5156.33 133H5157.91C5158.96 134.051 5159.48 134.877 5159.48 135.477C5159.48 138.03 5158.81 140.432 5157.46 142.684C5157.01 143.135 5155.73 143.36 5153.63 143.36C5151.67 143.51 5149.87 143.66 5148.22 143.81C5146.57 143.961 5144.99 144.336 5143.49 144.936C5141.99 145.537 5140.79 146.063 5139.89 146.513C5138.99 146.963 5138.09 147.564 5137.19 148.315C5136.28 149.066 5135.53 149.591 5134.93 149.891C5134.33 150.192 5133.73 150.867 5133.13 151.918C5132.53 152.969 5132.01 153.495 5131.56 153.495L5088.09 223.313C5061.06 267.006 5047.1 289.377 5046.2 290.428C5045.75 290.729 5045.22 291.104 5044.62 291.555L5040.57 291.78H5038.99C5036.29 291.78 5034.94 291.254 5034.94 290.203C5034.49 289.302 5031.56 265.279 5026.15 218.133C5020.45 170.386 5017.52 146.288 5017.37 145.837C5016.62 144.186 5011.96 143.36 5003.41 143.36H4999.58C4998.53 142.609 4998 141.783 4998 140.883Z" fill="#132AF4" stroke="#132AF4" stroke-width="15"/>
<path d="M5157.03 322.382C5149.07 322.382 5142.65 319.782 5137.76 314.58C5132.88 309.379 5130.44 303.115 5130.44 295.791C5130.44 288.891 5132.03 282.362 5135.21 276.206C5138.4 270.049 5142.75 264.688 5148.27 260.123C5156.34 253.648 5164.57 250.41 5172.95 250.41C5176.35 250.41 5178.47 250.463 5179.32 250.569C5180.7 250.888 5182.08 251.259 5183.46 251.684C5184.84 252.109 5186.7 252.958 5189.03 254.232C5191.37 255.506 5193.28 257.098 5194.77 259.009C5196.25 260.919 5197.63 263.52 5198.91 266.811C5200.18 270.102 5200.82 273.817 5200.82 277.957C5200.82 289.315 5196.25 299.559 5187.12 308.689C5177.99 317.818 5167.96 322.382 5157.03 322.382ZM5144.29 301.523C5144.29 306.831 5145.67 310.652 5148.43 312.988C5151.19 315.323 5154.32 316.491 5157.83 316.491C5162.5 316.491 5166.9 314.792 5171.04 311.395C5175.18 307.999 5178.47 303.54 5180.91 298.02C5181.87 295.791 5183.09 291.863 5184.58 286.237C5186.06 280.611 5186.81 275.728 5186.81 271.588C5186.81 266.917 5185.85 263.361 5183.94 260.919C5181.39 257.735 5177.99 256.142 5173.75 256.142C5167.06 256.142 5161.17 259.221 5156.07 265.378C5152.15 270.049 5149.23 276.259 5147.32 284.008C5145.41 291.757 5144.4 297.595 5144.29 301.523Z" fill="#132AF4" stroke="#132AF4" stroke-width="15"/>
<path d="M5205.59 274.932C5205.59 274.082 5206.07 272.437 5207.03 269.996C5207.98 267.554 5209.31 264.794 5211.01 261.716C5212.71 258.637 5215.04 255.983 5218.01 253.754C5220.99 251.525 5224.12 250.357 5227.41 250.251C5232.29 250.251 5235.95 251.578 5238.4 254.232C5240.84 256.886 5242.06 260.017 5242.06 263.626C5242.06 265.537 5240.25 271.482 5236.64 281.46C5233.03 291.439 5231.23 298.922 5231.23 303.912C5231.23 308.476 5231.97 311.661 5233.46 313.465C5234.95 315.27 5237.17 316.225 5240.15 316.332C5243.12 316.438 5245.93 315.535 5248.59 313.625C5251.24 311.714 5253.2 309.909 5254.48 308.211L5256.23 305.504C5256.44 305.079 5258.46 297.012 5262.28 281.301C5265.46 268.562 5267.38 261.132 5268.01 259.009C5268.65 256.886 5269.39 255.346 5270.24 254.391C5272.05 252.799 5273.96 252.002 5275.97 252.002C5277.78 252.002 5279.11 252.533 5279.95 253.595C5280.8 254.656 5281.23 255.665 5281.23 256.62L5269.13 307.255C5269.02 307.786 5268.97 308.635 5268.97 309.803C5268.97 312.457 5269.34 314.208 5270.08 315.058C5270.83 315.907 5271.94 316.385 5273.43 316.491C5275.76 316.172 5277.62 314.527 5279 311.555C5280.38 308.582 5281.97 303.912 5283.78 297.542C5283.99 296.693 5285.05 296.269 5286.96 296.269C5288.98 296.269 5289.99 296.746 5289.99 297.702C5289.88 298.232 5289.77 298.975 5289.67 299.931C5289.56 300.886 5289.08 302.585 5288.23 305.026C5287.39 307.468 5286.48 309.75 5285.53 311.873C5284.57 313.996 5283.25 316.013 5281.55 317.924C5279.85 319.835 5277.94 321.162 5275.81 321.905C5274.97 322.117 5273.69 322.223 5271.99 322.223C5264.99 322.223 5260.16 319.251 5257.5 313.306C5257.29 313.412 5256.71 313.943 5255.75 314.898C5254.8 315.854 5253.84 316.65 5252.89 317.287C5251.93 317.924 5250.76 318.72 5249.38 319.675C5248 320.631 5246.46 321.268 5244.76 321.586C5243.07 321.905 5241.26 322.17 5239.35 322.382C5234.68 322.382 5230.54 321.427 5226.93 319.516C5221.41 316.225 5218.65 310.599 5218.65 302.638C5218.65 296.587 5220.51 288.679 5224.22 278.912C5227.94 269.146 5229.8 262.936 5229.8 260.282C5229.8 260.176 5229.8 260.07 5229.8 259.964C5229.8 259.009 5229.8 258.372 5229.8 258.053C5229.8 257.735 5229.58 257.363 5229.16 256.939C5228.74 256.514 5228.15 256.302 5227.41 256.302H5226.77C5224.33 256.302 5222.1 257.31 5220.08 259.327C5218.07 261.344 5216.47 263.52 5215.31 265.856C5214.14 268.191 5213.24 270.42 5212.6 272.543C5211.96 274.666 5211.54 275.834 5211.33 276.046C5211.11 276.259 5210.26 276.365 5208.78 276.365H5206.55C5205.91 275.728 5205.59 275.25 5205.59 274.932Z" fill="#132AF4" stroke="#132AF4" stroke-width="15"/>
<path d="M5297.47 259.327C5296.73 258.584 5296.36 258.053 5296.36 257.735C5296.36 257.31 5296.51 256.461 5296.83 255.187C5297.15 253.913 5297.42 253.17 5297.63 252.958C5297.84 252.427 5298.32 252.162 5299.06 252.162C5299.81 252.162 5302.51 252.109 5307.18 252.002H5315.62L5318.65 239.264C5318.97 238.096 5319.34 236.557 5319.76 234.646C5320.19 232.736 5320.56 231.356 5320.88 230.506C5321.2 229.657 5321.51 228.596 5321.83 227.322C5322.15 226.048 5322.58 225.146 5323.11 224.615C5323.64 224.084 5324.17 223.447 5324.7 222.704C5325.23 221.961 5325.97 221.483 5326.93 221.271C5327.88 221.059 5328.84 220.953 5329.79 220.953C5331.7 221.059 5333.03 221.643 5333.77 222.704C5334.52 223.766 5334.89 224.774 5334.89 225.729C5334.89 226.473 5334.41 228.967 5333.46 233.213C5332.5 237.459 5331.44 241.653 5330.27 245.793L5328.68 251.684C5328.68 251.896 5331.33 252.002 5336.64 252.002H5344.76C5345.5 252.746 5345.88 253.329 5345.88 253.754C5345.88 256.089 5345.19 257.947 5343.81 259.327H5326.77L5321.04 282.415C5316.9 299.4 5314.83 308.529 5314.83 309.803C5314.83 314.262 5316.26 316.491 5319.13 316.491C5322.84 316.491 5326.45 314.686 5329.95 311.077C5333.46 307.468 5336.27 303.009 5338.39 297.702C5338.6 297.065 5338.87 296.693 5339.19 296.587C5339.51 296.481 5340.3 296.375 5341.58 296.269H5342.21C5343.81 296.269 5344.6 296.693 5344.6 297.542C5344.6 297.861 5344.44 298.498 5344.12 299.453C5343.59 301.152 5342.64 303.169 5341.26 305.504C5339.88 307.839 5338.07 310.334 5335.84 312.988C5333.62 315.642 5330.91 317.871 5327.72 319.675C5324.54 321.48 5321.3 322.382 5318.01 322.382C5314.83 322.382 5311.8 321.586 5308.93 319.994C5306.07 318.402 5304 315.642 5302.72 311.714C5302.51 310.865 5302.41 309.432 5302.41 307.415V304.549L5307.98 282.256C5311.69 267.289 5313.61 259.752 5313.71 259.646C5313.71 259.433 5311 259.327 5305.59 259.327H5297.47Z" fill="#132AF4" stroke="#132AF4" stroke-width="15"/>
<path d="M1274 176.968C1274 176.968 1274 175.992 1274 174.041C1274 172.089 1275.05 170.587 1277.15 169.536H1344.49V135.753L1344.72 101.97C1346.22 100.018 1347.65 99.0423 1349 99.0423C1350.95 99.0423 1352.45 100.168 1353.5 102.421V169.536H1420.62C1422.87 170.737 1424 172.239 1424 174.041C1424 175.842 1422.87 177.344 1420.62 178.545H1353.5V245.66C1352.3 247.762 1350.95 248.813 1349.45 248.813H1349H1348.55C1346.75 248.813 1345.39 247.762 1344.49 245.66V178.545H1277.15C1275.05 177.494 1274 175.992 1274 174.041V176.968Z" fill="#132AF4" stroke="#132AF4" stroke-width="15"/>
<path d="M586 308.012C586 308.012 586 307.036 586 305.084C586 303.133 587.051 301.631 589.153 300.58H656.494V266.797L656.719 233.014C658.22 231.062 659.647 230.086 660.998 230.086C662.95 230.086 664.452 231.212 665.503 233.465V300.58H732.618C734.87 301.781 735.996 303.283 735.996 305.084C735.996 306.886 734.87 308.388 732.618 309.589H665.503V376.704C664.301 378.806 662.95 379.857 661.449 379.857H660.998H660.548C658.746 379.857 657.395 378.806 656.494 376.704V309.589H589.153C587.051 308.538 586 307.036 586 305.084V308.012Z" fill="#132AF4" stroke="#132AF4" stroke-width="15"/>
<path d="M1274 785.433C1274 785.433 1274 784.457 1274 782.505C1274 780.553 1275.05 779.052 1277.15 778.001H1408.01C1410.26 779.202 1411.38 780.704 1411.38 782.505C1411.38 784.307 1410.26 785.809 1408.01 787.01H1277.15C1275.05 785.959 1274 784.457 1274 782.505V785.433Z" fill="#132AF4" stroke="#132AF4" stroke-width="15"/>
<path d="M586 771.475C586 771.475 586 770.499 586 768.547C586 766.595 587.051 765.094 589.153 764.043H720.006C722.258 765.244 723.384 766.746 723.384 768.547C723.384 770.349 722.258 771.851 720.006 773.052H589.153C587.051 772.001 586 770.499 586 768.547V771.475Z" fill="#132AF4" stroke="#132AF4" stroke-width="15"/>
<path d="M1251 466.894C1251 463.591 1251.98 460.963 1253.93 459.011H1256.41C1262.71 459.462 1270.59 459.687 1280.05 459.687C1297.77 459.687 1308.21 459.462 1311.36 459.011H1313.61C1314.51 459.912 1314.96 460.588 1314.96 461.038C1314.96 461.489 1314.81 462.84 1314.51 465.092C1313.76 467.344 1313.09 468.771 1312.49 469.372H1307.76C1304.45 469.672 1302.2 469.822 1301 469.822C1296.65 470.573 1294.24 471.699 1293.79 473.2C1293.79 473.501 1295.97 492.344 1300.32 529.732C1304.68 567.119 1306.93 585.963 1307.08 586.263L1323.52 559.912C1334.48 542.344 1345.44 524.627 1356.41 506.759C1367.37 488.891 1373 479.657 1373.3 479.056C1373.9 478.005 1374.2 476.879 1374.2 475.678C1374.2 472.074 1370.89 469.972 1364.29 469.372C1361.59 469.372 1360.23 468.546 1360.23 466.894C1360.23 466.744 1360.38 465.768 1360.68 463.966C1361.14 461.864 1361.59 460.513 1362.04 459.912C1362.49 459.311 1363.46 459.011 1364.96 459.011C1365.26 459.011 1366.17 459.011 1367.67 459.011C1369.17 459.011 1371.72 459.086 1375.32 459.236C1378.93 459.387 1383.73 459.462 1389.74 459.462C1400.1 459.462 1406.63 459.311 1409.33 459.011H1410.91C1411.96 460.062 1412.49 460.888 1412.49 461.489C1412.49 464.041 1411.81 466.444 1410.46 468.696C1410.01 469.146 1408.73 469.372 1406.63 469.372C1404.68 469.522 1402.88 469.672 1401.23 469.822C1399.57 469.972 1398 470.347 1396.5 470.948C1394.99 471.549 1393.79 472.074 1392.89 472.525C1391.99 472.975 1391.09 473.576 1390.19 474.326C1389.29 475.077 1388.54 475.603 1387.94 475.903C1387.34 476.203 1386.74 476.879 1386.14 477.93C1385.53 478.981 1385.01 479.507 1384.56 479.507L1341.09 549.326C1314.06 593.02 1300.1 615.393 1299.2 616.444C1298.75 616.744 1298.22 617.119 1297.62 617.57L1293.57 617.795H1291.99C1289.29 617.795 1287.94 617.269 1287.94 616.218C1287.49 615.317 1284.56 591.293 1279.15 544.146C1273.45 496.399 1270.52 472.299 1270.37 471.849C1269.62 470.197 1264.96 469.372 1256.41 469.372H1252.58C1251.53 468.621 1251 467.795 1251 466.894Z" fill="#132AF4" stroke="#132AF4" stroke-width="15"/>
<path d="M1411.95 554.583L1409.88 555.379C1408.39 555.91 1406.27 556.44 1403.51 556.971C1400.75 557.502 1397.67 557.874 1394.27 558.086H1391.25V550.761H1394.27C1399.26 550.549 1403.88 549.753 1408.12 548.373C1412.37 546.993 1415.34 545.719 1417.04 544.551C1418.74 543.383 1420.23 542.216 1421.5 541.048C1421.71 540.729 1422.35 540.57 1423.41 540.57C1424.37 540.57 1425.27 540.889 1426.12 541.526V589.137L1426.28 636.907C1427.02 637.65 1427.66 638.128 1428.19 638.34C1428.72 638.552 1429.99 638.765 1432.01 638.977C1434.03 639.189 1437.32 639.295 1441.88 639.295H1446.02V646.62H1444.27C1442.04 646.302 1433.6 646.142 1418.95 646.142C1404.52 646.142 1396.18 646.302 1393.95 646.62H1392.04V639.295H1396.18C1398.52 639.295 1400.53 639.295 1402.23 639.295C1403.93 639.295 1405.26 639.242 1406.21 639.136C1407.17 639.03 1408.02 638.871 1408.76 638.658C1409.5 638.446 1409.93 638.34 1410.04 638.34C1410.14 638.34 1410.46 638.075 1410.99 637.544C1411.52 637.013 1411.84 636.801 1411.95 636.907V554.583Z" fill="#132AF4" stroke="#132AF4" stroke-width="15"/>
<path d="M2535.79 538.151C2533.54 540.103 2530.24 542.205 2525.88 544.457C2521.53 546.71 2516.95 547.836 2512.14 547.836C2502.68 547.836 2495.1 544.457 2489.4 537.701C2483.69 530.944 2480.76 522.31 2480.61 511.8C2480.61 496.034 2486.39 481.544 2497.95 468.331C2509.52 455.118 2522.35 448.436 2536.47 448.286C2543.53 448.286 2550.06 451.89 2556.06 459.097L2556.74 458.196C2557.04 457.746 2557.41 457.295 2557.86 456.845C2558.32 456.394 2558.99 455.794 2559.89 455.043C2560.79 454.292 2561.77 453.767 2562.82 453.466C2563.87 453.166 2565.07 452.941 2566.42 452.791C2568.53 452.791 2570.25 453.466 2571.6 454.818C2572.95 456.169 2573.71 457.595 2573.86 459.097C2573.86 461.349 2569.58 479.517 2561.02 513.601C2552.46 547.686 2547.95 565.103 2547.5 565.854C2544.8 573.962 2539.02 580.643 2530.16 585.899C2521.3 591.154 2511.17 593.857 2499.76 594.007C2478.59 594.007 2468 588.902 2468 578.692C2468 574.788 2469.35 571.334 2472.05 568.331C2474.76 565.328 2478.21 563.827 2482.41 563.827C2484.67 563.827 2486.77 564.502 2488.72 565.854C2490.67 567.205 2491.72 569.532 2491.87 572.836C2491.87 574.337 2491.72 575.764 2491.42 577.115C2491.12 578.466 2490.6 579.517 2489.85 580.268C2489.1 581.019 2488.5 581.77 2488.05 582.52C2487.59 583.271 2487.07 583.872 2486.47 584.322L2486.02 584.773H2486.24C2487.74 585.223 2492.25 585.448 2499.76 585.448C2505.46 585.448 2509.97 584.547 2513.27 582.746C2516.72 581.094 2519.95 578.616 2522.95 575.313C2525.96 572.01 2528.06 568.481 2529.26 564.728C2530.16 561.875 2531.36 557.22 2532.86 550.764C2534.82 543.556 2535.79 539.352 2535.79 538.151ZM2552.23 473.962L2551.33 471.484C2550.88 469.833 2550.51 468.707 2550.21 468.106C2549.91 467.505 2549.46 466.454 2548.86 464.953C2548.26 463.451 2547.5 462.4 2546.6 461.8C2545.7 461.199 2544.73 460.373 2543.68 459.322C2542.62 458.271 2541.27 457.595 2539.62 457.295C2537.97 456.995 2536.32 456.77 2534.67 456.619C2528.06 456.619 2521.68 460.598 2515.52 468.556C2511.02 474.412 2507.26 483.346 2504.26 495.358C2501.26 507.37 2499.76 516.079 2499.76 521.484C2499.76 533.346 2504.41 539.277 2513.72 539.277C2522.13 539.277 2530.39 534.022 2538.5 523.511L2540.3 521.259L2552.23 473.962Z" fill="#132AF4" stroke="#132AF4" stroke-width="15"/>
<path d="M2583.96 535.925C2584.06 535.288 2584.22 534.439 2584.44 533.377C2584.65 532.316 2585.28 530.299 2586.35 527.327C2587.41 524.354 2588.47 521.859 2589.53 519.842C2590.59 517.826 2592.29 515.862 2594.63 513.951C2596.96 512.04 2599.3 511.138 2601.63 511.244C2603.97 511.35 2606.25 511.722 2608.48 512.358C2610.71 512.995 2612.3 513.951 2613.26 515.225C2614.21 516.499 2615.06 517.666 2615.8 518.728C2616.55 519.789 2616.97 520.798 2617.08 521.753L2617.4 522.868C2617.4 523.08 2617.45 523.186 2617.56 523.186L2619.31 521.435C2625.68 514.641 2633.16 511.244 2641.76 511.244C2643.56 511.244 2645.21 511.35 2646.7 511.562C2648.18 511.775 2649.56 512.146 2650.84 512.677C2652.11 513.208 2653.12 513.739 2653.86 514.269C2654.6 514.8 2655.4 515.437 2656.25 516.18C2657.1 516.923 2657.63 517.613 2657.84 518.25C2658.06 518.887 2658.48 519.577 2659.12 520.32C2659.75 521.063 2659.97 521.7 2659.75 522.231C2659.54 522.762 2659.7 523.239 2660.23 523.664C2660.76 524.089 2660.87 524.46 2660.55 524.779L2661.82 523.186C2668.51 515.225 2676.42 511.244 2685.55 511.244C2691.28 511.244 2695.9 512.677 2699.4 515.543C2702.91 518.409 2704.71 522.603 2704.82 528.123C2704.82 533.537 2702.8 541.923 2698.77 553.282C2694.73 564.64 2692.71 571.434 2692.71 573.664C2692.82 575.15 2693.09 576.158 2693.51 576.689C2693.94 577.22 2694.73 577.485 2695.9 577.485C2698.87 577.485 2701.63 575.893 2704.18 572.708C2706.73 569.524 2708.8 565.171 2710.39 559.651C2710.71 558.483 2711.03 557.793 2711.35 557.581C2711.66 557.369 2712.51 557.263 2713.89 557.263C2716.02 557.263 2717.08 557.687 2717.08 558.536C2717.08 558.643 2716.87 559.439 2716.44 560.925C2715.59 564.003 2714.42 567.029 2712.94 570.001C2711.45 572.974 2709.01 575.946 2705.61 578.918C2702.22 581.891 2698.55 583.324 2694.63 583.218C2689.64 583.218 2686.03 581.785 2683.8 578.918C2681.57 576.052 2680.45 573.08 2680.45 570.001C2680.45 567.984 2682.36 561.615 2686.19 550.893C2690.01 540.171 2691.97 532.104 2692.08 526.69C2692.08 520.426 2689.74 517.295 2685.07 517.295H2684.28C2675.15 517.295 2667.45 522.656 2661.19 533.377L2660.07 535.288L2654.82 556.626C2651.31 570.532 2649.3 578.016 2648.77 579.078C2647.39 581.944 2645.1 583.377 2641.92 583.377C2640.54 583.377 2639.42 583.005 2638.58 582.262C2637.73 581.519 2637.14 580.882 2636.82 580.352C2636.51 579.821 2636.35 579.29 2636.35 578.759C2636.35 577.591 2638.15 570.001 2641.76 555.989L2647.49 532.74C2647.81 531.148 2647.97 529.131 2647.97 526.69C2647.97 520.426 2645.63 517.295 2640.96 517.295H2640.17C2631.04 517.295 2623.34 522.656 2617.08 533.377L2615.96 535.288L2610.71 556.626C2607.21 570.532 2605.19 578.016 2604.66 579.078C2603.28 581.944 2601 583.377 2597.81 583.377C2596.43 583.377 2595.32 583.058 2594.47 582.422C2593.62 581.785 2593.03 581.148 2592.72 580.511C2592.4 579.874 2592.29 579.343 2592.4 578.918C2592.4 577.538 2594.41 568.834 2598.45 552.804C2602.59 536.456 2604.66 527.91 2604.66 527.167C2604.98 525.575 2605.14 524.142 2605.14 522.868C2605.14 519.046 2603.81 517.136 2601.16 517.136C2598.82 517.136 2596.86 518.622 2595.26 521.594C2593.67 524.566 2592.45 527.804 2591.6 531.307C2590.75 534.811 2590.12 536.721 2589.69 537.04C2589.48 537.252 2588.63 537.358 2587.14 537.358H2584.91C2584.28 536.721 2583.96 536.244 2583.96 535.925Z" fill="#132AF4" stroke="#132AF4" stroke-width="15"/>
<path d="M2743.4 401.885C2743.4 398.582 2744.38 395.954 2746.33 394.002H2748.81C2755.12 394.453 2763 394.678 2772.46 394.678C2790.18 394.678 2800.61 394.453 2803.76 394.002H2806.02C2806.92 394.903 2807.37 395.579 2807.37 396.029C2807.37 396.48 2807.22 397.831 2806.92 400.083C2806.17 402.336 2805.49 403.762 2804.89 404.363H2800.16C2796.86 404.663 2794.61 404.813 2793.4 404.813C2789.05 405.564 2786.65 406.69 2786.2 408.192C2786.2 408.492 2788.37 427.336 2792.73 464.723C2797.08 502.11 2799.34 520.954 2799.49 521.255L2815.93 494.903C2826.89 477.336 2837.85 459.618 2848.81 441.75C2859.77 423.882 2865.4 414.648 2865.7 414.047C2866.3 412.996 2866.6 411.87 2866.6 410.669C2866.6 407.065 2863.3 404.963 2856.69 404.363C2853.99 404.363 2852.64 403.537 2852.64 401.885C2852.64 401.735 2852.79 400.759 2853.09 398.957C2853.54 396.855 2853.99 395.504 2854.44 394.903C2854.89 394.303 2855.87 394.002 2857.37 394.002C2857.67 394.002 2858.57 394.002 2860.07 394.002C2861.57 394.002 2864.13 394.077 2867.73 394.228C2871.33 394.378 2876.14 394.453 2882.14 394.453C2892.5 394.453 2899.03 394.303 2901.74 394.002H2903.31C2904.37 395.053 2904.89 395.879 2904.89 396.48C2904.89 399.032 2904.22 401.435 2902.86 403.687C2902.41 404.138 2901.14 404.363 2899.03 404.363C2897.08 404.513 2895.28 404.663 2893.63 404.813C2891.98 404.963 2890.4 405.339 2888.9 405.939C2887.4 406.54 2886.2 407.065 2885.3 407.516C2884.4 407.966 2883.49 408.567 2882.59 409.318C2881.69 410.068 2880.94 410.594 2880.34 410.894C2879.74 411.195 2879.14 411.87 2878.54 412.921C2877.94 413.972 2877.41 414.498 2876.96 414.498L2833.49 484.318C2806.47 528.011 2792.5 550.384 2791.6 551.435C2791.15 551.735 2790.63 552.11 2790.03 552.561L2785.97 552.786H2784.4C2781.69 552.786 2780.34 552.261 2780.34 551.21C2779.89 550.309 2776.96 526.285 2771.56 479.137C2765.85 431.39 2762.92 407.291 2762.77 406.84C2762.02 405.189 2757.37 404.363 2748.81 404.363H2744.98C2743.93 403.612 2743.4 402.786 2743.4 401.885Z" fill="#132AF4" stroke="#132AF4" stroke-width="15"/>
<path d="M2904.35 489.574L2902.28 490.37C2900.79 490.901 2898.67 491.432 2895.91 491.962C2893.15 492.493 2890.07 492.865 2886.68 493.077H2883.65V485.752H2886.68C2891.67 485.54 2896.28 484.744 2900.53 483.364C2904.78 481.984 2907.75 480.71 2909.45 479.542C2911.14 478.374 2912.63 477.207 2913.9 476.039C2914.12 475.721 2914.75 475.561 2915.82 475.561C2916.77 475.561 2917.67 475.88 2918.52 476.517V524.128L2918.68 571.898C2919.43 572.641 2920.06 573.119 2920.59 573.331C2921.12 573.543 2922.4 573.756 2924.41 573.968C2926.43 574.18 2929.72 574.287 2934.29 574.287H2938.43V581.611H2936.68C2934.45 581.293 2926.01 581.134 2911.36 581.134C2896.92 581.134 2888.59 581.293 2886.36 581.611H2884.45V574.287H2888.59C2890.92 574.287 2892.94 574.287 2894.64 574.287C2896.34 574.287 2897.66 574.233 2898.62 574.127C2899.57 574.021 2900.42 573.862 2901.17 573.65C2901.91 573.437 2902.33 573.331 2902.44 573.331C2902.55 573.331 2902.86 573.066 2903.4 572.535C2903.93 572.004 2904.24 571.792 2904.35 571.898V489.574Z" fill="#132AF4" stroke="#132AF4" stroke-width="15"/>
<path d="M3697 543.98C3697.15 543.529 3697.3 542.929 3697.45 542.178C3697.6 541.427 3697.98 539.775 3698.58 537.223C3699.18 534.67 3699.93 532.343 3700.83 530.241C3701.73 528.139 3702.86 525.661 3704.21 522.808C3705.56 519.956 3707.06 517.703 3708.71 516.052C3710.36 514.4 3712.32 512.748 3714.57 511.097C3716.82 509.445 3719.3 508.769 3722 509.07C3726.35 509.07 3730.18 509.971 3733.49 511.772C3736.79 513.574 3739.12 515.226 3740.47 516.727C3741.82 518.229 3742.65 519.73 3742.95 521.232C3743.25 522.133 3743.47 522.583 3743.62 522.583C3743.77 522.583 3744.37 522.058 3745.42 521.007C3752.63 513.199 3760.96 509.295 3770.42 509.295H3771.1C3778.31 509.295 3783.71 512.373 3787.32 518.529C3788.52 521.382 3789.12 524.16 3789.12 526.862C3789.12 531.367 3788.14 534.971 3786.19 537.673C3784.24 540.376 3782.29 542.103 3780.33 542.853C3778.38 543.604 3776.5 543.904 3774.7 543.754C3771.7 543.754 3769.3 542.929 3767.5 541.277C3765.69 539.625 3764.79 537.448 3764.79 534.745C3764.79 527.538 3769 522.733 3777.41 520.331C3774.1 518.379 3771.4 517.403 3769.3 517.403C3760.89 517.403 3753.16 522.959 3746.1 534.07C3744.6 536.472 3743.47 538.95 3742.72 541.502C3741.97 544.055 3739.42 554.04 3735.06 571.457C3729.96 592.478 3727.03 603.664 3726.28 605.016C3724.33 609.07 3721.1 611.097 3716.59 611.097C3714.64 611.097 3713.07 610.646 3711.86 609.745C3710.66 608.844 3709.84 607.944 3709.39 607.043C3708.94 606.142 3708.79 605.391 3708.94 604.79C3708.94 602.838 3711.94 589.926 3717.95 566.052C3723.95 542.178 3726.95 528.889 3726.95 526.187C3726.95 520.331 3725 517.403 3721.1 517.403C3717.95 517.403 3715.24 519.505 3712.99 523.709C3710.74 527.913 3708.94 532.493 3707.59 537.448C3706.23 542.403 3705.41 545.106 3705.11 545.556C3704.81 545.856 3703.61 546.007 3701.5 546.007H3698.35C3697.45 545.106 3697 544.43 3697 543.98Z" fill="#132AF4" stroke="#132AF4" stroke-width="15"/>
<path d="M3816.57 549.245C3822.51 540.647 3830.63 536.347 3840.93 536.347C3846.02 536.347 3851.12 537.727 3856.21 540.487C3861.31 543.247 3865.45 548.131 3868.63 555.137C3872.56 563.948 3874.53 576.05 3874.53 591.442C3874.53 607.896 3872.24 620.476 3867.68 629.181C3865.56 633.639 3862.64 637.196 3858.92 639.849C3855.21 642.503 3851.97 644.149 3849.21 644.786C3846.45 645.423 3843.74 645.794 3841.09 645.9C3838.33 645.9 3835.57 645.582 3832.81 644.945C3830.05 644.308 3826.81 642.61 3823.09 639.849C3819.38 637.089 3816.46 633.533 3814.34 629.181C3809.77 620.476 3807.49 607.896 3807.49 591.442C3807.49 572.971 3810.51 558.905 3816.57 549.245ZM3852.39 547.334C3849.21 543.937 3845.44 542.239 3841.09 542.239C3836.63 542.239 3832.81 543.937 3829.62 547.334C3826.97 550.094 3825.22 553.916 3824.37 558.799C3823.52 563.682 3823.09 573.873 3823.09 589.372C3823.09 606.145 3823.52 617.185 3824.37 622.493C3825.22 627.801 3827.13 631.994 3830.1 635.072C3833.07 638.257 3836.73 639.849 3841.09 639.849C3845.33 639.849 3848.94 638.257 3851.92 635.072C3854.99 631.888 3856.9 627.429 3857.65 621.697C3858.39 615.964 3858.82 605.19 3858.92 589.372C3858.92 573.98 3858.5 563.842 3857.65 558.959C3856.8 554.075 3855.05 550.201 3852.39 547.334Z" fill="#132AF4" stroke="#132AF4" stroke-width="15"/>
</svg>
