<svg width="4461" height="1427" viewBox="0 0 4461 1427" fill="none" xmlns="http://www.w3.org/2000/svg">
<path d="M3492 35H2191V321.5" stroke="#132AF4" stroke-width="15"/>
<path d="M3526 69V315" stroke="#132AF4" stroke-width="15"/>
<path d="M3425 1109H3628" stroke="#132AF4" stroke-width="35"/>
<path d="M3460 1188H3591" stroke="#132AF4" stroke-width="35"/>
<path d="M3483 1257H3569" stroke="#132AF4" stroke-width="35"/>
<path d="M3525.69 1092V836" stroke="#132AF4" stroke-width="15"/>
<path d="M1587 1261H1790" stroke="#132AF4" stroke-width="35"/>
<path d="M1622 1340H1753" stroke="#132AF4" stroke-width="35"/>
<path d="M1645 1409H1731" stroke="#132AF4" stroke-width="35"/>
<path d="M1687.69 1248.5V899" stroke="#132AF4" stroke-width="15"/>
<path d="M1688 830C1707.33 830 1723 845.67 1723 865C1723 884.33 1707.33 900 1688 900C1668.67 900 1653 884.33 1653 865C1653 845.67 1668.67 830 1688 830Z" fill="#132AF4"/>
<path d="M420 1045H623" stroke="#132AF4" stroke-width="35"/>
<path d="M455 1124H586" stroke="#132AF4" stroke-width="35"/>
<path d="M478 1193H564" stroke="#132AF4" stroke-width="35"/>
<path d="M520.692 1028V899" stroke="#132AF4" stroke-width="15"/>
<path d="M521 830C540.33 830 556 845.67 556 865C556 884.33 540.33 900 521 900C501.67 900 486 884.33 486 865C486 845.67 501.67 830 521 830Z" fill="#132AF4"/>
<path d="M3526 772V727L3436 712L3616 682L3436 652L3616 622L3436 592L3616 562L3436 532L3616 502L3436 472L3616 442L3526 427V382" stroke="#132AF4" stroke-width="15"/>
<path d="M3526.37 313C3545.7 313 3561.37 328.67 3561.37 348C3561.37 367.33 3545.7 383 3526.37 383C3507.04 383 3491.37 367.33 3491.37 348C3491.37 328.67 3507.04 313 3526.37 313Z" fill="#132AF4"/>
<circle cx="3526" cy="806" r="35" transform="rotate(-90 3526 806)" fill="#132AF4"/>
<path d="M3526.5 35L3977.5 35" stroke="#132AF4" stroke-width="15"/>
<circle cx="4011.5" cy="35" r="27.5" transform="rotate(90 4011.5 35)" stroke="#132AF4" stroke-width="15"/>
<path d="M3526 0C3545.33 0 3561 15.67 3561 35C3561 54.33 3545.33 70 3526 70C3506.67 70 3491 54.33 3491 35C3491 15.67 3506.67 0 3526 0Z" fill="#132AF4"/>
<circle cx="2190.5" cy="493.5" r="165" stroke="#132AF4" stroke-width="15"/>
<path d="M2191.18 606.569L2250.86 466.82L2250.86 466.82C2250.92 466.678 2250.95 466.607 2250.92 466.56C2250.88 466.514 2250.81 466.524 2250.66 466.543L2191 473.902L2131.34 466.543C2131.19 466.524 2131.12 466.514 2131.08 466.56C2131.05 466.607 2131.08 466.678 2131.14 466.82L2190.82 606.569C2190.89 606.753 2190.93 606.845 2191 606.845C2191.07 606.845 2191.11 606.753 2191.18 606.569Z" fill="#132AF4"/>
<path d="M2191 473.902L2131.34 466.543C2131.19 466.524 2131.12 466.514 2131.08 466.56C2131.05 466.607 2131.08 466.678 2131.14 466.82L2190.82 606.569C2190.89 606.753 2190.93 606.845 2191 606.845C2191.07 606.845 2191.11 606.753 2191.18 606.569L2250.86 466.82C2250.92 466.678 2250.95 466.607 2250.92 466.56C2250.88 466.514 2250.81 466.524 2250.66 466.543L2191 473.902ZM2191 473.902V381" stroke="#132AF4" stroke-width="15"/>
<circle cx="521.5" cy="552.5" r="165" stroke="#132AF4" stroke-width="15"/>
<path d="M406.5 555.165C406.5 555.165 425.188 492.381 471.188 503.626C517.188 514.87 527.25 590.68 568.938 602.094C610.625 613.509 639.375 552.501 639.375 552.501" stroke="#132AF4" stroke-width="15"/>
<path d="M521 724V832" stroke="#132AF4" stroke-width="15"/>
<path d="M2191 663V865H1715" stroke="#132AF4" stroke-width="15"/>
<path d="M521 383V35H1349" stroke="#132AF4" stroke-width="15"/>
<path d="M1349 865H1665" stroke="#132AF4" stroke-width="15"/>
<path d="M8 465.938C8 462.635 8.97595 460.007 10.9279 458.055H13.4053C19.7114 458.506 27.5941 458.731 37.0534 458.731C54.7706 458.731 65.2058 458.506 68.3589 458.055H70.6111C71.512 458.956 71.9624 459.632 71.9624 460.082C71.9624 460.533 71.8123 461.884 71.512 464.136C70.7612 466.389 70.0856 467.815 69.485 468.416H64.7554C61.4522 468.716 59.2 468.866 57.9988 468.866C53.6445 469.617 51.2422 470.743 50.7918 472.244C50.7918 472.545 52.9689 491.388 57.3231 528.775C61.6774 566.161 63.9296 585.004 64.0797 585.305L80.5208 558.954C91.4815 541.387 102.442 523.67 113.403 505.802C124.364 487.935 129.994 478.701 130.294 478.1C130.895 477.049 131.195 475.923 131.195 474.722C131.195 471.118 127.892 469.016 121.286 468.416C118.583 468.416 117.232 467.59 117.232 465.938C117.232 465.788 117.382 464.812 117.682 463.01C118.132 460.908 118.583 459.557 119.033 458.956C119.484 458.356 120.46 458.055 121.961 458.055C122.262 458.055 123.162 458.055 124.664 458.055C126.165 458.055 128.718 458.131 132.321 458.281C135.925 458.431 140.73 458.506 146.735 458.506C157.095 458.506 163.627 458.356 166.33 458.055H167.906C168.957 459.107 169.483 459.932 169.483 460.533C169.483 463.085 168.807 465.488 167.456 467.74C167.005 468.19 165.729 468.416 163.627 468.416C161.675 468.566 159.873 468.716 158.222 468.866C156.57 469.016 154.993 469.392 153.492 469.992C151.991 470.593 150.789 471.118 149.888 471.569C148.988 472.019 148.087 472.62 147.186 473.37C146.285 474.121 145.534 474.647 144.934 474.947C144.333 475.247 143.732 475.923 143.132 476.974C142.531 478.025 142.006 478.551 141.555 478.551L98.0879 548.369C71.0615 592.061 57.0979 614.433 56.197 615.484C55.7466 615.784 55.2211 616.16 54.6205 616.61L50.5665 616.835H48.99C46.2874 616.835 44.936 616.31 44.936 615.259C44.4856 614.358 41.5577 590.335 36.1525 543.189C30.4469 495.442 27.519 471.343 27.3689 470.893C26.6182 469.241 21.9636 468.416 13.4053 468.416H9.57654C8.52551 467.665 8 466.839 8 465.938Z" fill="#132AF4" stroke="#132AF4" stroke-width="15"/>
<path d="M164.323 550.148C164.323 547.601 165.331 545.371 167.348 543.461C169.365 541.55 171.7 540.541 174.354 540.435C176.265 540.435 177.857 541.072 179.131 542.346C180.405 543.62 181.095 545.212 181.201 547.123C181.201 549.564 180.14 551.794 178.017 553.811C175.893 555.827 173.558 556.889 171.01 556.995C169.418 556.995 167.932 556.464 166.552 555.403C165.172 554.341 164.429 552.59 164.323 550.148ZM138.368 599.987C138.368 599.138 138.846 597.493 139.801 595.051C140.757 592.61 142.03 589.903 143.623 586.93C145.215 583.958 147.55 581.251 150.629 578.81C153.707 576.368 156.892 575.2 160.183 575.307C164.323 575.307 167.773 576.527 170.533 578.969C173.293 581.41 174.726 584.701 174.832 588.841C174.832 590.646 174.089 593.618 172.603 597.758C171.117 601.898 168.993 607.471 166.233 614.477C163.473 621.483 161.244 627.481 159.546 632.47C159.015 634.806 158.75 636.504 158.75 637.566C158.75 640.22 159.652 641.546 161.457 641.546C162.412 641.546 163.42 641.387 164.482 641.069C165.543 640.75 166.764 640.007 168.144 638.84C169.524 637.672 170.957 635.814 172.443 633.266C173.93 630.719 175.257 627.587 176.424 623.872C176.743 622.598 177.008 621.855 177.22 621.643C177.433 621.43 178.335 621.324 179.927 621.324C182.05 621.324 183.112 621.855 183.112 622.917C183.112 623.766 182.634 625.411 181.679 627.853C180.723 630.294 179.397 633.001 177.698 635.973C176 638.946 173.611 641.6 170.533 643.935C167.454 646.27 164.163 647.438 160.66 647.438C157.264 647.438 154.132 646.323 151.266 644.094C148.4 641.865 146.914 638.468 146.807 633.903C146.807 632.099 147.073 630.4 147.604 628.808C148.134 627.216 150.417 621.165 154.45 610.656C158.484 599.934 160.82 593.512 161.457 591.389C162.093 589.266 162.465 587.196 162.571 585.179C162.571 582.631 161.669 581.357 159.864 581.357H159.546C156.361 581.357 153.442 583.109 150.788 586.612C148.134 590.115 146.117 594.573 144.737 599.987C144.631 600.093 144.525 600.253 144.419 600.465C144.313 600.677 144.26 600.837 144.26 600.943C144.26 601.049 144.154 601.155 143.941 601.261C143.729 601.367 143.57 601.42 143.464 601.42C143.357 601.42 143.145 601.42 142.827 601.42C142.508 601.42 142.084 601.42 141.553 601.42H139.324C138.687 600.783 138.368 600.306 138.368 599.987Z" fill="#132AF4" stroke="#132AF4" stroke-width="15"/>
<path d="M193.302 599.987C193.408 599.35 193.568 598.501 193.78 597.44C193.992 596.378 194.629 594.361 195.691 591.389C196.752 588.417 197.814 585.922 198.875 583.905C199.937 581.888 201.688 579.924 204.13 578.014C206.571 576.103 209.013 575.2 211.455 575.307C215.276 575.307 218.461 576.262 221.008 578.173C223.556 580.084 225.148 581.888 225.785 583.587C226.422 585.285 226.741 586.4 226.741 586.93C226.741 587.143 226.794 587.249 226.9 587.249L228.651 585.497C235.127 578.704 242.504 575.307 250.784 575.307C256.517 575.307 261.134 576.74 264.637 579.606C268.141 582.472 269.945 586.665 270.051 592.185C270.157 597.705 268.141 606.038 264.001 617.184C259.861 628.33 257.844 635.071 257.95 637.406C257.95 640.166 258.852 641.546 260.657 641.546C261.294 641.546 261.771 641.493 262.09 641.387C265.168 640.856 267.928 638.84 270.37 635.336C272.811 631.833 274.669 627.587 275.943 622.598C276.155 621.749 277.217 621.324 279.127 621.324C281.251 621.324 282.312 621.749 282.312 622.598C282.312 622.704 282.1 623.5 281.675 624.987C280.826 628.065 279.658 631.09 278.172 634.063C276.686 637.035 274.244 640.007 270.847 642.98C267.451 645.952 263.788 647.385 259.861 647.279C254.871 647.279 251.262 645.846 249.033 642.98C246.804 640.113 245.689 637.141 245.689 634.063C245.689 632.046 247.6 625.676 251.421 614.955C255.243 604.233 257.207 596.166 257.313 590.752C257.313 584.489 254.977 581.357 250.307 581.357H249.511C240.381 581.357 232.685 586.718 226.422 597.44L225.308 599.35L220.053 620.687C216.55 634.593 214.533 642.077 214.002 643.139C212.622 646.005 210.34 647.438 207.155 647.438C205.775 647.438 204.661 647.12 203.811 646.483C202.962 645.846 202.378 645.209 202.06 644.572C201.741 643.935 201.635 643.404 201.741 642.98C201.741 641.6 203.758 632.948 207.792 617.025C211.826 601.102 213.949 592.45 214.161 591.07C214.268 590.54 214.321 589.319 214.321 587.408C214.321 583.268 213.047 581.198 210.499 581.198C206.465 581.198 203.121 586.506 200.468 597.121C199.831 599.244 199.512 600.359 199.512 600.465C199.3 601.102 198.291 601.42 196.487 601.42H194.258C193.621 600.783 193.302 600.306 193.302 599.987Z" fill="#132AF4" stroke="#132AF4" stroke-width="15"/>
<path d="M1252 406.969C1252 403.666 1252.98 401.038 1254.93 399.086H1257.41C1263.71 399.537 1271.59 399.762 1281.05 399.762C1298.77 399.762 1309.21 399.537 1312.36 399.086H1314.61C1315.51 399.987 1315.96 400.663 1315.96 401.113C1315.96 401.564 1315.81 402.915 1315.51 405.167C1314.76 407.419 1314.09 408.846 1313.49 409.446H1308.76C1305.45 409.747 1303.2 409.897 1302 409.897C1297.64 410.648 1295.24 411.774 1294.79 413.275C1294.79 413.575 1296.97 432.419 1301.32 469.805C1305.68 507.192 1307.93 526.035 1308.08 526.335L1324.52 499.985C1335.48 482.418 1346.44 464.7 1357.4 446.833C1368.36 428.965 1373.99 419.731 1374.29 419.131C1374.89 418.08 1375.2 416.954 1375.2 415.753C1375.2 412.149 1371.89 410.047 1365.29 409.446C1362.58 409.446 1361.23 408.621 1361.23 406.969C1361.23 406.819 1361.38 405.843 1361.68 404.041C1362.13 401.939 1362.58 400.588 1363.03 399.987C1363.48 399.387 1364.46 399.086 1365.96 399.086C1366.26 399.086 1367.16 399.086 1368.66 399.086C1370.17 399.086 1372.72 399.161 1376.32 399.311C1379.92 399.462 1384.73 399.537 1390.74 399.537C1401.1 399.537 1407.63 399.387 1410.33 399.086H1411.91C1412.96 400.137 1413.48 400.963 1413.48 401.564C1413.48 404.116 1412.81 406.519 1411.46 408.771C1411.01 409.221 1409.73 409.446 1407.63 409.446C1405.67 409.597 1403.87 409.747 1402.22 409.897C1400.57 410.047 1398.99 410.422 1397.49 411.023C1395.99 411.623 1394.79 412.149 1393.89 412.599C1392.99 413.05 1392.09 413.65 1391.19 414.401C1390.28 415.152 1389.53 415.677 1388.93 415.978C1388.33 416.278 1387.73 416.954 1387.13 418.005C1386.53 419.056 1386.01 419.581 1385.56 419.581L1342.09 489.399C1315.06 533.092 1301.1 555.464 1300.2 556.515C1299.75 556.815 1299.22 557.191 1298.62 557.641L1294.57 557.866H1292.99C1290.29 557.866 1288.94 557.341 1288.94 556.29C1288.49 555.389 1285.56 531.365 1280.15 484.219C1274.45 436.473 1271.52 412.374 1271.37 411.924C1270.62 410.272 1265.96 409.446 1257.41 409.446H1253.58C1252.53 408.696 1252 407.87 1252 406.969Z" fill="#132AF4" stroke="#132AF4" stroke-width="15"/>
<path d="M1390.65 483.687C1390.65 482.625 1390.86 481.405 1391.28 480.025C1391.71 478.645 1392.35 477.955 1393.2 477.955C1393.3 477.955 1397.12 477.689 1404.66 477.158C1412.2 476.628 1416.07 476.309 1416.28 476.203C1417.56 476.203 1418.19 476.681 1418.19 477.636C1418.19 478.591 1416.39 486.181 1412.78 500.406C1411.93 504.015 1411.03 507.731 1410.07 511.552C1409.12 515.374 1408.32 518.24 1407.69 520.151L1407.05 523.176C1407.05 523.494 1407.37 523.335 1408 522.698C1413.21 518.452 1418.57 516.329 1424.09 516.329C1430.67 516.329 1435.98 518.771 1440.01 523.654C1444.04 528.537 1446.11 534.694 1446.22 542.124C1446.22 553.907 1442.03 564.576 1433.64 574.13C1425.25 583.684 1416.23 588.46 1406.57 588.46C1401.26 588.46 1396.43 586.444 1392.08 582.41C1387.73 578.376 1385.5 571.847 1385.39 562.824V561.391C1385.39 559.162 1385.82 556.084 1386.67 552.156C1387.52 548.228 1390.12 537.772 1394.47 520.788C1399.78 499.875 1402.43 488.782 1402.43 487.508C1402.43 486.235 1400.41 485.491 1396.38 485.279C1395.85 485.279 1395.42 485.279 1395.11 485.279H1394.31C1393.25 485.279 1392.56 485.279 1392.24 485.279C1391.92 485.279 1391.55 485.12 1391.13 484.801C1390.7 484.483 1390.54 484.111 1390.65 483.687ZM1432.53 534.959V534.004C1432.53 526.148 1429.29 522.221 1422.81 522.221C1421.01 522.221 1419.15 522.645 1417.24 523.494C1415.33 524.344 1413.58 525.458 1411.98 526.838C1410.39 528.218 1409.01 529.492 1407.84 530.66C1406.68 531.828 1405.72 532.995 1404.98 534.163L1404.02 535.437L1400.68 549.131C1398.34 558.26 1397.18 564.735 1397.18 568.557C1397.18 573.652 1398.45 577.474 1401 580.021C1402.7 581.72 1404.82 582.569 1407.37 582.569C1410.87 582.569 1414.43 580.87 1418.04 577.474C1420.69 575.032 1422.81 572.06 1424.4 568.557C1426 565.054 1427.75 559.481 1429.66 551.837C1431.57 544.194 1432.53 538.568 1432.53 534.959Z" fill="#132AF4" stroke="#132AF4" stroke-width="15"/>
<path d="M2524.79 543.231C2522.54 545.183 2519.24 547.285 2514.88 549.537C2510.53 551.789 2505.95 552.915 2501.14 552.915C2491.68 552.915 2484.1 549.537 2478.4 542.78C2472.69 536.024 2469.76 527.39 2469.61 516.88C2469.61 501.115 2475.39 486.626 2486.95 473.413C2498.52 460.2 2511.35 453.518 2525.47 453.368C2532.52 453.368 2539.06 456.972 2545.06 464.179L2545.74 463.278C2546.04 462.827 2546.41 462.377 2546.86 461.927C2547.31 461.476 2547.99 460.876 2548.89 460.125C2549.79 459.374 2550.77 458.849 2551.82 458.548C2552.87 458.248 2554.07 458.023 2555.42 457.873C2557.52 457.873 2559.25 458.548 2560.6 459.9C2561.95 461.251 2562.7 462.677 2562.85 464.179C2562.85 466.431 2558.57 484.599 2550.02 518.682C2541.46 552.765 2536.95 570.182 2536.5 570.933C2533.8 579.041 2528.02 585.722 2519.16 590.978C2510.3 596.233 2500.17 598.935 2488.76 599.085C2467.59 599.085 2457 593.98 2457 583.771C2457 579.867 2458.35 576.413 2461.05 573.41C2463.76 570.407 2467.21 568.906 2471.41 568.906C2473.67 568.906 2475.77 569.582 2477.72 570.933C2479.67 572.284 2480.72 574.612 2480.87 577.915C2480.87 579.416 2480.72 580.843 2480.42 582.194C2480.12 583.545 2479.6 584.596 2478.85 585.347C2478.1 586.098 2477.5 586.849 2477.04 587.599C2476.59 588.35 2476.07 588.951 2475.47 589.401L2475.02 589.851H2475.24C2476.74 590.302 2481.25 590.527 2488.76 590.527C2494.46 590.527 2498.97 589.626 2502.27 587.824C2505.72 586.173 2508.95 583.695 2511.95 580.392C2514.96 577.089 2517.06 573.561 2518.26 569.807C2519.16 566.954 2520.36 562.3 2521.86 555.843C2523.82 548.636 2524.79 544.432 2524.79 543.231ZM2541.23 479.043L2540.33 476.566C2539.88 474.914 2539.51 473.788 2539.21 473.188C2538.9 472.587 2538.45 471.536 2537.85 470.035C2537.25 468.533 2536.5 467.482 2535.6 466.881C2534.7 466.281 2533.72 465.455 2532.67 464.404C2531.62 463.353 2530.27 462.677 2528.62 462.377C2526.97 462.077 2525.32 461.852 2523.67 461.701C2517.06 461.701 2510.68 465.68 2504.52 473.638C2500.02 479.494 2496.26 488.427 2493.26 500.439C2490.26 512.451 2488.76 521.159 2488.76 526.565C2488.76 538.426 2493.41 544.357 2502.72 544.357C2511.13 544.357 2519.39 539.102 2527.49 528.592L2529.3 526.339L2541.23 479.043Z" fill="#132AF4" stroke="#132AF4" stroke-width="15"/>
<path d="M2572.95 541.01C2573.06 540.373 2573.22 539.524 2573.43 538.463C2573.64 537.401 2574.28 535.384 2575.34 532.412C2576.4 529.44 2577.47 526.945 2578.53 524.928C2579.59 522.911 2581.29 520.947 2583.62 519.036C2585.96 517.126 2588.29 516.223 2590.63 516.33C2592.96 516.436 2595.25 516.807 2597.48 517.444C2599.7 518.081 2601.3 519.036 2602.25 520.31C2603.21 521.584 2604.06 522.752 2604.8 523.813C2605.54 524.875 2605.97 525.883 2606.07 526.839L2606.39 527.953C2606.39 528.166 2606.45 528.272 2606.55 528.272L2608.3 526.52C2614.67 519.726 2622.16 516.33 2630.75 516.33C2632.56 516.33 2634.2 516.436 2635.69 516.648C2637.18 516.86 2638.56 517.232 2639.83 517.763C2641.1 518.293 2642.11 518.824 2642.86 519.355C2643.6 519.886 2644.39 520.523 2645.24 521.266C2646.09 522.009 2646.62 522.699 2646.84 523.336C2647.05 523.973 2647.47 524.663 2648.11 525.406C2648.75 526.149 2648.96 526.786 2648.75 527.316C2648.53 527.847 2648.69 528.325 2649.22 528.75C2649.76 529.174 2649.86 529.546 2649.54 529.864L2650.82 528.272C2657.5 520.31 2665.41 516.33 2674.54 516.33C2680.27 516.33 2684.89 517.763 2688.4 520.629C2691.9 523.495 2693.7 527.688 2693.81 533.208C2693.81 538.622 2691.79 547.008 2687.76 558.366C2683.72 569.725 2681.71 576.519 2681.71 578.748C2681.81 580.234 2682.08 581.242 2682.5 581.773C2682.93 582.304 2683.72 582.569 2684.89 582.569C2687.86 582.569 2690.62 580.977 2693.17 577.792C2695.72 574.608 2697.79 570.256 2699.38 564.736C2699.7 563.568 2700.02 562.878 2700.34 562.666C2700.66 562.453 2701.51 562.347 2702.89 562.347C2705.01 562.347 2706.07 562.772 2706.07 563.621C2706.07 563.727 2705.86 564.523 2705.43 566.009C2704.58 569.088 2703.42 572.113 2701.93 575.086C2700.44 578.058 2698 581.03 2694.61 584.002C2691.21 586.975 2687.55 588.408 2683.62 588.302C2678.63 588.302 2675.02 586.869 2672.79 584.002C2670.56 581.136 2669.45 578.164 2669.45 575.086C2669.45 573.069 2671.36 566.699 2675.18 555.978C2679 545.256 2680.96 537.189 2681.07 531.775C2681.07 525.512 2678.74 522.38 2674.06 522.38H2673.27C2664.14 522.38 2656.44 527.741 2650.18 538.463L2649.07 540.373L2643.81 561.71C2640.31 575.616 2638.29 583.1 2637.76 584.162C2636.38 587.028 2634.1 588.461 2630.91 588.461C2629.53 588.461 2628.42 588.089 2627.57 587.346C2626.72 586.603 2626.14 585.966 2625.82 585.436C2625.5 584.905 2625.34 584.374 2625.34 583.843C2625.34 582.676 2627.15 575.086 2630.75 561.073L2636.49 537.826C2636.81 536.233 2636.96 534.216 2636.96 531.775C2636.96 525.512 2634.63 522.38 2629.96 522.38H2629.16C2620.03 522.38 2612.34 527.741 2606.07 538.463L2604.96 540.373L2599.7 561.71C2596.2 575.616 2594.18 583.1 2593.65 584.162C2592.27 587.028 2589.99 588.461 2586.81 588.461C2585.43 588.461 2584.31 588.142 2583.46 587.506C2582.61 586.869 2582.03 586.232 2581.71 585.595C2581.39 584.958 2581.29 584.427 2581.39 584.002C2581.39 582.622 2583.41 573.918 2587.44 557.889C2591.58 541.541 2593.65 532.996 2593.65 532.253C2593.97 530.66 2594.13 529.227 2594.13 527.953C2594.13 524.132 2592.8 522.221 2590.15 522.221C2587.82 522.221 2585.85 523.707 2584.26 526.68C2582.67 529.652 2581.45 532.89 2580.6 536.393C2579.75 539.896 2579.11 541.806 2578.69 542.125C2578.47 542.337 2577.62 542.443 2576.14 542.443H2573.91C2573.27 541.806 2572.95 541.329 2572.95 541.01Z" fill="#132AF4" stroke="#132AF4" stroke-width="15"/>
<path d="M2732.4 406.969C2732.4 403.666 2733.38 401.038 2735.33 399.086H2737.8C2744.11 399.537 2751.99 399.762 2761.45 399.762C2779.17 399.762 2789.61 399.537 2792.76 399.086H2795.01C2795.91 399.987 2796.36 400.663 2796.36 401.113C2796.36 401.564 2796.21 402.915 2795.91 405.167C2795.16 407.419 2794.49 408.846 2793.88 409.446H2789.15C2785.85 409.747 2783.6 409.897 2782.4 409.897C2778.04 410.648 2775.64 411.774 2775.19 413.275C2775.19 413.575 2777.37 432.419 2781.72 469.805C2786.08 507.192 2788.33 526.035 2788.48 526.335L2804.92 499.985C2815.88 482.418 2826.84 464.7 2837.8 446.833C2848.76 428.965 2854.39 419.731 2854.69 419.131C2855.29 418.08 2855.59 416.954 2855.59 415.753C2855.59 412.149 2852.29 410.047 2845.68 409.446C2842.98 409.446 2841.63 408.621 2841.63 406.969C2841.63 406.819 2841.78 405.843 2842.08 404.041C2842.53 401.939 2842.98 400.588 2843.43 399.987C2843.88 399.387 2844.86 399.086 2846.36 399.086C2846.66 399.086 2847.56 399.086 2849.06 399.086C2850.56 399.086 2853.12 399.161 2856.72 399.311C2860.32 399.462 2865.13 399.537 2871.13 399.537C2881.49 399.537 2888.03 399.387 2890.73 399.086H2892.31C2893.36 400.137 2893.88 400.963 2893.88 401.564C2893.88 404.116 2893.21 406.519 2891.86 408.771C2891.4 409.221 2890.13 409.446 2888.03 409.446C2886.07 409.597 2884.27 409.747 2882.62 409.897C2880.97 410.047 2879.39 410.422 2877.89 411.023C2876.39 411.623 2875.19 412.149 2874.29 412.599C2873.39 413.05 2872.49 413.65 2871.59 414.401C2870.68 415.152 2869.93 415.677 2869.33 415.978C2868.73 416.278 2868.13 416.954 2867.53 418.005C2866.93 419.056 2866.41 419.581 2865.95 419.581L2822.49 489.399C2795.46 533.092 2781.5 555.464 2780.6 556.515C2780.15 556.815 2779.62 557.191 2779.02 557.641L2774.97 557.866H2773.39C2770.69 557.866 2769.34 557.341 2769.34 556.29C2768.89 555.389 2765.96 531.365 2760.55 484.219C2754.85 436.473 2751.92 412.374 2751.77 411.924C2751.02 410.272 2746.36 409.446 2737.8 409.446H2733.98C2732.92 408.696 2732.4 407.87 2732.4 406.969Z" fill="#132AF4" stroke="#132AF4" stroke-width="15"/>
<path d="M2871.05 483.687C2871.05 482.625 2871.26 481.405 2871.68 480.025C2872.11 478.645 2872.75 477.955 2873.59 477.955C2873.7 477.955 2877.52 477.689 2885.06 477.158C2892.6 476.628 2896.47 476.309 2896.68 476.203C2897.96 476.203 2898.59 476.681 2898.59 477.636C2898.59 478.591 2896.79 486.181 2893.18 500.406C2892.33 504.015 2891.43 507.731 2890.47 511.552C2889.52 515.374 2888.72 518.24 2888.08 520.151L2887.45 523.176C2887.45 523.494 2887.77 523.335 2888.4 522.698C2893.6 518.452 2898.97 516.329 2904.49 516.329C2911.07 516.329 2916.37 518.771 2920.41 523.654C2924.44 528.537 2926.51 534.694 2926.62 542.124C2926.62 553.907 2922.43 564.576 2914.04 574.13C2905.65 583.684 2896.63 588.46 2886.97 588.46C2881.66 588.46 2876.83 586.444 2872.48 582.41C2868.13 578.376 2865.9 571.847 2865.79 562.824V561.391C2865.79 559.162 2866.22 556.084 2867.07 552.156C2867.92 548.228 2870.52 537.772 2874.87 520.788C2880.18 499.875 2882.83 488.782 2882.83 487.508C2882.83 486.235 2880.81 485.491 2876.78 485.279C2876.25 485.279 2875.82 485.279 2875.51 485.279H2874.71C2873.65 485.279 2872.96 485.279 2872.64 485.279C2872.32 485.279 2871.95 485.12 2871.52 484.801C2871.1 484.483 2870.94 484.111 2871.05 483.687ZM2912.92 534.959V534.004C2912.92 526.148 2909.69 522.221 2903.21 522.221C2901.41 522.221 2899.55 522.645 2897.64 523.494C2895.73 524.344 2893.98 525.458 2892.38 526.838C2890.79 528.218 2889.41 529.492 2888.24 530.66C2887.08 531.828 2886.12 532.995 2885.38 534.163L2884.42 535.437L2881.08 549.131C2878.74 558.26 2877.58 564.735 2877.58 568.557C2877.58 573.652 2878.85 577.474 2881.4 580.021C2883.1 581.72 2885.22 582.569 2887.77 582.569C2891.27 582.569 2894.83 580.87 2898.43 577.474C2901.09 575.032 2903.21 572.06 2904.8 568.557C2906.4 565.054 2908.15 559.481 2910.06 551.837C2911.97 544.194 2912.92 538.568 2912.92 534.959Z" fill="#132AF4" stroke="#132AF4" stroke-width="15"/>
<path d="M3723.37 493.446C3719.31 493.446 3716.91 493.37 3716.16 493.22C3715.41 493.07 3715.04 492.244 3715.04 490.743C3715.04 486.689 3715.86 484.212 3717.51 483.311C3717.81 483.16 3730.88 483.085 3756.7 483.085C3782.53 483.236 3796.49 483.461 3798.59 483.761C3807 484.962 3814.06 487.064 3819.76 490.067C3825.47 493.07 3829.52 496.524 3831.92 500.427C3834.33 504.331 3835.9 507.559 3836.65 510.112C3837.4 512.664 3837.86 515.217 3838.01 517.769C3838.01 524.526 3835.83 530.832 3831.47 536.688C3827.12 542.543 3822.09 547.048 3816.38 550.201C3810.68 553.354 3805.65 555.906 3801.29 557.858C3796.94 559.81 3794.09 560.786 3792.74 560.786L3794.31 561.912C3804.37 567.618 3809.4 575.876 3809.4 586.687C3809.4 588.338 3809.03 592.918 3808.28 600.425C3807.53 607.932 3807.15 614.088 3807.15 618.893V620.92C3807.15 623.623 3807.23 625.725 3807.38 627.226C3807.53 628.728 3808.35 630.079 3809.85 631.28C3811.35 632.481 3813.31 633.157 3815.71 633.307C3819.91 633.307 3823.37 631.655 3826.07 628.352C3828.77 625.049 3830.72 621.521 3831.92 617.767C3832.67 615.665 3833.28 614.389 3833.73 613.938C3834.18 613.488 3835.3 613.262 3837.1 613.262C3840.11 613.262 3841.61 614.163 3841.61 615.965C3841.61 618.668 3839.81 622.947 3836.2 628.803C3830.5 637.361 3823.74 641.64 3815.93 641.64H3813.91C3804.75 641.64 3797.17 639.763 3791.16 636.01C3785.15 632.256 3781.85 626.4 3781.25 618.442C3781.25 614.389 3782.38 608.082 3784.63 599.524C3786.88 590.966 3788.01 585.485 3788.01 583.083C3788.01 575.426 3784.78 569.87 3778.32 566.417C3776.07 565.366 3774.19 564.765 3772.69 564.615C3771.19 564.465 3765.86 564.315 3756.7 564.165H3741.16L3733.95 593.443C3729 613.262 3726.52 623.322 3726.52 623.623C3726.52 624.223 3726.6 624.599 3726.75 624.749C3726.9 624.899 3727.42 625.199 3728.32 625.65C3729.22 626.1 3730.5 626.25 3732.15 626.1C3733.8 625.95 3736.28 626.1 3739.58 626.55H3746.57C3747.47 627.752 3747.92 628.427 3747.92 628.577C3747.92 628.728 3747.69 630.079 3747.24 632.631C3746.64 634.583 3745.89 636.01 3744.99 636.911H3741.61C3736.21 636.61 3726.37 636.46 3712.11 636.46C3707 636.46 3702.27 636.46 3697.92 636.46C3693.56 636.46 3690.11 636.46 3687.56 636.46C3685.01 636.46 3683.43 636.535 3682.83 636.685C3680.28 636.685 3679 636.01 3679 634.658C3679 634.358 3679.23 633.307 3679.68 631.505C3680.43 628.652 3681.18 627.076 3681.93 626.776C3682.53 626.625 3683.65 626.55 3685.31 626.55H3686.66C3690.71 626.55 3695.22 626.325 3700.17 625.875C3702.27 625.424 3703.7 624.523 3704.45 623.172C3704.9 622.572 3710.31 601.701 3720.67 560.561C3731.03 519.421 3736.21 497.725 3736.21 495.472C3736.21 494.421 3731.93 493.746 3723.37 493.446ZM3813.46 512.139C3813.46 507.334 3811.88 503.28 3808.73 499.977C3805.57 496.674 3799.12 494.572 3789.36 493.671C3789.06 493.671 3787.33 493.671 3784.18 493.671C3781.02 493.671 3778.17 493.596 3775.62 493.446H3770.66C3763.61 493.446 3759.55 494.196 3758.5 495.698C3758.35 496.148 3755.8 506.133 3750.85 525.652C3745.89 545.171 3743.41 555.156 3743.41 555.606C3743.41 555.756 3748.59 555.831 3758.95 555.831C3770.66 555.681 3778.47 555.156 3782.38 554.255C3791.99 552.753 3799.49 548.324 3804.9 540.967C3807.3 537.514 3809.33 533.009 3810.98 527.454C3812.63 521.898 3813.46 516.793 3813.46 512.139Z" fill="#132AF4" stroke="#132AF4" stroke-width="15"/>
<path d="M3895.64 570.722C3895.64 569.979 3892.62 569.501 3886.56 569.289C3884.12 569.289 3882.53 569.236 3881.79 569.13C3881.04 569.024 3880.67 568.546 3880.67 567.697C3880.67 566.847 3880.89 565.786 3881.31 564.512C3881.73 563.238 3882.11 562.442 3882.42 562.124C3882.64 562.017 3893.2 561.964 3914.11 561.964C3931.84 562.071 3941.76 562.124 3943.89 562.124C3946.01 562.124 3948.13 562.442 3950.26 563.079C3957.9 564.884 3964.38 569.077 3969.68 575.658C3974.99 582.24 3977.7 591.05 3977.8 602.09C3977.8 618.65 3972.12 633.512 3960.77 646.675C3949.41 659.838 3936.03 667.693 3920.64 670.241L3918.41 670.56L3887.52 670.719H3869.85H3861.41C3858.86 670.719 3857.21 670.613 3856.47 670.4C3855.73 670.188 3855.3 669.71 3855.2 668.967C3855.2 668.755 3855.36 668.012 3855.67 666.738C3856.1 665.04 3856.52 664.084 3856.95 663.872C3857.37 663.66 3858.59 663.5 3860.61 663.394C3863.48 663.394 3866.66 663.235 3870.16 662.916C3871.65 662.598 3872.66 661.961 3873.19 661.006C3873.51 660.581 3877.33 645.826 3884.65 616.74C3891.98 587.654 3895.64 572.314 3895.64 570.722ZM3961.88 596.04C3961.88 592.006 3961.3 588.397 3960.13 585.212C3958.96 582.027 3957.58 579.533 3955.99 577.728C3954.4 575.924 3952.43 574.384 3950.1 573.111C3947.76 571.837 3945.69 570.987 3943.89 570.563C3942.08 570.138 3940.23 569.767 3938.31 569.448C3938.1 569.448 3937.36 569.448 3936.09 569.448C3934.81 569.448 3933.27 569.448 3931.47 569.448C3929.66 569.448 3927.91 569.395 3926.21 569.289H3919.37C3914.7 569.289 3912.04 569.82 3911.4 570.881C3911.19 571.306 3907.32 586.592 3899.78 616.74C3892.24 646.887 3888.48 662.12 3888.48 662.439C3888.48 662.863 3889.06 663.076 3890.23 663.076C3891.39 663.076 3895.48 663.129 3902.49 663.235C3903.02 663.235 3904.03 663.235 3905.51 663.235C3907 663.235 3908.27 663.288 3909.33 663.394C3922.71 663.394 3933.75 659.042 3942.45 650.337C3946.28 646.516 3949.41 642.057 3951.85 636.962C3954.29 631.867 3956.57 625.126 3958.7 616.74C3960.82 608.354 3961.88 601.454 3961.88 596.04Z" fill="#132AF4" stroke="#132AF4" stroke-width="15"/>
<path d="M4105 42.9685C4105 39.6652 4105.98 37.0377 4107.93 35.0858H4110.41C4116.71 35.5362 4124.59 35.7614 4134.05 35.7614C4151.77 35.7614 4162.21 35.5362 4165.36 35.0858H4167.61C4168.51 35.9867 4168.96 36.6623 4168.96 37.1128C4168.96 37.5632 4168.81 38.9145 4168.51 41.1667C4167.76 43.4189 4167.09 44.8453 4166.49 45.4459H4161.76C4158.45 45.7462 4156.2 45.8963 4155 45.8963C4150.64 46.6471 4148.24 47.7732 4147.79 49.2746C4147.79 49.5749 4149.97 68.4183 4154.32 105.805C4158.68 143.191 4160.93 162.035 4161.08 162.335L4177.52 135.984C4188.48 118.417 4199.44 100.7 4210.4 82.8324C4221.36 64.9649 4226.99 55.7309 4227.29 55.1303C4227.89 54.0793 4228.2 52.9532 4228.2 51.752C4228.2 48.1485 4224.89 46.0465 4218.29 45.4459C4215.58 45.4459 4214.23 44.6201 4214.23 42.9685C4214.23 42.8183 4214.38 41.8424 4214.68 40.0406C4215.13 37.9386 4215.58 36.5872 4216.03 35.9867C4216.48 35.3861 4217.46 35.0858 4218.96 35.0858C4219.26 35.0858 4220.16 35.0858 4221.66 35.0858C4223.17 35.0858 4225.72 35.1608 4229.32 35.311C4232.92 35.4611 4237.73 35.5362 4243.74 35.5362C4254.1 35.5362 4260.63 35.3861 4263.33 35.0858H4264.91C4265.96 36.1368 4266.48 36.9626 4266.48 37.5632C4266.48 40.1157 4265.81 42.518 4264.46 44.7702C4264.01 45.2207 4262.73 45.4459 4260.63 45.4459C4258.67 45.596 4256.87 45.7462 4255.22 45.8963C4253.57 46.0465 4251.99 46.4218 4250.49 47.0224C4248.99 47.623 4247.79 48.1485 4246.89 48.599C4245.99 49.0494 4245.09 49.65 4244.19 50.4007C4243.28 51.1515 4242.53 51.677 4241.93 51.9773C4241.33 52.2776 4240.73 52.9532 4240.13 54.0042C4239.53 55.0553 4239.01 55.5808 4238.56 55.5808L4195.09 125.399C4168.06 169.092 4154.1 191.463 4153.2 192.514C4152.75 192.815 4152.22 193.19 4151.62 193.641L4147.57 193.866H4145.99C4143.29 193.866 4141.94 193.34 4141.94 192.289C4141.49 191.388 4138.56 167.365 4133.15 120.219C4127.45 72.4723 4124.52 48.3737 4124.37 47.9233C4123.62 46.2717 4118.96 45.4459 4110.41 45.4459H4106.58C4105.53 44.6952 4105 43.8693 4105 42.9685Z" fill="#132AF4" stroke="#132AF4" stroke-width="15"/>
<path d="M4264.03 224.468C4256.07 224.468 4249.65 221.867 4244.76 216.666C4239.88 211.464 4237.44 205.201 4237.44 197.877C4237.44 190.977 4239.03 184.448 4242.21 178.291C4245.4 172.135 4249.75 166.774 4255.27 162.209C4263.34 155.734 4271.57 152.496 4279.95 152.496C4283.35 152.496 4285.47 152.549 4286.32 152.655C4287.7 152.974 4289.08 153.345 4290.46 153.77C4291.84 154.195 4293.7 155.044 4296.03 156.318C4298.37 157.591 4300.28 159.184 4301.77 161.095C4303.25 163.005 4304.63 165.606 4305.91 168.897C4307.18 172.188 4307.82 175.903 4307.82 180.043C4307.82 191.401 4303.25 201.645 4294.12 210.774C4284.99 219.904 4274.96 224.468 4264.03 224.468ZM4251.29 203.609C4251.29 208.917 4252.67 212.738 4255.43 215.074C4258.19 217.409 4261.32 218.577 4264.83 218.577C4269.5 218.577 4273.9 216.878 4278.04 213.481C4282.18 210.084 4285.47 205.626 4287.91 200.106C4288.87 197.877 4290.09 193.949 4291.58 188.323C4293.06 182.697 4293.81 177.814 4293.81 173.674C4293.81 169.003 4292.85 165.447 4290.94 163.005C4288.39 159.821 4284.99 158.228 4280.75 158.228C4274.06 158.228 4268.17 161.307 4263.07 167.464C4259.15 172.135 4256.23 178.345 4254.32 186.094C4252.41 193.843 4251.4 199.681 4251.29 203.609Z" fill="#132AF4" stroke="#132AF4" stroke-width="15"/>
<path d="M4312.59 177.018C4312.59 176.168 4313.07 174.523 4314.03 172.081C4314.98 169.64 4316.31 166.88 4318.01 163.801C4319.71 160.723 4322.04 158.069 4325.01 155.84C4327.99 153.611 4331.12 152.443 4334.41 152.337C4339.29 152.337 4342.95 153.664 4345.4 156.318C4347.84 158.971 4349.06 162.103 4349.06 165.712C4349.06 167.623 4347.25 173.568 4343.64 183.546C4340.03 193.524 4338.23 201.008 4338.23 205.998C4338.23 210.562 4338.97 213.747 4340.46 215.551C4341.95 217.356 4344.17 218.311 4347.15 218.418C4350.12 218.524 4352.93 217.621 4355.59 215.711C4358.24 213.8 4360.2 211.995 4361.48 210.297L4363.23 207.59C4363.44 207.165 4365.46 199.098 4369.28 183.387C4372.46 170.648 4374.38 163.218 4375.01 161.095C4375.65 158.971 4376.39 157.432 4377.24 156.477C4379.05 154.885 4380.96 154.088 4382.97 154.088C4384.78 154.088 4386.11 154.619 4386.95 155.681C4387.8 156.742 4388.23 157.751 4388.23 158.706L4376.13 209.341C4376.02 209.872 4375.97 210.721 4375.97 211.889C4375.97 214.543 4376.34 216.294 4377.08 217.144C4377.83 217.993 4378.94 218.471 4380.43 218.577C4382.76 218.258 4384.62 216.613 4386 213.641C4387.38 210.668 4388.97 205.998 4390.78 199.628C4390.99 198.779 4392.05 198.354 4393.96 198.354C4395.98 198.354 4396.99 198.832 4396.99 199.788C4396.88 200.318 4396.77 201.061 4396.67 202.017C4396.56 202.972 4396.08 204.671 4395.23 207.112C4394.39 209.554 4393.48 211.836 4392.53 213.959C4391.57 216.082 4390.25 218.099 4388.55 220.01C4386.85 221.921 4384.94 223.247 4382.81 223.991C4381.97 224.203 4380.69 224.309 4378.99 224.309C4371.99 224.309 4367.16 221.337 4364.5 215.392C4364.29 215.498 4363.71 216.029 4362.75 216.984C4361.8 217.94 4360.84 218.736 4359.89 219.373C4358.93 220.01 4357.76 220.806 4356.38 221.761C4355 222.717 4353.46 223.354 4351.76 223.672C4350.07 223.991 4348.26 224.256 4346.35 224.468C4341.68 224.468 4337.54 223.513 4333.93 221.602C4328.41 218.311 4325.65 212.685 4325.65 204.724C4325.65 198.673 4327.51 190.764 4331.22 180.998C4334.94 171.232 4336.8 165.022 4336.8 162.368C4336.8 162.262 4336.8 162.156 4336.8 162.05C4336.8 161.095 4336.8 160.458 4336.8 160.139C4336.8 159.821 4336.58 159.449 4336.16 159.025C4335.74 158.6 4335.15 158.388 4334.41 158.388H4333.77C4331.33 158.388 4329.1 159.396 4327.08 161.413C4325.07 163.43 4323.47 165.606 4322.31 167.941C4321.14 170.277 4320.24 172.506 4319.6 174.629C4318.96 176.752 4318.54 177.92 4318.33 178.132C4318.11 178.345 4317.26 178.451 4315.78 178.451H4313.55C4312.91 177.814 4312.59 177.336 4312.59 177.018Z" fill="#132AF4" stroke="#132AF4" stroke-width="15"/>
<path d="M4404.47 161.413C4403.73 160.67 4403.36 160.139 4403.36 159.821C4403.36 159.396 4403.51 158.547 4403.83 157.273C4404.15 155.999 4404.42 155.256 4404.63 155.044C4404.84 154.513 4405.32 154.248 4406.06 154.248C4406.81 154.248 4409.51 154.195 4414.18 154.088H4422.62L4425.65 141.35C4425.97 140.182 4426.34 138.643 4426.76 136.732C4427.19 134.822 4427.56 133.442 4427.88 132.592C4428.2 131.743 4428.51 130.682 4428.83 129.408C4429.15 128.134 4429.58 127.232 4430.11 126.701C4430.64 126.17 4431.17 125.533 4431.7 124.79C4432.23 124.047 4432.97 123.569 4433.93 123.357C4434.88 123.145 4435.84 123.038 4436.79 123.038C4438.7 123.145 4440.03 123.728 4440.77 124.79C4441.52 125.852 4441.89 126.86 4441.89 127.815C4441.89 128.558 4441.41 131.053 4440.46 135.299C4439.5 139.545 4438.44 143.738 4437.27 147.878L4435.68 153.77C4435.68 153.982 4438.33 154.088 4443.64 154.088H4451.76C4452.5 154.832 4452.88 155.415 4452.88 155.84C4452.88 158.175 4452.19 160.033 4450.81 161.413H4433.77L4428.04 184.501C4423.9 201.486 4421.83 210.615 4421.83 211.889C4421.83 216.348 4423.26 218.577 4426.13 218.577C4429.84 218.577 4433.45 216.772 4436.95 213.163C4440.46 209.554 4443.27 205.095 4445.39 199.788C4445.6 199.151 4445.87 198.779 4446.19 198.673C4446.51 198.567 4447.3 198.461 4448.58 198.354H4449.21C4450.81 198.354 4451.6 198.779 4451.6 199.628C4451.6 199.947 4451.44 200.584 4451.12 201.539C4450.59 203.238 4449.64 205.254 4448.26 207.59C4446.88 209.925 4445.07 212.42 4442.84 215.074C4440.62 217.728 4437.91 219.957 4434.72 221.761C4431.54 223.566 4428.3 224.468 4425.01 224.468C4421.83 224.468 4418.8 223.672 4415.93 222.08C4413.07 220.488 4411 217.728 4409.72 213.8C4409.51 212.951 4409.41 211.518 4409.41 209.501V206.634L4414.98 184.342C4418.69 169.375 4420.61 161.838 4420.71 161.731C4420.71 161.519 4418 161.413 4412.59 161.413H4404.47Z" fill="#132AF4" stroke="#132AF4" stroke-width="15"/>
<path d="M1274 176.968C1274 176.968 1274 175.992 1274 174.041C1274 172.089 1275.05 170.587 1277.15 169.536H1344.49V135.753L1344.72 101.97C1346.22 100.018 1347.65 99.0423 1349 99.0423C1350.95 99.0423 1352.45 100.168 1353.5 102.421V169.536H1420.62C1422.87 170.737 1424 172.239 1424 174.041C1424 175.842 1422.87 177.344 1420.62 178.545H1353.5V245.66C1352.3 247.762 1350.95 248.813 1349.45 248.813H1349H1348.55C1346.75 248.813 1345.39 247.762 1344.49 245.66V178.545H1277.15C1275.05 177.494 1274 175.992 1274 174.041V176.968Z" fill="#132AF4" stroke="#132AF4" stroke-width="15"/>
<path d="M586 308.012C586 308.012 586 307.036 586 305.084C586 303.133 587.051 301.631 589.153 300.58H656.494V266.797L656.719 233.014C658.22 231.062 659.647 230.086 660.998 230.086C662.95 230.086 664.452 231.212 665.503 233.465V300.58H732.618C734.87 301.781 735.996 303.283 735.996 305.084C735.996 306.886 734.87 308.388 732.618 309.589H665.503V376.704C664.301 378.806 662.95 379.857 661.449 379.857H660.998H660.548C658.746 379.857 657.395 378.806 656.494 376.704V309.589H589.153C587.051 308.538 586 307.036 586 305.084V308.012Z" fill="#132AF4" stroke="#132AF4" stroke-width="15"/>
<path d="M1274 785.433C1274 785.433 1274 784.457 1274 782.505C1274 780.553 1275.05 779.052 1277.15 778.001H1408.01C1410.26 779.202 1411.38 780.704 1411.38 782.505C1411.38 784.307 1410.26 785.809 1408.01 787.01H1277.15C1275.05 785.959 1274 784.457 1274 782.505V785.433Z" fill="#132AF4" stroke="#132AF4" stroke-width="15"/>
<path d="M586 771.475C586 771.475 586 770.499 586 768.547C586 766.595 587.051 765.094 589.153 764.043H720.006C722.258 765.244 723.384 766.746 723.384 768.547C723.384 770.349 722.258 771.851 720.006 773.052H589.153C587.051 772.001 586 770.499 586 768.547V771.475Z" fill="#132AF4" stroke="#132AF4" stroke-width="15"/>
</svg>
