<svg width="2045" height="2181" viewBox="0 0 2045 2181" fill="none" xmlns="http://www.w3.org/2000/svg">
<path d="M1053 1712.99V1800.99" stroke="#132AF4" stroke-width="15"/>
<path d="M1053 1172.99V783.5" stroke="#132AF4" stroke-width="15"/>
<path d="M1053 128.5V257.5" stroke="#132AF4" stroke-width="15"/>
<path d="M883 111H1224" stroke="#132AF4" stroke-width="35"/>
<path d="M951 2014.99H1154" stroke="#132AF4" stroke-width="35"/>
<path d="M986 2093.99H1117" stroke="#132AF4" stroke-width="35"/>
<path d="M1009 2162.99H1095" stroke="#132AF4" stroke-width="35"/>
<path d="M1051.69 1997.99V1868.99" stroke="#132AF4" stroke-width="15"/>
<path d="M1052 1799.99C1071.33 1799.99 1087 1815.66 1087 1834.99C1087 1854.32 1071.33 1869.99 1052 1869.99C1032.67 1869.99 1017 1854.32 1017 1834.99C1017 1815.66 1032.67 1799.99 1052 1799.99Z" fill="#132AF4"/>
<path d="M1053 253.494V433" stroke="#132AF4" stroke-width="15"/>
<path d="M825.5 1262.99V1622.99" stroke="#132AF4" stroke-width="35"/>
<path d="M740 1306.99V1578.99" stroke="#132AF4" stroke-width="35"/>
<path d="M1036.43 1532.8L916.321 1493.1C916.178 1493.05 916.106 1493.03 916.063 1493.07C916.02 1493.1 916.034 1493.18 916.062 1493.33L923.402 1532.99L916.062 1572.66C916.034 1572.81 916.02 1572.88 916.063 1572.92C916.106 1572.96 916.178 1572.94 916.321 1572.89L1036.43 1533.18C1036.66 1533.11 1036.78 1533.07 1036.78 1532.99C1036.78 1532.92 1036.66 1532.88 1036.43 1532.8Z" fill="#132AF4"/>
<path d="M923.402 1532.99L916.062 1572.66C916.034 1572.81 916.02 1572.88 916.063 1572.92C916.106 1572.96 916.178 1572.94 916.321 1572.89L1036.43 1533.18C1036.66 1533.11 1036.78 1533.07 1036.78 1532.99C1036.78 1532.92 1036.66 1532.88 1036.43 1532.8L916.321 1493.1C916.178 1493.05 916.106 1493.03 916.063 1493.07C916.02 1493.1 916.034 1493.18 916.062 1493.33L923.402 1532.99ZM923.402 1532.99H842.5" stroke="#132AF4" stroke-width="15"/>
<path d="M1037 1532.99H1053V1712.99" stroke="#132AF4" stroke-width="15"/>
<path d="M843 1352.99H1053V1172.99" stroke="#132AF4" stroke-width="15"/>
<path d="M722.5 1442.99H549" stroke="#132AF4" stroke-width="15"/>
<circle cx="515" cy="1442.99" r="27.5" transform="rotate(-90 515 1442.99)" stroke="#132AF4" stroke-width="15"/>
<path d="M825.5 518V878" stroke="#132AF4" stroke-width="35"/>
<path d="M740 562V834" stroke="#132AF4" stroke-width="35"/>
<path d="M854.574 608.19L974.679 647.894C974.822 647.941 974.894 647.965 974.937 647.927C974.98 647.89 974.966 647.816 974.938 647.668L967.598 608L974.938 568.332C974.966 568.184 974.98 568.11 974.937 568.073C974.894 568.035 974.822 568.059 974.679 568.106L854.574 607.81C854.337 607.889 854.219 607.928 854.219 608C854.219 608.072 854.337 608.111 854.574 608.19Z" fill="#132AF4"/>
<path d="M967.598 608L974.938 568.332C974.966 568.184 974.98 568.11 974.937 568.073C974.894 568.035 974.822 568.059 974.679 568.106L854.574 607.81C854.337 607.889 854.219 607.928 854.219 608C854.219 608.072 854.337 608.111 854.574 608.19L974.679 647.894C974.822 647.941 974.894 647.965 974.937 647.927C974.98 647.89 974.966 647.816 974.938 647.668L967.598 608ZM967.598 608H1048.5" stroke="#132AF4" stroke-width="15"/>
<path d="M841.5 788H1053V968" stroke="#132AF4" stroke-width="15"/>
<path d="M843 608H1053V428" stroke="#132AF4" stroke-width="15"/>
<path d="M722.5 698H519.5V963.5H1049" stroke="#132AF4" stroke-width="15"/>
<path d="M1053.5 1089.99H1504.5" stroke="#132AF4" stroke-width="15"/>
<circle cx="1538.5" cy="1089.99" r="27.5" transform="rotate(90 1538.5 1089.99)" stroke="#132AF4" stroke-width="15"/>
<path d="M1053 1054.99C1072.33 1054.99 1088 1070.66 1088 1089.99C1088 1109.32 1072.33 1124.99 1053 1124.99C1033.67 1124.99 1018 1109.32 1018 1089.99C1018 1070.66 1033.67 1054.99 1053 1054.99Z" fill="#132AF4"/>
<path d="M1054 929C1073.33 929 1089 944.67 1089 964C1089 983.33 1073.33 999 1054 999C1034.67 999 1019 983.33 1019 964C1019 944.67 1034.67 929 1054 929Z" fill="#132AF4"/>
<path d="M1300 16.3168C1300 12.8321 1301.03 10.0601 1303.09 8.00095H1305.7C1312.36 8.47614 1320.67 8.71374 1330.65 8.71374C1349.34 8.71374 1360.35 8.47614 1363.68 8.00095H1366.05C1367 8.95133 1367.48 9.66412 1367.48 10.1393C1367.48 10.6145 1367.32 12.0401 1367 14.416C1366.21 16.792 1365.5 18.2968 1364.87 18.9303H1359.88C1356.39 19.2471 1354.02 19.4055 1352.75 19.4055C1348.15 20.1975 1345.62 21.3855 1345.15 22.9695C1345.15 23.2863 1347.44 43.1651 1352.04 82.606C1356.63 122.047 1359 141.926 1359.16 142.242L1376.51 114.444C1388.07 95.9113 1399.63 77.2205 1411.2 58.3712C1422.76 39.522 1428.7 29.7805 1429.02 29.147C1429.65 28.0382 1429.97 26.8502 1429.97 25.583C1429.97 21.7815 1426.48 19.5639 1419.51 18.9303C1416.66 18.9303 1415.24 18.0592 1415.24 16.3168C1415.24 16.1584 1415.39 15.1288 1415.71 13.2281C1416.19 11.0105 1416.66 9.58492 1417.14 8.95133C1417.61 8.31774 1418.64 8.00095 1420.23 8.00095C1420.54 8.00095 1421.49 8.00095 1423.08 8.00095C1424.66 8.00095 1427.35 8.08015 1431.15 8.23854C1434.96 8.39694 1440.02 8.47614 1446.36 8.47614C1457.29 8.47614 1464.18 8.31774 1467.03 8.00095H1468.69C1469.8 9.10973 1470.36 9.98091 1470.36 10.6145C1470.36 13.3073 1469.65 15.8416 1468.22 18.2176C1467.74 18.6928 1466.4 18.9303 1464.18 18.9303C1462.12 19.0887 1460.22 19.2471 1458.48 19.4055C1456.74 19.5639 1455.07 19.9599 1453.49 20.5935C1451.9 21.2271 1450.64 21.7815 1449.69 22.2567C1448.74 22.7319 1447.79 23.3655 1446.84 24.1575C1445.89 24.9494 1445.09 25.5038 1444.46 25.8206C1443.83 26.1374 1443.19 26.8502 1442.56 27.959C1441.93 29.0678 1441.37 29.6222 1440.9 29.6222L1395.04 103.277C1366.53 149.37 1351.8 172.972 1350.85 174.08C1350.37 174.397 1349.82 174.793 1349.18 175.268L1344.91 175.506H1343.24C1340.39 175.506 1338.97 174.951 1338.97 173.843C1338.49 172.892 1335.4 147.549 1329.7 97.8121C1323.68 47.4418 1320.59 22.0191 1320.44 21.5439C1319.64 19.8015 1314.73 18.9303 1305.7 18.9303H1301.67C1300.56 18.1384 1300 17.2672 1300 16.3168Z" fill="#132AF4" stroke="#132AF4" stroke-width="15"/>
<path d="M1482.22 100.427C1482.22 99.6435 1479.02 99.1396 1472.64 98.9156C1470.07 98.9156 1468.39 98.8596 1467.6 98.7476C1466.82 98.6356 1466.43 98.1317 1466.43 97.2358C1466.43 96.3399 1466.65 95.22 1467.1 93.8762C1467.55 92.5324 1467.94 91.6925 1468.27 91.3565C1468.5 91.2445 1479.64 91.1885 1501.7 91.1885C1520.4 91.3005 1530.87 91.3565 1533.11 91.3565C1535.35 91.3565 1537.59 91.6925 1539.83 92.3644C1547.9 94.2682 1554.73 98.6916 1560.33 105.635C1565.93 112.578 1568.78 121.873 1568.89 133.52C1568.89 150.989 1562.9 166.668 1550.92 180.554C1538.94 194.44 1524.83 202.727 1508.59 205.415L1506.24 205.751L1473.65 205.919H1455H1446.1C1443.41 205.919 1441.68 205.807 1440.89 205.583C1440.11 205.359 1439.66 204.855 1439.55 204.071C1439.55 203.847 1439.72 203.063 1440.05 201.719C1440.5 199.928 1440.95 198.92 1441.4 198.696C1441.84 198.472 1443.13 198.304 1445.26 198.192C1448.28 198.192 1451.64 198.024 1455.34 197.688C1456.91 197.352 1457.97 196.68 1458.53 195.672C1458.87 195.224 1462.9 179.658 1470.63 148.974C1478.35 118.289 1482.22 102.107 1482.22 100.427ZM1552.1 127.136C1552.1 122.881 1551.48 119.073 1550.25 115.714C1549.02 112.354 1547.56 109.722 1545.88 107.819C1544.2 105.915 1542.13 104.291 1539.66 102.947C1537.2 101.603 1535.02 100.707 1533.11 100.259C1531.21 99.8115 1529.25 99.4195 1527.23 99.0836C1527.01 99.0836 1526.23 99.0836 1524.88 99.0836C1523.54 99.0836 1521.92 99.0836 1520.01 99.0836C1518.11 99.0836 1516.26 99.0276 1514.47 98.9156H1507.24C1502.32 98.9156 1499.52 99.4755 1498.85 100.595C1498.62 101.043 1494.53 117.169 1486.58 148.974C1478.63 180.778 1474.66 196.848 1474.66 197.184C1474.66 197.632 1475.27 197.856 1476.5 197.856C1477.74 197.856 1482.05 197.912 1489.44 198.024C1490 198.024 1491.06 198.024 1492.63 198.024C1494.2 198.024 1495.54 198.08 1496.66 198.192C1510.77 198.192 1522.42 193.6 1531.6 184.417C1535.63 180.386 1538.94 175.683 1541.51 170.307C1544.09 164.932 1546.5 157.821 1548.74 148.974C1550.98 140.127 1552.1 132.848 1552.1 127.136Z" fill="#132AF4" stroke="#132AF4" stroke-width="15"/>
<path d="M1621.3 100.427C1621.3 99.6435 1618.11 99.1396 1611.73 98.9156C1609.15 98.9156 1607.47 98.8596 1606.69 98.7476C1605.9 98.6356 1605.51 98.1317 1605.51 97.2358C1605.51 96.3399 1605.74 95.22 1606.18 93.8762C1606.63 92.5324 1607.02 91.6925 1607.36 91.3565C1607.58 91.2445 1618.73 91.1885 1640.79 91.1885C1659.49 91.3005 1669.96 91.3565 1672.2 91.3565C1674.44 91.3565 1676.68 91.6925 1678.92 92.3644C1686.98 94.2682 1693.81 98.6916 1699.41 105.635C1705.01 112.578 1707.87 121.873 1707.98 133.52C1707.98 150.989 1701.99 166.668 1690.01 180.554C1678.02 194.44 1663.91 202.727 1647.67 205.415L1645.32 205.751L1612.73 205.919H1594.09H1585.19C1582.5 205.919 1580.76 205.807 1579.98 205.583C1579.19 205.359 1578.75 204.855 1578.63 204.071C1578.63 203.847 1578.8 203.063 1579.14 201.719C1579.59 199.928 1580.03 198.92 1580.48 198.696C1580.93 198.472 1582.22 198.304 1584.35 198.192C1587.37 198.192 1590.73 198.024 1594.42 197.688C1595.99 197.352 1597.06 196.68 1597.62 195.672C1597.95 195.224 1601.98 179.658 1609.71 148.974C1617.44 118.289 1621.3 102.107 1621.3 100.427ZM1691.18 127.136C1691.18 122.881 1690.57 119.073 1689.33 115.714C1688.1 112.354 1686.65 109.722 1684.97 107.819C1683.29 105.915 1681.21 104.291 1678.75 102.947C1676.29 101.603 1674.1 100.707 1672.2 100.259C1670.3 99.8115 1668.34 99.4195 1666.32 99.0836C1666.1 99.0836 1665.31 99.0836 1663.97 99.0836C1662.62 99.0836 1661 99.0836 1659.1 99.0836C1657.19 99.0836 1655.35 99.0276 1653.55 98.9156H1646.33C1641.4 98.9156 1638.6 99.4755 1637.93 100.595C1637.71 101.043 1633.62 117.169 1625.67 148.974C1617.72 180.778 1613.74 196.848 1613.74 197.184C1613.74 197.632 1614.36 197.856 1615.59 197.856C1616.82 197.856 1621.13 197.912 1628.52 198.024C1629.08 198.024 1630.15 198.024 1631.72 198.024C1633.28 198.024 1634.63 198.08 1635.75 198.192C1649.86 198.192 1661.5 193.6 1670.69 184.417C1674.72 180.386 1678.02 175.683 1680.6 170.307C1683.17 164.932 1685.58 157.821 1687.82 148.974C1690.06 140.127 1691.18 132.848 1691.18 127.136Z" fill="#132AF4" stroke="#132AF4" stroke-width="15"/>
<path d="M1253.35 1357.07C1253.35 1356.12 1248.84 1355.48 1239.81 1355.17C1236.01 1355.17 1233.55 1355.09 1232.44 1354.93C1231.33 1354.77 1230.78 1353.98 1230.78 1352.55C1230.78 1352.39 1230.94 1351.52 1231.25 1349.94C1231.41 1349.46 1231.57 1348.91 1231.73 1348.27C1231.89 1347.64 1231.97 1347.25 1231.97 1347.09C1231.97 1346.93 1232.13 1346.53 1232.44 1345.9C1232.76 1345.27 1232.92 1345.03 1232.92 1345.19C1232.92 1345.34 1233.23 1345.19 1233.87 1344.71C1234.5 1344.24 1234.9 1344.08 1235.06 1344.24C1235.21 1344.39 1235.85 1344.39 1236.96 1344.24C1238.07 1344.08 1239.02 1344 1239.81 1344C1240.76 1344 1243.13 1344 1246.94 1344C1250.74 1344 1254.3 1344.08 1257.63 1344.24C1270.14 1344.24 1277.35 1344.24 1279.25 1344.24C1281.15 1344.24 1282.42 1344.63 1283.05 1345.42C1283.21 1346.06 1286.14 1368.39 1291.84 1412.43L1300.4 1478.71L1305.86 1469.92C1309.66 1464.22 1314.73 1456.3 1321.07 1446.16C1327.4 1436.03 1334.37 1424.94 1341.97 1412.9C1369.69 1368.71 1383.71 1346.45 1384.03 1346.14C1384.19 1345.98 1384.42 1345.74 1384.74 1345.42C1385.06 1345.11 1385.38 1344.87 1385.69 1344.71L1387.12 1344.24H1409.93C1412.62 1344.24 1415.79 1344.24 1419.43 1344.24C1423.07 1344.24 1425.37 1344.16 1426.32 1344C1431.71 1344 1434.4 1344.87 1434.4 1346.61C1434.4 1347.4 1434.16 1348.75 1433.69 1350.65C1433.21 1352.55 1432.97 1353.58 1432.97 1353.74C1432.34 1354.69 1429.41 1355.17 1424.18 1355.17C1417.85 1355.32 1413.81 1355.56 1412.07 1355.88C1410.32 1356.19 1408.9 1357.07 1407.79 1358.49C1407.31 1359.28 1401.61 1381.7 1390.68 1425.73C1379.75 1469.77 1374.21 1492.02 1374.05 1492.5C1374.05 1493.13 1374.13 1493.53 1374.29 1493.68C1374.45 1493.84 1375 1494.16 1375.95 1494.63C1376.9 1495.11 1378.25 1495.27 1379.99 1495.11C1381.73 1494.95 1384.35 1495.11 1387.83 1495.58H1395.2C1396.15 1497.01 1396.62 1497.88 1396.62 1498.2C1396.62 1500.73 1396.07 1503.11 1394.96 1505.33C1394.17 1506.12 1392.9 1506.51 1391.16 1506.51C1390.36 1506.51 1387.12 1506.43 1381.42 1506.28C1375.71 1506.12 1368.43 1506.04 1359.56 1506.04C1349.89 1506.04 1342.61 1506.04 1337.7 1506.04C1332.79 1506.04 1330.02 1506.12 1329.38 1506.28C1326.69 1506.28 1325.34 1505.48 1325.34 1503.9C1325.34 1503.58 1325.5 1502.47 1325.82 1500.57C1326.45 1498.04 1327.09 1496.61 1327.72 1496.3C1328.35 1495.98 1330.17 1495.74 1333.18 1495.58C1337.46 1495.58 1342.21 1495.35 1347.44 1494.87C1349.66 1494.4 1351.16 1493.45 1351.95 1492.02C1352.27 1491.39 1355.28 1479.82 1360.98 1457.33C1366.68 1434.84 1372.31 1412.43 1377.85 1390.09C1383.4 1367.76 1386.17 1356.59 1386.17 1356.59L1340.07 1430.01C1309.03 1479.43 1293.11 1504.53 1292.32 1505.33C1292 1505.48 1291.68 1505.64 1291.37 1505.8C1290.57 1506.28 1289.31 1506.51 1287.57 1506.51C1285.19 1506.51 1283.76 1505.96 1283.29 1504.85C1282.97 1504.22 1279.72 1479.67 1273.55 1431.2L1264.28 1358.25L1248.12 1422.4C1237.51 1464.54 1232.21 1486.32 1232.21 1487.74C1233.16 1492.97 1238.86 1495.58 1249.31 1495.58H1251.69C1252.64 1496.38 1253.19 1497.09 1253.35 1497.72C1253.51 1498.36 1253.27 1499.78 1252.64 1502C1252 1504.53 1251.37 1505.96 1250.74 1506.28C1250.1 1506.43 1249.23 1506.51 1248.12 1506.51C1247.81 1506.51 1246.86 1506.51 1245.27 1506.51C1243.69 1506.51 1241 1506.43 1237.19 1506.28C1233.39 1506.12 1228.32 1506.04 1221.99 1506.04C1217.24 1506.04 1212.33 1506.12 1207.26 1506.28C1202.19 1506.43 1199.26 1506.51 1198.47 1506.51C1196.09 1506.51 1194.59 1506.36 1193.95 1506.04C1193.32 1505.72 1193 1505.01 1193 1503.9C1193 1503.58 1193.24 1502.47 1193.71 1500.57C1194.19 1498.67 1194.59 1497.49 1194.9 1497.01C1195.22 1496.06 1196.96 1495.58 1200.13 1495.58C1211.22 1495.58 1218.27 1492.42 1221.28 1486.08C1221.91 1485.13 1227.37 1463.9 1237.67 1422.4C1247.97 1380.9 1253.19 1359.13 1253.35 1357.07Z" fill="#132AF4" stroke="#132AF4" stroke-width="15"/>
<path d="M1458.77 1445.06L1456.58 1445.9C1455.02 1446.46 1452.78 1447.02 1449.87 1447.58C1446.95 1448.14 1443.71 1448.53 1440.12 1448.76H1436.93V1441.03H1440.12C1445.39 1440.8 1450.26 1439.96 1454.74 1438.51C1459.22 1437.05 1462.35 1435.71 1464.14 1434.48C1465.94 1433.25 1467.5 1432.01 1468.85 1430.78C1469.07 1430.45 1469.74 1430.28 1470.86 1430.28C1471.87 1430.28 1472.82 1430.61 1473.72 1431.29V1481.51L1473.89 1531.91C1474.67 1532.69 1475.34 1533.19 1475.9 1533.42C1476.46 1533.64 1477.81 1533.87 1479.93 1534.09C1482.06 1534.31 1485.53 1534.43 1490.35 1534.43H1494.72V1542.15H1492.87C1490.52 1541.82 1481.61 1541.65 1466.16 1541.65C1450.93 1541.65 1442.14 1541.82 1439.79 1542.15H1437.77V1534.43H1442.14C1444.6 1534.43 1446.73 1534.43 1448.52 1534.43C1450.31 1534.43 1451.71 1534.37 1452.72 1534.26C1453.73 1534.15 1454.62 1533.98 1455.41 1533.75C1456.19 1533.53 1456.64 1533.42 1456.75 1533.42C1456.86 1533.42 1457.2 1533.14 1457.76 1532.58C1458.32 1532.02 1458.66 1531.79 1458.77 1531.91V1445.06Z" fill="#132AF4" stroke="#132AF4" stroke-width="15"/>
<path d="M1670 998.313C1670 994.828 1671.03 992.056 1673.09 989.997H1675.7C1682.36 990.472 1690.67 990.71 1700.65 990.71C1719.34 990.71 1730.35 990.472 1733.68 989.997H1736.05C1737 990.947 1737.48 991.66 1737.48 992.135C1737.48 992.611 1737.32 994.036 1737 996.412C1736.21 998.788 1735.5 1000.29 1734.87 1000.93H1729.88C1726.39 1001.24 1724.02 1001.4 1722.75 1001.4C1718.15 1002.19 1715.62 1003.38 1715.15 1004.97C1715.15 1005.28 1717.44 1025.16 1722.04 1064.6C1726.63 1104.04 1729 1123.92 1729.16 1124.24L1746.51 1096.44C1758.07 1077.91 1769.63 1059.22 1781.2 1040.37C1792.76 1021.52 1798.7 1011.78 1799.02 1011.14C1799.65 1010.03 1799.97 1008.85 1799.97 1007.58C1799.97 1003.78 1796.48 1001.56 1789.51 1000.93C1786.66 1000.93 1785.24 1000.06 1785.24 998.313C1785.24 998.154 1785.39 997.125 1785.71 995.224C1786.19 993.007 1786.66 991.581 1787.14 990.947C1787.61 990.314 1788.64 989.997 1790.23 989.997C1790.54 989.997 1791.49 989.997 1793.08 989.997C1794.66 989.997 1797.35 990.076 1801.15 990.235C1804.96 990.393 1810.02 990.472 1816.36 990.472C1827.29 990.472 1834.18 990.314 1837.03 989.997H1838.69C1839.8 991.106 1840.36 991.977 1840.36 992.611C1840.36 995.303 1839.65 997.838 1838.22 1000.21C1837.74 1000.69 1836.4 1000.93 1834.18 1000.93C1832.12 1001.08 1830.22 1001.24 1828.48 1001.4C1826.74 1001.56 1825.07 1001.96 1823.49 1002.59C1821.9 1003.22 1820.64 1003.78 1819.69 1004.25C1818.74 1004.73 1817.79 1005.36 1816.84 1006.15C1815.89 1006.95 1815.09 1007.5 1814.46 1007.82C1813.83 1008.13 1813.19 1008.85 1812.56 1009.96C1811.93 1011.06 1811.37 1011.62 1810.9 1011.62L1765.04 1085.27C1736.53 1131.37 1721.8 1154.97 1720.85 1156.08C1720.37 1156.39 1719.82 1156.79 1719.18 1157.26L1714.91 1157.5H1713.24C1710.39 1157.5 1708.97 1156.95 1708.97 1155.84C1708.49 1154.89 1705.4 1129.54 1699.7 1079.81C1693.68 1029.44 1690.59 1004.02 1690.44 1003.54C1689.64 1001.8 1684.73 1000.93 1675.7 1000.93H1671.67C1670.56 1000.13 1670 999.263 1670 998.313Z" fill="#132AF4" stroke="#132AF4" stroke-width="15"/>
<path d="M1837.77 1189.76C1829.37 1189.76 1822.59 1187.02 1817.44 1181.53C1812.29 1176.04 1809.71 1169.43 1809.71 1161.71C1809.71 1154.43 1811.39 1147.54 1814.75 1141.04C1818.11 1134.55 1822.71 1128.89 1828.53 1124.08C1837.04 1117.25 1845.72 1113.83 1854.57 1113.83C1858.15 1113.83 1860.39 1113.89 1861.28 1114C1862.74 1114.34 1864.2 1114.73 1865.65 1115.18C1867.11 1115.62 1869.07 1116.52 1871.53 1117.86C1874 1119.21 1876.01 1120.89 1877.58 1122.9C1879.15 1124.92 1880.6 1127.66 1881.95 1131.13C1883.29 1134.61 1883.96 1138.52 1883.96 1142.89C1883.96 1154.87 1879.15 1165.68 1869.52 1175.31C1859.88 1184.94 1849.3 1189.76 1837.77 1189.76ZM1824.33 1167.75C1824.33 1173.35 1825.78 1177.38 1828.7 1179.85C1831.61 1182.31 1834.91 1183.54 1838.61 1183.54C1843.53 1183.54 1848.18 1181.75 1852.55 1178.17C1856.92 1174.58 1860.39 1169.88 1862.96 1164.06C1863.97 1161.71 1865.26 1157.56 1866.83 1151.63C1868.4 1145.69 1869.18 1140.54 1869.18 1136.17C1869.18 1131.25 1868.17 1127.49 1866.16 1124.92C1863.47 1121.56 1859.88 1119.88 1855.41 1119.88C1848.35 1119.88 1842.14 1123.13 1836.76 1129.62C1832.62 1134.55 1829.54 1141.1 1827.52 1149.28C1825.5 1157.45 1824.44 1163.61 1824.33 1167.75Z" fill="#132AF4" stroke="#132AF4" stroke-width="15"/>
<path d="M1889 1139.7C1889 1138.8 1889.51 1137.07 1890.51 1134.49C1891.52 1131.92 1892.92 1129.01 1894.71 1125.76C1896.51 1122.51 1898.97 1119.71 1902.11 1117.36C1905.24 1115.01 1908.54 1113.78 1912.02 1113.66C1917.17 1113.66 1921.03 1115.06 1923.61 1117.86C1926.18 1120.66 1927.47 1123.97 1927.47 1127.77C1927.47 1129.79 1925.57 1136.06 1921.76 1146.59C1917.95 1157.11 1916.05 1165.01 1916.05 1170.27C1916.05 1175.09 1916.83 1178.45 1918.4 1180.35C1919.97 1182.26 1922.32 1183.26 1925.45 1183.38C1928.59 1183.49 1931.56 1182.54 1934.36 1180.52C1937.16 1178.5 1939.23 1176.6 1940.57 1174.81L1942.42 1171.95C1942.64 1171.5 1944.77 1162.99 1948.8 1146.42C1952.16 1132.98 1954.18 1125.14 1954.85 1122.9C1955.52 1120.66 1956.31 1119.04 1957.2 1118.03C1959.11 1116.35 1961.12 1115.51 1963.25 1115.51C1965.15 1115.51 1966.55 1116.07 1967.45 1117.19C1968.35 1118.31 1968.79 1119.38 1968.79 1120.38L1956.03 1173.8C1955.92 1174.36 1955.86 1175.26 1955.86 1176.49C1955.86 1179.29 1956.25 1181.14 1957.03 1182.03C1957.82 1182.93 1958.99 1183.43 1960.56 1183.54C1963.03 1183.21 1964.99 1181.47 1966.44 1178.34C1967.9 1175.2 1969.58 1170.27 1971.48 1163.55C1971.71 1162.66 1972.83 1162.21 1974.84 1162.21C1976.97 1162.21 1978.03 1162.71 1978.03 1163.72C1977.92 1164.28 1977.81 1165.07 1977.7 1166.07C1977.58 1167.08 1977.08 1168.87 1976.18 1171.45C1975.29 1174.02 1974.34 1176.43 1973.33 1178.67C1972.32 1180.91 1970.92 1183.04 1969.13 1185.06C1967.34 1187.07 1965.32 1188.47 1963.08 1189.25C1962.19 1189.48 1960.84 1189.59 1959.05 1189.59C1951.66 1189.59 1946.56 1186.46 1943.76 1180.18C1943.54 1180.3 1942.92 1180.86 1941.92 1181.86C1940.91 1182.87 1939.9 1183.71 1938.89 1184.38C1937.89 1185.06 1936.65 1185.9 1935.2 1186.9C1933.74 1187.91 1932.12 1188.58 1930.33 1188.92C1928.53 1189.25 1926.63 1189.53 1924.61 1189.76C1919.69 1189.76 1915.32 1188.75 1911.51 1186.74C1905.69 1183.26 1902.78 1177.33 1902.78 1168.93C1902.78 1162.55 1904.74 1154.2 1908.66 1143.9C1912.58 1133.6 1914.54 1127.05 1914.54 1124.25C1914.54 1124.13 1914.54 1124.02 1914.54 1123.91C1914.54 1122.9 1914.54 1122.23 1914.54 1121.89C1914.54 1121.56 1914.31 1121.17 1913.86 1120.72C1913.42 1120.27 1912.8 1120.05 1912.02 1120.05H1911.34C1908.77 1120.05 1906.42 1121.11 1904.29 1123.24C1902.16 1125.37 1900.48 1127.66 1899.25 1130.13C1898.02 1132.59 1897.07 1134.94 1896.39 1137.18C1895.72 1139.42 1895.27 1140.65 1895.05 1140.88C1894.83 1141.1 1893.93 1141.21 1892.36 1141.21H1890.01C1889.34 1140.54 1889 1140.04 1889 1139.7Z" fill="#132AF4" stroke="#132AF4" stroke-width="15"/>
<path d="M1985.93 1123.24C1985.15 1122.45 1984.76 1121.89 1984.76 1121.56C1984.76 1121.11 1984.93 1120.22 1985.26 1118.87C1985.6 1117.53 1985.88 1116.74 1986.1 1116.52C1986.33 1115.96 1986.83 1115.68 1987.61 1115.68C1988.4 1115.68 1991.25 1115.62 1996.18 1115.51H2005.08L2008.28 1102.07C2008.61 1100.84 2009 1099.22 2009.45 1097.2C2009.9 1095.19 2010.29 1093.73 2010.63 1092.83C2010.96 1091.94 2011.3 1090.82 2011.64 1089.47C2011.97 1088.13 2012.42 1087.18 2012.98 1086.62C2013.54 1086.06 2014.1 1085.39 2014.66 1084.6C2015.22 1083.82 2016 1083.32 2017.01 1083.09C2018.02 1082.87 2019.03 1082.76 2020.03 1082.76C2022.05 1082.87 2023.45 1083.48 2024.23 1084.6C2025.02 1085.72 2025.41 1086.79 2025.41 1087.79C2025.41 1088.58 2024.91 1091.21 2023.9 1095.69C2022.89 1100.17 2021.77 1104.59 2020.54 1108.96L2018.86 1115.18C2018.86 1115.4 2021.66 1115.51 2027.26 1115.51H2035.82C2036.61 1116.3 2037 1116.91 2037 1117.36C2037 1119.82 2036.27 1121.78 2034.82 1123.24H2016.84L2010.8 1147.6C2006.43 1165.51 2004.24 1175.14 2004.24 1176.49C2004.24 1181.19 2005.76 1183.54 2008.78 1183.54C2012.7 1183.54 2016.51 1181.64 2020.2 1177.83C2023.9 1174.02 2026.87 1169.32 2029.11 1163.72C2029.33 1163.05 2029.61 1162.66 2029.95 1162.55C2030.28 1162.43 2031.12 1162.32 2032.47 1162.21H2033.14C2034.82 1162.21 2035.66 1162.66 2035.66 1163.55C2035.66 1163.89 2035.49 1164.56 2035.15 1165.57C2034.59 1167.36 2033.59 1169.49 2032.13 1171.95C2030.67 1174.42 2028.77 1177.05 2026.42 1179.85C2024.07 1182.65 2021.21 1185 2017.85 1186.9C2014.49 1188.81 2011.08 1189.76 2007.6 1189.76C2004.24 1189.76 2001.05 1188.92 1998.03 1187.24C1995.01 1185.56 1992.82 1182.65 1991.48 1178.5C1991.25 1177.61 1991.14 1176.1 1991.14 1173.97V1170.95L1997.02 1147.43C2000.94 1131.64 2002.96 1123.69 2003.07 1123.57C2003.07 1123.35 2000.21 1123.24 1994.5 1123.24H1985.93Z" fill="#132AF4" stroke="#132AF4" stroke-width="15"/>
<path d="M8 1351.31C8 1347.83 9.02958 1345.05 11.0887 1343H13.7023C20.355 1343.47 28.6708 1343.71 38.6498 1343.71C57.3407 1343.71 68.3493 1343.47 71.6756 1343H74.0516C75.002 1343.95 75.4771 1344.66 75.4771 1345.13C75.4771 1345.61 75.3187 1347.03 75.002 1349.41C74.21 1351.79 73.4972 1353.29 72.8636 1353.92H67.8741C64.3894 1354.24 62.0134 1354.4 60.7462 1354.4C56.1527 1355.19 53.6184 1356.38 53.1432 1357.96C53.1432 1358.28 55.4399 1378.16 60.0334 1417.6C64.6269 1457.04 67.0029 1476.92 67.1613 1477.24L84.5058 1449.44C96.0688 1430.91 107.632 1412.21 119.195 1393.37C130.758 1374.52 136.698 1364.77 137.014 1364.14C137.648 1363.03 137.965 1361.84 137.965 1360.58C137.965 1356.78 134.48 1354.56 127.511 1353.92C124.659 1353.92 123.234 1353.05 123.234 1351.31C123.234 1351.15 123.392 1350.12 123.709 1348.22C124.184 1346 124.659 1344.58 125.135 1343.95C125.61 1343.31 126.639 1343 128.223 1343C128.54 1343 129.491 1343 131.075 1343C132.658 1343 135.351 1343.07 139.153 1343.23C142.954 1343.39 148.023 1343.47 154.359 1343.47C165.288 1343.47 172.179 1343.31 175.03 1343H176.693C177.802 1344.1 178.356 1344.98 178.356 1345.61C178.356 1348.3 177.643 1350.84 176.218 1353.21C175.742 1353.69 174.396 1353.92 172.179 1353.92C170.119 1354.08 168.219 1354.24 166.476 1354.4C164.734 1354.56 163.071 1354.95 161.487 1355.59C159.903 1356.22 158.636 1356.78 157.685 1357.25C156.735 1357.73 155.784 1358.36 154.834 1359.15C153.884 1359.94 153.092 1360.5 152.458 1360.81C151.825 1361.13 151.191 1361.84 150.557 1362.95C149.924 1364.06 149.369 1364.62 148.894 1364.62L103.038 1438.27C74.5268 1484.36 59.7958 1507.97 58.8455 1509.07C58.3703 1509.39 57.8159 1509.79 57.1823 1510.26L52.9056 1510.5H51.2424C48.3912 1510.5 46.9657 1509.95 46.9657 1508.84C46.4905 1507.89 43.4017 1482.54 37.6994 1432.81C31.6804 1382.44 28.5916 1357.01 28.4332 1356.54C27.6412 1354.8 22.7309 1353.92 13.7023 1353.92H9.66317C8.55439 1353.13 8 1352.26 8 1351.31Z" fill="#132AF4" stroke="#132AF4" stroke-width="15"/>
<path d="M172.928 1440.12C172.928 1437.43 173.992 1435.08 176.119 1433.07C178.247 1431.05 180.711 1429.99 183.51 1429.88C185.526 1429.88 187.206 1430.55 188.55 1431.89C189.894 1433.23 190.622 1434.91 190.734 1436.93C190.734 1439.51 189.614 1441.86 187.374 1443.99C185.134 1446.11 182.67 1447.23 179.983 1447.35C178.303 1447.35 176.735 1446.79 175.279 1445.67C173.824 1444.55 173.04 1442.7 172.928 1440.12ZM145.547 1492.7C145.547 1491.8 146.051 1490.07 147.059 1487.49C148.067 1484.92 149.41 1482.06 151.09 1478.93C152.77 1475.79 155.234 1472.93 158.481 1470.36C161.729 1467.78 165.089 1466.55 168.56 1466.66C172.928 1466.66 176.567 1467.95 179.479 1470.53C182.391 1473.1 183.902 1476.57 184.014 1480.94C184.014 1482.84 183.23 1485.98 181.663 1490.35C180.095 1494.72 177.855 1500.59 174.943 1507.99C172.032 1515.38 169.68 1521.7 167.888 1526.97C167.328 1529.43 167.048 1531.22 167.048 1532.34C167.048 1535.14 168 1536.54 169.904 1536.54C170.912 1536.54 171.976 1536.37 173.096 1536.04C174.215 1535.7 175.503 1534.92 176.959 1533.69C178.415 1532.46 179.927 1530.5 181.495 1527.81C183.062 1525.12 184.462 1521.82 185.694 1517.9C186.03 1516.55 186.31 1515.77 186.534 1515.55C186.758 1515.32 187.71 1515.21 189.39 1515.21C191.629 1515.21 192.749 1515.77 192.749 1516.89C192.749 1517.78 192.245 1519.52 191.237 1522.1C190.23 1524.67 188.83 1527.53 187.038 1530.66C185.246 1533.8 182.726 1536.6 179.479 1539.06C176.231 1541.53 172.76 1542.76 169.064 1542.76C165.481 1542.76 162.177 1541.58 159.153 1539.23C156.13 1536.88 154.562 1533.29 154.45 1528.48C154.45 1526.58 154.73 1524.78 155.29 1523.1C155.85 1521.42 158.257 1515.04 162.513 1503.95C166.768 1492.64 169.232 1485.87 169.904 1483.63C170.576 1481.39 170.968 1479.21 171.08 1477.08C171.08 1474.39 170.128 1473.05 168.224 1473.05H167.888C164.529 1473.05 161.449 1474.89 158.649 1478.59C155.85 1482.28 153.722 1486.99 152.266 1492.7C152.154 1492.81 152.042 1492.98 151.93 1493.2C151.818 1493.43 151.762 1493.6 151.762 1493.71C151.762 1493.82 151.65 1493.93 151.426 1494.04C151.202 1494.16 151.034 1494.21 150.922 1494.21C150.81 1494.21 150.586 1494.21 150.25 1494.21C149.914 1494.21 149.466 1494.21 148.906 1494.21H146.555C145.883 1493.54 145.547 1493.04 145.547 1492.7Z" fill="#132AF4" stroke="#132AF4" stroke-width="15"/>
<path d="M203.497 1492.7C203.609 1492.03 203.777 1491.13 204.001 1490.01C204.225 1488.89 204.897 1486.76 206.017 1483.63C207.137 1480.49 208.257 1477.86 209.376 1475.73C210.496 1473.61 212.344 1471.53 214.92 1469.52C217.495 1467.5 220.071 1466.55 222.647 1466.66C226.678 1466.66 230.038 1467.67 232.726 1469.69C235.413 1471.7 237.093 1473.61 237.765 1475.4C238.437 1477.19 238.773 1478.37 238.773 1478.93C238.773 1479.15 238.829 1479.26 238.941 1479.26L240.789 1477.41C247.62 1470.25 255.403 1466.66 264.138 1466.66C270.185 1466.66 275.057 1468.17 278.752 1471.2C282.448 1474.22 284.352 1478.65 284.463 1484.47C284.575 1490.29 282.448 1499.08 278.08 1510.84C273.713 1522.6 271.585 1529.71 271.697 1532.18C271.697 1535.09 272.649 1536.54 274.553 1536.54C275.225 1536.54 275.729 1536.49 276.064 1536.37C279.312 1535.81 282.224 1533.69 284.799 1529.99C287.375 1526.3 289.335 1521.82 290.679 1516.55C290.903 1515.66 292.023 1515.21 294.038 1515.21C296.278 1515.21 297.398 1515.66 297.398 1516.55C297.398 1516.66 297.174 1517.5 296.726 1519.07C295.83 1522.32 294.598 1525.51 293.03 1528.65C291.463 1531.78 288.887 1534.92 285.303 1538.05C281.72 1541.19 277.856 1542.7 273.713 1542.59C268.449 1542.59 264.642 1541.08 262.29 1538.05C259.938 1535.03 258.763 1531.9 258.763 1528.65C258.763 1526.52 260.778 1519.8 264.81 1508.49C268.841 1497.18 270.913 1488.67 271.025 1482.96C271.025 1476.35 268.561 1473.05 263.634 1473.05H262.794C253.163 1473.05 245.044 1478.7 238.437 1490.01L237.261 1492.03L231.718 1514.54C228.022 1529.21 225.894 1537.1 225.334 1538.22C223.879 1541.25 221.471 1542.76 218.111 1542.76C216.656 1542.76 215.48 1542.42 214.584 1541.75C213.688 1541.08 213.072 1540.41 212.736 1539.73C212.4 1539.06 212.288 1538.5 212.4 1538.05C212.4 1536.6 214.528 1527.47 218.783 1510.67C223.039 1493.88 225.278 1484.75 225.502 1483.29C225.614 1482.73 225.67 1481.45 225.67 1479.43C225.67 1475.06 224.327 1472.88 221.639 1472.88C217.383 1472.88 213.856 1478.48 211.056 1489.68C210.384 1491.92 210.048 1493.09 210.048 1493.2C209.824 1493.88 208.76 1494.21 206.857 1494.21H204.505C203.833 1493.54 203.497 1493.04 203.497 1492.7Z" fill="#132AF4" stroke="#132AF4" stroke-width="15"/>
<path d="M1247.91 612.069C1247.91 611.119 1243.35 610.485 1234.24 610.168C1230.41 610.168 1227.93 610.089 1226.81 609.931C1225.69 609.772 1225.13 608.98 1225.13 607.555C1225.13 607.397 1225.29 606.525 1225.61 604.942C1225.77 604.466 1225.93 603.912 1226.09 603.278C1226.25 602.645 1226.33 602.249 1226.33 602.09C1226.33 601.932 1226.49 601.536 1226.81 600.903C1227.13 600.269 1227.29 600.031 1227.29 600.19C1227.29 600.348 1227.61 600.19 1228.25 599.715C1228.89 599.239 1229.29 599.081 1229.45 599.239C1229.61 599.398 1230.25 599.398 1231.36 599.239C1232.48 599.081 1233.44 599.002 1234.24 599.002C1235.2 599.002 1237.6 599.002 1241.44 599.002C1245.27 599.002 1248.87 599.081 1252.23 599.239C1264.86 599.239 1272.13 599.239 1274.05 599.239C1275.97 599.239 1277.25 599.635 1277.89 600.427C1278.05 601.061 1281 623.394 1286.76 667.427L1295.39 733.713L1300.91 724.922C1304.75 719.22 1309.86 711.301 1316.26 701.164C1322.65 691.027 1329.69 679.94 1337.36 667.902C1365.34 623.711 1379.49 601.457 1379.81 601.14C1379.97 600.982 1380.21 600.744 1380.53 600.427C1380.84 600.111 1381.16 599.873 1381.48 599.715L1382.92 599.239H1405.94C1408.66 599.239 1411.86 599.239 1415.54 599.239C1419.21 599.239 1421.53 599.16 1422.49 599.002C1427.93 599.002 1430.65 599.873 1430.65 601.615C1430.65 602.407 1430.41 603.754 1429.93 605.654C1429.45 607.555 1429.21 608.585 1429.21 608.743C1428.57 609.693 1425.61 610.168 1420.33 610.168C1413.94 610.327 1409.86 610.564 1408.1 610.881C1406.34 611.198 1404.91 612.069 1403.79 613.495C1403.31 614.287 1397.55 636.699 1386.52 680.731C1375.49 724.764 1369.89 747.018 1369.73 747.493C1369.73 748.127 1369.81 748.523 1369.97 748.681C1370.13 748.839 1370.69 749.156 1371.65 749.631C1372.61 750.107 1373.97 750.265 1375.73 750.107C1377.49 749.948 1380.13 750.107 1383.64 750.582H1391.08C1392.04 752.007 1392.52 752.878 1392.52 753.195C1392.52 755.729 1391.96 758.105 1390.84 760.323C1390.04 761.115 1388.76 761.511 1387 761.511C1386.2 761.511 1382.92 761.432 1377.17 761.273C1371.41 761.115 1364.06 761.036 1355.11 761.036C1345.35 761.036 1338 761.036 1333.04 761.036C1328.09 761.036 1325.29 761.115 1324.65 761.273C1321.93 761.273 1320.57 760.481 1320.57 758.897C1320.57 758.581 1320.73 757.472 1321.05 755.571C1321.69 753.037 1322.33 751.611 1322.97 751.295C1323.61 750.978 1325.45 750.74 1328.49 750.582C1332.8 750.582 1337.6 750.344 1342.88 749.869C1345.11 749.394 1346.63 748.444 1347.43 747.018C1347.75 746.384 1350.79 734.822 1356.54 712.33C1362.3 689.839 1367.98 667.427 1373.57 645.094C1379.17 622.76 1381.96 611.594 1381.96 611.594L1335.44 685.008C1304.11 734.426 1288.04 759.531 1287.24 760.323C1286.92 760.481 1286.6 760.64 1286.28 760.798C1285.48 761.273 1284.2 761.511 1282.44 761.511C1280.05 761.511 1278.61 760.956 1278.13 759.848C1277.81 759.214 1274.53 734.664 1268.29 686.196L1258.94 613.257L1242.64 677.405C1231.92 719.537 1226.57 741.316 1226.57 742.741C1227.53 747.968 1233.28 750.582 1243.83 750.582H1246.23C1247.19 751.374 1247.75 752.086 1247.91 752.72C1248.07 753.354 1247.83 754.779 1247.19 756.997C1246.55 759.531 1245.91 760.956 1245.27 761.273C1244.63 761.432 1243.75 761.511 1242.64 761.511C1242.32 761.511 1241.36 761.511 1239.76 761.511C1238.16 761.511 1235.44 761.432 1231.6 761.273C1227.77 761.115 1222.65 761.036 1216.26 761.036C1211.46 761.036 1206.5 761.115 1201.39 761.273C1196.27 761.432 1193.31 761.511 1192.52 761.511C1190.12 761.511 1188.6 761.352 1187.96 761.036C1187.32 760.719 1187 760.006 1187 758.897C1187 758.581 1187.24 757.472 1187.72 755.571C1188.2 753.67 1188.6 752.482 1188.92 752.007C1189.24 751.057 1191 750.582 1194.19 750.582C1205.39 750.582 1212.5 747.414 1215.54 741.078C1216.18 740.128 1221.69 718.904 1232.08 677.405C1242.48 635.907 1247.75 614.128 1247.91 612.069Z" fill="#132AF4" stroke="#132AF4" stroke-width="15"/>
<path d="M1437.61 725.091C1434.55 725.091 1432.12 724.083 1430.32 722.067C1428.51 720.052 1427.6 717.588 1427.6 714.676C1427.6 706.726 1430.6 699.839 1436.59 694.016C1442.58 688.193 1450.04 685.281 1458.97 685.281C1469.25 685.281 1477.85 688.417 1484.74 694.688C1491.63 700.959 1495.14 709.077 1495.25 719.044C1495.25 723.859 1494.12 728.45 1491.86 732.818C1489.6 737.185 1486.89 740.992 1483.72 744.24C1480.56 747.487 1476.04 751.631 1470.16 756.67C1466.09 760.141 1460.44 765.292 1453.2 772.123L1443.2 781.53L1456.09 781.698C1473.83 781.698 1483.27 781.418 1484.4 780.858C1485.19 780.634 1486.55 775.651 1488.47 765.908V765.404H1495.25V765.908C1495.14 766.244 1494.4 771.339 1493.05 781.194C1491.69 791.048 1490.84 796.2 1490.5 796.647V797.151H1427.6V793.96V791.944C1427.6 791.16 1427.94 790.32 1428.62 789.425C1429.3 788.529 1430.99 786.569 1433.71 783.546C1436.98 779.962 1439.81 776.827 1442.18 774.139C1443.2 773.019 1445.12 770.948 1447.95 767.924C1450.77 764.9 1452.7 762.829 1453.71 761.709C1454.73 760.589 1456.37 758.741 1458.63 756.166C1460.89 753.59 1462.47 751.687 1463.38 750.455C1464.28 749.223 1465.58 747.543 1467.28 745.416C1468.97 743.288 1470.16 741.496 1470.84 740.04C1471.52 738.585 1472.36 736.961 1473.38 735.169C1474.4 733.377 1475.13 731.586 1475.58 729.794C1476.04 728.002 1476.43 726.323 1476.77 724.755C1477.11 723.187 1477.28 721.339 1477.28 719.212C1477.28 712.157 1475.36 706.054 1471.52 700.903C1467.67 695.751 1462.19 693.176 1455.07 693.176C1451.34 693.176 1448.06 694.128 1445.24 696.031C1442.41 697.935 1440.43 699.783 1439.3 701.575C1438.17 703.366 1437.61 704.43 1437.61 704.766C1437.61 704.878 1437.89 704.934 1438.45 704.934C1440.49 704.934 1442.58 705.718 1444.73 707.286C1446.88 708.853 1447.95 711.429 1447.95 715.012C1447.95 717.812 1447.04 720.164 1445.24 722.067C1443.43 723.971 1440.88 724.979 1437.61 725.091Z" fill="#132AF4" stroke="#132AF4" stroke-width="15"/>
</svg>
