<svg width="5199" height="1250" viewBox="0 0 5199 1250" fill="none" xmlns="http://www.w3.org/2000/svg">
<path d="M366.5 588V948" stroke="#132AF4" stroke-width="35"/>
<path d="M281 632V904" stroke="#132AF4" stroke-width="35"/>
<path d="M577.426 857.81L457.321 818.106C457.178 818.059 457.106 818.035 457.063 818.073C457.02 818.11 457.034 818.184 457.062 818.332L464.402 858L457.062 897.668C457.034 897.816 457.02 897.89 457.063 897.927C457.106 897.965 457.178 897.941 457.321 897.894L577.426 858.19C577.663 858.111 577.781 858.072 577.781 858C577.781 857.928 577.663 857.889 577.426 857.81Z" fill="#132AF4"/>
<path d="M464.402 858L457.062 897.668C457.034 897.816 457.02 897.89 457.063 897.927C457.106 897.965 457.178 897.941 457.321 897.894L577.426 858.19C577.663 858.111 577.781 858.072 577.781 858C577.781 857.928 577.663 857.889 577.426 857.81L457.321 818.106C457.178 818.059 457.106 818.035 457.063 818.073C457.02 818.11 457.034 818.184 457.062 818.332L464.402 858ZM464.402 858H383.5" stroke="#132AF4" stroke-width="15"/>
<path d="M578 858H594V1159" stroke="#132AF4" stroke-width="15"/>
<path d="M384 678H594V65.5" stroke="#132AF4" stroke-width="15"/>
<path d="M263.5 768H7.5V324.5H578" stroke="#132AF4" stroke-width="15"/>
<circle cx="594" cy="1192" r="27.5" transform="rotate(-90 594 1192)" stroke="#132AF4" stroke-width="15"/>
<circle cx="594" cy="37" r="27.5" transform="rotate(-90 594 37)" stroke="#132AF4" stroke-width="15"/>
<circle cx="594" cy="325" r="27.5" transform="rotate(-90 594 325)" fill="#132AF4" stroke="#132AF4" stroke-width="15"/>
<path d="M1262.08 371.19L1382.18 410.894C1382.33 410.941 1382.4 410.965 1382.44 410.927C1382.48 410.89 1382.47 410.816 1382.44 410.668L1375.1 371L1382.44 331.332C1382.47 331.184 1382.48 331.11 1382.44 331.073C1382.4 331.035 1382.33 331.059 1382.18 331.106L1262.08 370.81C1261.84 370.889 1261.72 370.928 1261.72 371C1261.72 371.072 1261.84 371.111 1262.08 371.19Z" fill="#132AF4"/>
<path d="M1375.1 371L1382.44 331.332C1382.47 331.184 1382.48 331.11 1382.44 331.073C1382.4 331.035 1382.33 331.059 1382.18 331.106L1262.08 370.81C1261.84 370.889 1261.72 370.928 1261.72 371C1261.72 371.072 1261.84 371.111 1262.08 371.19L1382.18 410.894C1382.33 410.941 1382.4 410.965 1382.44 410.927C1382.48 410.89 1382.47 410.816 1382.44 410.668L1375.1 371ZM1375.1 371H1456" stroke="#132AF4" stroke-width="15"/>
<path d="M1451 371H1466V70" stroke="#132AF4" stroke-width="15"/>
<circle cx="1466" cy="37" r="27.5" transform="rotate(-180 1466 37)" stroke="#132AF4" stroke-width="15"/>
<path d="M1238 281V641" stroke="#132AF4" stroke-width="35"/>
<path d="M1152.5 325V597" stroke="#132AF4" stroke-width="35"/>
<path d="M1250.5 551H1465.5L1466 1165" stroke="#132AF4" stroke-width="15"/>
<path d="M1136 461H879V905H1466" stroke="#132AF4" stroke-width="15"/>
<circle cx="1466" cy="1191" r="27.5" transform="rotate(90 1466 1191)" stroke="#132AF4" stroke-width="15"/>
<circle cx="1466" cy="903" r="27.5" transform="rotate(90 1466 903)" fill="#132AF4" stroke="#132AF4" stroke-width="15"/>
<circle cx="2916.5" cy="726.5" r="165" stroke="#132AF4" stroke-width="15"/>
<path d="M2917.18 839.569L2976.86 699.82L2976.86 699.82C2976.92 699.678 2976.95 699.607 2976.92 699.56C2976.88 699.514 2976.81 699.524 2976.66 699.543L2917 706.902L2857.34 699.543C2857.19 699.524 2857.12 699.514 2857.08 699.56C2857.05 699.607 2857.08 699.678 2857.14 699.82L2916.82 839.569C2916.89 839.753 2916.93 839.845 2917 839.845C2917.07 839.845 2917.11 839.753 2917.18 839.569Z" fill="#132AF4"/>
<path d="M2917 706.902L2857.34 699.543C2857.19 699.524 2857.12 699.514 2857.08 699.56C2857.05 699.607 2857.08 699.678 2857.14 699.82L2916.82 839.569C2916.89 839.753 2916.93 839.845 2917 839.845C2917.07 839.845 2917.11 839.753 2917.18 839.569L2976.86 699.82C2976.92 699.678 2976.95 699.607 2976.92 699.56C2976.88 699.514 2976.81 699.524 2976.66 699.543L2917 706.902ZM2917 706.902V614" stroke="#132AF4" stroke-width="15"/>
<path d="M3261.79 771.151C3259.54 773.103 3256.24 775.205 3251.88 777.457C3247.53 779.71 3242.95 780.836 3238.14 780.836C3228.68 780.836 3221.1 777.457 3215.4 770.701C3209.69 763.944 3206.76 755.31 3206.61 744.8C3206.61 729.034 3212.39 714.544 3223.95 701.331C3235.52 688.118 3248.35 681.436 3262.47 681.286C3269.53 681.286 3276.06 684.89 3282.06 692.097L3282.74 691.196C3283.04 690.746 3283.41 690.295 3283.86 689.845C3284.32 689.394 3284.99 688.794 3285.89 688.043C3286.79 687.292 3287.77 686.767 3288.82 686.466C3289.87 686.166 3291.07 685.941 3292.42 685.791C3294.53 685.791 3296.25 686.466 3297.6 687.818C3298.95 689.169 3299.71 690.595 3299.86 692.097C3299.86 694.349 3295.58 712.517 3287.02 746.601C3278.46 780.686 3273.95 798.103 3273.5 798.854C3270.8 806.962 3265.02 813.643 3256.16 818.899C3247.3 824.154 3237.17 826.857 3225.76 827.007C3204.59 827.007 3194 821.902 3194 811.692C3194 807.788 3195.35 804.334 3198.05 801.331C3200.76 798.328 3204.21 796.827 3208.41 796.827C3210.67 796.827 3212.77 797.502 3214.72 798.854C3216.67 800.205 3217.72 802.532 3217.87 805.836C3217.87 807.337 3217.72 808.764 3217.42 810.115C3217.12 811.466 3216.6 812.517 3215.85 813.268C3215.1 814.019 3214.5 814.77 3214.05 815.52C3213.59 816.271 3213.07 816.872 3212.47 817.322L3212.02 817.773H3212.24C3213.74 818.223 3218.25 818.448 3225.76 818.448C3231.46 818.448 3235.97 817.547 3239.27 815.746C3242.72 814.094 3245.95 811.616 3248.95 808.313C3251.96 805.01 3254.06 801.481 3255.26 797.728C3256.16 794.875 3257.36 790.22 3258.86 783.764C3260.82 776.556 3261.79 772.352 3261.79 771.151ZM3278.23 706.962L3277.33 704.484C3276.88 702.833 3276.51 701.707 3276.21 701.106C3275.91 700.505 3275.46 699.454 3274.86 697.953C3274.26 696.451 3273.5 695.4 3272.6 694.8C3271.7 694.199 3270.73 693.373 3269.68 692.322C3268.62 691.271 3267.27 690.595 3265.62 690.295C3263.97 689.995 3262.32 689.77 3260.67 689.619C3254.06 689.619 3247.68 693.598 3241.52 701.556C3237.02 707.412 3233.26 716.346 3230.26 728.358C3227.26 740.37 3225.76 749.079 3225.76 754.484C3225.76 766.346 3230.41 772.277 3239.72 772.277C3248.13 772.277 3256.39 767.022 3264.5 756.511L3266.3 754.259L3278.23 706.962Z" fill="#132AF4" stroke="#132AF4" stroke-width="15"/>
<path d="M3309.96 768.925C3310.07 768.288 3310.22 767.439 3310.44 766.377C3310.65 765.316 3311.29 763.299 3312.35 760.327C3313.41 757.354 3314.47 754.859 3315.53 752.842C3316.59 750.826 3318.29 748.862 3320.63 746.951C3322.96 745.04 3325.3 744.138 3327.63 744.244C3329.97 744.35 3332.25 744.722 3334.48 745.358C3336.71 745.995 3338.3 746.951 3339.26 748.225C3340.21 749.499 3341.06 750.666 3341.81 751.728C3342.55 752.789 3342.97 753.798 3343.08 754.753L3343.4 755.868C3343.4 756.08 3343.45 756.186 3343.56 756.186L3345.31 754.435C3351.68 747.641 3359.16 744.244 3367.76 744.244C3369.57 744.244 3371.21 744.35 3372.7 744.562C3374.18 744.775 3375.56 745.146 3376.84 745.677C3378.11 746.208 3379.12 746.739 3379.86 747.269C3380.61 747.8 3381.4 748.437 3382.25 749.18C3383.1 749.923 3383.63 750.613 3383.84 751.25C3384.06 751.887 3384.48 752.577 3385.12 753.32C3385.75 754.063 3385.97 754.7 3385.75 755.231C3385.54 755.762 3385.7 756.239 3386.23 756.664C3386.76 757.089 3386.87 757.46 3386.55 757.779L3387.82 756.186C3394.51 748.225 3402.42 744.244 3411.55 744.244C3417.28 744.244 3421.9 745.677 3425.4 748.543C3428.91 751.409 3430.71 755.603 3430.82 761.123C3430.82 766.537 3428.8 774.923 3424.77 786.282C3420.73 797.64 3418.72 804.434 3418.72 806.664C3418.82 808.15 3419.09 809.158 3419.51 809.689C3419.94 810.22 3420.73 810.485 3421.9 810.485C3424.87 810.485 3427.63 808.893 3430.18 805.708C3432.73 802.524 3434.8 798.171 3436.39 792.651C3436.71 791.483 3437.03 790.793 3437.35 790.581C3437.66 790.369 3438.51 790.263 3439.89 790.263C3442.02 790.263 3443.08 790.687 3443.08 791.536C3443.08 791.643 3442.87 792.439 3442.44 793.925C3441.59 797.003 3440.42 800.029 3438.94 803.001C3437.45 805.974 3435.01 808.946 3431.61 811.918C3428.22 814.891 3424.55 816.324 3420.63 816.218C3415.64 816.218 3412.03 814.785 3409.8 811.918C3407.57 809.052 3406.45 806.08 3406.45 803.001C3406.45 800.984 3408.37 794.615 3412.19 783.893C3416.01 773.171 3417.97 765.104 3418.08 759.69C3418.08 753.426 3415.74 750.295 3411.07 750.295H3410.28C3401.15 750.295 3393.45 755.656 3387.19 766.377L3386.07 768.288L3380.82 789.626C3377.32 803.532 3375.3 811.016 3374.77 812.078C3373.39 814.944 3371.1 816.377 3367.92 816.377C3366.54 816.377 3365.43 816.005 3364.58 815.262C3363.73 814.519 3363.14 813.882 3362.82 813.352C3362.51 812.821 3362.35 812.29 3362.35 811.759C3362.35 810.591 3364.15 803.001 3367.76 788.989L3373.49 765.74C3373.81 764.148 3373.97 762.131 3373.97 759.69C3373.97 753.426 3371.64 750.295 3366.96 750.295H3366.17C3357.04 750.295 3349.34 755.656 3343.08 766.377L3341.97 768.288L3336.71 789.626C3333.21 803.532 3331.19 811.016 3330.66 812.078C3329.28 814.944 3327 816.377 3323.81 816.377C3322.43 816.377 3321.32 816.058 3320.47 815.422C3319.62 814.785 3319.04 814.148 3318.72 813.511C3318.4 812.874 3318.29 812.343 3318.4 811.918C3318.4 810.538 3320.42 801.834 3324.45 785.804C3328.59 769.456 3330.66 760.91 3330.66 760.167C3330.98 758.575 3331.14 757.142 3331.14 755.868C3331.14 752.046 3329.81 750.136 3327.16 750.136C3324.82 750.136 3322.86 751.622 3321.26 754.594C3319.67 757.566 3318.45 760.804 3317.6 764.307C3316.75 767.811 3316.12 769.721 3315.69 770.04C3315.48 770.252 3314.63 770.358 3313.14 770.358H3310.91C3310.28 769.721 3309.96 769.244 3309.96 768.925Z" fill="#132AF4" stroke="#132AF4" stroke-width="15"/>
<path d="M3469.4 634.885C3469.4 631.582 3470.38 628.954 3472.33 627.002H3474.81C3481.12 627.453 3489 627.678 3498.46 627.678C3516.18 627.678 3526.61 627.453 3529.76 627.002H3532.02C3532.92 627.903 3533.37 628.579 3533.37 629.029C3533.37 629.48 3533.22 630.831 3532.92 633.083C3532.17 635.336 3531.49 636.762 3530.89 637.363H3526.16C3522.86 637.663 3520.61 637.813 3519.4 637.813C3515.05 638.564 3512.65 639.69 3512.2 641.192C3512.2 641.492 3514.37 660.336 3518.73 697.723C3523.08 735.11 3525.34 753.954 3525.49 754.255L3541.93 727.903C3552.89 710.336 3563.85 692.618 3574.81 674.75C3585.77 656.882 3591.4 647.648 3591.7 647.047C3592.3 645.996 3592.6 644.87 3592.6 643.669C3592.6 640.065 3589.3 637.963 3582.69 637.363C3579.99 637.363 3578.64 636.537 3578.64 634.885C3578.64 634.735 3578.79 633.759 3579.09 631.957C3579.54 629.855 3579.99 628.504 3580.44 627.903C3580.89 627.303 3581.87 627.002 3583.37 627.002C3583.67 627.002 3584.57 627.002 3586.07 627.002C3587.57 627.002 3590.13 627.077 3593.73 627.228C3597.33 627.378 3602.14 627.453 3608.14 627.453C3618.5 627.453 3625.03 627.303 3627.74 627.002H3629.31C3630.37 628.053 3630.89 628.879 3630.89 629.48C3630.89 632.032 3630.22 634.435 3628.86 636.687C3628.41 637.138 3627.14 637.363 3625.03 637.363C3623.08 637.513 3621.28 637.663 3619.63 637.813C3617.98 637.963 3616.4 638.339 3614.9 638.939C3613.4 639.54 3612.2 640.065 3611.3 640.516C3610.4 640.966 3609.49 641.567 3608.59 642.318C3607.69 643.068 3606.94 643.594 3606.34 643.894C3605.74 644.195 3605.14 644.87 3604.54 645.921C3603.94 646.972 3603.41 647.498 3602.96 647.498L3559.49 717.318C3532.47 761.011 3518.5 783.384 3517.6 784.435C3517.15 784.735 3516.63 785.11 3516.03 785.561L3511.97 785.786H3510.4C3507.69 785.786 3506.34 785.261 3506.34 784.21C3505.89 783.309 3502.96 759.285 3497.56 712.137C3491.85 664.39 3488.92 640.291 3488.77 639.84C3488.02 638.189 3483.37 637.363 3474.81 637.363H3470.98C3469.93 636.612 3469.4 635.786 3469.4 634.885Z" fill="#132AF4" stroke="#132AF4" stroke-width="15"/>
<path d="M3630.35 722.574L3628.28 723.37C3626.79 723.901 3624.67 724.432 3621.91 724.962C3619.15 725.493 3616.07 725.865 3612.68 726.077H3609.65V718.752H3612.68C3617.67 718.54 3622.28 717.744 3626.53 716.364C3630.78 714.984 3633.75 713.71 3635.45 712.542C3637.14 711.374 3638.63 710.207 3639.9 709.039C3640.12 708.721 3640.75 708.561 3641.82 708.561C3642.77 708.561 3643.67 708.88 3644.52 709.517V757.128L3644.68 804.898C3645.43 805.641 3646.06 806.119 3646.59 806.331C3647.12 806.543 3648.4 806.756 3650.41 806.968C3652.43 807.18 3655.72 807.287 3660.29 807.287H3664.43V814.611H3662.68C3660.45 814.293 3652.01 814.134 3637.36 814.134C3622.92 814.134 3614.59 814.293 3612.36 814.611H3610.45V807.287H3614.59C3616.92 807.287 3618.94 807.287 3620.64 807.287C3622.34 807.287 3623.66 807.233 3624.62 807.127C3625.57 807.021 3626.42 806.862 3627.17 806.65C3627.91 806.437 3628.33 806.331 3628.44 806.331C3628.55 806.331 3628.86 806.066 3629.4 805.535C3629.93 805.004 3630.24 804.792 3630.35 804.898V722.574Z" fill="#132AF4" stroke="#132AF4" stroke-width="15"/>
<path d="M3871 297V543" stroke="#132AF4" stroke-width="15"/>
<path d="M3871 921V1167" stroke="#132AF4" stroke-width="15"/>
<path d="M3871 233C3890.33 233 3906 248.67 3906 268C3906 287.33 3890.33 303 3871 303C3851.67 303 3836 287.33 3836 268C3836 248.67 3851.67 233 3871 233Z" fill="#132AF4"/>
<path d="M3871 1157C3890.33 1157 3906 1172.67 3906 1192C3906 1211.33 3890.33 1227 3871 1227C3851.67 1227 3836 1211.33 3836 1192C3836 1172.67 3851.67 1157 3871 1157Z" fill="#132AF4"/>
<path d="M4055 710.98C4055.15 710.529 4055.3 709.929 4055.45 709.178C4055.6 708.427 4055.98 706.775 4056.58 704.223C4057.18 701.67 4057.93 699.343 4058.83 697.241C4059.73 695.139 4060.86 692.661 4062.21 689.808C4063.56 686.956 4065.06 684.703 4066.71 683.052C4068.36 681.4 4070.32 679.748 4072.57 678.097C4074.82 676.445 4077.3 675.769 4080 676.07C4084.35 676.07 4088.18 676.971 4091.49 678.772C4094.79 680.574 4097.12 682.226 4098.47 683.727C4099.82 685.229 4100.65 686.73 4100.95 688.232C4101.25 689.133 4101.47 689.583 4101.62 689.583C4101.77 689.583 4102.37 689.058 4103.42 688.007C4110.63 680.199 4118.96 676.295 4128.42 676.295H4129.1C4136.31 676.295 4141.71 679.373 4145.32 685.529C4146.52 688.382 4147.12 691.16 4147.12 693.862C4147.12 698.367 4146.14 701.971 4144.19 704.673C4142.24 707.376 4140.29 709.103 4138.33 709.853C4136.38 710.604 4134.5 710.904 4132.7 710.754C4129.7 710.754 4127.3 709.929 4125.5 708.277C4123.69 706.625 4122.79 704.448 4122.79 701.745C4122.79 694.538 4127 689.733 4135.41 687.331C4132.1 685.379 4129.4 684.403 4127.3 684.403C4118.89 684.403 4111.16 689.959 4104.1 701.07C4102.6 703.472 4101.47 705.95 4100.72 708.502C4099.97 711.055 4097.42 721.04 4093.06 738.457C4087.96 759.478 4085.03 770.664 4084.28 772.016C4082.33 776.07 4079.1 778.097 4074.59 778.097C4072.64 778.097 4071.07 777.646 4069.86 776.745C4068.66 775.844 4067.84 774.944 4067.39 774.043C4066.94 773.142 4066.79 772.391 4066.94 771.79C4066.94 769.838 4069.94 756.926 4075.95 733.052C4081.95 709.178 4084.95 695.889 4084.95 693.187C4084.95 687.331 4083 684.403 4079.1 684.403C4075.95 684.403 4073.24 686.505 4070.99 690.709C4068.74 694.913 4066.94 699.493 4065.59 704.448C4064.23 709.403 4063.41 712.106 4063.11 712.556C4062.81 712.856 4061.61 713.007 4059.5 713.007H4056.35C4055.45 712.106 4055 711.43 4055 710.98Z" fill="#132AF4" stroke="#132AF4" stroke-width="15"/>
<path d="M4174.56 716.245C4180.51 707.647 4188.63 703.347 4198.93 703.347C4204.02 703.347 4209.12 704.727 4214.21 707.487C4219.31 710.247 4223.45 715.131 4226.63 722.137C4230.56 730.948 4232.53 743.05 4232.53 758.442C4232.53 774.896 4230.24 787.476 4225.68 796.181C4223.56 800.639 4220.64 804.196 4216.92 806.849C4213.21 809.503 4209.97 811.149 4207.21 811.786C4204.45 812.423 4201.74 812.794 4199.09 812.9C4196.33 812.9 4193.57 812.582 4190.81 811.945C4188.05 811.308 4184.81 809.61 4181.09 806.849C4177.38 804.089 4174.46 800.533 4172.34 796.181C4167.77 787.476 4165.49 774.896 4165.49 758.442C4165.49 739.971 4168.51 725.905 4174.56 716.245ZM4210.39 714.334C4207.21 710.937 4203.44 709.239 4199.09 709.239C4194.63 709.239 4190.81 710.937 4187.62 714.334C4184.97 717.094 4183.22 720.916 4182.37 725.799C4181.52 730.682 4181.09 740.873 4181.09 756.372C4181.09 773.145 4181.52 784.185 4182.37 789.493C4183.22 794.801 4185.13 798.994 4188.1 802.072C4191.07 805.257 4194.73 806.849 4199.09 806.849C4203.33 806.849 4206.94 805.257 4209.91 802.072C4212.99 798.888 4214.9 794.429 4215.65 788.697C4216.39 782.964 4216.81 772.19 4216.92 756.372C4216.92 740.98 4216.5 730.842 4215.65 725.959C4214.8 721.075 4213.05 717.201 4210.39 714.334Z" fill="#132AF4" stroke="#132AF4" stroke-width="15"/>
<path d="M3871 922V877L3781 862L3961 832L3781 802L3961 772L3781 742L3961 712L3781 682L3961 652L3781 622L3961 592L3871 577V532" stroke="#132AF4" stroke-width="15"/>
<circle cx="4976.5" cy="726.414" r="165" stroke="#132AF4" stroke-width="15"/>
<path d="M4861.5 729.079C4861.5 729.079 4880.19 666.295 4926.19 677.54C4972.19 688.784 4982.25 764.594 5023.94 776.008C5065.62 787.423 5094.38 726.415 5094.38 726.415" stroke="#132AF4" stroke-width="15"/>
<path d="M5041 481.926C5041 481.926 5041 480.95 5041 478.999C5041 477.047 5042.05 475.545 5044.15 474.494H5111.49V440.711L5111.72 406.928C5113.22 404.976 5114.65 404 5116 404C5117.95 404 5119.45 405.126 5120.5 407.379V474.494H5187.62C5189.87 475.695 5191 477.197 5191 478.999C5191 480.8 5189.87 482.302 5187.62 483.503H5120.5V550.618C5119.3 552.72 5117.95 553.771 5116.45 553.771H5116H5115.55C5113.75 553.771 5112.39 552.72 5111.49 550.618V483.503H5044.15C5042.05 482.452 5041 480.95 5041 478.999V481.926Z" fill="#132AF4" stroke="#132AF4" stroke-width="15"/>
<path d="M5041 945.389C5041 945.389 5041 944.413 5041 942.461C5041 940.51 5042.05 939.008 5044.15 937.957H5175.01C5177.26 939.158 5178.38 940.66 5178.38 942.461C5178.38 944.263 5177.26 945.765 5175.01 946.966H5044.15C5042.05 945.915 5041 944.413 5041 942.461V945.389Z" fill="#132AF4" stroke="#132AF4" stroke-width="15"/>
<path d="M4498 632.884C4498 629.58 4498.98 626.953 4500.93 625.001H4503.41C4509.71 625.451 4517.59 625.676 4527.05 625.676C4544.77 625.676 4555.21 625.451 4558.36 625.001H4560.61C4561.51 625.902 4561.97 626.577 4561.97 627.028C4561.97 627.478 4561.81 628.83 4561.51 631.082C4560.76 633.334 4560.09 634.761 4559.49 635.361H4554.76C4551.45 635.661 4549.2 635.812 4548 635.812C4543.65 636.562 4541.24 637.689 4540.79 639.19C4540.79 639.49 4542.97 658.335 4547.33 695.723C4551.68 733.111 4553.93 751.955 4554.08 752.255L4570.52 725.903C4581.48 708.335 4592.45 690.617 4603.41 672.749C4614.37 654.881 4620 645.647 4620.3 645.046C4620.9 643.995 4621.2 642.869 4621.2 641.668C4621.2 638.064 4617.9 635.962 4611.29 635.361C4608.59 635.361 4607.24 634.535 4607.24 632.884C4607.24 632.734 4607.39 631.758 4607.69 629.956C4608.14 627.854 4608.59 626.502 4609.04 625.902C4609.49 625.301 4610.46 625.001 4611.97 625.001C4612.27 625.001 4613.17 625.001 4614.67 625.001C4616.17 625.001 4618.72 625.076 4622.33 625.226C4625.93 625.376 4630.73 625.451 4636.74 625.451C4647.1 625.451 4653.63 625.301 4656.34 625.001H4657.91C4658.96 626.052 4659.49 626.878 4659.49 627.478C4659.49 630.031 4658.81 632.433 4657.46 634.686C4657.01 635.136 4655.74 635.361 4653.63 635.361C4651.68 635.511 4649.88 635.661 4648.23 635.812C4646.58 635.962 4645 636.337 4643.5 636.938C4642 637.538 4640.8 638.064 4639.89 638.514C4638.99 638.965 4638.09 639.565 4637.19 640.316C4636.29 641.067 4635.54 641.593 4634.94 641.893C4634.34 642.193 4633.74 642.869 4633.14 643.92C4632.54 644.971 4632.01 645.496 4631.56 645.496L4588.09 715.317C4561.06 759.012 4547.1 781.385 4546.2 782.436C4545.75 782.736 4545.22 783.111 4544.62 783.562L4540.57 783.787H4538.99C4536.29 783.787 4534.94 783.262 4534.94 782.211C4534.49 781.31 4531.56 757.285 4526.15 710.137C4520.45 662.389 4517.52 638.289 4517.37 637.839C4516.62 636.187 4511.96 635.361 4503.41 635.361H4499.58C4498.53 634.61 4498 633.785 4498 632.884Z" fill="#132AF4" stroke="#132AF4" stroke-width="15"/>
<path d="M4631.72 812.61H4631.4C4629.91 812.61 4629.17 812.026 4629.17 810.859C4629.17 810.434 4629.33 809.585 4629.65 808.311C4630.07 806.825 4630.44 805.975 4630.76 805.763C4631.08 805.551 4632.09 805.392 4633.79 805.285C4642.92 804.967 4650.08 802.207 4655.28 797.005C4656.35 795.944 4662.5 789.256 4673.76 776.941C4685.01 764.627 4690.58 758.364 4690.48 758.151C4678.9 728.639 4672.85 713.618 4672.32 713.087C4671.37 711.92 4668.02 711.283 4662.29 711.176H4657.83C4657.2 710.539 4656.88 710.115 4656.88 709.903C4656.88 709.69 4656.98 708.682 4657.2 706.877C4657.62 705.497 4658.15 704.488 4658.79 703.852H4661.02C4664.63 704.064 4671.05 704.17 4680.28 704.17C4683.79 704.17 4687.03 704.17 4690 704.17C4692.97 704.17 4695.36 704.117 4697.16 704.011C4698.97 703.905 4700.03 703.905 4700.35 704.011C4702.15 704.011 4703.06 704.595 4703.06 705.762C4703.06 705.869 4702.95 706.559 4702.74 707.832C4702.31 709.425 4701.94 710.38 4701.62 710.699C4701.3 711.017 4700.45 711.176 4699.07 711.176C4695.78 711.495 4692.92 712.397 4690.48 713.883L4702.74 744.775L4711.18 735.38C4722.32 723.385 4727.9 716.75 4727.9 715.476C4727.9 713.565 4726.62 712.238 4724.08 711.495C4723.54 711.495 4722.85 711.389 4722.01 711.176C4720.41 711.176 4719.62 710.593 4719.62 709.425C4719.62 709.213 4719.72 708.363 4719.93 706.877C4720.36 705.497 4720.89 704.488 4721.53 703.852H4723.44C4723.54 703.852 4724.87 703.852 4727.42 703.852C4729.97 703.852 4732.83 703.958 4736.02 704.17C4739.2 704.382 4741.38 704.435 4742.55 704.329C4752.1 704.329 4757.36 704.17 4758.31 703.852H4759.58C4760.33 704.595 4760.7 705.179 4760.7 705.603C4760.49 708.257 4759.85 710.115 4758.79 711.176H4756.24C4752.63 711.283 4749.39 711.76 4746.53 712.61C4743.66 713.459 4741.49 714.361 4740 715.317C4738.51 716.272 4737.24 717.227 4736.18 718.183L4734.43 719.616C4734.43 719.51 4729.38 725.03 4719.3 736.177L4705.44 751.463C4705.44 751.57 4707.09 755.816 4710.38 764.202C4713.67 772.589 4717.12 781.188 4720.73 789.999C4724.34 798.81 4726.3 803.375 4726.62 803.693C4727.68 804.649 4730.92 805.179 4736.34 805.285C4740.05 805.285 4741.91 805.763 4741.91 806.719C4741.91 806.931 4741.8 807.674 4741.59 808.948C4741.17 810.646 4740.8 811.655 4740.48 811.973C4740.16 812.292 4739.41 812.451 4738.25 812.451C4737.93 812.451 4736.18 812.451 4732.99 812.451C4729.81 812.451 4725.08 812.398 4718.82 812.292C4712.34 812.292 4707.41 812.292 4704.01 812.292C4700.61 812.292 4698.76 812.345 4698.44 812.451C4696.63 812.451 4695.73 811.973 4695.73 811.018C4695.73 810.912 4695.84 810.116 4696.05 808.629C4696.26 807.568 4696.47 806.825 4696.69 806.4C4696.9 805.975 4697.16 805.71 4697.48 805.604C4697.8 805.498 4698.28 805.392 4698.92 805.285C4699.55 805.179 4700.4 805.126 4701.46 805.126C4702.53 805.126 4703.91 804.755 4705.6 804.012C4707.41 803.162 4708.31 802.632 4708.31 802.419C4708.2 802.419 4705.71 796.209 4700.83 783.788L4693.34 764.999C4673.38 786.655 4663.14 798.067 4662.61 799.234C4662.19 800.084 4661.97 800.721 4661.97 801.145C4661.97 803.162 4663.51 804.489 4666.59 805.126C4666.7 805.126 4667.02 805.126 4667.55 805.126C4668.08 805.126 4668.4 805.179 4668.5 805.285C4668.82 805.285 4669.03 805.285 4669.14 805.285C4669.24 805.285 4669.4 805.339 4669.62 805.445C4669.83 805.551 4669.99 805.71 4670.09 805.922C4670.2 806.135 4670.25 806.506 4670.25 807.037C4670.25 807.992 4670.15 808.842 4669.93 809.585C4669.62 810.965 4669.3 811.761 4668.98 811.973C4668.66 812.186 4667.86 812.345 4666.59 812.451C4666.27 812.451 4665.32 812.451 4663.72 812.451C4662.13 812.451 4659.9 812.398 4657.04 812.292C4654.17 812.186 4651.04 812.186 4647.64 812.292C4639.36 812.292 4634.05 812.398 4631.72 812.61Z" fill="#132AF4" stroke="#132AF4" stroke-width="15"/>
<path d="M2917 899V1192M2917 1192H2357M2917 1192H4978V899.487" stroke="#132AF4" stroke-width="15"/>
<path d="M2357.05 268H1874V31H2917V268" stroke="#132AF4" stroke-width="15"/>
<path d="M2917 554.5V268H4218H4978V558" stroke="#132AF4" stroke-width="15"/>
<path d="M2265 450.959C2265 450.959 2265 449.983 2265 448.031C2265 446.079 2266.05 444.577 2268.15 443.526H2335.49V409.743L2335.72 375.96C2337.22 374.008 2338.65 373.033 2340 373.033C2341.95 373.033 2343.45 374.159 2344.5 376.411V443.526H2411.62C2413.87 444.728 2415 446.229 2415 448.031C2415 449.832 2413.87 451.334 2411.62 452.535H2344.5V519.651C2343.3 521.753 2341.95 522.804 2340.45 522.804H2340H2339.55C2337.75 522.804 2336.39 521.753 2335.49 519.651V452.535H2268.15C2266.05 451.484 2265 449.983 2265 448.031V450.959Z" fill="#132AF4" stroke="#132AF4" stroke-width="15"/>
<path d="M2265 1059.42C2265 1059.42 2265 1058.45 2265 1056.5C2265 1054.54 2266.05 1053.04 2268.15 1051.99H2399.01C2401.26 1053.19 2402.38 1054.69 2402.38 1056.5C2402.38 1058.3 2401.26 1059.8 2399.01 1061H2268.15C2266.05 1059.95 2265 1058.45 2265 1056.5V1059.42Z" fill="#132AF4" stroke="#132AF4" stroke-width="15"/>
<path d="M2242 634.274C2242 630.971 2242.98 628.343 2244.93 626.391H2247.41C2253.71 626.841 2261.59 627.067 2271.05 627.067C2288.77 627.067 2299.21 626.841 2302.36 626.391H2304.61C2305.51 627.292 2305.96 627.968 2305.96 628.418C2305.96 628.869 2305.81 630.22 2305.51 632.472C2304.76 634.724 2304.09 636.151 2303.49 636.751H2298.76C2295.45 637.052 2293.2 637.202 2292 637.202C2287.65 637.953 2285.24 639.079 2284.79 640.58C2284.79 640.881 2286.97 659.724 2291.32 697.112C2295.68 734.499 2297.93 753.343 2298.08 753.643L2314.52 727.292C2325.48 709.724 2336.44 692.007 2347.41 674.139C2358.37 656.271 2364 647.037 2364.3 646.436C2364.9 645.385 2365.2 644.259 2365.2 643.058C2365.2 639.454 2361.89 637.352 2355.29 636.751C2352.59 636.751 2351.23 635.926 2351.23 634.274C2351.23 634.124 2351.38 633.148 2351.68 631.346C2352.14 629.244 2352.59 627.893 2353.04 627.292C2353.49 626.691 2354.46 626.391 2355.96 626.391C2356.26 626.391 2357.17 626.391 2358.67 626.391C2360.17 626.391 2362.72 626.466 2366.32 626.616C2369.93 626.766 2374.73 626.841 2380.74 626.841C2391.1 626.841 2397.63 626.691 2400.33 626.391H2401.91C2402.96 627.442 2403.49 628.268 2403.49 628.869C2403.49 631.421 2402.81 633.823 2401.46 636.076C2401.01 636.526 2399.73 636.751 2397.63 636.751C2395.68 636.902 2393.88 637.052 2392.23 637.202C2390.57 637.352 2389 637.727 2387.5 638.328C2385.99 638.929 2384.79 639.454 2383.89 639.905C2382.99 640.355 2382.09 640.956 2381.19 641.706C2380.29 642.457 2379.54 642.983 2378.94 643.283C2378.34 643.583 2377.74 644.259 2377.14 645.31C2376.53 646.361 2376.01 646.887 2375.56 646.887L2332.09 716.706C2305.06 760.4 2291.1 782.772 2290.2 783.823C2289.75 784.124 2289.22 784.499 2288.62 784.95L2284.57 785.175H2282.99C2280.29 785.175 2278.94 784.649 2278.94 783.598C2278.49 782.697 2275.56 758.673 2270.15 711.526C2264.45 663.778 2261.52 639.679 2261.37 639.229C2260.62 637.577 2255.96 636.751 2247.41 636.751H2243.58C2242.53 636.001 2242 635.175 2242 634.274Z" fill="#132AF4" stroke="#132AF4" stroke-width="15"/>
<path d="M2402.95 721.963L2400.88 722.759C2399.39 723.29 2397.27 723.82 2394.51 724.351C2391.75 724.882 2388.67 725.253 2385.27 725.466H2382.25V718.141H2385.27C2390.26 717.929 2394.88 717.133 2399.12 715.752C2403.37 714.372 2406.34 713.099 2408.04 711.931C2409.74 710.763 2411.23 709.595 2412.5 708.428C2412.71 708.109 2413.35 707.95 2414.41 707.95C2415.37 707.95 2416.27 708.268 2417.12 708.905V756.516L2417.28 804.287C2418.02 805.03 2418.66 805.508 2419.19 805.72C2419.72 805.932 2420.99 806.144 2423.01 806.357C2425.03 806.569 2428.32 806.675 2432.88 806.675H2437.02V814H2435.27C2433.04 813.682 2424.6 813.522 2409.95 813.522C2395.52 813.522 2387.18 813.682 2384.95 814H2383.04V806.675H2387.18C2389.52 806.675 2391.53 806.675 2393.23 806.675C2394.93 806.675 2396.26 806.622 2397.21 806.516C2398.17 806.41 2399.02 806.251 2399.76 806.038C2400.5 805.826 2400.93 805.72 2401.04 805.72C2401.14 805.72 2401.46 805.454 2401.99 804.924C2402.52 804.393 2402.84 804.181 2402.95 804.287V721.963Z" fill="#132AF4" stroke="#132AF4" stroke-width="15"/>
<path d="M2917 1157C2936.33 1157 2952 1172.67 2952 1192C2952 1211.33 2936.33 1227 2917 1227C2897.67 1227 2882 1211.33 2882 1192C2882 1172.67 2897.67 1157 2917 1157Z" fill="#132AF4"/>
<circle cx="2917" cy="268" r="35" transform="rotate(-90 2917 268)" fill="#132AF4"/>
<path d="M4557.43 268.184L4697.18 327.864L4697.18 327.864C4697.32 327.924 4697.39 327.954 4697.44 327.92C4697.49 327.885 4697.48 327.808 4697.46 327.655L4690.1 268L4697.46 208.345C4697.48 208.192 4697.49 208.115 4697.44 208.08C4697.39 208.046 4697.32 208.076 4697.18 208.136L4557.43 267.816C4557.25 267.895 4557.15 267.934 4557.15 268C4557.15 268.066 4557.25 268.105 4557.43 268.184Z" fill="#132AF4"/>
<path d="M4690.1 268L4697.46 208.345C4697.48 208.192 4697.49 208.115 4697.44 208.08C4697.39 208.046 4697.32 208.076 4697.18 208.136L4557.43 267.816C4557.25 267.895 4557.15 267.934 4557.15 268C4557.15 268.066 4557.25 268.105 4557.43 268.184L4697.18 327.864C4697.32 327.924 4697.39 327.954 4697.44 327.92C4697.49 327.885 4697.48 327.808 4697.46 327.655L4690.1 268ZM4690.1 268H4783" stroke="#132AF4" stroke-width="15"/>
<rect x="1850.5" y="7.5" width="2405" height="1235" rx="32.5" stroke="#132AF4" stroke-width="15" stroke-dasharray="10 10"/>
<path d="M4346.83 168.604C4344.28 168.604 4343 167.928 4343 166.577C4343 166.277 4343.23 165.225 4343.68 163.424C4344.43 160.571 4345.18 158.994 4345.93 158.694C4346.38 158.544 4347.5 158.469 4349.31 158.469H4350.66C4359.67 158.469 4365.37 157.943 4367.77 156.892C4367.93 156.892 4368.08 156.817 4368.23 156.667C4368.98 156.367 4369.8 154.64 4370.7 151.487C4371.6 148.334 4375.28 133.619 4381.74 107.342C4383.54 100.586 4384.89 95.2553 4385.79 91.3514C4396.3 49.3092 4401.56 28.1379 4401.56 27.8376C4401.26 27.237 4401.11 26.8616 4401.11 26.7115C4399.61 25.8106 4394.28 25.3601 4385.12 25.3601H4380.61C4379.26 24.4592 4378.96 22.5824 4379.71 19.7295C4380.31 17.4772 4380.76 16.1259 4381.06 15.6754C4381.36 15.225 4382.41 14.9997 4384.22 14.9997H4385.12C4395.93 15.3 4406.89 15.4502 4418 15.4502C4436.32 15.4502 4445.93 15.3 4446.83 14.9997H4449.08C4450.13 16.0508 4450.66 16.8766 4450.66 17.4772C4450.66 18.0778 4450.43 19.3541 4449.98 21.3061C4449.53 23.258 4449.01 24.4592 4448.41 24.9097C4447.96 25.21 4446.23 25.3601 4443.23 25.3601C4438.57 25.3601 4433.77 25.5854 4428.81 26.0358C4426.71 26.4863 4425.28 27.3121 4424.53 28.5133C4423.48 30.6154 4419.65 44.9548 4413.05 71.5315C4411.39 78.5886 4409.74 85.4204 4408.09 92.027C4397.58 133.469 4392.32 154.64 4392.32 155.541C4392.32 156.592 4393.08 157.268 4394.58 157.568C4396.08 157.868 4399.98 158.168 4406.29 158.469H4413.5C4414.4 159.67 4414.85 160.346 4414.85 160.496C4414.85 160.646 4414.62 161.997 4414.17 164.55C4413.57 166.502 4412.82 167.928 4411.92 168.829H4408.32C4402.76 168.529 4392.47 168.379 4377.46 168.379C4372.05 168.379 4367.1 168.379 4362.59 168.379C4358.09 168.379 4354.49 168.379 4351.78 168.379C4349.08 168.379 4347.43 168.454 4346.83 168.604Z" fill="#132AF4" stroke="#132AF4" stroke-width="15"/>
<path d="M4450.37 202.609H4450.05C4448.57 202.609 4447.82 202.026 4447.82 200.858C4447.82 200.433 4447.98 199.584 4448.3 198.31C4448.73 196.824 4449.1 195.975 4449.42 195.762C4449.74 195.55 4450.74 195.391 4452.44 195.285C4461.57 194.966 4468.74 192.206 4473.94 187.004C4475 185.943 4481.16 179.255 4492.41 166.941C4503.66 154.627 4509.24 148.363 4509.13 148.151C4497.56 118.64 4491.51 103.618 4490.98 103.088C4490.02 101.92 4486.68 101.283 4480.95 101.177H4476.49C4475.85 100.54 4475.53 100.115 4475.53 99.9029C4475.53 99.6906 4475.64 98.6821 4475.85 96.8775C4476.27 95.4974 4476.8 94.489 4477.44 93.852H4479.67C4483.28 94.0643 4489.7 94.1705 4498.94 94.1705C4502.44 94.1705 4505.68 94.1705 4508.65 94.1705C4511.62 94.1705 4514.01 94.1174 4515.82 94.0112C4517.62 93.9051 4518.68 93.9051 4519 94.0112C4520.81 94.0112 4521.71 94.5951 4521.71 95.7628C4521.71 95.869 4521.6 96.559 4521.39 97.8329C4520.97 99.4252 4520.59 100.381 4520.28 100.699C4519.96 101.018 4519.11 101.177 4517.73 101.177C4514.44 101.495 4511.57 102.398 4509.13 103.884L4521.39 134.775L4529.83 125.381C4540.98 113.385 4546.55 106.75 4546.55 105.476C4546.55 103.565 4545.28 102.238 4542.73 101.495C4542.2 101.495 4541.51 101.389 4540.66 101.177C4539.07 101.177 4538.27 100.593 4538.27 99.4252C4538.27 99.2129 4538.38 98.3637 4538.59 96.8775C4539.01 95.4974 4539.54 94.489 4540.18 93.852H4542.09C4542.2 93.852 4543.52 93.852 4546.07 93.852C4548.62 93.852 4551.49 93.9582 4554.67 94.1705C4557.86 94.3828 4560.03 94.4359 4561.2 94.3297C4570.75 94.3297 4576.01 94.1705 4576.96 93.852H4578.24C4578.98 94.5951 4579.35 95.179 4579.35 95.6036C4579.14 98.2575 4578.5 100.115 4577.44 101.177H4574.89C4571.28 101.283 4568.05 101.761 4565.18 102.61C4562.31 103.459 4560.14 104.362 4558.65 105.317C4557.17 106.272 4555.89 107.228 4554.83 108.183L4553.08 109.616C4553.08 109.51 4548.04 115.03 4537.95 126.177L4524.1 141.463C4524.1 141.569 4525.74 145.816 4529.03 154.202C4532.32 162.588 4535.77 171.187 4539.38 179.998C4542.99 188.809 4544.96 193.374 4545.28 193.692C4546.34 194.648 4549.58 195.178 4554.99 195.285C4558.7 195.285 4560.56 195.762 4560.56 196.718C4560.56 196.93 4560.46 197.673 4560.24 198.947C4559.82 200.645 4559.45 201.654 4559.13 201.972C4558.81 202.291 4558.07 202.45 4556.9 202.45C4556.58 202.45 4554.83 202.45 4551.65 202.45C4548.46 202.45 4543.74 202.397 4537.47 202.291C4531 202.291 4526.06 202.291 4522.66 202.291C4519.27 202.291 4517.41 202.344 4517.09 202.45C4515.29 202.45 4514.38 201.972 4514.38 201.017C4514.38 200.911 4514.49 200.115 4514.7 198.629C4514.92 197.567 4515.13 196.824 4515.34 196.399C4515.55 195.975 4515.82 195.709 4516.14 195.603C4516.45 195.497 4516.93 195.391 4517.57 195.285C4518.21 195.178 4519.06 195.125 4520.12 195.125C4521.18 195.125 4522.56 194.754 4524.26 194.011C4526.06 193.161 4526.96 192.631 4526.96 192.418C4526.86 192.418 4524.36 186.208 4519.48 173.788L4512 154.998C4492.04 176.654 4481.79 188.066 4481.26 189.234C4480.84 190.083 4480.63 190.72 4480.63 191.144C4480.63 193.161 4482.17 194.488 4485.24 195.125C4485.35 195.125 4485.67 195.125 4486.2 195.125C4486.73 195.125 4487.05 195.178 4487.16 195.285C4487.47 195.285 4487.69 195.285 4487.79 195.285C4487.9 195.285 4488.06 195.338 4488.27 195.444C4488.48 195.55 4488.64 195.709 4488.75 195.922C4488.85 196.134 4488.91 196.505 4488.91 197.036C4488.91 197.992 4488.8 198.841 4488.59 199.584C4488.27 200.964 4487.95 201.76 4487.63 201.972C4487.31 202.185 4486.52 202.344 4485.24 202.45C4484.93 202.45 4483.97 202.45 4482.38 202.45C4480.79 202.45 4478.56 202.397 4475.69 202.291C4472.82 202.185 4469.69 202.185 4466.3 202.291C4458.02 202.291 4452.71 202.397 4450.37 202.609Z" fill="#132AF4" stroke="#132AF4" stroke-width="15"/>
</svg>
