<svg width="5981" height="2240" viewBox="0 0 5981 2240" fill="none" xmlns="http://www.w3.org/2000/svg">
<path d="M653 1772V1860" stroke="#132AF4" stroke-width="15"/>
<path d="M653 1429V842.501" stroke="#132AF4" stroke-width="15"/>
<path d="M653 183.495V312.495" stroke="#132AF4" stroke-width="15"/>
<path d="M0 170.001H791" stroke="#132AF4" stroke-width="35"/>
<path d="M551 2074H754" stroke="#132AF4" stroke-width="35"/>
<path d="M586 2153H717" stroke="#132AF4" stroke-width="35"/>
<path d="M609 2222H695" stroke="#132AF4" stroke-width="35"/>
<path d="M651.692 2057V1928" stroke="#132AF4" stroke-width="15"/>
<path d="M652 1859C671.33 1859 687 1874.67 687 1894C687 1913.33 671.33 1929 652 1929C632.67 1929 617 1913.33 617 1894C617 1874.67 632.67 1859 652 1859Z" fill="#132AF4"/>
<path d="M1311 858V655" stroke="#132AF4" stroke-width="35"/>
<path d="M1390 823V692" stroke="#132AF4" stroke-width="35"/>
<path d="M1459 800V714" stroke="#132AF4" stroke-width="35"/>
<path d="M1294 757.308H1165" stroke="#132AF4" stroke-width="15"/>
<path d="M1096 757C1096 737.67 1111.67 722 1131 722C1150.33 722 1166 737.67 1166 757C1166 776.33 1150.33 792 1131 792C1111.67 792 1096 776.33 1096 757Z" fill="#132AF4"/>
<path d="M653 312.495V492.001" stroke="#132AF4" stroke-width="15"/>
<path d="M425.5 577V937" stroke="#132AF4" stroke-width="35"/>
<path d="M340 621V893" stroke="#132AF4" stroke-width="35"/>
<path d="M636.426 846.81L516.321 807.106C516.178 807.059 516.106 807.035 516.063 807.073C516.02 807.11 516.034 807.184 516.062 807.332L523.402 847L516.062 886.668C516.034 886.816 516.02 886.89 516.063 886.927C516.106 886.965 516.178 886.941 516.321 886.894L636.426 847.19C636.663 847.111 636.781 847.072 636.781 847C636.781 846.928 636.663 846.889 636.426 846.81Z" fill="#132AF4"/>
<path d="M523.402 847L516.062 886.668C516.034 886.816 516.02 886.89 516.063 886.927C516.106 886.965 516.178 886.941 516.321 886.894L636.426 847.19C636.663 847.111 636.781 847.072 636.781 847C636.781 846.928 636.663 846.889 636.426 846.81L516.321 807.106C516.178 807.059 516.106 807.035 516.063 807.073C516.02 807.11 516.034 807.184 516.062 807.332L523.402 847ZM523.402 847H442.5" stroke="#132AF4" stroke-width="15"/>
<path d="M637 847H653V1027" stroke="#132AF4" stroke-width="15"/>
<path d="M443 667H653V487" stroke="#132AF4" stroke-width="15"/>
<path d="M322.5 757H119.5V170" stroke="#132AF4" stroke-width="15"/>
<path d="M900.002 75.3158C900.002 71.8311 901.032 69.0591 903.091 67H905.704C912.357 67.4752 920.673 67.7128 930.652 67.7128C949.343 67.7128 960.351 67.4752 963.678 67H966.054C967.004 67.9503 967.479 68.6631 967.479 69.1383C967.479 69.6135 967.321 71.0391 967.004 73.4151C966.212 75.791 965.499 77.2958 964.866 77.9294H959.876C956.391 78.2462 954.015 78.4046 952.748 78.4046C948.155 79.1965 945.62 80.3845 945.145 81.9685C945.145 82.2853 947.442 102.164 952.035 141.605C956.629 181.046 959.005 200.925 959.163 201.241L976.508 173.443C988.071 154.91 999.634 136.219 1011.2 117.37C1022.76 98.521 1028.7 88.7796 1029.02 88.146C1029.65 87.0372 1029.97 85.8492 1029.97 84.582C1029.97 80.7805 1026.48 78.563 1019.51 77.9294C1016.66 77.9294 1015.24 77.0582 1015.24 75.3158C1015.24 75.1574 1015.39 74.1278 1015.71 72.2271C1016.19 70.0095 1016.66 68.5839 1017.14 67.9503C1017.61 67.3168 1018.64 67 1020.23 67C1020.54 67 1021.49 67 1023.08 67C1024.66 67 1027.35 67.0792 1031.15 67.2376C1034.96 67.396 1040.02 67.4752 1046.36 67.4752C1057.29 67.4752 1064.18 67.3168 1067.03 67H1068.69C1069.8 68.1087 1070.36 68.9799 1070.36 69.6135C1070.36 72.3063 1069.65 74.8406 1068.22 77.2166C1067.74 77.6918 1066.4 77.9294 1064.18 77.9294C1062.12 78.0878 1060.22 78.2462 1058.48 78.4046C1056.74 78.563 1055.07 78.959 1053.49 79.5925C1051.9 80.2261 1050.64 80.7805 1049.69 81.2557C1048.74 81.7309 1047.79 82.3645 1046.84 83.1565C1045.89 83.9485 1045.09 84.5029 1044.46 84.8196C1043.83 85.1364 1043.19 85.8492 1042.56 86.958C1041.93 88.0668 1041.37 88.6212 1040.9 88.6212L995.04 162.276C966.529 208.369 951.798 231.971 950.847 233.079C950.372 233.396 949.818 233.792 949.184 234.267L944.908 234.505H943.244C940.393 234.505 938.968 233.95 938.968 232.842C938.492 231.891 935.404 206.548 929.701 156.811C923.682 106.441 920.594 81.0181 920.435 80.5429C919.643 78.8006 914.733 77.9294 905.704 77.9294H901.665C900.556 77.1374 900.002 76.2662 900.002 75.3158Z" fill="#132AF4" stroke="#132AF4" stroke-width="15"/>
<path d="M1082.22 159.426C1082.22 158.643 1079.02 158.139 1072.64 157.915C1070.07 157.915 1068.39 157.859 1067.6 157.747C1066.82 157.635 1066.43 157.131 1066.43 156.235C1066.43 155.339 1066.65 154.219 1067.1 152.875C1067.55 151.531 1067.94 150.691 1068.27 150.356C1068.5 150.244 1079.64 150.188 1101.7 150.188C1120.4 150.3 1130.87 150.356 1133.11 150.356C1135.35 150.356 1137.59 150.691 1139.83 151.363C1147.9 153.267 1154.73 157.691 1160.33 164.634C1165.93 171.577 1168.78 180.872 1168.89 192.519C1168.89 209.988 1162.9 225.667 1150.92 239.553C1138.94 253.439 1124.83 261.726 1108.59 264.414L1106.24 264.75L1073.65 264.918H1055H1046.1C1043.41 264.918 1041.68 264.806 1040.89 264.582C1040.11 264.358 1039.66 263.854 1039.55 263.07C1039.55 262.846 1039.72 262.062 1040.05 260.718C1040.5 258.927 1040.95 257.919 1041.4 257.695C1041.84 257.471 1043.13 257.303 1045.26 257.191C1048.28 257.191 1051.64 257.023 1055.34 256.687C1056.91 256.351 1057.97 255.679 1058.53 254.671C1058.87 254.223 1062.9 238.657 1070.63 207.973C1078.35 177.288 1082.22 161.106 1082.22 159.426ZM1152.1 186.135C1152.1 181.88 1151.48 178.072 1150.25 174.713C1149.02 171.353 1147.56 168.721 1145.88 166.818C1144.2 164.914 1142.13 163.29 1139.66 161.946C1137.2 160.602 1135.02 159.706 1133.11 159.258C1131.21 158.811 1129.25 158.419 1127.23 158.083C1127.01 158.083 1126.23 158.083 1124.88 158.083C1123.54 158.083 1121.92 158.083 1120.01 158.083C1118.11 158.083 1116.26 158.027 1114.47 157.915H1107.24C1102.32 157.915 1099.52 158.475 1098.85 159.594C1098.62 160.042 1094.53 176.168 1086.58 207.973C1078.63 239.777 1074.66 255.847 1074.66 256.183C1074.66 256.631 1075.27 256.855 1076.5 256.855C1077.74 256.855 1082.05 256.911 1089.44 257.023C1090 257.023 1091.06 257.023 1092.63 257.023C1094.2 257.023 1095.54 257.079 1096.66 257.191C1110.77 257.191 1122.42 252.599 1131.6 243.417C1135.63 239.385 1138.94 234.682 1141.51 229.306C1144.09 223.931 1146.5 216.82 1148.74 207.973C1150.98 199.126 1152.1 191.847 1152.1 186.135Z" fill="#132AF4" stroke="#132AF4" stroke-width="15"/>
<path d="M1221.3 159.426C1221.3 158.643 1218.11 158.139 1211.73 157.915C1209.15 157.915 1207.47 157.859 1206.69 157.747C1205.9 157.635 1205.51 157.131 1205.51 156.235C1205.51 155.339 1205.74 154.219 1206.18 152.875C1206.63 151.531 1207.02 150.691 1207.36 150.356C1207.58 150.244 1218.73 150.188 1240.79 150.188C1259.49 150.3 1269.96 150.356 1272.2 150.356C1274.44 150.356 1276.68 150.691 1278.92 151.363C1286.98 153.267 1293.81 157.691 1299.41 164.634C1305.01 171.577 1307.87 180.872 1307.98 192.519C1307.98 209.988 1301.99 225.667 1290.01 239.553C1278.02 253.439 1263.91 261.726 1247.67 264.414L1245.32 264.75L1212.73 264.918H1194.09H1185.19C1182.5 264.918 1180.76 264.806 1179.98 264.582C1179.19 264.358 1178.75 263.854 1178.63 263.07C1178.63 262.846 1178.8 262.062 1179.14 260.718C1179.59 258.927 1180.03 257.919 1180.48 257.695C1180.93 257.471 1182.22 257.303 1184.35 257.191C1187.37 257.191 1190.73 257.023 1194.42 256.687C1195.99 256.351 1197.06 255.679 1197.62 254.671C1197.95 254.223 1201.98 238.657 1209.71 207.973C1217.44 177.288 1221.3 161.106 1221.3 159.426ZM1291.18 186.135C1291.18 181.88 1290.57 178.072 1289.33 174.713C1288.1 171.353 1286.65 168.721 1284.97 166.818C1283.29 164.914 1281.21 163.29 1278.75 161.946C1276.29 160.602 1274.1 159.706 1272.2 159.258C1270.3 158.811 1268.34 158.419 1266.32 158.083C1266.1 158.083 1265.31 158.083 1263.97 158.083C1262.62 158.083 1261 158.083 1259.1 158.083C1257.19 158.083 1255.35 158.027 1253.55 157.915H1246.33C1241.4 157.915 1238.6 158.475 1237.93 159.594C1237.71 160.042 1233.62 176.168 1225.67 207.973C1217.72 239.777 1213.74 255.847 1213.74 256.183C1213.74 256.631 1214.36 256.855 1215.59 256.855C1216.82 256.855 1221.13 256.911 1228.52 257.023C1229.08 257.023 1230.15 257.023 1231.72 257.023C1233.28 257.023 1234.63 257.079 1235.75 257.191C1249.86 257.191 1261.5 252.599 1270.69 243.417C1274.72 239.385 1278.02 234.682 1280.6 229.306C1283.17 223.931 1285.58 216.82 1287.82 207.973C1290.06 199.126 1291.18 191.847 1291.18 186.135Z" fill="#132AF4" stroke="#132AF4" stroke-width="15"/>
<path d="M329.911 325.067C329.911 324.117 325.355 323.483 316.242 323.166C312.405 323.166 309.927 323.087 308.808 322.929C307.689 322.77 307.129 321.979 307.129 320.553C307.129 320.395 307.289 319.523 307.609 317.94C307.769 317.464 307.929 316.91 308.089 316.276C308.249 315.643 308.329 315.247 308.329 315.089C308.329 314.93 308.488 314.534 308.808 313.901C309.128 313.267 309.288 313.029 309.288 313.188C309.288 313.346 309.608 313.188 310.247 312.713C310.886 312.237 311.286 312.079 311.446 312.237C311.606 312.396 312.245 312.396 313.365 312.237C314.484 312.079 315.443 312 316.242 312C317.201 312 319.6 312 323.436 312C327.273 312 330.871 312.079 334.228 312.237C346.858 312.237 354.132 312.237 356.05 312.237C357.969 312.237 359.248 312.633 359.887 313.425C360.047 314.059 363.005 336.392 368.76 380.425L377.393 446.711L382.909 437.921C386.746 432.218 391.862 424.299 398.257 414.162C404.651 404.025 411.686 392.938 419.36 380.9C447.337 336.709 461.486 314.455 461.806 314.138C461.966 313.98 462.205 313.742 462.525 313.425C462.845 313.109 463.165 312.871 463.484 312.713L464.923 312.237H487.945C490.663 312.237 493.86 312.237 497.537 312.237C501.214 312.237 503.532 312.158 504.492 312C509.927 312 512.645 312.871 512.645 314.613C512.645 315.405 512.405 316.752 511.926 318.652C511.446 320.553 511.206 321.583 511.206 321.741C510.567 322.691 507.609 323.166 502.333 323.166C495.938 323.325 491.862 323.562 490.103 323.879C488.345 324.196 486.906 325.067 485.787 326.493C485.307 327.285 479.552 349.697 468.52 393.73C457.489 437.762 451.894 460.016 451.734 460.491C451.734 461.125 451.814 461.521 451.974 461.679C452.134 461.838 452.693 462.154 453.652 462.629C454.612 463.105 455.97 463.263 457.729 463.105C459.488 462.946 462.126 463.105 465.643 463.58H473.077C474.036 465.005 474.516 465.876 474.516 466.193C474.516 468.728 473.956 471.103 472.837 473.321C472.038 474.113 470.759 474.509 469 474.509C468.201 474.509 464.923 474.43 459.168 474.271C453.412 474.113 446.058 474.034 437.106 474.034C427.353 474.034 419.999 474.034 415.043 474.034C410.087 474.034 407.289 474.113 406.65 474.271C403.932 474.271 402.573 473.479 402.573 471.895C402.573 471.579 402.733 470.47 403.053 468.569C403.692 466.035 404.332 464.609 404.971 464.293C405.611 463.976 407.449 463.738 410.487 463.58C414.803 463.58 419.6 463.342 424.875 462.867C427.114 462.392 428.632 461.442 429.432 460.016C429.751 459.382 432.789 447.82 438.544 425.328C444.3 402.837 449.975 380.425 455.571 358.092C461.166 335.759 463.964 324.592 463.964 324.592L417.441 398.006C386.106 447.424 370.039 472.529 369.24 473.321C368.92 473.479 368.6 473.638 368.281 473.796C367.481 474.271 366.202 474.509 364.444 474.509C362.046 474.509 360.607 473.954 360.127 472.846C359.807 472.212 356.53 447.662 350.295 399.194L340.942 326.255L324.635 390.403C313.924 432.535 308.568 454.314 308.568 455.739C309.528 460.966 315.283 463.58 325.835 463.58H328.233C329.192 464.372 329.751 465.085 329.911 465.718C330.071 466.352 329.831 467.777 329.192 469.995C328.552 472.529 327.913 473.954 327.273 474.271C326.634 474.43 325.755 474.509 324.635 474.509C324.316 474.509 323.357 474.509 321.758 474.509C320.159 474.509 317.441 474.43 313.604 474.271C309.767 474.113 304.651 474.034 298.257 474.034C293.46 474.034 288.504 474.113 283.388 474.271C278.273 474.43 275.315 474.509 274.516 474.509C272.118 474.509 270.599 474.35 269.959 474.034C269.32 473.717 269 473.004 269 471.895C269 471.579 269.24 470.47 269.719 468.569C270.199 466.668 270.599 465.481 270.918 465.005C271.238 464.055 272.997 463.58 276.194 463.58C287.385 463.58 294.5 460.412 297.537 454.076C298.177 453.126 303.692 431.902 314.084 390.403C324.476 348.905 329.751 327.126 329.911 325.067Z" fill="#132AF4" stroke="#132AF4" stroke-width="15"/>
<path d="M519.607 438.089C516.555 438.089 514.125 437.081 512.316 435.065C510.508 433.05 509.604 430.586 509.604 427.674C509.604 419.724 512.599 412.837 518.589 407.014C524.58 401.191 532.04 398.279 540.969 398.279C551.255 398.279 559.845 401.415 566.74 407.686C573.635 413.957 577.139 422.075 577.252 432.042C577.252 436.857 576.121 441.448 573.861 445.816C571.6 450.183 568.888 453.99 565.723 457.238C562.558 460.485 558.037 464.629 552.159 469.668C548.09 473.139 542.439 478.29 535.205 485.121L525.202 494.528L538.087 494.696C555.833 494.696 565.271 494.416 566.401 493.856C567.192 493.632 568.548 488.649 570.47 478.906V478.402H577.252V478.906C577.139 479.242 576.404 484.338 575.048 494.192C573.691 504.046 572.844 509.198 572.504 509.645V510.149H509.604V506.958V504.942C509.604 504.158 509.943 503.318 510.621 502.423C511.299 501.527 512.994 499.567 515.707 496.544C518.985 492.96 521.811 489.825 524.184 487.137C525.202 486.017 527.123 483.946 529.949 480.922C532.775 477.899 534.696 475.827 535.713 474.707C536.731 473.587 538.37 471.74 540.63 469.164C542.891 466.588 544.473 464.685 545.377 463.453C546.282 462.221 547.581 460.541 549.277 458.414C550.972 456.286 552.159 454.494 552.837 453.038C553.516 451.583 554.363 449.959 555.38 448.167C556.398 446.376 557.132 444.584 557.585 442.792C558.037 441 558.432 439.321 558.771 437.753C559.11 436.185 559.28 434.337 559.28 432.21C559.28 425.155 557.359 419.052 553.516 413.901C549.673 408.749 544.191 406.174 537.07 406.174C533.34 406.174 530.062 407.126 527.236 409.029C524.41 410.933 522.432 412.781 521.302 414.573C520.172 416.364 519.607 417.428 519.607 417.764C519.607 417.876 519.889 417.932 520.454 417.932C522.489 417.932 524.58 418.716 526.727 420.284C528.875 421.851 529.949 424.427 529.949 428.01C529.949 430.81 529.045 433.162 527.236 435.065C525.428 436.969 522.884 437.977 519.607 438.089Z" fill="#132AF4" stroke="#132AF4" stroke-width="15"/>
<circle cx="652.5" cy="1600.41" r="165" stroke="#132AF4" stroke-width="15"/>
<path d="M537.5 1603.08C537.5 1603.08 556.188 1540.29 602.188 1551.54C648.188 1562.78 658.25 1638.59 699.938 1650.01C741.625 1661.42 770.375 1600.41 770.375 1600.41" stroke="#132AF4" stroke-width="15"/>
<path d="M717 1355.93C717 1355.93 717 1354.95 717 1353C717 1351.05 718.051 1349.54 720.153 1348.49H787.494V1314.71L787.719 1280.93C789.22 1278.98 790.647 1278 791.998 1278C793.95 1278 795.452 1279.13 796.503 1281.38V1348.49H863.618C865.87 1349.69 866.996 1351.2 866.996 1353C866.996 1354.8 865.87 1356.3 863.618 1357.5H796.503V1424.62C795.301 1426.72 793.95 1427.77 792.449 1427.77H791.998H791.548C789.746 1427.77 788.395 1426.72 787.494 1424.62V1357.5H720.153C718.051 1356.45 717 1354.95 717 1353V1355.93Z" fill="#132AF4" stroke="#132AF4" stroke-width="15"/>
<path d="M717 1819.39C717 1819.39 717 1818.41 717 1816.46C717 1814.51 718.051 1813.01 720.153 1811.96H851.006C853.258 1813.16 854.384 1814.66 854.384 1816.46C854.384 1818.26 853.258 1819.76 851.006 1820.96H720.153C718.051 1819.91 717 1818.41 717 1816.46V1819.39Z" fill="#132AF4" stroke="#132AF4" stroke-width="15"/>
<path d="M305.829 1195.6C303.276 1195.6 302 1194.93 302 1193.58C302 1193.28 302.225 1192.23 302.676 1190.42C303.426 1187.57 304.177 1185.99 304.928 1185.69C305.378 1185.54 306.505 1185.47 308.306 1185.47H309.658C318.667 1185.47 324.372 1184.94 326.775 1183.89C326.925 1183.89 327.075 1183.82 327.225 1183.67C327.976 1183.37 328.802 1181.64 329.703 1178.49C330.604 1175.33 334.282 1160.62 340.739 1134.34C342.541 1127.59 343.892 1122.26 344.793 1118.35C355.303 1076.31 360.559 1055.14 360.559 1054.84C360.258 1054.24 360.108 1053.86 360.108 1053.71C358.607 1052.81 353.276 1052.36 344.117 1052.36H339.613C338.261 1051.46 337.961 1049.58 338.712 1046.73C339.312 1044.48 339.763 1043.13 340.063 1042.68C340.363 1042.23 341.414 1042 343.216 1042H344.117C354.928 1042.3 365.889 1042.45 377 1042.45C395.318 1042.45 404.928 1042.3 405.829 1042H408.081C409.132 1043.05 409.658 1043.88 409.658 1044.48C409.658 1045.08 409.432 1046.35 408.982 1048.31C408.532 1050.26 408.006 1051.46 407.405 1051.91C406.955 1052.21 405.228 1052.36 402.225 1052.36C397.571 1052.36 392.766 1052.59 387.811 1053.04C385.709 1053.49 384.282 1054.31 383.532 1055.51C382.48 1057.62 378.652 1071.96 372.045 1098.53C370.393 1105.59 368.742 1112.42 367.09 1119.03C356.58 1160.47 351.324 1181.64 351.324 1182.54C351.324 1183.59 352.075 1184.27 353.577 1184.57C355.078 1184.87 358.982 1185.17 365.288 1185.47H372.495C373.396 1186.67 373.847 1187.35 373.847 1187.5C373.847 1187.65 373.622 1189 373.171 1191.55C372.571 1193.5 371.82 1194.93 370.919 1195.83H367.315C361.76 1195.53 351.474 1195.38 336.459 1195.38C331.054 1195.38 326.099 1195.38 321.595 1195.38C317.09 1195.38 313.486 1195.38 310.784 1195.38C308.081 1195.38 306.429 1195.45 305.829 1195.6Z" fill="#132AF4" stroke="#132AF4" stroke-width="15"/>
<path d="M409.349 1229.63H409.03C407.544 1229.63 406.801 1229.04 406.801 1227.88C406.801 1227.45 406.96 1226.6 407.278 1225.33C407.703 1223.84 408.075 1222.99 408.393 1222.78C408.712 1222.57 409.72 1222.41 411.419 1222.3C420.548 1221.98 427.714 1219.22 432.915 1214.02C433.977 1212.96 440.134 1206.27 451.386 1193.96C462.639 1181.65 468.212 1175.38 468.106 1175.17C456.535 1145.66 450.484 1130.64 449.953 1130.11C448.998 1128.94 445.654 1128.3 439.922 1128.2H435.463C434.826 1127.56 434.508 1127.13 434.508 1126.92C434.508 1126.71 434.614 1125.7 434.826 1123.9C435.251 1122.52 435.781 1121.51 436.418 1120.87H438.648C442.257 1121.08 448.679 1121.19 457.915 1121.19C461.418 1121.19 464.656 1121.19 467.628 1121.19C470.601 1121.19 472.989 1121.14 474.794 1121.03C476.598 1120.92 477.66 1120.92 477.978 1121.03C479.783 1121.03 480.685 1121.61 480.685 1122.78C480.685 1122.89 480.579 1123.58 480.367 1124.85C479.942 1126.44 479.571 1127.4 479.252 1127.72C478.934 1128.04 478.085 1128.2 476.705 1128.2C473.414 1128.51 470.548 1129.42 468.106 1130.9L480.367 1161.79L488.806 1152.4C499.953 1140.4 505.526 1133.77 505.526 1132.5C505.526 1130.58 504.252 1129.26 501.704 1128.51C501.174 1128.51 500.484 1128.41 499.634 1128.2C498.042 1128.2 497.246 1127.61 497.246 1126.44C497.246 1126.23 497.352 1125.38 497.564 1123.9C497.989 1122.52 498.52 1121.51 499.157 1120.87H501.067C501.174 1120.87 502.501 1120.87 505.048 1120.87C507.596 1120.87 510.462 1120.98 513.647 1121.19C516.832 1121.4 519.008 1121.45 520.176 1121.35C529.73 1121.35 534.984 1121.19 535.94 1120.87H537.214C537.957 1121.61 538.328 1122.2 538.328 1122.62C538.116 1125.28 537.479 1127.13 536.417 1128.2H533.87C530.26 1128.3 527.023 1128.78 524.156 1129.63C521.29 1130.48 519.114 1131.38 517.628 1132.34C516.142 1133.29 514.868 1134.25 513.806 1135.2L512.055 1136.64C512.055 1136.53 507.012 1142.05 496.927 1153.2L483.074 1168.48C483.074 1168.59 484.719 1172.83 488.01 1181.22C491.301 1189.61 494.751 1198.21 498.36 1207.02C501.97 1215.83 503.934 1220.39 504.252 1220.71C505.314 1221.67 508.551 1222.2 513.965 1222.3C517.681 1222.3 519.539 1222.78 519.539 1223.74C519.539 1223.95 519.432 1224.69 519.22 1225.97C518.796 1227.66 518.424 1228.67 518.106 1228.99C517.787 1229.31 517.044 1229.47 515.876 1229.47C515.558 1229.47 513.806 1229.47 510.621 1229.47C507.437 1229.47 502.713 1229.42 496.45 1229.31C489.974 1229.31 485.038 1229.31 481.641 1229.31C478.244 1229.31 476.386 1229.36 476.068 1229.47C474.263 1229.47 473.361 1228.99 473.361 1228.04C473.361 1227.93 473.467 1227.13 473.679 1225.65C473.891 1224.59 474.104 1223.84 474.316 1223.42C474.528 1222.99 474.794 1222.73 475.112 1222.62C475.431 1222.52 475.908 1222.41 476.545 1222.3C477.182 1222.2 478.032 1222.14 479.093 1222.14C480.155 1222.14 481.535 1221.77 483.233 1221.03C485.038 1220.18 485.94 1219.65 485.94 1219.44C485.834 1219.44 483.339 1213.23 478.456 1200.81L470.972 1182.02C451.015 1203.67 440.771 1215.08 440.24 1216.25C439.815 1217.1 439.603 1217.74 439.603 1218.16C439.603 1220.18 441.142 1221.51 444.221 1222.14C444.327 1222.14 444.645 1222.14 445.176 1222.14C445.707 1222.14 446.025 1222.2 446.132 1222.3C446.45 1222.3 446.662 1222.3 446.769 1222.3C446.875 1222.3 447.034 1222.36 447.246 1222.46C447.459 1222.57 447.618 1222.73 447.724 1222.94C447.83 1223.15 447.883 1223.52 447.883 1224.05C447.883 1225.01 447.777 1225.86 447.565 1226.6C447.246 1227.98 446.928 1228.78 446.609 1228.99C446.291 1229.2 445.495 1229.36 444.221 1229.47C443.902 1229.47 442.947 1229.47 441.355 1229.47C439.762 1229.47 437.533 1229.42 434.667 1229.31C431.801 1229.2 428.669 1229.2 425.272 1229.31C416.992 1229.31 411.684 1229.42 409.349 1229.63Z" fill="#132AF4" stroke="#132AF4" stroke-width="15"/>
<path d="M163 1514.88C163 1511.58 163.976 1508.95 165.928 1507H168.405C174.712 1507.45 182.595 1507.68 192.054 1507.68C209.772 1507.68 220.207 1507.45 223.36 1507H225.613C226.514 1507.9 226.964 1508.58 226.964 1509.03C226.964 1509.48 226.814 1510.83 226.514 1513.08C225.763 1515.33 225.087 1516.76 224.486 1517.36H219.757C216.453 1517.66 214.201 1517.81 213 1517.81C208.646 1518.56 206.243 1519.69 205.793 1521.19C205.793 1521.49 207.97 1540.33 212.324 1577.72C216.679 1615.11 218.931 1633.95 219.081 1634.25L235.523 1607.9C246.483 1590.33 257.444 1572.62 268.405 1554.75C279.366 1536.88 284.997 1527.65 285.297 1527.04C285.898 1525.99 286.198 1524.87 286.198 1523.67C286.198 1520.06 282.895 1517.96 276.288 1517.36C273.586 1517.36 272.234 1516.53 272.234 1514.88C272.234 1514.73 272.384 1513.76 272.685 1511.95C273.135 1509.85 273.586 1508.5 274.036 1507.9C274.486 1507.3 275.462 1507 276.964 1507C277.264 1507 278.165 1507 279.667 1507C281.168 1507 283.721 1507.07 287.324 1507.22C290.928 1507.37 295.733 1507.45 301.739 1507.45C312.099 1507.45 318.631 1507.3 321.333 1507H322.91C323.961 1508.05 324.486 1508.88 324.486 1509.48C324.486 1512.03 323.811 1514.43 322.459 1516.68C322.009 1517.13 320.733 1517.36 318.631 1517.36C316.679 1517.51 314.877 1517.66 313.225 1517.81C311.574 1517.96 309.997 1518.34 308.495 1518.94C306.994 1519.54 305.793 1520.06 304.892 1520.51C303.991 1520.96 303.09 1521.56 302.189 1522.31C301.288 1523.07 300.538 1523.59 299.937 1523.89C299.336 1524.19 298.736 1524.87 298.135 1525.92C297.535 1526.97 297.009 1527.49 296.559 1527.49L253.09 1597.31C226.063 1641.01 212.099 1663.38 211.198 1664.43C210.748 1664.73 210.222 1665.11 209.622 1665.56L205.568 1665.78H203.991C201.288 1665.78 199.937 1665.26 199.937 1664.21C199.486 1663.31 196.559 1639.28 191.153 1592.13C185.447 1544.39 182.52 1520.29 182.369 1519.84C181.619 1518.19 176.964 1517.36 168.405 1517.36H164.577C163.526 1516.61 163 1515.78 163 1514.88Z" fill="#132AF4" stroke="#132AF4" stroke-width="15"/>
<path d="M296.729 1694.62H296.411C294.925 1694.62 294.182 1694.04 294.182 1692.87C294.182 1692.45 294.341 1691.6 294.659 1690.33C295.084 1688.84 295.456 1687.99 295.774 1687.78C296.092 1687.57 297.101 1687.41 298.799 1687.3C307.929 1686.98 315.094 1684.22 320.296 1679.02C321.358 1677.96 327.515 1671.27 338.767 1658.96C350.02 1646.64 355.593 1640.38 355.487 1640.17C343.916 1610.66 337.865 1595.63 337.334 1595.1C336.379 1593.94 333.035 1593.3 327.302 1593.19H322.844C322.207 1592.56 321.888 1592.13 321.888 1591.92C321.888 1591.71 321.995 1590.7 322.207 1588.89C322.631 1587.51 323.162 1586.5 323.799 1585.87H326.028C329.638 1586.08 336.06 1586.19 345.296 1586.19C348.799 1586.19 352.037 1586.19 355.009 1586.19C357.981 1586.19 360.37 1586.13 362.175 1586.03C363.979 1585.92 365.041 1585.92 365.359 1586.03C367.164 1586.03 368.066 1586.61 368.066 1587.78C368.066 1587.89 367.96 1588.58 367.748 1589.85C367.323 1591.44 366.952 1592.4 366.633 1592.72C366.315 1593.03 365.465 1593.19 364.085 1593.19C360.795 1593.51 357.928 1594.41 355.487 1595.9L367.748 1626.79L376.187 1617.4C387.334 1605.4 392.907 1598.77 392.907 1597.49C392.907 1595.58 391.633 1594.25 389.085 1593.51C388.554 1593.51 387.864 1593.41 387.015 1593.19C385.423 1593.19 384.627 1592.61 384.627 1591.44C384.627 1591.23 384.733 1590.38 384.945 1588.89C385.37 1587.51 385.901 1586.5 386.537 1585.87H388.448C388.554 1585.87 389.881 1585.87 392.429 1585.87C394.977 1585.87 397.843 1585.97 401.028 1586.19C404.212 1586.4 406.389 1586.45 407.556 1586.35C417.11 1586.35 422.365 1586.19 423.321 1585.87H424.594C425.338 1586.61 425.709 1587.19 425.709 1587.62C425.497 1590.27 424.86 1592.13 423.798 1593.19H421.251C417.641 1593.3 414.403 1593.78 411.537 1594.63C408.671 1595.48 406.495 1596.38 405.009 1597.33C403.522 1598.29 402.249 1599.24 401.187 1600.2L399.435 1601.63C399.435 1601.53 394.393 1607.05 384.308 1618.19L370.455 1633.48C370.455 1633.59 372.1 1637.83 375.391 1646.22C378.682 1654.6 382.132 1663.2 385.741 1672.01C389.351 1680.82 391.315 1685.39 391.633 1685.71C392.695 1686.66 395.932 1687.19 401.346 1687.3C405.062 1687.3 406.919 1687.78 406.919 1688.73C406.919 1688.95 406.813 1689.69 406.601 1690.96C406.176 1692.66 405.805 1693.67 405.486 1693.99C405.168 1694.31 404.425 1694.47 403.257 1694.47C402.939 1694.47 401.187 1694.47 398.002 1694.47C394.818 1694.47 390.094 1694.41 383.831 1694.31C377.355 1694.31 372.419 1694.31 369.022 1694.31C365.625 1694.31 363.767 1694.36 363.449 1694.47C361.644 1694.47 360.742 1693.99 360.742 1693.03C360.742 1692.93 360.848 1692.13 361.06 1690.64C361.272 1689.58 361.485 1688.84 361.697 1688.41C361.909 1687.99 362.175 1687.72 362.493 1687.62C362.812 1687.51 363.289 1687.41 363.926 1687.3C364.563 1687.19 365.412 1687.14 366.474 1687.14C367.536 1687.14 368.916 1686.77 370.614 1686.03C372.419 1685.18 373.321 1684.65 373.321 1684.43C373.215 1684.43 370.72 1678.22 365.837 1665.8L358.353 1647.01C338.396 1668.67 328.152 1680.08 327.621 1681.25C327.196 1682.1 326.984 1682.74 326.984 1683.16C326.984 1685.18 328.523 1686.5 331.602 1687.14C331.708 1687.14 332.026 1687.14 332.557 1687.14C333.088 1687.14 333.406 1687.19 333.512 1687.3C333.831 1687.3 334.043 1687.3 334.149 1687.3C334.256 1687.3 334.415 1687.35 334.627 1687.46C334.839 1687.57 334.999 1687.72 335.105 1687.94C335.211 1688.15 335.264 1688.52 335.264 1689.05C335.264 1690.01 335.158 1690.86 334.946 1691.6C334.627 1692.98 334.309 1693.78 333.99 1693.99C333.672 1694.2 332.876 1694.36 331.602 1694.47C331.283 1694.47 330.328 1694.47 328.735 1694.47C327.143 1694.47 324.914 1694.41 322.048 1694.31C319.181 1694.2 316.05 1694.2 312.653 1694.31C304.373 1694.31 299.065 1694.41 296.729 1694.62Z" fill="#132AF4" stroke="#132AF4" stroke-width="15"/>
<path d="M652.816 1052.43L593.136 1192.18L593.136 1192.18C593.076 1192.32 593.046 1192.39 593.08 1192.44C593.115 1192.49 593.192 1192.48 593.345 1192.46L653 1185.1L712.655 1192.46C712.808 1192.48 712.885 1192.49 712.92 1192.44C712.954 1192.39 712.924 1192.32 712.864 1192.18L653.184 1052.43C653.105 1052.25 653.066 1052.15 653 1052.15C652.934 1052.15 652.895 1052.25 652.816 1052.43Z" fill="#132AF4"/>
<path d="M653 1185.1L712.655 1192.46C712.808 1192.48 712.885 1192.49 712.92 1192.44C712.954 1192.39 712.924 1192.32 712.864 1192.18L653.184 1052.43C653.105 1052.25 653.066 1052.15 653 1052.15C652.934 1052.15 652.895 1052.25 652.816 1052.43L593.136 1192.18C593.076 1192.32 593.046 1192.39 593.08 1192.44C593.115 1192.49 593.192 1192.48 593.345 1192.46L653 1185.1ZM653 1185.1V1278" stroke="#132AF4" stroke-width="15"/>
<path d="M442 757H1108.5" stroke="#132AF4" stroke-width="15" stroke-dasharray="30 30"/>
<path d="M4695.5 102H3356V388.5" stroke="#132AF4" stroke-width="15"/>
<path d="M2049 1V204" stroke="#132AF4" stroke-width="35"/>
<path d="M1970 36V167" stroke="#132AF4" stroke-width="35"/>
<path d="M1901 59V145" stroke="#132AF4" stroke-width="35"/>
<path d="M2062 102L2514 102" stroke="#132AF4" stroke-width="15"/>
<path d="M4692 102L5047 102" stroke="#132AF4" stroke-width="15"/>
<path d="M5047 136V390" stroke="#132AF4" stroke-width="15"/>
<path d="M5047 67C5066.33 67 5082 82.67 5082 102C5082 121.33 5066.33 137 5047 137C5027.67 137 5012 121.33 5012 102C5012 82.67 5027.67 67 5047 67Z" fill="#132AF4"/>
<circle cx="3355.5" cy="560.501" r="165" stroke="#132AF4" stroke-width="15"/>
<path d="M3356.19 673.57L3415.87 533.821L3415.87 533.821C3415.93 533.679 3415.96 533.608 3415.92 533.561C3415.89 533.515 3415.81 533.525 3415.66 533.544L3356 540.903L3296.35 533.544C3296.19 533.525 3296.12 533.515 3296.08 533.561C3296.05 533.608 3296.08 533.679 3296.14 533.821L3355.82 673.57C3355.9 673.754 3355.94 673.846 3356 673.846C3356.07 673.846 3356.11 673.754 3356.19 673.57Z" fill="#132AF4"/>
<path d="M3356 540.903L3296.35 533.544C3296.19 533.525 3296.12 533.515 3296.08 533.561C3296.05 533.608 3296.08 533.679 3296.14 533.821L3355.82 673.57C3355.9 673.754 3355.94 673.846 3356 673.846C3356.07 673.846 3356.11 673.754 3356.19 673.57L3415.87 533.821C3415.93 533.679 3415.96 533.608 3415.92 533.561C3415.89 533.515 3415.81 533.525 3415.66 533.544L3356 540.903ZM3356 540.903V448.001" stroke="#132AF4" stroke-width="15"/>
<path d="M3356 730.001V932.001H2880" stroke="#132AF4" stroke-width="15"/>
<path d="M2514 932H2907" stroke="#132AF4" stroke-width="15"/>
<path d="M4343 136V382" stroke="#132AF4" stroke-width="15"/>
<path d="M4343 910.5V681L4253 666L4433 636L4253 606L4433 576L4253 546L4433 516L4253 486L4433 456L4253 426L4433 396L4343 381V336" stroke="#132AF4" stroke-width="15"/>
<path d="M4343 245C4362.33 245 4378 260.67 4378 280C4378 299.33 4362.33 315 4343 315C4323.67 315 4308 299.33 4308 280C4308 260.67 4323.67 245 4343 245Z" fill="#132AF4"/>
<circle cx="4343" cy="932" r="35" transform="rotate(-90 4343 932)" fill="#132AF4"/>
<circle cx="4343" cy="782" r="35" transform="rotate(-90 4343 782)" fill="#132AF4"/>
<path d="M4343 67C4362.33 67 4378 82.67 4378 102C4378 121.33 4362.33 137 4343 137C4323.67 137 4308 121.33 4308 102C4308 82.67 4323.67 67 4343 67Z" fill="#132AF4"/>
<path d="M4491 511.979C4491.15 511.528 4491.3 510.928 4491.45 510.177C4491.6 509.426 4491.98 507.774 4492.58 505.222C4493.18 502.669 4493.93 500.342 4494.83 498.24C4495.73 496.138 4496.86 493.66 4498.21 490.807C4499.56 487.955 4501.06 485.702 4502.71 484.051C4504.36 482.399 4506.32 480.747 4508.57 479.096C4510.82 477.444 4513.3 476.768 4516 477.069C4520.35 477.069 4524.18 477.97 4527.49 479.771C4530.79 481.573 4533.12 483.225 4534.47 484.726C4535.82 486.228 4536.65 487.729 4536.95 489.231C4537.25 490.132 4537.47 490.582 4537.62 490.582C4537.77 490.582 4538.37 490.057 4539.42 489.006C4546.63 481.198 4554.96 477.294 4564.42 477.294H4565.1C4572.31 477.294 4577.71 480.372 4581.32 486.528C4582.52 489.381 4583.12 492.159 4583.12 494.861C4583.12 499.366 4582.14 502.97 4580.19 505.672C4578.24 508.375 4576.29 510.102 4574.33 510.852C4572.38 511.603 4570.5 511.904 4568.7 511.753C4565.7 511.753 4563.3 510.928 4561.5 509.276C4559.69 507.624 4558.79 505.447 4558.79 502.744C4558.79 495.537 4563 490.732 4571.41 488.33C4568.1 486.378 4565.4 485.402 4563.3 485.402C4554.89 485.402 4547.16 490.958 4540.1 502.069C4538.6 504.471 4537.47 506.949 4536.72 509.501C4535.97 512.054 4533.42 522.039 4529.06 539.456C4523.96 560.477 4521.03 571.663 4520.28 573.015C4518.33 577.069 4515.1 579.096 4510.59 579.096C4508.64 579.096 4507.07 578.645 4505.86 577.744C4504.66 576.843 4503.84 575.943 4503.39 575.042C4502.94 574.141 4502.79 573.39 4502.94 572.789C4502.94 570.837 4505.94 557.925 4511.95 534.051C4517.95 510.177 4520.95 496.888 4520.95 494.186C4520.95 488.33 4519 485.402 4515.1 485.402C4511.95 485.402 4509.24 487.504 4506.99 491.708C4504.74 495.913 4502.94 500.492 4501.59 505.447C4500.23 510.402 4499.41 513.105 4499.11 513.555C4498.81 513.855 4497.61 514.006 4495.5 514.006H4492.35C4491.45 513.105 4491 512.429 4491 511.979Z" fill="#132AF4" stroke="#132AF4" stroke-width="15"/>
<path d="M4610.56 517.243C4616.51 508.645 4624.63 504.345 4634.93 504.345C4640.02 504.345 4645.12 505.725 4650.21 508.485C4655.31 511.245 4659.45 516.129 4662.63 523.135C4666.56 531.946 4668.53 544.048 4668.53 559.44C4668.53 575.895 4666.24 588.474 4661.68 597.179C4659.56 601.637 4656.64 605.194 4652.92 607.848C4649.21 610.501 4645.97 612.147 4643.21 612.784C4640.45 613.421 4637.74 613.792 4635.09 613.898C4632.33 613.898 4629.57 613.58 4626.81 612.943C4624.05 612.306 4620.81 610.608 4617.09 607.848C4613.38 605.087 4610.46 601.531 4608.34 597.179C4603.77 588.474 4601.49 575.895 4601.49 559.44C4601.49 540.969 4604.51 526.903 4610.56 517.243ZM4646.39 515.332C4643.21 511.935 4639.44 510.237 4635.09 510.237C4630.63 510.237 4626.81 511.935 4623.62 515.332C4620.97 518.093 4619.22 521.914 4618.37 526.797C4617.52 531.68 4617.09 541.871 4617.09 557.37C4617.09 574.143 4617.52 585.183 4618.37 590.491C4619.22 595.799 4621.13 599.992 4624.1 603.071C4627.07 606.255 4630.73 607.848 4635.09 607.848C4639.33 607.848 4642.94 606.255 4645.91 603.071C4648.99 599.886 4650.9 595.427 4651.65 589.695C4652.39 583.962 4652.81 573.188 4652.92 557.37C4652.92 541.978 4652.5 531.84 4651.65 526.957C4650.8 522.073 4649.05 518.199 4646.39 515.332Z" fill="#132AF4" stroke="#132AF4" stroke-width="15"/>
<path d="M4692.26 542.087C4689.39 542.087 4687.11 541.132 4685.41 539.221C4683.71 537.31 4682.86 534.974 4682.86 532.214C4682.86 524.677 4685.67 518.149 4691.3 512.629C4696.93 507.108 4703.93 504.348 4712.32 504.348C4721.98 504.348 4730.05 507.321 4736.52 513.266C4743 519.21 4746.29 526.907 4746.4 536.355C4746.4 540.919 4745.33 545.272 4743.21 549.412C4741.09 553.552 4738.54 557.161 4735.57 560.24C4732.6 563.318 4728.35 567.246 4722.83 572.023C4719.01 575.314 4713.7 580.197 4706.91 586.673L4697.51 595.59L4709.61 595.749C4726.28 595.749 4735.14 595.483 4736.2 594.953C4736.95 594.74 4738.22 590.016 4740.03 580.781V580.303H4746.4V580.781C4746.29 581.099 4745.6 585.929 4744.33 595.271C4743.05 604.613 4742.26 609.496 4741.94 609.921V610.398H4682.86V607.373V605.462C4682.86 604.719 4683.18 603.923 4683.82 603.074C4684.45 602.224 4686.05 600.367 4688.59 597.5C4691.67 594.103 4694.33 591.131 4696.56 588.583C4697.51 587.522 4699.32 585.558 4701.97 582.692C4704.62 579.825 4706.43 577.862 4707.38 576.8C4708.34 575.738 4709.88 573.987 4712 571.545C4714.12 569.104 4715.61 567.299 4716.46 566.131C4717.31 564.964 4718.53 563.371 4720.12 561.354C4721.71 559.337 4722.83 557.639 4723.47 556.259C4724.1 554.879 4724.9 553.34 4725.85 551.641C4726.81 549.943 4727.5 548.244 4727.92 546.546C4728.35 544.847 4728.72 543.255 4729.04 541.768C4729.36 540.282 4729.52 538.531 4729.52 536.514C4729.52 529.826 4727.71 524.04 4724.1 519.157C4720.49 514.274 4715.35 511.832 4708.66 511.832C4705.15 511.832 4702.08 512.735 4699.42 514.539C4696.77 516.344 4694.91 518.096 4693.85 519.794C4692.79 521.493 4692.26 522.501 4692.26 522.82C4692.26 522.926 4692.52 522.979 4693.05 522.979C4694.96 522.979 4696.93 523.722 4698.94 525.208C4700.96 526.694 4701.97 529.136 4701.97 532.533C4701.97 535.187 4701.12 537.416 4699.42 539.221C4697.72 541.025 4695.33 541.981 4692.26 542.087Z" fill="#132AF4" stroke="#132AF4" stroke-width="15"/>
<circle cx="5046.5" cy="560.501" r="165" stroke="#132AF4" stroke-width="15"/>
<path d="M5047.18 673.57L5106.86 533.821L5106.86 533.821C5106.92 533.679 5106.95 533.608 5106.92 533.561C5106.88 533.515 5106.81 533.525 5106.66 533.544L5047 540.903L4987.34 533.544C4987.19 533.525 4987.12 533.515 4987.08 533.561C4987.05 533.608 4987.08 533.679 4987.14 533.821L5046.82 673.57C5046.89 673.754 5046.93 673.846 5047 673.846C5047.07 673.846 5047.11 673.754 5047.18 673.57Z" fill="#132AF4"/>
<path d="M5047 540.903L4987.34 533.544C4987.19 533.525 4987.12 533.515 4987.08 533.561C4987.05 533.608 4987.08 533.679 4987.14 533.821L5046.82 673.57C5046.89 673.754 5046.93 673.846 5047 673.846C5047.07 673.846 5047.11 673.754 5047.18 673.57L5106.86 533.821C5106.92 533.679 5106.95 533.608 5106.92 533.561C5106.88 533.515 5106.81 533.525 5106.66 533.544L5047 540.903ZM5047 540.903V448.001" stroke="#132AF4" stroke-width="15"/>
<path d="M3356 897C3375.33 897 3391 912.67 3391 932C3391 951.33 3375.33 967 3356 967C3336.67 967 3321 951.33 3321 932C3321 912.67 3336.67 897 3356 897Z" fill="#132AF4"/>
<path d="M5543 203V0.000198364" stroke="#132AF4" stroke-width="35"/>
<path d="M5622 168V37" stroke="#132AF4" stroke-width="35"/>
<path d="M5691 145V58.9999" stroke="#132AF4" stroke-width="35"/>
<path d="M5531 102L5078 102" stroke="#132AF4" stroke-width="15"/>
<path d="M5047 731V932H3356" stroke="#132AF4" stroke-width="15"/>
<path d="M2777 2073.91H2980" stroke="#132AF4" stroke-width="35"/>
<path d="M2812 2152.91H2943" stroke="#132AF4" stroke-width="35"/>
<path d="M2835 2221.91H2921" stroke="#132AF4" stroke-width="35"/>
<path d="M2877.69 2056.91V1927.91" stroke="#132AF4" stroke-width="15"/>
<path d="M2878 1858.91C2897.33 1858.91 2913 1874.58 2913 1893.91C2913 1913.24 2897.33 1928.91 2878 1928.91C2858.67 1928.91 2843 1913.24 2843 1893.91C2843 1874.58 2858.67 1858.91 2878 1858.91Z" fill="#132AF4"/>
<path d="M2878 1772V1861" stroke="#132AF4" stroke-width="15"/>
<path d="M2878 930V1429" stroke="#132AF4" stroke-width="15"/>
<circle cx="2877.5" cy="1600.41" r="165" stroke="#132AF4" stroke-width="15"/>
<path d="M2762.5 1603.08C2762.5 1603.08 2781.19 1540.3 2827.19 1551.54C2873.19 1562.78 2883.25 1638.59 2924.94 1650.01C2966.62 1661.42 2995.38 1600.41 2995.38 1600.41" stroke="#132AF4" stroke-width="15"/>
<path d="M2942 1355.93C2942 1355.93 2942 1354.95 2942 1353C2942 1351.05 2943.05 1349.55 2945.15 1348.49H3012.49V1314.71L3012.72 1280.93C3014.22 1278.98 3015.65 1278 3017 1278C3018.95 1278 3020.45 1279.13 3021.5 1281.38V1348.49H3088.62C3090.87 1349.7 3092 1351.2 3092 1353C3092 1354.8 3090.87 1356.3 3088.62 1357.5H3021.5V1424.62C3020.3 1426.72 3018.95 1427.77 3017.45 1427.77H3017H3016.55C3014.75 1427.77 3013.39 1426.72 3012.49 1424.62V1357.5H2945.15C2943.05 1356.45 2942 1354.95 2942 1353V1355.93Z" fill="#132AF4" stroke="#132AF4" stroke-width="15"/>
<path d="M2942 1819.39C2942 1819.39 2942 1818.41 2942 1816.46C2942 1814.51 2943.05 1813.01 2945.15 1811.96H3076.01C3078.26 1813.16 3079.38 1814.66 3079.38 1816.46C3079.38 1818.26 3078.26 1819.76 3076.01 1820.97H2945.15C2943.05 1819.91 2942 1818.41 2942 1816.46V1819.39Z" fill="#132AF4" stroke="#132AF4" stroke-width="15"/>
<path d="M2878 897C2897.33 897 2913 912.67 2913 932C2913 951.33 2897.33 967 2878 967C2858.67 967 2843 951.33 2843 932C2843 912.67 2858.67 897 2878 897Z" fill="#132AF4"/>
<path d="M2877.82 1060.43L2818.14 1200.18L2818.14 1200.18C2818.08 1200.32 2818.05 1200.39 2818.08 1200.44C2818.12 1200.49 2818.19 1200.48 2818.34 1200.46L2878 1193.1L2937.66 1200.46C2937.81 1200.48 2937.88 1200.49 2937.92 1200.44C2937.95 1200.39 2937.92 1200.32 2937.86 1200.18L2878.18 1060.43C2878.11 1060.25 2878.07 1060.15 2878 1060.15C2877.93 1060.15 2877.89 1060.25 2877.82 1060.43Z" fill="#132AF4"/>
<path d="M2878 1193.1L2937.66 1200.46C2937.81 1200.48 2937.88 1200.49 2937.92 1200.44C2937.95 1200.39 2937.92 1200.32 2937.86 1200.18L2878.18 1060.43C2878.11 1060.25 2878.07 1060.15 2878 1060.15C2877.93 1060.15 2877.89 1060.25 2877.82 1060.43L2818.14 1200.18C2818.08 1200.32 2818.05 1200.39 2818.08 1200.44C2818.12 1200.49 2818.19 1200.48 2818.34 1200.46L2878 1193.1ZM2878 1193.1V1286" stroke="#132AF4" stroke-width="15"/>
<path d="M2388 1514.88C2388 1511.58 2388.98 1508.95 2390.93 1507H2393.41C2399.71 1507.45 2407.59 1507.68 2417.05 1507.68C2434.77 1507.68 2445.21 1507.45 2448.36 1507H2450.61C2451.51 1507.9 2451.96 1508.58 2451.96 1509.03C2451.96 1509.48 2451.81 1510.83 2451.51 1513.08C2450.76 1515.33 2450.09 1516.76 2449.49 1517.36H2444.76C2441.45 1517.66 2439.2 1517.81 2438 1517.81C2433.65 1518.56 2431.24 1519.69 2430.79 1521.19C2430.79 1521.49 2432.97 1540.33 2437.32 1577.72C2441.68 1615.11 2443.93 1633.95 2444.08 1634.25L2460.52 1607.9C2471.48 1590.33 2482.44 1572.62 2493.41 1554.75C2504.37 1536.88 2510 1527.65 2510.3 1527.04C2510.9 1525.99 2511.2 1524.87 2511.2 1523.67C2511.2 1520.06 2507.89 1517.96 2501.29 1517.36C2498.59 1517.36 2497.23 1516.53 2497.23 1514.88C2497.23 1514.73 2497.38 1513.76 2497.68 1511.95C2498.14 1509.85 2498.59 1508.5 2499.04 1507.9C2499.49 1507.3 2500.46 1507 2501.96 1507C2502.26 1507 2503.17 1507 2504.67 1507C2506.17 1507 2508.72 1507.07 2512.32 1507.22C2515.93 1507.37 2520.73 1507.45 2526.74 1507.45C2537.1 1507.45 2543.63 1507.3 2546.33 1507H2547.91C2548.96 1508.05 2549.49 1508.88 2549.49 1509.48C2549.49 1512.03 2548.81 1514.43 2547.46 1516.68C2547.01 1517.13 2545.73 1517.36 2543.63 1517.36C2541.68 1517.51 2539.88 1517.66 2538.23 1517.81C2536.57 1517.96 2535 1518.34 2533.5 1518.94C2531.99 1519.54 2530.79 1520.06 2529.89 1520.51C2528.99 1520.96 2528.09 1521.56 2527.19 1522.31C2526.29 1523.07 2525.54 1523.59 2524.94 1523.89C2524.34 1524.19 2523.74 1524.87 2523.14 1525.92C2522.53 1526.97 2522.01 1527.49 2521.56 1527.49L2478.09 1597.31C2451.06 1641.01 2437.1 1663.38 2436.2 1664.43C2435.75 1664.73 2435.22 1665.11 2434.62 1665.56L2430.57 1665.78H2428.99C2426.29 1665.78 2424.94 1665.26 2424.94 1664.21C2424.49 1663.31 2421.56 1639.28 2416.15 1592.13C2410.45 1544.39 2407.52 1520.29 2407.37 1519.84C2406.62 1518.19 2401.96 1517.36 2393.41 1517.36H2389.58C2388.53 1516.61 2388 1515.78 2388 1514.88Z" fill="#132AF4" stroke="#132AF4" stroke-width="15"/>
<path d="M2521.73 1694.62H2521.41C2519.92 1694.62 2519.18 1694.04 2519.18 1692.87C2519.18 1692.45 2519.34 1691.6 2519.66 1690.33C2520.08 1688.84 2520.46 1687.99 2520.77 1687.78C2521.09 1687.57 2522.1 1687.41 2523.8 1687.3C2532.93 1686.98 2540.09 1684.22 2545.3 1679.02C2546.36 1677.96 2552.51 1671.27 2563.77 1658.96C2575.02 1646.64 2580.59 1640.38 2580.49 1640.17C2568.92 1610.66 2562.86 1595.63 2562.33 1595.1C2561.38 1593.94 2558.03 1593.3 2552.3 1593.19H2547.84C2547.21 1592.56 2546.89 1592.13 2546.89 1591.92C2546.89 1591.71 2546.99 1590.7 2547.21 1588.89C2547.63 1587.51 2548.16 1586.5 2548.8 1585.87H2551.03C2554.64 1586.08 2561.06 1586.19 2570.3 1586.19C2573.8 1586.19 2577.04 1586.19 2580.01 1586.19C2582.98 1586.19 2585.37 1586.13 2587.17 1586.03C2588.98 1585.92 2590.04 1585.92 2590.36 1586.03C2592.16 1586.03 2593.07 1586.61 2593.07 1587.78C2593.07 1587.89 2592.96 1588.58 2592.75 1589.85C2592.32 1591.44 2591.95 1592.4 2591.63 1592.72C2591.31 1593.03 2590.47 1593.19 2589.09 1593.19C2585.79 1593.51 2582.93 1594.41 2580.49 1595.9L2592.75 1626.79L2601.19 1617.4C2612.33 1605.4 2617.91 1598.77 2617.91 1597.49C2617.91 1595.58 2616.63 1594.25 2614.09 1593.51C2613.55 1593.51 2612.86 1593.41 2612.02 1593.19C2610.42 1593.19 2609.63 1592.61 2609.63 1591.44C2609.63 1591.23 2609.73 1590.38 2609.95 1588.89C2610.37 1587.51 2610.9 1586.5 2611.54 1585.87H2613.45C2613.55 1585.87 2614.88 1585.87 2617.43 1585.87C2619.98 1585.87 2622.84 1585.97 2626.03 1586.19C2629.21 1586.4 2631.39 1586.45 2632.56 1586.35C2642.11 1586.35 2647.37 1586.19 2648.32 1585.87H2649.59C2650.34 1586.61 2650.71 1587.19 2650.71 1587.62C2650.5 1590.27 2649.86 1592.13 2648.8 1593.19H2646.25C2642.64 1593.3 2639.4 1593.78 2636.54 1594.63C2633.67 1595.48 2631.49 1596.38 2630.01 1597.33C2628.52 1598.29 2627.25 1599.24 2626.19 1600.2L2624.44 1601.63C2624.44 1601.53 2619.39 1607.05 2609.31 1618.19L2595.45 1633.48C2595.45 1633.59 2597.1 1637.83 2600.39 1646.22C2603.68 1654.6 2607.13 1663.2 2610.74 1672.01C2614.35 1680.82 2616.31 1685.39 2616.63 1685.71C2617.69 1686.66 2620.93 1687.19 2626.35 1687.3C2630.06 1687.3 2631.92 1687.78 2631.92 1688.73C2631.92 1688.95 2631.81 1689.69 2631.6 1690.96C2631.18 1692.66 2630.8 1693.67 2630.49 1693.99C2630.17 1694.31 2629.42 1694.47 2628.26 1694.47C2627.94 1694.47 2626.19 1694.47 2623 1694.47C2619.82 1694.47 2615.09 1694.41 2608.83 1694.31C2602.35 1694.31 2597.42 1694.31 2594.02 1694.31C2590.62 1694.31 2588.77 1694.36 2588.45 1694.47C2586.64 1694.47 2585.74 1693.99 2585.74 1693.03C2585.74 1692.93 2585.85 1692.13 2586.06 1690.64C2586.27 1689.58 2586.48 1688.84 2586.7 1688.41C2586.91 1687.99 2587.17 1687.72 2587.49 1687.62C2587.81 1687.51 2588.29 1687.41 2588.93 1687.3C2589.56 1687.19 2590.41 1687.14 2591.47 1687.14C2592.54 1687.14 2593.92 1686.77 2595.61 1686.03C2597.42 1685.18 2598.32 1684.65 2598.32 1684.43C2598.21 1684.43 2595.72 1678.22 2590.84 1665.8L2583.35 1647.01C2563.4 1668.67 2553.15 1680.08 2552.62 1681.25C2552.2 1682.1 2551.98 1682.74 2551.98 1683.16C2551.98 1685.18 2553.52 1686.5 2556.6 1687.14C2556.71 1687.14 2557.03 1687.14 2557.56 1687.14C2558.09 1687.14 2558.41 1687.19 2558.51 1687.3C2558.83 1687.3 2559.04 1687.3 2559.15 1687.3C2559.26 1687.3 2559.41 1687.35 2559.63 1687.46C2559.84 1687.57 2560 1687.72 2560.1 1687.94C2560.21 1688.15 2560.26 1688.52 2560.26 1689.05C2560.26 1690.01 2560.16 1690.86 2559.95 1691.6C2559.63 1692.98 2559.31 1693.78 2558.99 1693.99C2558.67 1694.2 2557.88 1694.36 2556.6 1694.47C2556.28 1694.47 2555.33 1694.47 2553.74 1694.47C2552.14 1694.47 2549.91 1694.41 2547.05 1694.31C2544.18 1694.2 2541.05 1694.2 2537.65 1694.31C2529.37 1694.31 2524.06 1694.41 2521.73 1694.62Z" fill="#132AF4" stroke="#132AF4" stroke-width="15"/>
<path d="M2530.83 1195.6C2528.28 1195.6 2527 1194.93 2527 1193.58C2527 1193.28 2527.23 1192.23 2527.68 1190.42C2528.43 1187.57 2529.18 1185.99 2529.93 1185.69C2530.38 1185.54 2531.5 1185.47 2533.31 1185.47H2534.66C2543.67 1185.47 2549.37 1184.94 2551.77 1183.89C2551.92 1183.89 2552.08 1183.82 2552.23 1183.67C2552.98 1183.37 2553.8 1181.64 2554.7 1178.49C2555.6 1175.33 2559.28 1160.62 2565.74 1134.34C2567.54 1127.59 2568.89 1122.26 2569.79 1118.35C2580.3 1076.31 2585.56 1055.14 2585.56 1054.84C2585.26 1054.24 2585.11 1053.86 2585.11 1053.71C2583.61 1052.81 2578.28 1052.36 2569.12 1052.36H2564.61C2563.26 1051.46 2562.96 1049.58 2563.71 1046.73C2564.31 1044.48 2564.76 1043.13 2565.06 1042.68C2565.36 1042.23 2566.41 1042 2568.22 1042H2569.12C2579.93 1042.3 2590.89 1042.45 2602 1042.45C2620.32 1042.45 2629.93 1042.3 2630.83 1042H2633.08C2634.13 1043.05 2634.66 1043.88 2634.66 1044.48C2634.66 1045.08 2634.43 1046.35 2633.98 1048.31C2633.53 1050.26 2633.01 1051.46 2632.41 1051.91C2631.95 1052.21 2630.23 1052.36 2627.23 1052.36C2622.57 1052.36 2617.77 1052.59 2612.81 1053.04C2610.71 1053.49 2609.28 1054.31 2608.53 1055.51C2607.48 1057.62 2603.65 1071.96 2597.05 1098.53C2595.39 1105.59 2593.74 1112.42 2592.09 1119.03C2581.58 1160.47 2576.32 1181.64 2576.32 1182.54C2576.32 1183.59 2577.08 1184.27 2578.58 1184.57C2580.08 1184.87 2583.98 1185.17 2590.29 1185.47H2597.5C2598.4 1186.67 2598.85 1187.35 2598.85 1187.5C2598.85 1187.65 2598.62 1189 2598.17 1191.55C2597.57 1193.5 2596.82 1194.93 2595.92 1195.83H2592.32C2586.76 1195.53 2576.47 1195.38 2561.46 1195.38C2556.05 1195.38 2551.1 1195.38 2546.59 1195.38C2542.09 1195.38 2538.49 1195.38 2535.78 1195.38C2533.08 1195.38 2531.43 1195.45 2530.83 1195.6Z" fill="#132AF4" stroke="#132AF4" stroke-width="15"/>
<path d="M2634.35 1229.63H2634.03C2632.54 1229.63 2631.8 1229.04 2631.8 1227.88C2631.8 1227.45 2631.96 1226.6 2632.28 1225.33C2632.7 1223.84 2633.07 1222.99 2633.39 1222.78C2633.71 1222.57 2634.72 1222.41 2636.42 1222.3C2645.55 1221.98 2652.71 1219.22 2657.92 1214.02C2658.98 1212.96 2665.13 1206.27 2676.39 1193.96C2687.64 1181.65 2693.21 1175.38 2693.11 1175.17C2681.53 1145.66 2675.48 1130.64 2674.95 1130.11C2674 1128.94 2670.65 1128.3 2664.92 1128.2H2660.46C2659.83 1127.56 2659.51 1127.13 2659.51 1126.92C2659.51 1126.71 2659.61 1125.7 2659.83 1123.9C2660.25 1122.52 2660.78 1121.51 2661.42 1120.87H2663.65C2667.26 1121.08 2673.68 1121.19 2682.91 1121.19C2686.42 1121.19 2689.66 1121.19 2692.63 1121.19C2695.6 1121.19 2697.99 1121.14 2699.79 1121.03C2701.6 1120.92 2702.66 1120.92 2702.98 1121.03C2704.78 1121.03 2705.69 1121.61 2705.69 1122.78C2705.69 1122.89 2705.58 1123.58 2705.37 1124.85C2704.94 1126.44 2704.57 1127.4 2704.25 1127.72C2703.93 1128.04 2703.08 1128.2 2701.7 1128.2C2698.41 1128.51 2695.55 1129.42 2693.11 1130.9L2705.37 1161.79L2713.81 1152.4C2724.95 1140.4 2730.53 1133.77 2730.53 1132.5C2730.53 1130.58 2729.25 1129.26 2726.7 1128.51C2726.17 1128.51 2725.48 1128.41 2724.63 1128.2C2723.04 1128.2 2722.25 1127.61 2722.25 1126.44C2722.25 1126.23 2722.35 1125.38 2722.56 1123.9C2722.99 1122.52 2723.52 1121.51 2724.16 1120.87H2726.07C2726.17 1120.87 2727.5 1120.87 2730.05 1120.87C2732.6 1120.87 2735.46 1120.98 2738.65 1121.19C2741.83 1121.4 2744.01 1121.45 2745.18 1121.35C2754.73 1121.35 2759.98 1121.19 2760.94 1120.87H2762.21C2762.96 1121.61 2763.33 1122.2 2763.33 1122.62C2763.12 1125.28 2762.48 1127.13 2761.42 1128.2H2758.87C2755.26 1128.3 2752.02 1128.78 2749.16 1129.63C2746.29 1130.48 2744.11 1131.38 2742.63 1132.34C2741.14 1133.29 2739.87 1134.25 2738.81 1135.2L2737.05 1136.64C2737.05 1136.53 2732.01 1142.05 2721.93 1153.2L2708.07 1168.48C2708.07 1168.59 2709.72 1172.83 2713.01 1181.22C2716.3 1189.61 2719.75 1198.21 2723.36 1207.02C2726.97 1215.83 2728.93 1220.39 2729.25 1220.71C2730.31 1221.67 2733.55 1222.2 2738.97 1222.3C2742.68 1222.3 2744.54 1222.78 2744.54 1223.74C2744.54 1223.95 2744.43 1224.69 2744.22 1225.97C2743.8 1227.66 2743.42 1228.67 2743.11 1228.99C2742.79 1229.31 2742.04 1229.47 2740.88 1229.47C2740.56 1229.47 2738.81 1229.47 2735.62 1229.47C2732.44 1229.47 2727.71 1229.42 2721.45 1229.31C2714.97 1229.31 2710.04 1229.31 2706.64 1229.31C2703.24 1229.31 2701.39 1229.36 2701.07 1229.47C2699.26 1229.47 2698.36 1228.99 2698.36 1228.04C2698.36 1227.93 2698.47 1227.13 2698.68 1225.65C2698.89 1224.59 2699.1 1223.84 2699.32 1223.42C2699.53 1222.99 2699.79 1222.73 2700.11 1222.62C2700.43 1222.52 2700.91 1222.41 2701.55 1222.3C2702.18 1222.2 2703.03 1222.14 2704.09 1222.14C2705.15 1222.14 2706.53 1221.77 2708.23 1221.03C2710.04 1220.18 2710.94 1219.65 2710.94 1219.44C2710.83 1219.44 2708.34 1213.23 2703.46 1200.81L2695.97 1182.02C2676.01 1203.67 2665.77 1215.08 2665.24 1216.25C2664.82 1217.1 2664.6 1217.74 2664.6 1218.16C2664.6 1220.18 2666.14 1221.51 2669.22 1222.14C2669.33 1222.14 2669.65 1222.14 2670.18 1222.14C2670.71 1222.14 2671.03 1222.2 2671.13 1222.3C2671.45 1222.3 2671.66 1222.3 2671.77 1222.3C2671.87 1222.3 2672.03 1222.36 2672.25 1222.46C2672.46 1222.57 2672.62 1222.73 2672.72 1222.94C2672.83 1223.15 2672.88 1223.52 2672.88 1224.05C2672.88 1225.01 2672.78 1225.86 2672.56 1226.6C2672.25 1227.98 2671.93 1228.78 2671.61 1228.99C2671.29 1229.2 2670.49 1229.36 2669.22 1229.47C2668.9 1229.47 2667.95 1229.47 2666.35 1229.47C2664.76 1229.47 2662.53 1229.42 2659.67 1229.31C2656.8 1229.2 2653.67 1229.2 2650.27 1229.31C2641.99 1229.31 2636.68 1229.42 2634.35 1229.63Z" fill="#132AF4" stroke="#132AF4" stroke-width="15"/>
<path d="M2439 243.968C2439 243.968 2439 242.992 2439 241.041C2439 239.089 2440.05 237.587 2442.16 236.536H2509.5V202.753L2509.72 168.97C2511.22 167.018 2512.65 166.042 2514 166.042C2515.95 166.042 2517.45 167.168 2518.5 169.421V236.536H2585.62C2587.87 237.737 2589 239.239 2589 241.041C2589 242.842 2587.87 244.344 2585.62 245.545H2518.5V312.66C2517.3 314.762 2515.95 315.813 2514.45 315.813H2514H2513.55C2511.75 315.813 2510.4 314.762 2509.5 312.66V245.545H2442.16C2440.05 244.494 2439 242.992 2439 241.041V243.968Z" fill="#132AF4" stroke="#132AF4" stroke-width="15"/>
<path d="M2439 852.433C2439 852.433 2439 851.457 2439 849.505C2439 847.553 2440.05 846.052 2442.16 845.001H2573.01C2575.26 846.202 2576.39 847.704 2576.39 849.505C2576.39 851.307 2575.26 852.809 2573.01 854.01H2442.16C2440.05 852.959 2439 851.457 2439 849.505V852.433Z" fill="#132AF4" stroke="#132AF4" stroke-width="15"/>
<path d="M2415 468.883C2415 465.58 2415.98 462.952 2417.93 461H2420.41C2426.71 461.451 2434.59 461.676 2444.05 461.676C2461.77 461.676 2472.21 461.451 2475.36 461H2477.61C2478.51 461.901 2478.96 462.577 2478.96 463.027C2478.96 463.478 2478.81 464.829 2478.51 467.081C2477.76 469.334 2477.09 470.76 2476.49 471.361H2471.76C2468.45 471.661 2466.2 471.811 2465 471.811C2460.65 472.562 2458.24 473.688 2457.79 475.19C2457.79 475.49 2459.97 494.334 2464.32 531.721C2468.68 569.109 2470.93 587.952 2471.08 588.253L2487.52 561.901C2498.48 544.334 2509.44 526.616 2520.41 508.748C2531.37 490.88 2537 481.646 2537.3 481.045C2537.9 479.994 2538.2 478.868 2538.2 477.667C2538.2 474.063 2534.89 471.961 2528.29 471.361C2525.59 471.361 2524.23 470.535 2524.23 468.883C2524.23 468.733 2524.38 467.757 2524.68 465.955C2525.14 463.853 2525.59 462.502 2526.04 461.901C2526.49 461.301 2527.46 461 2528.96 461C2529.26 461 2530.17 461 2531.67 461C2533.17 461 2535.72 461.075 2539.32 461.226C2542.93 461.376 2547.73 461.451 2553.74 461.451C2564.1 461.451 2570.63 461.301 2573.33 461H2574.91C2575.96 462.051 2576.49 462.877 2576.49 463.478C2576.49 466.03 2575.81 468.433 2574.46 470.685C2574.01 471.136 2572.73 471.361 2570.63 471.361C2568.68 471.511 2566.88 471.661 2565.23 471.811C2563.57 471.961 2562 472.337 2560.5 472.937C2558.99 473.538 2557.79 474.063 2556.89 474.514C2555.99 474.964 2555.09 475.565 2554.19 476.316C2553.29 477.066 2552.54 477.592 2551.94 477.892C2551.34 478.193 2550.74 478.868 2550.14 479.919C2549.53 480.97 2549.01 481.496 2548.56 481.496L2505.09 551.316C2478.06 595.009 2464.1 617.382 2463.2 618.433C2462.75 618.733 2462.22 619.109 2461.62 619.559L2457.57 619.784H2455.99C2453.29 619.784 2451.94 619.259 2451.94 618.208C2451.49 617.307 2448.56 593.283 2443.15 546.136C2437.45 498.388 2434.52 474.289 2434.37 473.838C2433.62 472.187 2428.96 471.361 2420.41 471.361H2416.58C2415.53 470.61 2415 469.784 2415 468.883Z" fill="#132AF4" stroke="#132AF4" stroke-width="15"/>
<path d="M2575.95 556.572L2573.88 557.368C2572.39 557.899 2570.27 558.43 2567.51 558.961C2564.75 559.491 2561.67 559.863 2558.27 560.075H2555.25V552.75H2558.27C2563.26 552.538 2567.88 551.742 2572.12 550.362C2576.37 548.982 2579.34 547.708 2581.04 546.54C2582.74 545.373 2584.23 544.205 2585.5 543.037C2585.71 542.719 2586.35 542.559 2587.41 542.559C2588.37 542.559 2589.27 542.878 2590.12 543.515V591.126L2590.28 638.896C2591.02 639.639 2591.66 640.117 2592.19 640.329C2592.72 640.542 2593.99 640.754 2596.01 640.966C2598.03 641.178 2601.32 641.285 2605.88 641.285H2610.02V648.609H2608.27C2606.04 648.291 2597.6 648.132 2582.95 648.132C2568.52 648.132 2560.18 648.291 2557.95 648.609H2556.04V641.285H2560.18C2562.52 641.285 2564.53 641.285 2566.23 641.285C2567.93 641.285 2569.26 641.232 2570.21 641.125C2571.17 641.019 2572.02 640.86 2572.76 640.648C2573.5 640.435 2573.93 640.329 2574.04 640.329C2574.14 640.329 2574.46 640.064 2574.99 639.533C2575.52 639.002 2575.84 638.79 2575.95 638.896V556.572Z" fill="#132AF4" stroke="#132AF4" stroke-width="15"/>
<path d="M3908.41 468.885C3908.41 465.582 3909.38 462.954 3911.33 461.002H3913.81C3920.12 461.453 3928 461.678 3937.46 461.678C3955.18 461.678 3965.61 461.453 3968.77 461.002H3971.02C3971.92 461.903 3972.37 462.579 3972.37 463.029C3972.37 463.48 3972.22 464.831 3971.92 467.083C3971.17 469.336 3970.49 470.762 3969.89 471.363H3965.16C3961.86 471.663 3959.61 471.813 3958.41 471.813C3954.05 472.564 3951.65 473.69 3951.2 475.192C3951.2 475.492 3953.38 494.336 3957.73 531.723C3962.08 569.11 3964.34 587.954 3964.49 588.255L3980.93 561.903C3991.89 544.336 4002.85 526.618 4013.81 508.75C4024.77 490.882 4030.4 481.648 4030.7 481.047C4031.3 479.996 4031.6 478.87 4031.6 477.669C4031.6 474.065 4028.3 471.963 4021.69 471.363C4018.99 471.363 4017.64 470.537 4017.64 468.885C4017.64 468.735 4017.79 467.759 4018.09 465.957C4018.54 463.855 4018.99 462.504 4019.44 461.903C4019.89 461.303 4020.87 461.002 4022.37 461.002C4022.67 461.002 4023.57 461.002 4025.07 461.002C4026.57 461.002 4029.13 461.077 4032.73 461.228C4036.33 461.378 4041.14 461.453 4047.14 461.453C4057.51 461.453 4064.04 461.303 4066.74 461.002H4068.32C4069.37 462.053 4069.89 462.879 4069.89 463.48C4069.89 466.032 4069.22 468.435 4067.87 470.687C4067.42 471.137 4066.14 471.363 4064.04 471.363C4062.08 471.513 4060.28 471.663 4058.63 471.813C4056.98 471.963 4055.4 472.339 4053.9 472.939C4052.4 473.54 4051.2 474.065 4050.3 474.516C4049.4 474.966 4048.5 475.567 4047.6 476.318C4046.69 477.068 4045.94 477.594 4045.34 477.894C4044.74 478.195 4044.14 478.87 4043.54 479.921C4042.94 480.972 4042.42 481.498 4041.96 481.498L3998.5 551.318C3971.47 595.011 3957.51 617.384 3956.6 618.435C3956.15 618.735 3955.63 619.11 3955.03 619.561L3950.97 619.786H3949.4C3946.69 619.786 3945.34 619.261 3945.34 618.21C3944.89 617.309 3941.96 593.285 3936.56 546.137C3930.85 498.39 3927.93 474.291 3927.78 473.84C3927.02 472.189 3922.37 471.363 3913.81 471.363H3909.98C3908.93 470.612 3908.41 469.786 3908.41 468.885Z" fill="#132AF4" stroke="#132AF4" stroke-width="15"/>
<path d="M4069.35 556.574L4067.28 557.37C4065.8 557.901 4063.67 558.432 4060.91 558.962C4058.15 559.493 4055.07 559.865 4051.68 560.077H4048.65V552.752H4051.68C4056.67 552.54 4061.28 551.744 4065.53 550.364C4069.78 548.984 4072.75 547.71 4074.45 546.542C4076.15 545.374 4077.63 544.207 4078.91 543.039C4079.12 542.721 4079.76 542.561 4080.82 542.561C4081.77 542.561 4082.68 542.88 4083.52 543.517V591.128L4083.68 638.898C4084.43 639.641 4085.06 640.119 4085.59 640.331C4086.13 640.543 4087.4 640.756 4089.42 640.968C4091.43 641.18 4094.72 641.287 4099.29 641.287H4103.43V648.611H4101.68C4099.45 648.293 4091.01 648.134 4076.36 648.134C4061.92 648.134 4053.59 648.293 4051.36 648.611H4049.45V641.287H4053.59C4055.92 641.287 4057.94 641.287 4059.64 641.287C4061.34 641.287 4062.66 641.233 4063.62 641.127C4064.58 641.021 4065.43 640.862 4066.17 640.65C4066.91 640.437 4067.34 640.331 4067.44 640.331C4067.55 640.331 4067.87 640.066 4068.4 639.535C4068.93 639.004 4069.25 638.792 4069.35 638.898V556.574Z" fill="#132AF4" stroke="#132AF4" stroke-width="15"/>
<path d="M5378.79 605.149C5376.54 607.101 5373.24 609.203 5368.88 611.455C5364.53 613.708 5359.95 614.834 5355.14 614.834C5345.68 614.834 5338.1 611.455 5332.4 604.699C5326.69 597.942 5323.76 589.308 5323.61 578.798C5323.61 563.032 5329.39 548.542 5340.95 535.329C5352.52 522.116 5365.35 515.434 5379.47 515.284C5386.53 515.284 5393.06 518.888 5399.06 526.095L5399.74 525.194C5400.04 524.744 5400.41 524.293 5400.86 523.843C5401.32 523.392 5401.99 522.792 5402.89 522.041C5403.79 521.29 5404.77 520.765 5405.82 520.464C5406.87 520.164 5408.07 519.939 5409.42 519.789C5411.53 519.789 5413.25 520.464 5414.6 521.816C5415.95 523.167 5416.71 524.593 5416.86 526.095C5416.86 528.347 5412.58 546.515 5404.02 580.599C5395.46 614.684 5390.95 632.101 5390.5 632.852C5387.8 640.96 5382.02 647.642 5373.16 652.897C5364.3 658.152 5354.17 660.855 5342.76 661.005C5321.59 661.005 5311 655.9 5311 645.69C5311 641.786 5312.35 638.332 5315.05 635.329C5317.76 632.326 5321.21 630.825 5325.41 630.825C5327.67 630.825 5329.77 631.5 5331.72 632.852C5333.67 634.203 5334.72 636.53 5334.87 639.834C5334.87 641.335 5334.72 642.762 5334.42 644.113C5334.12 645.464 5333.6 646.515 5332.85 647.266C5332.1 648.017 5331.5 648.768 5331.05 649.518C5330.59 650.269 5330.07 650.87 5329.47 651.32L5329.02 651.771H5329.24C5330.74 652.221 5335.25 652.446 5342.76 652.446C5348.46 652.446 5352.97 651.545 5356.27 649.744C5359.72 648.092 5362.95 645.614 5365.95 642.311C5368.96 639.008 5371.06 635.479 5372.26 631.726C5373.16 628.873 5374.36 624.218 5375.86 617.762C5377.82 610.554 5378.79 606.35 5378.79 605.149ZM5395.23 540.96L5394.33 538.482C5393.88 536.831 5393.51 535.705 5393.21 535.104C5392.91 534.503 5392.46 533.452 5391.86 531.951C5391.26 530.449 5390.5 529.398 5389.6 528.798C5388.7 528.197 5387.73 527.371 5386.68 526.32C5385.62 525.269 5384.27 524.593 5382.62 524.293C5380.97 523.993 5379.32 523.768 5377.67 523.618C5371.06 523.618 5364.68 527.596 5358.52 535.554C5354.02 541.41 5350.26 550.344 5347.26 562.356C5344.26 574.368 5342.76 583.077 5342.76 588.482C5342.76 600.344 5347.41 606.275 5356.72 606.275C5365.13 606.275 5373.39 601.02 5381.5 590.509L5383.3 588.257L5395.23 540.96Z" fill="#132AF4" stroke="#132AF4" stroke-width="15"/>
<path d="M5426.95 602.923C5427.06 602.286 5427.21 601.437 5427.43 600.375C5427.64 599.314 5428.28 597.297 5429.34 594.325C5430.4 591.352 5431.46 588.858 5432.52 586.841C5433.58 584.824 5435.28 582.86 5437.62 580.949C5439.95 579.038 5442.29 578.136 5444.62 578.242C5446.96 578.348 5449.24 578.72 5451.47 579.357C5453.7 579.993 5455.29 580.949 5456.25 582.223C5457.2 583.497 5458.05 584.664 5458.8 585.726C5459.54 586.787 5459.96 587.796 5460.07 588.751L5460.39 589.866C5460.39 590.078 5460.44 590.184 5460.55 590.184L5462.3 588.433C5468.67 581.639 5476.15 578.242 5484.75 578.242C5486.56 578.242 5488.2 578.348 5489.69 578.56C5491.17 578.773 5492.55 579.144 5493.83 579.675C5495.1 580.206 5496.11 580.737 5496.85 581.267C5497.6 581.798 5498.39 582.435 5499.24 583.178C5500.09 583.921 5500.62 584.611 5500.83 585.248C5501.05 585.885 5501.47 586.575 5502.11 587.318C5502.74 588.061 5502.96 588.698 5502.74 589.229C5502.53 589.76 5502.69 590.238 5503.22 590.662C5503.75 591.087 5503.86 591.458 5503.54 591.777L5504.81 590.184C5511.5 582.223 5519.41 578.242 5528.54 578.242C5534.27 578.242 5538.89 579.675 5542.39 582.541C5545.9 585.407 5547.7 589.601 5547.81 595.121C5547.81 600.535 5545.79 608.921 5541.76 620.28C5537.72 631.638 5535.71 638.432 5535.71 640.662C5535.81 642.148 5536.08 643.156 5536.5 643.687C5536.93 644.218 5537.72 644.483 5538.89 644.483C5541.86 644.483 5544.62 642.891 5547.17 639.706C5549.72 636.522 5551.79 632.169 5553.38 626.649C5553.7 625.481 5554.02 624.791 5554.34 624.579C5554.66 624.367 5555.5 624.261 5556.88 624.261C5559.01 624.261 5560.07 624.685 5560.07 625.534C5560.07 625.641 5559.86 626.437 5559.43 627.923C5558.58 631.002 5557.42 634.027 5555.93 636.999C5554.44 639.972 5552 642.944 5548.6 645.916C5545.21 648.889 5541.54 650.322 5537.62 650.216C5532.63 650.216 5529.02 648.783 5526.79 645.916C5524.56 643.05 5523.45 640.078 5523.45 636.999C5523.45 634.982 5525.36 628.613 5529.18 617.891C5533 607.169 5534.96 599.102 5535.07 593.688C5535.07 587.424 5532.73 584.293 5528.06 584.293H5527.27C5518.14 584.293 5510.44 589.654 5504.18 600.375L5503.06 602.286L5497.81 623.624C5494.31 637.53 5492.29 645.014 5491.76 646.076C5490.38 648.942 5488.1 650.375 5484.91 650.375C5483.53 650.375 5482.42 650.003 5481.57 649.26C5480.72 648.517 5480.13 647.88 5479.81 647.35C5479.5 646.819 5479.34 646.288 5479.34 645.757C5479.34 644.589 5481.14 636.999 5484.75 622.987L5490.48 599.739C5490.8 598.146 5490.96 596.129 5490.96 593.688C5490.96 587.424 5488.63 584.293 5483.96 584.293H5483.16C5474.03 584.293 5466.33 589.654 5460.07 600.375L5458.96 602.286L5453.7 623.624C5450.2 637.53 5448.18 645.014 5447.65 646.076C5446.27 648.942 5443.99 650.375 5440.8 650.375C5439.42 650.375 5438.31 650.057 5437.46 649.42C5436.61 648.783 5436.03 648.146 5435.71 647.509C5435.39 646.872 5435.28 646.341 5435.39 645.916C5435.39 644.536 5437.41 635.832 5441.44 619.802C5445.58 603.454 5447.65 594.908 5447.65 594.165C5447.97 592.573 5448.13 591.14 5448.13 589.866C5448.13 586.044 5446.8 584.134 5444.15 584.134C5441.81 584.134 5439.85 585.62 5438.25 588.592C5436.66 591.564 5435.44 594.802 5434.59 598.305C5433.74 601.809 5433.11 603.719 5432.68 604.038C5432.47 604.25 5431.62 604.356 5430.13 604.356H5427.9C5427.27 603.719 5426.95 603.242 5426.95 602.923Z" fill="#132AF4" stroke="#132AF4" stroke-width="5"/>
<path d="M5575.05 545.599C5575.05 544.537 5575.26 543.317 5575.69 541.937C5576.11 540.556 5576.75 539.866 5577.6 539.866C5577.71 539.866 5581.53 539.601 5589.06 539.07C5596.6 538.54 5600.48 538.221 5600.69 538.115C5601.96 538.115 5602.6 538.593 5602.6 539.548C5602.6 540.503 5600.79 548.094 5597.19 562.318C5596.34 565.928 5595.43 569.643 5594.48 573.465C5593.52 577.286 5592.73 580.153 5592.09 582.064L5591.45 585.089C5591.45 585.407 5591.77 585.248 5592.41 584.611C5597.61 580.365 5602.97 578.242 5608.49 578.242C5615.07 578.242 5620.38 580.683 5624.41 585.567C5628.45 590.45 5630.52 596.607 5630.62 604.038C5630.62 615.821 5626.43 626.49 5618.04 636.044C5609.66 645.598 5600.64 650.375 5590.98 650.375C5585.67 650.375 5580.84 648.358 5576.48 644.324C5572.13 640.29 5569.9 633.762 5569.8 624.738V623.305C5569.8 621.076 5570.22 617.997 5571.07 614.07C5571.92 610.142 5574.52 599.685 5578.87 582.7C5584.18 561.788 5586.83 550.694 5586.83 549.421C5586.83 548.147 5584.82 547.404 5580.78 547.191C5580.25 547.191 5579.83 547.191 5579.51 547.191H5578.71C5577.65 547.191 5576.96 547.191 5576.64 547.191C5576.33 547.191 5575.95 547.032 5575.53 546.714C5575.1 546.395 5574.95 546.024 5575.05 545.599ZM5616.93 596.872V595.917C5616.93 588.061 5613.69 584.134 5607.22 584.134C5605.41 584.134 5603.55 584.558 5601.64 585.407C5599.73 586.257 5597.98 587.371 5596.39 588.751C5594.8 590.131 5593.42 591.405 5592.25 592.573C5591.08 593.741 5590.13 594.908 5589.38 596.076L5588.43 597.35L5585.08 611.044C5582.75 620.174 5581.58 626.649 5581.58 630.471C5581.58 635.566 5582.85 639.388 5585.4 641.936C5587.1 643.634 5589.22 644.483 5591.77 644.483C5595.27 644.483 5598.83 642.785 5602.44 639.388C5605.09 636.946 5607.22 633.974 5608.81 630.471C5610.4 626.968 5612.15 621.394 5614.06 613.751C5615.97 606.108 5616.93 600.482 5616.93 596.872Z" fill="#132AF4" stroke="#132AF4" stroke-width="5"/>
<path d="M5640.39 581.738C5637.53 581.738 5635.25 580.783 5633.55 578.872C5631.85 576.961 5631 574.626 5631 571.866C5631 564.329 5633.81 557.8 5639.44 552.28C5645.07 546.76 5652.07 544 5660.46 544C5670.12 544 5678.19 546.972 5684.66 552.917C5691.14 558.862 5694.43 566.558 5694.53 576.006C5694.53 580.571 5693.47 584.923 5691.35 589.063C5689.23 593.203 5686.68 596.812 5683.71 599.891C5680.73 602.97 5676.49 606.897 5670.97 611.674C5667.15 614.965 5661.84 619.848 5655.04 626.324L5645.65 635.241L5657.75 635.4C5674.42 635.4 5683.28 635.135 5684.34 634.604C5685.09 634.392 5686.36 629.668 5688.17 620.432V619.955H5694.53V620.432C5694.43 620.751 5693.74 625.581 5692.46 634.923C5691.19 644.264 5690.39 649.147 5690.08 649.572V650.05H5631V647.024V645.114C5631 644.37 5631.32 643.574 5631.96 642.725C5632.59 641.876 5634.18 640.018 5636.73 637.152C5639.81 633.755 5642.46 630.782 5644.69 628.235C5645.65 627.173 5647.45 625.209 5650.11 622.343C5652.76 619.477 5654.57 617.513 5655.52 616.451C5656.48 615.39 5658.02 613.638 5660.14 611.197C5662.26 608.755 5663.75 606.95 5664.6 605.783C5665.45 604.615 5666.67 603.023 5668.26 601.006C5669.85 598.989 5670.97 597.29 5671.6 595.91C5672.24 594.53 5673.04 592.991 5673.99 591.292C5674.95 589.594 5675.64 587.895 5676.06 586.197C5676.49 584.498 5676.86 582.906 5677.18 581.42C5677.5 579.934 5677.66 578.182 5677.66 576.165C5677.66 569.477 5675.85 563.692 5672.24 558.809C5668.63 553.925 5663.48 551.484 5656.8 551.484C5653.29 551.484 5650.21 552.386 5647.56 554.191C5644.91 555.995 5643.05 557.747 5641.99 559.446C5640.93 561.144 5640.39 562.153 5640.39 562.471C5640.39 562.577 5640.66 562.63 5641.19 562.63C5643.1 562.63 5645.07 563.373 5647.08 564.859C5649.1 566.346 5650.11 568.787 5650.11 572.184C5650.11 574.838 5649.26 577.067 5647.56 578.872C5645.86 580.677 5643.47 581.632 5640.39 581.738Z" fill="#132AF4" stroke="#132AF4" stroke-width="5"/>
<path d="M5716 468.883C5716 465.58 5716.98 462.952 5718.93 461H5721.41C5727.71 461.451 5735.59 461.676 5745.05 461.676C5762.77 461.676 5773.21 461.451 5776.36 461H5778.61C5779.51 461.901 5779.96 462.577 5779.96 463.027C5779.96 463.478 5779.81 464.829 5779.51 467.082C5778.76 469.334 5778.09 470.76 5777.49 471.361H5772.76C5769.45 471.661 5767.2 471.811 5766 471.811C5761.65 472.562 5759.24 473.688 5758.79 475.19C5758.79 475.49 5760.97 494.334 5765.32 531.721C5769.68 569.109 5771.93 587.952 5772.08 588.253L5788.52 561.901C5799.48 544.334 5810.44 526.616 5821.41 508.748C5832.37 490.88 5838 481.646 5838.3 481.045C5838.9 479.994 5839.2 478.868 5839.2 477.667C5839.2 474.063 5835.89 471.961 5829.29 471.361C5826.59 471.361 5825.23 470.535 5825.23 468.883C5825.23 468.733 5825.38 467.757 5825.68 465.955C5826.14 463.853 5826.59 462.502 5827.04 461.901C5827.49 461.301 5828.46 461 5829.96 461C5830.26 461 5831.17 461 5832.67 461C5834.17 461 5836.72 461.076 5840.32 461.226C5843.93 461.376 5848.73 461.451 5854.74 461.451C5865.1 461.451 5871.63 461.301 5874.33 461H5875.91C5876.96 462.051 5877.49 462.877 5877.49 463.478C5877.49 466.03 5876.81 468.433 5875.46 470.685C5875.01 471.136 5873.73 471.361 5871.63 471.361C5869.68 471.511 5867.88 471.661 5866.23 471.811C5864.57 471.961 5863 472.337 5861.5 472.937C5859.99 473.538 5858.79 474.063 5857.89 474.514C5856.99 474.964 5856.09 475.565 5855.19 476.316C5854.29 477.066 5853.54 477.592 5852.94 477.892C5852.34 478.193 5851.74 478.868 5851.14 479.919C5850.53 480.97 5850.01 481.496 5849.56 481.496L5806.09 551.316C5779.06 595.009 5765.1 617.382 5764.2 618.433C5763.75 618.733 5763.22 619.109 5762.62 619.559L5758.57 619.784H5756.99C5754.29 619.784 5752.94 619.259 5752.94 618.208C5752.49 617.307 5749.56 593.283 5744.15 546.136C5738.45 498.388 5735.52 474.289 5735.37 473.838C5734.62 472.187 5729.96 471.361 5721.41 471.361H5717.58C5716.53 470.61 5716 469.784 5716 468.883Z" fill="#132AF4" stroke="#132AF4" stroke-width="15"/>
<path d="M5854.64 545.599C5854.64 544.537 5854.85 543.317 5855.27 541.937C5855.7 540.556 5856.34 539.866 5857.19 539.866C5857.29 539.866 5861.11 539.601 5868.65 539.07C5876.19 538.54 5880.06 538.221 5880.27 538.115C5881.55 538.115 5882.19 538.593 5882.19 539.548C5882.19 540.503 5880.38 548.094 5876.77 562.318C5875.92 565.928 5875.02 569.643 5874.06 573.465C5873.11 577.286 5872.31 580.153 5871.68 582.064L5871.04 585.089C5871.04 585.407 5871.36 585.248 5871.99 584.611C5877.2 580.365 5882.56 578.242 5888.08 578.242C5894.66 578.242 5899.97 580.683 5904 585.567C5908.03 590.45 5910.1 596.607 5910.21 604.038C5910.21 615.821 5906.02 626.49 5897.63 636.044C5889.24 645.598 5880.22 650.375 5870.56 650.375C5865.25 650.375 5860.42 648.358 5856.07 644.324C5851.72 640.29 5849.49 633.762 5849.38 624.738V623.305C5849.38 621.076 5849.81 617.997 5850.66 614.07C5851.51 610.142 5854.11 599.685 5858.46 582.7C5863.77 561.788 5866.42 550.694 5866.42 549.421C5866.42 548.147 5864.4 547.404 5860.37 547.191C5859.84 547.191 5859.41 547.191 5859.1 547.191H5858.3C5857.24 547.191 5856.55 547.191 5856.23 547.191C5855.91 547.191 5855.54 547.032 5855.12 546.714C5854.69 546.395 5854.53 546.024 5854.64 545.599ZM5896.52 596.872V595.917C5896.52 588.061 5893.28 584.134 5886.8 584.134C5885 584.134 5883.14 584.558 5881.23 585.407C5879.32 586.257 5877.57 587.371 5875.97 588.751C5874.38 590.131 5873 591.405 5871.83 592.573C5870.67 593.741 5869.71 594.908 5868.97 596.076L5868.01 597.35L5864.67 611.044C5862.33 620.174 5861.17 626.649 5861.17 630.471C5861.17 635.566 5862.44 639.388 5864.99 641.936C5866.69 643.634 5868.81 644.483 5871.36 644.483C5874.86 644.483 5878.42 642.785 5882.03 639.388C5884.68 636.946 5886.8 633.974 5888.4 630.471C5889.99 626.968 5891.74 621.394 5893.65 613.751C5895.56 606.108 5896.52 600.482 5896.52 596.872Z" fill="#132AF4" stroke="#132AF4" stroke-width="5"/>
<path d="M5932.19 602.602C5932.19 599.205 5933.04 595.755 5934.74 592.252C5936.44 588.748 5939.41 585.511 5943.65 582.538C5947.9 579.566 5953.05 578.133 5959.1 578.239C5965.68 578.239 5970.46 579.672 5973.43 582.538C5976.4 585.405 5977.94 588.589 5978.05 592.092C5978.05 595.489 5977.15 597.984 5975.34 599.576C5973.54 601.169 5971.52 602.018 5969.29 602.124C5967.91 602.124 5966.64 601.7 5965.47 600.85C5964.3 600.001 5963.67 598.621 5963.56 596.71C5963.56 595.012 5964.04 593.526 5964.99 592.252C5965.95 590.978 5966.85 590.022 5967.7 589.385C5968.55 588.748 5969.24 588.43 5969.77 588.43C5969.88 588.43 5969.93 588.377 5969.93 588.271C5969.93 587.952 5969.56 587.475 5968.81 586.838C5968.07 586.201 5966.74 585.617 5964.83 585.086C5962.92 584.555 5960.85 584.237 5958.62 584.131C5953.53 584.131 5949.81 585.511 5947.48 588.271C5945.14 591.031 5943.92 593.844 5943.81 596.71C5943.81 599.364 5944.82 601.222 5946.84 602.283C5948.86 603.345 5951.78 604.247 5955.6 604.99C5959.42 605.733 5962.18 606.53 5963.88 607.379C5970.88 610.457 5974.39 615.553 5974.39 622.665C5974.39 625.638 5973.8 628.61 5972.64 631.582C5971.47 634.555 5969.72 637.527 5967.38 640.5C5965.05 643.472 5961.7 645.807 5957.35 647.506C5953 649.204 5948.01 650.107 5942.38 650.213C5934.21 650.213 5928.42 648.674 5925.02 645.595C5921.63 642.517 5919.88 638.907 5919.77 634.767C5919.77 630.627 5920.88 627.655 5923.11 625.85C5925.34 624.045 5927.68 623.143 5930.12 623.143C5931.71 623.143 5933.2 623.621 5934.58 624.576C5935.96 625.532 5936.7 627.177 5936.81 629.512C5936.81 632.273 5935.85 634.608 5933.94 636.519C5932.03 638.43 5930.39 639.385 5929.01 639.385C5928.79 639.491 5928.63 639.544 5928.53 639.544C5928.42 639.544 5928.37 639.65 5928.37 639.863C5928.47 640.181 5928.9 640.606 5929.64 641.137C5930.39 641.667 5932.03 642.357 5934.58 643.207C5937.13 644.056 5940.05 644.427 5943.34 644.321C5947.16 644.321 5950.45 643.737 5953.21 642.57C5955.97 641.402 5957.99 639.916 5959.26 638.111C5960.53 636.306 5961.44 634.661 5961.97 633.175C5962.5 631.689 5962.76 630.362 5962.76 629.194C5962.76 626.222 5961.65 623.992 5959.42 622.506C5957.19 621.02 5954.64 620.118 5951.78 619.799C5948.91 619.481 5945.78 618.685 5942.38 617.411C5938.98 616.137 5936.49 614.279 5934.9 611.837C5933.09 609.184 5932.19 606.105 5932.19 602.602Z" fill="#132AF4" stroke="#132AF4" stroke-width="5"/>
<path d="M3625.79 604.865C3623.54 606.817 3620.24 608.919 3615.88 611.171C3611.53 613.423 3606.95 614.55 3602.14 614.55C3592.68 614.55 3585.1 611.171 3579.4 604.414C3573.69 597.658 3570.76 589.024 3570.61 578.513C3570.61 562.748 3576.39 548.258 3587.95 535.045C3599.52 521.832 3612.35 515.15 3626.47 515C3633.53 515 3640.06 518.604 3646.06 525.811L3646.74 524.91C3647.04 524.459 3647.41 524.009 3647.86 523.559C3648.32 523.108 3648.99 522.507 3649.89 521.757C3650.79 521.006 3651.77 520.48 3652.82 520.18C3653.87 519.88 3655.07 519.655 3656.42 519.504C3658.53 519.504 3660.25 520.18 3661.6 521.532C3662.95 522.883 3663.71 524.309 3663.86 525.811C3663.86 528.063 3659.58 546.231 3651.02 580.315C3642.46 614.399 3637.95 631.817 3637.5 632.568C3634.8 640.676 3629.02 647.357 3620.16 652.613C3611.3 657.868 3601.17 660.571 3589.76 660.721C3568.59 660.721 3558 655.616 3558 645.405C3558 641.501 3559.35 638.048 3562.05 635.045C3564.76 632.042 3568.21 630.541 3572.41 630.541C3574.67 630.541 3576.77 631.216 3578.72 632.568C3580.67 633.919 3581.72 636.246 3581.87 639.55C3581.87 641.051 3581.72 642.477 3581.42 643.829C3581.12 645.18 3580.6 646.231 3579.85 646.982C3579.1 647.733 3578.5 648.483 3578.05 649.234C3577.59 649.985 3577.07 650.586 3576.47 651.036L3576.02 651.486H3576.24C3577.74 651.937 3582.25 652.162 3589.76 652.162C3595.46 652.162 3599.97 651.261 3603.27 649.459C3606.72 647.808 3609.95 645.33 3612.95 642.027C3615.96 638.724 3618.06 635.195 3619.26 631.441C3620.16 628.589 3621.36 623.934 3622.86 617.477C3624.82 610.27 3625.79 606.066 3625.79 604.865ZM3642.23 540.676L3641.33 538.198C3640.88 536.547 3640.51 535.42 3640.21 534.82C3639.91 534.219 3639.46 533.168 3638.86 531.667C3638.26 530.165 3637.5 529.114 3636.6 528.513C3635.7 527.913 3634.73 527.087 3633.68 526.036C3632.62 524.985 3631.27 524.309 3629.62 524.009C3627.97 523.709 3626.32 523.483 3624.67 523.333C3618.06 523.333 3611.68 527.312 3605.52 535.27C3601.02 541.126 3597.26 550.06 3594.26 562.072C3591.26 574.084 3589.76 582.793 3589.76 588.198C3589.76 600.06 3594.41 605.991 3603.72 605.991C3612.13 605.991 3620.39 600.736 3628.5 590.225L3630.3 587.973L3642.23 540.676Z" fill="#132AF4" stroke="#132AF4" stroke-width="15"/>
<path d="M3673.95 602.639C3674.06 602.002 3674.22 601.153 3674.43 600.091C3674.64 599.03 3675.28 597.013 3676.34 594.04C3677.4 591.068 3678.46 588.573 3679.52 586.556C3680.58 584.539 3682.28 582.576 3684.62 580.665C3686.95 578.754 3689.29 577.852 3691.63 577.958C3693.96 578.064 3696.24 578.435 3698.47 579.072C3700.7 579.709 3702.29 580.665 3703.25 581.939C3704.2 583.212 3705.05 584.38 3705.8 585.442C3706.54 586.503 3706.96 587.512 3707.07 588.467L3707.39 589.582C3707.39 589.794 3707.44 589.9 3707.55 589.9L3709.3 588.149C3715.67 581.355 3723.15 577.958 3731.75 577.958C3733.56 577.958 3735.2 578.064 3736.69 578.276C3738.17 578.488 3739.55 578.86 3740.83 579.391C3742.1 579.922 3743.11 580.452 3743.85 580.983C3744.6 581.514 3745.39 582.151 3746.24 582.894C3747.09 583.637 3747.62 584.327 3747.83 584.964C3748.05 585.601 3748.47 586.291 3749.11 587.034C3749.75 587.777 3749.96 588.414 3749.75 588.945C3749.53 589.476 3749.69 589.953 3750.22 590.378C3750.75 590.803 3750.86 591.174 3750.54 591.493L3751.82 589.9C3758.5 581.939 3766.41 577.958 3775.54 577.958C3781.27 577.958 3785.89 579.391 3789.4 582.257C3792.9 585.123 3794.7 589.316 3794.81 594.837C3794.81 600.251 3792.79 608.637 3788.76 619.996C3784.72 631.354 3782.71 638.148 3782.71 640.378C3782.81 641.864 3783.08 642.872 3783.5 643.403C3783.93 643.934 3784.72 644.199 3785.89 644.199C3788.86 644.199 3791.62 642.607 3794.17 639.422C3796.72 636.237 3798.79 631.885 3800.38 626.365C3800.7 625.197 3801.02 624.507 3801.34 624.295C3801.66 624.083 3802.51 623.976 3803.89 623.976C3806.01 623.976 3807.07 624.401 3807.07 625.25C3807.07 625.356 3806.86 626.153 3806.43 627.639C3805.58 630.717 3804.42 633.743 3802.93 636.715C3801.44 639.688 3799 642.66 3795.61 645.632C3792.21 648.605 3788.55 650.038 3784.62 649.932C3779.63 649.932 3776.02 648.498 3773.79 645.632C3771.56 642.766 3770.45 639.794 3770.45 636.715C3770.45 634.698 3772.36 628.329 3776.18 617.607C3780 606.885 3781.96 598.817 3782.07 593.403C3782.07 587.14 3779.73 584.009 3775.06 584.009H3774.27C3765.14 584.009 3757.44 589.369 3751.18 600.091L3750.06 602.002L3744.81 623.339C3741.31 637.246 3739.29 644.73 3738.76 645.791C3737.38 648.658 3735.1 650.091 3731.91 650.091C3730.53 650.091 3729.42 649.719 3728.57 648.976C3727.72 648.233 3727.13 647.596 3726.82 647.065C3726.5 646.535 3726.34 646.004 3726.34 645.473C3726.34 644.305 3728.14 636.715 3731.75 622.703L3737.48 599.454C3737.8 597.862 3737.96 595.845 3737.96 593.403C3737.96 587.14 3735.63 584.009 3730.96 584.009H3730.16C3721.03 584.009 3713.33 589.369 3707.07 600.091L3705.96 602.002L3700.7 623.339C3697.2 637.246 3695.18 644.73 3694.65 645.791C3693.27 648.658 3690.99 650.091 3687.8 650.091C3686.42 650.091 3685.31 649.772 3684.46 649.135C3683.61 648.498 3683.03 647.862 3682.71 647.225C3682.39 646.588 3682.28 646.057 3682.39 645.632C3682.39 644.252 3684.41 635.547 3688.44 619.518C3692.58 603.17 3694.65 594.624 3694.65 593.881C3694.97 592.289 3695.13 590.856 3695.13 589.582C3695.13 585.76 3693.8 583.849 3691.15 583.849C3688.81 583.849 3686.85 585.336 3685.26 588.308C3683.66 591.28 3682.44 594.518 3681.59 598.021C3680.74 601.524 3680.11 603.435 3679.68 603.754C3679.47 603.966 3678.62 604.072 3677.13 604.072H3674.91C3674.27 603.435 3673.95 602.957 3673.95 602.639Z" fill="#132AF4" stroke="#132AF4" stroke-width="15"/>
<path d="M3827.76 580.029C3824.9 580.029 3822.61 579.074 3820.92 577.163C3819.22 575.252 3818.37 572.917 3818.37 570.157C3818.37 562.62 3821.18 556.091 3826.81 550.571C3832.43 545.051 3839.44 542.291 3847.83 542.291C3857.49 542.291 3865.55 545.263 3872.03 551.208C3878.51 557.153 3881.8 564.849 3881.9 574.297C3881.9 578.862 3880.84 583.214 3878.72 587.354C3876.59 591.494 3874.05 595.104 3871.07 598.182C3868.1 601.261 3863.86 605.188 3858.34 609.965C3854.51 613.256 3849.21 618.139 3842.41 624.615L3833.02 633.532L3845.12 633.691C3861.79 633.691 3870.65 633.426 3871.71 632.895C3872.45 632.683 3873.73 627.959 3875.53 618.723V618.246H3881.9V618.723C3881.8 619.042 3881.11 623.872 3879.83 633.214C3878.56 642.555 3877.76 647.438 3877.44 647.863V648.341H3818.37V645.315V643.405C3818.37 642.661 3818.69 641.865 3819.32 641.016C3819.96 640.167 3821.55 638.309 3824.1 635.443C3827.18 632.046 3829.83 629.073 3832.06 626.526C3833.02 625.464 3834.82 623.5 3837.48 620.634C3840.13 617.768 3841.93 615.804 3842.89 614.742C3843.85 613.681 3845.38 611.929 3847.51 609.488C3849.63 607.046 3851.12 605.241 3851.97 604.074C3852.82 602.906 3854.04 601.314 3855.63 599.297C3857.22 597.28 3858.34 595.581 3858.97 594.201C3859.61 592.821 3860.41 591.282 3861.36 589.583C3862.32 587.885 3863.01 586.186 3863.43 584.488C3863.86 582.789 3864.23 581.197 3864.55 579.711C3864.86 578.225 3865.02 576.473 3865.02 574.456C3865.02 567.768 3863.22 561.983 3859.61 557.1C3856 552.216 3850.85 549.775 3844.16 549.775C3840.66 549.775 3837.58 550.677 3834.93 552.482C3832.27 554.286 3830.42 556.038 3829.36 557.737C3828.29 559.435 3827.76 560.444 3827.76 560.762C3827.76 560.868 3828.03 560.921 3828.56 560.921C3830.47 560.921 3832.43 561.664 3834.45 563.151C3836.47 564.637 3837.48 567.078 3837.48 570.475C3837.48 573.129 3836.63 575.358 3834.93 577.163C3833.23 578.968 3830.84 579.923 3827.76 580.029Z" fill="#132AF4" stroke="#132AF4" stroke-width="15"/>
</svg>
